%TF.GenerationSoftware,KiCad,Pcbnew,7.0.6-0*%
%TF.CreationDate,2023-10-23T20:39:10-04:00*%
%TF.ProjectId,wled-esp32-control-board,776c6564-2d65-4737-9033-322d636f6e74,B*%
%TF.SameCoordinates,Original*%
%TF.FileFunction,Other,Comment*%
%FSLAX46Y46*%
G04 Gerber Fmt 4.6, Leading zero omitted, Abs format (unit mm)*
G04 Created by KiCad (PCBNEW 7.0.6-0) date 2023-10-23 20:39:10*
%MOMM*%
%LPD*%
G01*
G04 APERTURE LIST*
%ADD10C,0.150000*%
%ADD11C,0.050000*%
%ADD12C,0.080000*%
%ADD13C,0.100000*%
G04 APERTURE END LIST*
D10*
X167983819Y-92931665D02*
X167983819Y-92312618D01*
X167983819Y-92312618D02*
X168364771Y-92645951D01*
X168364771Y-92645951D02*
X168364771Y-92503094D01*
X168364771Y-92503094D02*
X168412390Y-92407856D01*
X168412390Y-92407856D02*
X168460009Y-92360237D01*
X168460009Y-92360237D02*
X168555247Y-92312618D01*
X168555247Y-92312618D02*
X168793342Y-92312618D01*
X168793342Y-92312618D02*
X168888580Y-92360237D01*
X168888580Y-92360237D02*
X168936200Y-92407856D01*
X168936200Y-92407856D02*
X168983819Y-92503094D01*
X168983819Y-92503094D02*
X168983819Y-92788808D01*
X168983819Y-92788808D02*
X168936200Y-92884046D01*
X168936200Y-92884046D02*
X168888580Y-92931665D01*
X168983819Y-91836427D02*
X168983819Y-91645951D01*
X168983819Y-91645951D02*
X168936200Y-91550713D01*
X168936200Y-91550713D02*
X168888580Y-91503094D01*
X168888580Y-91503094D02*
X168745723Y-91407856D01*
X168745723Y-91407856D02*
X168555247Y-91360237D01*
X168555247Y-91360237D02*
X168174295Y-91360237D01*
X168174295Y-91360237D02*
X168079057Y-91407856D01*
X168079057Y-91407856D02*
X168031438Y-91455475D01*
X168031438Y-91455475D02*
X167983819Y-91550713D01*
X167983819Y-91550713D02*
X167983819Y-91741189D01*
X167983819Y-91741189D02*
X168031438Y-91836427D01*
X168031438Y-91836427D02*
X168079057Y-91884046D01*
X168079057Y-91884046D02*
X168174295Y-91931665D01*
X168174295Y-91931665D02*
X168412390Y-91931665D01*
X168412390Y-91931665D02*
X168507628Y-91884046D01*
X168507628Y-91884046D02*
X168555247Y-91836427D01*
X168555247Y-91836427D02*
X168602866Y-91741189D01*
X168602866Y-91741189D02*
X168602866Y-91550713D01*
X168602866Y-91550713D02*
X168555247Y-91455475D01*
X168555247Y-91455475D02*
X168507628Y-91407856D01*
X168507628Y-91407856D02*
X168412390Y-91360237D01*
X168888580Y-90931665D02*
X168936200Y-90884046D01*
X168936200Y-90884046D02*
X168983819Y-90931665D01*
X168983819Y-90931665D02*
X168936200Y-90979284D01*
X168936200Y-90979284D02*
X168888580Y-90931665D01*
X168888580Y-90931665D02*
X168983819Y-90931665D01*
X168317152Y-90026904D02*
X168983819Y-90026904D01*
X167936200Y-90264999D02*
X168650485Y-90503094D01*
X168650485Y-90503094D02*
X168650485Y-89884047D01*
X168983819Y-89455475D02*
X168983819Y-89264999D01*
X168983819Y-89264999D02*
X168936200Y-89169761D01*
X168936200Y-89169761D02*
X168888580Y-89122142D01*
X168888580Y-89122142D02*
X168745723Y-89026904D01*
X168745723Y-89026904D02*
X168555247Y-88979285D01*
X168555247Y-88979285D02*
X168174295Y-88979285D01*
X168174295Y-88979285D02*
X168079057Y-89026904D01*
X168079057Y-89026904D02*
X168031438Y-89074523D01*
X168031438Y-89074523D02*
X167983819Y-89169761D01*
X167983819Y-89169761D02*
X167983819Y-89360237D01*
X167983819Y-89360237D02*
X168031438Y-89455475D01*
X168031438Y-89455475D02*
X168079057Y-89503094D01*
X168079057Y-89503094D02*
X168174295Y-89550713D01*
X168174295Y-89550713D02*
X168412390Y-89550713D01*
X168412390Y-89550713D02*
X168507628Y-89503094D01*
X168507628Y-89503094D02*
X168555247Y-89455475D01*
X168555247Y-89455475D02*
X168602866Y-89360237D01*
X168602866Y-89360237D02*
X168602866Y-89169761D01*
X168602866Y-89169761D02*
X168555247Y-89074523D01*
X168555247Y-89074523D02*
X168507628Y-89026904D01*
X168507628Y-89026904D02*
X168412390Y-88979285D01*
X167983819Y-88645951D02*
X167983819Y-87979285D01*
X167983819Y-87979285D02*
X168983819Y-88407856D01*
X167983819Y-87407856D02*
X167983819Y-87312618D01*
X167983819Y-87312618D02*
X168031438Y-87217380D01*
X168031438Y-87217380D02*
X168079057Y-87169761D01*
X168079057Y-87169761D02*
X168174295Y-87122142D01*
X168174295Y-87122142D02*
X168364771Y-87074523D01*
X168364771Y-87074523D02*
X168602866Y-87074523D01*
X168602866Y-87074523D02*
X168793342Y-87122142D01*
X168793342Y-87122142D02*
X168888580Y-87169761D01*
X168888580Y-87169761D02*
X168936200Y-87217380D01*
X168936200Y-87217380D02*
X168983819Y-87312618D01*
X168983819Y-87312618D02*
X168983819Y-87407856D01*
X168983819Y-87407856D02*
X168936200Y-87503094D01*
X168936200Y-87503094D02*
X168888580Y-87550713D01*
X168888580Y-87550713D02*
X168793342Y-87598332D01*
X168793342Y-87598332D02*
X168602866Y-87645951D01*
X168602866Y-87645951D02*
X168364771Y-87645951D01*
X168364771Y-87645951D02*
X168174295Y-87598332D01*
X168174295Y-87598332D02*
X168079057Y-87550713D01*
X168079057Y-87550713D02*
X168031438Y-87503094D01*
X168031438Y-87503094D02*
X167983819Y-87407856D01*
X168983819Y-85884046D02*
X168317152Y-85884046D01*
X168412390Y-85884046D02*
X168364771Y-85836427D01*
X168364771Y-85836427D02*
X168317152Y-85741189D01*
X168317152Y-85741189D02*
X168317152Y-85598332D01*
X168317152Y-85598332D02*
X168364771Y-85503094D01*
X168364771Y-85503094D02*
X168460009Y-85455475D01*
X168460009Y-85455475D02*
X168983819Y-85455475D01*
X168460009Y-85455475D02*
X168364771Y-85407856D01*
X168364771Y-85407856D02*
X168317152Y-85312618D01*
X168317152Y-85312618D02*
X168317152Y-85169761D01*
X168317152Y-85169761D02*
X168364771Y-85074522D01*
X168364771Y-85074522D02*
X168460009Y-85026903D01*
X168460009Y-85026903D02*
X168983819Y-85026903D01*
X168983819Y-84550713D02*
X168317152Y-84550713D01*
X168412390Y-84550713D02*
X168364771Y-84503094D01*
X168364771Y-84503094D02*
X168317152Y-84407856D01*
X168317152Y-84407856D02*
X168317152Y-84264999D01*
X168317152Y-84264999D02*
X168364771Y-84169761D01*
X168364771Y-84169761D02*
X168460009Y-84122142D01*
X168460009Y-84122142D02*
X168983819Y-84122142D01*
X168460009Y-84122142D02*
X168364771Y-84074523D01*
X168364771Y-84074523D02*
X168317152Y-83979285D01*
X168317152Y-83979285D02*
X168317152Y-83836428D01*
X168317152Y-83836428D02*
X168364771Y-83741189D01*
X168364771Y-83741189D02*
X168460009Y-83693570D01*
X168460009Y-83693570D02*
X168983819Y-83693570D01*
X160774000Y-107950000D02*
X167591420Y-107950000D01*
X160774000Y-68453000D02*
X167591420Y-68453000D01*
X167005000Y-107950000D02*
X167005000Y-68453000D01*
X167005000Y-107950000D02*
X167005000Y-68453000D01*
X167005000Y-107950000D02*
X166418579Y-106823496D01*
X167005000Y-107950000D02*
X167591421Y-106823496D01*
X167005000Y-68453000D02*
X167591421Y-69579504D01*
X167005000Y-68453000D02*
X166418579Y-69579504D01*
X126222643Y-113627819D02*
X126032167Y-113627819D01*
X126032167Y-113627819D02*
X125936929Y-113675438D01*
X125936929Y-113675438D02*
X125889310Y-113723057D01*
X125889310Y-113723057D02*
X125794072Y-113865914D01*
X125794072Y-113865914D02*
X125746453Y-114056390D01*
X125746453Y-114056390D02*
X125746453Y-114437342D01*
X125746453Y-114437342D02*
X125794072Y-114532580D01*
X125794072Y-114532580D02*
X125841691Y-114580200D01*
X125841691Y-114580200D02*
X125936929Y-114627819D01*
X125936929Y-114627819D02*
X126127405Y-114627819D01*
X126127405Y-114627819D02*
X126222643Y-114580200D01*
X126222643Y-114580200D02*
X126270262Y-114532580D01*
X126270262Y-114532580D02*
X126317881Y-114437342D01*
X126317881Y-114437342D02*
X126317881Y-114199247D01*
X126317881Y-114199247D02*
X126270262Y-114104009D01*
X126270262Y-114104009D02*
X126222643Y-114056390D01*
X126222643Y-114056390D02*
X126127405Y-114008771D01*
X126127405Y-114008771D02*
X125936929Y-114008771D01*
X125936929Y-114008771D02*
X125841691Y-114056390D01*
X125841691Y-114056390D02*
X125794072Y-114104009D01*
X125794072Y-114104009D02*
X125746453Y-114199247D01*
X127175024Y-113961152D02*
X127175024Y-114627819D01*
X126936929Y-113580200D02*
X126698834Y-114294485D01*
X126698834Y-114294485D02*
X127317881Y-114294485D01*
X127698834Y-114532580D02*
X127746453Y-114580200D01*
X127746453Y-114580200D02*
X127698834Y-114627819D01*
X127698834Y-114627819D02*
X127651215Y-114580200D01*
X127651215Y-114580200D02*
X127698834Y-114532580D01*
X127698834Y-114532580D02*
X127698834Y-114627819D01*
X128317881Y-114056390D02*
X128222643Y-114008771D01*
X128222643Y-114008771D02*
X128175024Y-113961152D01*
X128175024Y-113961152D02*
X128127405Y-113865914D01*
X128127405Y-113865914D02*
X128127405Y-113818295D01*
X128127405Y-113818295D02*
X128175024Y-113723057D01*
X128175024Y-113723057D02*
X128222643Y-113675438D01*
X128222643Y-113675438D02*
X128317881Y-113627819D01*
X128317881Y-113627819D02*
X128508357Y-113627819D01*
X128508357Y-113627819D02*
X128603595Y-113675438D01*
X128603595Y-113675438D02*
X128651214Y-113723057D01*
X128651214Y-113723057D02*
X128698833Y-113818295D01*
X128698833Y-113818295D02*
X128698833Y-113865914D01*
X128698833Y-113865914D02*
X128651214Y-113961152D01*
X128651214Y-113961152D02*
X128603595Y-114008771D01*
X128603595Y-114008771D02*
X128508357Y-114056390D01*
X128508357Y-114056390D02*
X128317881Y-114056390D01*
X128317881Y-114056390D02*
X128222643Y-114104009D01*
X128222643Y-114104009D02*
X128175024Y-114151628D01*
X128175024Y-114151628D02*
X128127405Y-114246866D01*
X128127405Y-114246866D02*
X128127405Y-114437342D01*
X128127405Y-114437342D02*
X128175024Y-114532580D01*
X128175024Y-114532580D02*
X128222643Y-114580200D01*
X128222643Y-114580200D02*
X128317881Y-114627819D01*
X128317881Y-114627819D02*
X128508357Y-114627819D01*
X128508357Y-114627819D02*
X128603595Y-114580200D01*
X128603595Y-114580200D02*
X128651214Y-114532580D01*
X128651214Y-114532580D02*
X128698833Y-114437342D01*
X128698833Y-114437342D02*
X128698833Y-114246866D01*
X128698833Y-114246866D02*
X128651214Y-114151628D01*
X128651214Y-114151628D02*
X128603595Y-114104009D01*
X128603595Y-114104009D02*
X128508357Y-114056390D01*
X129175024Y-114627819D02*
X129365500Y-114627819D01*
X129365500Y-114627819D02*
X129460738Y-114580200D01*
X129460738Y-114580200D02*
X129508357Y-114532580D01*
X129508357Y-114532580D02*
X129603595Y-114389723D01*
X129603595Y-114389723D02*
X129651214Y-114199247D01*
X129651214Y-114199247D02*
X129651214Y-113818295D01*
X129651214Y-113818295D02*
X129603595Y-113723057D01*
X129603595Y-113723057D02*
X129555976Y-113675438D01*
X129555976Y-113675438D02*
X129460738Y-113627819D01*
X129460738Y-113627819D02*
X129270262Y-113627819D01*
X129270262Y-113627819D02*
X129175024Y-113675438D01*
X129175024Y-113675438D02*
X129127405Y-113723057D01*
X129127405Y-113723057D02*
X129079786Y-113818295D01*
X129079786Y-113818295D02*
X129079786Y-114056390D01*
X129079786Y-114056390D02*
X129127405Y-114151628D01*
X129127405Y-114151628D02*
X129175024Y-114199247D01*
X129175024Y-114199247D02*
X129270262Y-114246866D01*
X129270262Y-114246866D02*
X129460738Y-114246866D01*
X129460738Y-114246866D02*
X129555976Y-114199247D01*
X129555976Y-114199247D02*
X129603595Y-114151628D01*
X129603595Y-114151628D02*
X129651214Y-114056390D01*
X129984548Y-113627819D02*
X130651214Y-113627819D01*
X130651214Y-113627819D02*
X130222643Y-114627819D01*
X131222643Y-113627819D02*
X131317881Y-113627819D01*
X131317881Y-113627819D02*
X131413119Y-113675438D01*
X131413119Y-113675438D02*
X131460738Y-113723057D01*
X131460738Y-113723057D02*
X131508357Y-113818295D01*
X131508357Y-113818295D02*
X131555976Y-114008771D01*
X131555976Y-114008771D02*
X131555976Y-114246866D01*
X131555976Y-114246866D02*
X131508357Y-114437342D01*
X131508357Y-114437342D02*
X131460738Y-114532580D01*
X131460738Y-114532580D02*
X131413119Y-114580200D01*
X131413119Y-114580200D02*
X131317881Y-114627819D01*
X131317881Y-114627819D02*
X131222643Y-114627819D01*
X131222643Y-114627819D02*
X131127405Y-114580200D01*
X131127405Y-114580200D02*
X131079786Y-114532580D01*
X131079786Y-114532580D02*
X131032167Y-114437342D01*
X131032167Y-114437342D02*
X130984548Y-114246866D01*
X130984548Y-114246866D02*
X130984548Y-114008771D01*
X130984548Y-114008771D02*
X131032167Y-113818295D01*
X131032167Y-113818295D02*
X131079786Y-113723057D01*
X131079786Y-113723057D02*
X131127405Y-113675438D01*
X131127405Y-113675438D02*
X131222643Y-113627819D01*
X132746453Y-114627819D02*
X132746453Y-113961152D01*
X132746453Y-114056390D02*
X132794072Y-114008771D01*
X132794072Y-114008771D02*
X132889310Y-113961152D01*
X132889310Y-113961152D02*
X133032167Y-113961152D01*
X133032167Y-113961152D02*
X133127405Y-114008771D01*
X133127405Y-114008771D02*
X133175024Y-114104009D01*
X133175024Y-114104009D02*
X133175024Y-114627819D01*
X133175024Y-114104009D02*
X133222643Y-114008771D01*
X133222643Y-114008771D02*
X133317881Y-113961152D01*
X133317881Y-113961152D02*
X133460738Y-113961152D01*
X133460738Y-113961152D02*
X133555977Y-114008771D01*
X133555977Y-114008771D02*
X133603596Y-114104009D01*
X133603596Y-114104009D02*
X133603596Y-114627819D01*
X134079786Y-114627819D02*
X134079786Y-113961152D01*
X134079786Y-114056390D02*
X134127405Y-114008771D01*
X134127405Y-114008771D02*
X134222643Y-113961152D01*
X134222643Y-113961152D02*
X134365500Y-113961152D01*
X134365500Y-113961152D02*
X134460738Y-114008771D01*
X134460738Y-114008771D02*
X134508357Y-114104009D01*
X134508357Y-114104009D02*
X134508357Y-114627819D01*
X134508357Y-114104009D02*
X134555976Y-114008771D01*
X134555976Y-114008771D02*
X134651214Y-113961152D01*
X134651214Y-113961152D02*
X134794071Y-113961152D01*
X134794071Y-113961152D02*
X134889310Y-114008771D01*
X134889310Y-114008771D02*
X134936929Y-114104009D01*
X134936929Y-114104009D02*
X134936929Y-114627819D01*
X162814000Y-105910000D02*
X162814000Y-113362420D01*
X97917000Y-105910000D02*
X97917000Y-113362420D01*
X162814000Y-112776000D02*
X97917000Y-112776000D01*
X162814000Y-112776000D02*
X97917000Y-112776000D01*
X162814000Y-112776000D02*
X161687496Y-113362421D01*
X162814000Y-112776000D02*
X161687496Y-112189579D01*
X97917000Y-112776000D02*
X99043504Y-112189579D01*
X97917000Y-112776000D02*
X99043504Y-113362421D01*
D11*
X101482185Y-75454428D02*
X101182185Y-75454428D01*
X101182185Y-75454428D02*
X101482185Y-75282999D01*
X101482185Y-75282999D02*
X101182185Y-75282999D01*
X101482185Y-75097285D02*
X101467900Y-75125856D01*
X101467900Y-75125856D02*
X101453614Y-75140142D01*
X101453614Y-75140142D02*
X101425042Y-75154428D01*
X101425042Y-75154428D02*
X101339328Y-75154428D01*
X101339328Y-75154428D02*
X101310757Y-75140142D01*
X101310757Y-75140142D02*
X101296471Y-75125856D01*
X101296471Y-75125856D02*
X101282185Y-75097285D01*
X101282185Y-75097285D02*
X101282185Y-75054428D01*
X101282185Y-75054428D02*
X101296471Y-75025856D01*
X101296471Y-75025856D02*
X101310757Y-75011571D01*
X101310757Y-75011571D02*
X101339328Y-74997285D01*
X101339328Y-74997285D02*
X101425042Y-74997285D01*
X101425042Y-74997285D02*
X101453614Y-75011571D01*
X101453614Y-75011571D02*
X101467900Y-75025856D01*
X101467900Y-75025856D02*
X101482185Y-75054428D01*
X101482185Y-75054428D02*
X101482185Y-75097285D01*
X101282185Y-74682999D02*
X101282185Y-74568713D01*
X101182185Y-74640142D02*
X101439328Y-74640142D01*
X101439328Y-74640142D02*
X101467900Y-74625856D01*
X101467900Y-74625856D02*
X101482185Y-74597285D01*
X101482185Y-74597285D02*
X101482185Y-74568713D01*
X101482185Y-74468713D02*
X101282185Y-74468713D01*
X101339328Y-74468713D02*
X101310757Y-74454427D01*
X101310757Y-74454427D02*
X101296471Y-74440142D01*
X101296471Y-74440142D02*
X101282185Y-74411570D01*
X101282185Y-74411570D02*
X101282185Y-74382999D01*
X101482185Y-74154428D02*
X101325042Y-74154428D01*
X101325042Y-74154428D02*
X101296471Y-74168713D01*
X101296471Y-74168713D02*
X101282185Y-74197285D01*
X101282185Y-74197285D02*
X101282185Y-74254428D01*
X101282185Y-74254428D02*
X101296471Y-74282999D01*
X101467900Y-74154428D02*
X101482185Y-74182999D01*
X101482185Y-74182999D02*
X101482185Y-74254428D01*
X101482185Y-74254428D02*
X101467900Y-74282999D01*
X101467900Y-74282999D02*
X101439328Y-74297285D01*
X101439328Y-74297285D02*
X101410757Y-74297285D01*
X101410757Y-74297285D02*
X101382185Y-74282999D01*
X101382185Y-74282999D02*
X101367900Y-74254428D01*
X101367900Y-74254428D02*
X101367900Y-74182999D01*
X101367900Y-74182999D02*
X101353614Y-74154428D01*
X101467900Y-73882999D02*
X101482185Y-73911570D01*
X101482185Y-73911570D02*
X101482185Y-73968713D01*
X101482185Y-73968713D02*
X101467900Y-73997284D01*
X101467900Y-73997284D02*
X101453614Y-74011570D01*
X101453614Y-74011570D02*
X101425042Y-74025856D01*
X101425042Y-74025856D02*
X101339328Y-74025856D01*
X101339328Y-74025856D02*
X101310757Y-74011570D01*
X101310757Y-74011570D02*
X101296471Y-73997284D01*
X101296471Y-73997284D02*
X101282185Y-73968713D01*
X101282185Y-73968713D02*
X101282185Y-73911570D01*
X101282185Y-73911570D02*
X101296471Y-73882999D01*
X101482185Y-73754427D02*
X101182185Y-73754427D01*
X101367900Y-73725856D02*
X101482185Y-73640141D01*
X101282185Y-73640141D02*
X101396471Y-73754427D01*
X101467900Y-73525856D02*
X101482185Y-73497284D01*
X101482185Y-73497284D02*
X101482185Y-73440141D01*
X101482185Y-73440141D02*
X101467900Y-73411570D01*
X101467900Y-73411570D02*
X101439328Y-73397284D01*
X101439328Y-73397284D02*
X101425042Y-73397284D01*
X101425042Y-73397284D02*
X101396471Y-73411570D01*
X101396471Y-73411570D02*
X101382185Y-73440141D01*
X101382185Y-73440141D02*
X101382185Y-73482999D01*
X101382185Y-73482999D02*
X101367900Y-73511570D01*
X101367900Y-73511570D02*
X101339328Y-73525856D01*
X101339328Y-73525856D02*
X101325042Y-73525856D01*
X101325042Y-73525856D02*
X101296471Y-73511570D01*
X101296471Y-73511570D02*
X101282185Y-73482999D01*
X101282185Y-73482999D02*
X101282185Y-73440141D01*
X101282185Y-73440141D02*
X101296471Y-73411570D01*
X101482185Y-72997285D02*
X101467900Y-73025856D01*
X101467900Y-73025856D02*
X101453614Y-73040142D01*
X101453614Y-73040142D02*
X101425042Y-73054428D01*
X101425042Y-73054428D02*
X101339328Y-73054428D01*
X101339328Y-73054428D02*
X101310757Y-73040142D01*
X101310757Y-73040142D02*
X101296471Y-73025856D01*
X101296471Y-73025856D02*
X101282185Y-72997285D01*
X101282185Y-72997285D02*
X101282185Y-72954428D01*
X101282185Y-72954428D02*
X101296471Y-72925856D01*
X101296471Y-72925856D02*
X101310757Y-72911571D01*
X101310757Y-72911571D02*
X101339328Y-72897285D01*
X101339328Y-72897285D02*
X101425042Y-72897285D01*
X101425042Y-72897285D02*
X101453614Y-72911571D01*
X101453614Y-72911571D02*
X101467900Y-72925856D01*
X101467900Y-72925856D02*
X101482185Y-72954428D01*
X101482185Y-72954428D02*
X101482185Y-72997285D01*
X101482185Y-72768713D02*
X101282185Y-72768713D01*
X101339328Y-72768713D02*
X101310757Y-72754427D01*
X101310757Y-72754427D02*
X101296471Y-72740142D01*
X101296471Y-72740142D02*
X101282185Y-72711570D01*
X101282185Y-72711570D02*
X101282185Y-72682999D01*
X101282185Y-72382999D02*
X101482185Y-72311571D01*
X101482185Y-72311571D02*
X101282185Y-72240142D01*
X101482185Y-72125857D02*
X101282185Y-72125857D01*
X101182185Y-72125857D02*
X101196471Y-72140143D01*
X101196471Y-72140143D02*
X101210757Y-72125857D01*
X101210757Y-72125857D02*
X101196471Y-72111571D01*
X101196471Y-72111571D02*
X101182185Y-72125857D01*
X101182185Y-72125857D02*
X101210757Y-72125857D01*
X101482185Y-71854429D02*
X101325042Y-71854429D01*
X101325042Y-71854429D02*
X101296471Y-71868714D01*
X101296471Y-71868714D02*
X101282185Y-71897286D01*
X101282185Y-71897286D02*
X101282185Y-71954429D01*
X101282185Y-71954429D02*
X101296471Y-71983000D01*
X101467900Y-71854429D02*
X101482185Y-71883000D01*
X101482185Y-71883000D02*
X101482185Y-71954429D01*
X101482185Y-71954429D02*
X101467900Y-71983000D01*
X101467900Y-71983000D02*
X101439328Y-71997286D01*
X101439328Y-71997286D02*
X101410757Y-71997286D01*
X101410757Y-71997286D02*
X101382185Y-71983000D01*
X101382185Y-71983000D02*
X101367900Y-71954429D01*
X101367900Y-71954429D02*
X101367900Y-71883000D01*
X101367900Y-71883000D02*
X101353614Y-71854429D01*
X101467900Y-71725857D02*
X101482185Y-71697285D01*
X101482185Y-71697285D02*
X101482185Y-71640142D01*
X101482185Y-71640142D02*
X101467900Y-71611571D01*
X101467900Y-71611571D02*
X101439328Y-71597285D01*
X101439328Y-71597285D02*
X101425042Y-71597285D01*
X101425042Y-71597285D02*
X101396471Y-71611571D01*
X101396471Y-71611571D02*
X101382185Y-71640142D01*
X101382185Y-71640142D02*
X101382185Y-71683000D01*
X101382185Y-71683000D02*
X101367900Y-71711571D01*
X101367900Y-71711571D02*
X101339328Y-71725857D01*
X101339328Y-71725857D02*
X101325042Y-71725857D01*
X101325042Y-71725857D02*
X101296471Y-71711571D01*
X101296471Y-71711571D02*
X101282185Y-71683000D01*
X101282185Y-71683000D02*
X101282185Y-71640142D01*
X101282185Y-71640142D02*
X101296471Y-71611571D01*
X102117185Y-75261572D02*
X101917185Y-75261572D01*
X101817185Y-75261572D02*
X101831471Y-75275858D01*
X101831471Y-75275858D02*
X101845757Y-75261572D01*
X101845757Y-75261572D02*
X101831471Y-75247286D01*
X101831471Y-75247286D02*
X101817185Y-75261572D01*
X101817185Y-75261572D02*
X101845757Y-75261572D01*
X101917185Y-75118715D02*
X102117185Y-75118715D01*
X101945757Y-75118715D02*
X101931471Y-75104429D01*
X101931471Y-75104429D02*
X101917185Y-75075858D01*
X101917185Y-75075858D02*
X101917185Y-75033001D01*
X101917185Y-75033001D02*
X101931471Y-75004429D01*
X101931471Y-75004429D02*
X101960042Y-74990144D01*
X101960042Y-74990144D02*
X102117185Y-74990144D01*
X102117185Y-74618715D02*
X101817185Y-74618715D01*
X102002900Y-74590144D02*
X102117185Y-74504429D01*
X101917185Y-74504429D02*
X102031471Y-74618715D01*
X102102900Y-74261572D02*
X102117185Y-74290144D01*
X102117185Y-74290144D02*
X102117185Y-74347287D01*
X102117185Y-74347287D02*
X102102900Y-74375858D01*
X102102900Y-74375858D02*
X102074328Y-74390144D01*
X102074328Y-74390144D02*
X101960042Y-74390144D01*
X101960042Y-74390144D02*
X101931471Y-74375858D01*
X101931471Y-74375858D02*
X101917185Y-74347287D01*
X101917185Y-74347287D02*
X101917185Y-74290144D01*
X101917185Y-74290144D02*
X101931471Y-74261572D01*
X101931471Y-74261572D02*
X101960042Y-74247287D01*
X101960042Y-74247287D02*
X101988614Y-74247287D01*
X101988614Y-74247287D02*
X102017185Y-74390144D01*
X102102900Y-74004429D02*
X102117185Y-74033001D01*
X102117185Y-74033001D02*
X102117185Y-74090144D01*
X102117185Y-74090144D02*
X102102900Y-74118715D01*
X102102900Y-74118715D02*
X102074328Y-74133001D01*
X102074328Y-74133001D02*
X101960042Y-74133001D01*
X101960042Y-74133001D02*
X101931471Y-74118715D01*
X101931471Y-74118715D02*
X101917185Y-74090144D01*
X101917185Y-74090144D02*
X101917185Y-74033001D01*
X101917185Y-74033001D02*
X101931471Y-74004429D01*
X101931471Y-74004429D02*
X101960042Y-73990144D01*
X101960042Y-73990144D02*
X101988614Y-73990144D01*
X101988614Y-73990144D02*
X102017185Y-74133001D01*
X101917185Y-73861572D02*
X102217185Y-73861572D01*
X101931471Y-73861572D02*
X101917185Y-73833001D01*
X101917185Y-73833001D02*
X101917185Y-73775858D01*
X101917185Y-73775858D02*
X101931471Y-73747286D01*
X101931471Y-73747286D02*
X101945757Y-73733001D01*
X101945757Y-73733001D02*
X101974328Y-73718715D01*
X101974328Y-73718715D02*
X102060042Y-73718715D01*
X102060042Y-73718715D02*
X102088614Y-73733001D01*
X102088614Y-73733001D02*
X102102900Y-73747286D01*
X102102900Y-73747286D02*
X102117185Y-73775858D01*
X102117185Y-73775858D02*
X102117185Y-73833001D01*
X102117185Y-73833001D02*
X102102900Y-73861572D01*
X102117185Y-73547286D02*
X102102900Y-73575857D01*
X102102900Y-73575857D02*
X102088614Y-73590143D01*
X102088614Y-73590143D02*
X102060042Y-73604429D01*
X102060042Y-73604429D02*
X101974328Y-73604429D01*
X101974328Y-73604429D02*
X101945757Y-73590143D01*
X101945757Y-73590143D02*
X101931471Y-73575857D01*
X101931471Y-73575857D02*
X101917185Y-73547286D01*
X101917185Y-73547286D02*
X101917185Y-73504429D01*
X101917185Y-73504429D02*
X101931471Y-73475857D01*
X101931471Y-73475857D02*
X101945757Y-73461572D01*
X101945757Y-73461572D02*
X101974328Y-73447286D01*
X101974328Y-73447286D02*
X102060042Y-73447286D01*
X102060042Y-73447286D02*
X102088614Y-73461572D01*
X102088614Y-73461572D02*
X102102900Y-73475857D01*
X102102900Y-73475857D02*
X102117185Y-73504429D01*
X102117185Y-73504429D02*
X102117185Y-73547286D01*
X101917185Y-73190143D02*
X102117185Y-73190143D01*
X101917185Y-73318714D02*
X102074328Y-73318714D01*
X102074328Y-73318714D02*
X102102900Y-73304428D01*
X102102900Y-73304428D02*
X102117185Y-73275857D01*
X102117185Y-73275857D02*
X102117185Y-73233000D01*
X102117185Y-73233000D02*
X102102900Y-73204428D01*
X102102900Y-73204428D02*
X102088614Y-73190143D01*
X101917185Y-73090142D02*
X101917185Y-72975856D01*
X101817185Y-73047285D02*
X102074328Y-73047285D01*
X102074328Y-73047285D02*
X102102900Y-73032999D01*
X102102900Y-73032999D02*
X102117185Y-73004428D01*
X102117185Y-73004428D02*
X102117185Y-72975856D01*
X102117185Y-72518714D02*
X101960042Y-72518714D01*
X101960042Y-72518714D02*
X101931471Y-72532999D01*
X101931471Y-72532999D02*
X101917185Y-72561571D01*
X101917185Y-72561571D02*
X101917185Y-72618714D01*
X101917185Y-72618714D02*
X101931471Y-72647285D01*
X102102900Y-72518714D02*
X102117185Y-72547285D01*
X102117185Y-72547285D02*
X102117185Y-72618714D01*
X102117185Y-72618714D02*
X102102900Y-72647285D01*
X102102900Y-72647285D02*
X102074328Y-72661571D01*
X102074328Y-72661571D02*
X102045757Y-72661571D01*
X102045757Y-72661571D02*
X102017185Y-72647285D01*
X102017185Y-72647285D02*
X102002900Y-72618714D01*
X102002900Y-72618714D02*
X102002900Y-72547285D01*
X102002900Y-72547285D02*
X101988614Y-72518714D01*
X102117185Y-72375856D02*
X101917185Y-72375856D01*
X101974328Y-72375856D02*
X101945757Y-72361570D01*
X101945757Y-72361570D02*
X101931471Y-72347285D01*
X101931471Y-72347285D02*
X101917185Y-72318713D01*
X101917185Y-72318713D02*
X101917185Y-72290142D01*
X102102900Y-72075856D02*
X102117185Y-72104428D01*
X102117185Y-72104428D02*
X102117185Y-72161571D01*
X102117185Y-72161571D02*
X102102900Y-72190142D01*
X102102900Y-72190142D02*
X102074328Y-72204428D01*
X102074328Y-72204428D02*
X101960042Y-72204428D01*
X101960042Y-72204428D02*
X101931471Y-72190142D01*
X101931471Y-72190142D02*
X101917185Y-72161571D01*
X101917185Y-72161571D02*
X101917185Y-72104428D01*
X101917185Y-72104428D02*
X101931471Y-72075856D01*
X101931471Y-72075856D02*
X101960042Y-72061571D01*
X101960042Y-72061571D02*
X101988614Y-72061571D01*
X101988614Y-72061571D02*
X102017185Y-72204428D01*
X102117185Y-71804428D02*
X101960042Y-71804428D01*
X101960042Y-71804428D02*
X101931471Y-71818713D01*
X101931471Y-71818713D02*
X101917185Y-71847285D01*
X101917185Y-71847285D02*
X101917185Y-71904428D01*
X101917185Y-71904428D02*
X101931471Y-71932999D01*
X102102900Y-71804428D02*
X102117185Y-71832999D01*
X102117185Y-71832999D02*
X102117185Y-71904428D01*
X102117185Y-71904428D02*
X102102900Y-71932999D01*
X102102900Y-71932999D02*
X102074328Y-71947285D01*
X102074328Y-71947285D02*
X102045757Y-71947285D01*
X102045757Y-71947285D02*
X102017185Y-71932999D01*
X102017185Y-71932999D02*
X102002900Y-71904428D01*
X102002900Y-71904428D02*
X102002900Y-71832999D01*
X102002900Y-71832999D02*
X101988614Y-71804428D01*
D12*
X101573149Y-80795619D02*
X101073149Y-80795619D01*
X101573149Y-80509905D02*
X101287435Y-80724190D01*
X101073149Y-80509905D02*
X101358863Y-80795619D01*
X101311244Y-80295619D02*
X101311244Y-80128952D01*
X101573149Y-80057524D02*
X101573149Y-80295619D01*
X101573149Y-80295619D02*
X101073149Y-80295619D01*
X101073149Y-80295619D02*
X101073149Y-80057524D01*
X101311244Y-79843238D02*
X101311244Y-79676571D01*
X101573149Y-79605143D02*
X101573149Y-79843238D01*
X101573149Y-79843238D02*
X101073149Y-79843238D01*
X101073149Y-79843238D02*
X101073149Y-79605143D01*
X101573149Y-79390857D02*
X101073149Y-79390857D01*
X101073149Y-79390857D02*
X101073149Y-79200381D01*
X101073149Y-79200381D02*
X101096959Y-79152762D01*
X101096959Y-79152762D02*
X101120768Y-79128952D01*
X101120768Y-79128952D02*
X101168387Y-79105143D01*
X101168387Y-79105143D02*
X101239816Y-79105143D01*
X101239816Y-79105143D02*
X101287435Y-79128952D01*
X101287435Y-79128952D02*
X101311244Y-79152762D01*
X101311244Y-79152762D02*
X101335054Y-79200381D01*
X101335054Y-79200381D02*
X101335054Y-79390857D01*
X101073149Y-78795619D02*
X101073149Y-78700381D01*
X101073149Y-78700381D02*
X101096959Y-78652762D01*
X101096959Y-78652762D02*
X101144578Y-78605143D01*
X101144578Y-78605143D02*
X101239816Y-78581333D01*
X101239816Y-78581333D02*
X101406482Y-78581333D01*
X101406482Y-78581333D02*
X101501720Y-78605143D01*
X101501720Y-78605143D02*
X101549340Y-78652762D01*
X101549340Y-78652762D02*
X101573149Y-78700381D01*
X101573149Y-78700381D02*
X101573149Y-78795619D01*
X101573149Y-78795619D02*
X101549340Y-78843238D01*
X101549340Y-78843238D02*
X101501720Y-78890857D01*
X101501720Y-78890857D02*
X101406482Y-78914666D01*
X101406482Y-78914666D02*
X101239816Y-78914666D01*
X101239816Y-78914666D02*
X101144578Y-78890857D01*
X101144578Y-78890857D02*
X101096959Y-78843238D01*
X101096959Y-78843238D02*
X101073149Y-78795619D01*
X101073149Y-78367047D02*
X101477911Y-78367047D01*
X101477911Y-78367047D02*
X101525530Y-78343237D01*
X101525530Y-78343237D02*
X101549340Y-78319428D01*
X101549340Y-78319428D02*
X101573149Y-78271809D01*
X101573149Y-78271809D02*
X101573149Y-78176571D01*
X101573149Y-78176571D02*
X101549340Y-78128952D01*
X101549340Y-78128952D02*
X101525530Y-78105142D01*
X101525530Y-78105142D02*
X101477911Y-78081333D01*
X101477911Y-78081333D02*
X101073149Y-78081333D01*
X101073149Y-77914665D02*
X101073149Y-77628951D01*
X101573149Y-77771808D02*
X101073149Y-77771808D01*
D13*
X140674609Y-66646095D02*
X140674609Y-66884190D01*
X140674609Y-66884190D02*
X140912704Y-66907999D01*
X140912704Y-66907999D02*
X140888895Y-66884190D01*
X140888895Y-66884190D02*
X140865085Y-66836571D01*
X140865085Y-66836571D02*
X140865085Y-66717523D01*
X140865085Y-66717523D02*
X140888895Y-66669904D01*
X140888895Y-66669904D02*
X140912704Y-66646095D01*
X140912704Y-66646095D02*
X140960323Y-66622285D01*
X140960323Y-66622285D02*
X141079371Y-66622285D01*
X141079371Y-66622285D02*
X141126990Y-66646095D01*
X141126990Y-66646095D02*
X141150800Y-66669904D01*
X141150800Y-66669904D02*
X141174609Y-66717523D01*
X141174609Y-66717523D02*
X141174609Y-66836571D01*
X141174609Y-66836571D02*
X141150800Y-66884190D01*
X141150800Y-66884190D02*
X141126990Y-66907999D01*
X141174609Y-66027048D02*
X140841276Y-66027048D01*
X140888895Y-66027048D02*
X140865085Y-66003238D01*
X140865085Y-66003238D02*
X140841276Y-65955619D01*
X140841276Y-65955619D02*
X140841276Y-65884191D01*
X140841276Y-65884191D02*
X140865085Y-65836572D01*
X140865085Y-65836572D02*
X140912704Y-65812762D01*
X140912704Y-65812762D02*
X141174609Y-65812762D01*
X140912704Y-65812762D02*
X140865085Y-65788953D01*
X140865085Y-65788953D02*
X140841276Y-65741334D01*
X140841276Y-65741334D02*
X140841276Y-65669905D01*
X140841276Y-65669905D02*
X140865085Y-65622286D01*
X140865085Y-65622286D02*
X140912704Y-65598476D01*
X140912704Y-65598476D02*
X141174609Y-65598476D01*
X141174609Y-65360381D02*
X140841276Y-65360381D01*
X140888895Y-65360381D02*
X140865085Y-65336571D01*
X140865085Y-65336571D02*
X140841276Y-65288952D01*
X140841276Y-65288952D02*
X140841276Y-65217524D01*
X140841276Y-65217524D02*
X140865085Y-65169905D01*
X140865085Y-65169905D02*
X140912704Y-65146095D01*
X140912704Y-65146095D02*
X141174609Y-65146095D01*
X140912704Y-65146095D02*
X140865085Y-65122286D01*
X140865085Y-65122286D02*
X140841276Y-65074667D01*
X140841276Y-65074667D02*
X140841276Y-65003238D01*
X140841276Y-65003238D02*
X140865085Y-64955619D01*
X140865085Y-64955619D02*
X140912704Y-64931809D01*
X140912704Y-64931809D02*
X141174609Y-64931809D01*
X121210404Y-70334109D02*
X120972309Y-70334109D01*
X120972309Y-70334109D02*
X120948500Y-70572204D01*
X120948500Y-70572204D02*
X120972309Y-70548395D01*
X120972309Y-70548395D02*
X121019928Y-70524585D01*
X121019928Y-70524585D02*
X121138976Y-70524585D01*
X121138976Y-70524585D02*
X121186595Y-70548395D01*
X121186595Y-70548395D02*
X121210404Y-70572204D01*
X121210404Y-70572204D02*
X121234214Y-70619823D01*
X121234214Y-70619823D02*
X121234214Y-70738871D01*
X121234214Y-70738871D02*
X121210404Y-70786490D01*
X121210404Y-70786490D02*
X121186595Y-70810300D01*
X121186595Y-70810300D02*
X121138976Y-70834109D01*
X121138976Y-70834109D02*
X121019928Y-70834109D01*
X121019928Y-70834109D02*
X120972309Y-70810300D01*
X120972309Y-70810300D02*
X120948500Y-70786490D01*
X121829451Y-70834109D02*
X121829451Y-70500776D01*
X121829451Y-70548395D02*
X121853261Y-70524585D01*
X121853261Y-70524585D02*
X121900880Y-70500776D01*
X121900880Y-70500776D02*
X121972308Y-70500776D01*
X121972308Y-70500776D02*
X122019927Y-70524585D01*
X122019927Y-70524585D02*
X122043737Y-70572204D01*
X122043737Y-70572204D02*
X122043737Y-70834109D01*
X122043737Y-70572204D02*
X122067546Y-70524585D01*
X122067546Y-70524585D02*
X122115165Y-70500776D01*
X122115165Y-70500776D02*
X122186594Y-70500776D01*
X122186594Y-70500776D02*
X122234213Y-70524585D01*
X122234213Y-70524585D02*
X122258023Y-70572204D01*
X122258023Y-70572204D02*
X122258023Y-70834109D01*
X122496118Y-70834109D02*
X122496118Y-70500776D01*
X122496118Y-70548395D02*
X122519928Y-70524585D01*
X122519928Y-70524585D02*
X122567547Y-70500776D01*
X122567547Y-70500776D02*
X122638975Y-70500776D01*
X122638975Y-70500776D02*
X122686594Y-70524585D01*
X122686594Y-70524585D02*
X122710404Y-70572204D01*
X122710404Y-70572204D02*
X122710404Y-70834109D01*
X122710404Y-70572204D02*
X122734213Y-70524585D01*
X122734213Y-70524585D02*
X122781832Y-70500776D01*
X122781832Y-70500776D02*
X122853261Y-70500776D01*
X122853261Y-70500776D02*
X122900880Y-70524585D01*
X122900880Y-70524585D02*
X122924690Y-70572204D01*
X122924690Y-70572204D02*
X122924690Y-70834109D01*
X144210404Y-70334109D02*
X143972309Y-70334109D01*
X143972309Y-70334109D02*
X143948500Y-70572204D01*
X143948500Y-70572204D02*
X143972309Y-70548395D01*
X143972309Y-70548395D02*
X144019928Y-70524585D01*
X144019928Y-70524585D02*
X144138976Y-70524585D01*
X144138976Y-70524585D02*
X144186595Y-70548395D01*
X144186595Y-70548395D02*
X144210404Y-70572204D01*
X144210404Y-70572204D02*
X144234214Y-70619823D01*
X144234214Y-70619823D02*
X144234214Y-70738871D01*
X144234214Y-70738871D02*
X144210404Y-70786490D01*
X144210404Y-70786490D02*
X144186595Y-70810300D01*
X144186595Y-70810300D02*
X144138976Y-70834109D01*
X144138976Y-70834109D02*
X144019928Y-70834109D01*
X144019928Y-70834109D02*
X143972309Y-70810300D01*
X143972309Y-70810300D02*
X143948500Y-70786490D01*
X144829451Y-70834109D02*
X144829451Y-70500776D01*
X144829451Y-70548395D02*
X144853261Y-70524585D01*
X144853261Y-70524585D02*
X144900880Y-70500776D01*
X144900880Y-70500776D02*
X144972308Y-70500776D01*
X144972308Y-70500776D02*
X145019927Y-70524585D01*
X145019927Y-70524585D02*
X145043737Y-70572204D01*
X145043737Y-70572204D02*
X145043737Y-70834109D01*
X145043737Y-70572204D02*
X145067546Y-70524585D01*
X145067546Y-70524585D02*
X145115165Y-70500776D01*
X145115165Y-70500776D02*
X145186594Y-70500776D01*
X145186594Y-70500776D02*
X145234213Y-70524585D01*
X145234213Y-70524585D02*
X145258023Y-70572204D01*
X145258023Y-70572204D02*
X145258023Y-70834109D01*
X145496118Y-70834109D02*
X145496118Y-70500776D01*
X145496118Y-70548395D02*
X145519928Y-70524585D01*
X145519928Y-70524585D02*
X145567547Y-70500776D01*
X145567547Y-70500776D02*
X145638975Y-70500776D01*
X145638975Y-70500776D02*
X145686594Y-70524585D01*
X145686594Y-70524585D02*
X145710404Y-70572204D01*
X145710404Y-70572204D02*
X145710404Y-70834109D01*
X145710404Y-70572204D02*
X145734213Y-70524585D01*
X145734213Y-70524585D02*
X145781832Y-70500776D01*
X145781832Y-70500776D02*
X145853261Y-70500776D01*
X145853261Y-70500776D02*
X145900880Y-70524585D01*
X145900880Y-70524585D02*
X145924690Y-70572204D01*
X145924690Y-70572204D02*
X145924690Y-70834109D01*
D10*
X130386595Y-72152104D02*
X130862785Y-72152104D01*
X130291357Y-72437819D02*
X130624690Y-71437819D01*
X130624690Y-71437819D02*
X130958023Y-72437819D01*
X131291357Y-71771152D02*
X131291357Y-72437819D01*
X131291357Y-71866390D02*
X131338976Y-71818771D01*
X131338976Y-71818771D02*
X131434214Y-71771152D01*
X131434214Y-71771152D02*
X131577071Y-71771152D01*
X131577071Y-71771152D02*
X131672309Y-71818771D01*
X131672309Y-71818771D02*
X131719928Y-71914009D01*
X131719928Y-71914009D02*
X131719928Y-72437819D01*
X132053262Y-71771152D02*
X132434214Y-71771152D01*
X132196119Y-71437819D02*
X132196119Y-72294961D01*
X132196119Y-72294961D02*
X132243738Y-72390200D01*
X132243738Y-72390200D02*
X132338976Y-72437819D01*
X132338976Y-72437819D02*
X132434214Y-72437819D01*
X133148500Y-72390200D02*
X133053262Y-72437819D01*
X133053262Y-72437819D02*
X132862786Y-72437819D01*
X132862786Y-72437819D02*
X132767548Y-72390200D01*
X132767548Y-72390200D02*
X132719929Y-72294961D01*
X132719929Y-72294961D02*
X132719929Y-71914009D01*
X132719929Y-71914009D02*
X132767548Y-71818771D01*
X132767548Y-71818771D02*
X132862786Y-71771152D01*
X132862786Y-71771152D02*
X133053262Y-71771152D01*
X133053262Y-71771152D02*
X133148500Y-71818771D01*
X133148500Y-71818771D02*
X133196119Y-71914009D01*
X133196119Y-71914009D02*
X133196119Y-72009247D01*
X133196119Y-72009247D02*
X132719929Y-72104485D01*
X133624691Y-71771152D02*
X133624691Y-72437819D01*
X133624691Y-71866390D02*
X133672310Y-71818771D01*
X133672310Y-71818771D02*
X133767548Y-71771152D01*
X133767548Y-71771152D02*
X133910405Y-71771152D01*
X133910405Y-71771152D02*
X134005643Y-71818771D01*
X134005643Y-71818771D02*
X134053262Y-71914009D01*
X134053262Y-71914009D02*
X134053262Y-72437819D01*
X134529453Y-71771152D02*
X134529453Y-72437819D01*
X134529453Y-71866390D02*
X134577072Y-71818771D01*
X134577072Y-71818771D02*
X134672310Y-71771152D01*
X134672310Y-71771152D02*
X134815167Y-71771152D01*
X134815167Y-71771152D02*
X134910405Y-71818771D01*
X134910405Y-71818771D02*
X134958024Y-71914009D01*
X134958024Y-71914009D02*
X134958024Y-72437819D01*
X135862786Y-72437819D02*
X135862786Y-71914009D01*
X135862786Y-71914009D02*
X135815167Y-71818771D01*
X135815167Y-71818771D02*
X135719929Y-71771152D01*
X135719929Y-71771152D02*
X135529453Y-71771152D01*
X135529453Y-71771152D02*
X135434215Y-71818771D01*
X135862786Y-72390200D02*
X135767548Y-72437819D01*
X135767548Y-72437819D02*
X135529453Y-72437819D01*
X135529453Y-72437819D02*
X135434215Y-72390200D01*
X135434215Y-72390200D02*
X135386596Y-72294961D01*
X135386596Y-72294961D02*
X135386596Y-72199723D01*
X135386596Y-72199723D02*
X135434215Y-72104485D01*
X135434215Y-72104485D02*
X135529453Y-72056866D01*
X135529453Y-72056866D02*
X135767548Y-72056866D01*
X135767548Y-72056866D02*
X135862786Y-72009247D01*
X127077071Y-66437819D02*
X127077071Y-65437819D01*
X127648499Y-66437819D02*
X127219928Y-65866390D01*
X127648499Y-65437819D02*
X127077071Y-66009247D01*
X128077071Y-65914009D02*
X128410404Y-65914009D01*
X128553261Y-66437819D02*
X128077071Y-66437819D01*
X128077071Y-66437819D02*
X128077071Y-65437819D01*
X128077071Y-65437819D02*
X128553261Y-65437819D01*
X128981833Y-65914009D02*
X129315166Y-65914009D01*
X129458023Y-66437819D02*
X128981833Y-66437819D01*
X128981833Y-66437819D02*
X128981833Y-65437819D01*
X128981833Y-65437819D02*
X129458023Y-65437819D01*
X129886595Y-66437819D02*
X129886595Y-65437819D01*
X129886595Y-65437819D02*
X130267547Y-65437819D01*
X130267547Y-65437819D02*
X130362785Y-65485438D01*
X130362785Y-65485438D02*
X130410404Y-65533057D01*
X130410404Y-65533057D02*
X130458023Y-65628295D01*
X130458023Y-65628295D02*
X130458023Y-65771152D01*
X130458023Y-65771152D02*
X130410404Y-65866390D01*
X130410404Y-65866390D02*
X130362785Y-65914009D01*
X130362785Y-65914009D02*
X130267547Y-65961628D01*
X130267547Y-65961628D02*
X129886595Y-65961628D01*
X130886595Y-66056866D02*
X131648500Y-66056866D01*
X132315166Y-65437819D02*
X132505642Y-65437819D01*
X132505642Y-65437819D02*
X132600880Y-65485438D01*
X132600880Y-65485438D02*
X132696118Y-65580676D01*
X132696118Y-65580676D02*
X132743737Y-65771152D01*
X132743737Y-65771152D02*
X132743737Y-66104485D01*
X132743737Y-66104485D02*
X132696118Y-66294961D01*
X132696118Y-66294961D02*
X132600880Y-66390200D01*
X132600880Y-66390200D02*
X132505642Y-66437819D01*
X132505642Y-66437819D02*
X132315166Y-66437819D01*
X132315166Y-66437819D02*
X132219928Y-66390200D01*
X132219928Y-66390200D02*
X132124690Y-66294961D01*
X132124690Y-66294961D02*
X132077071Y-66104485D01*
X132077071Y-66104485D02*
X132077071Y-65771152D01*
X132077071Y-65771152D02*
X132124690Y-65580676D01*
X132124690Y-65580676D02*
X132219928Y-65485438D01*
X132219928Y-65485438D02*
X132315166Y-65437819D01*
X133172309Y-65437819D02*
X133172309Y-66247342D01*
X133172309Y-66247342D02*
X133219928Y-66342580D01*
X133219928Y-66342580D02*
X133267547Y-66390200D01*
X133267547Y-66390200D02*
X133362785Y-66437819D01*
X133362785Y-66437819D02*
X133553261Y-66437819D01*
X133553261Y-66437819D02*
X133648499Y-66390200D01*
X133648499Y-66390200D02*
X133696118Y-66342580D01*
X133696118Y-66342580D02*
X133743737Y-66247342D01*
X133743737Y-66247342D02*
X133743737Y-65437819D01*
X134077071Y-65437819D02*
X134648499Y-65437819D01*
X134362785Y-66437819D02*
X134362785Y-65437819D01*
X135648500Y-65437819D02*
X136315166Y-65437819D01*
X136315166Y-65437819D02*
X135648500Y-66437819D01*
X135648500Y-66437819D02*
X136315166Y-66437819D01*
X136886595Y-65437819D02*
X137077071Y-65437819D01*
X137077071Y-65437819D02*
X137172309Y-65485438D01*
X137172309Y-65485438D02*
X137267547Y-65580676D01*
X137267547Y-65580676D02*
X137315166Y-65771152D01*
X137315166Y-65771152D02*
X137315166Y-66104485D01*
X137315166Y-66104485D02*
X137267547Y-66294961D01*
X137267547Y-66294961D02*
X137172309Y-66390200D01*
X137172309Y-66390200D02*
X137077071Y-66437819D01*
X137077071Y-66437819D02*
X136886595Y-66437819D01*
X136886595Y-66437819D02*
X136791357Y-66390200D01*
X136791357Y-66390200D02*
X136696119Y-66294961D01*
X136696119Y-66294961D02*
X136648500Y-66104485D01*
X136648500Y-66104485D02*
X136648500Y-65771152D01*
X136648500Y-65771152D02*
X136696119Y-65580676D01*
X136696119Y-65580676D02*
X136791357Y-65485438D01*
X136791357Y-65485438D02*
X136886595Y-65437819D01*
X137743738Y-66437819D02*
X137743738Y-65437819D01*
X137743738Y-65437819D02*
X138315166Y-66437819D01*
X138315166Y-66437819D02*
X138315166Y-65437819D01*
X138791357Y-65914009D02*
X139124690Y-65914009D01*
X139267547Y-66437819D02*
X138791357Y-66437819D01*
X138791357Y-66437819D02*
X138791357Y-65437819D01*
X138791357Y-65437819D02*
X139267547Y-65437819D01*
%TO.C,H104*%
X104800000Y-104267000D02*
G75*
G03*
X104800000Y-104267000I-3200000J0D01*
G01*
%TO.C,H103*%
X162200000Y-104267000D02*
G75*
G03*
X162200000Y-104267000I-3200000J0D01*
G01*
%TO.C,H101*%
X104800000Y-72136000D02*
G75*
G03*
X104800000Y-72136000I-3200000J0D01*
G01*
%TO.C,H102*%
X162200000Y-72136000D02*
G75*
G03*
X162200000Y-72136000I-3200000J0D01*
G01*
D13*
%TO.C,U103*%
X119348500Y-71108000D02*
X119548500Y-70908000D01*
X119348500Y-71108000D02*
X119548500Y-71308000D01*
X119348500Y-71108000D02*
X123948500Y-71108000D01*
X123948500Y-71108000D02*
X123748500Y-70908000D01*
X123948500Y-71108000D02*
X123748500Y-71308000D01*
X141548500Y-64383000D02*
X141348500Y-64583000D01*
X141548500Y-64383000D02*
X141748500Y-64583000D01*
X141548500Y-68983000D02*
X141348500Y-68783000D01*
X141548500Y-68983000D02*
X141548500Y-64383000D01*
X141548500Y-68983000D02*
X141748500Y-68783000D01*
X142348500Y-71108000D02*
X142548500Y-70908000D01*
X142348500Y-71108000D02*
X142548500Y-71308000D01*
X142348500Y-71108000D02*
X146948500Y-71108000D01*
X146948500Y-71108000D02*
X146748500Y-70908000D01*
X146948500Y-71108000D02*
X146748500Y-71308000D01*
%TD*%
M02*
