%TF.GenerationSoftware,KiCad,Pcbnew,7.0.9*%
%TF.CreationDate,2024-01-15T18:06:47-05:00*%
%TF.ProjectId,wled-esp32-control-board,776c6564-2d65-4737-9033-322d636f6e74,C*%
%TF.SameCoordinates,Original*%
%TF.FileFunction,Legend,Top*%
%TF.FilePolarity,Positive*%
%FSLAX46Y46*%
G04 Gerber Fmt 4.6, Leading zero omitted, Abs format (unit mm)*
G04 Created by KiCad (PCBNEW 7.0.9) date 2024-01-15 18:06:47*
%MOMM*%
%LPD*%
G01*
G04 APERTURE LIST*
G04 Aperture macros list*
%AMRoundRect*
0 Rectangle with rounded corners*
0 $1 Rounding radius*
0 $2 $3 $4 $5 $6 $7 $8 $9 X,Y pos of 4 corners*
0 Add a 4 corners polygon primitive as box body*
4,1,4,$2,$3,$4,$5,$6,$7,$8,$9,$2,$3,0*
0 Add four circle primitives for the rounded corners*
1,1,$1+$1,$2,$3*
1,1,$1+$1,$4,$5*
1,1,$1+$1,$6,$7*
1,1,$1+$1,$8,$9*
0 Add four rect primitives between the rounded corners*
20,1,$1+$1,$2,$3,$4,$5,0*
20,1,$1+$1,$4,$5,$6,$7,0*
20,1,$1+$1,$6,$7,$8,$9,0*
20,1,$1+$1,$8,$9,$2,$3,0*%
G04 Aperture macros list end*
%ADD10C,0.153000*%
%ADD11C,0.200000*%
%ADD12C,0.120000*%
%ADD13C,0.100000*%
%ADD14C,0.600000*%
%ADD15O,0.600000X0.950000*%
%ADD16R,1.400000X0.300000*%
%ADD17O,2.300000X1.200000*%
%ADD18O,2.000000X1.200000*%
%ADD19RoundRect,0.200000X-0.200000X-0.275000X0.200000X-0.275000X0.200000X0.275000X-0.200000X0.275000X0*%
%ADD20RoundRect,0.225000X-0.250000X0.225000X-0.250000X-0.225000X0.250000X-0.225000X0.250000X0.225000X0*%
%ADD21R,1.000000X0.700000*%
%ADD22R,0.600000X0.700000*%
%ADD23RoundRect,0.218750X-0.218750X-0.256250X0.218750X-0.256250X0.218750X0.256250X-0.218750X0.256250X0*%
%ADD24R,1.700000X1.700000*%
%ADD25O,1.700000X1.700000*%
%ADD26RoundRect,0.225000X0.250000X-0.225000X0.250000X0.225000X-0.250000X0.225000X-0.250000X-0.225000X0*%
%ADD27C,0.991000*%
%ADD28C,0.787000*%
%ADD29RoundRect,0.200000X0.200000X0.275000X-0.200000X0.275000X-0.200000X-0.275000X0.200000X-0.275000X0*%
%ADD30R,1.650000X1.650000*%
%ADD31C,1.650000*%
%ADD32RoundRect,0.250200X-0.649800X-0.649800X0.649800X-0.649800X0.649800X0.649800X-0.649800X0.649800X0*%
%ADD33C,1.800000*%
%ADD34C,3.200000*%
%ADD35RoundRect,0.200000X-0.275000X0.200000X-0.275000X-0.200000X0.275000X-0.200000X0.275000X0.200000X0*%
%ADD36RoundRect,0.200000X0.275000X-0.200000X0.275000X0.200000X-0.275000X0.200000X-0.275000X-0.200000X0*%
%ADD37RoundRect,0.150000X-0.512500X-0.150000X0.512500X-0.150000X0.512500X0.150000X-0.512500X0.150000X0*%
%ADD38R,0.400000X0.650000*%
%ADD39RoundRect,0.250000X0.250000X0.475000X-0.250000X0.475000X-0.250000X-0.475000X0.250000X-0.475000X0*%
%ADD40R,1.000000X0.750000*%
%ADD41RoundRect,0.218750X0.218750X0.256250X-0.218750X0.256250X-0.218750X-0.256250X0.218750X-0.256250X0*%
%ADD42RoundRect,0.250000X0.450000X-0.262500X0.450000X0.262500X-0.450000X0.262500X-0.450000X-0.262500X0*%
%ADD43RoundRect,0.225000X0.225000X0.250000X-0.225000X0.250000X-0.225000X-0.250000X0.225000X-0.250000X0*%
%ADD44RoundRect,0.062500X-0.337500X-0.062500X0.337500X-0.062500X0.337500X0.062500X-0.337500X0.062500X0*%
%ADD45RoundRect,0.062500X-0.062500X-0.337500X0.062500X-0.337500X0.062500X0.337500X-0.062500X0.337500X0*%
%ADD46R,3.350000X3.350000*%
%ADD47RoundRect,0.225000X-0.225000X-0.250000X0.225000X-0.250000X0.225000X0.250000X-0.225000X0.250000X0*%
%ADD48R,1.500000X0.900000*%
%ADD49R,0.900000X1.500000*%
%ADD50C,0.475000*%
%ADD51R,4.200000X4.200000*%
G04 APERTURE END LIST*
D10*
X55969663Y28041620D02*
X55969663Y27660668D01*
X55969663Y27660668D02*
X56445853Y27622572D01*
X56445853Y27622572D02*
X56398234Y27660668D01*
X56398234Y27660668D02*
X56350615Y27736858D01*
X56350615Y27736858D02*
X56350615Y27927334D01*
X56350615Y27927334D02*
X56398234Y28003525D01*
X56398234Y28003525D02*
X56445853Y28041620D01*
X56445853Y28041620D02*
X56541091Y28079715D01*
X56541091Y28079715D02*
X56779186Y28079715D01*
X56779186Y28079715D02*
X56874424Y28041620D01*
X56874424Y28041620D02*
X56922044Y28003525D01*
X56922044Y28003525D02*
X56969663Y27927334D01*
X56969663Y27927334D02*
X56969663Y27736858D01*
X56969663Y27736858D02*
X56922044Y27660668D01*
X56922044Y27660668D02*
X56874424Y27622572D01*
X55969663Y28308287D02*
X56969663Y28574954D01*
X56969663Y28574954D02*
X55969663Y28841620D01*
D11*
G36*
X52725475Y9337924D02*
G01*
X50144523Y9337924D01*
X50144523Y10009353D01*
X50287380Y10009353D01*
X50290496Y9999760D01*
X50289322Y9989741D01*
X50327418Y9799265D01*
X50332006Y9791092D01*
X50332628Y9781738D01*
X50370723Y9686500D01*
X50380239Y9675079D01*
X50385484Y9661170D01*
X50461674Y9565931D01*
X50482433Y9552273D01*
X50501300Y9536092D01*
X50615586Y9488473D01*
X50635267Y9486883D01*
X50654047Y9480781D01*
X50730238Y9480781D01*
X50749016Y9486883D01*
X50768700Y9488473D01*
X50882985Y9536092D01*
X50901847Y9552271D01*
X50922610Y9565930D01*
X50934491Y9580781D01*
X51125476Y9580781D01*
X51144574Y9522002D01*
X51194574Y9485675D01*
X51256378Y9485675D01*
X51306378Y9522002D01*
X51325476Y9580781D01*
X51325476Y10004591D01*
X51582619Y10004591D01*
X51582619Y9580781D01*
X51601717Y9522002D01*
X51651717Y9485675D01*
X51713521Y9485675D01*
X51763521Y9522002D01*
X51782619Y9580781D01*
X51782619Y9671381D01*
X51887487Y9671381D01*
X51909292Y9613551D01*
X51947387Y9565931D01*
X51961567Y9556602D01*
X51972475Y9543600D01*
X52048667Y9495981D01*
X52075432Y9489305D01*
X52101666Y9480781D01*
X52330237Y9480781D01*
X52356468Y9489304D01*
X52383237Y9495981D01*
X52459428Y9543600D01*
X52470336Y9556603D01*
X52484516Y9565931D01*
X52522611Y9613552D01*
X52527855Y9627461D01*
X52537371Y9638881D01*
X52575466Y9734119D01*
X52576729Y9753135D01*
X52582618Y9771258D01*
X52582618Y10009353D01*
X52576729Y10027477D01*
X52575466Y10046492D01*
X52537371Y10141730D01*
X52527854Y10153152D01*
X52522610Y10167060D01*
X52484515Y10214679D01*
X52470336Y10224007D01*
X52459428Y10237010D01*
X52393073Y10278482D01*
X52564541Y10523435D01*
X52568918Y10537759D01*
X52577724Y10549879D01*
X52577724Y10566575D01*
X52582603Y10582540D01*
X52577724Y10596704D01*
X52577724Y10611683D01*
X52567911Y10625189D01*
X52562474Y10640974D01*
X52550201Y10649565D01*
X52541397Y10661683D01*
X52525519Y10666842D01*
X52511842Y10676416D01*
X52496863Y10676153D01*
X52482618Y10680781D01*
X51987380Y10680781D01*
X51928601Y10661683D01*
X51892274Y10611683D01*
X51892274Y10549879D01*
X51928601Y10499879D01*
X51987380Y10480781D01*
X52290553Y10480781D01*
X52134029Y10257175D01*
X52129651Y10242852D01*
X52120846Y10230731D01*
X52120846Y10214036D01*
X52115967Y10198070D01*
X52120846Y10183907D01*
X52120846Y10168927D01*
X52130658Y10155422D01*
X52136096Y10139636D01*
X52148368Y10131046D01*
X52157173Y10118927D01*
X52173050Y10113769D01*
X52186728Y10104194D01*
X52201706Y10104458D01*
X52215952Y10099829D01*
X52301558Y10099829D01*
X52338982Y10076439D01*
X52357177Y10053695D01*
X52382618Y9990095D01*
X52382618Y9790517D01*
X52357178Y9726919D01*
X52338980Y9704170D01*
X52301558Y9680781D01*
X52130346Y9680781D01*
X52092920Y9704172D01*
X52065468Y9738489D01*
X52013836Y9772457D01*
X51952099Y9769590D01*
X51903838Y9730982D01*
X51887487Y9671381D01*
X51782619Y9671381D01*
X51782619Y10580781D01*
X51763521Y10639560D01*
X51713521Y10675887D01*
X51651717Y10675887D01*
X51601717Y10639560D01*
X51582619Y10580781D01*
X51582619Y10204591D01*
X51325476Y10204591D01*
X51325476Y10580781D01*
X51306378Y10639560D01*
X51256378Y10675887D01*
X51194574Y10675887D01*
X51144574Y10639560D01*
X51125476Y10580781D01*
X51125476Y9580781D01*
X50934491Y9580781D01*
X50960706Y9613550D01*
X50982512Y9671379D01*
X50966161Y9730981D01*
X50917901Y9769589D01*
X50856164Y9772457D01*
X50804532Y9738489D01*
X50782429Y9710862D01*
X50710237Y9680781D01*
X50674048Y9680781D01*
X50601855Y9710861D01*
X50550916Y9774536D01*
X50521733Y9847494D01*
X50487380Y10019256D01*
X50487380Y10142308D01*
X50521733Y10314070D01*
X50550916Y10387028D01*
X50601854Y10450701D01*
X50674048Y10480781D01*
X50710237Y10480781D01*
X50782430Y10450701D01*
X50804533Y10423072D01*
X50856165Y10389105D01*
X50917902Y10391973D01*
X50966162Y10430583D01*
X50982512Y10490184D01*
X50960706Y10548013D01*
X50922609Y10595632D01*
X50901850Y10609289D01*
X50882985Y10625470D01*
X50768700Y10673089D01*
X50749016Y10674680D01*
X50730238Y10680781D01*
X50654047Y10680781D01*
X50635267Y10674680D01*
X50615586Y10673089D01*
X50501300Y10625470D01*
X50482433Y10609290D01*
X50461674Y10595631D01*
X50385484Y10500393D01*
X50380239Y10486485D01*
X50370723Y10475063D01*
X50332628Y10379825D01*
X50332006Y10370472D01*
X50327418Y10362298D01*
X50289322Y10171822D01*
X50290496Y10161804D01*
X50287380Y10152210D01*
X50287380Y10009353D01*
X50144523Y10009353D01*
X50144523Y10823638D01*
X52725475Y10823638D01*
X52725475Y9337924D01*
G37*
D10*
X8624533Y36121337D02*
X8624533Y37121337D01*
X8624533Y37121337D02*
X8929295Y37121337D01*
X8929295Y37121337D02*
X9005485Y37073718D01*
X9005485Y37073718D02*
X9043580Y37026099D01*
X9043580Y37026099D02*
X9081676Y36930861D01*
X9081676Y36930861D02*
X9081676Y36788004D01*
X9081676Y36788004D02*
X9043580Y36692766D01*
X9043580Y36692766D02*
X9005485Y36645147D01*
X9005485Y36645147D02*
X8929295Y36597528D01*
X8929295Y36597528D02*
X8624533Y36597528D01*
X9348342Y37121337D02*
X9538818Y36121337D01*
X9538818Y36121337D02*
X9691199Y36835623D01*
X9691199Y36835623D02*
X9843580Y36121337D01*
X9843580Y36121337D02*
X10034057Y37121337D01*
X10795962Y36121337D02*
X10529295Y36597528D01*
X10338819Y36121337D02*
X10338819Y37121337D01*
X10338819Y37121337D02*
X10643581Y37121337D01*
X10643581Y37121337D02*
X10719771Y37073718D01*
X10719771Y37073718D02*
X10757866Y37026099D01*
X10757866Y37026099D02*
X10795962Y36930861D01*
X10795962Y36930861D02*
X10795962Y36788004D01*
X10795962Y36788004D02*
X10757866Y36692766D01*
X10757866Y36692766D02*
X10719771Y36645147D01*
X10719771Y36645147D02*
X10643581Y36597528D01*
X10643581Y36597528D02*
X10338819Y36597528D01*
D11*
G36*
X55686076Y24363524D02*
G01*
X54200362Y24363524D01*
X54200362Y24873048D01*
X54343219Y24873048D01*
X54349320Y24854269D01*
X54350911Y24834587D01*
X54398530Y24720300D01*
X54414711Y24701435D01*
X54428369Y24680675D01*
X54523607Y24604485D01*
X54537515Y24599241D01*
X54548937Y24589724D01*
X54644175Y24551629D01*
X54653528Y24551008D01*
X54661702Y24546419D01*
X54852178Y24508323D01*
X54862196Y24509498D01*
X54871790Y24506381D01*
X55014647Y24506381D01*
X55024240Y24509498D01*
X55034259Y24508323D01*
X55224735Y24546419D01*
X55232908Y24551008D01*
X55242262Y24551629D01*
X55337500Y24589724D01*
X55348921Y24599241D01*
X55362830Y24604485D01*
X55458069Y24680675D01*
X55471727Y24701435D01*
X55487908Y24720301D01*
X55535527Y24834587D01*
X55537117Y24854269D01*
X55543219Y24873048D01*
X55543219Y24949239D01*
X55537117Y24968018D01*
X55535527Y24987701D01*
X55487908Y25101986D01*
X55471724Y25120854D01*
X55458069Y25141611D01*
X55410450Y25179707D01*
X55352620Y25201513D01*
X55293019Y25185163D01*
X55254410Y25136902D01*
X55251542Y25075165D01*
X55285510Y25023533D01*
X55313138Y25001431D01*
X55343219Y24929238D01*
X55343219Y24893049D01*
X55313139Y24820857D01*
X55249464Y24769918D01*
X55176506Y24740735D01*
X55004745Y24706381D01*
X54881692Y24706381D01*
X54709930Y24740735D01*
X54636972Y24769918D01*
X54573299Y24820856D01*
X54543219Y24893049D01*
X54543219Y24929238D01*
X54573299Y25001432D01*
X54600928Y25023534D01*
X54634895Y25075166D01*
X54632027Y25136903D01*
X54593417Y25185163D01*
X54533816Y25201513D01*
X54475987Y25179707D01*
X54428368Y25141610D01*
X54414711Y25120852D01*
X54398530Y25101986D01*
X54350911Y24987701D01*
X54349320Y24968018D01*
X54343219Y24949239D01*
X54343219Y24873048D01*
X54200362Y24873048D01*
X54200362Y25413575D01*
X54348113Y25413575D01*
X54384440Y25363575D01*
X54443219Y25344477D01*
X55443219Y25344477D01*
X55501998Y25363575D01*
X55538325Y25413575D01*
X55538325Y25475379D01*
X55501998Y25525379D01*
X55443219Y25544477D01*
X55019409Y25544477D01*
X55019409Y25801620D01*
X55443219Y25801620D01*
X55501998Y25820718D01*
X55538325Y25870718D01*
X55538325Y25932522D01*
X55501998Y25982522D01*
X55443219Y26001620D01*
X54443219Y26001620D01*
X54384440Y25982522D01*
X54348113Y25932522D01*
X54348113Y25870718D01*
X54384440Y25820718D01*
X54443219Y25801620D01*
X54819409Y25801620D01*
X54819409Y25544477D01*
X54443219Y25544477D01*
X54384440Y25525379D01*
X54348113Y25475379D01*
X54348113Y25413575D01*
X54200362Y25413575D01*
X54200362Y26490538D01*
X54344760Y26490538D01*
X54348113Y26466460D01*
X54348113Y26442146D01*
X54352301Y26436382D01*
X54353284Y26429325D01*
X54370147Y26411819D01*
X54384440Y26392146D01*
X54391217Y26389944D01*
X54396160Y26384813D01*
X54530841Y26312983D01*
X54605541Y26253223D01*
X54644133Y26191476D01*
X54691481Y26151754D01*
X54753134Y26147448D01*
X54805544Y26180204D01*
X54828691Y26237509D01*
X54813733Y26297475D01*
X54766501Y26373048D01*
X55343219Y26373048D01*
X55343219Y26244476D01*
X55362317Y26185697D01*
X55412317Y26149370D01*
X55474121Y26149370D01*
X55524121Y26185697D01*
X55543219Y26244476D01*
X55543219Y26701619D01*
X55524121Y26760398D01*
X55474121Y26796725D01*
X55412317Y26796725D01*
X55362317Y26760398D01*
X55343219Y26701619D01*
X55343219Y26573048D01*
X54443219Y26573048D01*
X54436443Y26570847D01*
X54429427Y26572093D01*
X54407560Y26561463D01*
X54384440Y26553950D01*
X54380251Y26548186D01*
X54373844Y26545070D01*
X54362403Y26523620D01*
X54348113Y26503950D01*
X54348113Y26496825D01*
X54344760Y26490538D01*
X54200362Y26490538D01*
X54200362Y26939582D01*
X55686076Y26939582D01*
X55686076Y24363524D01*
G37*
D10*
X18276140Y11002337D02*
X18466616Y10002337D01*
X18466616Y10002337D02*
X18618997Y10716623D01*
X18618997Y10716623D02*
X18771378Y10002337D01*
X18771378Y10002337D02*
X18961855Y11002337D01*
X19647569Y10002337D02*
X19266617Y10002337D01*
X19266617Y10002337D02*
X19266617Y11002337D01*
X19914236Y10526147D02*
X20180902Y10526147D01*
X20295188Y10002337D02*
X19914236Y10002337D01*
X19914236Y10002337D02*
X19914236Y11002337D01*
X19914236Y11002337D02*
X20295188Y11002337D01*
X20638046Y10002337D02*
X20638046Y11002337D01*
X20638046Y11002337D02*
X20828522Y11002337D01*
X20828522Y11002337D02*
X20942808Y10954718D01*
X20942808Y10954718D02*
X21018998Y10859480D01*
X21018998Y10859480D02*
X21057093Y10764242D01*
X21057093Y10764242D02*
X21095189Y10573766D01*
X21095189Y10573766D02*
X21095189Y10430909D01*
X21095189Y10430909D02*
X21057093Y10240433D01*
X21057093Y10240433D02*
X21018998Y10145195D01*
X21018998Y10145195D02*
X20942808Y10049956D01*
X20942808Y10049956D02*
X20828522Y10002337D01*
X20828522Y10002337D02*
X20638046Y10002337D01*
X22504713Y10097576D02*
X22466617Y10049956D01*
X22466617Y10049956D02*
X22352332Y10002337D01*
X22352332Y10002337D02*
X22276141Y10002337D01*
X22276141Y10002337D02*
X22161855Y10049956D01*
X22161855Y10049956D02*
X22085665Y10145195D01*
X22085665Y10145195D02*
X22047570Y10240433D01*
X22047570Y10240433D02*
X22009474Y10430909D01*
X22009474Y10430909D02*
X22009474Y10573766D01*
X22009474Y10573766D02*
X22047570Y10764242D01*
X22047570Y10764242D02*
X22085665Y10859480D01*
X22085665Y10859480D02*
X22161855Y10954718D01*
X22161855Y10954718D02*
X22276141Y11002337D01*
X22276141Y11002337D02*
X22352332Y11002337D01*
X22352332Y11002337D02*
X22466617Y10954718D01*
X22466617Y10954718D02*
X22504713Y10907099D01*
X22961855Y10002337D02*
X22885665Y10049956D01*
X22885665Y10049956D02*
X22847570Y10097576D01*
X22847570Y10097576D02*
X22809474Y10192814D01*
X22809474Y10192814D02*
X22809474Y10478528D01*
X22809474Y10478528D02*
X22847570Y10573766D01*
X22847570Y10573766D02*
X22885665Y10621385D01*
X22885665Y10621385D02*
X22961855Y10669004D01*
X22961855Y10669004D02*
X23076141Y10669004D01*
X23076141Y10669004D02*
X23152332Y10621385D01*
X23152332Y10621385D02*
X23190427Y10573766D01*
X23190427Y10573766D02*
X23228522Y10478528D01*
X23228522Y10478528D02*
X23228522Y10192814D01*
X23228522Y10192814D02*
X23190427Y10097576D01*
X23190427Y10097576D02*
X23152332Y10049956D01*
X23152332Y10049956D02*
X23076141Y10002337D01*
X23076141Y10002337D02*
X22961855Y10002337D01*
X23571380Y10669004D02*
X23571380Y10002337D01*
X23571380Y10573766D02*
X23609475Y10621385D01*
X23609475Y10621385D02*
X23685665Y10669004D01*
X23685665Y10669004D02*
X23799951Y10669004D01*
X23799951Y10669004D02*
X23876142Y10621385D01*
X23876142Y10621385D02*
X23914237Y10526147D01*
X23914237Y10526147D02*
X23914237Y10002337D01*
X24180904Y10669004D02*
X24485666Y10669004D01*
X24295190Y11002337D02*
X24295190Y10145195D01*
X24295190Y10145195D02*
X24333285Y10049956D01*
X24333285Y10049956D02*
X24409475Y10002337D01*
X24409475Y10002337D02*
X24485666Y10002337D01*
X24752333Y10002337D02*
X24752333Y10669004D01*
X24752333Y10478528D02*
X24790428Y10573766D01*
X24790428Y10573766D02*
X24828523Y10621385D01*
X24828523Y10621385D02*
X24904714Y10669004D01*
X24904714Y10669004D02*
X24980904Y10669004D01*
X25361856Y10002337D02*
X25285666Y10049956D01*
X25285666Y10049956D02*
X25247571Y10097576D01*
X25247571Y10097576D02*
X25209475Y10192814D01*
X25209475Y10192814D02*
X25209475Y10478528D01*
X25209475Y10478528D02*
X25247571Y10573766D01*
X25247571Y10573766D02*
X25285666Y10621385D01*
X25285666Y10621385D02*
X25361856Y10669004D01*
X25361856Y10669004D02*
X25476142Y10669004D01*
X25476142Y10669004D02*
X25552333Y10621385D01*
X25552333Y10621385D02*
X25590428Y10573766D01*
X25590428Y10573766D02*
X25628523Y10478528D01*
X25628523Y10478528D02*
X25628523Y10192814D01*
X25628523Y10192814D02*
X25590428Y10097576D01*
X25590428Y10097576D02*
X25552333Y10049956D01*
X25552333Y10049956D02*
X25476142Y10002337D01*
X25476142Y10002337D02*
X25361856Y10002337D01*
X26085666Y10002337D02*
X26009476Y10049956D01*
X26009476Y10049956D02*
X25971381Y10145195D01*
X25971381Y10145195D02*
X25971381Y11002337D01*
X26504714Y10002337D02*
X26428524Y10049956D01*
X26428524Y10049956D02*
X26390429Y10145195D01*
X26390429Y10145195D02*
X26390429Y11002337D01*
X27114239Y10049956D02*
X27038048Y10002337D01*
X27038048Y10002337D02*
X26885667Y10002337D01*
X26885667Y10002337D02*
X26809477Y10049956D01*
X26809477Y10049956D02*
X26771381Y10145195D01*
X26771381Y10145195D02*
X26771381Y10526147D01*
X26771381Y10526147D02*
X26809477Y10621385D01*
X26809477Y10621385D02*
X26885667Y10669004D01*
X26885667Y10669004D02*
X27038048Y10669004D01*
X27038048Y10669004D02*
X27114239Y10621385D01*
X27114239Y10621385D02*
X27152334Y10526147D01*
X27152334Y10526147D02*
X27152334Y10430909D01*
X27152334Y10430909D02*
X26771381Y10335671D01*
X27495191Y10002337D02*
X27495191Y10669004D01*
X27495191Y10478528D02*
X27533286Y10573766D01*
X27533286Y10573766D02*
X27571381Y10621385D01*
X27571381Y10621385D02*
X27647572Y10669004D01*
X27647572Y10669004D02*
X27723762Y10669004D01*
X28866619Y10526147D02*
X28980905Y10478528D01*
X28980905Y10478528D02*
X29019000Y10430909D01*
X29019000Y10430909D02*
X29057096Y10335671D01*
X29057096Y10335671D02*
X29057096Y10192814D01*
X29057096Y10192814D02*
X29019000Y10097576D01*
X29019000Y10097576D02*
X28980905Y10049956D01*
X28980905Y10049956D02*
X28904715Y10002337D01*
X28904715Y10002337D02*
X28599953Y10002337D01*
X28599953Y10002337D02*
X28599953Y11002337D01*
X28599953Y11002337D02*
X28866619Y11002337D01*
X28866619Y11002337D02*
X28942810Y10954718D01*
X28942810Y10954718D02*
X28980905Y10907099D01*
X28980905Y10907099D02*
X29019000Y10811861D01*
X29019000Y10811861D02*
X29019000Y10716623D01*
X29019000Y10716623D02*
X28980905Y10621385D01*
X28980905Y10621385D02*
X28942810Y10573766D01*
X28942810Y10573766D02*
X28866619Y10526147D01*
X28866619Y10526147D02*
X28599953Y10526147D01*
X29514238Y10002337D02*
X29438048Y10049956D01*
X29438048Y10049956D02*
X29399953Y10097576D01*
X29399953Y10097576D02*
X29361857Y10192814D01*
X29361857Y10192814D02*
X29361857Y10478528D01*
X29361857Y10478528D02*
X29399953Y10573766D01*
X29399953Y10573766D02*
X29438048Y10621385D01*
X29438048Y10621385D02*
X29514238Y10669004D01*
X29514238Y10669004D02*
X29628524Y10669004D01*
X29628524Y10669004D02*
X29704715Y10621385D01*
X29704715Y10621385D02*
X29742810Y10573766D01*
X29742810Y10573766D02*
X29780905Y10478528D01*
X29780905Y10478528D02*
X29780905Y10192814D01*
X29780905Y10192814D02*
X29742810Y10097576D01*
X29742810Y10097576D02*
X29704715Y10049956D01*
X29704715Y10049956D02*
X29628524Y10002337D01*
X29628524Y10002337D02*
X29514238Y10002337D01*
X30466620Y10002337D02*
X30466620Y10526147D01*
X30466620Y10526147D02*
X30428525Y10621385D01*
X30428525Y10621385D02*
X30352334Y10669004D01*
X30352334Y10669004D02*
X30199953Y10669004D01*
X30199953Y10669004D02*
X30123763Y10621385D01*
X30466620Y10049956D02*
X30390429Y10002337D01*
X30390429Y10002337D02*
X30199953Y10002337D01*
X30199953Y10002337D02*
X30123763Y10049956D01*
X30123763Y10049956D02*
X30085667Y10145195D01*
X30085667Y10145195D02*
X30085667Y10240433D01*
X30085667Y10240433D02*
X30123763Y10335671D01*
X30123763Y10335671D02*
X30199953Y10383290D01*
X30199953Y10383290D02*
X30390429Y10383290D01*
X30390429Y10383290D02*
X30466620Y10430909D01*
X30847573Y10002337D02*
X30847573Y10669004D01*
X30847573Y10478528D02*
X30885668Y10573766D01*
X30885668Y10573766D02*
X30923763Y10621385D01*
X30923763Y10621385D02*
X30999954Y10669004D01*
X30999954Y10669004D02*
X31076144Y10669004D01*
X31685668Y10002337D02*
X31685668Y11002337D01*
X31685668Y10049956D02*
X31609477Y10002337D01*
X31609477Y10002337D02*
X31457096Y10002337D01*
X31457096Y10002337D02*
X31380906Y10049956D01*
X31380906Y10049956D02*
X31342811Y10097576D01*
X31342811Y10097576D02*
X31304715Y10192814D01*
X31304715Y10192814D02*
X31304715Y10478528D01*
X31304715Y10478528D02*
X31342811Y10573766D01*
X31342811Y10573766D02*
X31380906Y10621385D01*
X31380906Y10621385D02*
X31457096Y10669004D01*
X31457096Y10669004D02*
X31609477Y10669004D01*
X31609477Y10669004D02*
X31685668Y10621385D01*
X19076142Y9297099D02*
X19114238Y9344718D01*
X19114238Y9344718D02*
X19190428Y9392337D01*
X19190428Y9392337D02*
X19380904Y9392337D01*
X19380904Y9392337D02*
X19457095Y9344718D01*
X19457095Y9344718D02*
X19495190Y9297099D01*
X19495190Y9297099D02*
X19533285Y9201861D01*
X19533285Y9201861D02*
X19533285Y9106623D01*
X19533285Y9106623D02*
X19495190Y8963766D01*
X19495190Y8963766D02*
X19038047Y8392337D01*
X19038047Y8392337D02*
X19533285Y8392337D01*
X20028524Y9392337D02*
X20104714Y9392337D01*
X20104714Y9392337D02*
X20180905Y9344718D01*
X20180905Y9344718D02*
X20219000Y9297099D01*
X20219000Y9297099D02*
X20257095Y9201861D01*
X20257095Y9201861D02*
X20295190Y9011385D01*
X20295190Y9011385D02*
X20295190Y8773290D01*
X20295190Y8773290D02*
X20257095Y8582814D01*
X20257095Y8582814D02*
X20219000Y8487576D01*
X20219000Y8487576D02*
X20180905Y8439956D01*
X20180905Y8439956D02*
X20104714Y8392337D01*
X20104714Y8392337D02*
X20028524Y8392337D01*
X20028524Y8392337D02*
X19952333Y8439956D01*
X19952333Y8439956D02*
X19914238Y8487576D01*
X19914238Y8487576D02*
X19876143Y8582814D01*
X19876143Y8582814D02*
X19838047Y8773290D01*
X19838047Y8773290D02*
X19838047Y9011385D01*
X19838047Y9011385D02*
X19876143Y9201861D01*
X19876143Y9201861D02*
X19914238Y9297099D01*
X19914238Y9297099D02*
X19952333Y9344718D01*
X19952333Y9344718D02*
X20028524Y9392337D01*
X20599952Y9297099D02*
X20638048Y9344718D01*
X20638048Y9344718D02*
X20714238Y9392337D01*
X20714238Y9392337D02*
X20904714Y9392337D01*
X20904714Y9392337D02*
X20980905Y9344718D01*
X20980905Y9344718D02*
X21019000Y9297099D01*
X21019000Y9297099D02*
X21057095Y9201861D01*
X21057095Y9201861D02*
X21057095Y9106623D01*
X21057095Y9106623D02*
X21019000Y8963766D01*
X21019000Y8963766D02*
X20561857Y8392337D01*
X20561857Y8392337D02*
X21057095Y8392337D01*
X21742810Y9059004D02*
X21742810Y8392337D01*
X21552334Y9439956D02*
X21361857Y8725671D01*
X21361857Y8725671D02*
X21857096Y8725671D01*
X22161858Y8773290D02*
X22771382Y8773290D01*
X23304715Y9392337D02*
X23380905Y9392337D01*
X23380905Y9392337D02*
X23457096Y9344718D01*
X23457096Y9344718D02*
X23495191Y9297099D01*
X23495191Y9297099D02*
X23533286Y9201861D01*
X23533286Y9201861D02*
X23571381Y9011385D01*
X23571381Y9011385D02*
X23571381Y8773290D01*
X23571381Y8773290D02*
X23533286Y8582814D01*
X23533286Y8582814D02*
X23495191Y8487576D01*
X23495191Y8487576D02*
X23457096Y8439956D01*
X23457096Y8439956D02*
X23380905Y8392337D01*
X23380905Y8392337D02*
X23304715Y8392337D01*
X23304715Y8392337D02*
X23228524Y8439956D01*
X23228524Y8439956D02*
X23190429Y8487576D01*
X23190429Y8487576D02*
X23152334Y8582814D01*
X23152334Y8582814D02*
X23114238Y8773290D01*
X23114238Y8773290D02*
X23114238Y9011385D01*
X23114238Y9011385D02*
X23152334Y9201861D01*
X23152334Y9201861D02*
X23190429Y9297099D01*
X23190429Y9297099D02*
X23228524Y9344718D01*
X23228524Y9344718D02*
X23304715Y9392337D01*
X24333286Y8392337D02*
X23876143Y8392337D01*
X24104715Y8392337D02*
X24104715Y9392337D01*
X24104715Y9392337D02*
X24028524Y9249480D01*
X24028524Y9249480D02*
X23952334Y9154242D01*
X23952334Y9154242D02*
X23876143Y9106623D01*
X24676144Y8773290D02*
X25285668Y8773290D01*
X26085667Y8392337D02*
X25628524Y8392337D01*
X25857096Y8392337D02*
X25857096Y9392337D01*
X25857096Y9392337D02*
X25780905Y9249480D01*
X25780905Y9249480D02*
X25704715Y9154242D01*
X25704715Y9154242D02*
X25628524Y9106623D01*
X26809477Y9392337D02*
X26428525Y9392337D01*
X26428525Y9392337D02*
X26390429Y8916147D01*
X26390429Y8916147D02*
X26428525Y8963766D01*
X26428525Y8963766D02*
X26504715Y9011385D01*
X26504715Y9011385D02*
X26695191Y9011385D01*
X26695191Y9011385D02*
X26771382Y8963766D01*
X26771382Y8963766D02*
X26809477Y8916147D01*
X26809477Y8916147D02*
X26847572Y8820909D01*
X26847572Y8820909D02*
X26847572Y8582814D01*
X26847572Y8582814D02*
X26809477Y8487576D01*
X26809477Y8487576D02*
X26771382Y8439956D01*
X26771382Y8439956D02*
X26695191Y8392337D01*
X26695191Y8392337D02*
X26504715Y8392337D01*
X26504715Y8392337D02*
X26428525Y8439956D01*
X26428525Y8439956D02*
X26390429Y8487576D01*
X27761858Y9439956D02*
X27076144Y8154242D01*
X28485668Y8392337D02*
X28219001Y8868528D01*
X28028525Y8392337D02*
X28028525Y9392337D01*
X28028525Y9392337D02*
X28333287Y9392337D01*
X28333287Y9392337D02*
X28409477Y9344718D01*
X28409477Y9344718D02*
X28447572Y9297099D01*
X28447572Y9297099D02*
X28485668Y9201861D01*
X28485668Y9201861D02*
X28485668Y9059004D01*
X28485668Y9059004D02*
X28447572Y8963766D01*
X28447572Y8963766D02*
X28409477Y8916147D01*
X28409477Y8916147D02*
X28333287Y8868528D01*
X28333287Y8868528D02*
X28028525Y8868528D01*
X29133287Y8439956D02*
X29057096Y8392337D01*
X29057096Y8392337D02*
X28904715Y8392337D01*
X28904715Y8392337D02*
X28828525Y8439956D01*
X28828525Y8439956D02*
X28790429Y8535195D01*
X28790429Y8535195D02*
X28790429Y8916147D01*
X28790429Y8916147D02*
X28828525Y9011385D01*
X28828525Y9011385D02*
X28904715Y9059004D01*
X28904715Y9059004D02*
X29057096Y9059004D01*
X29057096Y9059004D02*
X29133287Y9011385D01*
X29133287Y9011385D02*
X29171382Y8916147D01*
X29171382Y8916147D02*
X29171382Y8820909D01*
X29171382Y8820909D02*
X28790429Y8725671D01*
X29438048Y9059004D02*
X29628524Y8392337D01*
X29628524Y8392337D02*
X29819001Y9059004D01*
X30123763Y8487576D02*
X30161858Y8439956D01*
X30161858Y8439956D02*
X30123763Y8392337D01*
X30123763Y8392337D02*
X30085667Y8439956D01*
X30085667Y8439956D02*
X30123763Y8487576D01*
X30123763Y8487576D02*
X30123763Y8392337D01*
X30961858Y8487576D02*
X30923762Y8439956D01*
X30923762Y8439956D02*
X30809477Y8392337D01*
X30809477Y8392337D02*
X30733286Y8392337D01*
X30733286Y8392337D02*
X30619000Y8439956D01*
X30619000Y8439956D02*
X30542810Y8535195D01*
X30542810Y8535195D02*
X30504715Y8630433D01*
X30504715Y8630433D02*
X30466619Y8820909D01*
X30466619Y8820909D02*
X30466619Y8963766D01*
X30466619Y8963766D02*
X30504715Y9154242D01*
X30504715Y9154242D02*
X30542810Y9249480D01*
X30542810Y9249480D02*
X30619000Y9344718D01*
X30619000Y9344718D02*
X30733286Y9392337D01*
X30733286Y9392337D02*
X30809477Y9392337D01*
X30809477Y9392337D02*
X30923762Y9344718D01*
X30923762Y9344718D02*
X30961858Y9297099D01*
X56969663Y25063525D02*
X55969663Y25063525D01*
X55969663Y25063525D02*
X55969663Y25254001D01*
X55969663Y25254001D02*
X56017282Y25368287D01*
X56017282Y25368287D02*
X56112520Y25444477D01*
X56112520Y25444477D02*
X56207758Y25482572D01*
X56207758Y25482572D02*
X56398234Y25520668D01*
X56398234Y25520668D02*
X56541091Y25520668D01*
X56541091Y25520668D02*
X56731567Y25482572D01*
X56731567Y25482572D02*
X56826805Y25444477D01*
X56826805Y25444477D02*
X56922044Y25368287D01*
X56922044Y25368287D02*
X56969663Y25254001D01*
X56969663Y25254001D02*
X56969663Y25063525D01*
X55969663Y26015906D02*
X55969663Y26092096D01*
X55969663Y26092096D02*
X56017282Y26168287D01*
X56017282Y26168287D02*
X56064901Y26206382D01*
X56064901Y26206382D02*
X56160139Y26244477D01*
X56160139Y26244477D02*
X56350615Y26282572D01*
X56350615Y26282572D02*
X56588710Y26282572D01*
X56588710Y26282572D02*
X56779186Y26244477D01*
X56779186Y26244477D02*
X56874424Y26206382D01*
X56874424Y26206382D02*
X56922044Y26168287D01*
X56922044Y26168287D02*
X56969663Y26092096D01*
X56969663Y26092096D02*
X56969663Y26015906D01*
X56969663Y26015906D02*
X56922044Y25939715D01*
X56922044Y25939715D02*
X56874424Y25901620D01*
X56874424Y25901620D02*
X56779186Y25863525D01*
X56779186Y25863525D02*
X56588710Y25825429D01*
X56588710Y25825429D02*
X56350615Y25825429D01*
X56350615Y25825429D02*
X56160139Y25863525D01*
X56160139Y25863525D02*
X56064901Y25901620D01*
X56064901Y25901620D02*
X56017282Y25939715D01*
X56017282Y25939715D02*
X55969663Y26015906D01*
X53822619Y9054337D02*
X53441667Y9054337D01*
X53441667Y9054337D02*
X53403571Y8578147D01*
X53403571Y8578147D02*
X53441667Y8625766D01*
X53441667Y8625766D02*
X53517857Y8673385D01*
X53517857Y8673385D02*
X53708333Y8673385D01*
X53708333Y8673385D02*
X53784524Y8625766D01*
X53784524Y8625766D02*
X53822619Y8578147D01*
X53822619Y8578147D02*
X53860714Y8482909D01*
X53860714Y8482909D02*
X53860714Y8244814D01*
X53860714Y8244814D02*
X53822619Y8149576D01*
X53822619Y8149576D02*
X53784524Y8101956D01*
X53784524Y8101956D02*
X53708333Y8054337D01*
X53708333Y8054337D02*
X53517857Y8054337D01*
X53517857Y8054337D02*
X53441667Y8101956D01*
X53441667Y8101956D02*
X53403571Y8149576D01*
X54089286Y9054337D02*
X54355953Y8054337D01*
X54355953Y8054337D02*
X54622619Y9054337D01*
X38563523Y9006718D02*
X38487333Y9054337D01*
X38487333Y9054337D02*
X38373047Y9054337D01*
X38373047Y9054337D02*
X38258761Y9006718D01*
X38258761Y9006718D02*
X38182571Y8911480D01*
X38182571Y8911480D02*
X38144476Y8816242D01*
X38144476Y8816242D02*
X38106380Y8625766D01*
X38106380Y8625766D02*
X38106380Y8482909D01*
X38106380Y8482909D02*
X38144476Y8292433D01*
X38144476Y8292433D02*
X38182571Y8197195D01*
X38182571Y8197195D02*
X38258761Y8101956D01*
X38258761Y8101956D02*
X38373047Y8054337D01*
X38373047Y8054337D02*
X38449238Y8054337D01*
X38449238Y8054337D02*
X38563523Y8101956D01*
X38563523Y8101956D02*
X38601619Y8149576D01*
X38601619Y8149576D02*
X38601619Y8482909D01*
X38601619Y8482909D02*
X38449238Y8482909D01*
X10034057Y34470337D02*
X9767390Y34946528D01*
X9576914Y34470337D02*
X9576914Y35470337D01*
X9576914Y35470337D02*
X9881676Y35470337D01*
X9881676Y35470337D02*
X9957866Y35422718D01*
X9957866Y35422718D02*
X9995961Y35375099D01*
X9995961Y35375099D02*
X10034057Y35279861D01*
X10034057Y35279861D02*
X10034057Y35137004D01*
X10034057Y35137004D02*
X9995961Y35041766D01*
X9995961Y35041766D02*
X9957866Y34994147D01*
X9957866Y34994147D02*
X9881676Y34946528D01*
X9881676Y34946528D02*
X9576914Y34946528D01*
X10300723Y35470337D02*
X10834057Y34470337D01*
X10834057Y35470337D02*
X10300723Y34470337D01*
X56969663Y14522525D02*
X55969663Y14522525D01*
X55969663Y14522525D02*
X55969663Y14713001D01*
X55969663Y14713001D02*
X56017282Y14827287D01*
X56017282Y14827287D02*
X56112520Y14903477D01*
X56112520Y14903477D02*
X56207758Y14941572D01*
X56207758Y14941572D02*
X56398234Y14979668D01*
X56398234Y14979668D02*
X56541091Y14979668D01*
X56541091Y14979668D02*
X56731567Y14941572D01*
X56731567Y14941572D02*
X56826805Y14903477D01*
X56826805Y14903477D02*
X56922044Y14827287D01*
X56922044Y14827287D02*
X56969663Y14713001D01*
X56969663Y14713001D02*
X56969663Y14522525D01*
X56969663Y15741572D02*
X56969663Y15284429D01*
X56969663Y15513001D02*
X55969663Y15513001D01*
X55969663Y15513001D02*
X56112520Y15436810D01*
X56112520Y15436810D02*
X56207758Y15360620D01*
X56207758Y15360620D02*
X56255377Y15284429D01*
X55969663Y17500620D02*
X55969663Y17119668D01*
X55969663Y17119668D02*
X56445853Y17081572D01*
X56445853Y17081572D02*
X56398234Y17119668D01*
X56398234Y17119668D02*
X56350615Y17195858D01*
X56350615Y17195858D02*
X56350615Y17386334D01*
X56350615Y17386334D02*
X56398234Y17462525D01*
X56398234Y17462525D02*
X56445853Y17500620D01*
X56445853Y17500620D02*
X56541091Y17538715D01*
X56541091Y17538715D02*
X56779186Y17538715D01*
X56779186Y17538715D02*
X56874424Y17500620D01*
X56874424Y17500620D02*
X56922044Y17462525D01*
X56922044Y17462525D02*
X56969663Y17386334D01*
X56969663Y17386334D02*
X56969663Y17195858D01*
X56969663Y17195858D02*
X56922044Y17119668D01*
X56922044Y17119668D02*
X56874424Y17081572D01*
X55969663Y17767287D02*
X56969663Y18033954D01*
X56969663Y18033954D02*
X55969663Y18300620D01*
X56017282Y23323524D02*
X55969663Y23247334D01*
X55969663Y23247334D02*
X55969663Y23133048D01*
X55969663Y23133048D02*
X56017282Y23018762D01*
X56017282Y23018762D02*
X56112520Y22942572D01*
X56112520Y22942572D02*
X56207758Y22904477D01*
X56207758Y22904477D02*
X56398234Y22866381D01*
X56398234Y22866381D02*
X56541091Y22866381D01*
X56541091Y22866381D02*
X56731567Y22904477D01*
X56731567Y22904477D02*
X56826805Y22942572D01*
X56826805Y22942572D02*
X56922044Y23018762D01*
X56922044Y23018762D02*
X56969663Y23133048D01*
X56969663Y23133048D02*
X56969663Y23209239D01*
X56969663Y23209239D02*
X56922044Y23323524D01*
X56922044Y23323524D02*
X56874424Y23361620D01*
X56874424Y23361620D02*
X56541091Y23361620D01*
X56541091Y23361620D02*
X56541091Y23209239D01*
D11*
G36*
X55686076Y13822524D02*
G01*
X54200362Y13822524D01*
X54200362Y14332048D01*
X54343219Y14332048D01*
X54349320Y14313269D01*
X54350911Y14293587D01*
X54398530Y14179300D01*
X54414711Y14160435D01*
X54428369Y14139675D01*
X54523607Y14063485D01*
X54537515Y14058241D01*
X54548937Y14048724D01*
X54644175Y14010629D01*
X54653528Y14010008D01*
X54661702Y14005419D01*
X54852178Y13967323D01*
X54862196Y13968498D01*
X54871790Y13965381D01*
X55014647Y13965381D01*
X55024240Y13968498D01*
X55034259Y13967323D01*
X55224735Y14005419D01*
X55232908Y14010008D01*
X55242262Y14010629D01*
X55337500Y14048724D01*
X55348921Y14058241D01*
X55362830Y14063485D01*
X55458069Y14139675D01*
X55471727Y14160435D01*
X55487908Y14179301D01*
X55535527Y14293587D01*
X55537117Y14313269D01*
X55543219Y14332048D01*
X55543219Y14408239D01*
X55537117Y14427018D01*
X55535527Y14446701D01*
X55487908Y14560986D01*
X55471724Y14579854D01*
X55458069Y14600611D01*
X55410450Y14638707D01*
X55352620Y14660513D01*
X55293019Y14644163D01*
X55254410Y14595902D01*
X55251542Y14534165D01*
X55285510Y14482533D01*
X55313138Y14460431D01*
X55343219Y14388238D01*
X55343219Y14352049D01*
X55313139Y14279857D01*
X55249464Y14228918D01*
X55176506Y14199735D01*
X55004745Y14165381D01*
X54881692Y14165381D01*
X54709930Y14199735D01*
X54636972Y14228918D01*
X54573299Y14279856D01*
X54543219Y14352049D01*
X54543219Y14388238D01*
X54573299Y14460432D01*
X54600928Y14482534D01*
X54634895Y14534166D01*
X54632027Y14595903D01*
X54593417Y14644163D01*
X54533816Y14660513D01*
X54475987Y14638707D01*
X54428368Y14600610D01*
X54414711Y14579852D01*
X54398530Y14560986D01*
X54350911Y14446701D01*
X54349320Y14427018D01*
X54343219Y14408239D01*
X54343219Y14332048D01*
X54200362Y14332048D01*
X54200362Y14872575D01*
X54348113Y14872575D01*
X54384440Y14822575D01*
X54443219Y14803477D01*
X55443219Y14803477D01*
X55501998Y14822575D01*
X55538325Y14872575D01*
X55538325Y14934379D01*
X55501998Y14984379D01*
X55443219Y15003477D01*
X55019409Y15003477D01*
X55019409Y15260620D01*
X55443219Y15260620D01*
X55501998Y15279718D01*
X55538325Y15329718D01*
X55538325Y15391522D01*
X55501998Y15441522D01*
X55443219Y15460620D01*
X54443219Y15460620D01*
X54384440Y15441522D01*
X54348113Y15391522D01*
X54348113Y15329718D01*
X54384440Y15279718D01*
X54443219Y15260620D01*
X54819409Y15260620D01*
X54819409Y15003477D01*
X54443219Y15003477D01*
X54384440Y14984379D01*
X54348113Y14934379D01*
X54348113Y14872575D01*
X54200362Y14872575D01*
X54200362Y15817762D01*
X54343219Y15817762D01*
X54351741Y15791532D01*
X54358419Y15764762D01*
X54406038Y15688572D01*
X54419041Y15677663D01*
X54428368Y15663486D01*
X54475987Y15625389D01*
X54533816Y15603583D01*
X54593417Y15619933D01*
X54632027Y15668193D01*
X54634895Y15729930D01*
X54600928Y15781562D01*
X54566610Y15809017D01*
X54543219Y15846443D01*
X54543219Y15979559D01*
X54566609Y16016984D01*
X54589353Y16035179D01*
X54652954Y16060619D01*
X54715827Y16060619D01*
X54825726Y16031313D01*
X55380749Y15587294D01*
X55397678Y15580911D01*
X55412317Y15570275D01*
X55425884Y15570275D01*
X55438579Y15565488D01*
X55456029Y15570275D01*
X55474121Y15570275D01*
X55485095Y15578249D01*
X55498180Y15581838D01*
X55509483Y15595968D01*
X55524121Y15606602D01*
X55528313Y15619505D01*
X55536789Y15630099D01*
X55537628Y15648176D01*
X55543219Y15665381D01*
X55543219Y16160619D01*
X55524121Y16219398D01*
X55474121Y16255725D01*
X55412317Y16255725D01*
X55362317Y16219398D01*
X55343219Y16160619D01*
X55343219Y15873444D01*
X54934259Y16200611D01*
X54914912Y16207907D01*
X54897556Y16219148D01*
X54754699Y16257243D01*
X54741501Y16256536D01*
X54728933Y16260619D01*
X54633695Y16260619D01*
X54615571Y16254731D01*
X54596556Y16253467D01*
X54501318Y16215372D01*
X54489896Y16205856D01*
X54475988Y16200611D01*
X54428369Y16162516D01*
X54419041Y16148338D01*
X54406038Y16137429D01*
X54358419Y16061238D01*
X54351741Y16034470D01*
X54343219Y16008238D01*
X54343219Y15817762D01*
X54200362Y15817762D01*
X54200362Y16403476D01*
X55686076Y16403476D01*
X55686076Y13822524D01*
G37*
D10*
X9653104Y33692337D02*
X10110247Y33692337D01*
X9881675Y32692337D02*
X9881675Y33692337D01*
X10300723Y33692337D02*
X10834057Y32692337D01*
X10834057Y33692337D02*
X10300723Y32692337D01*
X43281619Y9054337D02*
X42900667Y9054337D01*
X42900667Y9054337D02*
X42862571Y8578147D01*
X42862571Y8578147D02*
X42900667Y8625766D01*
X42900667Y8625766D02*
X42976857Y8673385D01*
X42976857Y8673385D02*
X43167333Y8673385D01*
X43167333Y8673385D02*
X43243524Y8625766D01*
X43243524Y8625766D02*
X43281619Y8578147D01*
X43281619Y8578147D02*
X43319714Y8482909D01*
X43319714Y8482909D02*
X43319714Y8244814D01*
X43319714Y8244814D02*
X43281619Y8149576D01*
X43281619Y8149576D02*
X43243524Y8101956D01*
X43243524Y8101956D02*
X43167333Y8054337D01*
X43167333Y8054337D02*
X42976857Y8054337D01*
X42976857Y8054337D02*
X42900667Y8101956D01*
X42900667Y8101956D02*
X42862571Y8149576D01*
X43548286Y9054337D02*
X43814953Y8054337D01*
X43814953Y8054337D02*
X44081619Y9054337D01*
X40303524Y8054337D02*
X40303524Y9054337D01*
X40303524Y9054337D02*
X40494000Y9054337D01*
X40494000Y9054337D02*
X40608286Y9006718D01*
X40608286Y9006718D02*
X40684476Y8911480D01*
X40684476Y8911480D02*
X40722571Y8816242D01*
X40722571Y8816242D02*
X40760667Y8625766D01*
X40760667Y8625766D02*
X40760667Y8482909D01*
X40760667Y8482909D02*
X40722571Y8292433D01*
X40722571Y8292433D02*
X40684476Y8197195D01*
X40684476Y8197195D02*
X40608286Y8101956D01*
X40608286Y8101956D02*
X40494000Y8054337D01*
X40494000Y8054337D02*
X40303524Y8054337D01*
X41027333Y9054337D02*
X41522571Y9054337D01*
X41522571Y9054337D02*
X41255905Y8673385D01*
X41255905Y8673385D02*
X41370190Y8673385D01*
X41370190Y8673385D02*
X41446381Y8625766D01*
X41446381Y8625766D02*
X41484476Y8578147D01*
X41484476Y8578147D02*
X41522571Y8482909D01*
X41522571Y8482909D02*
X41522571Y8244814D01*
X41522571Y8244814D02*
X41484476Y8149576D01*
X41484476Y8149576D02*
X41446381Y8101956D01*
X41446381Y8101956D02*
X41370190Y8054337D01*
X41370190Y8054337D02*
X41141619Y8054337D01*
X41141619Y8054337D02*
X41065428Y8101956D01*
X41065428Y8101956D02*
X41027333Y8149576D01*
X21050429Y6403337D02*
X21050429Y7403337D01*
X21050429Y7403337D02*
X21355191Y7403337D01*
X21355191Y7403337D02*
X21431381Y7355718D01*
X21431381Y7355718D02*
X21469476Y7308099D01*
X21469476Y7308099D02*
X21507572Y7212861D01*
X21507572Y7212861D02*
X21507572Y7070004D01*
X21507572Y7070004D02*
X21469476Y6974766D01*
X21469476Y6974766D02*
X21431381Y6927147D01*
X21431381Y6927147D02*
X21355191Y6879528D01*
X21355191Y6879528D02*
X21050429Y6879528D01*
X22307572Y6403337D02*
X22040905Y6879528D01*
X21850429Y6403337D02*
X21850429Y7403337D01*
X21850429Y7403337D02*
X22155191Y7403337D01*
X22155191Y7403337D02*
X22231381Y7355718D01*
X22231381Y7355718D02*
X22269476Y7308099D01*
X22269476Y7308099D02*
X22307572Y7212861D01*
X22307572Y7212861D02*
X22307572Y7070004D01*
X22307572Y7070004D02*
X22269476Y6974766D01*
X22269476Y6974766D02*
X22231381Y6927147D01*
X22231381Y6927147D02*
X22155191Y6879528D01*
X22155191Y6879528D02*
X21850429Y6879528D01*
X22802810Y7403337D02*
X22955191Y7403337D01*
X22955191Y7403337D02*
X23031381Y7355718D01*
X23031381Y7355718D02*
X23107572Y7260480D01*
X23107572Y7260480D02*
X23145667Y7070004D01*
X23145667Y7070004D02*
X23145667Y6736671D01*
X23145667Y6736671D02*
X23107572Y6546195D01*
X23107572Y6546195D02*
X23031381Y6450956D01*
X23031381Y6450956D02*
X22955191Y6403337D01*
X22955191Y6403337D02*
X22802810Y6403337D01*
X22802810Y6403337D02*
X22726619Y6450956D01*
X22726619Y6450956D02*
X22650429Y6546195D01*
X22650429Y6546195D02*
X22612333Y6736671D01*
X22612333Y6736671D02*
X22612333Y7070004D01*
X22612333Y7070004D02*
X22650429Y7260480D01*
X22650429Y7260480D02*
X22726619Y7355718D01*
X22726619Y7355718D02*
X22802810Y7403337D01*
X23907571Y7355718D02*
X23831381Y7403337D01*
X23831381Y7403337D02*
X23717095Y7403337D01*
X23717095Y7403337D02*
X23602809Y7355718D01*
X23602809Y7355718D02*
X23526619Y7260480D01*
X23526619Y7260480D02*
X23488524Y7165242D01*
X23488524Y7165242D02*
X23450428Y6974766D01*
X23450428Y6974766D02*
X23450428Y6831909D01*
X23450428Y6831909D02*
X23488524Y6641433D01*
X23488524Y6641433D02*
X23526619Y6546195D01*
X23526619Y6546195D02*
X23602809Y6450956D01*
X23602809Y6450956D02*
X23717095Y6403337D01*
X23717095Y6403337D02*
X23793286Y6403337D01*
X23793286Y6403337D02*
X23907571Y6450956D01*
X23907571Y6450956D02*
X23945667Y6498576D01*
X23945667Y6498576D02*
X23945667Y6831909D01*
X23945667Y6831909D02*
X23793286Y6831909D01*
X56017282Y12782524D02*
X55969663Y12706334D01*
X55969663Y12706334D02*
X55969663Y12592048D01*
X55969663Y12592048D02*
X56017282Y12477762D01*
X56017282Y12477762D02*
X56112520Y12401572D01*
X56112520Y12401572D02*
X56207758Y12363477D01*
X56207758Y12363477D02*
X56398234Y12325381D01*
X56398234Y12325381D02*
X56541091Y12325381D01*
X56541091Y12325381D02*
X56731567Y12363477D01*
X56731567Y12363477D02*
X56826805Y12401572D01*
X56826805Y12401572D02*
X56922044Y12477762D01*
X56922044Y12477762D02*
X56969663Y12592048D01*
X56969663Y12592048D02*
X56969663Y12668239D01*
X56969663Y12668239D02*
X56922044Y12782524D01*
X56922044Y12782524D02*
X56874424Y12820620D01*
X56874424Y12820620D02*
X56541091Y12820620D01*
X56541091Y12820620D02*
X56541091Y12668239D01*
X50844524Y8054337D02*
X50844524Y9054337D01*
X50844524Y9054337D02*
X51035000Y9054337D01*
X51035000Y9054337D02*
X51149286Y9006718D01*
X51149286Y9006718D02*
X51225476Y8911480D01*
X51225476Y8911480D02*
X51263571Y8816242D01*
X51263571Y8816242D02*
X51301667Y8625766D01*
X51301667Y8625766D02*
X51301667Y8482909D01*
X51301667Y8482909D02*
X51263571Y8292433D01*
X51263571Y8292433D02*
X51225476Y8197195D01*
X51225476Y8197195D02*
X51149286Y8101956D01*
X51149286Y8101956D02*
X51035000Y8054337D01*
X51035000Y8054337D02*
X50844524Y8054337D01*
X51606428Y8959099D02*
X51644524Y9006718D01*
X51644524Y9006718D02*
X51720714Y9054337D01*
X51720714Y9054337D02*
X51911190Y9054337D01*
X51911190Y9054337D02*
X51987381Y9006718D01*
X51987381Y9006718D02*
X52025476Y8959099D01*
X52025476Y8959099D02*
X52063571Y8863861D01*
X52063571Y8863861D02*
X52063571Y8768623D01*
X52063571Y8768623D02*
X52025476Y8625766D01*
X52025476Y8625766D02*
X51568333Y8054337D01*
X51568333Y8054337D02*
X52063571Y8054337D01*
D11*
G36*
X42217677Y9337924D02*
G01*
X39603523Y9337924D01*
X39603523Y10009353D01*
X39746380Y10009353D01*
X39749496Y9999760D01*
X39748322Y9989741D01*
X39786418Y9799265D01*
X39791006Y9791092D01*
X39791628Y9781738D01*
X39829723Y9686500D01*
X39839239Y9675079D01*
X39844484Y9661170D01*
X39920674Y9565931D01*
X39941433Y9552273D01*
X39960300Y9536092D01*
X40074586Y9488473D01*
X40094267Y9486883D01*
X40113047Y9480781D01*
X40189238Y9480781D01*
X40208016Y9486883D01*
X40227700Y9488473D01*
X40341985Y9536092D01*
X40360847Y9552271D01*
X40381610Y9565930D01*
X40393491Y9580781D01*
X40584476Y9580781D01*
X40603574Y9522002D01*
X40653574Y9485675D01*
X40715378Y9485675D01*
X40765378Y9522002D01*
X40784476Y9580781D01*
X40784476Y10004591D01*
X41041619Y10004591D01*
X41041619Y9580781D01*
X41060717Y9522002D01*
X41110717Y9485675D01*
X41172521Y9485675D01*
X41222521Y9522002D01*
X41241619Y9580781D01*
X41241619Y9939881D01*
X41387852Y9939881D01*
X41389369Y9911571D01*
X41389369Y9883213D01*
X41391009Y9880955D01*
X41391159Y9878166D01*
X41409031Y9856150D01*
X41425696Y9833213D01*
X41428351Y9832351D01*
X41430111Y9830183D01*
X41457507Y9822878D01*
X41484475Y9814115D01*
X41765428Y9814115D01*
X41765428Y9580781D01*
X41784526Y9522002D01*
X41834526Y9485675D01*
X41896330Y9485675D01*
X41946330Y9522002D01*
X41965428Y9580781D01*
X41965428Y9814115D01*
X41979714Y9814115D01*
X42038493Y9833213D01*
X42074820Y9883213D01*
X42074820Y9945017D01*
X42038493Y9995017D01*
X41979714Y10014115D01*
X41965428Y10014115D01*
X41965428Y10247448D01*
X41946330Y10306227D01*
X41896330Y10342554D01*
X41834526Y10342554D01*
X41784526Y10306227D01*
X41765428Y10247448D01*
X41765428Y10014115D01*
X41614636Y10014115D01*
X41771575Y10602634D01*
X41768268Y10664349D01*
X41729316Y10712332D01*
X41669599Y10728257D01*
X41611927Y10706040D01*
X41578329Y10654166D01*
X41387852Y9939881D01*
X41241619Y9939881D01*
X41241619Y10580781D01*
X41222521Y10639560D01*
X41172521Y10675887D01*
X41110717Y10675887D01*
X41060717Y10639560D01*
X41041619Y10580781D01*
X41041619Y10204591D01*
X40784476Y10204591D01*
X40784476Y10580781D01*
X40765378Y10639560D01*
X40715378Y10675887D01*
X40653574Y10675887D01*
X40603574Y10639560D01*
X40584476Y10580781D01*
X40584476Y9580781D01*
X40393491Y9580781D01*
X40419706Y9613550D01*
X40441512Y9671379D01*
X40425161Y9730981D01*
X40376901Y9769589D01*
X40315164Y9772457D01*
X40263532Y9738489D01*
X40241429Y9710862D01*
X40169237Y9680781D01*
X40133048Y9680781D01*
X40060855Y9710861D01*
X40009916Y9774536D01*
X39980733Y9847494D01*
X39946380Y10019256D01*
X39946380Y10142308D01*
X39980733Y10314070D01*
X40009916Y10387028D01*
X40060854Y10450701D01*
X40133048Y10480781D01*
X40169237Y10480781D01*
X40241430Y10450701D01*
X40263533Y10423072D01*
X40315165Y10389105D01*
X40376902Y10391973D01*
X40425162Y10430583D01*
X40441512Y10490184D01*
X40419706Y10548013D01*
X40381609Y10595632D01*
X40360850Y10609289D01*
X40341985Y10625470D01*
X40227700Y10673089D01*
X40208016Y10674680D01*
X40189238Y10680781D01*
X40113047Y10680781D01*
X40094267Y10674680D01*
X40074586Y10673089D01*
X39960300Y10625470D01*
X39941433Y10609290D01*
X39920674Y10595631D01*
X39844484Y10500393D01*
X39839239Y10486485D01*
X39829723Y10475063D01*
X39791628Y10379825D01*
X39791006Y10370472D01*
X39786418Y10362298D01*
X39748322Y10171822D01*
X39749496Y10161804D01*
X39746380Y10152210D01*
X39746380Y10009353D01*
X39603523Y10009353D01*
X39603523Y10871114D01*
X42217677Y10871114D01*
X42217677Y9337924D01*
G37*
D10*
X49104523Y9006718D02*
X49028333Y9054337D01*
X49028333Y9054337D02*
X48914047Y9054337D01*
X48914047Y9054337D02*
X48799761Y9006718D01*
X48799761Y9006718D02*
X48723571Y8911480D01*
X48723571Y8911480D02*
X48685476Y8816242D01*
X48685476Y8816242D02*
X48647380Y8625766D01*
X48647380Y8625766D02*
X48647380Y8482909D01*
X48647380Y8482909D02*
X48685476Y8292433D01*
X48685476Y8292433D02*
X48723571Y8197195D01*
X48723571Y8197195D02*
X48799761Y8101956D01*
X48799761Y8101956D02*
X48914047Y8054337D01*
X48914047Y8054337D02*
X48990238Y8054337D01*
X48990238Y8054337D02*
X49104523Y8101956D01*
X49104523Y8101956D02*
X49142619Y8149576D01*
X49142619Y8149576D02*
X49142619Y8482909D01*
X49142619Y8482909D02*
X48990238Y8482909D01*
X11919095Y6403337D02*
X11652428Y6879528D01*
X11461952Y6403337D02*
X11461952Y7403337D01*
X11461952Y7403337D02*
X11766714Y7403337D01*
X11766714Y7403337D02*
X11842904Y7355718D01*
X11842904Y7355718D02*
X11880999Y7308099D01*
X11880999Y7308099D02*
X11919095Y7212861D01*
X11919095Y7212861D02*
X11919095Y7070004D01*
X11919095Y7070004D02*
X11880999Y6974766D01*
X11880999Y6974766D02*
X11842904Y6927147D01*
X11842904Y6927147D02*
X11766714Y6879528D01*
X11766714Y6879528D02*
X11461952Y6879528D01*
X12261952Y6927147D02*
X12528618Y6927147D01*
X12642904Y6403337D02*
X12261952Y6403337D01*
X12261952Y6403337D02*
X12261952Y7403337D01*
X12261952Y7403337D02*
X12642904Y7403337D01*
X12947666Y6450956D02*
X13061952Y6403337D01*
X13061952Y6403337D02*
X13252428Y6403337D01*
X13252428Y6403337D02*
X13328619Y6450956D01*
X13328619Y6450956D02*
X13366714Y6498576D01*
X13366714Y6498576D02*
X13404809Y6593814D01*
X13404809Y6593814D02*
X13404809Y6689052D01*
X13404809Y6689052D02*
X13366714Y6784290D01*
X13366714Y6784290D02*
X13328619Y6831909D01*
X13328619Y6831909D02*
X13252428Y6879528D01*
X13252428Y6879528D02*
X13100047Y6927147D01*
X13100047Y6927147D02*
X13023857Y6974766D01*
X13023857Y6974766D02*
X12985762Y7022385D01*
X12985762Y7022385D02*
X12947666Y7117623D01*
X12947666Y7117623D02*
X12947666Y7212861D01*
X12947666Y7212861D02*
X12985762Y7308099D01*
X12985762Y7308099D02*
X13023857Y7355718D01*
X13023857Y7355718D02*
X13100047Y7403337D01*
X13100047Y7403337D02*
X13290524Y7403337D01*
X13290524Y7403337D02*
X13404809Y7355718D01*
X13747667Y6927147D02*
X14014333Y6927147D01*
X14128619Y6403337D02*
X13747667Y6403337D01*
X13747667Y6403337D02*
X13747667Y7403337D01*
X13747667Y7403337D02*
X14128619Y7403337D01*
X14357191Y7403337D02*
X14814334Y7403337D01*
X14585762Y6403337D02*
X14585762Y7403337D01*
G36*
X27793497Y7043754D02*
G01*
X27816371Y7015161D01*
X27844785Y6944129D01*
X27844785Y6830737D01*
X27816371Y6759705D01*
X27793497Y6731112D01*
X27746964Y6702028D01*
X27540642Y6702028D01*
X27540642Y7072837D01*
X27746964Y7072837D01*
X27793497Y7043754D01*
G37*
G36*
X29203021Y7043754D02*
G01*
X29225895Y7015161D01*
X29254309Y6944129D01*
X29254309Y6830737D01*
X29225895Y6759705D01*
X29203021Y6731112D01*
X29156488Y6702028D01*
X28950166Y6702028D01*
X28950166Y7072837D01*
X29156488Y7072837D01*
X29203021Y7043754D01*
G37*
G36*
X34041117Y7043754D02*
G01*
X34063991Y7015161D01*
X34092405Y6944129D01*
X34092405Y6830737D01*
X34063991Y6759705D01*
X34041117Y6731112D01*
X33994584Y6702028D01*
X33788262Y6702028D01*
X33788262Y7072837D01*
X33994584Y7072837D01*
X34041117Y7043754D01*
G37*
G36*
X34388262Y5929980D02*
G01*
X26863833Y5929980D01*
X26863833Y6149337D01*
X27006690Y6149337D01*
X27024588Y6100164D01*
X27069906Y6073999D01*
X27121440Y6083086D01*
X27155076Y6123172D01*
X27159690Y6149337D01*
X27387642Y6149337D01*
X27405540Y6100164D01*
X27450858Y6073999D01*
X27502392Y6083086D01*
X27536028Y6123172D01*
X27540642Y6149337D01*
X27540642Y6549028D01*
X27609779Y6549028D01*
X27854538Y6111959D01*
X27894181Y6077800D01*
X27946505Y6077113D01*
X27987029Y6110222D01*
X27994456Y6149337D01*
X28797166Y6149337D01*
X28815064Y6100164D01*
X28860382Y6073999D01*
X28911916Y6083086D01*
X28945552Y6123172D01*
X28950166Y6149337D01*
X28950166Y6549028D01*
X29019303Y6549028D01*
X29264062Y6111959D01*
X29303705Y6077800D01*
X29356029Y6077113D01*
X29396553Y6110222D01*
X29403980Y6149337D01*
X29597166Y6149337D01*
X29603963Y6130662D01*
X29607415Y6111087D01*
X29612703Y6106650D01*
X29615064Y6100164D01*
X29632275Y6090227D01*
X29647501Y6077451D01*
X29657438Y6075699D01*
X29660382Y6073999D01*
X29663729Y6074590D01*
X29673666Y6072837D01*
X30054618Y6072837D01*
X30103791Y6090735D01*
X30129956Y6136053D01*
X30120869Y6187587D01*
X30080783Y6221223D01*
X30054618Y6225837D01*
X29750166Y6225837D01*
X29750166Y6577909D01*
X30282880Y6577909D01*
X30284099Y6574558D01*
X30284366Y6562906D01*
X30322462Y6372430D01*
X30324265Y6369466D01*
X30326447Y6359022D01*
X30364542Y6263784D01*
X30366345Y6261768D01*
X30375834Y6244406D01*
X30452024Y6149167D01*
X30457182Y6146026D01*
X30459960Y6140663D01*
X30482338Y6126341D01*
X30596624Y6078721D01*
X30598469Y6078637D01*
X30599882Y6077451D01*
X30626047Y6072837D01*
X30702238Y6072837D01*
X30703972Y6073469D01*
X30705734Y6072917D01*
X30731661Y6078722D01*
X30845946Y6126341D01*
X30850390Y6130431D01*
X30856311Y6131618D01*
X30876259Y6149167D01*
X30876395Y6149337D01*
X31120976Y6149337D01*
X31127773Y6130662D01*
X31131225Y6111087D01*
X31136513Y6106650D01*
X31138874Y6100164D01*
X31156085Y6090227D01*
X31171311Y6077451D01*
X31181248Y6075699D01*
X31184192Y6073999D01*
X31187539Y6074590D01*
X31197476Y6072837D01*
X31578428Y6072837D01*
X31627601Y6090735D01*
X31653766Y6136053D01*
X31651424Y6149337D01*
X31844786Y6149337D01*
X31862684Y6100164D01*
X31908002Y6073999D01*
X31959536Y6083086D01*
X31993172Y6123172D01*
X31997786Y6149337D01*
X31997786Y7149337D01*
X31995326Y7156096D01*
X32111751Y7156096D01*
X32114035Y7129626D01*
X32380702Y6129626D01*
X32384707Y6123891D01*
X32385326Y6116924D01*
X32399334Y6102949D01*
X32410666Y6086725D01*
X32417419Y6084907D01*
X32422372Y6079966D01*
X32442087Y6078265D01*
X32461195Y6073120D01*
X32467537Y6076069D01*
X32474507Y6075467D01*
X32490705Y6086839D01*
X32508648Y6095179D01*
X32511611Y6101515D01*
X32517336Y6105533D01*
X32528536Y6129626D01*
X32533792Y6149337D01*
X32911452Y6149337D01*
X32918249Y6130662D01*
X32921701Y6111087D01*
X32926989Y6106650D01*
X32929350Y6100164D01*
X32946561Y6090227D01*
X32961787Y6077451D01*
X32971724Y6075699D01*
X32974668Y6073999D01*
X32978015Y6074590D01*
X32987952Y6072837D01*
X33368904Y6072837D01*
X33418077Y6090735D01*
X33444242Y6136053D01*
X33441900Y6149337D01*
X33635262Y6149337D01*
X33653160Y6100164D01*
X33698478Y6073999D01*
X33750012Y6083086D01*
X33783648Y6123172D01*
X33788262Y6149337D01*
X33788262Y6549028D01*
X33857399Y6549028D01*
X34102158Y6111959D01*
X34141801Y6077800D01*
X34194125Y6077113D01*
X34234649Y6110222D01*
X34244410Y6161632D01*
X34235652Y6186715D01*
X34031767Y6550795D01*
X34032436Y6550701D01*
X34057069Y6560656D01*
X34133259Y6608275D01*
X34133756Y6608912D01*
X34152451Y6625358D01*
X34190546Y6672977D01*
X34191411Y6675541D01*
X34201837Y6692354D01*
X34239933Y6787592D01*
X34239973Y6788865D01*
X34240791Y6789839D01*
X34245405Y6816004D01*
X34245405Y6958861D01*
X34244969Y6960058D01*
X34245367Y6961266D01*
X34239933Y6987273D01*
X34201837Y7082511D01*
X34200034Y7084527D01*
X34190546Y7101888D01*
X34152451Y7149507D01*
X34151759Y7149929D01*
X34133259Y7166590D01*
X34057069Y7214209D01*
X34049004Y7215924D01*
X34042689Y7221223D01*
X34016524Y7225837D01*
X33711762Y7225837D01*
X33693086Y7219040D01*
X33673512Y7215588D01*
X33669074Y7210300D01*
X33662589Y7207939D01*
X33652651Y7190728D01*
X33639876Y7175502D01*
X33638123Y7165565D01*
X33636424Y7162621D01*
X33637014Y7159274D01*
X33635262Y7149337D01*
X33635262Y6149337D01*
X33441900Y6149337D01*
X33435155Y6187587D01*
X33395069Y6221223D01*
X33368904Y6225837D01*
X33064452Y6225837D01*
X33064452Y6596647D01*
X33254618Y6596647D01*
X33303791Y6614545D01*
X33329956Y6659863D01*
X33320869Y6711397D01*
X33280783Y6745033D01*
X33254618Y6749647D01*
X33064452Y6749647D01*
X33064452Y7072837D01*
X33368904Y7072837D01*
X33418077Y7090735D01*
X33444242Y7136053D01*
X33435155Y7187587D01*
X33395069Y7221223D01*
X33368904Y7225837D01*
X32987952Y7225837D01*
X32969276Y7219040D01*
X32949702Y7215588D01*
X32945264Y7210300D01*
X32938779Y7207939D01*
X32928841Y7190728D01*
X32916066Y7175502D01*
X32914313Y7165565D01*
X32912614Y7162621D01*
X32913204Y7159274D01*
X32911452Y7149337D01*
X32911452Y6149337D01*
X32533792Y6149337D01*
X32795202Y7129626D01*
X32790578Y7181750D01*
X32753532Y7218709D01*
X32701397Y7223207D01*
X32658568Y7193141D01*
X32647368Y7169048D01*
X32454618Y6446237D01*
X32261869Y7169048D01*
X32231905Y7211949D01*
X32181376Y7225554D01*
X32133923Y7203495D01*
X32111751Y7156096D01*
X31995326Y7156096D01*
X31979888Y7198510D01*
X31934570Y7224675D01*
X31883036Y7215588D01*
X31849400Y7175502D01*
X31844786Y7149337D01*
X31844786Y6149337D01*
X31651424Y6149337D01*
X31644679Y6187587D01*
X31604593Y6221223D01*
X31578428Y6225837D01*
X31273976Y6225837D01*
X31273976Y6596647D01*
X31464142Y6596647D01*
X31513315Y6614545D01*
X31539480Y6659863D01*
X31530393Y6711397D01*
X31490307Y6745033D01*
X31464142Y6749647D01*
X31273976Y6749647D01*
X31273976Y7072837D01*
X31578428Y7072837D01*
X31627601Y7090735D01*
X31653766Y7136053D01*
X31644679Y7187587D01*
X31604593Y7221223D01*
X31578428Y7225837D01*
X31197476Y7225837D01*
X31178800Y7219040D01*
X31159226Y7215588D01*
X31154788Y7210300D01*
X31148303Y7207939D01*
X31138365Y7190728D01*
X31125590Y7175502D01*
X31123837Y7165565D01*
X31122138Y7162621D01*
X31122728Y7159274D01*
X31120976Y7149337D01*
X31120976Y6149337D01*
X30876395Y6149337D01*
X30914355Y6196787D01*
X30931097Y6246365D01*
X30912055Y6295106D01*
X30866137Y6320204D01*
X30814830Y6309914D01*
X30794882Y6292365D01*
X30769021Y6260039D01*
X30686939Y6225837D01*
X30641346Y6225837D01*
X30559263Y6260039D01*
X30502388Y6331133D01*
X30471112Y6409326D01*
X30435880Y6585483D01*
X30435880Y6713193D01*
X30471112Y6889350D01*
X30502388Y6967542D01*
X30559263Y7038637D01*
X30641346Y7072837D01*
X30686939Y7072837D01*
X30769020Y7038637D01*
X30794883Y7006309D01*
X30839578Y6979092D01*
X30891310Y6986972D01*
X30925874Y7026261D01*
X30927098Y7078575D01*
X30914355Y7101888D01*
X30876259Y7149508D01*
X30871100Y7152649D01*
X30868324Y7158011D01*
X30845946Y7172333D01*
X30731661Y7219952D01*
X30729817Y7220037D01*
X30728403Y7221223D01*
X30702238Y7225837D01*
X30626047Y7225837D01*
X30624312Y7225206D01*
X30622551Y7225757D01*
X30596624Y7219953D01*
X30482338Y7172333D01*
X30477893Y7168244D01*
X30471973Y7167056D01*
X30452024Y7149507D01*
X30375834Y7054269D01*
X30374967Y7051704D01*
X30364542Y7034891D01*
X30326447Y6939653D01*
X30326337Y6936182D01*
X30322462Y6926245D01*
X30284366Y6735769D01*
X30284904Y6732247D01*
X30282880Y6720766D01*
X30282880Y6577909D01*
X29750166Y6577909D01*
X29750166Y6596647D01*
X29940332Y6596647D01*
X29989505Y6614545D01*
X30015670Y6659863D01*
X30006583Y6711397D01*
X29966497Y6745033D01*
X29940332Y6749647D01*
X29750166Y6749647D01*
X29750166Y7072837D01*
X30054618Y7072837D01*
X30103791Y7090735D01*
X30129956Y7136053D01*
X30120869Y7187587D01*
X30080783Y7221223D01*
X30054618Y7225837D01*
X29673666Y7225837D01*
X29654990Y7219040D01*
X29635416Y7215588D01*
X29630978Y7210300D01*
X29624493Y7207939D01*
X29614555Y7190728D01*
X29601780Y7175502D01*
X29600027Y7165565D01*
X29598328Y7162621D01*
X29598918Y7159274D01*
X29597166Y7149337D01*
X29597166Y6149337D01*
X29403980Y6149337D01*
X29406314Y6161632D01*
X29397556Y6186715D01*
X29193671Y6550795D01*
X29194340Y6550701D01*
X29218973Y6560656D01*
X29295163Y6608275D01*
X29295660Y6608912D01*
X29314355Y6625358D01*
X29352450Y6672977D01*
X29353315Y6675541D01*
X29363741Y6692354D01*
X29401837Y6787592D01*
X29401877Y6788865D01*
X29402695Y6789839D01*
X29407309Y6816004D01*
X29407309Y6958861D01*
X29406873Y6960058D01*
X29407271Y6961266D01*
X29401837Y6987273D01*
X29363741Y7082511D01*
X29361938Y7084527D01*
X29352450Y7101888D01*
X29314355Y7149507D01*
X29313663Y7149929D01*
X29295163Y7166590D01*
X29218973Y7214209D01*
X29210908Y7215924D01*
X29204593Y7221223D01*
X29178428Y7225837D01*
X28873666Y7225837D01*
X28854990Y7219040D01*
X28835416Y7215588D01*
X28830978Y7210300D01*
X28824493Y7207939D01*
X28814555Y7190728D01*
X28801780Y7175502D01*
X28800027Y7165565D01*
X28798328Y7162621D01*
X28798918Y7159274D01*
X28797166Y7149337D01*
X28797166Y6149337D01*
X27994456Y6149337D01*
X27996790Y6161632D01*
X27988032Y6186715D01*
X27784147Y6550795D01*
X27784816Y6550701D01*
X27809449Y6560656D01*
X27885639Y6608275D01*
X27886136Y6608912D01*
X27904831Y6625358D01*
X27942926Y6672977D01*
X27943791Y6675541D01*
X27954217Y6692354D01*
X27992313Y6787592D01*
X27992353Y6788865D01*
X27993171Y6789839D01*
X27997785Y6816004D01*
X27997785Y6958861D01*
X27997349Y6960058D01*
X27997747Y6961266D01*
X27992313Y6987273D01*
X27954217Y7082511D01*
X27952414Y7084527D01*
X27942926Y7101888D01*
X27904831Y7149507D01*
X27904139Y7149929D01*
X27885639Y7166590D01*
X27809449Y7214209D01*
X27801384Y7215924D01*
X27795069Y7221223D01*
X27768904Y7225837D01*
X27464142Y7225837D01*
X27445466Y7219040D01*
X27425892Y7215588D01*
X27421454Y7210300D01*
X27414969Y7207939D01*
X27405031Y7190728D01*
X27392256Y7175502D01*
X27390503Y7165565D01*
X27388804Y7162621D01*
X27389394Y7159274D01*
X27387642Y7149337D01*
X27387642Y6149337D01*
X27159690Y6149337D01*
X27159690Y7149337D01*
X27141792Y7198510D01*
X27096474Y7224675D01*
X27044940Y7215588D01*
X27011304Y7175502D01*
X27006690Y7149337D01*
X27006690Y6149337D01*
X26863833Y6149337D01*
X26863833Y7368694D01*
X34388262Y7368694D01*
X34388262Y5929980D01*
G37*
D12*
%TO.C,J201*%
X5054000Y21857000D02*
X3439000Y21857000D01*
X1079000Y21857000D02*
X-251000Y21857000D01*
X-251000Y21857000D02*
X-251000Y12697000D01*
X5054000Y12697000D02*
X3439000Y12697000D01*
X1079000Y12697000D02*
X-221000Y12697000D01*
%TO.C,R101*%
X20844742Y28335500D02*
X21319258Y28335500D01*
X20844742Y27290500D02*
X21319258Y27290500D01*
%TO.C,C403*%
X17528000Y12586580D02*
X17528000Y12305420D01*
X16508000Y12586580D02*
X16508000Y12305420D01*
%TO.C,D201*%
X9870000Y17922000D02*
X9870000Y16622000D01*
X12990000Y16622000D02*
X12990000Y18622000D01*
%TO.C,C301*%
X8257000Y30010980D02*
X8257000Y29729820D01*
X7237000Y30010980D02*
X7237000Y29729820D01*
%TO.C,LED102*%
X12100500Y35660000D02*
X12100500Y34190000D01*
X12100500Y34190000D02*
X14385500Y34190000D01*
X14385500Y35660000D02*
X12100500Y35660000D01*
%TO.C,SW101*%
X13908000Y11744000D02*
X13908000Y10414000D01*
X12578000Y11744000D02*
X13908000Y11744000D01*
X11308000Y11744000D02*
X8708000Y11744000D01*
X11308000Y11744000D02*
X11308000Y9084000D01*
X8708000Y11744000D02*
X8708000Y9084000D01*
X11308000Y9084000D02*
X8708000Y9084000D01*
%TO.C,C102*%
X21334000Y29958420D02*
X21334000Y30239580D01*
X22354000Y29958420D02*
X22354000Y30239580D01*
%TO.C,C402*%
X16004000Y12586580D02*
X16004000Y12305420D01*
X14984000Y12586580D02*
X14984000Y12305420D01*
%TO.C,LED101*%
X12100500Y33882000D02*
X12100500Y32412000D01*
X12100500Y32412000D02*
X14385500Y32412000D01*
X14385500Y33882000D02*
X12100500Y33882000D01*
%TO.C,R107*%
X16947258Y36180500D02*
X16472742Y36180500D01*
X16947258Y37225500D02*
X16472742Y37225500D01*
D13*
%TO.C,J104*%
X36449000Y508000D02*
X36449000Y1270000D01*
X36854000Y7441000D02*
X36854000Y941000D01*
X36854000Y941000D02*
X44934000Y941000D01*
X37211000Y508000D02*
X36449000Y508000D01*
X44934000Y7441000D02*
X36854000Y7441000D01*
X44934000Y941000D02*
X44934000Y7441000D01*
D12*
%TO.C,U106*%
X33461000Y5447000D02*
X30861000Y5447000D01*
X33461000Y5097000D02*
X33461000Y5447000D01*
X33461000Y2777000D02*
X33461000Y2437000D01*
X33461000Y2437000D02*
X28371000Y2437000D01*
X28761084Y2435264D02*
G75*
G03*
X32960999Y2437000I2099916J101736D01*
G01*
D13*
%TO.C,J102*%
X64389000Y10668000D02*
X63627000Y10668000D01*
X57456000Y11073000D02*
X63956000Y11073000D01*
X63956000Y11073000D02*
X63956000Y19153000D01*
X64389000Y11430000D02*
X64389000Y10668000D01*
X57456000Y19153000D02*
X57456000Y11073000D01*
X63956000Y19153000D02*
X57456000Y19153000D01*
D12*
%TO.C,R105*%
X16938258Y34402500D02*
X16463742Y34402500D01*
X16938258Y35447500D02*
X16463742Y35447500D01*
D13*
%TO.C,J101*%
X64389000Y21209000D02*
X63627000Y21209000D01*
X57456000Y21614000D02*
X63956000Y21614000D01*
X63956000Y21614000D02*
X63956000Y29694000D01*
X64389000Y21971000D02*
X64389000Y21209000D01*
X57456000Y29694000D02*
X57456000Y21614000D01*
X63956000Y29694000D02*
X57456000Y29694000D01*
D12*
%TO.C,R108*%
X53862500Y15223258D02*
X53862500Y14748742D01*
X52817500Y15223258D02*
X52817500Y14748742D01*
%TO.C,R103*%
X52817500Y22114742D02*
X52817500Y22589258D01*
X53862500Y22114742D02*
X53862500Y22589258D01*
%TO.C,C101*%
X19810000Y29958420D02*
X19810000Y30239580D01*
X20830000Y29958420D02*
X20830000Y30239580D01*
%TO.C,R106*%
X52817500Y18431742D02*
X52817500Y18906258D01*
X53862500Y18431742D02*
X53862500Y18906258D01*
%TO.C,C202*%
X8761000Y29729820D02*
X8761000Y30010980D01*
X9781000Y29729820D02*
X9781000Y30010980D01*
%TO.C,U101*%
X49403000Y27595000D02*
X47603000Y27595000D01*
X49403000Y27595000D02*
X50203000Y27595000D01*
X49403000Y24475000D02*
X48603000Y24475000D01*
X49403000Y24475000D02*
X50203000Y24475000D01*
%TO.C,U102*%
X49403000Y23912000D02*
X47603000Y23912000D01*
X49403000Y23912000D02*
X50203000Y23912000D01*
X49403000Y20792000D02*
X48603000Y20792000D01*
X49403000Y20792000D02*
X50203000Y20792000D01*
%TO.C,C401*%
X14454600Y14847180D02*
X14454600Y14566020D01*
X13434600Y14847180D02*
X13434600Y14566020D01*
%TO.C,Q401*%
X23080200Y21714796D02*
X23080200Y23114796D01*
X20760200Y23114796D02*
X20760200Y21214796D01*
%TO.C,C201*%
X8262252Y23141000D02*
X7739748Y23141000D01*
X8262252Y24611000D02*
X7739748Y24611000D01*
%TO.C,SW105*%
X19179000Y4475000D02*
X19179000Y1875000D01*
X19249000Y5855000D02*
X25709000Y5855000D01*
X19249000Y5825000D02*
X19249000Y5855000D01*
X19249000Y475000D02*
X19249000Y505000D01*
X19249000Y475000D02*
X25709000Y475000D01*
X25709000Y5855000D02*
X25709000Y5825000D01*
X25709000Y475000D02*
X25709000Y505000D01*
X25779000Y4475000D02*
X25779000Y1875000D01*
%TO.C,F201*%
X11872179Y25194800D02*
X11546621Y25194800D01*
X11872179Y26214800D02*
X11546621Y26214800D01*
%TO.C,U105*%
X49403000Y16546000D02*
X47603000Y16546000D01*
X49403000Y16546000D02*
X50203000Y16546000D01*
X49403000Y13426000D02*
X48603000Y13426000D01*
X49403000Y13426000D02*
X50203000Y13426000D01*
%TO.C,FB201*%
X8129600Y26442936D02*
X8129600Y26897064D01*
X9599600Y26442936D02*
X9599600Y26897064D01*
%TO.C,R201*%
X5347580Y10412000D02*
X5066420Y10412000D01*
X5347580Y11432000D02*
X5066420Y11432000D01*
%TO.C,R402*%
X20207500Y22601254D02*
X20207500Y22126738D01*
X19162500Y22601254D02*
X19162500Y22126738D01*
%TO.C,U301*%
X12573000Y29815000D02*
X10773000Y29815000D01*
X12573000Y29815000D02*
X13373000Y29815000D01*
X12573000Y26695000D02*
X11773000Y26695000D01*
X12573000Y26695000D02*
X13373000Y26695000D01*
%TO.C,G\u002A\u002A\u002A*%
G36*
X51759069Y31957705D02*
G01*
X51759069Y31594848D01*
X51946753Y31594848D01*
X52134438Y31594848D01*
X52134438Y31519774D01*
X52134438Y31444700D01*
X51859167Y31444700D01*
X51583896Y31444700D01*
X51583896Y31882631D01*
X51583896Y32320562D01*
X51671482Y32320562D01*
X51759069Y32320562D01*
X51759069Y31957705D01*
G37*
G36*
X55012271Y37738394D02*
G01*
X55012271Y37375537D01*
X55199955Y37375537D01*
X55387640Y37375537D01*
X55387640Y37300463D01*
X55387640Y37225390D01*
X55112369Y37225390D01*
X54837098Y37225390D01*
X54837098Y37663321D01*
X54837098Y38101252D01*
X54924684Y38101252D01*
X55012271Y38101252D01*
X55012271Y37738394D01*
G37*
G36*
X54311581Y32245488D02*
G01*
X54308316Y32199324D01*
X54289468Y32177459D01*
X54241454Y32170839D01*
X54198970Y32170414D01*
X54086359Y32170414D01*
X54086359Y31807557D01*
X54086359Y31444700D01*
X53998773Y31444700D01*
X53911187Y31444700D01*
X53911187Y31807557D01*
X53911187Y32170414D01*
X53798576Y32170414D01*
X53729330Y32172590D01*
X53696533Y32185156D01*
X53686602Y32217166D01*
X53685965Y32245488D01*
X53685965Y32320562D01*
X53998773Y32320562D01*
X54311581Y32320562D01*
X54311581Y32245488D01*
G37*
G36*
X54661926Y38026178D02*
G01*
X54658661Y37980014D01*
X54639813Y37958149D01*
X54591798Y37951528D01*
X54549315Y37951104D01*
X54436704Y37951104D01*
X54436704Y37588247D01*
X54436704Y37225390D01*
X54349118Y37225390D01*
X54261532Y37225390D01*
X54261532Y37588247D01*
X54261532Y37951104D01*
X54148921Y37951104D01*
X54079675Y37953280D01*
X54046877Y37965846D01*
X54036947Y37997855D01*
X54036310Y38026178D01*
X54036310Y38101252D01*
X54349118Y38101252D01*
X54661926Y38101252D01*
X54661926Y38026178D01*
G37*
G36*
X56463699Y31881120D02*
G01*
X56463699Y31441679D01*
X56369857Y31449445D01*
X56276014Y31457212D01*
X56163404Y31756615D01*
X56050793Y32056017D01*
X56043766Y31750358D01*
X56036740Y31444700D01*
X55962436Y31444700D01*
X55888133Y31444700D01*
X55888133Y31882631D01*
X55888133Y32320562D01*
X55981975Y32320288D01*
X56075817Y32320014D01*
X56188428Y32016629D01*
X56301039Y31713244D01*
X56308065Y32016903D01*
X56315092Y32320562D01*
X56389395Y32320562D01*
X56463699Y32320562D01*
X56463699Y31881120D01*
G37*
G36*
X51383699Y32245488D02*
G01*
X51383699Y32170414D01*
X51196014Y32170414D01*
X51008330Y32170414D01*
X51008330Y32082828D01*
X51008330Y31995242D01*
X51183502Y31995242D01*
X51358674Y31995242D01*
X51358674Y31920168D01*
X51358674Y31845094D01*
X51183502Y31845094D01*
X51008330Y31845094D01*
X51008330Y31719971D01*
X51008330Y31594848D01*
X51196014Y31594848D01*
X51383699Y31594848D01*
X51383699Y31519774D01*
X51383699Y31444700D01*
X51108428Y31444700D01*
X50833157Y31444700D01*
X50833157Y31882631D01*
X50833157Y32320562D01*
X51108428Y32320562D01*
X51383699Y32320562D01*
X51383699Y32245488D01*
G37*
G36*
X52835128Y32245488D02*
G01*
X52835128Y32170414D01*
X52647443Y32170414D01*
X52459758Y32170414D01*
X52459758Y32082828D01*
X52459758Y31995242D01*
X52634931Y31995242D01*
X52810103Y31995242D01*
X52810103Y31920168D01*
X52810103Y31845094D01*
X52634931Y31845094D01*
X52459758Y31845094D01*
X52459758Y31719971D01*
X52459758Y31594848D01*
X52647443Y31594848D01*
X52835128Y31594848D01*
X52835128Y31519774D01*
X52835128Y31444700D01*
X52559857Y31444700D01*
X52284586Y31444700D01*
X52284586Y31882631D01*
X52284586Y32320562D01*
X52559857Y32320562D01*
X52835128Y32320562D01*
X52835128Y32245488D01*
G37*
G36*
X56088330Y38026178D02*
G01*
X56088330Y37951104D01*
X55900645Y37951104D01*
X55712960Y37951104D01*
X55712960Y37863518D01*
X55712960Y37775931D01*
X55888133Y37775931D01*
X56063305Y37775931D01*
X56063305Y37700858D01*
X56063305Y37625784D01*
X55888133Y37625784D01*
X55712960Y37625784D01*
X55712960Y37500660D01*
X55712960Y37375537D01*
X55900645Y37375537D01*
X56088330Y37375537D01*
X56088330Y37300463D01*
X56088330Y37225390D01*
X55813059Y37225390D01*
X55537788Y37225390D01*
X55537788Y37663321D01*
X55537788Y38101252D01*
X55813059Y38101252D01*
X56088330Y38101252D01*
X56088330Y38026178D01*
G37*
G36*
X57139364Y32245488D02*
G01*
X57134482Y32195049D01*
X57109716Y32174361D01*
X57051778Y32170414D01*
X56964192Y32170414D01*
X56964192Y31882631D01*
X56964192Y31594848D01*
X57051778Y31594848D01*
X57110624Y31590663D01*
X57134760Y31569435D01*
X57139364Y31519774D01*
X57139364Y31444700D01*
X56876606Y31444700D01*
X56613847Y31444700D01*
X56613847Y31519774D01*
X56618729Y31570213D01*
X56643495Y31590901D01*
X56701433Y31594848D01*
X56789019Y31594848D01*
X56789019Y31882631D01*
X56789019Y32170414D01*
X56701433Y32170414D01*
X56642587Y32174599D01*
X56618451Y32195827D01*
X56613847Y32245488D01*
X56613847Y32320562D01*
X56876606Y32320562D01*
X57139364Y32320562D01*
X57139364Y32245488D01*
G37*
G36*
X53470251Y32335609D02*
G01*
X53531514Y32302825D01*
X53558369Y32242810D01*
X53560842Y32207476D01*
X53560842Y32121175D01*
X53475896Y32161682D01*
X53377321Y32188940D01*
X53296221Y32171021D01*
X53235373Y32110594D01*
X53197551Y32010324D01*
X53185473Y31882631D01*
X53199210Y31747459D01*
X53238572Y31649632D01*
X53300785Y31591817D01*
X53383073Y31576681D01*
X53475896Y31603580D01*
X53560842Y31644087D01*
X53560842Y31557786D01*
X53547516Y31482322D01*
X53512438Y31445580D01*
X53425982Y31422301D01*
X53321092Y31425902D01*
X53220391Y31454635D01*
X53190026Y31470486D01*
X53100287Y31553697D01*
X53041161Y31672167D01*
X53014996Y31819850D01*
X53015980Y31918376D01*
X53028858Y32018996D01*
X53050231Y32111854D01*
X53070302Y32165464D01*
X53145183Y32259257D01*
X53249862Y32322382D01*
X53368546Y32345493D01*
X53470251Y32335609D01*
G37*
G36*
X57799512Y32335609D02*
G01*
X57860775Y32302825D01*
X57887630Y32242810D01*
X57890103Y32207476D01*
X57890103Y32121175D01*
X57805157Y32161682D01*
X57706582Y32188940D01*
X57625482Y32171021D01*
X57564634Y32110594D01*
X57526812Y32010324D01*
X57514734Y31882631D01*
X57528471Y31747459D01*
X57567833Y31649632D01*
X57630046Y31591817D01*
X57712334Y31576681D01*
X57805157Y31603580D01*
X57890103Y31644087D01*
X57890103Y31557786D01*
X57876777Y31482322D01*
X57841699Y31445580D01*
X57755243Y31422301D01*
X57650354Y31425902D01*
X57549652Y31454635D01*
X57519287Y31470486D01*
X57429548Y31553697D01*
X57370422Y31672167D01*
X57344257Y31819850D01*
X57345241Y31918376D01*
X57358119Y32018996D01*
X57379492Y32111854D01*
X57399563Y32165464D01*
X57474444Y32259257D01*
X57579123Y32322382D01*
X57697807Y32345493D01*
X57799512Y32335609D01*
G37*
G36*
X56552239Y35159074D02*
G01*
X56557879Y35152953D01*
X56570849Y35137576D01*
X56580761Y35124083D01*
X56584297Y35110448D01*
X56578136Y35094645D01*
X56558959Y35074649D01*
X56523446Y35048435D01*
X56468278Y35013977D01*
X56390136Y34969250D01*
X56285700Y34912228D01*
X56151650Y34840886D01*
X55984666Y34753198D01*
X55781430Y34647140D01*
X55538622Y34520685D01*
X55422542Y34460222D01*
X54969464Y34224171D01*
X54941781Y34284928D01*
X54933626Y34306871D01*
X54934927Y34326828D01*
X54951193Y34348733D01*
X54987931Y34376521D01*
X55050647Y34414124D01*
X55144849Y34465477D01*
X55276044Y34534515D01*
X55332297Y34563884D01*
X55502501Y34652885D01*
X55693492Y34753077D01*
X55886604Y34854648D01*
X56063169Y34947785D01*
X56138379Y34987578D01*
X56279380Y35061680D01*
X56382980Y35114188D01*
X56455622Y35147640D01*
X56503749Y35164579D01*
X56533807Y35167543D01*
X56552239Y35159074D01*
G37*
G36*
X52983768Y35154125D02*
G01*
X53035611Y35134128D01*
X53109272Y35100665D01*
X53209056Y35051762D01*
X53339265Y34985448D01*
X53504203Y34899750D01*
X53708173Y34792694D01*
X53748527Y34771445D01*
X53960278Y34658933D01*
X54143901Y34559384D01*
X54296379Y34474525D01*
X54414696Y34406080D01*
X54495834Y34355774D01*
X54536777Y34325332D01*
X54541227Y34318074D01*
X54533034Y34292862D01*
X54520247Y34275649D01*
X54498530Y34268122D01*
X54463544Y34271967D01*
X54410952Y34288869D01*
X54336416Y34320515D01*
X54235598Y34368592D01*
X54104161Y34434784D01*
X53937766Y34520778D01*
X53732076Y34628261D01*
X53700057Y34645035D01*
X53516168Y34741929D01*
X53346748Y34832244D01*
X53196824Y34913219D01*
X53071424Y34982095D01*
X52975574Y35036111D01*
X52914301Y35072507D01*
X52892676Y35088312D01*
X52899707Y35126032D01*
X52916120Y35153046D01*
X52928326Y35161611D01*
X52949440Y35162629D01*
X52983768Y35154125D01*
G37*
G36*
X53510793Y37765207D02*
G01*
X53512634Y37610293D01*
X53519505Y37498635D01*
X53533429Y37423532D01*
X53556428Y37378279D01*
X53590524Y37356176D01*
X53635916Y37350513D01*
X53682657Y37356614D01*
X53716347Y37379388D01*
X53739007Y37425536D01*
X53752661Y37501761D01*
X53759330Y37614765D01*
X53761039Y37765207D01*
X53761039Y38101252D01*
X53850428Y38101252D01*
X53939817Y38101252D01*
X53931758Y37726381D01*
X53928347Y37581856D01*
X53924345Y37478542D01*
X53918259Y37407609D01*
X53908594Y37360228D01*
X53893859Y37327567D01*
X53872559Y37300797D01*
X53857109Y37284990D01*
X53781105Y37237615D01*
X53679564Y37209725D01*
X53574486Y37205143D01*
X53498280Y37222662D01*
X53444039Y37257690D01*
X53398182Y37300058D01*
X53378451Y37326796D01*
X53364256Y37361953D01*
X53354426Y37414161D01*
X53347790Y37492052D01*
X53343178Y37604256D01*
X53340074Y37728430D01*
X53332014Y38101252D01*
X53421404Y38101252D01*
X53510793Y38101252D01*
X53510793Y37765207D01*
G37*
G36*
X55536417Y32329799D02*
G01*
X55591123Y32315789D01*
X55632661Y32284766D01*
X55651400Y32264215D01*
X55714593Y32157030D01*
X55752094Y32021918D01*
X55763843Y31873425D01*
X55749775Y31726093D01*
X55709829Y31594466D01*
X55654664Y31504841D01*
X55582752Y31454496D01*
X55485831Y31427721D01*
X55384670Y31427862D01*
X55313936Y31449976D01*
X55234472Y31519788D01*
X55178175Y31630862D01*
X55146923Y31779162D01*
X55143634Y31815838D01*
X55144621Y31882631D01*
X55312566Y31882631D01*
X55322845Y31748547D01*
X55352204Y31648433D01*
X55398425Y31587329D01*
X55450202Y31569823D01*
X55501092Y31581820D01*
X55537434Y31626056D01*
X55551577Y31656606D01*
X55572624Y31733010D01*
X55585706Y31830615D01*
X55587837Y31882631D01*
X55577558Y32016715D01*
X55548199Y32116829D01*
X55501978Y32177933D01*
X55450202Y32195439D01*
X55391205Y32172077D01*
X55347154Y32105352D01*
X55320269Y32000305D01*
X55312566Y31882631D01*
X55144621Y31882631D01*
X55146325Y31997972D01*
X55181601Y32148576D01*
X55248525Y32263660D01*
X55248695Y32263858D01*
X55290343Y32304498D01*
X55336928Y32325290D01*
X55406823Y32332545D01*
X55450202Y32333074D01*
X55536417Y32329799D01*
G37*
G36*
X58392036Y32337568D02*
G01*
X58483118Y32324373D01*
X58535155Y32305693D01*
X58559013Y32272306D01*
X58565557Y32214988D01*
X58565768Y32190083D01*
X58564319Y32126576D01*
X58555595Y32105069D01*
X58533036Y32117521D01*
X58517661Y32131119D01*
X58453816Y32168213D01*
X58374788Y32187717D01*
X58299559Y32187514D01*
X58247113Y32165486D01*
X58243599Y32161699D01*
X58218086Y32106267D01*
X58237897Y32052819D01*
X58304761Y31998568D01*
X58365160Y31965941D01*
X58495590Y31888211D01*
X58577896Y31803918D01*
X58613897Y31709773D01*
X58605411Y31602490D01*
X58590952Y31557729D01*
X58542511Y31495852D01*
X58457743Y31450848D01*
X58348368Y31425568D01*
X58226104Y31422867D01*
X58115325Y31441935D01*
X58073475Y31462267D01*
X58052804Y31503335D01*
X58045167Y31562550D01*
X58037570Y31665893D01*
X58131788Y31617858D01*
X58231757Y31580869D01*
X58320479Y31573017D01*
X58389254Y31591906D01*
X58429380Y31635142D01*
X58432158Y31700327D01*
X58432104Y31700544D01*
X58408112Y31745456D01*
X58354413Y31784914D01*
X58277576Y31820235D01*
X58151050Y31888419D01*
X58071655Y31970567D01*
X58039934Y32065604D01*
X58056429Y32172454D01*
X58076608Y32218181D01*
X58142249Y32293048D01*
X58242159Y32333995D01*
X58372521Y32339578D01*
X58392036Y32337568D01*
G37*
G36*
X54664109Y32316796D02*
G01*
X54773372Y32311558D01*
X54844983Y32303747D01*
X54891336Y32289964D01*
X54924822Y32266808D01*
X54951892Y32237836D01*
X55004525Y32143462D01*
X55009609Y32044599D01*
X54967472Y31950698D01*
X54940840Y31919962D01*
X54896646Y31869120D01*
X54887857Y31835314D01*
X54899680Y31815532D01*
X54924615Y31777359D01*
X54961898Y31707779D01*
X55003825Y31621241D01*
X55007333Y31613616D01*
X55084715Y31444700D01*
X54989331Y31444700D01*
X54929950Y31448381D01*
X54894540Y31467846D01*
X54867434Y31515730D01*
X54851492Y31555866D01*
X54798230Y31669539D01*
X54739750Y31750332D01*
X54681583Y31791332D01*
X54660109Y31795045D01*
X54634710Y31789838D01*
X54620155Y31767132D01*
X54613521Y31716303D01*
X54611880Y31626725D01*
X54611876Y31619872D01*
X54611876Y31444700D01*
X54524290Y31444700D01*
X54436704Y31444700D01*
X54436704Y31885121D01*
X54436704Y32057803D01*
X54611876Y32057803D01*
X54613860Y31988601D01*
X54626467Y31955830D01*
X54659679Y31945876D01*
X54694458Y31945193D01*
X54760769Y31953793D01*
X54806378Y31974551D01*
X54807069Y31975222D01*
X54832140Y32024009D01*
X54837098Y32057803D01*
X54817454Y32125869D01*
X54758527Y32162927D01*
X54694458Y32170414D01*
X54643709Y32167709D01*
X54619677Y32150519D01*
X54612378Y32105228D01*
X54611876Y32057803D01*
X54436704Y32057803D01*
X54436704Y32325542D01*
X54664109Y32316796D01*
G37*
G36*
X56465883Y38097485D02*
G01*
X56575145Y38092247D01*
X56646757Y38084437D01*
X56693110Y38070653D01*
X56726596Y38047498D01*
X56753666Y38018526D01*
X56806299Y37924152D01*
X56811382Y37825289D01*
X56769246Y37731388D01*
X56742614Y37700651D01*
X56698420Y37649810D01*
X56689630Y37616004D01*
X56701454Y37596222D01*
X56726389Y37558049D01*
X56763671Y37488468D01*
X56805598Y37401931D01*
X56809106Y37394306D01*
X56886488Y37225390D01*
X56791104Y37225390D01*
X56731723Y37229070D01*
X56696313Y37248535D01*
X56669207Y37296420D01*
X56653266Y37336555D01*
X56600003Y37450229D01*
X56541524Y37531021D01*
X56483357Y37572022D01*
X56461883Y37575734D01*
X56436483Y37570527D01*
X56421929Y37547822D01*
X56415294Y37496993D01*
X56413653Y37407415D01*
X56413650Y37400562D01*
X56413650Y37225390D01*
X56326064Y37225390D01*
X56238477Y37225390D01*
X56238477Y37665810D01*
X56238477Y37838493D01*
X56413650Y37838493D01*
X56415633Y37769291D01*
X56428240Y37736519D01*
X56461453Y37726566D01*
X56496231Y37725882D01*
X56562543Y37734483D01*
X56608151Y37755241D01*
X56608842Y37755912D01*
X56633914Y37804699D01*
X56638872Y37838493D01*
X56619227Y37906559D01*
X56560300Y37943617D01*
X56496231Y37951104D01*
X56445483Y37948399D01*
X56421450Y37931208D01*
X56414151Y37885918D01*
X56413650Y37838493D01*
X56238477Y37838493D01*
X56238477Y38106231D01*
X56465883Y38097485D01*
G37*
G36*
X52845670Y38097411D02*
G01*
X52959736Y38091848D01*
X53036127Y38083332D01*
X53087220Y38069008D01*
X53125389Y38046017D01*
X53145966Y38028072D01*
X53198189Y37952232D01*
X53211240Y37869209D01*
X53184822Y37793494D01*
X53151497Y37758789D01*
X53092496Y37714284D01*
X53164009Y37647482D01*
X53221917Y37562218D01*
X53237987Y37462679D01*
X53211725Y37362790D01*
X53175993Y37309121D01*
X53145857Y37277511D01*
X53113228Y37256755D01*
X53066711Y37243960D01*
X52994912Y37236235D01*
X52886438Y37230689D01*
X52863185Y37229741D01*
X52609906Y37219568D01*
X52609906Y37625784D01*
X52785078Y37625784D01*
X52785078Y37500660D01*
X52785078Y37375537D01*
X52892684Y37375537D01*
X52966425Y37382142D01*
X53020517Y37398658D01*
X53030320Y37405567D01*
X53052886Y37451795D01*
X53060349Y37504785D01*
X53040862Y37571908D01*
X52981321Y37611882D01*
X52880114Y37625756D01*
X52874310Y37625784D01*
X52785078Y37625784D01*
X52609906Y37625784D01*
X52609906Y37662826D01*
X52609906Y37863518D01*
X52785078Y37863518D01*
X52788996Y37804800D01*
X52810730Y37780718D01*
X52865256Y37775939D01*
X52870618Y37775931D01*
X52941462Y37780250D01*
X52994564Y37790683D01*
X52995741Y37791121D01*
X53029563Y37826186D01*
X53030376Y37879106D01*
X53005295Y37921074D01*
X52961873Y37940841D01*
X52893658Y37950814D01*
X52880172Y37951104D01*
X52818200Y37948031D01*
X52791467Y37929735D01*
X52785186Y37882596D01*
X52785078Y37863518D01*
X52609906Y37863518D01*
X52609906Y38106083D01*
X52845670Y38097411D01*
G37*
G36*
X54790347Y35714095D02*
G01*
X54861010Y35686955D01*
X54960261Y35645961D01*
X55079630Y35594579D01*
X55165780Y35556456D01*
X55327249Y35483255D01*
X55442962Y35425213D01*
X55512958Y35377300D01*
X55537278Y35334485D01*
X55515962Y35291739D01*
X55449050Y35244032D01*
X55336581Y35186332D01*
X55178597Y35113611D01*
X55169345Y35109418D01*
X55044881Y35053954D01*
X54935182Y35006814D01*
X54848876Y34971571D01*
X54794589Y34951798D01*
X54781463Y34948810D01*
X54748801Y34958953D01*
X54679131Y34986557D01*
X54580878Y35028090D01*
X54462467Y35080020D01*
X54379308Y35117393D01*
X54241133Y35180638D01*
X54142463Y35227857D01*
X54076940Y35263063D01*
X54038207Y35290270D01*
X54019907Y35313492D01*
X54015699Y35336651D01*
X54256246Y35336651D01*
X54277679Y35317239D01*
X54334427Y35284099D01*
X54415446Y35242358D01*
X54509691Y35197144D01*
X54606117Y35153583D01*
X54693676Y35116804D01*
X54761326Y35091932D01*
X54798019Y35084096D01*
X54799561Y35084447D01*
X54831689Y35097610D01*
X54898899Y35126338D01*
X54990468Y35166020D01*
X55068576Y35200149D01*
X55168257Y35245143D01*
X55248154Y35283669D01*
X55298825Y35311016D01*
X55311984Y35321574D01*
X55290272Y35336727D01*
X55231543Y35367395D01*
X55144686Y35409158D01*
X55038593Y35457598D01*
X55035596Y35458934D01*
X54759790Y35581838D01*
X54507914Y35471446D01*
X54406314Y35424823D01*
X54324371Y35383233D01*
X54271442Y35351689D01*
X54256246Y35336651D01*
X54015699Y35336651D01*
X54015683Y35336741D01*
X54016451Y35346460D01*
X54025017Y35372845D01*
X54048509Y35399397D01*
X54093591Y35430217D01*
X54166926Y35469403D01*
X54275180Y35521054D01*
X54372954Y35565759D01*
X54496493Y35620733D01*
X54605507Y35667403D01*
X54691184Y35702136D01*
X54744714Y35721301D01*
X54756742Y35723912D01*
X54790347Y35714095D01*
G37*
G36*
X54798444Y36389337D02*
G01*
X54876654Y36360186D01*
X54989114Y36314470D01*
X55130292Y36254540D01*
X55294659Y36182745D01*
X55476686Y36101433D01*
X55670841Y36012953D01*
X55678761Y36009308D01*
X55872064Y35920589D01*
X56052192Y35838487D01*
X56213823Y35765382D01*
X56351638Y35703657D01*
X56460314Y35655694D01*
X56534533Y35623875D01*
X56568974Y35610583D01*
X56569642Y35610430D01*
X56609144Y35596649D01*
X56682492Y35566007D01*
X56778433Y35523347D01*
X56864094Y35483724D01*
X56999889Y35416302D01*
X57095529Y35356589D01*
X57157903Y35295221D01*
X57193903Y35222835D01*
X57210420Y35130065D01*
X57214344Y35007756D01*
X57211124Y34894106D01*
X57199561Y34814096D01*
X57176610Y34751601D01*
X57160554Y34722926D01*
X57137577Y34680478D01*
X57122563Y34635190D01*
X57114148Y34576011D01*
X57110967Y34491887D01*
X57111656Y34371764D01*
X57112320Y34332186D01*
X57114095Y34203620D01*
X57112909Y34114683D01*
X57107202Y34054977D01*
X57095416Y34014101D01*
X57075994Y33981655D01*
X57056156Y33957385D01*
X57000046Y33907090D01*
X56933921Y33887520D01*
X56891774Y33885739D01*
X56817894Y33878317D01*
X56789288Y33856612D01*
X56789019Y33853522D01*
X56767336Y33814633D01*
X56713589Y33774745D01*
X56644731Y33742968D01*
X56577715Y33728414D01*
X56557541Y33729113D01*
X56507855Y33730795D01*
X56488724Y33722326D01*
X56473381Y33694467D01*
X56437700Y33651586D01*
X56375587Y33609839D01*
X56286236Y33596827D01*
X56283118Y33596818D01*
X56206459Y33589104D01*
X56151213Y33557714D01*
X56111951Y33515832D01*
X56057961Y33461843D01*
X56002345Y33439940D01*
X55941212Y33437551D01*
X55866526Y33432299D01*
X55838382Y33411190D01*
X55838083Y33407742D01*
X55816585Y33363524D01*
X55763339Y33318628D01*
X55695220Y33284241D01*
X55632587Y33271498D01*
X55548636Y33295749D01*
X55485814Y33344647D01*
X55444785Y33391372D01*
X55422643Y33438783D01*
X55413656Y33504873D01*
X55412108Y33576125D01*
X55404891Y33690784D01*
X55382888Y33766703D01*
X55368315Y33789934D01*
X55325078Y33845414D01*
X55079268Y33733628D01*
X54968999Y33686961D01*
X54866751Y33649849D01*
X54786203Y33626940D01*
X54750183Y33621843D01*
X54691022Y33632234D01*
X54602071Y33660081D01*
X54498273Y33700392D01*
X54445729Y33723545D01*
X54224550Y33825247D01*
X54180479Y33770822D01*
X54150454Y33709013D01*
X54137396Y33613560D01*
X54136408Y33567096D01*
X54133315Y33477908D01*
X54119848Y33419507D01*
X54089730Y33372801D01*
X54063260Y33344647D01*
X53976405Y33283597D01*
X53888298Y33272554D01*
X53799451Y33311506D01*
X53752858Y33351788D01*
X53671083Y33414415D01*
X53587950Y33435491D01*
X53507653Y33455285D01*
X53435520Y33513851D01*
X53431899Y33517861D01*
X53365100Y33575759D01*
X53294436Y33596302D01*
X53278130Y33596818D01*
X53211086Y33610527D01*
X53145317Y33644331D01*
X53098140Y33687249D01*
X53085374Y33719060D01*
X53062995Y33730536D01*
X53006259Y33736595D01*
X52970609Y33736853D01*
X52891527Y33740801D01*
X52838669Y33762876D01*
X52793673Y33806718D01*
X52718119Y33866712D01*
X52643728Y33884311D01*
X52543788Y33914557D01*
X52489089Y33956457D01*
X52458096Y33991066D01*
X52437911Y34028213D01*
X52425669Y34079843D01*
X52418509Y34157902D01*
X52413678Y34271138D01*
X52413313Y34302039D01*
X52559857Y34302039D01*
X52562147Y34185856D01*
X52571283Y34110958D01*
X52590661Y34068696D01*
X52623679Y34050424D01*
X52659955Y34047261D01*
X52718723Y34060645D01*
X52744864Y34086845D01*
X52752832Y34129825D01*
X52885177Y34129825D01*
X52890008Y34006203D01*
X52905825Y33925966D01*
X52934617Y33883264D01*
X52972763Y33872089D01*
X53013154Y33888138D01*
X53030320Y33902119D01*
X53032379Y33907127D01*
X53199231Y33907127D01*
X53202068Y33822016D01*
X53211571Y33770330D01*
X53212959Y33767390D01*
X53256506Y33728570D01*
X53311325Y33728086D01*
X53357010Y33765528D01*
X53359764Y33770345D01*
X53372252Y33814083D01*
X53510793Y33814083D01*
X53512800Y33716072D01*
X53518142Y33637989D01*
X53525802Y33592784D01*
X53528625Y33587328D01*
X53564662Y33576367D01*
X53609955Y33576901D01*
X53643477Y33584277D01*
X53663859Y33604241D01*
X53675873Y33648127D01*
X53676200Y33651197D01*
X53836113Y33651197D01*
X53837371Y33541966D01*
X53842342Y33473028D01*
X53852819Y33434662D01*
X53870596Y33417150D01*
X53879906Y33413871D01*
X53919151Y33402797D01*
X53928168Y33399524D01*
X53946786Y33412346D01*
X53971961Y33435946D01*
X53999832Y33493254D01*
X54010998Y33594343D01*
X54011285Y33618731D01*
X54017840Y33720929D01*
X54043045Y33803142D01*
X54086359Y33880571D01*
X54140221Y33977843D01*
X54159277Y34048627D01*
X54145041Y34100871D01*
X54131404Y34117330D01*
X54076175Y34148273D01*
X54017870Y34131964D01*
X53954725Y34067531D01*
X53917443Y34011510D01*
X53878139Y33942783D01*
X53854043Y33884848D01*
X53841471Y33821379D01*
X53836737Y33736051D01*
X53836113Y33651197D01*
X53676200Y33651197D01*
X53684291Y33727269D01*
X53686820Y33759478D01*
X53700500Y33872359D01*
X53726254Y33959735D01*
X53771773Y34045958D01*
X53782866Y34063558D01*
X53828566Y34139918D01*
X53847908Y34190230D01*
X53844998Y34228156D01*
X53837436Y34244986D01*
X53792419Y34293852D01*
X53736559Y34294787D01*
X53671408Y34248350D01*
X53601922Y34160257D01*
X53556764Y34089054D01*
X53529665Y34031653D01*
X53516037Y33970624D01*
X53511290Y33888535D01*
X53510793Y33814083D01*
X53372252Y33814083D01*
X53374707Y33822682D01*
X53384120Y33902559D01*
X53385777Y33951774D01*
X53393846Y34052453D01*
X53423991Y34136259D01*
X53460743Y34197409D01*
X53517936Y34302446D01*
X53532538Y34381626D01*
X53504588Y34435316D01*
X53487413Y34446775D01*
X53439699Y34467037D01*
X53402192Y34463305D01*
X53364094Y34429380D01*
X53314606Y34359066D01*
X53302907Y34340897D01*
X53256776Y34261304D01*
X53228506Y34187510D01*
X53211991Y34099229D01*
X53203621Y34010976D01*
X53199231Y33907127D01*
X53032379Y33907127D01*
X53046877Y33942387D01*
X53057783Y34014374D01*
X53060349Y34074259D01*
X53065542Y34165745D01*
X53085792Y34242697D01*
X53128106Y34328129D01*
X53147877Y34361723D01*
X53193838Y34441472D01*
X53215545Y34492525D01*
X53216507Y34527825D01*
X53201314Y34558696D01*
X53154193Y34609341D01*
X53105433Y34616262D01*
X53051213Y34578057D01*
X52987714Y34493324D01*
X52977048Y34476343D01*
X52929998Y34396109D01*
X52902497Y34332082D01*
X52889352Y34264674D01*
X52885369Y34174294D01*
X52885177Y34129825D01*
X52752832Y34129825D01*
X52753508Y34133472D01*
X52759010Y34209467D01*
X52760054Y34261148D01*
X52768014Y34362810D01*
X52797734Y34448981D01*
X52835128Y34514247D01*
X52887713Y34607307D01*
X52907648Y34673466D01*
X52896777Y34722091D01*
X52880172Y34742946D01*
X52825524Y34775123D01*
X52768067Y34762345D01*
X52705006Y34703179D01*
X52651000Y34625312D01*
X52601132Y34539011D01*
X52573656Y34469620D01*
X52562071Y34394076D01*
X52559857Y34302039D01*
X52413313Y34302039D01*
X52412372Y34381679D01*
X52415832Y34476515D01*
X52423348Y34542408D01*
X52429373Y34562310D01*
X52436616Y34598897D01*
X52412927Y34642687D01*
X52372799Y34686430D01*
X52301829Y34790715D01*
X52264077Y34920798D01*
X52261275Y35052818D01*
X52407679Y35052818D01*
X52412497Y34950479D01*
X52436317Y34858650D01*
X52461575Y34813887D01*
X52511831Y34761639D01*
X52553453Y34754464D01*
X52599297Y34792238D01*
X52615847Y34812382D01*
X52698413Y34881944D01*
X52795142Y34908960D01*
X52894022Y34893544D01*
X52983039Y34835809D01*
X53007254Y34808701D01*
X53075935Y34757246D01*
X53131898Y34747951D01*
X53219216Y34724645D01*
X53294260Y34672877D01*
X53358301Y34626761D01*
X53417376Y34600284D01*
X53434009Y34597803D01*
X53503856Y34584140D01*
X53576291Y34550481D01*
X53630580Y34507823D01*
X53644610Y34486118D01*
X53678171Y34457051D01*
X53723959Y34447656D01*
X53808082Y34431703D01*
X53891173Y34391432D01*
X53951400Y34338222D01*
X53960167Y34324531D01*
X54001459Y34289034D01*
X54033059Y34289407D01*
X54097741Y34285024D01*
X54174546Y34251092D01*
X54244850Y34197548D01*
X54276655Y34159399D01*
X54306011Y34075471D01*
X54305760Y34018950D01*
X54302379Y33980723D01*
X54311050Y33951849D01*
X54339998Y33924766D01*
X54397447Y33891909D01*
X54491620Y33845715D01*
X54496854Y33843201D01*
X54605972Y33793674D01*
X54691822Y33765941D01*
X54768713Y33760445D01*
X54850954Y33777629D01*
X54952855Y33817938D01*
X55043551Y33860154D01*
X55138436Y33907050D01*
X55196287Y33941654D01*
X55226034Y33971484D01*
X55236606Y34004055D01*
X55237492Y34023386D01*
X55244798Y34063589D01*
X55390389Y34063589D01*
X55406833Y33985426D01*
X55460183Y33888283D01*
X55461108Y33886935D01*
X55510452Y33803407D01*
X55533022Y33724575D01*
X55537788Y33638149D01*
X55540453Y33553736D01*
X55547284Y33486131D01*
X55552977Y33461229D01*
X55585730Y33433009D01*
X55640391Y33422127D01*
X55693590Y33429741D01*
X55720741Y33452926D01*
X55724878Y33491439D01*
X55725119Y33565470D01*
X55721504Y33660647D01*
X55720107Y33684404D01*
X55710507Y33794479D01*
X55694408Y33874111D01*
X55666001Y33942900D01*
X55621377Y34017520D01*
X55569939Y34091651D01*
X55530983Y34130660D01*
X55493420Y34143575D01*
X55467693Y34142643D01*
X55410719Y34117690D01*
X55390389Y34063589D01*
X55244798Y34063589D01*
X55258437Y34138643D01*
X55301038Y34203376D01*
X55692288Y34203376D01*
X55711597Y34145109D01*
X55761872Y34060836D01*
X55775522Y34040352D01*
X55826530Y33957491D01*
X55852907Y33888041D01*
X55862341Y33807195D01*
X55863108Y33757727D01*
X55865610Y33660753D01*
X55876562Y33604290D01*
X55901137Y33578907D01*
X55944507Y33575173D01*
X55962270Y33576901D01*
X55992819Y33582744D01*
X56011996Y33598326D01*
X56022978Y33633769D01*
X56028942Y33699197D01*
X56032983Y33802212D01*
X56035566Y33908556D01*
X56032245Y33981101D01*
X56019199Y34036055D01*
X55992603Y34089626D01*
X55949284Y34157045D01*
X55887421Y34244518D01*
X55840536Y34292881D01*
X55800122Y34307221D01*
X55757675Y34292625D01*
X55740858Y34281689D01*
X55702518Y34245586D01*
X55692288Y34203376D01*
X55301038Y34203376D01*
X55316805Y34227335D01*
X55405896Y34282399D01*
X55497589Y34297508D01*
X55558860Y34315010D01*
X55592674Y34343586D01*
X55639955Y34385651D01*
X56015747Y34385651D01*
X56028753Y34307732D01*
X56082891Y34205680D01*
X56088330Y34197409D01*
X56138228Y34108153D01*
X56159940Y34022044D01*
X56163296Y33951774D01*
X56168120Y33866247D01*
X56180307Y33795470D01*
X56189309Y33770345D01*
X56233801Y33729386D01*
X56289039Y33727788D01*
X56335003Y33765589D01*
X56337540Y33770055D01*
X56349562Y33823804D01*
X56352193Y33915714D01*
X56346856Y34014045D01*
X56334310Y34125447D01*
X56314685Y34207232D01*
X56281520Y34279831D01*
X56243370Y34341301D01*
X56177226Y34427221D01*
X56121175Y34467299D01*
X56071024Y34463658D01*
X56043285Y34442651D01*
X56015747Y34385651D01*
X55639955Y34385651D01*
X55668375Y34410936D01*
X55767111Y34445389D01*
X55799254Y34447656D01*
X55868290Y34469951D01*
X55929404Y34521490D01*
X56322141Y34521490D01*
X56328063Y34480821D01*
X56356337Y34424886D01*
X56397314Y34360878D01*
X56449579Y34275443D01*
X56477256Y34205818D01*
X56487683Y34129269D01*
X56488724Y34077676D01*
X56497850Y33964369D01*
X56525629Y33896337D01*
X56572658Y33872175D01*
X56576310Y33872089D01*
X56616701Y33888138D01*
X56633867Y33902119D01*
X56650150Y33944250D01*
X56660569Y34026707D01*
X56663896Y34129825D01*
X56662022Y34234152D01*
X56652963Y34308016D01*
X56631559Y34370960D01*
X56592652Y34442529D01*
X56572753Y34475164D01*
X56502088Y34571737D01*
X56439213Y34620773D01*
X56385209Y34621885D01*
X56341158Y34574684D01*
X56334215Y34560690D01*
X56322141Y34521490D01*
X55929404Y34521490D01*
X55932278Y34523914D01*
X56004476Y34583249D01*
X56090255Y34605690D01*
X56096857Y34606157D01*
X56175842Y34622793D01*
X56216968Y34655023D01*
X56253951Y34693077D01*
X56641343Y34693077D01*
X56658199Y34613840D01*
X56714677Y34508580D01*
X56724921Y34493078D01*
X56776096Y34410541D01*
X56802940Y34342230D01*
X56812969Y34263762D01*
X56814044Y34203999D01*
X56814974Y34118624D01*
X56821320Y34071751D01*
X56838414Y34051836D01*
X56871589Y34047333D01*
X56886440Y34047261D01*
X56947392Y34060398D01*
X56974027Y34086845D01*
X56981642Y34130752D01*
X56987092Y34208091D01*
X56989216Y34302254D01*
X56989216Y34303809D01*
X56986655Y34403600D01*
X56974675Y34475679D01*
X56946829Y34542295D01*
X56896672Y34625697D01*
X56895374Y34627726D01*
X56842968Y34705696D01*
X56804428Y34749011D01*
X56768979Y34766578D01*
X56726458Y34767362D01*
X56664098Y34744761D01*
X56641343Y34693077D01*
X56253951Y34693077D01*
X56267531Y34707050D01*
X56342956Y34747247D01*
X56420251Y34765114D01*
X56452180Y34762450D01*
X56501716Y34762244D01*
X56526332Y34798225D01*
X56565353Y34851043D01*
X56636010Y34895177D01*
X56719908Y34920515D01*
X56753541Y34923124D01*
X56827864Y34899095D01*
X56902129Y34836727D01*
X56952518Y34785937D01*
X56983096Y34767878D01*
X57007355Y34777917D01*
X57023951Y34794904D01*
X57049571Y34850058D01*
X57063802Y34934997D01*
X57066779Y35032890D01*
X57058635Y35126905D01*
X57039505Y35200209D01*
X57020497Y35229453D01*
X56987426Y35249258D01*
X56914660Y35286772D01*
X56807628Y35339493D01*
X56671760Y35404918D01*
X56512486Y35480546D01*
X56335237Y35563874D01*
X56145441Y35652400D01*
X55948529Y35743622D01*
X55749931Y35835037D01*
X55555076Y35924143D01*
X55369395Y36008438D01*
X55198317Y36085420D01*
X55047273Y36152586D01*
X54921691Y36207434D01*
X54827003Y36247462D01*
X54768637Y36270168D01*
X54752848Y36274454D01*
X54718209Y36264085D01*
X54643841Y36234650D01*
X54535179Y36188660D01*
X54397654Y36128622D01*
X54236700Y36057047D01*
X54057748Y35976442D01*
X53866232Y35889317D01*
X53667585Y35798182D01*
X53467239Y35705544D01*
X53270627Y35613914D01*
X53083182Y35525800D01*
X52910336Y35443711D01*
X52757522Y35370157D01*
X52630173Y35307646D01*
X52533721Y35258688D01*
X52473600Y35225791D01*
X52456086Y35213712D01*
X52422123Y35146839D01*
X52407679Y35052818D01*
X52261275Y35052818D01*
X52261043Y35063763D01*
X52294230Y35206692D01*
X52308359Y35240897D01*
X52334089Y35290393D01*
X52366031Y35329684D01*
X52414121Y35366369D01*
X52488296Y35408048D01*
X52596888Y35461549D01*
X52700708Y35510223D01*
X52791186Y35550529D01*
X52856746Y35577429D01*
X52882150Y35585693D01*
X52914207Y35597727D01*
X52986509Y35628357D01*
X53093834Y35675260D01*
X53230958Y35736117D01*
X53392659Y35808607D01*
X53573712Y35890410D01*
X53768894Y35979203D01*
X53807672Y35996913D01*
X54006115Y36086780D01*
X54192614Y36169666D01*
X54361753Y36243280D01*
X54508120Y36305336D01*
X54626300Y36353542D01*
X54710881Y36385612D01*
X54756447Y36399254D01*
X54760012Y36399577D01*
X54798444Y36389337D01*
G37*
D13*
%TO.C,J103*%
X46990000Y508000D02*
X46990000Y1270000D01*
X47395000Y7441000D02*
X47395000Y941000D01*
X47395000Y941000D02*
X55475000Y941000D01*
X47752000Y508000D02*
X46990000Y508000D01*
X55475000Y7441000D02*
X47395000Y7441000D01*
X55475000Y941000D02*
X55475000Y7441000D01*
D12*
%TO.C,U401*%
X16084400Y14929000D02*
X16084400Y15654000D01*
X16809400Y20149000D02*
X16084400Y20149000D01*
X16809400Y14929000D02*
X16084400Y14929000D01*
X20579400Y20149000D02*
X21304400Y20149000D01*
X20579400Y14929000D02*
X21304400Y14929000D01*
X21304400Y20149000D02*
X21304400Y19424000D01*
X21304400Y14929000D02*
X21304400Y15654000D01*
%TO.C,R202*%
X3542420Y24132000D02*
X3823580Y24132000D01*
X3542420Y23112000D02*
X3823580Y23112000D01*
%TO.C,C104*%
X23878000Y27191580D02*
X23878000Y26910420D01*
X22858000Y27191580D02*
X22858000Y26910420D01*
%TO.C,U104*%
X49403000Y20229000D02*
X47603000Y20229000D01*
X49403000Y20229000D02*
X50203000Y20229000D01*
X49403000Y17109000D02*
X48603000Y17109000D01*
X49403000Y17109000D02*
X50203000Y17109000D01*
%TO.C,LED103*%
X12075500Y37438000D02*
X12075500Y35968000D01*
X12075500Y35968000D02*
X14360500Y35968000D01*
X14360500Y37438000D02*
X12075500Y37438000D01*
%TO.C,R102*%
X52817500Y25797742D02*
X52817500Y26272258D01*
X53862500Y25797742D02*
X53862500Y26272258D01*
%TO.C,C302*%
X12815180Y30376400D02*
X12534020Y30376400D01*
X12815180Y31396400D02*
X12534020Y31396400D01*
%TO.C,SW103*%
X9781000Y4475000D02*
X9781000Y1875000D01*
X9851000Y5855000D02*
X16311000Y5855000D01*
X9851000Y5825000D02*
X9851000Y5855000D01*
X9851000Y475000D02*
X9851000Y505000D01*
X9851000Y475000D02*
X16311000Y475000D01*
X16311000Y5855000D02*
X16311000Y5825000D01*
X16311000Y475000D02*
X16311000Y505000D01*
X16381000Y4475000D02*
X16381000Y1875000D01*
%TO.C,R401*%
X23632900Y22141538D02*
X23632900Y22616054D01*
X24677900Y22141538D02*
X24677900Y22616054D01*
%TO.C,U103*%
X26111500Y38827000D02*
X26111500Y32412000D01*
X26111500Y38827000D02*
X44351500Y38827000D01*
X26111500Y32412000D02*
X25731500Y32412000D01*
X26111500Y13867000D02*
X26111500Y13087000D01*
X26111500Y13087000D02*
X27111500Y13087000D01*
X44351500Y38827000D02*
X44351500Y32412000D01*
X44351500Y13867000D02*
X44351500Y13087000D01*
X44351500Y13087000D02*
X43351500Y13087000D01*
%TO.C,R104*%
X16938258Y32624500D02*
X16463742Y32624500D01*
X16938258Y33669500D02*
X16463742Y33669500D01*
%TD*%
%LPC*%
D14*
%TO.C,J201*%
X5939000Y20167000D03*
D15*
X5939000Y14387000D03*
D16*
X7089000Y20627000D03*
X7089000Y19827000D03*
X7089000Y18527000D03*
X7089000Y17527000D03*
X7089000Y17027000D03*
X7089000Y16027000D03*
X7089000Y14727000D03*
X7089000Y13927000D03*
X7089000Y14227000D03*
X7089000Y15027000D03*
X7089000Y15527000D03*
X7089000Y16527000D03*
X7089000Y18027000D03*
X7089000Y19027000D03*
X7089000Y19527000D03*
X7089000Y20327000D03*
D17*
X6514000Y21602000D03*
D18*
X2239000Y21602000D03*
D17*
X6514000Y12952000D03*
D18*
X2239000Y12952000D03*
%TD*%
D19*
%TO.C,R101*%
X20257000Y27813000D03*
X21907000Y27813000D03*
%TD*%
D20*
%TO.C,C403*%
X17018000Y13221000D03*
X17018000Y11671000D03*
%TD*%
D21*
%TO.C,D201*%
X12180000Y18272000D03*
D22*
X10480000Y18272000D03*
X10480000Y16272000D03*
X12380000Y16272000D03*
%TD*%
D20*
%TO.C,C301*%
X7747000Y30645400D03*
X7747000Y29095400D03*
%TD*%
D23*
%TO.C,LED102*%
X12798000Y34925000D03*
X14373000Y34925000D03*
%TD*%
D24*
%TO.C,SW101*%
X12578000Y10414000D03*
D25*
X10038000Y10414000D03*
%TD*%
D26*
%TO.C,C102*%
X21844000Y29324000D03*
X21844000Y30874000D03*
%TD*%
D20*
%TO.C,C402*%
X15494000Y13221000D03*
X15494000Y11671000D03*
%TD*%
D27*
%TO.C,J105*%
X3429000Y26162000D03*
X2414000Y31242000D03*
X4444000Y31242000D03*
D28*
X4064000Y27432000D03*
X2794000Y27432000D03*
X4064000Y28702000D03*
X2794000Y28702000D03*
X4064000Y29972000D03*
X2794000Y29972000D03*
%TD*%
D23*
%TO.C,LED101*%
X12798000Y33147000D03*
X14373000Y33147000D03*
%TD*%
D29*
%TO.C,R107*%
X17535000Y36703000D03*
X15885000Y36703000D03*
%TD*%
D30*
%TO.C,J104*%
X38354000Y4191000D03*
D31*
X40894000Y4191000D03*
X43434000Y4191000D03*
%TD*%
D32*
%TO.C,U106*%
X28321000Y3937000D03*
D33*
X30861000Y3937000D03*
X33401000Y3937000D03*
%TD*%
D30*
%TO.C,J102*%
X60706000Y12573000D03*
D31*
X60706000Y15113000D03*
X60706000Y17653000D03*
%TD*%
D34*
%TO.C,H104*%
X3683000Y3683000D03*
%TD*%
D29*
%TO.C,R105*%
X17526000Y34925000D03*
X15876000Y34925000D03*
%TD*%
D30*
%TO.C,J101*%
X60706000Y23114000D03*
D31*
X60706000Y25654000D03*
X60706000Y28194000D03*
%TD*%
D35*
%TO.C,R108*%
X53340000Y15811000D03*
X53340000Y14161000D03*
%TD*%
D36*
%TO.C,R103*%
X53340000Y21527000D03*
X53340000Y23177000D03*
%TD*%
D26*
%TO.C,C101*%
X20320000Y29324000D03*
X20320000Y30874000D03*
%TD*%
D36*
%TO.C,R106*%
X53340000Y17844000D03*
X53340000Y19494000D03*
%TD*%
D26*
%TO.C,C202*%
X9271000Y29095400D03*
X9271000Y30645400D03*
%TD*%
D37*
%TO.C,U101*%
X48265500Y26985000D03*
X48265500Y26035000D03*
X48265500Y25085000D03*
X50540500Y25085000D03*
X50540500Y26985000D03*
%TD*%
%TO.C,U102*%
X48265500Y23302000D03*
X48265500Y22352000D03*
X48265500Y21402000D03*
X50540500Y21402000D03*
X50540500Y23302000D03*
%TD*%
D20*
%TO.C,C401*%
X13944600Y15481600D03*
X13944600Y13931600D03*
%TD*%
D34*
%TO.C,H103*%
X61083000Y3683000D03*
%TD*%
D38*
%TO.C,Q401*%
X21270200Y21464796D03*
X21920200Y21464796D03*
X22570200Y21464796D03*
X22570200Y23364796D03*
X21920200Y23364796D03*
X21270200Y23364796D03*
%TD*%
D34*
%TO.C,H101*%
X3683000Y35814000D03*
%TD*%
D39*
%TO.C,C201*%
X8951000Y23876000D03*
X7051000Y23876000D03*
%TD*%
D40*
%TO.C,SW105*%
X19479000Y5050000D03*
X25479000Y5050000D03*
X19479000Y1300000D03*
X25479000Y1300000D03*
%TD*%
D41*
%TO.C,F201*%
X12496900Y25704800D03*
X10921900Y25704800D03*
%TD*%
D37*
%TO.C,U105*%
X48265500Y15936000D03*
X48265500Y14986000D03*
X48265500Y14036000D03*
X50540500Y14036000D03*
X50540500Y15936000D03*
%TD*%
D42*
%TO.C,FB201*%
X8864600Y25757500D03*
X8864600Y27582500D03*
%TD*%
D43*
%TO.C,R201*%
X5982000Y10922000D03*
X4432000Y10922000D03*
%TD*%
D35*
%TO.C,R402*%
X19685000Y23188996D03*
X19685000Y21538996D03*
%TD*%
D37*
%TO.C,U301*%
X11435500Y29205000D03*
X11435500Y28255000D03*
X11435500Y27305000D03*
X13710500Y27305000D03*
X13710500Y29205000D03*
%TD*%
D30*
%TO.C,J103*%
X48895000Y4191000D03*
D31*
X51435000Y4191000D03*
X53975000Y4191000D03*
%TD*%
D44*
%TO.C,U401*%
X16244400Y19039000D03*
X16244400Y18539000D03*
X16244400Y18039000D03*
X16244400Y17539000D03*
X16244400Y17039000D03*
X16244400Y16539000D03*
X16244400Y16039000D03*
D45*
X17194400Y15089000D03*
X17694400Y15089000D03*
X18194400Y15089000D03*
X18694400Y15089000D03*
X19194400Y15089000D03*
X19694400Y15089000D03*
X20194400Y15089000D03*
D44*
X21144400Y16039000D03*
X21144400Y16539000D03*
X21144400Y17039000D03*
X21144400Y17539000D03*
X21144400Y18039000D03*
X21144400Y18539000D03*
X21144400Y19039000D03*
D45*
X20194400Y19989000D03*
X19694400Y19989000D03*
X19194400Y19989000D03*
X18694400Y19989000D03*
X18194400Y19989000D03*
X17694400Y19989000D03*
X17194400Y19989000D03*
D46*
X18694400Y17539000D03*
%TD*%
D47*
%TO.C,R202*%
X2908000Y23622000D03*
X4458000Y23622000D03*
%TD*%
D20*
%TO.C,C104*%
X23368000Y27826000D03*
X23368000Y26276000D03*
%TD*%
D37*
%TO.C,U104*%
X48265500Y19619000D03*
X48265500Y18669000D03*
X48265500Y17719000D03*
X50540500Y17719000D03*
X50540500Y19619000D03*
%TD*%
D23*
%TO.C,LED103*%
X12773000Y36703000D03*
X14348000Y36703000D03*
%TD*%
D36*
%TO.C,R102*%
X53340000Y25210000D03*
X53340000Y26860000D03*
%TD*%
D43*
%TO.C,C302*%
X13449600Y30886400D03*
X11899600Y30886400D03*
%TD*%
D40*
%TO.C,SW103*%
X10081000Y5050000D03*
X16081000Y5050000D03*
X10081000Y1300000D03*
X16081000Y1300000D03*
%TD*%
D34*
%TO.C,H102*%
X61083000Y35814000D03*
%TD*%
D36*
%TO.C,R401*%
X24155400Y21553796D03*
X24155400Y23203796D03*
%TD*%
D48*
%TO.C,U103*%
X26481500Y31217000D03*
X26481500Y29947000D03*
X26481500Y28677000D03*
X26481500Y27407000D03*
X26481500Y26137000D03*
X26481500Y24867000D03*
X26481500Y23597000D03*
X26481500Y22327000D03*
X26481500Y21057000D03*
X26481500Y19787000D03*
X26481500Y18517000D03*
X26481500Y17247000D03*
X26481500Y15977000D03*
X26481500Y14707000D03*
D49*
X29521500Y13457000D03*
X30791500Y13457000D03*
X32061500Y13457000D03*
X33331500Y13457000D03*
X34601500Y13457000D03*
X35871500Y13457000D03*
X37141500Y13457000D03*
X38411500Y13457000D03*
X39681500Y13457000D03*
X40951500Y13457000D03*
D48*
X43981500Y14707000D03*
X43981500Y15977000D03*
X43981500Y17247000D03*
X43981500Y18517000D03*
X43981500Y19787000D03*
X43981500Y21057000D03*
X43981500Y22327000D03*
X43981500Y23597000D03*
X43981500Y24867000D03*
X43981500Y26137000D03*
X43981500Y27407000D03*
X43981500Y28677000D03*
X43981500Y29947000D03*
X43981500Y31217000D03*
D50*
X33026500Y24639500D03*
X33026500Y23114500D03*
X33789000Y25402000D03*
X33789000Y23877000D03*
X33789000Y22352000D03*
X34551500Y24639500D03*
D51*
X34551500Y23877000D03*
D50*
X34551500Y23114500D03*
X35314000Y25402000D03*
X35314000Y23877000D03*
X35314000Y22352000D03*
X36076500Y24639500D03*
X36076500Y23114500D03*
%TD*%
D29*
%TO.C,R104*%
X17526000Y33147000D03*
X15876000Y33147000D03*
%TD*%
%LPD*%
M02*
