%TF.GenerationSoftware,KiCad,Pcbnew,7.0.8*%
%TF.CreationDate,2023-11-17T17:44:40-05:00*%
%TF.ProjectId,wled-esp32-control-board,776c6564-2d65-4737-9033-322d636f6e74,C*%
%TF.SameCoordinates,Original*%
%TF.FileFunction,Copper,L1,Top*%
%TF.FilePolarity,Positive*%
%FSLAX46Y46*%
G04 Gerber Fmt 4.6, Leading zero omitted, Abs format (unit mm)*
G04 Created by KiCad (PCBNEW 7.0.8) date 2023-11-17 17:44:40*
%MOMM*%
%LPD*%
G01*
G04 APERTURE LIST*
G04 Aperture macros list*
%AMRoundRect*
0 Rectangle with rounded corners*
0 $1 Rounding radius*
0 $2 $3 $4 $5 $6 $7 $8 $9 X,Y pos of 4 corners*
0 Add a 4 corners polygon primitive as box body*
4,1,4,$2,$3,$4,$5,$6,$7,$8,$9,$2,$3,0*
0 Add four circle primitives for the rounded corners*
1,1,$1+$1,$2,$3*
1,1,$1+$1,$4,$5*
1,1,$1+$1,$6,$7*
1,1,$1+$1,$8,$9*
0 Add four rect primitives between the rounded corners*
20,1,$1+$1,$2,$3,$4,$5,0*
20,1,$1+$1,$4,$5,$6,$7,0*
20,1,$1+$1,$6,$7,$8,$9,0*
20,1,$1+$1,$8,$9,$2,$3,0*%
G04 Aperture macros list end*
%TA.AperFunction,SMDPad,CuDef*%
%ADD10R,1.400000X0.300000*%
%TD*%
%TA.AperFunction,ComponentPad*%
%ADD11O,2.300000X1.200000*%
%TD*%
%TA.AperFunction,ComponentPad*%
%ADD12O,2.000000X1.200000*%
%TD*%
%TA.AperFunction,SMDPad,CuDef*%
%ADD13RoundRect,0.200000X-0.200000X-0.275000X0.200000X-0.275000X0.200000X0.275000X-0.200000X0.275000X0*%
%TD*%
%TA.AperFunction,SMDPad,CuDef*%
%ADD14RoundRect,0.225000X-0.250000X0.225000X-0.250000X-0.225000X0.250000X-0.225000X0.250000X0.225000X0*%
%TD*%
%TA.AperFunction,SMDPad,CuDef*%
%ADD15R,1.000000X0.700000*%
%TD*%
%TA.AperFunction,SMDPad,CuDef*%
%ADD16R,0.600000X0.700000*%
%TD*%
%TA.AperFunction,SMDPad,CuDef*%
%ADD17RoundRect,0.218750X-0.218750X-0.256250X0.218750X-0.256250X0.218750X0.256250X-0.218750X0.256250X0*%
%TD*%
%TA.AperFunction,ComponentPad*%
%ADD18R,1.700000X1.700000*%
%TD*%
%TA.AperFunction,ComponentPad*%
%ADD19O,1.700000X1.700000*%
%TD*%
%TA.AperFunction,SMDPad,CuDef*%
%ADD20RoundRect,0.225000X0.250000X-0.225000X0.250000X0.225000X-0.250000X0.225000X-0.250000X-0.225000X0*%
%TD*%
%TA.AperFunction,SMDPad,CuDef*%
%ADD21C,0.787000*%
%TD*%
%TA.AperFunction,SMDPad,CuDef*%
%ADD22RoundRect,0.200000X0.200000X0.275000X-0.200000X0.275000X-0.200000X-0.275000X0.200000X-0.275000X0*%
%TD*%
%TA.AperFunction,ComponentPad*%
%ADD23R,1.650000X1.650000*%
%TD*%
%TA.AperFunction,ComponentPad*%
%ADD24C,1.650000*%
%TD*%
%TA.AperFunction,ComponentPad*%
%ADD25RoundRect,0.250200X-0.649800X-0.649800X0.649800X-0.649800X0.649800X0.649800X-0.649800X0.649800X0*%
%TD*%
%TA.AperFunction,ComponentPad*%
%ADD26C,1.800000*%
%TD*%
%TA.AperFunction,SMDPad,CuDef*%
%ADD27RoundRect,0.200000X-0.275000X0.200000X-0.275000X-0.200000X0.275000X-0.200000X0.275000X0.200000X0*%
%TD*%
%TA.AperFunction,SMDPad,CuDef*%
%ADD28RoundRect,0.200000X0.275000X-0.200000X0.275000X0.200000X-0.275000X0.200000X-0.275000X-0.200000X0*%
%TD*%
%TA.AperFunction,SMDPad,CuDef*%
%ADD29RoundRect,0.150000X-0.512500X-0.150000X0.512500X-0.150000X0.512500X0.150000X-0.512500X0.150000X0*%
%TD*%
%TA.AperFunction,SMDPad,CuDef*%
%ADD30R,0.400000X0.650000*%
%TD*%
%TA.AperFunction,SMDPad,CuDef*%
%ADD31RoundRect,0.250000X0.250000X0.475000X-0.250000X0.475000X-0.250000X-0.475000X0.250000X-0.475000X0*%
%TD*%
%TA.AperFunction,SMDPad,CuDef*%
%ADD32R,1.000000X0.750000*%
%TD*%
%TA.AperFunction,SMDPad,CuDef*%
%ADD33RoundRect,0.218750X0.218750X0.256250X-0.218750X0.256250X-0.218750X-0.256250X0.218750X-0.256250X0*%
%TD*%
%TA.AperFunction,SMDPad,CuDef*%
%ADD34RoundRect,0.250000X0.450000X-0.262500X0.450000X0.262500X-0.450000X0.262500X-0.450000X-0.262500X0*%
%TD*%
%TA.AperFunction,SMDPad,CuDef*%
%ADD35RoundRect,0.225000X0.225000X0.250000X-0.225000X0.250000X-0.225000X-0.250000X0.225000X-0.250000X0*%
%TD*%
%TA.AperFunction,SMDPad,CuDef*%
%ADD36RoundRect,0.062500X-0.337500X-0.062500X0.337500X-0.062500X0.337500X0.062500X-0.337500X0.062500X0*%
%TD*%
%TA.AperFunction,SMDPad,CuDef*%
%ADD37RoundRect,0.062500X-0.062500X-0.337500X0.062500X-0.337500X0.062500X0.337500X-0.062500X0.337500X0*%
%TD*%
%TA.AperFunction,SMDPad,CuDef*%
%ADD38R,3.350000X3.350000*%
%TD*%
%TA.AperFunction,SMDPad,CuDef*%
%ADD39RoundRect,0.225000X-0.225000X-0.250000X0.225000X-0.250000X0.225000X0.250000X-0.225000X0.250000X0*%
%TD*%
%TA.AperFunction,SMDPad,CuDef*%
%ADD40R,1.500000X0.900000*%
%TD*%
%TA.AperFunction,SMDPad,CuDef*%
%ADD41R,0.900000X1.500000*%
%TD*%
%TA.AperFunction,SMDPad,CuDef*%
%ADD42R,1.050000X1.050000*%
%TD*%
%TA.AperFunction,ComponentPad*%
%ADD43C,0.475000*%
%TD*%
%TA.AperFunction,SMDPad,CuDef*%
%ADD44R,4.200000X4.200000*%
%TD*%
%TA.AperFunction,ViaPad*%
%ADD45C,0.800000*%
%TD*%
%TA.AperFunction,Conductor*%
%ADD46C,0.500000*%
%TD*%
%TA.AperFunction,Conductor*%
%ADD47C,0.250000*%
%TD*%
%TA.AperFunction,Conductor*%
%ADD48C,0.267200*%
%TD*%
G04 APERTURE END LIST*
D10*
%TO.P,J201,A1,GND*%
%TO.N,GND*%
X105006000Y-87323000D03*
%TO.P,J201,A4,VBUS*%
%TO.N,VCC*%
X105006000Y-88123000D03*
%TO.P,J201,A5,CC1*%
%TO.N,Net-(J201-CC1)*%
X105006000Y-89423000D03*
%TO.P,J201,A6,D+*%
%TO.N,/USB-TTL-AutoProgram/D_P*%
X105006000Y-90423000D03*
%TO.P,J201,A7,D-*%
%TO.N,/USB-TTL-AutoProgram/D_N*%
X105006000Y-90923000D03*
%TO.P,J201,A8,SBU1*%
%TO.N,unconnected-(J201-SBU1-PadA8)*%
X105006000Y-91923000D03*
%TO.P,J201,A9,VBUS*%
%TO.N,VCC*%
X105006000Y-93223000D03*
%TO.P,J201,A12,GND*%
%TO.N,GND*%
X105006000Y-94023000D03*
%TO.P,J201,B1,GND*%
X105006000Y-93723000D03*
%TO.P,J201,B4,VBUS*%
%TO.N,VCC*%
X105006000Y-92923000D03*
%TO.P,J201,B5,CC2*%
%TO.N,Net-(J201-CC2)*%
X105006000Y-92423000D03*
%TO.P,J201,B6,D+*%
%TO.N,/USB-TTL-AutoProgram/D_P*%
X105006000Y-91423000D03*
%TO.P,J201,B7,D-*%
%TO.N,/USB-TTL-AutoProgram/D_N*%
X105006000Y-89923000D03*
%TO.P,J201,B8,SBU2*%
%TO.N,unconnected-(J201-SBU2-PadB8)*%
X105006000Y-88923000D03*
%TO.P,J201,B9,VBUS*%
%TO.N,VCC*%
X105006000Y-88423000D03*
%TO.P,J201,B12,GND*%
%TO.N,GND*%
X105006000Y-87623000D03*
D11*
%TO.P,J201,S1,SHIELD*%
X104431000Y-86348000D03*
D12*
X100156000Y-86348000D03*
D11*
X104431000Y-94998000D03*
D12*
X100156000Y-94998000D03*
%TD*%
D13*
%TO.P,R101,1*%
%TO.N,+3.3V*%
X118174000Y-80137000D03*
%TO.P,R101,2*%
%TO.N,/EN*%
X119824000Y-80137000D03*
%TD*%
D14*
%TO.P,C403,1*%
%TO.N,+5V*%
X114935000Y-94729000D03*
%TO.P,C403,2*%
%TO.N,GND*%
X114935000Y-96279000D03*
%TD*%
D15*
%TO.P,D201,1,A*%
%TO.N,GND*%
X110097000Y-89678000D03*
D16*
%TO.P,D201,2,K*%
%TO.N,/USB-TTL-AutoProgram/D_P*%
X108397000Y-89678000D03*
%TO.P,D201,3,K*%
%TO.N,/USB-TTL-AutoProgram/D_N*%
X108397000Y-91678000D03*
%TO.P,D201,4,K*%
%TO.N,VCC*%
X110297000Y-91678000D03*
%TD*%
D14*
%TO.P,C301,1*%
%TO.N,GND*%
X105664000Y-77304600D03*
%TO.P,C301,2*%
%TO.N,+5V*%
X105664000Y-78854600D03*
%TD*%
D17*
%TO.P,LED102,1,K*%
%TO.N,/ESP_RX*%
X110715000Y-73025000D03*
%TO.P,LED102,2,A*%
%TO.N,Net-(LED102-A)*%
X112290000Y-73025000D03*
%TD*%
D18*
%TO.P,SW101,1,A*%
%TO.N,/LED_PWR*%
X110495000Y-97536000D03*
D19*
%TO.P,SW101,2,B*%
%TO.N,VCC*%
X107955000Y-97536000D03*
%TD*%
D20*
%TO.P,C102,1*%
%TO.N,+3.3V*%
X119761000Y-78626000D03*
%TO.P,C102,2*%
%TO.N,GND*%
X119761000Y-77076000D03*
%TD*%
D14*
%TO.P,C402,1*%
%TO.N,+5V*%
X113411000Y-94729000D03*
%TO.P,C402,2*%
%TO.N,GND*%
X113411000Y-96279000D03*
%TD*%
D21*
%TO.P,J105,1,Pin_1*%
%TO.N,/EN*%
X101981000Y-80518000D03*
%TO.P,J105,2,Pin_2*%
%TO.N,+5V*%
X100711000Y-80518000D03*
%TO.P,J105,3,Pin_3*%
%TO.N,/ESP_TX*%
X101981000Y-79248000D03*
%TO.P,J105,4,Pin_4*%
%TO.N,GND*%
X100711000Y-79248000D03*
%TO.P,J105,5,Pin_5*%
%TO.N,/ESP_RX*%
X101981000Y-77978000D03*
%TO.P,J105,6,Pin_6*%
%TO.N,/IO0*%
X100711000Y-77978000D03*
%TD*%
D17*
%TO.P,LED101,1,K*%
%TO.N,/ESP_TX*%
X110715000Y-74803000D03*
%TO.P,LED101,2,A*%
%TO.N,Net-(LED101-A)*%
X112290000Y-74803000D03*
%TD*%
D22*
%TO.P,R107,1*%
%TO.N,+3.3V*%
X115452000Y-71247000D03*
%TO.P,R107,2*%
%TO.N,Net-(LED103-A)*%
X113802000Y-71247000D03*
%TD*%
D23*
%TO.P,J104,1,Pin_1*%
%TO.N,GND*%
X136271000Y-103759000D03*
D24*
%TO.P,J104,2,Pin_2*%
%TO.N,Net-(J104-Pin_2)*%
X138811000Y-103759000D03*
%TO.P,J104,3,Pin_3*%
%TO.N,/LED_PWR*%
X141351000Y-103759000D03*
%TD*%
D25*
%TO.P,U106,1,OUT*%
%TO.N,/IR_RECV*%
X126238000Y-104013000D03*
D26*
%TO.P,U106,2,GND*%
%TO.N,GND*%
X128778000Y-104013000D03*
%TO.P,U106,3,Vs*%
%TO.N,+3.3V*%
X131318000Y-104013000D03*
%TD*%
D23*
%TO.P,J102,1,Pin_1*%
%TO.N,GND*%
X158623000Y-95377000D03*
D24*
%TO.P,J102,2,Pin_2*%
%TO.N,Net-(J102-Pin_2)*%
X158623000Y-92837000D03*
%TO.P,J102,3,Pin_3*%
%TO.N,/LED_PWR*%
X158623000Y-90297000D03*
%TD*%
D22*
%TO.P,R105,1*%
%TO.N,+3.3V*%
X115443000Y-73025000D03*
%TO.P,R105,2*%
%TO.N,Net-(LED102-A)*%
X113793000Y-73025000D03*
%TD*%
D23*
%TO.P,J101,1,Pin_1*%
%TO.N,GND*%
X158623000Y-84836000D03*
D24*
%TO.P,J101,2,Pin_2*%
%TO.N,Net-(J101-Pin_2)*%
X158623000Y-82296000D03*
%TO.P,J101,3,Pin_3*%
%TO.N,/LED_PWR*%
X158623000Y-79756000D03*
%TD*%
D27*
%TO.P,R108,1*%
%TO.N,Net-(R108-Pad1)*%
X151257000Y-92139000D03*
%TO.P,R108,2*%
%TO.N,Net-(J104-Pin_2)*%
X151257000Y-93789000D03*
%TD*%
D28*
%TO.P,R103,1*%
%TO.N,Net-(R103-Pad1)*%
X151257000Y-86423000D03*
%TO.P,R103,2*%
%TO.N,Net-(J102-Pin_2)*%
X151257000Y-84773000D03*
%TD*%
D20*
%TO.P,C101,1*%
%TO.N,+3.3V*%
X118237000Y-78626000D03*
%TO.P,C101,2*%
%TO.N,GND*%
X118237000Y-77076000D03*
%TD*%
D28*
%TO.P,R106,1*%
%TO.N,Net-(R106-Pad1)*%
X151257000Y-90106000D03*
%TO.P,R106,2*%
%TO.N,Net-(J103-Pin_2)*%
X151257000Y-88456000D03*
%TD*%
D20*
%TO.P,C202,1*%
%TO.N,+5V*%
X107188000Y-78854600D03*
%TO.P,C202,2*%
%TO.N,GND*%
X107188000Y-77304600D03*
%TD*%
D29*
%TO.P,U101,1*%
%TO.N,GND*%
X146182500Y-80965000D03*
%TO.P,U101,2*%
%TO.N,/LED0*%
X146182500Y-81915000D03*
%TO.P,U101,3,GND*%
%TO.N,GND*%
X146182500Y-82865000D03*
%TO.P,U101,4*%
%TO.N,Net-(R102-Pad1)*%
X148457500Y-82865000D03*
%TO.P,U101,5,VCC*%
%TO.N,+5V*%
X148457500Y-80965000D03*
%TD*%
%TO.P,U102,1*%
%TO.N,GND*%
X146182500Y-84648000D03*
%TO.P,U102,2*%
%TO.N,/LED1*%
X146182500Y-85598000D03*
%TO.P,U102,3,GND*%
%TO.N,GND*%
X146182500Y-86548000D03*
%TO.P,U102,4*%
%TO.N,Net-(R103-Pad1)*%
X148457500Y-86548000D03*
%TO.P,U102,5,VCC*%
%TO.N,+5V*%
X148457500Y-84648000D03*
%TD*%
D14*
%TO.P,C401,1*%
%TO.N,Net-(U401-VDD)*%
X111861600Y-92468400D03*
%TO.P,C401,2*%
%TO.N,GND*%
X111861600Y-94018400D03*
%TD*%
D30*
%TO.P,Q401,1,E1*%
%TO.N,/USB-TTL-AutoProgram/RTS*%
X119187200Y-86485204D03*
%TO.P,Q401,2,B1*%
%TO.N,Net-(Q401A-B1)*%
X119837200Y-86485204D03*
%TO.P,Q401,3,C2*%
%TO.N,/IO0*%
X120487200Y-86485204D03*
%TO.P,Q401,4,E2*%
%TO.N,/USB-TTL-AutoProgram/DTR*%
X120487200Y-84585204D03*
%TO.P,Q401,5,B2*%
%TO.N,Net-(Q401B-B2)*%
X119837200Y-84585204D03*
%TO.P,Q401,6,C1*%
%TO.N,/EN*%
X119187200Y-84585204D03*
%TD*%
D31*
%TO.P,C201,1*%
%TO.N,Net-(C201-Pad1)*%
X106868000Y-84074000D03*
%TO.P,C201,2*%
%TO.N,GND*%
X104968000Y-84074000D03*
%TD*%
D32*
%TO.P,SW105,1,1*%
%TO.N,/IO0*%
X117396000Y-102900000D03*
X123396000Y-102900000D03*
%TO.P,SW105,2,2*%
%TO.N,GND*%
X117396000Y-106650000D03*
X123396000Y-106650000D03*
%TD*%
D33*
%TO.P,F201,1*%
%TO.N,VCC*%
X110413900Y-82245200D03*
%TO.P,F201,2*%
%TO.N,Net-(C201-Pad1)*%
X108838900Y-82245200D03*
%TD*%
D29*
%TO.P,U105,1*%
%TO.N,GND*%
X146182500Y-92014000D03*
%TO.P,U105,2*%
%TO.N,/LED3*%
X146182500Y-92964000D03*
%TO.P,U105,3,GND*%
%TO.N,GND*%
X146182500Y-93914000D03*
%TO.P,U105,4*%
%TO.N,Net-(R108-Pad1)*%
X148457500Y-93914000D03*
%TO.P,U105,5,VCC*%
%TO.N,+5V*%
X148457500Y-92014000D03*
%TD*%
D34*
%TO.P,FB201,1*%
%TO.N,Net-(C201-Pad1)*%
X106781600Y-82192500D03*
%TO.P,FB201,2*%
%TO.N,+5V*%
X106781600Y-80367500D03*
%TD*%
D35*
%TO.P,R201,1*%
%TO.N,GND*%
X103899000Y-97028000D03*
%TO.P,R201,2*%
%TO.N,Net-(J201-CC2)*%
X102349000Y-97028000D03*
%TD*%
D27*
%TO.P,R402,1*%
%TO.N,Net-(Q401B-B2)*%
X117602000Y-84761004D03*
%TO.P,R402,2*%
%TO.N,/USB-TTL-AutoProgram/RTS*%
X117602000Y-86411004D03*
%TD*%
D29*
%TO.P,U301,1,VIN*%
%TO.N,+5V*%
X109352500Y-78745000D03*
%TO.P,U301,2,GND*%
%TO.N,GND*%
X109352500Y-79695000D03*
%TO.P,U301,3,CE*%
%TO.N,+5V*%
X109352500Y-80645000D03*
%TO.P,U301,4,NC*%
%TO.N,unconnected-(U301-NC-Pad4)*%
X111627500Y-80645000D03*
%TO.P,U301,5,VOUT*%
%TO.N,+3.3V*%
X111627500Y-78745000D03*
%TD*%
D23*
%TO.P,J103,1,Pin_1*%
%TO.N,GND*%
X146812000Y-103759000D03*
D24*
%TO.P,J103,2,Pin_2*%
%TO.N,Net-(J103-Pin_2)*%
X149352000Y-103759000D03*
%TO.P,J103,3,Pin_3*%
%TO.N,/LED_PWR*%
X151892000Y-103759000D03*
%TD*%
D36*
%TO.P,U401,1,~{DCD}*%
%TO.N,unconnected-(U401-~{DCD}-Pad1)*%
X114161400Y-88911000D03*
%TO.P,U401,2,~{RI}/CLK*%
%TO.N,unconnected-(U401-~{RI}{slash}CLK-Pad2)*%
X114161400Y-89411000D03*
%TO.P,U401,3,GND*%
%TO.N,GND*%
X114161400Y-89911000D03*
%TO.P,U401,4,D+*%
%TO.N,/USB-TTL-AutoProgram/D_P*%
X114161400Y-90411000D03*
%TO.P,U401,5,D-*%
%TO.N,/USB-TTL-AutoProgram/D_N*%
X114161400Y-90911000D03*
%TO.P,U401,6,VDD*%
%TO.N,Net-(U401-VDD)*%
X114161400Y-91411000D03*
%TO.P,U401,7,VREGIN*%
%TO.N,+5V*%
X114161400Y-91911000D03*
D37*
%TO.P,U401,8,VBUS*%
X115111400Y-92861000D03*
%TO.P,U401,9,~{RST}*%
%TO.N,unconnected-(U401-~{RST}-Pad9)*%
X115611400Y-92861000D03*
%TO.P,U401,10,NC*%
%TO.N,unconnected-(U401-NC-Pad10)*%
X116111400Y-92861000D03*
%TO.P,U401,11,~{SUSPEND}*%
%TO.N,unconnected-(U401-~{SUSPEND}-Pad11)*%
X116611400Y-92861000D03*
%TO.P,U401,12,SUSPEND*%
%TO.N,unconnected-(U401-SUSPEND-Pad12)*%
X117111400Y-92861000D03*
%TO.P,U401,13,CHREN*%
%TO.N,unconnected-(U401-CHREN-Pad13)*%
X117611400Y-92861000D03*
%TO.P,U401,14,CHR1*%
%TO.N,unconnected-(U401-CHR1-Pad14)*%
X118111400Y-92861000D03*
D36*
%TO.P,U401,15,CHR0*%
%TO.N,unconnected-(U401-CHR0-Pad15)*%
X119061400Y-91911000D03*
%TO.P,U401,16,~{WAKEUP}/GPIO.3*%
%TO.N,unconnected-(U401-~{WAKEUP}{slash}GPIO.3-Pad16)*%
X119061400Y-91411000D03*
%TO.P,U401,17,RS485/GPIO.2*%
%TO.N,unconnected-(U401-RS485{slash}GPIO.2-Pad17)*%
X119061400Y-90911000D03*
%TO.P,U401,18,~{RXT}/GPIO.1*%
%TO.N,unconnected-(U401-~{RXT}{slash}GPIO.1-Pad18)*%
X119061400Y-90411000D03*
%TO.P,U401,19,~{TXT}/GPIO.0*%
%TO.N,unconnected-(U401-~{TXT}{slash}GPIO.0-Pad19)*%
X119061400Y-89911000D03*
%TO.P,U401,20,GPIO.6*%
%TO.N,unconnected-(U401-GPIO.6-Pad20)*%
X119061400Y-89411000D03*
%TO.P,U401,21,GPIO.5*%
%TO.N,unconnected-(U401-GPIO.5-Pad21)*%
X119061400Y-88911000D03*
D37*
%TO.P,U401,22,GPIO.4*%
%TO.N,unconnected-(U401-GPIO.4-Pad22)*%
X118111400Y-87961000D03*
%TO.P,U401,23,~{CTS}*%
%TO.N,unconnected-(U401-~{CTS}-Pad23)*%
X117611400Y-87961000D03*
%TO.P,U401,24,~{RTS}*%
%TO.N,/USB-TTL-AutoProgram/RTS*%
X117111400Y-87961000D03*
%TO.P,U401,25,RXD*%
%TO.N,/ESP_TX*%
X116611400Y-87961000D03*
%TO.P,U401,26,TXD*%
%TO.N,/ESP_RX*%
X116111400Y-87961000D03*
%TO.P,U401,27,~{DSR}*%
%TO.N,unconnected-(U401-~{DSR}-Pad27)*%
X115611400Y-87961000D03*
%TO.P,U401,28,~{DTR}*%
%TO.N,/USB-TTL-AutoProgram/DTR*%
X115111400Y-87961000D03*
D38*
%TO.P,U401,29,GND*%
%TO.N,GND*%
X116611400Y-90411000D03*
%TD*%
D39*
%TO.P,R202,1*%
%TO.N,GND*%
X100825000Y-84328000D03*
%TO.P,R202,2*%
%TO.N,Net-(J201-CC1)*%
X102375000Y-84328000D03*
%TD*%
D14*
%TO.P,C104,1*%
%TO.N,/EN*%
X121285000Y-80124000D03*
%TO.P,C104,2*%
%TO.N,GND*%
X121285000Y-81674000D03*
%TD*%
D29*
%TO.P,U104,1*%
%TO.N,GND*%
X146182500Y-88331000D03*
%TO.P,U104,2*%
%TO.N,/LED2*%
X146182500Y-89281000D03*
%TO.P,U104,3,GND*%
%TO.N,GND*%
X146182500Y-90231000D03*
%TO.P,U104,4*%
%TO.N,Net-(R106-Pad1)*%
X148457500Y-90231000D03*
%TO.P,U104,5,VCC*%
%TO.N,+5V*%
X148457500Y-88331000D03*
%TD*%
D17*
%TO.P,LED103,1,K*%
%TO.N,GND*%
X110690000Y-71247000D03*
%TO.P,LED103,2,A*%
%TO.N,Net-(LED103-A)*%
X112265000Y-71247000D03*
%TD*%
D28*
%TO.P,R102,1*%
%TO.N,Net-(R102-Pad1)*%
X151257000Y-82740000D03*
%TO.P,R102,2*%
%TO.N,Net-(J101-Pin_2)*%
X151257000Y-81090000D03*
%TD*%
D35*
%TO.P,C302,1*%
%TO.N,+3.3V*%
X111366600Y-77063600D03*
%TO.P,C302,2*%
%TO.N,GND*%
X109816600Y-77063600D03*
%TD*%
D32*
%TO.P,SW103,1,1*%
%TO.N,/EN*%
X107998000Y-102900000D03*
X113998000Y-102900000D03*
%TO.P,SW103,2,2*%
%TO.N,GND*%
X107998000Y-106650000D03*
X113998000Y-106650000D03*
%TD*%
D28*
%TO.P,R401,1*%
%TO.N,Net-(Q401A-B1)*%
X122072400Y-86396204D03*
%TO.P,R401,2*%
%TO.N,/USB-TTL-AutoProgram/DTR*%
X122072400Y-84746204D03*
%TD*%
D40*
%TO.P,U103,1,GND*%
%TO.N,GND*%
X124398500Y-76733000D03*
%TO.P,U103,2,VDD*%
%TO.N,+3.3V*%
X124398500Y-78003000D03*
%TO.P,U103,3,EN*%
%TO.N,/EN*%
X124398500Y-79273000D03*
%TO.P,U103,4,SENSOR_VP*%
%TO.N,unconnected-(U103-SENSOR_VP-Pad4)*%
X124398500Y-80543000D03*
%TO.P,U103,5,SENSOR_VN*%
%TO.N,unconnected-(U103-SENSOR_VN-Pad5)*%
X124398500Y-81813000D03*
%TO.P,U103,6,IO34*%
%TO.N,unconnected-(U103-IO34-Pad6)*%
X124398500Y-83083000D03*
%TO.P,U103,7,IO35*%
%TO.N,unconnected-(U103-IO35-Pad7)*%
X124398500Y-84353000D03*
%TO.P,U103,8,IO32*%
%TO.N,unconnected-(U103-IO32-Pad8)*%
X124398500Y-85623000D03*
%TO.P,U103,9,IO33*%
%TO.N,unconnected-(U103-IO33-Pad9)*%
X124398500Y-86893000D03*
%TO.P,U103,10,IO25*%
%TO.N,unconnected-(U103-IO25-Pad10)*%
X124398500Y-88163000D03*
%TO.P,U103,11,IO26*%
%TO.N,unconnected-(U103-IO26-Pad11)*%
X124398500Y-89433000D03*
%TO.P,U103,12,IO27*%
%TO.N,unconnected-(U103-IO27-Pad12)*%
X124398500Y-90703000D03*
%TO.P,U103,13,IO14*%
%TO.N,unconnected-(U103-IO14-Pad13)*%
X124398500Y-91973000D03*
%TO.P,U103,14,IO12*%
%TO.N,unconnected-(U103-IO12-Pad14)*%
X124398500Y-93243000D03*
D41*
%TO.P,U103,15,GND*%
%TO.N,GND*%
X127438500Y-94493000D03*
%TO.P,U103,16,IO13*%
%TO.N,/IR_RECV*%
X128708500Y-94493000D03*
%TO.P,U103,17,SHD/SD2*%
%TO.N,unconnected-(U103-SHD{slash}SD2-Pad17)*%
X129978500Y-94493000D03*
%TO.P,U103,18,SWP/SD3*%
%TO.N,unconnected-(U103-SWP{slash}SD3-Pad18)*%
X131248500Y-94493000D03*
%TO.P,U103,19,SCS/CMD*%
%TO.N,unconnected-(U103-SCS{slash}CMD-Pad19)*%
X132518500Y-94493000D03*
%TO.P,U103,20,SCK/CLK*%
%TO.N,unconnected-(U103-SCK{slash}CLK-Pad20)*%
X133788500Y-94493000D03*
%TO.P,U103,21,SDO/SD0*%
%TO.N,unconnected-(U103-SDO{slash}SD0-Pad21)*%
X135058500Y-94493000D03*
%TO.P,U103,22,SDI/SD1*%
%TO.N,unconnected-(U103-SDI{slash}SD1-Pad22)*%
X136328500Y-94493000D03*
%TO.P,U103,23,IO15*%
%TO.N,unconnected-(U103-IO15-Pad23)*%
X137598500Y-94493000D03*
%TO.P,U103,24,IO2*%
%TO.N,/LED3*%
X138868500Y-94493000D03*
D40*
%TO.P,U103,25,IO0*%
%TO.N,/IO0*%
X141898500Y-93243000D03*
%TO.P,U103,26,IO4*%
%TO.N,/LED2*%
X141898500Y-91973000D03*
%TO.P,U103,27,IO16*%
%TO.N,unconnected-(U103-IO16-Pad27)*%
X141898500Y-90703000D03*
%TO.P,U103,28,IO17*%
%TO.N,unconnected-(U103-IO17-Pad28)*%
X141898500Y-89433000D03*
%TO.P,U103,29,IO5*%
%TO.N,/LED1*%
X141898500Y-88163000D03*
%TO.P,U103,30,IO18*%
%TO.N,unconnected-(U103-IO18-Pad30)*%
X141898500Y-86893000D03*
%TO.P,U103,31,IO19*%
%TO.N,unconnected-(U103-IO19-Pad31)*%
X141898500Y-85623000D03*
%TO.P,U103,32,NC*%
%TO.N,unconnected-(U103-NC-Pad32)*%
X141898500Y-84353000D03*
%TO.P,U103,33,IO21*%
%TO.N,unconnected-(U103-IO21-Pad33)*%
X141898500Y-83083000D03*
%TO.P,U103,34,RXD0/IO3*%
%TO.N,/ESP_RX*%
X141898500Y-81813000D03*
%TO.P,U103,35,TXD0/IO1*%
%TO.N,/ESP_TX*%
X141898500Y-80543000D03*
%TO.P,U103,36,IO22*%
%TO.N,unconnected-(U103-IO22-Pad36)*%
X141898500Y-79273000D03*
%TO.P,U103,37,IO23*%
%TO.N,/LED0*%
X141898500Y-78003000D03*
%TO.P,U103,38,GND*%
%TO.N,GND*%
X141898500Y-76733000D03*
D42*
%TO.P,U103,39,GND*%
X130943500Y-82548000D03*
D43*
X130943500Y-83310500D03*
D42*
X130943500Y-84073000D03*
D43*
X130943500Y-84835500D03*
D42*
X130943500Y-85598000D03*
D43*
X131706000Y-82548000D03*
X131706000Y-84073000D03*
X131706000Y-85598000D03*
D42*
X132468500Y-82548000D03*
D43*
X132468500Y-83310500D03*
D42*
X132468500Y-84073000D03*
D44*
X132468500Y-84073000D03*
D43*
X132468500Y-84835500D03*
D42*
X132468500Y-85598000D03*
D43*
X133231000Y-82548000D03*
X133231000Y-84073000D03*
X133231000Y-85598000D03*
D42*
X133993500Y-82548000D03*
D43*
X133993500Y-83310500D03*
D42*
X133993500Y-84073000D03*
D43*
X133993500Y-84835500D03*
D42*
X133993500Y-85598000D03*
%TD*%
D22*
%TO.P,R104,1*%
%TO.N,+3.3V*%
X115443000Y-74803000D03*
%TO.P,R104,2*%
%TO.N,Net-(LED101-A)*%
X113793000Y-74803000D03*
%TD*%
D45*
%TO.N,+3.3V*%
X129794000Y-96266000D03*
X115062000Y-78486000D03*
%TO.N,GND*%
X113030000Y-81788000D03*
X117094000Y-77089000D03*
X139446000Y-79518497D03*
X144780000Y-82804000D03*
X144780000Y-80899000D03*
X122936000Y-105537000D03*
X108559600Y-77063200D03*
X144780000Y-93980000D03*
X144780000Y-92075000D03*
X105029000Y-97028000D03*
X120904000Y-77089000D03*
X113284000Y-97536000D03*
X99822000Y-84328000D03*
X144780000Y-86487000D03*
X117094000Y-89789000D03*
X144780000Y-84582000D03*
X113538000Y-105537000D03*
X144780000Y-90170000D03*
X122555000Y-82550000D03*
X111836200Y-95173800D03*
X143637000Y-76708000D03*
X127381000Y-96393000D03*
X105537000Y-76073000D03*
X144780000Y-88265000D03*
X109474000Y-71374000D03*
X111506000Y-89662000D03*
X137693449Y-79493048D03*
X107061000Y-76073000D03*
X99657500Y-79756000D03*
X115062000Y-97536000D03*
X103632000Y-84074000D03*
X116078000Y-90932000D03*
X122555000Y-76708000D03*
%TO.N,+5V*%
X149860000Y-81026000D03*
X99822000Y-81280000D03*
X149860000Y-88392000D03*
X104521000Y-79248000D03*
X105283000Y-80264000D03*
X149860000Y-84582000D03*
X116586000Y-94742000D03*
X149860000Y-91694000D03*
X104013000Y-80264000D03*
%TO.N,/EN*%
X121158000Y-89535000D03*
X104394000Y-82423000D03*
X119187200Y-83439000D03*
%TO.N,/IO0*%
X117221000Y-101473000D03*
X99568000Y-78359000D03*
X122428000Y-96139000D03*
X138557000Y-91821000D03*
%TO.N,/USB-TTL-AutoProgram/D_P*%
X106934000Y-91644100D03*
X107205174Y-89679174D03*
%TO.N,VCC*%
X108585000Y-93345000D03*
X107442000Y-94488000D03*
X108585000Y-94488000D03*
X107442000Y-86995000D03*
X109728000Y-86995000D03*
X107442000Y-93345000D03*
X108585000Y-86995000D03*
X108585000Y-85852000D03*
X107442000Y-85852000D03*
%TO.N,/ESP_TX*%
X139446000Y-80518000D03*
X115697000Y-81153000D03*
X109220000Y-74803000D03*
%TO.N,/ESP_RX*%
X109347000Y-73025000D03*
X137668000Y-80518000D03*
X114808000Y-80010000D03*
%TO.N,/USB-TTL-AutoProgram/DTR*%
X114109500Y-84010500D03*
X122148600Y-83566000D03*
%TO.N,/LED_PWR*%
X144018000Y-106680000D03*
X144018000Y-103886000D03*
X158496000Y-99060000D03*
X161290000Y-87630000D03*
X133858000Y-103886000D03*
X161290000Y-99060000D03*
X158496000Y-77216000D03*
X133858000Y-101092000D03*
X144018000Y-101092000D03*
X158496000Y-87630000D03*
X155702000Y-77216000D03*
X155702000Y-87630000D03*
X133858000Y-106680000D03*
X161290000Y-77216000D03*
X155702000Y-99060000D03*
%TD*%
D46*
%TO.N,+3.3V*%
X119761000Y-78626000D02*
X120891000Y-78626000D01*
D47*
X113411000Y-78740000D02*
X113406000Y-78745000D01*
X113416000Y-78745000D02*
X113411000Y-78740000D01*
D46*
X120891000Y-78626000D02*
X121514000Y-78003000D01*
X121514000Y-78003000D02*
X124398500Y-78003000D01*
D47*
X115062000Y-78486000D02*
X115321000Y-78745000D01*
X113406000Y-78745000D02*
X111627500Y-78745000D01*
D46*
X115443000Y-71383000D02*
X115452000Y-71374000D01*
X115443000Y-74803000D02*
X115443000Y-71383000D01*
D47*
X129794000Y-96266000D02*
X131318000Y-97790000D01*
D46*
X115443000Y-74803000D02*
X115443000Y-77038200D01*
X115202000Y-79007000D02*
X116332000Y-80137000D01*
D47*
X131318000Y-97790000D02*
X131318000Y-104013000D01*
D46*
X118237000Y-78626000D02*
X119761000Y-78626000D01*
X116332000Y-80137000D02*
X118174000Y-80137000D01*
X115443000Y-77038200D02*
X115417600Y-77063600D01*
D47*
X114803000Y-78745000D02*
X113416000Y-78745000D01*
D46*
X115202000Y-78626000D02*
X118237000Y-78626000D01*
X115202000Y-78626000D02*
X115202000Y-79007000D01*
D47*
X115062000Y-78486000D02*
X114803000Y-78745000D01*
X115062000Y-78486000D02*
X115202000Y-78626000D01*
D46*
%TO.N,GND*%
X146182500Y-92014000D02*
X144841000Y-92014000D01*
D47*
X117107000Y-77076000D02*
X118237000Y-77076000D01*
D46*
X107061000Y-77177600D02*
X107188000Y-77304600D01*
X144841000Y-86548000D02*
X144780000Y-86487000D01*
D47*
X144846000Y-93914000D02*
X144780000Y-93980000D01*
X113998000Y-106650000D02*
X113998000Y-105997000D01*
X111861600Y-95148400D02*
X111861600Y-94018400D01*
D46*
X143612000Y-76733000D02*
X143637000Y-76708000D01*
X146182500Y-82865000D02*
X144841000Y-82865000D01*
X113411000Y-96279000D02*
X113411000Y-97409000D01*
X104431000Y-94598000D02*
X105006000Y-94023000D01*
D47*
X117094000Y-77089000D02*
X117107000Y-77076000D01*
X120904000Y-77089000D02*
X120891000Y-77076000D01*
X122555000Y-82169000D02*
X122555000Y-82550000D01*
D46*
X144846000Y-84648000D02*
X144780000Y-84582000D01*
X113411000Y-97409000D02*
X113284000Y-97536000D01*
X144846000Y-88331000D02*
X144780000Y-88265000D01*
X146182500Y-84648000D02*
X144846000Y-84648000D01*
D47*
X111836200Y-95173800D02*
X111861600Y-95148400D01*
X100165500Y-79248000D02*
X100711000Y-79248000D01*
X111755000Y-89911000D02*
X111506000Y-89662000D01*
X107998000Y-106650000D02*
X113998000Y-106650000D01*
D46*
X144841000Y-92014000D02*
X144780000Y-92075000D01*
D47*
X113998000Y-105997000D02*
X113538000Y-105537000D01*
D46*
X112188528Y-79695000D02*
X109352500Y-79695000D01*
X144780000Y-90170000D02*
X144907000Y-90297000D01*
D47*
X121285000Y-81674000D02*
X122060000Y-81674000D01*
D46*
X124398500Y-76733000D02*
X122580000Y-76733000D01*
D47*
X122060000Y-81674000D02*
X122555000Y-82169000D01*
X99657500Y-79756000D02*
X100165500Y-79248000D01*
D46*
X110690000Y-71374000D02*
X109474000Y-71374000D01*
X109816600Y-77063600D02*
X108560000Y-77063600D01*
X144846000Y-80965000D02*
X144780000Y-80899000D01*
X141898500Y-76733000D02*
X143612000Y-76733000D01*
X104431000Y-86348000D02*
X104431000Y-86748000D01*
X110097000Y-89678000D02*
X111490000Y-89678000D01*
D47*
X100825000Y-84328000D02*
X99822000Y-84328000D01*
D46*
X113030000Y-80536472D02*
X112188528Y-79695000D01*
X144907000Y-90297000D02*
X146116500Y-90297000D01*
X105537000Y-76073000D02*
X105537000Y-77177600D01*
D47*
X123444000Y-106045000D02*
X123444000Y-106602000D01*
D46*
X114935000Y-97409000D02*
X115062000Y-97536000D01*
D47*
X122936000Y-105537000D02*
X123444000Y-106045000D01*
D46*
X146182500Y-88331000D02*
X144846000Y-88331000D01*
X113030000Y-81788000D02*
X113030000Y-80536472D01*
X104431000Y-86748000D02*
X105006000Y-87323000D01*
X146116500Y-90297000D02*
X146182500Y-90231000D01*
X111490000Y-89678000D02*
X111506000Y-89662000D01*
X108560000Y-77063600D02*
X108559600Y-77063200D01*
X146182500Y-80965000D02*
X144846000Y-80965000D01*
X104431000Y-94998000D02*
X104431000Y-94598000D01*
D47*
X114161400Y-89911000D02*
X111755000Y-89911000D01*
D46*
X144841000Y-82865000D02*
X144780000Y-82804000D01*
D47*
X105029000Y-97028000D02*
X103899000Y-97028000D01*
X117396000Y-106650000D02*
X123396000Y-106650000D01*
D46*
X122580000Y-76733000D02*
X122555000Y-76708000D01*
X105537000Y-77177600D02*
X105664000Y-77304600D01*
D47*
X120891000Y-77076000D02*
X119761000Y-77076000D01*
D46*
X127438500Y-96335500D02*
X127438500Y-94493000D01*
X127381000Y-96393000D02*
X127438500Y-96335500D01*
X146182500Y-86548000D02*
X144841000Y-86548000D01*
X114935000Y-96279000D02*
X114935000Y-97409000D01*
X107061000Y-76073000D02*
X107061000Y-77177600D01*
X146182500Y-93914000D02*
X144846000Y-93914000D01*
X103632000Y-84074000D02*
X104968000Y-84074000D01*
D48*
%TO.N,+5V*%
X149860000Y-91694000D02*
X149540000Y-92014000D01*
D47*
X115111400Y-94552600D02*
X114935000Y-94729000D01*
D48*
X148457500Y-84648000D02*
X149794000Y-84648000D01*
D46*
X99949000Y-81280000D02*
X100711000Y-80518000D01*
D48*
X149799000Y-88331000D02*
X149860000Y-88392000D01*
X149799000Y-80965000D02*
X149860000Y-81026000D01*
D47*
X116573000Y-94729000D02*
X116586000Y-94742000D01*
X113207800Y-94525800D02*
X113411000Y-94729000D01*
D48*
X149540000Y-92014000D02*
X148457500Y-92014000D01*
X148457500Y-80965000D02*
X149799000Y-80965000D01*
D47*
X114161400Y-91911000D02*
X113473400Y-91911000D01*
D48*
X149794000Y-84648000D02*
X149860000Y-84582000D01*
D46*
X113411000Y-94729000D02*
X116573000Y-94729000D01*
D48*
X148457500Y-88331000D02*
X149799000Y-88331000D01*
D47*
X113207800Y-92176600D02*
X113207800Y-94525800D01*
X113473400Y-91911000D02*
X113207800Y-92176600D01*
D46*
X99822000Y-81280000D02*
X99949000Y-81280000D01*
D47*
X115111400Y-92861000D02*
X115111400Y-94552600D01*
%TO.N,/EN*%
X113932000Y-100317000D02*
X116967000Y-97282000D01*
X119824000Y-80187000D02*
X119824000Y-82614000D01*
X119824000Y-82614000D02*
X119187200Y-83250800D01*
X119187200Y-83250800D02*
X119187200Y-84585204D01*
X119774000Y-80137000D02*
X119824000Y-80187000D01*
X113998000Y-102900000D02*
X113932000Y-102834000D01*
X119888000Y-97282000D02*
X121158000Y-96012000D01*
X121158000Y-96012000D02*
X121158000Y-89535000D01*
X107998000Y-102900000D02*
X113998000Y-102900000D01*
X113932000Y-102834000D02*
X113932000Y-100317000D01*
X101981000Y-80518000D02*
X103886000Y-82423000D01*
X124398500Y-79273000D02*
X123038000Y-79273000D01*
X103886000Y-82423000D02*
X104394000Y-82423000D01*
X116967000Y-97282000D02*
X119888000Y-97282000D01*
X122174000Y-80137000D02*
X119774000Y-80137000D01*
X123038000Y-79273000D02*
X122174000Y-80137000D01*
%TO.N,/IO0*%
X100711000Y-77978000D02*
X100330000Y-78359000D01*
X117221000Y-101473000D02*
X117221000Y-102725000D01*
X139065000Y-91821000D02*
X140487000Y-93243000D01*
X100330000Y-78359000D02*
X99568000Y-78359000D01*
X122428000Y-89218204D02*
X120487200Y-87277404D01*
X138557000Y-91821000D02*
X139065000Y-91821000D01*
X140487000Y-93243000D02*
X141898500Y-93243000D01*
X119634000Y-98044000D02*
X120650000Y-98044000D01*
X122428000Y-96266000D02*
X122428000Y-96139000D01*
X120650000Y-98044000D02*
X122428000Y-96266000D01*
X122428000Y-96139000D02*
X122428000Y-89218204D01*
X117221000Y-100457000D02*
X117221000Y-101473000D01*
X117221000Y-102725000D02*
X117396000Y-102900000D01*
X117396000Y-102900000D02*
X123396000Y-102900000D01*
X120487200Y-87277404D02*
X120487200Y-86485204D01*
X117221000Y-100457000D02*
X119634000Y-98044000D01*
D46*
%TO.N,Net-(C201-Pad1)*%
X106781600Y-82192500D02*
X106781600Y-83987600D01*
X106783500Y-82194400D02*
X106781600Y-82192500D01*
X108686500Y-82194400D02*
X106783500Y-82194400D01*
X108838900Y-82346800D02*
X108686500Y-82194400D01*
X106781600Y-83987600D02*
X106868000Y-84074000D01*
D47*
%TO.N,Net-(U401-VDD)*%
X112424000Y-91411000D02*
X114161400Y-91411000D01*
X111861600Y-91973400D02*
X112424000Y-91411000D01*
X111861600Y-92468400D02*
X111861600Y-91973400D01*
D48*
%TO.N,/USB-TTL-AutoProgram/D_P*%
X107205174Y-90408626D02*
X107188000Y-90425800D01*
X106934000Y-91644100D02*
X106712900Y-91423000D01*
X106712900Y-91423000D02*
X105006000Y-91423000D01*
X108397000Y-90359800D02*
X108397000Y-89678000D01*
X105008800Y-90425800D02*
X105006000Y-90423000D01*
X107205174Y-89679174D02*
X107205174Y-90408626D01*
X114146600Y-90425800D02*
X105008800Y-90425800D01*
%TO.N,/USB-TTL-AutoProgram/D_N*%
X105018000Y-90911000D02*
X105006000Y-90923000D01*
X105006000Y-89923000D02*
X103371000Y-89923000D01*
X103432500Y-90923000D02*
X105006000Y-90923000D01*
X103371000Y-89923000D02*
X103124000Y-90170000D01*
X108397000Y-90972000D02*
X108397000Y-91678000D01*
X103124000Y-90170000D02*
X103124000Y-90614500D01*
X114161400Y-90911000D02*
X105018000Y-90911000D01*
X103124000Y-90614500D02*
X103432500Y-90923000D01*
D46*
%TO.N,VCC*%
X108585000Y-93345000D02*
X108813600Y-93014800D01*
X109982000Y-93014800D02*
X108585000Y-93345000D01*
X110297000Y-92699800D02*
X109982000Y-93014800D01*
X110297000Y-91678000D02*
X110297000Y-92699800D01*
D47*
%TO.N,Net-(J101-Pin_2)*%
X156591000Y-82296000D02*
X158623000Y-82296000D01*
X151257000Y-81090000D02*
X155385000Y-81090000D01*
X155385000Y-81090000D02*
X156591000Y-82296000D01*
%TO.N,Net-(J102-Pin_2)*%
X152972000Y-84773000D02*
X154432000Y-86233000D01*
X154432000Y-86233000D02*
X154432000Y-91567000D01*
X155702000Y-92837000D02*
X158623000Y-92837000D01*
X151257000Y-84773000D02*
X152972000Y-84773000D01*
X154432000Y-91567000D02*
X155702000Y-92837000D01*
%TO.N,Net-(J103-Pin_2)*%
X152654000Y-88932000D02*
X152654000Y-97790000D01*
X152654000Y-97790000D02*
X149352000Y-101092000D01*
X152178000Y-88456000D02*
X152654000Y-88932000D01*
X151257000Y-88456000D02*
X152178000Y-88456000D01*
X149352000Y-101092000D02*
X149352000Y-103759000D01*
%TO.N,Net-(J104-Pin_2)*%
X148590000Y-95758000D02*
X144526000Y-95758000D01*
X144526000Y-95758000D02*
X138811000Y-101473000D01*
X138811000Y-101473000D02*
X138811000Y-103759000D01*
X151384000Y-93789000D02*
X150559000Y-93789000D01*
X150559000Y-93789000D02*
X148590000Y-95758000D01*
%TO.N,/IR_RECV*%
X128701800Y-97231200D02*
X126238000Y-99695000D01*
X128701800Y-94499700D02*
X128701800Y-97231200D01*
X128708500Y-94493000D02*
X128701800Y-94499700D01*
X126238000Y-99695000D02*
X126238000Y-104013000D01*
%TO.N,Net-(J201-CC1)*%
X102362000Y-88773000D02*
X102362000Y-84468000D01*
X105006000Y-89423000D02*
X103012000Y-89423000D01*
X103012000Y-89423000D02*
X102362000Y-88773000D01*
%TO.N,Net-(J201-CC2)*%
X102362000Y-97015000D02*
X102362000Y-92964000D01*
X102903000Y-92423000D02*
X105006000Y-92423000D01*
X102349000Y-97028000D02*
X102362000Y-97015000D01*
X102362000Y-92964000D02*
X102903000Y-92423000D01*
%TO.N,/ESP_TX*%
X116611400Y-83464400D02*
X116611400Y-87961000D01*
X103585695Y-78269000D02*
X103595000Y-78269000D01*
X105030396Y-74803000D02*
X109220000Y-74803000D01*
X109220000Y-74803000D02*
X110715000Y-74803000D01*
X103161000Y-78703000D02*
X103161000Y-78693695D01*
X139471000Y-80543000D02*
X139446000Y-80518000D01*
X115697000Y-81407000D02*
X115697000Y-82550000D01*
X101981000Y-79248000D02*
X102616000Y-79248000D01*
X103161000Y-78693695D02*
X103585695Y-78269000D01*
X104431000Y-77433000D02*
X104431000Y-75402396D01*
X141898500Y-80543000D02*
X139471000Y-80543000D01*
X104431000Y-75402396D02*
X105030396Y-74803000D01*
X115697000Y-82550000D02*
X116611400Y-83464400D01*
X115697000Y-81407000D02*
X115697000Y-81153000D01*
X102616000Y-79248000D02*
X103161000Y-78703000D01*
X103595000Y-78269000D02*
X104431000Y-77433000D01*
%TO.N,Net-(LED101-A)*%
X113793000Y-74803000D02*
X112290000Y-74803000D01*
%TO.N,/ESP_RX*%
X114808000Y-82677000D02*
X116111400Y-83980400D01*
X106172000Y-73025000D02*
X109347000Y-73025000D01*
X109347000Y-73025000D02*
X110715000Y-73025000D01*
X114808000Y-80010000D02*
X114808000Y-82677000D01*
X101981000Y-77978000D02*
X102870000Y-77978000D01*
X102870000Y-77978000D02*
X103632000Y-77216000D01*
X116111400Y-83980400D02*
X116111400Y-87961000D01*
X103632000Y-77216000D02*
X103632000Y-75565000D01*
X137668000Y-80518000D02*
X138963000Y-81813000D01*
X103632000Y-75565000D02*
X106172000Y-73025000D01*
X138963000Y-81813000D02*
X141898500Y-81813000D01*
%TO.N,Net-(LED102-A)*%
X113793000Y-73025000D02*
X112290000Y-73025000D01*
%TO.N,Net-(LED103-A)*%
X113802000Y-71247000D02*
X112265000Y-71247000D01*
%TO.N,/USB-TTL-AutoProgram/RTS*%
X117602000Y-86411004D02*
X119113000Y-86411004D01*
X119113000Y-86411004D02*
X119187200Y-86485204D01*
X117111400Y-86901604D02*
X117602000Y-86411004D01*
X117111400Y-87961000D02*
X117111400Y-86901604D01*
%TO.N,Net-(Q401A-B1)*%
X121095204Y-85535204D02*
X121956204Y-86396204D01*
X121956204Y-86396204D02*
X122072400Y-86396204D01*
X120153996Y-85535204D02*
X121095204Y-85535204D01*
X119837200Y-85852000D02*
X120153996Y-85535204D01*
X119837200Y-86485204D02*
X119837200Y-85852000D01*
%TO.N,/USB-TTL-AutoProgram/DTR*%
X121285000Y-84582000D02*
X121908196Y-84582000D01*
X121281796Y-84585204D02*
X121285000Y-84582000D01*
X120487200Y-84585204D02*
X121281796Y-84585204D01*
X122148600Y-83566000D02*
X122148600Y-84670004D01*
X121908196Y-84582000D02*
X122072400Y-84746204D01*
X115111400Y-85012400D02*
X115111400Y-87961000D01*
X122148600Y-84670004D02*
X122072400Y-84746204D01*
X114109500Y-84010500D02*
X115111400Y-85012400D01*
%TO.N,Net-(Q401B-B2)*%
X118311996Y-85471000D02*
X117602000Y-84761004D01*
X119837200Y-84585204D02*
X119837200Y-85215604D01*
X119581804Y-85471000D02*
X118311996Y-85471000D01*
X119837200Y-85215604D02*
X119581804Y-85471000D01*
%TO.N,Net-(R102-Pad1)*%
X151132000Y-82865000D02*
X151257000Y-82740000D01*
X148457500Y-82865000D02*
X151132000Y-82865000D01*
%TO.N,Net-(R103-Pad1)*%
X148457500Y-86548000D02*
X151132000Y-86548000D01*
X151132000Y-86548000D02*
X151257000Y-86423000D01*
%TO.N,Net-(R106-Pad1)*%
X148457500Y-90231000D02*
X151259000Y-90231000D01*
%TO.N,Net-(R108-Pad1)*%
X151257000Y-92139000D02*
X150685000Y-92139000D01*
X150160305Y-92673000D02*
X150151000Y-92673000D01*
X150685000Y-92139000D02*
X150585000Y-92239000D01*
X149987000Y-93281500D02*
X149354500Y-93914000D01*
X150585000Y-92248305D02*
X150160305Y-92673000D01*
X150151000Y-92673000D02*
X149987000Y-92837000D01*
X149987000Y-92837000D02*
X149987000Y-93281500D01*
X149354500Y-93914000D02*
X148457500Y-93914000D01*
X150585000Y-92239000D02*
X150585000Y-92248305D01*
%TO.N,/LED0*%
X141898500Y-78003000D02*
X142898500Y-78003000D01*
X142898500Y-78003000D02*
X143637000Y-78741500D01*
X144399000Y-81915000D02*
X146182500Y-81915000D01*
X143637000Y-81153000D02*
X144399000Y-81915000D01*
X143637000Y-78741500D02*
X143637000Y-81153000D01*
%TO.N,/LED1*%
X143637000Y-86233000D02*
X144272000Y-85598000D01*
X143637000Y-87757000D02*
X143637000Y-86233000D01*
X143231000Y-88163000D02*
X143637000Y-87757000D01*
X141898500Y-88163000D02*
X143231000Y-88163000D01*
X144272000Y-85598000D02*
X146182500Y-85598000D01*
%TO.N,/LED3*%
X143637000Y-95123000D02*
X143637000Y-93599000D01*
X144272000Y-92964000D02*
X146182500Y-92964000D01*
X138868500Y-95815500D02*
X139446000Y-96393000D01*
X139446000Y-96393000D02*
X142367000Y-96393000D01*
X138868500Y-94493000D02*
X138868500Y-95815500D01*
X142367000Y-96393000D02*
X143637000Y-95123000D01*
X143637000Y-93599000D02*
X144272000Y-92964000D01*
%TO.N,/LED2*%
X143231000Y-91973000D02*
X143637000Y-91567000D01*
X144526000Y-89281000D02*
X146182500Y-89281000D01*
X143637000Y-90170000D02*
X144526000Y-89281000D01*
X141898500Y-91973000D02*
X143231000Y-91973000D01*
X143637000Y-91567000D02*
X143637000Y-90170000D01*
%TD*%
%TA.AperFunction,Conductor*%
%TO.N,/ESP_RX*%
G36*
X115167109Y-80158719D02*
G01*
X115173427Y-80165066D01*
X115173551Y-80173655D01*
X114935859Y-80802437D01*
X114929728Y-80808964D01*
X114924915Y-80810000D01*
X114691085Y-80810000D01*
X114682812Y-80806573D01*
X114680141Y-80802437D01*
X114442448Y-80173655D01*
X114442728Y-80164705D01*
X114448889Y-80158719D01*
X114803500Y-80010875D01*
X114812449Y-80010855D01*
X115167109Y-80158719D01*
G37*
%TD.AperFunction*%
%TD*%
%TA.AperFunction,Conductor*%
%TO.N,GND*%
G36*
X121701900Y-81295494D02*
G01*
X122243250Y-81683644D01*
X122247976Y-81691249D01*
X122245940Y-81699970D01*
X122244705Y-81701425D01*
X122078945Y-81867185D01*
X122076088Y-81869283D01*
X121629765Y-82102349D01*
X121620845Y-82103141D01*
X121615109Y-82099156D01*
X121290841Y-81681722D01*
X121288472Y-81673086D01*
X121292088Y-81666000D01*
X121687091Y-81296457D01*
X121695471Y-81293308D01*
X121701900Y-81295494D01*
G37*
%TD.AperFunction*%
%TD*%
%TA.AperFunction,Conductor*%
%TO.N,GND*%
G36*
X145570984Y-89973908D02*
G01*
X146176591Y-90228100D01*
X146182893Y-90234461D01*
X146183756Y-90238488D01*
X146193359Y-90519097D01*
X146190217Y-90527482D01*
X146182066Y-90531190D01*
X146181858Y-90531195D01*
X145231892Y-90546804D01*
X145223564Y-90543514D01*
X145220002Y-90535298D01*
X145220000Y-90535106D01*
X145220000Y-90056457D01*
X145223427Y-90048184D01*
X145229246Y-90045017D01*
X145564004Y-89973256D01*
X145570984Y-89973908D01*
G37*
%TD.AperFunction*%
%TD*%
%TA.AperFunction,Conductor*%
%TO.N,GND*%
G36*
X100439622Y-78976587D02*
G01*
X100706143Y-79241758D01*
X100709591Y-79250022D01*
X100708696Y-79254540D01*
X100564165Y-79602515D01*
X100557827Y-79608841D01*
X100550860Y-79609457D01*
X100086471Y-79507886D01*
X100080698Y-79504729D01*
X99916308Y-79340339D01*
X99912881Y-79332066D01*
X99916308Y-79323793D01*
X99917965Y-79322416D01*
X100424760Y-78975228D01*
X100433519Y-78973380D01*
X100439622Y-78976587D01*
G37*
%TD.AperFunction*%
%TD*%
%TA.AperFunction,Conductor*%
%TO.N,/USB-TTL-AutoProgram/DTR*%
G36*
X122507709Y-83714719D02*
G01*
X122514027Y-83721066D01*
X122514151Y-83729655D01*
X122276459Y-84358437D01*
X122270328Y-84364964D01*
X122265515Y-84366000D01*
X122031685Y-84366000D01*
X122023412Y-84362573D01*
X122020741Y-84358437D01*
X121783048Y-83729655D01*
X121783328Y-83720705D01*
X121789489Y-83714719D01*
X122144100Y-83566875D01*
X122153049Y-83566855D01*
X122507709Y-83714719D01*
G37*
%TD.AperFunction*%
%TD*%
%TA.AperFunction,Conductor*%
%TO.N,+5V*%
G36*
X149711422Y-84223266D02*
G01*
X149711658Y-84223796D01*
X149859123Y-84577498D01*
X149859144Y-84586452D01*
X149859123Y-84586502D01*
X149710867Y-84942101D01*
X149704520Y-84948419D01*
X149697038Y-84948900D01*
X149081798Y-84783924D01*
X149074694Y-84778471D01*
X149073128Y-84772623D01*
X149073128Y-84521786D01*
X149076555Y-84513513D01*
X149079794Y-84511223D01*
X149695829Y-84217734D01*
X149704770Y-84217271D01*
X149711422Y-84223266D01*
G37*
%TD.AperFunction*%
%TD*%
%TA.AperFunction,Conductor*%
%TO.N,Net-(J201-CC1)*%
G36*
X104309547Y-89273759D02*
G01*
X104953532Y-89411559D01*
X104960905Y-89416641D01*
X104962525Y-89425448D01*
X104957443Y-89432821D01*
X104953532Y-89434441D01*
X104309547Y-89572241D01*
X104307099Y-89572500D01*
X104303969Y-89572500D01*
X104302046Y-89572341D01*
X104256622Y-89564770D01*
X104165776Y-89549629D01*
X104158179Y-89544888D01*
X104156000Y-89538088D01*
X104156000Y-89307911D01*
X104159427Y-89299638D01*
X104165775Y-89296370D01*
X104302046Y-89273659D01*
X104303969Y-89273500D01*
X104307099Y-89273500D01*
X104309547Y-89273759D01*
G37*
%TD.AperFunction*%
%TD*%
%TA.AperFunction,Conductor*%
%TO.N,/IR_RECV*%
G36*
X128714467Y-94504805D02*
G01*
X128718514Y-94508869D01*
X129150383Y-95236373D01*
X129151659Y-95245236D01*
X129149782Y-95249230D01*
X128830304Y-95688185D01*
X128822665Y-95692857D01*
X128820844Y-95693000D01*
X128582855Y-95693000D01*
X128574582Y-95689573D01*
X128573303Y-95688056D01*
X128545297Y-95648462D01*
X128262903Y-95249225D01*
X128260924Y-95240494D01*
X128262419Y-95236459D01*
X128698417Y-94508826D01*
X128705609Y-94503492D01*
X128714467Y-94504805D01*
G37*
%TD.AperFunction*%
%TD*%
%TA.AperFunction,Conductor*%
%TO.N,GND*%
G36*
X100240411Y-79129002D02*
G01*
X100246407Y-79135653D01*
X100247080Y-79139565D01*
X100247080Y-79370691D01*
X100246204Y-79375134D01*
X100031504Y-79898224D01*
X100025192Y-79904576D01*
X100016237Y-79904605D01*
X100016213Y-79904595D01*
X99660999Y-79757858D01*
X99654661Y-79751532D01*
X99509105Y-79397815D01*
X99509126Y-79388862D01*
X99515473Y-79382544D01*
X99515978Y-79382350D01*
X100231468Y-79128538D01*
X100240411Y-79129002D01*
G37*
%TD.AperFunction*%
%TD*%
%TA.AperFunction,Conductor*%
%TO.N,GND*%
G36*
X145673342Y-88032952D02*
G01*
X145969062Y-88205720D01*
X146166208Y-88320898D01*
X146171623Y-88328030D01*
X146170408Y-88336902D01*
X146166208Y-88341102D01*
X145673344Y-88629046D01*
X145666150Y-88630572D01*
X145230408Y-88582156D01*
X145222564Y-88577837D01*
X145220000Y-88570528D01*
X145220000Y-88091471D01*
X145223427Y-88083198D01*
X145230406Y-88079843D01*
X145666152Y-88031427D01*
X145673342Y-88032952D01*
G37*
%TD.AperFunction*%
%TD*%
%TA.AperFunction,Conductor*%
%TO.N,+5V*%
G36*
X149032275Y-84361341D02*
G01*
X149412596Y-84511477D01*
X149419033Y-84517703D01*
X149420000Y-84522360D01*
X149420000Y-84773639D01*
X149416573Y-84781912D01*
X149412596Y-84784522D01*
X149032288Y-84934653D01*
X149023335Y-84934503D01*
X149022714Y-84934212D01*
X148726582Y-84784522D01*
X148477156Y-84658441D01*
X148471319Y-84651651D01*
X148471993Y-84642722D01*
X148477157Y-84637558D01*
X149022716Y-84361786D01*
X149031643Y-84361113D01*
X149032275Y-84361341D01*
G37*
%TD.AperFunction*%
%TD*%
%TA.AperFunction,Conductor*%
%TO.N,+3.3V*%
G36*
X123653707Y-77556120D02*
G01*
X124361963Y-77980508D01*
X124382751Y-77992964D01*
X124388086Y-78000156D01*
X124386773Y-78009014D01*
X124382751Y-78013036D01*
X123653713Y-78449876D01*
X123644855Y-78451189D01*
X123642947Y-78450532D01*
X123205448Y-78256088D01*
X123199280Y-78249596D01*
X123198500Y-78245396D01*
X123198500Y-77760604D01*
X123201927Y-77752331D01*
X123205448Y-77749912D01*
X123642949Y-77555466D01*
X123651899Y-77555239D01*
X123653707Y-77556120D01*
G37*
%TD.AperFunction*%
%TD*%
%TA.AperFunction,Conductor*%
%TO.N,/ESP_TX*%
G36*
X139609859Y-80152978D02*
G01*
X139609887Y-80152989D01*
X139624858Y-80159275D01*
X140233857Y-80414989D01*
X140240158Y-80421352D01*
X140241027Y-80425777D01*
X140241027Y-80659636D01*
X140237600Y-80667909D01*
X140233113Y-80670706D01*
X139609441Y-80884005D01*
X139600504Y-80883440D01*
X139594856Y-80877437D01*
X139577447Y-80835681D01*
X139446875Y-80522499D01*
X139446855Y-80513550D01*
X139594559Y-80159273D01*
X139600905Y-80152957D01*
X139609859Y-80152978D01*
G37*
%TD.AperFunction*%
%TD*%
%TA.AperFunction,Conductor*%
%TO.N,GND*%
G36*
X145558460Y-88078537D02*
G01*
X145565436Y-88084150D01*
X145566872Y-88089765D01*
X145566872Y-88570482D01*
X145563445Y-88578755D01*
X145556414Y-88582116D01*
X144792909Y-88663621D01*
X144784319Y-88661092D01*
X144780033Y-88653229D01*
X144779967Y-88652026D01*
X144779005Y-88267350D01*
X144779904Y-88262829D01*
X144929041Y-87905117D01*
X144935388Y-87898800D01*
X144943125Y-87898391D01*
X145558460Y-88078537D01*
G37*
%TD.AperFunction*%
%TD*%
%TA.AperFunction,Conductor*%
%TO.N,GND*%
G36*
X108573420Y-76665798D02*
G01*
X109349983Y-76811806D01*
X109357479Y-76816703D01*
X109359520Y-76823305D01*
X109359520Y-77303884D01*
X109356093Y-77312157D01*
X109349971Y-77315385D01*
X108573415Y-77460616D01*
X108564653Y-77458768D01*
X108559763Y-77451266D01*
X108559564Y-77449153D01*
X108558600Y-77063200D01*
X108559564Y-76677267D01*
X108563012Y-76669004D01*
X108571293Y-76665598D01*
X108573420Y-76665798D01*
G37*
%TD.AperFunction*%
%TD*%
%TA.AperFunction,Conductor*%
%TO.N,/IR_RECV*%
G36*
X126365285Y-102216427D02*
G01*
X126366503Y-102217858D01*
X127058899Y-103178211D01*
X127060957Y-103186925D01*
X127057686Y-103193321D01*
X126246278Y-104005711D01*
X126238007Y-104009143D01*
X126229732Y-104005721D01*
X126229722Y-104005711D01*
X125418313Y-103193321D01*
X125414891Y-103185046D01*
X125417098Y-103178214D01*
X126109499Y-102217855D01*
X126117116Y-102213151D01*
X126118988Y-102213000D01*
X126357012Y-102213000D01*
X126365285Y-102216427D01*
G37*
%TD.AperFunction*%
%TD*%
%TA.AperFunction,Conductor*%
%TO.N,/EN*%
G36*
X120184773Y-79742149D02*
G01*
X120188390Y-79744371D01*
X120618426Y-80008575D01*
X120623680Y-80015825D01*
X120624000Y-80018543D01*
X120624000Y-80255456D01*
X120620573Y-80263729D01*
X120618425Y-80265425D01*
X120184773Y-80531850D01*
X120175930Y-80533261D01*
X120169880Y-80529628D01*
X119829844Y-80144747D01*
X119826934Y-80136278D01*
X119829844Y-80129253D01*
X120169881Y-79744370D01*
X120177926Y-79740440D01*
X120184773Y-79742149D01*
G37*
%TD.AperFunction*%
%TD*%
%TA.AperFunction,Conductor*%
%TO.N,GND*%
G36*
X145673342Y-86249952D02*
G01*
X145969062Y-86422720D01*
X146166208Y-86537898D01*
X146171623Y-86545030D01*
X146170408Y-86553902D01*
X146166208Y-86558102D01*
X145673344Y-86846046D01*
X145666150Y-86847572D01*
X145230408Y-86799156D01*
X145222564Y-86794837D01*
X145220000Y-86787528D01*
X145220000Y-86308471D01*
X145223427Y-86300198D01*
X145230406Y-86296843D01*
X145666152Y-86248427D01*
X145673342Y-86249952D01*
G37*
%TD.AperFunction*%
%TD*%
%TA.AperFunction,Conductor*%
%TO.N,/IO0*%
G36*
X100356409Y-77831113D02*
G01*
X100704748Y-77975004D01*
X100711085Y-77981329D01*
X100711980Y-77985847D01*
X100711024Y-78361732D01*
X100707576Y-78369996D01*
X100701383Y-78373219D01*
X100095573Y-78481539D01*
X100086826Y-78479622D01*
X100081997Y-78472081D01*
X100081814Y-78470022D01*
X100081814Y-78237483D01*
X100083719Y-78231084D01*
X100243942Y-77985847D01*
X100342152Y-77835527D01*
X100349544Y-77830477D01*
X100356409Y-77831113D01*
G37*
%TD.AperFunction*%
%TD*%
%TA.AperFunction,Conductor*%
%TO.N,GND*%
G36*
X117906895Y-76650830D02*
G01*
X118232401Y-77068811D01*
X118234781Y-77077444D01*
X118232401Y-77083189D01*
X117906895Y-77501169D01*
X117899108Y-77505591D01*
X117892243Y-77504349D01*
X117318279Y-77204282D01*
X117312535Y-77197412D01*
X117312000Y-77193913D01*
X117312000Y-76958086D01*
X117315427Y-76949813D01*
X117318277Y-76947718D01*
X117892244Y-76647649D01*
X117901163Y-76646854D01*
X117906895Y-76650830D01*
G37*
%TD.AperFunction*%
%TD*%
%TA.AperFunction,Conductor*%
%TO.N,/USB-TTL-AutoProgram/D_P*%
G36*
X105710887Y-91273535D02*
G01*
X105770286Y-91280028D01*
X105845573Y-91288260D01*
X105853423Y-91292565D01*
X105856000Y-91299890D01*
X105856000Y-91546109D01*
X105852573Y-91554382D01*
X105845572Y-91557740D01*
X105710887Y-91572465D01*
X105710251Y-91572500D01*
X105704901Y-91572500D01*
X105702453Y-91572241D01*
X105580329Y-91546109D01*
X105058466Y-91434440D01*
X105051094Y-91429359D01*
X105049474Y-91420552D01*
X105054556Y-91413179D01*
X105058466Y-91411559D01*
X105702453Y-91273759D01*
X105704901Y-91273500D01*
X105710251Y-91273500D01*
X105710887Y-91273535D01*
G37*
%TD.AperFunction*%
%TD*%
%TA.AperFunction,Conductor*%
%TO.N,/LED1*%
G36*
X145617395Y-85311843D02*
G01*
X145923403Y-85466525D01*
X146162842Y-85587558D01*
X146168680Y-85594349D01*
X146168006Y-85603278D01*
X146162842Y-85608442D01*
X145617403Y-85884152D01*
X145608474Y-85884826D01*
X145607625Y-85884510D01*
X145227200Y-85725999D01*
X145220881Y-85719654D01*
X145220000Y-85715199D01*
X145220000Y-85480800D01*
X145223427Y-85472527D01*
X145227200Y-85470000D01*
X145607626Y-85311488D01*
X145616580Y-85311470D01*
X145617395Y-85311843D01*
G37*
%TD.AperFunction*%
%TD*%
%TA.AperFunction,Conductor*%
%TO.N,Net-(J102-Pin_2)*%
G36*
X158311768Y-92085624D02*
G01*
X158312014Y-92086177D01*
X158622134Y-92832511D01*
X158622144Y-92841465D01*
X158622134Y-92841489D01*
X158312014Y-93587822D01*
X158305675Y-93594147D01*
X158296721Y-93594137D01*
X158296168Y-93593891D01*
X156979658Y-92965179D01*
X156973669Y-92958521D01*
X156973000Y-92954621D01*
X156973000Y-92719378D01*
X156976427Y-92711105D01*
X156979656Y-92708821D01*
X158296169Y-92080107D01*
X158305110Y-92079635D01*
X158311768Y-92085624D01*
G37*
%TD.AperFunction*%
%TD*%
%TA.AperFunction,Conductor*%
%TO.N,GND*%
G36*
X104478910Y-83579985D02*
G01*
X104728191Y-83831262D01*
X104960825Y-84065760D01*
X104964219Y-84074047D01*
X104960825Y-84082240D01*
X104478912Y-84568013D01*
X104470653Y-84571473D01*
X104465415Y-84570258D01*
X103974509Y-84327222D01*
X103968615Y-84320481D01*
X103968000Y-84316737D01*
X103968000Y-83831262D01*
X103971427Y-83822989D01*
X103974506Y-83820778D01*
X104465416Y-83577740D01*
X104474350Y-83577141D01*
X104478910Y-83579985D01*
G37*
%TD.AperFunction*%
%TD*%
%TA.AperFunction,Conductor*%
%TO.N,GND*%
G36*
X145558460Y-80712537D02*
G01*
X145565436Y-80718150D01*
X145566872Y-80723765D01*
X145566872Y-81204482D01*
X145563445Y-81212755D01*
X145556414Y-81216116D01*
X144792909Y-81297621D01*
X144784319Y-81295092D01*
X144780033Y-81287229D01*
X144779967Y-81286026D01*
X144779005Y-80901350D01*
X144779904Y-80896829D01*
X144929041Y-80539117D01*
X144935388Y-80532800D01*
X144943125Y-80532391D01*
X145558460Y-80712537D01*
G37*
%TD.AperFunction*%
%TD*%
%TA.AperFunction,Conductor*%
%TO.N,/EN*%
G36*
X121517109Y-89683719D02*
G01*
X121523427Y-89690066D01*
X121523551Y-89698655D01*
X121285859Y-90327437D01*
X121279728Y-90333964D01*
X121274915Y-90335000D01*
X121041085Y-90335000D01*
X121032812Y-90331573D01*
X121030141Y-90327437D01*
X120792448Y-89698655D01*
X120792728Y-89689705D01*
X120798889Y-89683719D01*
X121153500Y-89535875D01*
X121162449Y-89535855D01*
X121517109Y-89683719D01*
G37*
%TD.AperFunction*%
%TD*%
%TA.AperFunction,Conductor*%
%TO.N,+5V*%
G36*
X149705873Y-80660292D02*
G01*
X149710894Y-80665964D01*
X149859123Y-81021498D01*
X149859144Y-81030452D01*
X149859123Y-81030502D01*
X149711625Y-81384282D01*
X149705278Y-81390600D01*
X149696324Y-81390579D01*
X149695868Y-81390378D01*
X149078876Y-81101753D01*
X149072835Y-81095143D01*
X149072134Y-81091155D01*
X149072134Y-80840311D01*
X149075561Y-80832038D01*
X149080724Y-80829032D01*
X149696987Y-80659187D01*
X149705873Y-80660292D01*
G37*
%TD.AperFunction*%
%TD*%
%TA.AperFunction,Conductor*%
%TO.N,Net-(R103-Pad1)*%
G36*
X150847648Y-86087361D02*
G01*
X151248420Y-86415164D01*
X151252654Y-86423054D01*
X151250068Y-86431628D01*
X151249639Y-86432124D01*
X150910206Y-86802599D01*
X150902090Y-86806384D01*
X150898662Y-86806025D01*
X150390783Y-86675261D01*
X150383625Y-86669880D01*
X150382000Y-86663931D01*
X150382000Y-86428876D01*
X150385427Y-86420603D01*
X150386713Y-86419491D01*
X150392525Y-86415164D01*
X150833255Y-86087031D01*
X150841935Y-86084840D01*
X150847648Y-86087361D01*
G37*
%TD.AperFunction*%
%TD*%
%TA.AperFunction,Conductor*%
%TO.N,/EN*%
G36*
X119558572Y-82716437D02*
G01*
X119723806Y-82881671D01*
X119727233Y-82889944D01*
X119726901Y-82892710D01*
X119559972Y-83578834D01*
X119554687Y-83586062D01*
X119545838Y-83587436D01*
X119544152Y-83586888D01*
X119188672Y-83440603D01*
X119184830Y-83438035D01*
X118914235Y-83166085D01*
X118910829Y-83157804D01*
X118914277Y-83149539D01*
X118915882Y-83148205D01*
X119543655Y-82715079D01*
X119552410Y-82713202D01*
X119558572Y-82716437D01*
G37*
%TD.AperFunction*%
%TD*%
%TA.AperFunction,Conductor*%
%TO.N,GND*%
G36*
X142654046Y-76285465D02*
G01*
X143091552Y-76479912D01*
X143097720Y-76486404D01*
X143098500Y-76490604D01*
X143098500Y-76975396D01*
X143095073Y-76983669D01*
X143091552Y-76986088D01*
X142654052Y-77180532D01*
X142645100Y-77180760D01*
X142643286Y-77179876D01*
X141914247Y-76743034D01*
X141908913Y-76735844D01*
X141910226Y-76726986D01*
X141914246Y-76722965D01*
X142643288Y-76286122D01*
X142652144Y-76284810D01*
X142654046Y-76285465D01*
G37*
%TD.AperFunction*%
%TD*%
%TA.AperFunction,Conductor*%
%TO.N,/IO0*%
G36*
X122070325Y-95990814D02*
G01*
X122424195Y-96136436D01*
X122430542Y-96142754D01*
X122430563Y-96142804D01*
X122577257Y-96499280D01*
X122577236Y-96508234D01*
X122572494Y-96513742D01*
X122034679Y-96839195D01*
X122025827Y-96840546D01*
X122020349Y-96837458D01*
X121855028Y-96672137D01*
X121851601Y-96663864D01*
X121852112Y-96660447D01*
X122054689Y-95998213D01*
X122060386Y-95991305D01*
X122069299Y-95990448D01*
X122070325Y-95990814D01*
G37*
%TD.AperFunction*%
%TD*%
%TA.AperFunction,Conductor*%
%TO.N,+5V*%
G36*
X149032275Y-88044341D02*
G01*
X149412596Y-88194477D01*
X149419033Y-88200703D01*
X149420000Y-88205360D01*
X149420000Y-88456639D01*
X149416573Y-88464912D01*
X149412596Y-88467522D01*
X149032288Y-88617653D01*
X149023335Y-88617503D01*
X149022714Y-88617212D01*
X148726582Y-88467522D01*
X148477156Y-88341441D01*
X148471319Y-88334651D01*
X148471993Y-88325722D01*
X148477157Y-88320558D01*
X149022716Y-88044786D01*
X149031643Y-88044113D01*
X149032275Y-88044341D01*
G37*
%TD.AperFunction*%
%TD*%
%TA.AperFunction,Conductor*%
%TO.N,Net-(J102-Pin_2)*%
G36*
X151616419Y-84392135D02*
G01*
X152125502Y-84644775D01*
X152131388Y-84651521D01*
X152132000Y-84655254D01*
X152132000Y-84890745D01*
X152128573Y-84899018D01*
X152125501Y-84901225D01*
X151616420Y-85153863D01*
X151607486Y-85154471D01*
X151602592Y-85151287D01*
X151371459Y-84899018D01*
X151263240Y-84780902D01*
X151260179Y-84772489D01*
X151263240Y-84765097D01*
X151602593Y-84394711D01*
X151610708Y-84390927D01*
X151616419Y-84392135D01*
G37*
%TD.AperFunction*%
%TD*%
%TA.AperFunction,Conductor*%
%TO.N,Net-(J103-Pin_2)*%
G36*
X151616419Y-88075135D02*
G01*
X152125502Y-88327775D01*
X152131388Y-88334521D01*
X152132000Y-88338254D01*
X152132000Y-88573745D01*
X152128573Y-88582018D01*
X152125501Y-88584225D01*
X151616420Y-88836863D01*
X151607486Y-88837471D01*
X151602592Y-88834287D01*
X151371459Y-88582018D01*
X151263240Y-88463902D01*
X151260179Y-88455489D01*
X151263240Y-88448097D01*
X151602593Y-88077711D01*
X151610708Y-88073927D01*
X151616419Y-88075135D01*
G37*
%TD.AperFunction*%
%TD*%
%TA.AperFunction,Conductor*%
%TO.N,+3.3V*%
G36*
X115767039Y-76575285D02*
G01*
X115812794Y-76628089D01*
X115824000Y-76679600D01*
X115824000Y-78920800D01*
X115804315Y-78987839D01*
X115751511Y-79033594D01*
X115700000Y-79044800D01*
X111020400Y-79044800D01*
X110953361Y-79025115D01*
X110907606Y-78972311D01*
X110896400Y-78920800D01*
X110896400Y-76679600D01*
X110916085Y-76612561D01*
X110968889Y-76566806D01*
X111020400Y-76555600D01*
X115700000Y-76555600D01*
X115767039Y-76575285D01*
G37*
%TD.AperFunction*%
%TD*%
%TA.AperFunction,Conductor*%
%TO.N,Net-(Q401A-B1)*%
G36*
X119962365Y-85963631D02*
G01*
X119965047Y-85967796D01*
X120035192Y-86154850D01*
X120034888Y-86163800D01*
X120034210Y-86165076D01*
X119847173Y-86469948D01*
X119839926Y-86475208D01*
X119831082Y-86473803D01*
X119827227Y-86469948D01*
X119640189Y-86165076D01*
X119638784Y-86156232D01*
X119639203Y-86154860D01*
X119709353Y-85967796D01*
X119715467Y-85961253D01*
X119720308Y-85960204D01*
X119954092Y-85960204D01*
X119962365Y-85963631D01*
G37*
%TD.AperFunction*%
%TD*%
%TA.AperFunction,Conductor*%
%TO.N,GND*%
G36*
X104231006Y-96583135D02*
G01*
X104236974Y-96586496D01*
X104793041Y-96899644D01*
X104798568Y-96906690D01*
X104799000Y-96909839D01*
X104799000Y-97146160D01*
X104795573Y-97154433D01*
X104793041Y-97156355D01*
X104231008Y-97472863D01*
X104222118Y-97473936D01*
X104215771Y-97469503D01*
X103989000Y-97154433D01*
X103902918Y-97034834D01*
X103900867Y-97026118D01*
X103902919Y-97021165D01*
X103983046Y-96909839D01*
X104215772Y-96586494D01*
X104223385Y-96581783D01*
X104231006Y-96583135D01*
G37*
%TD.AperFunction*%
%TD*%
%TA.AperFunction,Conductor*%
%TO.N,/USB-TTL-AutoProgram/D_P*%
G36*
X106930604Y-91248527D02*
G01*
X106934031Y-91256771D01*
X106934987Y-91639224D01*
X106931581Y-91647505D01*
X106931546Y-91647541D01*
X106658739Y-91919387D01*
X106650459Y-91922799D01*
X106642958Y-91920061D01*
X106214080Y-91560106D01*
X106209946Y-91552162D01*
X106209902Y-91551144D01*
X106209902Y-91300390D01*
X106213329Y-91292117D01*
X106220869Y-91288713D01*
X106917848Y-91245110D01*
X106918195Y-91245100D01*
X106922331Y-91245100D01*
X106930604Y-91248527D01*
G37*
%TD.AperFunction*%
%TD*%
%TA.AperFunction,Conductor*%
%TO.N,+3.3V*%
G36*
X130162044Y-96117253D02*
G01*
X130168206Y-96123239D01*
X130444747Y-96735928D01*
X130445027Y-96744878D01*
X130442356Y-96749014D01*
X130277014Y-96914356D01*
X130268741Y-96917783D01*
X130263928Y-96916747D01*
X129651239Y-96640206D01*
X129645108Y-96633679D01*
X129645232Y-96625090D01*
X129791437Y-96269802D01*
X129797753Y-96263457D01*
X130153090Y-96117232D01*
X130162044Y-96117253D01*
G37*
%TD.AperFunction*%
%TD*%
%TA.AperFunction,Conductor*%
%TO.N,Net-(R103-Pad1)*%
G36*
X149032368Y-86261486D02*
G01*
X149033233Y-86261847D01*
X149412800Y-86420000D01*
X149419119Y-86426345D01*
X149420000Y-86430800D01*
X149420000Y-86665199D01*
X149416573Y-86673472D01*
X149412800Y-86675999D01*
X149032374Y-86834510D01*
X149023419Y-86834529D01*
X149022596Y-86834152D01*
X148477157Y-86558442D01*
X148471319Y-86551651D01*
X148471993Y-86542722D01*
X148477157Y-86537558D01*
X149022597Y-86261846D01*
X149031525Y-86261173D01*
X149032368Y-86261486D01*
G37*
%TD.AperFunction*%
%TD*%
%TA.AperFunction,Conductor*%
%TO.N,/USB-TTL-AutoProgram/D_P*%
G36*
X105845611Y-90291029D02*
G01*
X105853447Y-90295360D01*
X105856000Y-90302655D01*
X105856000Y-90548712D01*
X105852573Y-90556985D01*
X105845356Y-90560364D01*
X105752923Y-90568745D01*
X105752223Y-90568766D01*
X105726058Y-90568000D01*
X105699484Y-90568000D01*
X105699481Y-90568000D01*
X105688679Y-90568570D01*
X105688677Y-90568570D01*
X105688668Y-90568570D01*
X105688666Y-90568571D01*
X105688532Y-90568585D01*
X105688266Y-90568613D01*
X105684591Y-90568419D01*
X105642442Y-90559400D01*
X105592494Y-90548712D01*
X105058882Y-90434529D01*
X105051509Y-90429447D01*
X105049889Y-90420640D01*
X105054971Y-90413267D01*
X105058913Y-90411640D01*
X105704159Y-90275692D01*
X105707874Y-90275516D01*
X105845611Y-90291029D01*
G37*
%TD.AperFunction*%
%TD*%
%TA.AperFunction,Conductor*%
%TO.N,/EN*%
G36*
X119546309Y-83587719D02*
G01*
X119552627Y-83594066D01*
X119552751Y-83602655D01*
X119315059Y-84231437D01*
X119308928Y-84237964D01*
X119304115Y-84239000D01*
X119070285Y-84239000D01*
X119062012Y-84235573D01*
X119059341Y-84231437D01*
X118821648Y-83602655D01*
X118821928Y-83593705D01*
X118828089Y-83587719D01*
X119182700Y-83439875D01*
X119191649Y-83439855D01*
X119546309Y-83587719D01*
G37*
%TD.AperFunction*%
%TD*%
%TA.AperFunction,Conductor*%
%TO.N,Net-(J104-Pin_2)*%
G36*
X138936895Y-102112427D02*
G01*
X138939180Y-102115658D01*
X139567891Y-103432168D01*
X139568364Y-103441110D01*
X139562375Y-103447768D01*
X139561822Y-103448014D01*
X138815489Y-103758134D01*
X138806535Y-103758144D01*
X138806511Y-103758134D01*
X138060177Y-103448014D01*
X138053852Y-103441675D01*
X138053862Y-103432721D01*
X138054101Y-103432183D01*
X138682820Y-102115657D01*
X138689478Y-102109669D01*
X138693378Y-102109000D01*
X138928622Y-102109000D01*
X138936895Y-102112427D01*
G37*
%TD.AperFunction*%
%TD*%
%TA.AperFunction,Conductor*%
%TO.N,Net-(J101-Pin_2)*%
G36*
X158311768Y-81544624D02*
G01*
X158312014Y-81545177D01*
X158622134Y-82291511D01*
X158622144Y-82300465D01*
X158622134Y-82300489D01*
X158312014Y-83046822D01*
X158305675Y-83053147D01*
X158296721Y-83053137D01*
X158296168Y-83052891D01*
X156979658Y-82424179D01*
X156973669Y-82417521D01*
X156973000Y-82413621D01*
X156973000Y-82178378D01*
X156976427Y-82170105D01*
X156979656Y-82167821D01*
X158296169Y-81539107D01*
X158305110Y-81538635D01*
X158311768Y-81544624D01*
G37*
%TD.AperFunction*%
%TD*%
%TA.AperFunction,Conductor*%
%TO.N,Net-(LED101-A)*%
G36*
X112632563Y-74370636D02*
G01*
X113159149Y-74674622D01*
X113164601Y-74681726D01*
X113165000Y-74684755D01*
X113165000Y-74921244D01*
X113161573Y-74929517D01*
X113159149Y-74931377D01*
X112632564Y-75235362D01*
X112623686Y-75236530D01*
X112617422Y-75232338D01*
X112294438Y-74810109D01*
X112292133Y-74801455D01*
X112294438Y-74795891D01*
X112381768Y-74681726D01*
X112617422Y-74373660D01*
X112625170Y-74369172D01*
X112632563Y-74370636D01*
G37*
%TD.AperFunction*%
%TD*%
%TA.AperFunction,Conductor*%
%TO.N,GND*%
G36*
X144792907Y-93581377D02*
G01*
X145556415Y-93662883D01*
X145564277Y-93667169D01*
X145566872Y-93674517D01*
X145566872Y-94155234D01*
X145563445Y-94163507D01*
X145558459Y-94166463D01*
X144943127Y-94346608D01*
X144934225Y-94345643D01*
X144929041Y-94339881D01*
X144925909Y-94332371D01*
X144779905Y-93982171D01*
X144779005Y-93977648D01*
X144779967Y-93592981D01*
X144783415Y-93584718D01*
X144791696Y-93581312D01*
X144792907Y-93581377D01*
G37*
%TD.AperFunction*%
%TD*%
%TA.AperFunction,Conductor*%
%TO.N,/USB-TTL-AutoProgram/D_P*%
G36*
X107563854Y-89827714D02*
G01*
X107570172Y-89834061D01*
X107570151Y-89843015D01*
X107570121Y-89843087D01*
X107289248Y-90504306D01*
X107282859Y-90510581D01*
X107273905Y-90510501D01*
X107270206Y-90508005D01*
X107094817Y-90332616D01*
X107092696Y-90329714D01*
X106841460Y-89843545D01*
X106840706Y-89834622D01*
X106846483Y-89827780D01*
X106847358Y-89827372D01*
X107201385Y-89680333D01*
X107210337Y-89680325D01*
X107563854Y-89827714D01*
G37*
%TD.AperFunction*%
%TD*%
%TA.AperFunction,Conductor*%
%TO.N,GND*%
G36*
X127686366Y-95607864D02*
G01*
X127689713Y-95614774D01*
X127779471Y-96379969D01*
X127777032Y-96388585D01*
X127769214Y-96392952D01*
X127767880Y-96393032D01*
X127383355Y-96393994D01*
X127378824Y-96393093D01*
X127020990Y-96243905D01*
X127014673Y-96237559D01*
X127014222Y-96229969D01*
X127186115Y-95612996D01*
X127191637Y-95605947D01*
X127197386Y-95604437D01*
X127678093Y-95604437D01*
X127686366Y-95607864D01*
G37*
%TD.AperFunction*%
%TD*%
%TA.AperFunction,Conductor*%
%TO.N,/ESP_TX*%
G36*
X102632470Y-79051259D02*
G01*
X102637046Y-79054087D01*
X102800959Y-79218000D01*
X102804386Y-79226273D01*
X102800959Y-79234546D01*
X102798422Y-79236471D01*
X102143056Y-79605095D01*
X102134165Y-79606164D01*
X102127122Y-79600633D01*
X102126521Y-79599400D01*
X101982166Y-79253200D01*
X101982145Y-79244248D01*
X102127411Y-78894503D01*
X102133748Y-78888179D01*
X102141912Y-78887892D01*
X102632470Y-79051259D01*
G37*
%TD.AperFunction*%
%TD*%
%TA.AperFunction,Conductor*%
%TO.N,GND*%
G36*
X145558460Y-84395537D02*
G01*
X145565436Y-84401150D01*
X145566872Y-84406765D01*
X145566872Y-84887482D01*
X145563445Y-84895755D01*
X145556414Y-84899116D01*
X144792909Y-84980621D01*
X144784319Y-84978092D01*
X144780033Y-84970229D01*
X144779967Y-84969026D01*
X144779005Y-84584350D01*
X144779904Y-84579829D01*
X144929041Y-84222117D01*
X144935388Y-84215800D01*
X144943125Y-84215391D01*
X145558460Y-84395537D01*
G37*
%TD.AperFunction*%
%TD*%
%TA.AperFunction,Conductor*%
%TO.N,/ESP_RX*%
G36*
X141155113Y-81366963D02*
G01*
X141882751Y-81802964D01*
X141888086Y-81810156D01*
X141886773Y-81819014D01*
X141882751Y-81823036D01*
X141155113Y-82259036D01*
X141146255Y-82260349D01*
X141142249Y-82258485D01*
X140703350Y-81941502D01*
X140698649Y-81933880D01*
X140698500Y-81932017D01*
X140698500Y-81693982D01*
X140701927Y-81685709D01*
X140703350Y-81684497D01*
X141142250Y-81367513D01*
X141150962Y-81365448D01*
X141155113Y-81366963D01*
G37*
%TD.AperFunction*%
%TD*%
%TA.AperFunction,Conductor*%
%TO.N,/ESP_TX*%
G36*
X141155113Y-80096963D02*
G01*
X141882751Y-80532964D01*
X141888086Y-80540156D01*
X141886773Y-80549014D01*
X141882751Y-80553036D01*
X141155113Y-80989036D01*
X141146255Y-80990349D01*
X141142249Y-80988485D01*
X140703350Y-80671502D01*
X140698649Y-80663880D01*
X140698500Y-80662017D01*
X140698500Y-80423982D01*
X140701927Y-80415709D01*
X140703350Y-80414497D01*
X141142250Y-80097513D01*
X141150962Y-80095448D01*
X141155113Y-80096963D01*
G37*
%TD.AperFunction*%
%TD*%
%TA.AperFunction,Conductor*%
%TO.N,Net-(C201-Pad1)*%
G36*
X108533757Y-81792503D02*
G01*
X108537657Y-81796127D01*
X108637897Y-81945063D01*
X108834872Y-82237730D01*
X108836649Y-82246507D01*
X108833968Y-82251972D01*
X108480221Y-82655870D01*
X108472192Y-82659835D01*
X108466829Y-82658923D01*
X107971010Y-82447432D01*
X107964744Y-82441034D01*
X107963900Y-82436670D01*
X107963900Y-81953336D01*
X107967327Y-81945063D01*
X107972519Y-81942048D01*
X108524876Y-81791374D01*
X108533757Y-81792503D01*
G37*
%TD.AperFunction*%
%TD*%
%TA.AperFunction,Conductor*%
%TO.N,/LED3*%
G36*
X138874514Y-94504726D02*
G01*
X138878534Y-94508746D01*
X139051350Y-94797157D01*
X139314536Y-95236386D01*
X139315849Y-95245244D01*
X139313985Y-95249250D01*
X138997003Y-95688150D01*
X138989381Y-95692851D01*
X138987518Y-95693000D01*
X138749482Y-95693000D01*
X138741209Y-95689573D01*
X138739997Y-95688150D01*
X138423014Y-95249250D01*
X138420948Y-95240537D01*
X138422463Y-95236386D01*
X138858465Y-94508747D01*
X138865656Y-94503413D01*
X138874514Y-94504726D01*
G37*
%TD.AperFunction*%
%TD*%
%TA.AperFunction,Conductor*%
%TO.N,GND*%
G36*
X103645817Y-83676590D02*
G01*
X104422457Y-83822210D01*
X104429956Y-83827103D01*
X104432000Y-83833710D01*
X104432000Y-84314289D01*
X104428573Y-84322562D01*
X104422456Y-84325789D01*
X103645820Y-84471408D01*
X103637057Y-84469564D01*
X103632164Y-84462064D01*
X103631964Y-84459946D01*
X103631000Y-84074000D01*
X103631964Y-83688059D01*
X103635412Y-83679797D01*
X103643693Y-83676391D01*
X103645817Y-83676590D01*
G37*
%TD.AperFunction*%
%TD*%
%TA.AperFunction,Conductor*%
%TO.N,+3.3V*%
G36*
X115450902Y-74809240D02*
G01*
X115822599Y-75149794D01*
X115826384Y-75157909D01*
X115826025Y-75161337D01*
X115695261Y-75669217D01*
X115689880Y-75676375D01*
X115683931Y-75678000D01*
X115202069Y-75678000D01*
X115193796Y-75674573D01*
X115190739Y-75669217D01*
X115150109Y-75511415D01*
X115059974Y-75161335D01*
X115061229Y-75152471D01*
X115063394Y-75149799D01*
X115435097Y-74809240D01*
X115443511Y-74806179D01*
X115450902Y-74809240D01*
G37*
%TD.AperFunction*%
%TD*%
%TA.AperFunction,Conductor*%
%TO.N,GND*%
G36*
X111797098Y-89387104D02*
G01*
X111815965Y-89405267D01*
X112207870Y-89782548D01*
X112211454Y-89790754D01*
X112211456Y-89790976D01*
X112211456Y-90024723D01*
X112208029Y-90032996D01*
X112200187Y-90036415D01*
X111518100Y-90061554D01*
X111509706Y-90058434D01*
X111505977Y-90050293D01*
X111505969Y-90049932D01*
X111505012Y-89666874D01*
X111508418Y-89658594D01*
X111780727Y-89387244D01*
X111789005Y-89383833D01*
X111797098Y-89387104D01*
G37*
%TD.AperFunction*%
%TD*%
%TA.AperFunction,Conductor*%
%TO.N,/LED3*%
G36*
X145617395Y-92677843D02*
G01*
X145923403Y-92832525D01*
X146162842Y-92953558D01*
X146168680Y-92960349D01*
X146168006Y-92969278D01*
X146162842Y-92974442D01*
X145617403Y-93250152D01*
X145608474Y-93250826D01*
X145607625Y-93250510D01*
X145227200Y-93091999D01*
X145220881Y-93085654D01*
X145220000Y-93081199D01*
X145220000Y-92846800D01*
X145223427Y-92838527D01*
X145227200Y-92836000D01*
X145607626Y-92677488D01*
X145616580Y-92677470D01*
X145617395Y-92677843D01*
G37*
%TD.AperFunction*%
%TD*%
%TA.AperFunction,Conductor*%
%TO.N,Net-(LED102-A)*%
G36*
X112632563Y-72592636D02*
G01*
X113159149Y-72896622D01*
X113164601Y-72903726D01*
X113165000Y-72906755D01*
X113165000Y-73143244D01*
X113161573Y-73151517D01*
X113159149Y-73153377D01*
X112632564Y-73457362D01*
X112623686Y-73458530D01*
X112617422Y-73454338D01*
X112294438Y-73032109D01*
X112292133Y-73023455D01*
X112294438Y-73017891D01*
X112381768Y-72903726D01*
X112617422Y-72595660D01*
X112625170Y-72591172D01*
X112632563Y-72592636D01*
G37*
%TD.AperFunction*%
%TD*%
%TA.AperFunction,Conductor*%
%TO.N,/USB-TTL-AutoProgram/DTR*%
G36*
X121798680Y-84349448D02*
G01*
X121801727Y-84352475D01*
X122067095Y-84737066D01*
X122068973Y-84745822D01*
X122064607Y-84752979D01*
X121654587Y-85068941D01*
X121645942Y-85071276D01*
X121640081Y-85068765D01*
X121201736Y-84713716D01*
X121197464Y-84705846D01*
X121197400Y-84704624D01*
X121197400Y-84469889D01*
X121200827Y-84461616D01*
X121206913Y-84458396D01*
X121789914Y-84347626D01*
X121798680Y-84349448D01*
G37*
%TD.AperFunction*%
%TD*%
%TA.AperFunction,Conductor*%
%TO.N,Net-(R106-Pad1)*%
G36*
X150847648Y-89770361D02*
G01*
X151248420Y-90098164D01*
X151252654Y-90106054D01*
X151250068Y-90114628D01*
X151249639Y-90115124D01*
X150910206Y-90485599D01*
X150902090Y-90489384D01*
X150898662Y-90489025D01*
X150390783Y-90358261D01*
X150383625Y-90352880D01*
X150382000Y-90346931D01*
X150382000Y-90111876D01*
X150385427Y-90103603D01*
X150386713Y-90102491D01*
X150392525Y-90098164D01*
X150833255Y-89770031D01*
X150841935Y-89767840D01*
X150847648Y-89770361D01*
G37*
%TD.AperFunction*%
%TD*%
%TA.AperFunction,Conductor*%
%TO.N,/ESP_TX*%
G36*
X116056109Y-81301719D02*
G01*
X116062427Y-81308066D01*
X116062551Y-81316655D01*
X115824859Y-81945437D01*
X115818728Y-81951964D01*
X115813915Y-81953000D01*
X115580085Y-81953000D01*
X115571812Y-81949573D01*
X115569141Y-81945437D01*
X115331448Y-81316655D01*
X115331728Y-81307705D01*
X115337889Y-81301719D01*
X115692500Y-81153875D01*
X115701449Y-81153855D01*
X116056109Y-81301719D01*
G37*
%TD.AperFunction*%
%TD*%
%TA.AperFunction,Conductor*%
%TO.N,GND*%
G36*
X122902620Y-106279955D02*
G01*
X123384485Y-106640633D01*
X123389055Y-106648334D01*
X123386841Y-106657011D01*
X123384485Y-106659367D01*
X122902620Y-107020044D01*
X122893943Y-107022258D01*
X122889119Y-107020412D01*
X122526210Y-106778473D01*
X122521227Y-106771033D01*
X122521000Y-106768738D01*
X122521000Y-106531261D01*
X122524427Y-106522988D01*
X122526205Y-106521529D01*
X122889119Y-106279586D01*
X122897904Y-106277849D01*
X122902620Y-106279955D01*
G37*
%TD.AperFunction*%
%TD*%
%TA.AperFunction,Conductor*%
%TO.N,GND*%
G36*
X145673342Y-84349952D02*
G01*
X145969062Y-84522720D01*
X146166208Y-84637898D01*
X146171623Y-84645030D01*
X146170408Y-84653902D01*
X146166208Y-84658102D01*
X145673344Y-84946046D01*
X145666150Y-84947572D01*
X145230408Y-84899156D01*
X145222564Y-84894837D01*
X145220000Y-84887528D01*
X145220000Y-84408471D01*
X145223427Y-84400198D01*
X145230406Y-84396843D01*
X145666152Y-84348427D01*
X145673342Y-84349952D01*
G37*
%TD.AperFunction*%
%TD*%
%TA.AperFunction,Conductor*%
%TO.N,GND*%
G36*
X100002696Y-83968890D02*
G01*
X100614437Y-84200141D01*
X100620964Y-84206272D01*
X100622000Y-84211085D01*
X100622000Y-84444914D01*
X100618573Y-84453187D01*
X100614437Y-84455858D01*
X99985655Y-84693551D01*
X99976705Y-84693271D01*
X99970719Y-84687109D01*
X99874306Y-84455858D01*
X99822875Y-84332499D01*
X99822855Y-84323550D01*
X99970719Y-83968889D01*
X99977066Y-83962572D01*
X99985654Y-83962448D01*
X100002696Y-83968890D01*
G37*
%TD.AperFunction*%
%TD*%
%TA.AperFunction,Conductor*%
%TO.N,GND*%
G36*
X114941834Y-96282919D02*
G01*
X115377925Y-96596794D01*
X115382638Y-96604408D01*
X115382145Y-96610121D01*
X115187727Y-97171131D01*
X115181780Y-97177826D01*
X115176672Y-97179000D01*
X114693328Y-97179000D01*
X114685055Y-97175573D01*
X114682273Y-97171131D01*
X114487853Y-96610121D01*
X114488382Y-96601182D01*
X114492071Y-96596795D01*
X114928166Y-96282918D01*
X114936881Y-96280867D01*
X114941834Y-96282919D01*
G37*
%TD.AperFunction*%
%TD*%
%TA.AperFunction,Conductor*%
%TO.N,/IO0*%
G36*
X138847965Y-91544419D02*
G01*
X139049100Y-91699491D01*
X139349321Y-91930959D01*
X139353780Y-91938725D01*
X139351443Y-91947369D01*
X139350450Y-91948498D01*
X139185731Y-92113217D01*
X139179396Y-92116482D01*
X138570613Y-92218713D01*
X138561886Y-92216704D01*
X138557137Y-92209113D01*
X138556975Y-92207203D01*
X138556301Y-91825166D01*
X138559711Y-91816891D01*
X138832572Y-91545391D01*
X138840852Y-91541986D01*
X138847965Y-91544419D01*
G37*
%TD.AperFunction*%
%TD*%
%TA.AperFunction,Conductor*%
%TO.N,/USB-TTL-AutoProgram/D_N*%
G36*
X104277761Y-89776403D02*
G01*
X104280880Y-89776792D01*
X104291260Y-89777650D01*
X104299730Y-89778000D01*
X104312519Y-89778000D01*
X104323324Y-89777430D01*
X104323376Y-89777424D01*
X104323718Y-89777388D01*
X104327401Y-89777579D01*
X104953533Y-89911559D01*
X104960905Y-89916640D01*
X104962525Y-89925447D01*
X104957443Y-89932820D01*
X104953532Y-89934440D01*
X104309547Y-90072241D01*
X104307099Y-90072500D01*
X104301749Y-90072500D01*
X104301113Y-90072465D01*
X104166428Y-90057740D01*
X104158577Y-90053434D01*
X104156000Y-90046109D01*
X104156000Y-89799890D01*
X104159427Y-89791617D01*
X104166425Y-89788260D01*
X104275057Y-89776383D01*
X104277761Y-89776403D01*
G37*
%TD.AperFunction*%
%TD*%
%TA.AperFunction,Conductor*%
%TO.N,/IO0*%
G36*
X117349162Y-102153427D02*
G01*
X117349472Y-102153748D01*
X117686619Y-102517649D01*
X117689727Y-102526047D01*
X117687212Y-102532860D01*
X117403278Y-102891799D01*
X117395458Y-102896161D01*
X117386843Y-102893716D01*
X117386818Y-102893696D01*
X117384433Y-102891799D01*
X116930519Y-102530713D01*
X116926178Y-102522881D01*
X116927175Y-102516664D01*
X117092866Y-102156807D01*
X117099439Y-102150725D01*
X117103494Y-102150000D01*
X117340889Y-102150000D01*
X117349162Y-102153427D01*
G37*
%TD.AperFunction*%
%TD*%
%TA.AperFunction,Conductor*%
%TO.N,GND*%
G36*
X105922939Y-76072964D02*
G01*
X105931202Y-76076412D01*
X105934608Y-76084693D01*
X105934408Y-76086820D01*
X105788790Y-76863456D01*
X105783897Y-76870956D01*
X105777290Y-76873000D01*
X105296710Y-76873000D01*
X105288437Y-76869573D01*
X105285210Y-76863456D01*
X105139591Y-76086820D01*
X105141435Y-76078057D01*
X105148935Y-76073164D01*
X105151052Y-76072964D01*
X105537000Y-76072000D01*
X105922939Y-76072964D01*
G37*
%TD.AperFunction*%
%TD*%
%TA.AperFunction,Conductor*%
%TO.N,GND*%
G36*
X123303137Y-105388626D02*
G01*
X123309455Y-105394973D01*
X123309662Y-105395513D01*
X123490947Y-105906552D01*
X123563462Y-106110968D01*
X123562998Y-106119911D01*
X123556347Y-106125907D01*
X123552435Y-106126580D01*
X123321309Y-106126580D01*
X123316866Y-106125704D01*
X122793775Y-105911004D01*
X122787423Y-105904692D01*
X122787394Y-105895738D01*
X122934141Y-105540498D01*
X122940465Y-105534162D01*
X123294184Y-105388605D01*
X123303137Y-105388626D01*
G37*
%TD.AperFunction*%
%TD*%
%TA.AperFunction,Conductor*%
%TO.N,GND*%
G36*
X117883671Y-76948217D02*
G01*
X117890298Y-76954240D01*
X117891414Y-76959228D01*
X117891414Y-77193076D01*
X117887987Y-77201349D01*
X117884057Y-77203940D01*
X117257778Y-77454272D01*
X117248823Y-77454161D01*
X117242636Y-77447910D01*
X117094875Y-77093499D01*
X117094855Y-77084550D01*
X117242790Y-76729719D01*
X117249137Y-76723402D01*
X117257544Y-76723211D01*
X117883671Y-76948217D01*
G37*
%TD.AperFunction*%
%TD*%
%TA.AperFunction,Conductor*%
%TO.N,/ESP_RX*%
G36*
X109527696Y-72665890D02*
G01*
X110139437Y-72897141D01*
X110145964Y-72903272D01*
X110147000Y-72908085D01*
X110147000Y-73141914D01*
X110143573Y-73150187D01*
X110139437Y-73152858D01*
X109510655Y-73390551D01*
X109501705Y-73390271D01*
X109495719Y-73384109D01*
X109399306Y-73152858D01*
X109347875Y-73029499D01*
X109347855Y-73020550D01*
X109495719Y-72665889D01*
X109502066Y-72659572D01*
X109510654Y-72659448D01*
X109527696Y-72665890D01*
G37*
%TD.AperFunction*%
%TD*%
%TA.AperFunction,Conductor*%
%TO.N,/EN*%
G36*
X119312365Y-84063631D02*
G01*
X119315047Y-84067796D01*
X119385192Y-84254850D01*
X119384888Y-84263800D01*
X119384210Y-84265076D01*
X119197173Y-84569948D01*
X119189926Y-84575208D01*
X119181082Y-84573803D01*
X119177227Y-84569948D01*
X118990189Y-84265076D01*
X118988784Y-84256232D01*
X118989203Y-84254860D01*
X119059353Y-84067796D01*
X119065467Y-84061253D01*
X119070308Y-84060204D01*
X119304092Y-84060204D01*
X119312365Y-84063631D01*
G37*
%TD.AperFunction*%
%TD*%
%TA.AperFunction,Conductor*%
%TO.N,Net-(J101-Pin_2)*%
G36*
X151616419Y-80709135D02*
G01*
X152125502Y-80961775D01*
X152131388Y-80968521D01*
X152132000Y-80972254D01*
X152132000Y-81207745D01*
X152128573Y-81216018D01*
X152125501Y-81218225D01*
X151616420Y-81470863D01*
X151607486Y-81471471D01*
X151602592Y-81468287D01*
X151371459Y-81216018D01*
X151263240Y-81097902D01*
X151260179Y-81089489D01*
X151263240Y-81082097D01*
X151602593Y-80711711D01*
X151610708Y-80707927D01*
X151616419Y-80709135D01*
G37*
%TD.AperFunction*%
%TD*%
%TA.AperFunction,Conductor*%
%TO.N,GND*%
G36*
X145673342Y-80666952D02*
G01*
X145969062Y-80839720D01*
X146166208Y-80954898D01*
X146171623Y-80962030D01*
X146170408Y-80970902D01*
X146166208Y-80975102D01*
X145673344Y-81263046D01*
X145666150Y-81264572D01*
X145230408Y-81216156D01*
X145222564Y-81211837D01*
X145220000Y-81204528D01*
X145220000Y-80725471D01*
X145223427Y-80717198D01*
X145230406Y-80713843D01*
X145666152Y-80665427D01*
X145673342Y-80666952D01*
G37*
%TD.AperFunction*%
%TD*%
%TA.AperFunction,Conductor*%
%TO.N,Net-(J201-CC2)*%
G36*
X102488047Y-96106427D02*
G01*
X102490236Y-96109462D01*
X102777578Y-96683320D01*
X102778218Y-96692251D01*
X102774305Y-96697789D01*
X102356189Y-97023401D01*
X102347556Y-97025781D01*
X102341811Y-97023401D01*
X101923965Y-96698000D01*
X101919543Y-96690213D01*
X101920879Y-96683173D01*
X102233675Y-96109101D01*
X102240643Y-96103477D01*
X102243949Y-96103000D01*
X102479774Y-96103000D01*
X102488047Y-96106427D01*
G37*
%TD.AperFunction*%
%TD*%
%TA.AperFunction,Conductor*%
%TO.N,GND*%
G36*
X123653707Y-76286120D02*
G01*
X124361963Y-76710508D01*
X124382751Y-76722964D01*
X124388086Y-76730156D01*
X124386773Y-76739014D01*
X124382751Y-76743036D01*
X123653713Y-77179876D01*
X123644855Y-77181189D01*
X123642947Y-77180532D01*
X123205448Y-76986088D01*
X123199280Y-76979596D01*
X123198500Y-76975396D01*
X123198500Y-76490604D01*
X123201927Y-76482331D01*
X123205448Y-76479912D01*
X123642949Y-76285466D01*
X123651899Y-76285239D01*
X123653707Y-76286120D01*
G37*
%TD.AperFunction*%
%TD*%
%TA.AperFunction,Conductor*%
%TO.N,/USB-TTL-AutoProgram/DTR*%
G36*
X122274504Y-83949631D02*
G01*
X122276783Y-83952849D01*
X122500362Y-84419586D01*
X122500845Y-84428528D01*
X122496757Y-84434055D01*
X122080613Y-84741143D01*
X122071921Y-84743298D01*
X122065281Y-84739889D01*
X121762042Y-84428311D01*
X121713335Y-84378265D01*
X121710022Y-84369947D01*
X121712345Y-84363109D01*
X122020090Y-83950904D01*
X122027785Y-83946325D01*
X122029465Y-83946204D01*
X122266231Y-83946204D01*
X122274504Y-83949631D01*
G37*
%TD.AperFunction*%
%TD*%
%TA.AperFunction,Conductor*%
%TO.N,/EN*%
G36*
X108504881Y-102529587D02*
G01*
X108867790Y-102771527D01*
X108872773Y-102778966D01*
X108873000Y-102781261D01*
X108873000Y-103018738D01*
X108869573Y-103027011D01*
X108867790Y-103028473D01*
X108504880Y-103270412D01*
X108496095Y-103272150D01*
X108491379Y-103270044D01*
X108009514Y-102909367D01*
X108004944Y-102901666D01*
X108007158Y-102892989D01*
X108009514Y-102890633D01*
X108158701Y-102778966D01*
X108491380Y-102529954D01*
X108500056Y-102527741D01*
X108504881Y-102529587D01*
G37*
%TD.AperFunction*%
%TD*%
%TA.AperFunction,Conductor*%
%TO.N,+3.3V*%
G36*
X115459902Y-71253240D02*
G01*
X115755234Y-71523827D01*
X115831503Y-71593706D01*
X115835288Y-71601822D01*
X115834881Y-71605432D01*
X115695362Y-72113399D01*
X115689867Y-72120469D01*
X115684080Y-72122000D01*
X115202221Y-72122000D01*
X115193948Y-72118573D01*
X115190845Y-72113033D01*
X115068834Y-71605238D01*
X115070233Y-71596396D01*
X115072303Y-71593883D01*
X115444097Y-71253240D01*
X115452511Y-71250179D01*
X115459902Y-71253240D01*
G37*
%TD.AperFunction*%
%TD*%
%TA.AperFunction,Conductor*%
%TO.N,GND*%
G36*
X105788308Y-76408027D02*
G01*
X105790320Y-76410722D01*
X106059032Y-76906158D01*
X106059964Y-76915064D01*
X106056941Y-76920088D01*
X105669836Y-77299873D01*
X105661530Y-77303220D01*
X105656615Y-77302086D01*
X105196791Y-77083307D01*
X105190793Y-77076658D01*
X105190239Y-77071064D01*
X105285545Y-76414618D01*
X105290125Y-76406924D01*
X105297124Y-76404600D01*
X105780035Y-76404600D01*
X105788308Y-76408027D01*
G37*
%TD.AperFunction*%
%TD*%
%TA.AperFunction,Conductor*%
%TO.N,Net-(LED102-A)*%
G36*
X113447119Y-72632371D02*
G01*
X113787155Y-73017253D01*
X113790065Y-73025722D01*
X113787155Y-73032747D01*
X113447119Y-73417628D01*
X113439073Y-73421559D01*
X113432226Y-73419850D01*
X112998575Y-73153425D01*
X112993320Y-73146174D01*
X112993000Y-73143456D01*
X112993000Y-72906543D01*
X112996427Y-72898270D01*
X112998570Y-72896577D01*
X113432226Y-72630148D01*
X113441069Y-72628738D01*
X113447119Y-72632371D01*
G37*
%TD.AperFunction*%
%TD*%
%TA.AperFunction,Conductor*%
%TO.N,GND*%
G36*
X145673342Y-82566952D02*
G01*
X145969062Y-82739720D01*
X146166208Y-82854898D01*
X146171623Y-82862030D01*
X146170408Y-82870902D01*
X146166208Y-82875102D01*
X145673344Y-83163046D01*
X145666150Y-83164572D01*
X145230408Y-83116156D01*
X145222564Y-83111837D01*
X145220000Y-83104528D01*
X145220000Y-82625471D01*
X145223427Y-82617198D01*
X145230406Y-82613843D01*
X145666152Y-82565427D01*
X145673342Y-82566952D01*
G37*
%TD.AperFunction*%
%TD*%
%TA.AperFunction,Conductor*%
%TO.N,GND*%
G36*
X120105755Y-76647649D02*
G01*
X120679721Y-76947717D01*
X120685465Y-76954587D01*
X120686000Y-76958086D01*
X120686000Y-77193913D01*
X120682573Y-77202186D01*
X120679721Y-77204282D01*
X120105756Y-77504349D01*
X120096836Y-77505145D01*
X120091104Y-77501169D01*
X119765597Y-77083188D01*
X119763218Y-77074556D01*
X119765597Y-77068812D01*
X120091106Y-76650828D01*
X120098891Y-76646408D01*
X120105755Y-76647649D01*
G37*
%TD.AperFunction*%
%TD*%
%TA.AperFunction,Conductor*%
%TO.N,/ESP_RX*%
G36*
X109192294Y-72659728D02*
G01*
X109198280Y-72665890D01*
X109346123Y-73020498D01*
X109346144Y-73029452D01*
X109346123Y-73029502D01*
X109198280Y-73384109D01*
X109191933Y-73390427D01*
X109183344Y-73390551D01*
X108554563Y-73152858D01*
X108548036Y-73146727D01*
X108547000Y-73141914D01*
X108547000Y-72908085D01*
X108550427Y-72899812D01*
X108554563Y-72897141D01*
X109183345Y-72659448D01*
X109192294Y-72659728D01*
G37*
%TD.AperFunction*%
%TD*%
%TA.AperFunction,Conductor*%
%TO.N,Net-(LED103-A)*%
G36*
X112607563Y-70814636D02*
G01*
X113134149Y-71118622D01*
X113139601Y-71125726D01*
X113140000Y-71128755D01*
X113140000Y-71365244D01*
X113136573Y-71373517D01*
X113134149Y-71375377D01*
X112607564Y-71679362D01*
X112598686Y-71680530D01*
X112592422Y-71676338D01*
X112269438Y-71254109D01*
X112267133Y-71245455D01*
X112269438Y-71239891D01*
X112356768Y-71125726D01*
X112592422Y-70817660D01*
X112600170Y-70813172D01*
X112607563Y-70814636D01*
G37*
%TD.AperFunction*%
%TD*%
%TA.AperFunction,Conductor*%
%TO.N,Net-(R106-Pad1)*%
G36*
X149032368Y-89944486D02*
G01*
X149033233Y-89944847D01*
X149412800Y-90103000D01*
X149419119Y-90109345D01*
X149420000Y-90113800D01*
X149420000Y-90348199D01*
X149416573Y-90356472D01*
X149412800Y-90358999D01*
X149032374Y-90517510D01*
X149023419Y-90517529D01*
X149022596Y-90517152D01*
X148477157Y-90241442D01*
X148471319Y-90234651D01*
X148471993Y-90225722D01*
X148477157Y-90220558D01*
X149022597Y-89944846D01*
X149031525Y-89944173D01*
X149032368Y-89944486D01*
G37*
%TD.AperFunction*%
%TD*%
%TA.AperFunction,Conductor*%
%TO.N,/EN*%
G36*
X123655113Y-78826963D02*
G01*
X124382751Y-79262964D01*
X124388086Y-79270156D01*
X124386773Y-79279014D01*
X124382751Y-79283036D01*
X123655113Y-79719036D01*
X123646255Y-79720349D01*
X123642249Y-79718485D01*
X123203350Y-79401502D01*
X123198649Y-79393880D01*
X123198500Y-79392017D01*
X123198500Y-79153982D01*
X123201927Y-79145709D01*
X123203350Y-79144497D01*
X123642250Y-78827513D01*
X123650962Y-78825448D01*
X123655113Y-78826963D01*
G37*
%TD.AperFunction*%
%TD*%
%TA.AperFunction,Conductor*%
%TO.N,/EN*%
G36*
X113504620Y-102529955D02*
G01*
X113986485Y-102890633D01*
X113991055Y-102898334D01*
X113988841Y-102907011D01*
X113986485Y-102909367D01*
X113504620Y-103270044D01*
X113495943Y-103272258D01*
X113491119Y-103270412D01*
X113128210Y-103028473D01*
X113123227Y-103021033D01*
X113123000Y-103018738D01*
X113123000Y-102781261D01*
X113126427Y-102772988D01*
X113128205Y-102771529D01*
X113491119Y-102529586D01*
X113499904Y-102527849D01*
X113504620Y-102529955D01*
G37*
%TD.AperFunction*%
%TD*%
%TA.AperFunction,Conductor*%
%TO.N,Net-(Q401B-B2)*%
G36*
X119843318Y-84596604D02*
G01*
X119847171Y-84600457D01*
X119956739Y-84779052D01*
X120034210Y-84905331D01*
X120035615Y-84914175D01*
X120035192Y-84915557D01*
X119965047Y-85102612D01*
X119958934Y-85109155D01*
X119954092Y-85110204D01*
X119720308Y-85110204D01*
X119712035Y-85106777D01*
X119709353Y-85102612D01*
X119639207Y-84915557D01*
X119639511Y-84906608D01*
X119640185Y-84905337D01*
X119827228Y-84600458D01*
X119834474Y-84595199D01*
X119843318Y-84596604D01*
G37*
%TD.AperFunction*%
%TD*%
%TA.AperFunction,Conductor*%
%TO.N,GND*%
G36*
X111986505Y-94382279D02*
G01*
X111989304Y-94386772D01*
X112202213Y-95010362D01*
X112201644Y-95019298D01*
X112195643Y-95024941D01*
X111840702Y-95172923D01*
X111831748Y-95172944D01*
X111831698Y-95172923D01*
X111477480Y-95025243D01*
X111471162Y-95018896D01*
X111471182Y-95009943D01*
X111733587Y-94386015D01*
X111739953Y-94379719D01*
X111744372Y-94378852D01*
X111978232Y-94378852D01*
X111986505Y-94382279D01*
G37*
%TD.AperFunction*%
%TD*%
%TA.AperFunction,Conductor*%
%TO.N,GND*%
G36*
X104440030Y-86351759D02*
G01*
X105373951Y-86780176D01*
X105380042Y-86786740D01*
X105379707Y-86795688D01*
X105379273Y-86796542D01*
X105183563Y-87144821D01*
X105181636Y-87147362D01*
X104836372Y-87492626D01*
X104828099Y-87496053D01*
X104821113Y-87493738D01*
X104354330Y-87146223D01*
X104096379Y-86954181D01*
X104091790Y-86946492D01*
X104093200Y-86939005D01*
X104174360Y-86796542D01*
X104424990Y-86356601D01*
X104432061Y-86351110D01*
X104440030Y-86351759D01*
G37*
%TD.AperFunction*%
%TD*%
%TA.AperFunction,Conductor*%
%TO.N,/IO0*%
G36*
X122902620Y-102529955D02*
G01*
X123384485Y-102890633D01*
X123389055Y-102898334D01*
X123386841Y-102907011D01*
X123384485Y-102909367D01*
X122902620Y-103270044D01*
X122893943Y-103272258D01*
X122889119Y-103270412D01*
X122526210Y-103028473D01*
X122521227Y-103021033D01*
X122521000Y-103018738D01*
X122521000Y-102781261D01*
X122524427Y-102772988D01*
X122526205Y-102771529D01*
X122889119Y-102529586D01*
X122897904Y-102527849D01*
X122902620Y-102529955D01*
G37*
%TD.AperFunction*%
%TD*%
%TA.AperFunction,Conductor*%
%TO.N,+3.3V*%
G36*
X119426084Y-78196347D02*
G01*
X119429868Y-78199512D01*
X119756401Y-78618811D01*
X119758781Y-78627444D01*
X119756401Y-78633189D01*
X119429868Y-79052487D01*
X119422081Y-79056909D01*
X119417167Y-79056472D01*
X118844230Y-78878555D01*
X118837346Y-78872828D01*
X118836000Y-78867381D01*
X118836000Y-78384618D01*
X118839427Y-78376345D01*
X118844228Y-78373444D01*
X119417167Y-78195527D01*
X119426084Y-78196347D01*
G37*
%TD.AperFunction*%
%TD*%
%TA.AperFunction,Conductor*%
%TO.N,/IO0*%
G36*
X117902881Y-102529587D02*
G01*
X118265790Y-102771527D01*
X118270773Y-102778966D01*
X118271000Y-102781261D01*
X118271000Y-103018738D01*
X118267573Y-103027011D01*
X118265790Y-103028473D01*
X117902880Y-103270412D01*
X117894095Y-103272150D01*
X117889379Y-103270044D01*
X117407514Y-102909367D01*
X117402944Y-102901666D01*
X117405158Y-102892989D01*
X117407514Y-102890633D01*
X117556701Y-102778966D01*
X117889380Y-102529954D01*
X117898056Y-102527741D01*
X117902881Y-102529587D01*
G37*
%TD.AperFunction*%
%TD*%
%TA.AperFunction,Conductor*%
%TO.N,GND*%
G36*
X113504620Y-106279955D02*
G01*
X113986485Y-106640633D01*
X113991055Y-106648334D01*
X113988841Y-106657011D01*
X113986485Y-106659367D01*
X113504620Y-107020044D01*
X113495943Y-107022258D01*
X113491119Y-107020412D01*
X113128210Y-106778473D01*
X113123227Y-106771033D01*
X113123000Y-106768738D01*
X113123000Y-106531261D01*
X113126427Y-106522988D01*
X113128205Y-106521529D01*
X113491119Y-106279586D01*
X113499904Y-106277849D01*
X113504620Y-106279955D01*
G37*
%TD.AperFunction*%
%TD*%
%TA.AperFunction,Conductor*%
%TO.N,Net-(J201-CC2)*%
G36*
X104309547Y-92273759D02*
G01*
X104953532Y-92411559D01*
X104960905Y-92416641D01*
X104962525Y-92425448D01*
X104957443Y-92432821D01*
X104953532Y-92434441D01*
X104309547Y-92572241D01*
X104307099Y-92572500D01*
X104303969Y-92572500D01*
X104302046Y-92572341D01*
X104256622Y-92564770D01*
X104165776Y-92549629D01*
X104158179Y-92544888D01*
X104156000Y-92538088D01*
X104156000Y-92307911D01*
X104159427Y-92299638D01*
X104165775Y-92296370D01*
X104302046Y-92273659D01*
X104303969Y-92273500D01*
X104307099Y-92273500D01*
X104309547Y-92273759D01*
G37*
%TD.AperFunction*%
%TD*%
%TA.AperFunction,Conductor*%
%TO.N,VCC*%
G36*
X109161992Y-92780485D02*
G01*
X109207747Y-92833289D01*
X109218949Y-92885842D01*
X109170233Y-98683042D01*
X109149985Y-98749914D01*
X109096799Y-98795223D01*
X109046237Y-98806000D01*
X106626200Y-98806000D01*
X106559161Y-98786315D01*
X106513406Y-98733511D01*
X106502200Y-98682000D01*
X106502200Y-93395800D01*
X105837062Y-93395800D01*
X105789607Y-93386360D01*
X105784227Y-93384131D01*
X105725751Y-93372500D01*
X105725748Y-93372500D01*
X104543400Y-93372500D01*
X104476361Y-93352815D01*
X104430606Y-93300011D01*
X104419400Y-93248500D01*
X104419400Y-92897500D01*
X104439085Y-92830461D01*
X104491889Y-92784706D01*
X104543400Y-92773500D01*
X105725750Y-92773500D01*
X105777616Y-92763183D01*
X105801808Y-92760800D01*
X109094953Y-92760800D01*
X109161992Y-92780485D01*
G37*
%TD.AperFunction*%
%TD*%
%TA.AperFunction,Conductor*%
%TO.N,Net-(C201-Pad1)*%
G36*
X106789778Y-82199495D02*
G01*
X107287997Y-82686601D01*
X107291517Y-82694835D01*
X107290283Y-82700200D01*
X107034834Y-83211033D01*
X107028068Y-83216900D01*
X107024369Y-83217500D01*
X106538831Y-83217500D01*
X106530558Y-83214073D01*
X106528366Y-83211033D01*
X106272916Y-82700200D01*
X106272281Y-82691268D01*
X106275200Y-82686603D01*
X106773421Y-82199495D01*
X106781732Y-82196163D01*
X106789778Y-82199495D01*
G37*
%TD.AperFunction*%
%TD*%
%TA.AperFunction,Conductor*%
%TO.N,/USB-TTL-AutoProgram/D_N*%
G36*
X104309547Y-90773759D02*
G01*
X104953532Y-90911559D01*
X104960905Y-90916641D01*
X104962525Y-90925448D01*
X104957443Y-90932821D01*
X104953532Y-90934441D01*
X104309547Y-91072241D01*
X104307099Y-91072500D01*
X104301749Y-91072500D01*
X104301113Y-91072465D01*
X104166428Y-91057740D01*
X104158577Y-91053434D01*
X104156000Y-91046109D01*
X104156000Y-90799890D01*
X104159427Y-90791617D01*
X104166425Y-90788260D01*
X104241713Y-90780028D01*
X104301113Y-90773535D01*
X104301749Y-90773500D01*
X104307099Y-90773500D01*
X104309547Y-90773759D01*
G37*
%TD.AperFunction*%
%TD*%
%TA.AperFunction,Conductor*%
%TO.N,/EN*%
G36*
X114059462Y-102153427D02*
G01*
X114060511Y-102154630D01*
X114335512Y-102517235D01*
X114337781Y-102525898D01*
X114334829Y-102532195D01*
X114005911Y-102892337D01*
X113997802Y-102896135D01*
X113989382Y-102893086D01*
X113989359Y-102893065D01*
X113722496Y-102648028D01*
X113595447Y-102531369D01*
X113591672Y-102523250D01*
X113593251Y-102516863D01*
X113803615Y-102155810D01*
X113810741Y-102150387D01*
X113813724Y-102150000D01*
X114051189Y-102150000D01*
X114059462Y-102153427D01*
G37*
%TD.AperFunction*%
%TD*%
%TA.AperFunction,Conductor*%
%TO.N,+5V*%
G36*
X149032275Y-91727341D02*
G01*
X149412596Y-91877477D01*
X149419033Y-91883703D01*
X149420000Y-91888360D01*
X149420000Y-92139639D01*
X149416573Y-92147912D01*
X149412596Y-92150522D01*
X149032288Y-92300653D01*
X149023335Y-92300503D01*
X149022714Y-92300212D01*
X148726582Y-92150522D01*
X148477156Y-92024441D01*
X148471319Y-92017651D01*
X148471993Y-92008722D01*
X148477157Y-92003558D01*
X149022716Y-91727786D01*
X149031643Y-91727113D01*
X149032275Y-91727341D01*
G37*
%TD.AperFunction*%
%TD*%
%TA.AperFunction,Conductor*%
%TO.N,/ESP_RX*%
G36*
X102760408Y-77850154D02*
G01*
X102766951Y-77856266D01*
X102768000Y-77861109D01*
X102768000Y-78094890D01*
X102764573Y-78103163D01*
X102760407Y-78105846D01*
X102142150Y-78337587D01*
X102133200Y-78337282D01*
X102127244Y-78331134D01*
X102032120Y-78103000D01*
X101981876Y-77982501D01*
X101981856Y-77973548D01*
X102127244Y-77624864D01*
X102133591Y-77618548D01*
X102142148Y-77618412D01*
X102760408Y-77850154D01*
G37*
%TD.AperFunction*%
%TD*%
%TA.AperFunction,Conductor*%
%TO.N,GND*%
G36*
X109487817Y-70976590D02*
G01*
X110264457Y-71122210D01*
X110271956Y-71127103D01*
X110274000Y-71133710D01*
X110274000Y-71614289D01*
X110270573Y-71622562D01*
X110264456Y-71625789D01*
X109487820Y-71771408D01*
X109479057Y-71769564D01*
X109474164Y-71762064D01*
X109473964Y-71759946D01*
X109473000Y-71374000D01*
X109473964Y-70988059D01*
X109477412Y-70979797D01*
X109485693Y-70976391D01*
X109487817Y-70976590D01*
G37*
%TD.AperFunction*%
%TD*%
%TA.AperFunction,Conductor*%
%TO.N,+5V*%
G36*
X113754832Y-94298527D02*
G01*
X113767665Y-94302512D01*
X114327770Y-94476444D01*
X114334654Y-94482171D01*
X114336000Y-94487618D01*
X114336000Y-94970381D01*
X114332573Y-94978654D01*
X114327770Y-94981555D01*
X113754832Y-95159472D01*
X113745915Y-95158652D01*
X113742131Y-95155487D01*
X113597978Y-94970381D01*
X113415597Y-94736188D01*
X113413218Y-94727556D01*
X113415597Y-94721812D01*
X113742132Y-94302511D01*
X113749918Y-94298090D01*
X113754832Y-94298527D01*
G37*
%TD.AperFunction*%
%TD*%
%TA.AperFunction,Conductor*%
%TO.N,Net-(R102-Pad1)*%
G36*
X149032368Y-82578486D02*
G01*
X149033233Y-82578847D01*
X149412800Y-82737000D01*
X149419119Y-82743345D01*
X149420000Y-82747800D01*
X149420000Y-82982199D01*
X149416573Y-82990472D01*
X149412800Y-82992999D01*
X149032374Y-83151510D01*
X149023419Y-83151529D01*
X149022596Y-83151152D01*
X148477157Y-82875442D01*
X148471319Y-82868651D01*
X148471993Y-82859722D01*
X148477157Y-82854558D01*
X149022597Y-82578846D01*
X149031525Y-82578173D01*
X149032368Y-82578486D01*
G37*
%TD.AperFunction*%
%TD*%
%TA.AperFunction,Conductor*%
%TO.N,GND*%
G36*
X104874294Y-96662728D02*
G01*
X104880280Y-96668890D01*
X105028123Y-97023498D01*
X105028144Y-97032452D01*
X105028123Y-97032502D01*
X104880280Y-97387109D01*
X104873933Y-97393427D01*
X104865344Y-97393551D01*
X104236563Y-97155858D01*
X104230036Y-97149727D01*
X104229000Y-97144914D01*
X104229000Y-96911085D01*
X104232427Y-96902812D01*
X104236563Y-96900141D01*
X104865345Y-96662448D01*
X104874294Y-96662728D01*
G37*
%TD.AperFunction*%
%TD*%
%TA.AperFunction,Conductor*%
%TO.N,Net-(LED103-A)*%
G36*
X113456119Y-70854371D02*
G01*
X113796155Y-71239253D01*
X113799065Y-71247722D01*
X113796155Y-71254747D01*
X113456119Y-71639628D01*
X113448073Y-71643559D01*
X113441226Y-71641850D01*
X113007575Y-71375425D01*
X113002320Y-71368174D01*
X113002000Y-71365456D01*
X113002000Y-71128543D01*
X113005427Y-71120270D01*
X113007570Y-71118577D01*
X113441226Y-70852148D01*
X113450069Y-70850738D01*
X113456119Y-70854371D01*
G37*
%TD.AperFunction*%
%TD*%
%TA.AperFunction,Conductor*%
%TO.N,GND*%
G36*
X111352247Y-89296093D02*
G01*
X111356655Y-89301391D01*
X111506093Y-89659824D01*
X111506994Y-89664355D01*
X111506034Y-90048202D01*
X111502586Y-90056467D01*
X111494305Y-90059873D01*
X111492394Y-90059711D01*
X110718943Y-89929641D01*
X110711352Y-89924890D01*
X110709183Y-89918103D01*
X110709183Y-89437493D01*
X110712610Y-89429220D01*
X110718472Y-89426044D01*
X111343446Y-89294444D01*
X111352247Y-89296093D01*
G37*
%TD.AperFunction*%
%TD*%
%TA.AperFunction,Conductor*%
%TO.N,GND*%
G36*
X110304593Y-79443843D02*
G01*
X110312436Y-79448162D01*
X110315000Y-79455471D01*
X110315000Y-79934528D01*
X110311573Y-79942801D01*
X110304592Y-79946156D01*
X109868849Y-79994572D01*
X109861655Y-79993046D01*
X109779416Y-79945000D01*
X109368790Y-79705101D01*
X109363376Y-79697970D01*
X109364591Y-79689098D01*
X109368791Y-79684898D01*
X109861658Y-79396952D01*
X109868846Y-79395427D01*
X110304593Y-79443843D01*
G37*
%TD.AperFunction*%
%TD*%
%TA.AperFunction,Conductor*%
%TO.N,/USB-TTL-AutoProgram/D_N*%
G36*
X108531984Y-91031427D02*
G01*
X108533942Y-91034025D01*
X108693060Y-91320896D01*
X108694077Y-91329793D01*
X108691723Y-91334173D01*
X108405894Y-91668594D01*
X108397914Y-91672656D01*
X108389398Y-91669886D01*
X108388106Y-91668594D01*
X108102276Y-91334173D01*
X108099506Y-91325657D01*
X108100937Y-91320901D01*
X108260058Y-91034024D01*
X108267067Y-91028452D01*
X108270289Y-91028000D01*
X108523711Y-91028000D01*
X108531984Y-91031427D01*
G37*
%TD.AperFunction*%
%TD*%
%TA.AperFunction,Conductor*%
%TO.N,GND*%
G36*
X100508228Y-83886496D02*
G01*
X100821080Y-84321165D01*
X100823132Y-84329882D01*
X100821080Y-84334835D01*
X100508228Y-84769503D01*
X100500614Y-84774216D01*
X100492991Y-84772863D01*
X99930959Y-84456355D01*
X99925432Y-84449309D01*
X99925000Y-84446160D01*
X99925000Y-84209839D01*
X99928427Y-84201566D01*
X99930959Y-84199644D01*
X100492993Y-83883135D01*
X100501881Y-83882063D01*
X100508228Y-83886496D01*
G37*
%TD.AperFunction*%
%TD*%
%TA.AperFunction,Conductor*%
%TO.N,/LED2*%
G36*
X145617395Y-88994843D02*
G01*
X145923403Y-89149525D01*
X146162842Y-89270558D01*
X146168680Y-89277349D01*
X146168006Y-89286278D01*
X146162842Y-89291442D01*
X145617403Y-89567152D01*
X145608474Y-89567826D01*
X145607625Y-89567510D01*
X145227200Y-89408999D01*
X145220881Y-89402654D01*
X145220000Y-89398199D01*
X145220000Y-89163800D01*
X145223427Y-89155527D01*
X145227200Y-89153000D01*
X145607626Y-88994488D01*
X145616580Y-88994470D01*
X145617395Y-88994843D01*
G37*
%TD.AperFunction*%
%TD*%
%TA.AperFunction,Conductor*%
%TO.N,/IO0*%
G36*
X117580109Y-101621719D02*
G01*
X117586427Y-101628066D01*
X117586551Y-101636655D01*
X117348859Y-102265437D01*
X117342728Y-102271964D01*
X117337915Y-102273000D01*
X117104085Y-102273000D01*
X117095812Y-102269573D01*
X117093141Y-102265437D01*
X116855448Y-101636655D01*
X116855728Y-101627705D01*
X116861889Y-101621719D01*
X117216500Y-101473875D01*
X117225449Y-101473855D01*
X117580109Y-101621719D01*
G37*
%TD.AperFunction*%
%TD*%
%TA.AperFunction,Conductor*%
%TO.N,GND*%
G36*
X120749398Y-76723638D02*
G01*
X120755209Y-76729720D01*
X120903123Y-77084498D01*
X120903144Y-77093452D01*
X120903123Y-77093502D01*
X120755363Y-77447910D01*
X120749016Y-77454228D01*
X120740221Y-77454272D01*
X120113943Y-77203940D01*
X120107533Y-77197688D01*
X120106586Y-77193076D01*
X120106586Y-76959228D01*
X120110013Y-76950955D01*
X120114327Y-76948218D01*
X120740455Y-76723211D01*
X120749398Y-76723638D01*
G37*
%TD.AperFunction*%
%TD*%
%TA.AperFunction,Conductor*%
%TO.N,/LED0*%
G36*
X142654295Y-77647238D02*
G01*
X143118770Y-78047806D01*
X143122797Y-78055804D01*
X143119989Y-78064307D01*
X143119402Y-78064939D01*
X142952185Y-78232156D01*
X142950790Y-78233348D01*
X142654762Y-78448449D01*
X142646054Y-78450540D01*
X142641863Y-78449015D01*
X141916420Y-78013476D01*
X141911092Y-78006281D01*
X141912412Y-77997424D01*
X141917382Y-77992897D01*
X142641599Y-77645549D01*
X142650538Y-77645062D01*
X142654295Y-77647238D01*
G37*
%TD.AperFunction*%
%TD*%
%TA.AperFunction,Conductor*%
%TO.N,+3.3V*%
G36*
X115692204Y-73931427D02*
G01*
X115695261Y-73936783D01*
X115826025Y-74444662D01*
X115824770Y-74453528D01*
X115822599Y-74456206D01*
X115450904Y-74796758D01*
X115442489Y-74799820D01*
X115435096Y-74796758D01*
X115335660Y-74705653D01*
X115063399Y-74456204D01*
X115059615Y-74448090D01*
X115059973Y-74444668D01*
X115190739Y-73936783D01*
X115196120Y-73929625D01*
X115202069Y-73928000D01*
X115683931Y-73928000D01*
X115692204Y-73931427D01*
G37*
%TD.AperFunction*%
%TD*%
%TA.AperFunction,Conductor*%
%TO.N,+5V*%
G36*
X115235675Y-93832427D02*
G01*
X115238710Y-93837695D01*
X115390745Y-94409889D01*
X115389557Y-94418765D01*
X115386027Y-94422562D01*
X114943281Y-94724355D01*
X114934515Y-94726183D01*
X114928150Y-94722684D01*
X114642780Y-94417896D01*
X114562966Y-94332651D01*
X114559814Y-94324270D01*
X114562673Y-94316985D01*
X114982902Y-93833029D01*
X114990913Y-93829029D01*
X114991736Y-93829000D01*
X115227402Y-93829000D01*
X115235675Y-93832427D01*
G37*
%TD.AperFunction*%
%TD*%
%TA.AperFunction,Conductor*%
%TO.N,GND*%
G36*
X108504881Y-106279587D02*
G01*
X108867790Y-106521527D01*
X108872773Y-106528966D01*
X108873000Y-106531261D01*
X108873000Y-106768738D01*
X108869573Y-106777011D01*
X108867790Y-106778473D01*
X108504880Y-107020412D01*
X108496095Y-107022150D01*
X108491379Y-107020044D01*
X108009514Y-106659367D01*
X108004944Y-106651666D01*
X108007158Y-106642989D01*
X108009514Y-106640633D01*
X108158701Y-106528966D01*
X108491380Y-106279954D01*
X108500056Y-106277741D01*
X108504881Y-106279587D01*
G37*
%TD.AperFunction*%
%TD*%
%TA.AperFunction,Conductor*%
%TO.N,GND*%
G36*
X123340897Y-76480944D02*
G01*
X123348215Y-76486104D01*
X123350027Y-76492358D01*
X123350027Y-76972995D01*
X123346600Y-76981268D01*
X123340144Y-76984553D01*
X122568482Y-77105880D01*
X122559777Y-77103780D01*
X122555107Y-77096139D01*
X122554965Y-77094362D01*
X122554005Y-76710350D01*
X122554904Y-76705829D01*
X122704291Y-76347517D01*
X122710638Y-76341200D01*
X122717657Y-76340606D01*
X123340897Y-76480944D01*
G37*
%TD.AperFunction*%
%TD*%
%TA.AperFunction,Conductor*%
%TO.N,GND*%
G36*
X145673342Y-93615952D02*
G01*
X145969062Y-93788720D01*
X146166208Y-93903898D01*
X146171623Y-93911030D01*
X146170408Y-93919902D01*
X146166208Y-93924102D01*
X145673344Y-94212046D01*
X145666150Y-94213572D01*
X145230408Y-94165156D01*
X145222564Y-94160837D01*
X145220000Y-94153528D01*
X145220000Y-93674471D01*
X145223427Y-93666198D01*
X145230406Y-93662843D01*
X145666152Y-93614427D01*
X145673342Y-93615952D01*
G37*
%TD.AperFunction*%
%TD*%
%TA.AperFunction,Conductor*%
%TO.N,/ESP_TX*%
G36*
X110387577Y-74373661D02*
G01*
X110710561Y-74795891D01*
X110712866Y-74804545D01*
X110710561Y-74810109D01*
X110387577Y-75232338D01*
X110379829Y-75236827D01*
X110372435Y-75235362D01*
X109845851Y-74931377D01*
X109840399Y-74924273D01*
X109840000Y-74921244D01*
X109840000Y-74684755D01*
X109843427Y-74676482D01*
X109845849Y-74674623D01*
X110372436Y-74370636D01*
X110381313Y-74369469D01*
X110387577Y-74373661D01*
G37*
%TD.AperFunction*%
%TD*%
%TA.AperFunction,Conductor*%
%TO.N,GND*%
G36*
X113278563Y-80991427D02*
G01*
X113281790Y-80997544D01*
X113427408Y-81774179D01*
X113425564Y-81782942D01*
X113418064Y-81787835D01*
X113415937Y-81788035D01*
X113030000Y-81789000D01*
X112644062Y-81788035D01*
X112635797Y-81784587D01*
X112632391Y-81776306D01*
X112632591Y-81774179D01*
X112778210Y-80997544D01*
X112783103Y-80990044D01*
X112789710Y-80988000D01*
X113270290Y-80988000D01*
X113278563Y-80991427D01*
G37*
%TD.AperFunction*%
%TD*%
%TA.AperFunction,Conductor*%
%TO.N,Net-(R108-Pad1)*%
G36*
X149032787Y-93628324D02*
G01*
X149310922Y-93778484D01*
X149313636Y-93780505D01*
X149477969Y-93944838D01*
X149481396Y-93953111D01*
X149477969Y-93961384D01*
X149475142Y-93963466D01*
X149058222Y-94182708D01*
X149049304Y-94183526D01*
X149047941Y-94183007D01*
X148478981Y-93924777D01*
X148472863Y-93918237D01*
X148473162Y-93909288D01*
X148478522Y-93903690D01*
X149021943Y-93628185D01*
X149030870Y-93627501D01*
X149032787Y-93628324D01*
G37*
%TD.AperFunction*%
%TD*%
%TA.AperFunction,Conductor*%
%TO.N,GND*%
G36*
X110305615Y-70867760D02*
G01*
X110564683Y-71122697D01*
X110685092Y-71241186D01*
X110688586Y-71249431D01*
X110687476Y-71254500D01*
X110471846Y-71713500D01*
X110465226Y-71719531D01*
X110459531Y-71720097D01*
X109824975Y-71625487D01*
X109817297Y-71620878D01*
X109815000Y-71613915D01*
X109815000Y-71130970D01*
X109818427Y-71122697D01*
X109821126Y-71120682D01*
X110291842Y-70865810D01*
X110300747Y-70864886D01*
X110305615Y-70867760D01*
G37*
%TD.AperFunction*%
%TD*%
%TA.AperFunction,Conductor*%
%TO.N,GND*%
G36*
X109494416Y-76616983D02*
G01*
X109498804Y-76620674D01*
X109812680Y-77056765D01*
X109814732Y-77065482D01*
X109812680Y-77070435D01*
X109498804Y-77506525D01*
X109491190Y-77511238D01*
X109485477Y-77510745D01*
X108924469Y-77316327D01*
X108917774Y-77310380D01*
X108916600Y-77305272D01*
X108916600Y-76821927D01*
X108920027Y-76813654D01*
X108924465Y-76810874D01*
X109485477Y-76616454D01*
X109494416Y-76616983D01*
G37*
%TD.AperFunction*%
%TD*%
%TA.AperFunction,Conductor*%
%TO.N,/LED2*%
G36*
X142654750Y-91527514D02*
G01*
X143093650Y-91844497D01*
X143098351Y-91852119D01*
X143098500Y-91853982D01*
X143098500Y-92092017D01*
X143095073Y-92100290D01*
X143093650Y-92101502D01*
X142654750Y-92418485D01*
X142646037Y-92420551D01*
X142641886Y-92419036D01*
X142202657Y-92155850D01*
X141914247Y-91983034D01*
X141908913Y-91975844D01*
X141910226Y-91966986D01*
X141914246Y-91962965D01*
X142641886Y-91526962D01*
X142650744Y-91525650D01*
X142654750Y-91527514D01*
G37*
%TD.AperFunction*%
%TD*%
%TA.AperFunction,Conductor*%
%TO.N,+3.3V*%
G36*
X118580832Y-78195527D02*
G01*
X118593665Y-78199512D01*
X119153770Y-78373444D01*
X119160654Y-78379171D01*
X119162000Y-78384618D01*
X119162000Y-78867381D01*
X119158573Y-78875654D01*
X119153770Y-78878555D01*
X118580832Y-79056472D01*
X118571915Y-79055652D01*
X118568131Y-79052487D01*
X118423978Y-78867381D01*
X118241597Y-78633188D01*
X118239218Y-78624556D01*
X118241597Y-78618812D01*
X118568132Y-78199511D01*
X118575918Y-78195090D01*
X118580832Y-78195527D01*
G37*
%TD.AperFunction*%
%TD*%
%TA.AperFunction,Conductor*%
%TO.N,GND*%
G36*
X145559368Y-82612583D02*
G01*
X145566387Y-82618142D01*
X145567866Y-82623836D01*
X145567866Y-83104547D01*
X145564439Y-83112820D01*
X145557479Y-83116173D01*
X144792980Y-83202533D01*
X144784375Y-83200057D01*
X144780041Y-83192220D01*
X144779967Y-83190936D01*
X144779780Y-83116173D01*
X144779005Y-82806350D01*
X144779904Y-82801829D01*
X144929072Y-82444043D01*
X144935419Y-82437726D01*
X144943072Y-82437292D01*
X145559368Y-82612583D01*
G37*
%TD.AperFunction*%
%TD*%
%TA.AperFunction,Conductor*%
%TO.N,/USB-TTL-AutoProgram/RTS*%
G36*
X118989136Y-86247713D02*
G01*
X118991690Y-86249990D01*
X119180660Y-86476179D01*
X119183334Y-86484725D01*
X119179182Y-86492659D01*
X119179137Y-86492697D01*
X118993463Y-86646227D01*
X118984903Y-86648858D01*
X118980160Y-86647344D01*
X118793053Y-86539381D01*
X118787599Y-86532278D01*
X118787200Y-86529247D01*
X118787200Y-86295530D01*
X118790627Y-86287257D01*
X118796527Y-86284073D01*
X118980341Y-86246034D01*
X118989136Y-86247713D01*
G37*
%TD.AperFunction*%
%TD*%
%TA.AperFunction,Conductor*%
%TO.N,/USB-TTL-AutoProgram/D_N*%
G36*
X105844645Y-90777066D02*
G01*
X105852812Y-90780734D01*
X105856000Y-90788761D01*
X105856000Y-91034256D01*
X105852573Y-91042529D01*
X105845734Y-91045868D01*
X105707873Y-91062897D01*
X105704146Y-91062758D01*
X105060444Y-90934083D01*
X105053003Y-90929101D01*
X105051264Y-90920317D01*
X105056246Y-90912876D01*
X105060287Y-90911169D01*
X105702453Y-90773759D01*
X105704901Y-90773500D01*
X105723045Y-90773500D01*
X105844645Y-90777066D01*
G37*
%TD.AperFunction*%
%TD*%
%TA.AperFunction,Conductor*%
%TO.N,+5V*%
G36*
X100267743Y-80619634D02*
G01*
X100607669Y-80959560D01*
X100611096Y-80967833D01*
X100608280Y-80975447D01*
X100113044Y-81553273D01*
X100105058Y-81557324D01*
X100096546Y-81554543D01*
X100095908Y-81553953D01*
X99822964Y-81282369D01*
X99820396Y-81278527D01*
X99695675Y-80975447D01*
X99673062Y-80920496D01*
X99673083Y-80911543D01*
X99678645Y-80905583D01*
X100254235Y-80617444D01*
X100263165Y-80616806D01*
X100267743Y-80619634D01*
G37*
%TD.AperFunction*%
%TD*%
%TA.AperFunction,Conductor*%
%TO.N,GND*%
G36*
X123436835Y-105863650D02*
G01*
X123437943Y-105864932D01*
X123737738Y-106267210D01*
X123739934Y-106275891D01*
X123736954Y-106282137D01*
X123404658Y-106642093D01*
X123396528Y-106645848D01*
X123388125Y-106642754D01*
X123388109Y-106642739D01*
X123000498Y-106283555D01*
X122996758Y-106275418D01*
X122999868Y-106267021D01*
X123000471Y-106266416D01*
X123253082Y-106030858D01*
X123420290Y-105863649D01*
X123428562Y-105860223D01*
X123436835Y-105863650D01*
G37*
%TD.AperFunction*%
%TD*%
%TA.AperFunction,Conductor*%
%TO.N,+5V*%
G36*
X149705873Y-88026292D02*
G01*
X149710894Y-88031964D01*
X149859123Y-88387498D01*
X149859144Y-88396452D01*
X149859123Y-88396502D01*
X149711625Y-88750282D01*
X149705278Y-88756600D01*
X149696324Y-88756579D01*
X149695868Y-88756378D01*
X149078876Y-88467753D01*
X149072835Y-88461143D01*
X149072134Y-88457155D01*
X149072134Y-88206311D01*
X149075561Y-88198038D01*
X149080724Y-88195032D01*
X149696987Y-88025187D01*
X149705873Y-88026292D01*
G37*
%TD.AperFunction*%
%TD*%
%TA.AperFunction,Conductor*%
%TO.N,GND*%
G36*
X122352970Y-81790060D02*
G01*
X122829456Y-82258905D01*
X122832950Y-82267150D01*
X122829590Y-82275451D01*
X122829544Y-82275497D01*
X122559146Y-82547250D01*
X122550881Y-82550698D01*
X122550831Y-82550698D01*
X122166936Y-82550021D01*
X122158669Y-82546580D01*
X122155257Y-82538300D01*
X122155258Y-82538153D01*
X122167818Y-81963391D01*
X122171241Y-81955377D01*
X122336492Y-81790126D01*
X122344764Y-81786700D01*
X122352970Y-81790060D01*
G37*
%TD.AperFunction*%
%TD*%
%TA.AperFunction,Conductor*%
%TO.N,/ESP_RX*%
G36*
X138036044Y-80369253D02*
G01*
X138042206Y-80375239D01*
X138318747Y-80987928D01*
X138319027Y-80996878D01*
X138316356Y-81001014D01*
X138151014Y-81166356D01*
X138142741Y-81169783D01*
X138137928Y-81168747D01*
X137525239Y-80892206D01*
X137519108Y-80885679D01*
X137519232Y-80877090D01*
X137665437Y-80521802D01*
X137671753Y-80515457D01*
X138027090Y-80369232D01*
X138036044Y-80369253D01*
G37*
%TD.AperFunction*%
%TD*%
%TA.AperFunction,Conductor*%
%TO.N,GND*%
G36*
X145673342Y-91715952D02*
G01*
X145969062Y-91888720D01*
X146166208Y-92003898D01*
X146171623Y-92011030D01*
X146170408Y-92019902D01*
X146166208Y-92024102D01*
X145673344Y-92312046D01*
X145666150Y-92313572D01*
X145230408Y-92265156D01*
X145222564Y-92260837D01*
X145220000Y-92253528D01*
X145220000Y-91774471D01*
X145223427Y-91766198D01*
X145230406Y-91762843D01*
X145666152Y-91714427D01*
X145673342Y-91715952D01*
G37*
%TD.AperFunction*%
%TD*%
%TA.AperFunction,Conductor*%
%TO.N,GND*%
G36*
X143483163Y-76342132D02*
G01*
X143487708Y-76347518D01*
X143637093Y-76705824D01*
X143637994Y-76710355D01*
X143637034Y-77094351D01*
X143633586Y-77102616D01*
X143625305Y-77106022D01*
X143623517Y-77105880D01*
X142851856Y-76984553D01*
X142844215Y-76979883D01*
X142841973Y-76972995D01*
X142841973Y-76492358D01*
X142845400Y-76484085D01*
X142851102Y-76480944D01*
X143474341Y-76340606D01*
X143483163Y-76342132D01*
G37*
%TD.AperFunction*%
%TD*%
%TA.AperFunction,Conductor*%
%TO.N,GND*%
G36*
X144792975Y-91676465D02*
G01*
X145557480Y-91762826D01*
X145565316Y-91767160D01*
X145567866Y-91774452D01*
X145567866Y-92255163D01*
X145564439Y-92263436D01*
X145559367Y-92266417D01*
X144943072Y-92441707D01*
X144934177Y-92440674D01*
X144929072Y-92434955D01*
X144858805Y-92266417D01*
X144779905Y-92077171D01*
X144779005Y-92072648D01*
X144779967Y-91688062D01*
X144783415Y-91679798D01*
X144791696Y-91676392D01*
X144792975Y-91676465D01*
G37*
%TD.AperFunction*%
%TD*%
%TA.AperFunction,Conductor*%
%TO.N,/IO0*%
G36*
X120493318Y-86496604D02*
G01*
X120497171Y-86500457D01*
X120606739Y-86679052D01*
X120684210Y-86805331D01*
X120685615Y-86814175D01*
X120685192Y-86815557D01*
X120615047Y-87002612D01*
X120608934Y-87009155D01*
X120604092Y-87010204D01*
X120370308Y-87010204D01*
X120362035Y-87006777D01*
X120359353Y-87002612D01*
X120289207Y-86815557D01*
X120289511Y-86806608D01*
X120290185Y-86805337D01*
X120477228Y-86500458D01*
X120484474Y-86495199D01*
X120493318Y-86496604D01*
G37*
%TD.AperFunction*%
%TD*%
%TA.AperFunction,Conductor*%
%TO.N,Net-(LED101-A)*%
G36*
X113447119Y-74410371D02*
G01*
X113787155Y-74795253D01*
X113790065Y-74803722D01*
X113787155Y-74810747D01*
X113447119Y-75195628D01*
X113439073Y-75199559D01*
X113432226Y-75197850D01*
X112998575Y-74931425D01*
X112993320Y-74924174D01*
X112993000Y-74921456D01*
X112993000Y-74684543D01*
X112996427Y-74676270D01*
X112998570Y-74674577D01*
X113432226Y-74408148D01*
X113441069Y-74406738D01*
X113447119Y-74410371D01*
G37*
%TD.AperFunction*%
%TD*%
%TA.AperFunction,Conductor*%
%TO.N,/EN*%
G36*
X119831902Y-80143240D02*
G01*
X120094197Y-80383558D01*
X120202287Y-80482592D01*
X120206072Y-80490708D01*
X120204863Y-80496420D01*
X119952225Y-81005501D01*
X119945478Y-81011388D01*
X119941745Y-81012000D01*
X119706255Y-81012000D01*
X119697982Y-81008573D01*
X119695775Y-81005501D01*
X119443136Y-80496420D01*
X119442528Y-80487486D01*
X119445711Y-80482593D01*
X119816097Y-80143240D01*
X119824511Y-80140179D01*
X119831902Y-80143240D01*
G37*
%TD.AperFunction*%
%TD*%
%TA.AperFunction,Conductor*%
%TO.N,Net-(J201-CC1)*%
G36*
X102382187Y-84332597D02*
G01*
X102800034Y-84657999D01*
X102804456Y-84665786D01*
X102803119Y-84672828D01*
X102490325Y-85246898D01*
X102483357Y-85252523D01*
X102480051Y-85253000D01*
X102244226Y-85253000D01*
X102235953Y-85249573D01*
X102233764Y-85246538D01*
X101946421Y-84672679D01*
X101945781Y-84663748D01*
X101949692Y-84658212D01*
X102367811Y-84332597D01*
X102376444Y-84330218D01*
X102382187Y-84332597D01*
G37*
%TD.AperFunction*%
%TD*%
%TA.AperFunction,Conductor*%
%TO.N,GND*%
G36*
X115185327Y-96764689D02*
G01*
X115187930Y-96768649D01*
X115427313Y-97372239D01*
X115427177Y-97381192D01*
X115420939Y-97387351D01*
X115064175Y-97536093D01*
X115059644Y-97536994D01*
X114674022Y-97536030D01*
X114665757Y-97532582D01*
X114662351Y-97524301D01*
X114662355Y-97524037D01*
X114684663Y-96772615D01*
X114688334Y-96764447D01*
X114696358Y-96761262D01*
X115177054Y-96761262D01*
X115185327Y-96764689D01*
G37*
%TD.AperFunction*%
%TD*%
%TA.AperFunction,Conductor*%
%TO.N,+3.3V*%
G36*
X131443946Y-102216427D02*
G01*
X131446199Y-102219591D01*
X132144077Y-103657428D01*
X132144606Y-103666367D01*
X132138660Y-103673063D01*
X132138039Y-103673342D01*
X131322488Y-104012135D01*
X131313534Y-104012144D01*
X131313512Y-104012135D01*
X130497960Y-103673342D01*
X130491634Y-103667003D01*
X130491643Y-103658049D01*
X130491906Y-103657462D01*
X131189801Y-102219591D01*
X131196497Y-102213645D01*
X131200327Y-102213000D01*
X131435673Y-102213000D01*
X131443946Y-102216427D01*
G37*
%TD.AperFunction*%
%TD*%
%TA.AperFunction,Conductor*%
%TO.N,/USB-TTL-AutoProgram/D_P*%
G36*
X108404602Y-89686113D02*
G01*
X108405888Y-89687399D01*
X108667681Y-89993697D01*
X108691723Y-90021826D01*
X108694493Y-90030342D01*
X108693061Y-90035099D01*
X108533940Y-90321976D01*
X108526933Y-90327548D01*
X108523711Y-90328000D01*
X108270289Y-90328000D01*
X108262016Y-90324573D01*
X108260058Y-90321975D01*
X108100938Y-90035101D01*
X108099922Y-90026206D01*
X108102274Y-90021828D01*
X108388107Y-89687404D01*
X108396086Y-89683343D01*
X108404602Y-89686113D01*
G37*
%TD.AperFunction*%
%TD*%
%TA.AperFunction,Conductor*%
%TO.N,/EN*%
G36*
X104389113Y-82027295D02*
G01*
X104393862Y-82034886D01*
X104394024Y-82036803D01*
X104394698Y-82418831D01*
X104391286Y-82427111D01*
X104391250Y-82427146D01*
X104118428Y-82698607D01*
X104110147Y-82702013D01*
X104103032Y-82699579D01*
X104101771Y-82698607D01*
X103749677Y-82427146D01*
X103601678Y-82313040D01*
X103597219Y-82305274D01*
X103599556Y-82296630D01*
X103600541Y-82295509D01*
X103765270Y-82130780D01*
X103771601Y-82127517D01*
X104380386Y-82025286D01*
X104389113Y-82027295D01*
G37*
%TD.AperFunction*%
%TD*%
%TA.AperFunction,Conductor*%
%TO.N,GND*%
G36*
X145547351Y-90044070D02*
G01*
X145553778Y-90050306D01*
X145554738Y-90054946D01*
X145554738Y-90535642D01*
X145551311Y-90543915D01*
X145543385Y-90547337D01*
X144792016Y-90569643D01*
X144783645Y-90566463D01*
X144779974Y-90558295D01*
X144779970Y-90558048D01*
X144779005Y-90172350D01*
X144779904Y-90167829D01*
X144928649Y-89811058D01*
X144934995Y-89804742D01*
X144943758Y-89804686D01*
X145547351Y-90044070D01*
G37*
%TD.AperFunction*%
%TD*%
%TA.AperFunction,Conductor*%
%TO.N,GND*%
G36*
X104836372Y-93853373D02*
G01*
X105181636Y-94198637D01*
X105183563Y-94201178D01*
X105379273Y-94549456D01*
X105380338Y-94558347D01*
X105374805Y-94565388D01*
X105373951Y-94565822D01*
X104440032Y-94994239D01*
X104431084Y-94994574D01*
X104424989Y-94989397D01*
X104093200Y-94406994D01*
X104092082Y-94398110D01*
X104096378Y-94391819D01*
X104821115Y-93852260D01*
X104829795Y-93850070D01*
X104836372Y-93853373D01*
G37*
%TD.AperFunction*%
%TD*%
%TA.AperFunction,Conductor*%
%TO.N,/ESP_TX*%
G36*
X109400696Y-74443890D02*
G01*
X110012437Y-74675141D01*
X110018964Y-74681272D01*
X110020000Y-74686085D01*
X110020000Y-74919914D01*
X110016573Y-74928187D01*
X110012437Y-74930858D01*
X109383655Y-75168551D01*
X109374705Y-75168271D01*
X109368719Y-75162109D01*
X109272306Y-74930858D01*
X109220875Y-74807499D01*
X109220855Y-74798550D01*
X109368719Y-74443889D01*
X109375066Y-74437572D01*
X109383654Y-74437448D01*
X109400696Y-74443890D01*
G37*
%TD.AperFunction*%
%TD*%
%TA.AperFunction,Conductor*%
%TO.N,+5V*%
G36*
X149585448Y-91419497D02*
G01*
X149586290Y-91420258D01*
X149857546Y-91690558D01*
X149860987Y-91698825D01*
X149860987Y-91698875D01*
X149860026Y-92083229D01*
X149856578Y-92091494D01*
X149849263Y-92094862D01*
X149205184Y-92146585D01*
X149196663Y-92143832D01*
X149192585Y-92135860D01*
X149192547Y-92134923D01*
X149192547Y-91884582D01*
X149195197Y-91877166D01*
X149568984Y-91421127D01*
X149576877Y-91416903D01*
X149585448Y-91419497D01*
G37*
%TD.AperFunction*%
%TD*%
%TA.AperFunction,Conductor*%
%TO.N,Net-(U401-VDD)*%
G36*
X112067163Y-91606208D02*
G01*
X112233937Y-91772982D01*
X112237096Y-91778767D01*
X112317792Y-92149575D01*
X112316203Y-92158388D01*
X112312939Y-92161738D01*
X111870248Y-92462745D01*
X111861479Y-92464563D01*
X111854221Y-92459970D01*
X111548341Y-92041105D01*
X111546231Y-92032404D01*
X111550277Y-92025238D01*
X112051377Y-91605511D01*
X112059920Y-91602826D01*
X112067163Y-91606208D01*
G37*
%TD.AperFunction*%
%TD*%
%TA.AperFunction,Conductor*%
%TO.N,+5V*%
G36*
X113335916Y-93832427D02*
G01*
X113336280Y-93832808D01*
X113772174Y-94309839D01*
X113775225Y-94318258D01*
X113772263Y-94325525D01*
X113417836Y-94722345D01*
X113409769Y-94726232D01*
X113402520Y-94724219D01*
X112959664Y-94422352D01*
X112954758Y-94414860D01*
X112954827Y-94410171D01*
X113080778Y-93838184D01*
X113085904Y-93830841D01*
X113092204Y-93829000D01*
X113327643Y-93829000D01*
X113335916Y-93832427D01*
G37*
%TD.AperFunction*%
%TD*%
%TA.AperFunction,Conductor*%
%TO.N,Net-(Q401B-B2)*%
G36*
X118076367Y-84673924D02*
G01*
X118080610Y-84679174D01*
X118341759Y-85319724D01*
X118341709Y-85328679D01*
X118339198Y-85332414D01*
X118173719Y-85497893D01*
X118165446Y-85501320D01*
X118160483Y-85500215D01*
X117446418Y-85165736D01*
X117440380Y-85159124D01*
X117440561Y-85150688D01*
X117598879Y-84766158D01*
X117605197Y-84759814D01*
X117607517Y-84759119D01*
X118067603Y-84672095D01*
X118076367Y-84673924D01*
G37*
%TD.AperFunction*%
%TD*%
%TA.AperFunction,Conductor*%
%TO.N,/USB-TTL-AutoProgram/RTS*%
G36*
X117961419Y-86030139D02*
G01*
X118470502Y-86282779D01*
X118476388Y-86289525D01*
X118477000Y-86293258D01*
X118477000Y-86528749D01*
X118473573Y-86537022D01*
X118470501Y-86539229D01*
X117961420Y-86791867D01*
X117952486Y-86792475D01*
X117947592Y-86789291D01*
X117716459Y-86537022D01*
X117608240Y-86418906D01*
X117605179Y-86410493D01*
X117608240Y-86403101D01*
X117947593Y-86032715D01*
X117955708Y-86028931D01*
X117961419Y-86030139D01*
G37*
%TD.AperFunction*%
%TD*%
%TA.AperFunction,Conductor*%
%TO.N,/IO0*%
G36*
X117346188Y-100676427D02*
G01*
X117348859Y-100680563D01*
X117586551Y-101309344D01*
X117586271Y-101318294D01*
X117580109Y-101324280D01*
X117225502Y-101472123D01*
X117216548Y-101472144D01*
X117216498Y-101472123D01*
X116861890Y-101324280D01*
X116855572Y-101317933D01*
X116855448Y-101309345D01*
X117093141Y-100680562D01*
X117099272Y-100674036D01*
X117104085Y-100673000D01*
X117337915Y-100673000D01*
X117346188Y-100676427D01*
G37*
%TD.AperFunction*%
%TD*%
%TA.AperFunction,Conductor*%
%TO.N,GND*%
G36*
X113657915Y-96764689D02*
G01*
X113661337Y-96772615D01*
X113683643Y-97523983D01*
X113680463Y-97532354D01*
X113672295Y-97536025D01*
X113671977Y-97536030D01*
X113286355Y-97536994D01*
X113281824Y-97536093D01*
X113143215Y-97478304D01*
X112925060Y-97387351D01*
X112918742Y-97381004D01*
X112918686Y-97372241D01*
X113158070Y-96768648D01*
X113164306Y-96762222D01*
X113168946Y-96761262D01*
X113649642Y-96761262D01*
X113657915Y-96764689D01*
G37*
%TD.AperFunction*%
%TD*%
%TA.AperFunction,Conductor*%
%TO.N,+3.3V*%
G36*
X120104832Y-78195527D02*
G01*
X120117665Y-78199512D01*
X120677770Y-78373444D01*
X120684654Y-78379171D01*
X120686000Y-78384618D01*
X120686000Y-78867381D01*
X120682573Y-78875654D01*
X120677770Y-78878555D01*
X120104832Y-79056472D01*
X120095915Y-79055652D01*
X120092131Y-79052487D01*
X119947978Y-78867381D01*
X119765597Y-78633188D01*
X119763218Y-78624556D01*
X119765597Y-78618812D01*
X120092132Y-78199511D01*
X120099918Y-78195090D01*
X120104832Y-78195527D01*
G37*
%TD.AperFunction*%
%TD*%
%TA.AperFunction,Conductor*%
%TO.N,GND*%
G36*
X113417834Y-96282919D02*
G01*
X113853924Y-96596794D01*
X113858637Y-96604408D01*
X113858144Y-96610121D01*
X113663727Y-97171131D01*
X113657780Y-97177826D01*
X113652672Y-97179000D01*
X113169328Y-97179000D01*
X113161055Y-97175573D01*
X113158273Y-97171131D01*
X112963854Y-96610121D01*
X112964383Y-96601182D01*
X112968072Y-96596795D01*
X113404166Y-96282918D01*
X113412881Y-96280867D01*
X113417834Y-96282919D01*
G37*
%TD.AperFunction*%
%TD*%
%TA.AperFunction,Conductor*%
%TO.N,/LED0*%
G36*
X145617395Y-81628843D02*
G01*
X145923403Y-81783525D01*
X146162842Y-81904558D01*
X146168680Y-81911349D01*
X146168006Y-81920278D01*
X146162842Y-81925442D01*
X145617403Y-82201152D01*
X145608474Y-82201826D01*
X145607625Y-82201510D01*
X145227200Y-82042999D01*
X145220881Y-82036654D01*
X145220000Y-82032199D01*
X145220000Y-81797800D01*
X145223427Y-81789527D01*
X145227200Y-81787000D01*
X145607626Y-81628488D01*
X145616580Y-81628470D01*
X145617395Y-81628843D01*
G37*
%TD.AperFunction*%
%TD*%
%TA.AperFunction,Conductor*%
%TO.N,+5V*%
G36*
X116581087Y-94346320D02*
G01*
X116585865Y-94353894D01*
X116586034Y-94355846D01*
X116586994Y-94739644D01*
X116586093Y-94744175D01*
X116436638Y-95102650D01*
X116430291Y-95108968D01*
X116423481Y-95109608D01*
X115797928Y-94980921D01*
X115790516Y-94975897D01*
X115788586Y-94969461D01*
X115788586Y-94488861D01*
X115792013Y-94480588D01*
X115798304Y-94477330D01*
X116572354Y-94344344D01*
X116581087Y-94346320D01*
G37*
%TD.AperFunction*%
%TD*%
%TA.AperFunction,Conductor*%
%TO.N,GND*%
G36*
X110602351Y-89329529D02*
G01*
X110608158Y-89331188D01*
X110938514Y-89425575D01*
X110945528Y-89431143D01*
X110947000Y-89436825D01*
X110947000Y-89919174D01*
X110943573Y-89927447D01*
X110938514Y-89930424D01*
X110602351Y-90026470D01*
X110593455Y-90025448D01*
X110592437Y-90024811D01*
X110109729Y-89687591D01*
X110104909Y-89680044D01*
X110106838Y-89671300D01*
X110109726Y-89668410D01*
X110592436Y-89331187D01*
X110601181Y-89329259D01*
X110602351Y-89329529D01*
G37*
%TD.AperFunction*%
%TD*%
%TA.AperFunction,Conductor*%
%TO.N,GND*%
G36*
X107446939Y-76072964D02*
G01*
X107455202Y-76076412D01*
X107458608Y-76084693D01*
X107458408Y-76086820D01*
X107312790Y-76863456D01*
X107307897Y-76870956D01*
X107301290Y-76873000D01*
X106820710Y-76873000D01*
X106812437Y-76869573D01*
X106809210Y-76863456D01*
X106663591Y-76086820D01*
X106665435Y-76078057D01*
X106672935Y-76073164D01*
X106675052Y-76072964D01*
X107061000Y-76072000D01*
X107446939Y-76072964D01*
G37*
%TD.AperFunction*%
%TD*%
%TA.AperFunction,Conductor*%
%TO.N,/USB-TTL-AutoProgram/DTR*%
G36*
X120694230Y-84387840D02*
G01*
X120879608Y-84457357D01*
X120886151Y-84463471D01*
X120887200Y-84468312D01*
X120887200Y-84702096D01*
X120883773Y-84710369D01*
X120879608Y-84713051D01*
X120694234Y-84782566D01*
X120685284Y-84782262D01*
X120681875Y-84779906D01*
X120494534Y-84593497D01*
X120491087Y-84585233D01*
X120494493Y-84576952D01*
X120681877Y-84390500D01*
X120690155Y-84387096D01*
X120694230Y-84387840D01*
G37*
%TD.AperFunction*%
%TD*%
%TA.AperFunction,Conductor*%
%TO.N,VCC*%
G36*
X110788639Y-81756885D02*
G01*
X110834394Y-81809689D01*
X110845600Y-81861200D01*
X110845600Y-87887000D01*
X110825915Y-87954039D01*
X110773111Y-87999794D01*
X110721600Y-88011000D01*
X107289600Y-88011000D01*
X107276251Y-88024348D01*
X107269915Y-88045927D01*
X107245697Y-88073548D01*
X106871668Y-88390034D01*
X106679292Y-88552815D01*
X106663875Y-88565860D01*
X106599983Y-88594137D01*
X106583778Y-88595200D01*
X105835614Y-88595200D01*
X105788160Y-88585761D01*
X105784232Y-88584134D01*
X105784231Y-88584133D01*
X105784228Y-88584132D01*
X105784225Y-88584131D01*
X105725751Y-88572500D01*
X105725748Y-88572500D01*
X104416400Y-88572500D01*
X104349361Y-88552815D01*
X104303606Y-88500011D01*
X104292400Y-88448500D01*
X104292400Y-88158720D01*
X104312085Y-88091681D01*
X104315085Y-88087226D01*
X104349377Y-88038647D01*
X104349377Y-88038645D01*
X104349769Y-88038091D01*
X104404511Y-87994674D01*
X104451073Y-87985600D01*
X106324400Y-87985600D01*
X106324400Y-85315600D01*
X106344085Y-85248561D01*
X106396889Y-85202806D01*
X106448400Y-85191600D01*
X107696000Y-85191600D01*
X109183681Y-83703919D01*
X109245004Y-83670434D01*
X109271362Y-83667600D01*
X109982000Y-83667600D01*
X109982000Y-81861200D01*
X110001685Y-81794161D01*
X110054489Y-81748406D01*
X110106000Y-81737200D01*
X110721600Y-81737200D01*
X110788639Y-81756885D01*
G37*
%TD.AperFunction*%
%TD*%
%TA.AperFunction,Conductor*%
%TO.N,/EN*%
G36*
X102343068Y-80371727D02*
G01*
X102349216Y-80377683D01*
X102622524Y-80978723D01*
X102622829Y-80987673D01*
X102620146Y-80991839D01*
X102454839Y-81157146D01*
X102446566Y-81160573D01*
X102441723Y-81159524D01*
X101840683Y-80886216D01*
X101834570Y-80879672D01*
X101834705Y-80871116D01*
X101978437Y-80521802D01*
X101984751Y-80515458D01*
X102334116Y-80371706D01*
X102343068Y-80371727D01*
G37*
%TD.AperFunction*%
%TD*%
%TA.AperFunction,Conductor*%
%TO.N,GND*%
G36*
X111868433Y-94022318D02*
G01*
X112303103Y-94335170D01*
X112307816Y-94342784D01*
X112306463Y-94350407D01*
X111989956Y-94912441D01*
X111982910Y-94917968D01*
X111979761Y-94918400D01*
X111743439Y-94918400D01*
X111735166Y-94914973D01*
X111733244Y-94912441D01*
X111416736Y-94350407D01*
X111415663Y-94341517D01*
X111420094Y-94335172D01*
X111854765Y-94022318D01*
X111863482Y-94020267D01*
X111868433Y-94022318D01*
G37*
%TD.AperFunction*%
%TD*%
%TA.AperFunction,Conductor*%
%TO.N,/LED1*%
G36*
X142654750Y-87717514D02*
G01*
X143093650Y-88034497D01*
X143098351Y-88042119D01*
X143098500Y-88043982D01*
X143098500Y-88282017D01*
X143095073Y-88290290D01*
X143093650Y-88291502D01*
X142654750Y-88608485D01*
X142646037Y-88610551D01*
X142641886Y-88609036D01*
X142202657Y-88345850D01*
X141914247Y-88173034D01*
X141908913Y-88165844D01*
X141910226Y-88156986D01*
X141914246Y-88152965D01*
X142641886Y-87716962D01*
X142650744Y-87715650D01*
X142654750Y-87717514D01*
G37*
%TD.AperFunction*%
%TD*%
%TA.AperFunction,Conductor*%
%TO.N,Net-(J104-Pin_2)*%
G36*
X150847737Y-93453426D02*
G01*
X151248128Y-93780469D01*
X151252368Y-93788356D01*
X151249788Y-93796931D01*
X151249364Y-93797422D01*
X150911161Y-94167540D01*
X150903051Y-94171336D01*
X150897751Y-94170330D01*
X150524203Y-94003427D01*
X150520703Y-94001018D01*
X150354908Y-93835223D01*
X150351481Y-93826950D01*
X150354908Y-93818677D01*
X150356067Y-93817662D01*
X150833234Y-93453188D01*
X150841889Y-93450890D01*
X150847737Y-93453426D01*
G37*
%TD.AperFunction*%
%TD*%
%TA.AperFunction,Conductor*%
%TO.N,+3.3V*%
G36*
X117823188Y-79740084D02*
G01*
X117826740Y-79742810D01*
X118168155Y-80129253D01*
X118171065Y-80137722D01*
X118168155Y-80144747D01*
X117826740Y-80531189D01*
X117818694Y-80535120D01*
X117814254Y-80534536D01*
X117804266Y-80531189D01*
X117769251Y-80519454D01*
X117381982Y-80389674D01*
X117375227Y-80383796D01*
X117374000Y-80378580D01*
X117374000Y-79895419D01*
X117377427Y-79887146D01*
X117381982Y-79884325D01*
X117814256Y-79739463D01*
X117823188Y-79740084D01*
G37*
%TD.AperFunction*%
%TD*%
%TA.AperFunction,Conductor*%
%TO.N,VCC*%
G36*
X110304602Y-91686113D02*
G01*
X110305888Y-91687399D01*
X110498915Y-91913240D01*
X110593456Y-92023854D01*
X110596226Y-92032370D01*
X110596103Y-92033379D01*
X110548630Y-92318223D01*
X110543890Y-92325821D01*
X110537089Y-92328000D01*
X110056911Y-92328000D01*
X110048638Y-92324573D01*
X110045370Y-92318223D01*
X109997896Y-92033379D01*
X109999916Y-92024656D01*
X110000536Y-92023862D01*
X110288107Y-91687404D01*
X110296086Y-91683343D01*
X110304602Y-91686113D01*
G37*
%TD.AperFunction*%
%TD*%
%TA.AperFunction,Conductor*%
%TO.N,/IO0*%
G36*
X141155113Y-92796963D02*
G01*
X141882751Y-93232964D01*
X141888086Y-93240156D01*
X141886773Y-93249014D01*
X141882751Y-93253036D01*
X141155113Y-93689036D01*
X141146255Y-93690349D01*
X141142249Y-93688485D01*
X140703350Y-93371502D01*
X140698649Y-93363880D01*
X140698500Y-93362017D01*
X140698500Y-93123982D01*
X140701927Y-93115709D01*
X140703350Y-93114497D01*
X141142250Y-92797513D01*
X141150962Y-92795448D01*
X141155113Y-92796963D01*
G37*
%TD.AperFunction*%
%TD*%
%TA.AperFunction,Conductor*%
%TO.N,/ESP_RX*%
G36*
X110387577Y-72595661D02*
G01*
X110710561Y-73017891D01*
X110712866Y-73026545D01*
X110710561Y-73032109D01*
X110387577Y-73454338D01*
X110379829Y-73458827D01*
X110372435Y-73457362D01*
X109845851Y-73153377D01*
X109840399Y-73146273D01*
X109840000Y-73143244D01*
X109840000Y-72906755D01*
X109843427Y-72898482D01*
X109845849Y-72896623D01*
X110372436Y-72592636D01*
X110381313Y-72591469D01*
X110387577Y-72595661D01*
G37*
%TD.AperFunction*%
%TD*%
%TA.AperFunction,Conductor*%
%TO.N,Net-(C201-Pad1)*%
G36*
X107333899Y-81701469D02*
G01*
X107986440Y-81941581D01*
X107993021Y-81947654D01*
X107994100Y-81952561D01*
X107994100Y-82436194D01*
X107990673Y-82444467D01*
X107986385Y-82447194D01*
X107333879Y-82683576D01*
X107324933Y-82683172D01*
X107322054Y-82681261D01*
X106790220Y-82201184D01*
X106786376Y-82193098D01*
X106789376Y-82184660D01*
X106790221Y-82183815D01*
X107322026Y-81703764D01*
X107330462Y-81700765D01*
X107333899Y-81701469D01*
G37*
%TD.AperFunction*%
%TD*%
%TA.AperFunction,Conductor*%
%TO.N,+5V*%
G36*
X149032275Y-80678341D02*
G01*
X149412596Y-80828477D01*
X149419033Y-80834703D01*
X149420000Y-80839360D01*
X149420000Y-81090639D01*
X149416573Y-81098912D01*
X149412596Y-81101522D01*
X149032288Y-81251653D01*
X149023335Y-81251503D01*
X149022714Y-81251212D01*
X148726582Y-81101522D01*
X148477156Y-80975441D01*
X148471319Y-80968651D01*
X148471993Y-80959722D01*
X148477157Y-80954558D01*
X149022716Y-80678786D01*
X149031643Y-80678113D01*
X149032275Y-80678341D01*
G37*
%TD.AperFunction*%
%TD*%
%TA.AperFunction,Conductor*%
%TO.N,+3.3V*%
G36*
X117902084Y-78196347D02*
G01*
X117905868Y-78199512D01*
X118232401Y-78618811D01*
X118234781Y-78627444D01*
X118232401Y-78633189D01*
X117905868Y-79052487D01*
X117898081Y-79056909D01*
X117893167Y-79056472D01*
X117320230Y-78878555D01*
X117313346Y-78872828D01*
X117312000Y-78867381D01*
X117312000Y-78384618D01*
X117315427Y-78376345D01*
X117320228Y-78373444D01*
X117893167Y-78195527D01*
X117902084Y-78196347D01*
G37*
%TD.AperFunction*%
%TD*%
%TA.AperFunction,Conductor*%
%TO.N,/IO0*%
G36*
X122553188Y-95342427D02*
G01*
X122555859Y-95346563D01*
X122793551Y-95975344D01*
X122793271Y-95984294D01*
X122787109Y-95990280D01*
X122432502Y-96138123D01*
X122423548Y-96138144D01*
X122423498Y-96138123D01*
X122068890Y-95990280D01*
X122062572Y-95983933D01*
X122062448Y-95975345D01*
X122300141Y-95346562D01*
X122306272Y-95340036D01*
X122311085Y-95339000D01*
X122544915Y-95339000D01*
X122553188Y-95342427D01*
G37*
%TD.AperFunction*%
%TD*%
%TA.AperFunction,Conductor*%
%TO.N,+5V*%
G36*
X113302814Y-94439321D02*
G01*
X113494136Y-94494420D01*
X113501137Y-94500001D01*
X113502140Y-94508900D01*
X113501723Y-94510099D01*
X113413564Y-94725175D01*
X113407255Y-94731531D01*
X113407175Y-94731564D01*
X113192099Y-94819723D01*
X113183145Y-94819690D01*
X113176836Y-94813334D01*
X113176423Y-94812147D01*
X113121322Y-94620817D01*
X113122325Y-94611920D01*
X113124288Y-94609312D01*
X113291309Y-94442291D01*
X113299581Y-94438865D01*
X113302814Y-94439321D01*
G37*
%TD.AperFunction*%
%TD*%
%TA.AperFunction,Conductor*%
%TO.N,Net-(C201-Pad1)*%
G36*
X107032479Y-82852427D02*
G01*
X107034774Y-82855679D01*
X107323541Y-83463417D01*
X107323996Y-83472360D01*
X107322298Y-83475504D01*
X106876847Y-84063324D01*
X106869119Y-84067848D01*
X106860456Y-84065583D01*
X106858569Y-84063790D01*
X106390746Y-83507746D01*
X106388042Y-83499210D01*
X106388272Y-83497703D01*
X106529573Y-82858176D01*
X106534704Y-82850837D01*
X106540997Y-82849000D01*
X107024206Y-82849000D01*
X107032479Y-82852427D01*
G37*
%TD.AperFunction*%
%TD*%
%TA.AperFunction,Conductor*%
%TO.N,GND*%
G36*
X145559368Y-86295583D02*
G01*
X145566387Y-86301142D01*
X145567866Y-86306836D01*
X145567866Y-86787547D01*
X145564439Y-86795820D01*
X145557479Y-86799173D01*
X144792980Y-86885533D01*
X144784375Y-86883057D01*
X144780041Y-86875220D01*
X144779967Y-86873936D01*
X144779780Y-86799173D01*
X144779005Y-86489350D01*
X144779904Y-86484829D01*
X144929072Y-86127043D01*
X144935419Y-86120726D01*
X144943072Y-86120292D01*
X145559368Y-86295583D01*
G37*
%TD.AperFunction*%
%TD*%
%TA.AperFunction,Conductor*%
%TO.N,/IO0*%
G36*
X99731689Y-77994390D02*
G01*
X99732112Y-77994576D01*
X100266603Y-78242869D01*
X100269947Y-78245207D01*
X100433001Y-78408261D01*
X100436428Y-78416534D01*
X100433001Y-78424807D01*
X100429308Y-78427301D01*
X99731916Y-78723939D01*
X99722961Y-78724023D01*
X99716571Y-78717754D01*
X99569165Y-78364199D01*
X99569145Y-78355247D01*
X99716397Y-78000705D01*
X99722734Y-77994381D01*
X99731689Y-77994390D01*
G37*
%TD.AperFunction*%
%TD*%
%TA.AperFunction,Conductor*%
%TO.N,Net-(R102-Pad1)*%
G36*
X150847648Y-82404361D02*
G01*
X151248420Y-82732164D01*
X151252654Y-82740054D01*
X151250068Y-82748628D01*
X151249639Y-82749124D01*
X150910206Y-83119599D01*
X150902090Y-83123384D01*
X150898662Y-83123025D01*
X150390783Y-82992261D01*
X150383625Y-82986880D01*
X150382000Y-82980931D01*
X150382000Y-82745876D01*
X150385427Y-82737603D01*
X150386713Y-82736491D01*
X150392525Y-82732164D01*
X150833255Y-82404031D01*
X150841935Y-82401840D01*
X150847648Y-82404361D01*
G37*
%TD.AperFunction*%
%TD*%
%TA.AperFunction,Conductor*%
%TO.N,GND*%
G36*
X114024738Y-105849628D02*
G01*
X114025873Y-105850945D01*
X114333683Y-106267289D01*
X114335846Y-106275979D01*
X114332942Y-106282104D01*
X114006581Y-106642023D01*
X113998485Y-106645850D01*
X113990055Y-106642831D01*
X113990038Y-106642816D01*
X113594953Y-106283203D01*
X113591142Y-106275100D01*
X113594177Y-106266675D01*
X113594476Y-106266359D01*
X113841023Y-106016798D01*
X114008193Y-105849627D01*
X114016465Y-105846201D01*
X114024738Y-105849628D01*
G37*
%TD.AperFunction*%
%TD*%
%TA.AperFunction,Conductor*%
%TO.N,Net-(Q401A-B1)*%
G36*
X121452067Y-85710872D02*
G01*
X121459285Y-85713562D01*
X122206832Y-85992160D01*
X122213387Y-85998260D01*
X122213752Y-86007094D01*
X122075201Y-86391104D01*
X122069169Y-86397723D01*
X122067130Y-86398459D01*
X121606430Y-86517846D01*
X121597562Y-86516604D01*
X121593107Y-86511903D01*
X121272186Y-85892625D01*
X121271422Y-85883703D01*
X121274299Y-85878971D01*
X121439709Y-85713561D01*
X121447981Y-85710135D01*
X121452067Y-85710872D01*
G37*
%TD.AperFunction*%
%TD*%
%TA.AperFunction,Conductor*%
%TO.N,+5V*%
G36*
X100441073Y-80248291D02*
G01*
X100442670Y-80249620D01*
X100711707Y-80517293D01*
X100979379Y-80786329D01*
X100982785Y-80794611D01*
X100979337Y-80802875D01*
X100977740Y-80804204D01*
X100339310Y-81245718D01*
X100330556Y-81247605D01*
X100324382Y-81244368D01*
X99984631Y-80904617D01*
X99981204Y-80896344D01*
X99983281Y-80889689D01*
X100042399Y-80804204D01*
X100424796Y-80251257D01*
X100432319Y-80246404D01*
X100441073Y-80248291D01*
G37*
%TD.AperFunction*%
%TD*%
%TA.AperFunction,Conductor*%
%TO.N,Net-(R108-Pad1)*%
G36*
X150848880Y-91804359D02*
G01*
X151246636Y-92129250D01*
X151250876Y-92137137D01*
X151248296Y-92145712D01*
X151246655Y-92147357D01*
X150848419Y-92473990D01*
X150839849Y-92476587D01*
X150833099Y-92473574D01*
X150673389Y-92327388D01*
X150504778Y-92158777D01*
X150501351Y-92150504D01*
X150504670Y-92142340D01*
X150833100Y-91805254D01*
X150841327Y-91801721D01*
X150848880Y-91804359D01*
G37*
%TD.AperFunction*%
%TD*%
%TA.AperFunction,Conductor*%
%TO.N,GND*%
G36*
X113904364Y-105388944D02*
G01*
X113910682Y-105395291D01*
X113911121Y-105396562D01*
X114045307Y-105871487D01*
X114052352Y-105896420D01*
X114118796Y-106131582D01*
X114117748Y-106140475D01*
X114110718Y-106146022D01*
X114107537Y-106146463D01*
X113875720Y-106146463D01*
X113870559Y-106145263D01*
X113394765Y-105911387D01*
X113388852Y-105904662D01*
X113389112Y-105896420D01*
X113536141Y-105540499D01*
X113542465Y-105534162D01*
X113895411Y-105388923D01*
X113904364Y-105388944D01*
G37*
%TD.AperFunction*%
%TD*%
%TA.AperFunction,Conductor*%
%TO.N,GND*%
G36*
X107312308Y-76408027D02*
G01*
X107314320Y-76410722D01*
X107583032Y-76906158D01*
X107583964Y-76915064D01*
X107580941Y-76920088D01*
X107193836Y-77299873D01*
X107185530Y-77303220D01*
X107180615Y-77302086D01*
X106720791Y-77083307D01*
X106714793Y-77076658D01*
X106714239Y-77071064D01*
X106809545Y-76414618D01*
X106814125Y-76406924D01*
X106821124Y-76404600D01*
X107304035Y-76404600D01*
X107312308Y-76408027D01*
G37*
%TD.AperFunction*%
%TD*%
%TA.AperFunction,Conductor*%
%TO.N,/USB-TTL-AutoProgram/RTS*%
G36*
X117591520Y-86409731D02*
G01*
X117595148Y-86409826D01*
X117603329Y-86413467D01*
X117605195Y-86416068D01*
X117807987Y-86800901D01*
X117808812Y-86809817D01*
X117803340Y-86816571D01*
X117239058Y-87131634D01*
X117233354Y-87133118D01*
X117000549Y-87133118D01*
X116992276Y-87129691D01*
X116988849Y-87121418D01*
X116989057Y-87119221D01*
X117018482Y-86965301D01*
X117125135Y-86407418D01*
X117130053Y-86399938D01*
X117136926Y-86397921D01*
X117591520Y-86409731D01*
G37*
%TD.AperFunction*%
%TD*%
%TA.AperFunction,Conductor*%
%TO.N,GND*%
G36*
X127444514Y-94504726D02*
G01*
X127448534Y-94508746D01*
X127885376Y-95237786D01*
X127886689Y-95246644D01*
X127886032Y-95248552D01*
X127691588Y-95686052D01*
X127685096Y-95692220D01*
X127680896Y-95693000D01*
X127196104Y-95693000D01*
X127187831Y-95689573D01*
X127185412Y-95686052D01*
X126990966Y-95248550D01*
X126990739Y-95239600D01*
X126991617Y-95237797D01*
X127428465Y-94508747D01*
X127435656Y-94503413D01*
X127444514Y-94504726D01*
G37*
%TD.AperFunction*%
%TD*%
%TA.AperFunction,Conductor*%
%TO.N,GND*%
G36*
X117902881Y-106279587D02*
G01*
X118265790Y-106521527D01*
X118270773Y-106528966D01*
X118271000Y-106531261D01*
X118271000Y-106768738D01*
X118267573Y-106777011D01*
X118265790Y-106778473D01*
X117902880Y-107020412D01*
X117894095Y-107022150D01*
X117889379Y-107020044D01*
X117407514Y-106659367D01*
X117402944Y-106651666D01*
X117405158Y-106642989D01*
X117407514Y-106640633D01*
X117556701Y-106528966D01*
X117889380Y-106279954D01*
X117898056Y-106277741D01*
X117902881Y-106279587D01*
G37*
%TD.AperFunction*%
%TD*%
%TA.AperFunction,Conductor*%
%TO.N,/ESP_TX*%
G36*
X109065294Y-74437728D02*
G01*
X109071280Y-74443890D01*
X109219123Y-74798498D01*
X109219144Y-74807452D01*
X109219123Y-74807502D01*
X109071280Y-75162109D01*
X109064933Y-75168427D01*
X109056344Y-75168551D01*
X108427563Y-74930858D01*
X108421036Y-74924727D01*
X108420000Y-74919914D01*
X108420000Y-74686085D01*
X108423427Y-74677812D01*
X108427563Y-74675141D01*
X109056345Y-74437448D01*
X109065294Y-74437728D01*
G37*
%TD.AperFunction*%
%TD*%
%TA.AperFunction,Conductor*%
%TO.N,/USB-TTL-AutoProgram/DTR*%
G36*
X114477544Y-83861753D02*
G01*
X114483706Y-83867739D01*
X114760247Y-84480428D01*
X114760527Y-84489378D01*
X114757856Y-84493514D01*
X114592514Y-84658856D01*
X114584241Y-84662283D01*
X114579428Y-84661247D01*
X113966739Y-84384706D01*
X113960608Y-84378179D01*
X113960732Y-84369590D01*
X114106937Y-84014302D01*
X114113253Y-84007957D01*
X114468590Y-83861732D01*
X114477544Y-83861753D01*
G37*
%TD.AperFunction*%
%TD*%
%TA.AperFunction,Conductor*%
%TO.N,Net-(J103-Pin_2)*%
G36*
X149477895Y-102112427D02*
G01*
X149480180Y-102115658D01*
X150108891Y-103432168D01*
X150109364Y-103441110D01*
X150103375Y-103447768D01*
X150102822Y-103448014D01*
X149356489Y-103758134D01*
X149347535Y-103758144D01*
X149347511Y-103758134D01*
X148601177Y-103448014D01*
X148594852Y-103441675D01*
X148594862Y-103432721D01*
X148595101Y-103432183D01*
X149223820Y-102115657D01*
X149230478Y-102109669D01*
X149234378Y-102109000D01*
X149469622Y-102109000D01*
X149477895Y-102112427D01*
G37*
%TD.AperFunction*%
%TD*%
%TA.AperFunction,Conductor*%
%TO.N,/LED_PWR*%
G36*
X162249039Y-76219685D02*
G01*
X162294794Y-76272489D01*
X162306000Y-76324000D01*
X162306000Y-100206000D01*
X162286315Y-100273039D01*
X162233511Y-100318794D01*
X162182000Y-100330000D01*
X154940000Y-100330000D01*
X154940000Y-107318000D01*
X154920315Y-107385039D01*
X154867511Y-107430794D01*
X154816000Y-107442000D01*
X133728000Y-107442000D01*
X133660961Y-107422315D01*
X133615206Y-107369511D01*
X133604000Y-107318000D01*
X133604000Y-104935941D01*
X140739742Y-104935941D01*
X140896090Y-105008847D01*
X140896099Y-105008851D01*
X141120031Y-105068852D01*
X141120041Y-105068854D01*
X141350999Y-105089061D01*
X141351001Y-105089061D01*
X141581958Y-105068854D01*
X141581968Y-105068852D01*
X141805900Y-105008851D01*
X141805909Y-105008847D01*
X141962257Y-104935941D01*
X151280742Y-104935941D01*
X151437090Y-105008847D01*
X151437099Y-105008851D01*
X151661031Y-105068852D01*
X151661041Y-105068854D01*
X151891999Y-105089061D01*
X151892001Y-105089061D01*
X152122958Y-105068854D01*
X152122968Y-105068852D01*
X152346900Y-105008851D01*
X152346909Y-105008847D01*
X152503257Y-104935941D01*
X151892001Y-104324685D01*
X151892000Y-104324685D01*
X151280742Y-104935941D01*
X141962257Y-104935941D01*
X141630068Y-104603752D01*
X145786500Y-104603752D01*
X145798131Y-104662229D01*
X145798132Y-104662230D01*
X145842447Y-104728552D01*
X145908769Y-104772867D01*
X145908770Y-104772868D01*
X145967247Y-104784499D01*
X145967250Y-104784500D01*
X145967252Y-104784500D01*
X147656750Y-104784500D01*
X147656751Y-104784499D01*
X147671568Y-104781552D01*
X147715229Y-104772868D01*
X147715229Y-104772867D01*
X147715231Y-104772867D01*
X147781552Y-104728552D01*
X147825867Y-104662231D01*
X147825867Y-104662229D01*
X147825868Y-104662229D01*
X147834552Y-104618568D01*
X147837500Y-104603748D01*
X147837500Y-102914252D01*
X147837500Y-102914249D01*
X147837499Y-102914247D01*
X147825868Y-102855770D01*
X147825867Y-102855769D01*
X147781552Y-102789447D01*
X147715230Y-102745132D01*
X147715229Y-102745131D01*
X147656752Y-102733500D01*
X147656748Y-102733500D01*
X145967252Y-102733500D01*
X145967247Y-102733500D01*
X145908770Y-102745131D01*
X145908769Y-102745132D01*
X145842447Y-102789447D01*
X145798132Y-102855769D01*
X145798131Y-102855770D01*
X145786500Y-102914247D01*
X145786500Y-104603752D01*
X141630068Y-104603752D01*
X141351001Y-104324685D01*
X141351000Y-104324685D01*
X140739742Y-104935941D01*
X133604000Y-104935941D01*
X133604000Y-104603752D01*
X135245500Y-104603752D01*
X135257131Y-104662229D01*
X135257132Y-104662230D01*
X135301447Y-104728552D01*
X135367769Y-104772867D01*
X135367770Y-104772868D01*
X135426247Y-104784499D01*
X135426250Y-104784500D01*
X135426252Y-104784500D01*
X137115750Y-104784500D01*
X137115751Y-104784499D01*
X137130568Y-104781552D01*
X137174229Y-104772868D01*
X137174229Y-104772867D01*
X137174231Y-104772867D01*
X137240552Y-104728552D01*
X137284867Y-104662231D01*
X137284867Y-104662229D01*
X137284868Y-104662229D01*
X137293552Y-104618568D01*
X137296500Y-104603748D01*
X137296500Y-102914252D01*
X137296500Y-102914249D01*
X137296499Y-102914247D01*
X137284868Y-102855770D01*
X137284867Y-102855769D01*
X137240552Y-102789447D01*
X137174230Y-102745132D01*
X137174229Y-102745131D01*
X137115752Y-102733500D01*
X137115748Y-102733500D01*
X135426252Y-102733500D01*
X135426247Y-102733500D01*
X135367770Y-102745131D01*
X135367769Y-102745132D01*
X135301447Y-102789447D01*
X135257132Y-102855769D01*
X135257131Y-102855770D01*
X135245500Y-102914247D01*
X135245500Y-104603752D01*
X133604000Y-104603752D01*
X133604000Y-97406000D01*
X133623685Y-97338961D01*
X133676489Y-97293206D01*
X133728000Y-97282000D01*
X142242311Y-97282000D01*
X142309350Y-97301685D01*
X142355105Y-97354489D01*
X142365049Y-97423647D01*
X142336024Y-97487203D01*
X142329992Y-97493681D01*
X138592803Y-101230870D01*
X138588814Y-101234525D01*
X138557805Y-101260545D01*
X138537562Y-101295606D01*
X138534656Y-101300166D01*
X138511446Y-101333313D01*
X138509206Y-101338117D01*
X138502229Y-101354961D01*
X138500410Y-101359959D01*
X138493383Y-101399811D01*
X138492212Y-101405091D01*
X138481735Y-101444191D01*
X138485264Y-101484513D01*
X138485500Y-101489920D01*
X138485500Y-102023887D01*
X138473395Y-102077324D01*
X137867445Y-103346173D01*
X137863434Y-103355198D01*
X137863099Y-103355049D01*
X137859130Y-103364372D01*
X137858978Y-103364656D01*
X137858977Y-103364657D01*
X137800337Y-103557968D01*
X137780538Y-103759000D01*
X137800337Y-103960031D01*
X137858978Y-104153345D01*
X137954198Y-104331488D01*
X137954201Y-104331492D01*
X137954202Y-104331494D01*
X137973688Y-104355238D01*
X138082352Y-104487647D01*
X138191016Y-104576824D01*
X138238506Y-104615798D01*
X138238509Y-104615799D01*
X138238511Y-104615801D01*
X138416654Y-104711021D01*
X138416656Y-104711021D01*
X138416659Y-104711023D01*
X138609967Y-104769662D01*
X138811000Y-104789462D01*
X139012033Y-104769662D01*
X139205341Y-104711023D01*
X139383494Y-104615798D01*
X139539647Y-104487647D01*
X139667798Y-104331494D01*
X139763023Y-104153341D01*
X139807896Y-104005411D01*
X139846192Y-103946975D01*
X139910005Y-103918519D01*
X139979072Y-103929079D01*
X140031465Y-103975303D01*
X140046331Y-104009316D01*
X140101148Y-104213900D01*
X140101153Y-104213914D01*
X140174056Y-104370257D01*
X140174057Y-104370257D01*
X140747429Y-103796886D01*
X140797123Y-103796886D01*
X140827884Y-103944915D01*
X140897442Y-104079156D01*
X141000638Y-104189652D01*
X141129819Y-104268209D01*
X141275404Y-104309000D01*
X141388622Y-104309000D01*
X141500783Y-104293584D01*
X141639458Y-104233349D01*
X141756739Y-104137934D01*
X141843928Y-104014415D01*
X141894559Y-103871953D01*
X141902285Y-103759000D01*
X141916685Y-103759000D01*
X142527941Y-104370256D01*
X142600847Y-104213909D01*
X142600851Y-104213900D01*
X142660852Y-103989968D01*
X142660854Y-103989958D01*
X142681061Y-103759000D01*
X142681061Y-103758999D01*
X142660854Y-103528041D01*
X142660852Y-103528031D01*
X142600851Y-103304099D01*
X142600849Y-103304095D01*
X142527940Y-103147743D01*
X141916685Y-103758999D01*
X141916685Y-103759000D01*
X141902285Y-103759000D01*
X141904877Y-103721114D01*
X141874116Y-103573085D01*
X141804558Y-103438844D01*
X141701362Y-103328348D01*
X141572181Y-103249791D01*
X141426596Y-103209000D01*
X141313378Y-103209000D01*
X141201217Y-103224416D01*
X141062542Y-103284651D01*
X140945261Y-103380066D01*
X140858072Y-103503585D01*
X140807441Y-103646047D01*
X140797123Y-103796886D01*
X140747429Y-103796886D01*
X140785315Y-103759000D01*
X140174058Y-103147743D01*
X140101152Y-103304090D01*
X140101148Y-103304099D01*
X140046331Y-103508683D01*
X140009966Y-103568344D01*
X139947119Y-103598873D01*
X139877744Y-103590578D01*
X139823866Y-103546093D01*
X139807896Y-103512588D01*
X139763023Y-103364659D01*
X139763020Y-103364654D01*
X139763020Y-103364652D01*
X139760803Y-103360505D01*
X139753564Y-103344256D01*
X139753329Y-103343607D01*
X139389645Y-102582058D01*
X140739743Y-102582058D01*
X141351000Y-103193315D01*
X141351001Y-103193315D01*
X141962257Y-102582057D01*
X141962257Y-102582056D01*
X141805914Y-102509153D01*
X141805900Y-102509148D01*
X141581968Y-102449147D01*
X141581958Y-102449145D01*
X141351001Y-102428939D01*
X141350999Y-102428939D01*
X141120041Y-102449145D01*
X141120031Y-102449147D01*
X140896099Y-102509148D01*
X140896090Y-102509152D01*
X140739743Y-102582058D01*
X139389645Y-102582058D01*
X139148605Y-102077324D01*
X139136500Y-102023888D01*
X139136500Y-101659188D01*
X139156185Y-101592149D01*
X139172819Y-101571507D01*
X143426007Y-97318319D01*
X143487330Y-97284834D01*
X143513688Y-97282000D01*
X151384000Y-97282000D01*
X151384000Y-94513499D01*
X151403685Y-94446460D01*
X151456489Y-94400705D01*
X151507999Y-94389499D01*
X151563518Y-94389499D01*
X151657304Y-94374646D01*
X151770342Y-94317050D01*
X151860050Y-94227342D01*
X151917646Y-94114304D01*
X151917646Y-94114302D01*
X151917647Y-94114301D01*
X151932499Y-94020524D01*
X151932500Y-94020519D01*
X151932499Y-93557482D01*
X151917646Y-93463696D01*
X151860050Y-93350658D01*
X151860046Y-93350654D01*
X151860045Y-93350652D01*
X151770347Y-93260954D01*
X151770344Y-93260952D01*
X151770342Y-93260950D01*
X151680932Y-93215393D01*
X151657301Y-93203352D01*
X151563524Y-93188500D01*
X151508000Y-93188500D01*
X151440961Y-93168815D01*
X151395206Y-93116011D01*
X151384000Y-93064500D01*
X151384000Y-92863499D01*
X151403685Y-92796460D01*
X151456489Y-92750705D01*
X151507999Y-92739499D01*
X151563518Y-92739499D01*
X151657304Y-92724646D01*
X151770342Y-92667050D01*
X151860050Y-92577342D01*
X151917646Y-92464304D01*
X151917646Y-92464302D01*
X151917647Y-92464301D01*
X151932499Y-92370524D01*
X151932500Y-92370519D01*
X151932499Y-91907482D01*
X151917646Y-91813696D01*
X151860050Y-91700658D01*
X151860046Y-91700654D01*
X151860045Y-91700652D01*
X151770347Y-91610954D01*
X151770344Y-91610952D01*
X151770342Y-91610950D01*
X151682883Y-91566387D01*
X151657301Y-91553352D01*
X151563524Y-91538500D01*
X151508000Y-91538500D01*
X151440961Y-91518815D01*
X151395206Y-91466011D01*
X151384000Y-91414500D01*
X151384000Y-90830499D01*
X151403685Y-90763460D01*
X151456489Y-90717705D01*
X151507999Y-90706499D01*
X151563518Y-90706499D01*
X151657304Y-90691646D01*
X151770342Y-90634050D01*
X151860050Y-90544342D01*
X151917646Y-90431304D01*
X151917646Y-90431302D01*
X151917647Y-90431301D01*
X151932499Y-90337524D01*
X151932500Y-90337519D01*
X151932499Y-89874482D01*
X151917646Y-89780696D01*
X151860050Y-89667658D01*
X151860046Y-89667654D01*
X151860045Y-89667652D01*
X151770347Y-89577954D01*
X151770344Y-89577952D01*
X151770342Y-89577950D01*
X151680932Y-89532393D01*
X151657301Y-89520352D01*
X151563524Y-89505500D01*
X151508000Y-89505500D01*
X151440961Y-89485815D01*
X151395206Y-89433011D01*
X151384000Y-89381500D01*
X151384000Y-89180499D01*
X151403685Y-89113460D01*
X151456489Y-89067705D01*
X151507999Y-89056499D01*
X151563518Y-89056499D01*
X151657304Y-89041646D01*
X151675325Y-89032463D01*
X151699232Y-89023252D01*
X151707772Y-89020942D01*
X152012155Y-88869887D01*
X152080953Y-88857719D01*
X152145412Y-88884679D01*
X152154955Y-88893281D01*
X152292181Y-89030507D01*
X152325666Y-89091830D01*
X152328500Y-89118188D01*
X152328500Y-97603811D01*
X152308815Y-97670850D01*
X152292181Y-97691492D01*
X149133803Y-100849870D01*
X149129814Y-100853525D01*
X149098805Y-100879545D01*
X149078562Y-100914606D01*
X149075656Y-100919166D01*
X149052446Y-100952313D01*
X149050206Y-100957117D01*
X149043229Y-100973961D01*
X149041410Y-100978959D01*
X149034383Y-101018811D01*
X149033212Y-101024091D01*
X149022735Y-101063191D01*
X149026264Y-101103513D01*
X149026500Y-101108920D01*
X149026500Y-102023887D01*
X149014395Y-102077324D01*
X148408445Y-103346173D01*
X148404434Y-103355198D01*
X148404099Y-103355049D01*
X148400130Y-103364372D01*
X148399978Y-103364656D01*
X148399977Y-103364657D01*
X148341337Y-103557968D01*
X148321538Y-103759000D01*
X148341337Y-103960031D01*
X148399978Y-104153345D01*
X148495198Y-104331488D01*
X148495201Y-104331492D01*
X148495202Y-104331494D01*
X148514688Y-104355238D01*
X148623352Y-104487647D01*
X148732016Y-104576824D01*
X148779506Y-104615798D01*
X148779509Y-104615799D01*
X148779511Y-104615801D01*
X148957654Y-104711021D01*
X148957656Y-104711021D01*
X148957659Y-104711023D01*
X149150967Y-104769662D01*
X149352000Y-104789462D01*
X149553033Y-104769662D01*
X149746341Y-104711023D01*
X149924494Y-104615798D01*
X150080647Y-104487647D01*
X150208798Y-104331494D01*
X150304023Y-104153341D01*
X150348896Y-104005411D01*
X150387192Y-103946975D01*
X150451005Y-103918519D01*
X150520072Y-103929079D01*
X150572465Y-103975303D01*
X150587331Y-104009316D01*
X150642148Y-104213900D01*
X150642153Y-104213914D01*
X150715056Y-104370257D01*
X150715057Y-104370257D01*
X151288429Y-103796886D01*
X151338123Y-103796886D01*
X151368884Y-103944915D01*
X151438442Y-104079156D01*
X151541638Y-104189652D01*
X151670819Y-104268209D01*
X151816404Y-104309000D01*
X151929622Y-104309000D01*
X152041783Y-104293584D01*
X152180458Y-104233349D01*
X152297739Y-104137934D01*
X152384928Y-104014415D01*
X152435559Y-103871953D01*
X152443285Y-103759000D01*
X152457685Y-103759000D01*
X153068941Y-104370256D01*
X153141847Y-104213909D01*
X153141851Y-104213900D01*
X153201852Y-103989968D01*
X153201854Y-103989958D01*
X153222061Y-103759000D01*
X153222061Y-103758999D01*
X153201854Y-103528041D01*
X153201852Y-103528031D01*
X153141851Y-103304099D01*
X153141849Y-103304095D01*
X153068940Y-103147743D01*
X152457685Y-103758999D01*
X152457685Y-103759000D01*
X152443285Y-103759000D01*
X152445877Y-103721114D01*
X152415116Y-103573085D01*
X152345558Y-103438844D01*
X152242362Y-103328348D01*
X152113181Y-103249791D01*
X151967596Y-103209000D01*
X151854378Y-103209000D01*
X151742217Y-103224416D01*
X151603542Y-103284651D01*
X151486261Y-103380066D01*
X151399072Y-103503585D01*
X151348441Y-103646047D01*
X151338123Y-103796886D01*
X151288429Y-103796886D01*
X151326315Y-103759000D01*
X150715058Y-103147743D01*
X150642152Y-103304090D01*
X150642148Y-103304099D01*
X150587331Y-103508683D01*
X150550966Y-103568344D01*
X150488119Y-103598873D01*
X150418744Y-103590578D01*
X150364866Y-103546093D01*
X150348896Y-103512588D01*
X150304023Y-103364659D01*
X150304020Y-103364654D01*
X150304020Y-103364652D01*
X150301803Y-103360505D01*
X150294564Y-103344256D01*
X150294329Y-103343607D01*
X149930645Y-102582058D01*
X151280743Y-102582058D01*
X151892000Y-103193315D01*
X151892001Y-103193315D01*
X152503257Y-102582057D01*
X152503257Y-102582056D01*
X152346914Y-102509153D01*
X152346900Y-102509148D01*
X152122968Y-102449147D01*
X152122958Y-102449145D01*
X151892001Y-102428939D01*
X151891999Y-102428939D01*
X151661041Y-102449145D01*
X151661031Y-102449147D01*
X151437099Y-102509148D01*
X151437090Y-102509152D01*
X151280743Y-102582058D01*
X149930645Y-102582058D01*
X149689605Y-102077324D01*
X149677500Y-102023888D01*
X149677500Y-101278188D01*
X149697185Y-101211149D01*
X149713819Y-101190507D01*
X150698326Y-100206000D01*
X152872210Y-98032115D01*
X152876172Y-98028484D01*
X152907194Y-98002455D01*
X152927444Y-97967379D01*
X152930328Y-97962852D01*
X152953554Y-97929684D01*
X152953554Y-97929681D01*
X152955819Y-97924824D01*
X152962747Y-97908099D01*
X152964587Y-97903046D01*
X152964588Y-97903045D01*
X152971621Y-97863150D01*
X152972777Y-97857937D01*
X152983263Y-97818807D01*
X152979735Y-97778489D01*
X152979500Y-97773086D01*
X152979500Y-96221752D01*
X157597500Y-96221752D01*
X157609131Y-96280229D01*
X157609132Y-96280230D01*
X157653447Y-96346552D01*
X157719769Y-96390867D01*
X157719770Y-96390868D01*
X157778247Y-96402499D01*
X157778250Y-96402500D01*
X157778252Y-96402500D01*
X159467750Y-96402500D01*
X159467751Y-96402499D01*
X159482568Y-96399552D01*
X159526229Y-96390868D01*
X159526229Y-96390867D01*
X159526231Y-96390867D01*
X159592552Y-96346552D01*
X159636867Y-96280231D01*
X159636867Y-96280229D01*
X159636868Y-96280229D01*
X159648499Y-96221752D01*
X159648500Y-96221750D01*
X159648500Y-94532249D01*
X159648499Y-94532247D01*
X159636868Y-94473770D01*
X159636867Y-94473769D01*
X159592552Y-94407447D01*
X159526230Y-94363132D01*
X159526229Y-94363131D01*
X159467752Y-94351500D01*
X159467748Y-94351500D01*
X157778252Y-94351500D01*
X157778247Y-94351500D01*
X157719770Y-94363131D01*
X157719769Y-94363132D01*
X157653447Y-94407447D01*
X157609132Y-94473769D01*
X157609131Y-94473770D01*
X157597500Y-94532247D01*
X157597500Y-96221752D01*
X152979500Y-96221752D01*
X152979500Y-88948920D01*
X152979736Y-88943513D01*
X152982097Y-88916536D01*
X152983264Y-88903193D01*
X152972782Y-88864076D01*
X152971616Y-88858818D01*
X152964588Y-88818955D01*
X152964586Y-88818952D01*
X152964586Y-88818950D01*
X152962760Y-88813933D01*
X152955820Y-88797176D01*
X152953554Y-88792319D01*
X152953554Y-88792316D01*
X152951607Y-88789536D01*
X152930340Y-88759163D01*
X152927433Y-88754599D01*
X152907196Y-88719548D01*
X152907195Y-88719547D01*
X152907194Y-88719545D01*
X152876177Y-88693518D01*
X152872193Y-88689867D01*
X152648643Y-88466317D01*
X152420119Y-88237793D01*
X152416474Y-88233814D01*
X152390456Y-88202807D01*
X152390455Y-88202806D01*
X152379058Y-88196226D01*
X152355392Y-88182561D01*
X152350831Y-88179655D01*
X152337687Y-88170452D01*
X152317684Y-88156446D01*
X152317681Y-88156445D01*
X152312861Y-88154197D01*
X152296055Y-88147235D01*
X152291042Y-88145411D01*
X152251189Y-88138383D01*
X152245910Y-88137212D01*
X152213502Y-88128530D01*
X152206807Y-88126736D01*
X152206806Y-88126736D01*
X152206802Y-88126735D01*
X152200840Y-88126213D01*
X152156533Y-88113760D01*
X151707793Y-87891065D01*
X151707768Y-87891055D01*
X151680825Y-87881688D01*
X151673031Y-87878366D01*
X151657304Y-87870353D01*
X151563524Y-87855500D01*
X151508000Y-87855500D01*
X151440961Y-87835815D01*
X151395206Y-87783011D01*
X151384000Y-87731500D01*
X151384000Y-87147499D01*
X151403685Y-87080460D01*
X151456489Y-87034705D01*
X151507999Y-87023499D01*
X151563518Y-87023499D01*
X151657304Y-87008646D01*
X151770342Y-86951050D01*
X151860050Y-86861342D01*
X151917646Y-86748304D01*
X151917646Y-86748302D01*
X151917647Y-86748301D01*
X151932499Y-86654524D01*
X151932500Y-86654519D01*
X151932499Y-86191482D01*
X151917646Y-86097696D01*
X151860050Y-85984658D01*
X151860046Y-85984654D01*
X151860045Y-85984652D01*
X151770347Y-85894954D01*
X151770344Y-85894952D01*
X151770342Y-85894950D01*
X151680932Y-85849393D01*
X151657301Y-85837352D01*
X151563524Y-85822500D01*
X151508000Y-85822500D01*
X151440961Y-85802815D01*
X151395206Y-85750011D01*
X151384000Y-85698500D01*
X151384000Y-85497499D01*
X151403685Y-85430460D01*
X151456489Y-85384705D01*
X151507999Y-85373499D01*
X151563518Y-85373499D01*
X151657304Y-85358646D01*
X151675325Y-85349463D01*
X151699232Y-85340252D01*
X151707772Y-85337942D01*
X152164217Y-85111424D01*
X152219339Y-85098500D01*
X152785812Y-85098500D01*
X152852851Y-85118185D01*
X152873493Y-85134819D01*
X154070181Y-86331507D01*
X154103666Y-86392830D01*
X154106500Y-86419188D01*
X154106500Y-91550078D01*
X154106264Y-91555485D01*
X154102735Y-91595808D01*
X154113212Y-91634910D01*
X154114383Y-91640190D01*
X154121411Y-91680043D01*
X154123235Y-91685055D01*
X154130197Y-91701861D01*
X154132445Y-91706681D01*
X154132446Y-91706684D01*
X154146452Y-91726687D01*
X154155655Y-91739831D01*
X154158561Y-91744392D01*
X154178806Y-91779455D01*
X154209815Y-91805475D01*
X154213805Y-91809131D01*
X155459868Y-93055195D01*
X155463523Y-93059184D01*
X155489541Y-93090190D01*
X155489543Y-93090191D01*
X155489545Y-93090194D01*
X155524605Y-93110435D01*
X155529159Y-93113337D01*
X155562316Y-93136554D01*
X155562319Y-93136554D01*
X155567176Y-93138820D01*
X155583933Y-93145760D01*
X155588953Y-93147587D01*
X155588955Y-93147588D01*
X155628830Y-93154618D01*
X155634087Y-93155784D01*
X155673193Y-93166263D01*
X155713510Y-93162735D01*
X155718912Y-93162500D01*
X156887892Y-93162500D01*
X156941328Y-93174604D01*
X158210111Y-93780525D01*
X158213197Y-93781897D01*
X158213198Y-93781897D01*
X158219105Y-93784523D01*
X158218956Y-93784857D01*
X158228321Y-93788842D01*
X158228659Y-93789023D01*
X158421967Y-93847662D01*
X158623000Y-93867462D01*
X158824033Y-93847662D01*
X159017341Y-93789023D01*
X159033242Y-93780524D01*
X159120607Y-93733826D01*
X159195494Y-93693798D01*
X159351647Y-93565647D01*
X159479798Y-93409494D01*
X159555810Y-93267286D01*
X159575021Y-93231345D01*
X159575021Y-93231344D01*
X159575023Y-93231341D01*
X159633662Y-93038033D01*
X159653462Y-92837000D01*
X159633662Y-92635967D01*
X159575023Y-92442659D01*
X159575021Y-92442656D01*
X159575021Y-92442654D01*
X159479801Y-92264511D01*
X159479799Y-92264509D01*
X159479798Y-92264506D01*
X159364358Y-92123841D01*
X159351647Y-92108352D01*
X159195495Y-91980203D01*
X159195488Y-91980198D01*
X159017347Y-91884979D01*
X159017341Y-91884977D01*
X158869412Y-91840103D01*
X158810975Y-91801806D01*
X158782519Y-91737994D01*
X158793079Y-91668927D01*
X158839303Y-91616533D01*
X158873316Y-91601668D01*
X159077900Y-91546851D01*
X159077909Y-91546847D01*
X159234257Y-91473941D01*
X158623001Y-90862685D01*
X158623000Y-90862685D01*
X158011742Y-91473941D01*
X158168090Y-91546847D01*
X158168099Y-91546851D01*
X158372683Y-91601668D01*
X158432343Y-91638033D01*
X158462873Y-91700879D01*
X158454579Y-91770255D01*
X158410094Y-91824133D01*
X158376585Y-91840104D01*
X158228659Y-91884976D01*
X158224501Y-91887199D01*
X158208287Y-91894422D01*
X158207618Y-91894664D01*
X157274070Y-92340490D01*
X156951054Y-92494750D01*
X156941327Y-92499395D01*
X156887890Y-92511500D01*
X155888189Y-92511500D01*
X155821150Y-92491815D01*
X155800508Y-92475181D01*
X154793819Y-91468492D01*
X154760334Y-91407169D01*
X154757500Y-91380811D01*
X154757500Y-90297000D01*
X157292939Y-90297000D01*
X157313145Y-90527958D01*
X157313147Y-90527968D01*
X157373148Y-90751900D01*
X157373153Y-90751914D01*
X157446056Y-90908257D01*
X157446057Y-90908257D01*
X158019429Y-90334886D01*
X158069123Y-90334886D01*
X158099884Y-90482915D01*
X158169442Y-90617156D01*
X158272638Y-90727652D01*
X158401819Y-90806209D01*
X158547404Y-90847000D01*
X158660622Y-90847000D01*
X158772783Y-90831584D01*
X158911458Y-90771349D01*
X159028739Y-90675934D01*
X159115928Y-90552415D01*
X159166559Y-90409953D01*
X159174285Y-90297000D01*
X159188685Y-90297000D01*
X159799941Y-90908256D01*
X159872847Y-90751909D01*
X159872851Y-90751900D01*
X159932852Y-90527968D01*
X159932854Y-90527958D01*
X159953061Y-90297000D01*
X159953061Y-90296999D01*
X159932854Y-90066041D01*
X159932852Y-90066031D01*
X159872851Y-89842099D01*
X159872849Y-89842095D01*
X159799940Y-89685743D01*
X159188685Y-90296999D01*
X159188685Y-90297000D01*
X159174285Y-90297000D01*
X159176877Y-90259114D01*
X159146116Y-90111085D01*
X159076558Y-89976844D01*
X158973362Y-89866348D01*
X158844181Y-89787791D01*
X158698596Y-89747000D01*
X158585378Y-89747000D01*
X158473217Y-89762416D01*
X158334542Y-89822651D01*
X158217261Y-89918066D01*
X158130072Y-90041585D01*
X158079441Y-90184047D01*
X158069123Y-90334886D01*
X158019429Y-90334886D01*
X158057315Y-90297000D01*
X157446058Y-89685743D01*
X157373152Y-89842090D01*
X157373148Y-89842099D01*
X157313147Y-90066031D01*
X157313145Y-90066041D01*
X157292939Y-90296999D01*
X157292939Y-90297000D01*
X154757500Y-90297000D01*
X154757500Y-89120058D01*
X158011743Y-89120058D01*
X158623000Y-89731315D01*
X158623001Y-89731315D01*
X159234257Y-89120057D01*
X159234257Y-89120056D01*
X159077914Y-89047153D01*
X159077900Y-89047148D01*
X158853968Y-88987147D01*
X158853958Y-88987145D01*
X158623001Y-88966939D01*
X158622999Y-88966939D01*
X158392041Y-88987145D01*
X158392031Y-88987147D01*
X158168099Y-89047148D01*
X158168090Y-89047152D01*
X158011743Y-89120058D01*
X154757500Y-89120058D01*
X154757500Y-86249920D01*
X154757736Y-86244513D01*
X154761264Y-86204193D01*
X154757858Y-86191482D01*
X154750782Y-86165076D01*
X154749616Y-86159818D01*
X154742588Y-86119955D01*
X154742586Y-86119952D01*
X154742586Y-86119950D01*
X154740760Y-86114933D01*
X154733820Y-86098176D01*
X154731554Y-86093319D01*
X154731554Y-86093316D01*
X154708339Y-86060162D01*
X154705433Y-86055599D01*
X154685196Y-86020548D01*
X154685195Y-86020547D01*
X154685194Y-86020545D01*
X154654177Y-85994518D01*
X154650193Y-85990867D01*
X154340078Y-85680752D01*
X157597500Y-85680752D01*
X157609131Y-85739229D01*
X157609132Y-85739230D01*
X157653447Y-85805552D01*
X157719769Y-85849867D01*
X157719770Y-85849868D01*
X157778247Y-85861499D01*
X157778250Y-85861500D01*
X157778252Y-85861500D01*
X159467750Y-85861500D01*
X159467751Y-85861499D01*
X159482568Y-85858552D01*
X159526229Y-85849868D01*
X159526229Y-85849867D01*
X159526231Y-85849867D01*
X159592552Y-85805552D01*
X159636867Y-85739231D01*
X159636867Y-85739229D01*
X159636868Y-85739229D01*
X159648499Y-85680752D01*
X159648500Y-85680750D01*
X159648500Y-83991249D01*
X159648499Y-83991247D01*
X159636868Y-83932770D01*
X159636867Y-83932769D01*
X159592552Y-83866447D01*
X159526230Y-83822132D01*
X159526229Y-83822131D01*
X159467752Y-83810500D01*
X159467748Y-83810500D01*
X157778252Y-83810500D01*
X157778247Y-83810500D01*
X157719770Y-83822131D01*
X157719769Y-83822132D01*
X157653447Y-83866447D01*
X157609132Y-83932769D01*
X157609131Y-83932770D01*
X157597500Y-83991247D01*
X157597500Y-85680752D01*
X154340078Y-85680752D01*
X153939240Y-85279914D01*
X153214119Y-84554793D01*
X153210474Y-84550814D01*
X153184456Y-84519807D01*
X153184455Y-84519806D01*
X153173058Y-84513226D01*
X153149392Y-84499561D01*
X153144831Y-84496655D01*
X153131687Y-84487452D01*
X153111684Y-84473446D01*
X153111681Y-84473445D01*
X153106861Y-84471197D01*
X153090055Y-84464235D01*
X153085043Y-84462411D01*
X153045190Y-84455383D01*
X153039910Y-84454212D01*
X153000808Y-84443735D01*
X152965892Y-84446790D01*
X152960481Y-84447264D01*
X152955078Y-84447500D01*
X152219338Y-84447500D01*
X152164216Y-84434574D01*
X152145403Y-84425238D01*
X151707771Y-84208056D01*
X151705350Y-84207214D01*
X151680825Y-84198688D01*
X151673031Y-84195366D01*
X151657304Y-84187353D01*
X151563524Y-84172500D01*
X151508000Y-84172500D01*
X151440961Y-84152815D01*
X151395206Y-84100011D01*
X151384000Y-84048500D01*
X151384000Y-83464499D01*
X151403685Y-83397460D01*
X151456489Y-83351705D01*
X151507999Y-83340499D01*
X151563518Y-83340499D01*
X151657304Y-83325646D01*
X151770342Y-83268050D01*
X151860050Y-83178342D01*
X151917646Y-83065304D01*
X151917646Y-83065302D01*
X151917647Y-83065301D01*
X151932499Y-82971524D01*
X151932500Y-82971519D01*
X151932499Y-82508482D01*
X151917646Y-82414696D01*
X151860050Y-82301658D01*
X151860046Y-82301654D01*
X151860045Y-82301652D01*
X151770347Y-82211954D01*
X151770344Y-82211952D01*
X151770342Y-82211950D01*
X151693517Y-82172805D01*
X151657301Y-82154352D01*
X151563524Y-82139500D01*
X151508000Y-82139500D01*
X151440961Y-82119815D01*
X151395206Y-82067011D01*
X151384000Y-82015500D01*
X151384000Y-81814499D01*
X151403685Y-81747460D01*
X151456489Y-81701705D01*
X151507999Y-81690499D01*
X151563518Y-81690499D01*
X151657304Y-81675646D01*
X151675325Y-81666463D01*
X151699232Y-81657252D01*
X151707772Y-81654942D01*
X152164217Y-81428424D01*
X152219339Y-81415500D01*
X155198812Y-81415500D01*
X155265851Y-81435185D01*
X155286493Y-81451819D01*
X156348863Y-82514189D01*
X156352518Y-82518178D01*
X156378541Y-82549190D01*
X156378543Y-82549191D01*
X156378545Y-82549194D01*
X156378547Y-82549195D01*
X156378548Y-82549196D01*
X156413599Y-82569433D01*
X156418162Y-82572339D01*
X156451316Y-82595554D01*
X156451319Y-82595554D01*
X156456176Y-82597820D01*
X156472933Y-82604760D01*
X156477953Y-82606587D01*
X156477955Y-82606588D01*
X156513806Y-82612909D01*
X156517808Y-82613615D01*
X156523080Y-82614783D01*
X156562193Y-82625264D01*
X156602522Y-82621735D01*
X156607924Y-82621500D01*
X156887892Y-82621500D01*
X156941328Y-82633604D01*
X158210111Y-83239525D01*
X158213197Y-83240897D01*
X158213198Y-83240897D01*
X158219105Y-83243523D01*
X158218956Y-83243857D01*
X158228321Y-83247842D01*
X158228659Y-83248023D01*
X158421967Y-83306662D01*
X158623000Y-83326462D01*
X158824033Y-83306662D01*
X159017341Y-83248023D01*
X159033242Y-83239524D01*
X159147695Y-83178347D01*
X159195494Y-83152798D01*
X159351647Y-83024647D01*
X159479798Y-82868494D01*
X159575023Y-82690341D01*
X159633662Y-82497033D01*
X159653462Y-82296000D01*
X159633662Y-82094967D01*
X159575023Y-81901659D01*
X159575021Y-81901656D01*
X159575021Y-81901654D01*
X159479801Y-81723511D01*
X159479799Y-81723509D01*
X159479798Y-81723506D01*
X159440520Y-81675645D01*
X159351647Y-81567352D01*
X159195495Y-81439203D01*
X159195488Y-81439198D01*
X159017347Y-81343979D01*
X159017341Y-81343977D01*
X158869412Y-81299103D01*
X158810975Y-81260806D01*
X158782519Y-81196994D01*
X158793079Y-81127927D01*
X158839303Y-81075533D01*
X158873316Y-81060668D01*
X159077900Y-81005851D01*
X159077909Y-81005847D01*
X159234257Y-80932941D01*
X158623001Y-80321685D01*
X158623000Y-80321685D01*
X158011742Y-80932941D01*
X158168090Y-81005847D01*
X158168099Y-81005851D01*
X158372683Y-81060668D01*
X158432343Y-81097033D01*
X158462873Y-81159879D01*
X158454579Y-81229255D01*
X158410094Y-81283133D01*
X158376585Y-81299104D01*
X158228659Y-81343976D01*
X158224501Y-81346199D01*
X158208287Y-81353422D01*
X158207618Y-81353664D01*
X157231393Y-81819870D01*
X157060131Y-81901659D01*
X156941327Y-81958395D01*
X156887890Y-81970500D01*
X156777188Y-81970500D01*
X156710149Y-81950815D01*
X156689507Y-81934181D01*
X156159524Y-81404198D01*
X155627119Y-80871793D01*
X155623474Y-80867814D01*
X155597456Y-80836807D01*
X155597455Y-80836806D01*
X155586058Y-80830226D01*
X155562392Y-80816561D01*
X155557831Y-80813655D01*
X155544687Y-80804452D01*
X155524684Y-80790446D01*
X155524681Y-80790445D01*
X155519861Y-80788197D01*
X155503055Y-80781235D01*
X155498043Y-80779411D01*
X155458190Y-80772383D01*
X155452910Y-80771212D01*
X155413808Y-80760735D01*
X155378892Y-80763790D01*
X155373481Y-80764264D01*
X155368078Y-80764500D01*
X152219338Y-80764500D01*
X152164216Y-80751574D01*
X152145403Y-80742238D01*
X151707771Y-80525056D01*
X151705350Y-80524214D01*
X151680825Y-80515688D01*
X151673031Y-80512366D01*
X151657304Y-80504353D01*
X151563524Y-80489500D01*
X151508000Y-80489500D01*
X151440961Y-80469815D01*
X151395206Y-80417011D01*
X151384000Y-80365500D01*
X151384000Y-79756000D01*
X157292939Y-79756000D01*
X157313145Y-79986958D01*
X157313147Y-79986968D01*
X157373148Y-80210900D01*
X157373153Y-80210914D01*
X157446056Y-80367257D01*
X157446057Y-80367257D01*
X158019429Y-79793886D01*
X158069123Y-79793886D01*
X158099884Y-79941915D01*
X158169442Y-80076156D01*
X158272638Y-80186652D01*
X158401819Y-80265209D01*
X158547404Y-80306000D01*
X158660622Y-80306000D01*
X158772783Y-80290584D01*
X158911458Y-80230349D01*
X159028739Y-80134934D01*
X159115928Y-80011415D01*
X159166559Y-79868953D01*
X159174285Y-79756000D01*
X159188685Y-79756000D01*
X159799941Y-80367256D01*
X159872847Y-80210909D01*
X159872851Y-80210900D01*
X159932852Y-79986968D01*
X159932854Y-79986958D01*
X159953061Y-79756000D01*
X159953061Y-79755999D01*
X159932854Y-79525041D01*
X159932852Y-79525031D01*
X159872851Y-79301099D01*
X159872849Y-79301095D01*
X159799940Y-79144743D01*
X159188685Y-79755999D01*
X159188685Y-79756000D01*
X159174285Y-79756000D01*
X159176877Y-79718114D01*
X159146116Y-79570085D01*
X159076558Y-79435844D01*
X158973362Y-79325348D01*
X158844181Y-79246791D01*
X158698596Y-79206000D01*
X158585378Y-79206000D01*
X158473217Y-79221416D01*
X158334542Y-79281651D01*
X158217261Y-79377066D01*
X158130072Y-79500585D01*
X158079441Y-79643047D01*
X158069123Y-79793886D01*
X158019429Y-79793886D01*
X158057315Y-79756000D01*
X157446058Y-79144743D01*
X157373152Y-79301090D01*
X157373148Y-79301099D01*
X157313147Y-79525031D01*
X157313145Y-79525041D01*
X157292939Y-79755999D01*
X157292939Y-79756000D01*
X151384000Y-79756000D01*
X151384000Y-78579058D01*
X158011743Y-78579058D01*
X158623000Y-79190315D01*
X158623001Y-79190315D01*
X159234257Y-78579057D01*
X159234257Y-78579056D01*
X159077914Y-78506153D01*
X159077900Y-78506148D01*
X158853968Y-78446147D01*
X158853958Y-78446145D01*
X158623001Y-78425939D01*
X158622999Y-78425939D01*
X158392041Y-78446145D01*
X158392031Y-78446147D01*
X158168099Y-78506148D01*
X158168090Y-78506152D01*
X158011743Y-78579058D01*
X151384000Y-78579058D01*
X151384000Y-76324000D01*
X151403685Y-76256961D01*
X151456489Y-76211206D01*
X151508000Y-76200000D01*
X162182000Y-76200000D01*
X162249039Y-76219685D01*
G37*
%TD.AperFunction*%
%TD*%
%TA.AperFunction,Conductor*%
%TO.N,+5V*%
G36*
X109925039Y-78454885D02*
G01*
X109970794Y-78507689D01*
X109982000Y-78559200D01*
X109982000Y-78920800D01*
X109962315Y-78987839D01*
X109909511Y-79033594D01*
X109858000Y-79044800D01*
X108254800Y-79044800D01*
X108254800Y-80314800D01*
X109858000Y-80314800D01*
X109925039Y-80334485D01*
X109970794Y-80387289D01*
X109982000Y-80438800D01*
X109982000Y-80800400D01*
X109962315Y-80867439D01*
X109909511Y-80913194D01*
X109858000Y-80924400D01*
X103629000Y-80924400D01*
X103561961Y-80904715D01*
X103516206Y-80851911D01*
X103505000Y-80800400D01*
X103505000Y-78861382D01*
X103524685Y-78794343D01*
X103541319Y-78773701D01*
X103761309Y-78553711D01*
X103786981Y-78534014D01*
X103807455Y-78522194D01*
X103833491Y-78491164D01*
X103837113Y-78487211D01*
X103852809Y-78471515D01*
X103914133Y-78438033D01*
X103940487Y-78435200D01*
X109858000Y-78435200D01*
X109925039Y-78454885D01*
G37*
%TD.AperFunction*%
%TD*%
M02*
