M48
; DRILL file {KiCad 7.0.6-0} date 2023 August 21, Monday 23:56:37
; FORMAT={-:-/ absolute / inch / decimal}
; #@! TF.CreationDate,2023-08-21T23:56:37-04:00
; #@! TF.GenerationSoftware,Kicad,Pcbnew,7.0.6-0
; #@! TF.FileFunction,Plated,1,4,PTH
FMAT,2
INCH
; #@! TA.AperFunction,Plated,PTH,ComponentDrill
T1C0.0079
; #@! TA.AperFunction,Plated,PTH,ViaDrill
T2C0.0157
; #@! TA.AperFunction,Plated,PTH,ComponentDrill
T3C0.0236
; #@! TA.AperFunction,Plated,PTH,ComponentDrill
T4C0.0354
; #@! TA.AperFunction,Plated,PTH,ComponentDrill
T5C0.0394
; #@! TA.AperFunction,Plated,PTH,ComponentDrill
T6C0.0433
%
G90
G05
T1
X5.1553Y-3.2799
X5.1553Y-3.34
X5.1853Y-3.2499
X5.1853Y-3.31
X5.1853Y-3.37
X5.2153Y-3.2799
X5.2153Y-3.34
X5.2453Y-3.2499
X5.2453Y-3.31
X5.2453Y-3.37
X5.2753Y-3.2799
X5.2753Y-3.34
T2
X3.92Y-3.085
X3.9235Y-3.14
X3.93Y-3.2
X3.93Y-3.32
X4.08Y-3.31
X4.095Y-3.16
X4.11Y-3.245
X4.115Y-3.12
X4.135Y-3.82
X4.145Y-3.16
X4.155Y-2.995
X4.21Y-3.608
X4.215Y-2.995
X4.2207Y-3.5307
X4.23Y-3.38
X4.23Y-3.425
X4.23Y-3.675
X4.23Y-3.72
X4.274Y-3.034
X4.275Y-3.38
X4.275Y-3.425
X4.275Y-3.675
X4.275Y-3.72
X4.3Y-2.945
X4.305Y-2.875
X4.31Y-2.81
X4.32Y-3.425
X4.39Y-3.53
X4.403Y-3.747
X4.45Y-3.22
X4.46Y-3.84
X4.47Y-4.155
X4.4925Y-3.3075
X4.52Y-3.15
X4.53Y-3.09
X4.53Y-3.84
X4.555Y-3.195
X4.57Y-3.58
X4.59Y-3.73
X4.61Y-3.035
X4.61Y-3.535
X4.615Y-3.995
X4.6924Y-3.285
X4.76Y-3.035
X4.77Y-3.525
X4.809Y-3.29
X4.82Y-3.785
X4.825Y-3.02
X4.825Y-3.25
X4.84Y-4.155
X5.015Y-3.795
X5.11Y-3.79
X5.27Y-3.98
X5.27Y-4.09
X5.27Y-4.2
X5.42Y-3.17
X5.421Y-3.1296
X5.455Y-3.615
X5.49Y-3.1306
X5.49Y-3.17
X5.655Y-3.02
X5.67Y-3.98
X5.67Y-4.09
X5.67Y-4.2
X5.7Y-3.185
X5.7Y-3.26
X5.7Y-3.33
X5.7Y-3.405
X5.7Y-3.475
X5.7Y-3.55
X5.7Y-3.625
X5.7Y-3.7
X5.9Y-3.19
X5.9Y-3.33
X5.9Y-3.48
X5.9Y-3.62
X6.13Y-3.04
X6.13Y-3.45
X6.13Y-3.9
X6.24Y-3.04
X6.24Y-3.45
X6.24Y-3.9
X6.35Y-3.04
X6.35Y-3.45
X6.35Y-3.9
T4
X4.97Y-4.095
X5.07Y-4.095
X5.17Y-4.095
T5
X4.2502Y-3.84
X4.3502Y-3.84
T6
X5.365Y-4.085
X5.465Y-4.085
X5.565Y-4.085
X5.78Y-4.085
X5.88Y-4.085
X5.98Y-4.085
X6.245Y-3.14
X6.245Y-3.24
X6.245Y-3.34
X6.245Y-3.555
X6.245Y-3.655
X6.245Y-3.755
T3
G00X3.9589Y-3.3995
M15
G01X3.9274Y-3.3995
M16
G05
G00X3.9589Y-3.7401
M15
G01X3.9274Y-3.7401
M16
G05
G00X4.1331Y-3.3995
M15
G01X4.0898Y-3.3995
M16
G05
G00X4.1331Y-3.7401
M15
G01X4.0898Y-3.7401
M16
G05
T0
M30
