M48
; DRILL file {KiCad 7.0.9} date Monday, January 15, 2024 at 05:59:57 PM
; FORMAT={-:-/ absolute / inch / decimal}
; #@! TF.CreationDate,2024-01-15T17:59:57-05:00
; #@! TF.GenerationSoftware,Kicad,Pcbnew,7.0.9
; #@! TF.FileFunction,Plated,1,4,PTH
FMAT,2
INCH
; #@! TA.AperFunction,Plated,PTH,ComponentDrill
T1C0.0079
; #@! TA.AperFunction,Plated,PTH,ViaDrill
T2C0.0157
; #@! TA.AperFunction,Plated,PTH,ComponentDrill
T3C0.0236
; #@! TA.AperFunction,Plated,PTH,ComponentDrill
T4C0.0354
; #@! TA.AperFunction,Plated,PTH,ComponentDrill
T5C0.0394
; #@! TA.AperFunction,Plated,PTH,ComponentDrill
T6C0.0433
%
G90
G05
T1
X1.3003Y0.9701
X1.3003Y0.91
X1.3303Y1.0001
X1.3303Y0.94
X1.3303Y0.88
X1.3603Y0.9701
X1.3603Y0.91
X1.3903Y1.0001
X1.3903Y0.94
X1.3903Y0.88
X1.4203Y0.9701
X1.4203Y0.91
T2
X0.065Y1.165
X0.0685Y1.11
X0.075Y1.05
X0.075Y0.93
X0.225Y0.94
X0.24Y1.09
X0.255Y1.005
X0.26Y1.13
X0.28Y0.43
X0.29Y1.09
X0.3Y1.255
X0.355Y0.642
X0.36Y1.255
X0.3657Y0.7193
X0.375Y0.87
X0.375Y0.825
X0.375Y0.575
X0.375Y0.53
X0.419Y1.216
X0.42Y0.87
X0.42Y0.825
X0.42Y0.575
X0.42Y0.53
X0.445Y1.305
X0.45Y1.375
X0.455Y1.44
X0.465Y0.825
X0.535Y0.72
X0.548Y0.503
X0.595Y1.03
X0.605Y0.41
X0.615Y0.095
X0.6375Y0.9425
X0.665Y1.1
X0.675Y1.16
X0.675Y0.41
X0.7Y1.055
X0.715Y0.67
X0.735Y0.52
X0.755Y1.215
X0.755Y0.715
X0.76Y0.255
X0.8374Y0.965
X0.905Y1.215
X0.915Y0.725
X0.954Y0.96
X0.965Y0.465
X0.97Y1.23
X0.97Y1.0
X0.985Y0.095
X1.16Y0.455
X1.255Y0.46
X1.415Y0.27
X1.415Y0.16
X1.415Y0.05
X1.565Y1.08
X1.566Y1.1204
X1.6Y0.635
X1.635Y1.1194
X1.635Y1.08
X1.8Y1.23
X1.815Y0.27
X1.815Y0.16
X1.815Y0.05
X1.845Y1.065
X1.845Y0.99
X1.845Y0.92
X1.845Y0.845
X1.845Y0.775
X1.845Y0.7
X1.845Y0.625
X1.845Y0.55
X2.045Y1.06
X2.045Y0.92
X2.045Y0.77
X2.045Y0.64
X2.275Y1.21
X2.275Y0.8
X2.275Y0.35
X2.385Y1.21
X2.385Y0.8
X2.385Y0.35
X2.495Y1.21
X2.495Y0.8
X2.495Y0.35
T4
X1.115Y0.155
X1.215Y0.155
X1.315Y0.155
T5
X0.3952Y0.41
X0.4952Y0.41
T6
X1.51Y0.165
X1.61Y0.165
X1.71Y0.165
X1.925Y0.165
X2.025Y0.165
X2.125Y0.165
X2.39Y1.11
X2.39Y1.01
X2.39Y0.91
X2.39Y0.695
X2.39Y0.595
X2.39Y0.495
T3
G00X0.1039Y0.8505
M15
G01X0.0724Y0.8505
M16
G05
G00X0.1039Y0.5099
M15
G01X0.0724Y0.5099
M16
G05
G00X0.2781Y0.8505
M15
G01X0.2348Y0.8505
M16
G05
G00X0.2781Y0.5099
M15
G01X0.2348Y0.5099
M16
G05
T0
M30
