%TF.GenerationSoftware,KiCad,Pcbnew,7.0.8*%
%TF.CreationDate,2023-11-17T17:44:40-05:00*%
%TF.ProjectId,wled-esp32-control-board,776c6564-2d65-4737-9033-322d636f6e74,C*%
%TF.SameCoordinates,Original*%
%TF.FileFunction,Copper,L2,Inr*%
%TF.FilePolarity,Positive*%
%FSLAX46Y46*%
G04 Gerber Fmt 4.6, Leading zero omitted, Abs format (unit mm)*
G04 Created by KiCad (PCBNEW 7.0.8) date 2023-11-17 17:44:40*
%MOMM*%
%LPD*%
G01*
G04 APERTURE LIST*
G04 Aperture macros list*
%AMRoundRect*
0 Rectangle with rounded corners*
0 $1 Rounding radius*
0 $2 $3 $4 $5 $6 $7 $8 $9 X,Y pos of 4 corners*
0 Add a 4 corners polygon primitive as box body*
4,1,4,$2,$3,$4,$5,$6,$7,$8,$9,$2,$3,0*
0 Add four circle primitives for the rounded corners*
1,1,$1+$1,$2,$3*
1,1,$1+$1,$4,$5*
1,1,$1+$1,$6,$7*
1,1,$1+$1,$8,$9*
0 Add four rect primitives between the rounded corners*
20,1,$1+$1,$2,$3,$4,$5,0*
20,1,$1+$1,$4,$5,$6,$7,0*
20,1,$1+$1,$6,$7,$8,$9,0*
20,1,$1+$1,$8,$9,$2,$3,0*%
G04 Aperture macros list end*
%TA.AperFunction,ComponentPad*%
%ADD10O,2.300000X1.200000*%
%TD*%
%TA.AperFunction,ComponentPad*%
%ADD11O,2.000000X1.200000*%
%TD*%
%TA.AperFunction,ComponentPad*%
%ADD12R,1.700000X1.700000*%
%TD*%
%TA.AperFunction,ComponentPad*%
%ADD13O,1.700000X1.700000*%
%TD*%
%TA.AperFunction,ComponentPad*%
%ADD14R,1.650000X1.650000*%
%TD*%
%TA.AperFunction,ComponentPad*%
%ADD15C,1.650000*%
%TD*%
%TA.AperFunction,ComponentPad*%
%ADD16RoundRect,0.250200X-0.649800X-0.649800X0.649800X-0.649800X0.649800X0.649800X-0.649800X0.649800X0*%
%TD*%
%TA.AperFunction,ComponentPad*%
%ADD17C,1.800000*%
%TD*%
%TA.AperFunction,ComponentPad*%
%ADD18C,0.475000*%
%TD*%
%TA.AperFunction,ViaPad*%
%ADD19C,0.800000*%
%TD*%
G04 APERTURE END LIST*
D10*
%TO.N,GND*%
%TO.C,J201*%
X104431000Y-86348000D03*
D11*
X100156000Y-86348000D03*
D10*
X104431000Y-94998000D03*
D11*
X100156000Y-94998000D03*
%TD*%
D12*
%TO.N,/LED_PWR*%
%TO.C,SW101*%
X110495000Y-97536000D03*
D13*
%TO.N,VCC*%
X107955000Y-97536000D03*
%TD*%
D14*
%TO.N,GND*%
%TO.C,J104*%
X136271000Y-103759000D03*
D15*
%TO.N,Net-(J104-Pin_2)*%
X138811000Y-103759000D03*
%TO.N,/LED_PWR*%
X141351000Y-103759000D03*
%TD*%
D16*
%TO.N,/IR_RECV*%
%TO.C,U106*%
X126238000Y-104013000D03*
D17*
%TO.N,GND*%
X128778000Y-104013000D03*
%TO.N,+3.3V*%
X131318000Y-104013000D03*
%TD*%
D14*
%TO.N,GND*%
%TO.C,J102*%
X158623000Y-95377000D03*
D15*
%TO.N,Net-(J102-Pin_2)*%
X158623000Y-92837000D03*
%TO.N,/LED_PWR*%
X158623000Y-90297000D03*
%TD*%
D14*
%TO.N,GND*%
%TO.C,J101*%
X158623000Y-84836000D03*
D15*
%TO.N,Net-(J101-Pin_2)*%
X158623000Y-82296000D03*
%TO.N,/LED_PWR*%
X158623000Y-79756000D03*
%TD*%
D14*
%TO.N,GND*%
%TO.C,J103*%
X146812000Y-103759000D03*
D15*
%TO.N,Net-(J103-Pin_2)*%
X149352000Y-103759000D03*
%TO.N,/LED_PWR*%
X151892000Y-103759000D03*
%TD*%
D18*
%TO.N,GND*%
%TO.C,U103*%
X130943500Y-83310500D03*
X130943500Y-84835500D03*
X131706000Y-82548000D03*
X131706000Y-84073000D03*
X131706000Y-85598000D03*
X132468500Y-83310500D03*
X132468500Y-84835500D03*
X133231000Y-82548000D03*
X133231000Y-84073000D03*
X133231000Y-85598000D03*
X133993500Y-83310500D03*
X133993500Y-84835500D03*
%TD*%
D19*
%TO.N,+3.3V*%
X129794000Y-96266000D03*
X115062000Y-78486000D03*
%TO.N,GND*%
X113030000Y-81788000D03*
X117094000Y-77089000D03*
X139446000Y-79518497D03*
X144780000Y-82804000D03*
X144780000Y-80899000D03*
X122936000Y-105537000D03*
X108559600Y-77063200D03*
X144780000Y-93980000D03*
X144780000Y-92075000D03*
X105029000Y-97028000D03*
X120904000Y-77089000D03*
X113284000Y-97536000D03*
X99822000Y-84328000D03*
X144780000Y-86487000D03*
X117094000Y-89789000D03*
X144780000Y-84582000D03*
X113538000Y-105537000D03*
X144780000Y-90170000D03*
X122555000Y-82550000D03*
X111836200Y-95173800D03*
X143637000Y-76708000D03*
X127381000Y-96393000D03*
X105537000Y-76073000D03*
X144780000Y-88265000D03*
X109474000Y-71374000D03*
X111506000Y-89662000D03*
X137693449Y-79493048D03*
X107061000Y-76073000D03*
X99657500Y-79756000D03*
X115062000Y-97536000D03*
X103632000Y-84074000D03*
X116078000Y-90932000D03*
X122555000Y-76708000D03*
%TO.N,+5V*%
X149860000Y-81026000D03*
X99822000Y-81280000D03*
X149860000Y-88392000D03*
X104521000Y-79248000D03*
X105283000Y-80264000D03*
X149860000Y-84582000D03*
X116586000Y-94742000D03*
X149860000Y-91694000D03*
X104013000Y-80264000D03*
%TO.N,/EN*%
X121158000Y-89535000D03*
X104394000Y-82423000D03*
X119187200Y-83439000D03*
%TO.N,/IO0*%
X117221000Y-101473000D03*
X99568000Y-78359000D03*
X122428000Y-96139000D03*
X138557000Y-91821000D03*
%TO.N,/USB-TTL-AutoProgram/D_P*%
X106934000Y-91644100D03*
X107205174Y-89679174D03*
%TO.N,VCC*%
X108585000Y-93345000D03*
X107442000Y-94488000D03*
X108585000Y-94488000D03*
X107442000Y-86995000D03*
X109728000Y-86995000D03*
X107442000Y-93345000D03*
X108585000Y-86995000D03*
X108585000Y-85852000D03*
X107442000Y-85852000D03*
%TO.N,/ESP_TX*%
X139446000Y-80518000D03*
X115697000Y-81153000D03*
X109220000Y-74803000D03*
%TO.N,/ESP_RX*%
X109347000Y-73025000D03*
X137668000Y-80518000D03*
X114808000Y-80010000D03*
%TO.N,/USB-TTL-AutoProgram/DTR*%
X114109500Y-84010500D03*
X122148600Y-83566000D03*
%TO.N,/LED_PWR*%
X144018000Y-106680000D03*
X144018000Y-103886000D03*
X158496000Y-99060000D03*
X161290000Y-87630000D03*
X133858000Y-103886000D03*
X161290000Y-99060000D03*
X158496000Y-77216000D03*
X133858000Y-101092000D03*
X144018000Y-101092000D03*
X158496000Y-87630000D03*
X155702000Y-77216000D03*
X155702000Y-87630000D03*
X133858000Y-106680000D03*
X161290000Y-77216000D03*
X155702000Y-99060000D03*
%TD*%
%TA.AperFunction,Conductor*%
%TO.N,GND*%
G36*
X118260539Y-68773185D02*
G01*
X118306294Y-68825989D01*
X118317500Y-68877500D01*
X118317500Y-75505784D01*
X118314437Y-75527745D01*
X118313598Y-75536792D01*
X118317235Y-75576035D01*
X118317500Y-75581758D01*
X118317500Y-75592843D01*
X118317501Y-75592855D01*
X118319536Y-75603749D01*
X118320327Y-75609415D01*
X118323964Y-75648658D01*
X118326443Y-75657372D01*
X118329667Y-75666989D01*
X118332938Y-75675432D01*
X118332939Y-75675433D01*
X118353690Y-75708948D01*
X118356467Y-75713933D01*
X118362442Y-75725931D01*
X118374042Y-75749228D01*
X118379526Y-75756490D01*
X118385957Y-75764235D01*
X118392080Y-75770951D01*
X118423535Y-75794706D01*
X118427943Y-75798366D01*
X118428006Y-75798423D01*
X118457067Y-75824916D01*
X118457068Y-75824916D01*
X118457069Y-75824917D01*
X118464797Y-75829702D01*
X118473580Y-75834594D01*
X118481732Y-75838653D01*
X118481736Y-75838656D01*
X118519660Y-75849445D01*
X118525054Y-75851253D01*
X118561827Y-75865500D01*
X118561829Y-75865500D01*
X118570755Y-75867169D01*
X118580742Y-75868562D01*
X118589792Y-75869401D01*
X118589792Y-75869400D01*
X118589793Y-75869401D01*
X118598847Y-75868562D01*
X118629036Y-75865765D01*
X118634759Y-75865500D01*
X147641785Y-75865500D01*
X147663742Y-75868562D01*
X147672792Y-75869401D01*
X147672792Y-75869400D01*
X147672793Y-75869401D01*
X147681847Y-75868562D01*
X147712036Y-75865765D01*
X147717759Y-75865500D01*
X147728844Y-75865500D01*
X147739757Y-75863459D01*
X147745387Y-75862673D01*
X147784660Y-75859035D01*
X147784665Y-75859032D01*
X147793421Y-75856541D01*
X147802940Y-75853350D01*
X147811431Y-75850061D01*
X147811433Y-75850061D01*
X147844965Y-75829297D01*
X147849919Y-75826538D01*
X147885228Y-75808958D01*
X147885229Y-75808957D01*
X147892523Y-75803448D01*
X147900197Y-75797076D01*
X147906949Y-75790921D01*
X147906949Y-75790920D01*
X147906952Y-75790919D01*
X147930715Y-75759449D01*
X147934341Y-75755082D01*
X147960916Y-75725933D01*
X147960918Y-75725927D01*
X147965721Y-75718170D01*
X147970579Y-75709448D01*
X147974650Y-75701271D01*
X147974656Y-75701264D01*
X147985445Y-75663338D01*
X147987251Y-75657951D01*
X148001500Y-75621173D01*
X148001500Y-75621170D01*
X148001501Y-75621168D01*
X148003172Y-75612229D01*
X148004561Y-75602276D01*
X148005401Y-75593207D01*
X148001765Y-75553964D01*
X148001500Y-75548241D01*
X148001500Y-72203763D01*
X157145787Y-72203763D01*
X157175413Y-72473013D01*
X157175415Y-72473024D01*
X157223440Y-72656722D01*
X157243928Y-72735088D01*
X157349870Y-72984390D01*
X157421998Y-73102575D01*
X157490979Y-73215605D01*
X157490986Y-73215615D01*
X157664253Y-73423819D01*
X157664259Y-73423824D01*
X157865998Y-73604582D01*
X158091910Y-73754044D01*
X158337176Y-73869020D01*
X158337183Y-73869022D01*
X158337185Y-73869023D01*
X158596557Y-73947057D01*
X158596564Y-73947058D01*
X158596569Y-73947060D01*
X158864561Y-73986500D01*
X158864566Y-73986500D01*
X159067636Y-73986500D01*
X159119133Y-73982730D01*
X159270156Y-73971677D01*
X159404027Y-73941856D01*
X159534546Y-73912782D01*
X159534548Y-73912781D01*
X159534553Y-73912780D01*
X159787558Y-73816014D01*
X160023777Y-73683441D01*
X160238177Y-73517888D01*
X160426186Y-73322881D01*
X160583799Y-73102579D01*
X160657787Y-72958669D01*
X160707649Y-72861690D01*
X160707651Y-72861684D01*
X160707656Y-72861675D01*
X160795118Y-72605305D01*
X160844319Y-72338933D01*
X160854212Y-72068235D01*
X160824586Y-71798982D01*
X160756072Y-71536912D01*
X160650130Y-71287610D01*
X160509018Y-71056390D01*
X160471471Y-71011272D01*
X160335746Y-70848180D01*
X160335740Y-70848175D01*
X160134002Y-70667418D01*
X159908092Y-70517957D01*
X159904875Y-70516449D01*
X159662824Y-70402980D01*
X159662819Y-70402978D01*
X159662814Y-70402976D01*
X159403442Y-70324942D01*
X159403428Y-70324939D01*
X159287791Y-70307921D01*
X159135439Y-70285500D01*
X158932369Y-70285500D01*
X158932364Y-70285500D01*
X158729844Y-70300323D01*
X158729831Y-70300325D01*
X158465453Y-70359217D01*
X158465446Y-70359220D01*
X158212439Y-70455987D01*
X157976226Y-70588557D01*
X157761822Y-70754112D01*
X157573822Y-70949109D01*
X157573816Y-70949116D01*
X157416202Y-71169419D01*
X157416199Y-71169424D01*
X157292350Y-71410309D01*
X157292343Y-71410327D01*
X157204884Y-71666685D01*
X157204881Y-71666699D01*
X157155681Y-71933068D01*
X157155680Y-71933075D01*
X157145787Y-72203763D01*
X148001500Y-72203763D01*
X148001500Y-68877500D01*
X148021185Y-68810461D01*
X148073989Y-68764706D01*
X148125500Y-68753500D01*
X160270964Y-68753500D01*
X160274927Y-68753627D01*
X160458079Y-68765353D01*
X160540173Y-68770610D01*
X160547583Y-68771536D01*
X160807135Y-68820049D01*
X160814389Y-68821865D01*
X161066187Y-68901306D01*
X161073176Y-68903985D01*
X161313556Y-69013195D01*
X161320176Y-69016699D01*
X161545651Y-69154095D01*
X161551779Y-69158357D01*
X161611709Y-69205653D01*
X161759046Y-69321929D01*
X161764638Y-69326918D01*
X161796222Y-69358726D01*
X161944379Y-69507937D01*
X161950661Y-69514263D01*
X161955603Y-69519880D01*
X162031007Y-69616831D01*
X162117700Y-69728298D01*
X162121934Y-69734477D01*
X162232696Y-69919176D01*
X162257724Y-69960910D01*
X162261183Y-69967558D01*
X162368683Y-70208698D01*
X162371315Y-70215714D01*
X162448968Y-70468057D01*
X162450736Y-70475339D01*
X162497404Y-70735194D01*
X162498281Y-70742636D01*
X162513395Y-71008135D01*
X162513495Y-71011880D01*
X162513303Y-71065653D01*
X162513500Y-71068199D01*
X162513500Y-105408122D01*
X162513387Y-105411866D01*
X162497398Y-105676195D01*
X162496494Y-105683634D01*
X162449098Y-105942260D01*
X162447305Y-105949536D01*
X162369088Y-106200547D01*
X162366430Y-106207554D01*
X162258519Y-106447325D01*
X162255036Y-106453961D01*
X162119013Y-106678969D01*
X162114756Y-106685136D01*
X161952602Y-106892111D01*
X161947633Y-106897720D01*
X161761720Y-107083633D01*
X161756111Y-107088602D01*
X161549136Y-107250756D01*
X161542969Y-107255013D01*
X161317961Y-107391036D01*
X161311325Y-107394519D01*
X161071554Y-107502430D01*
X161064547Y-107505088D01*
X160813536Y-107583305D01*
X160806260Y-107585098D01*
X160547634Y-107632494D01*
X160540195Y-107633398D01*
X160275866Y-107649387D01*
X160272122Y-107649500D01*
X144597252Y-107649500D01*
X144530213Y-107629815D01*
X144484458Y-107577011D01*
X144474514Y-107507853D01*
X144503539Y-107444297D01*
X144524367Y-107425182D01*
X144568690Y-107392979D01*
X144623871Y-107352888D01*
X144750533Y-107212216D01*
X144845179Y-107048284D01*
X144903674Y-106868256D01*
X144923460Y-106680000D01*
X144903674Y-106491744D01*
X144845179Y-106311716D01*
X144750533Y-106147784D01*
X144623871Y-106007112D01*
X144614110Y-106000020D01*
X144470734Y-105895851D01*
X144470729Y-105895848D01*
X144297807Y-105818857D01*
X144297802Y-105818855D01*
X144152001Y-105787865D01*
X144112646Y-105779500D01*
X143923354Y-105779500D01*
X143890897Y-105786398D01*
X143738197Y-105818855D01*
X143738192Y-105818857D01*
X143565270Y-105895848D01*
X143565265Y-105895851D01*
X143412129Y-106007111D01*
X143285466Y-106147785D01*
X143190821Y-106311715D01*
X143190818Y-106311722D01*
X143132327Y-106491740D01*
X143132326Y-106491744D01*
X143112540Y-106680000D01*
X143132326Y-106868256D01*
X143132327Y-106868259D01*
X143190818Y-107048277D01*
X143190821Y-107048284D01*
X143285467Y-107212216D01*
X143324002Y-107255013D01*
X143412129Y-107352888D01*
X143511633Y-107425182D01*
X143554299Y-107480512D01*
X143560278Y-107550125D01*
X143527672Y-107611920D01*
X143466834Y-107646277D01*
X143438748Y-107649500D01*
X134437252Y-107649500D01*
X134370213Y-107629815D01*
X134324458Y-107577011D01*
X134314514Y-107507853D01*
X134343539Y-107444297D01*
X134364367Y-107425182D01*
X134408690Y-107392979D01*
X134463871Y-107352888D01*
X134590533Y-107212216D01*
X134685179Y-107048284D01*
X134743674Y-106868256D01*
X134763460Y-106680000D01*
X134743674Y-106491744D01*
X134685179Y-106311716D01*
X134590533Y-106147784D01*
X134463871Y-106007112D01*
X134454110Y-106000020D01*
X134310734Y-105895851D01*
X134310729Y-105895848D01*
X134137807Y-105818857D01*
X134137802Y-105818855D01*
X133992001Y-105787865D01*
X133952646Y-105779500D01*
X133763354Y-105779500D01*
X133730897Y-105786398D01*
X133578197Y-105818855D01*
X133578192Y-105818857D01*
X133405270Y-105895848D01*
X133405265Y-105895851D01*
X133252129Y-106007111D01*
X133125466Y-106147785D01*
X133030821Y-106311715D01*
X133030818Y-106311722D01*
X132972327Y-106491740D01*
X132972326Y-106491744D01*
X132952540Y-106680000D01*
X132972326Y-106868256D01*
X132972327Y-106868259D01*
X133030818Y-107048277D01*
X133030821Y-107048284D01*
X133125467Y-107212216D01*
X133164002Y-107255013D01*
X133252129Y-107352888D01*
X133351633Y-107425182D01*
X133394299Y-107480512D01*
X133400278Y-107550125D01*
X133367672Y-107611920D01*
X133306834Y-107646277D01*
X133278748Y-107649500D01*
X100458878Y-107649500D01*
X100455134Y-107649387D01*
X100190804Y-107633398D01*
X100183365Y-107632494D01*
X99924739Y-107585098D01*
X99917463Y-107583305D01*
X99750680Y-107531334D01*
X99666447Y-107505086D01*
X99659445Y-107502430D01*
X99419674Y-107394519D01*
X99413038Y-107391036D01*
X99188030Y-107255013D01*
X99181863Y-107250756D01*
X98974888Y-107088602D01*
X98969287Y-107083640D01*
X98783358Y-106897711D01*
X98778397Y-106892111D01*
X98616243Y-106685136D01*
X98611986Y-106678969D01*
X98498804Y-106491744D01*
X98475960Y-106453956D01*
X98472480Y-106447325D01*
X98364569Y-106207554D01*
X98361916Y-106200561D01*
X98283692Y-105949530D01*
X98281901Y-105942260D01*
X98234505Y-105683634D01*
X98233601Y-105676195D01*
X98231949Y-105648888D01*
X98217712Y-105413499D01*
X98217613Y-105411866D01*
X98217500Y-105408122D01*
X98217500Y-104334763D01*
X99745787Y-104334763D01*
X99775413Y-104604013D01*
X99775415Y-104604024D01*
X99835612Y-104834279D01*
X99843928Y-104866088D01*
X99949870Y-105115390D01*
X100090979Y-105346605D01*
X100090986Y-105346615D01*
X100264253Y-105554819D01*
X100264259Y-105554824D01*
X100465998Y-105735582D01*
X100691910Y-105885044D01*
X100937176Y-106000020D01*
X100937183Y-106000022D01*
X100937185Y-106000023D01*
X101196557Y-106078057D01*
X101196564Y-106078058D01*
X101196569Y-106078060D01*
X101464561Y-106117500D01*
X101464566Y-106117500D01*
X101667636Y-106117500D01*
X101719133Y-106113730D01*
X101870156Y-106102677D01*
X101982758Y-106077593D01*
X102134546Y-106043782D01*
X102134548Y-106043781D01*
X102134553Y-106043780D01*
X102387558Y-105947014D01*
X102623777Y-105814441D01*
X102838177Y-105648888D01*
X103026186Y-105453881D01*
X103183799Y-105233579D01*
X103279768Y-105046918D01*
X103307649Y-104992690D01*
X103307651Y-104992684D01*
X103307656Y-104992675D01*
X103395118Y-104736305D01*
X103399453Y-104712833D01*
X124837500Y-104712833D01*
X124848003Y-104815638D01*
X124903202Y-104982217D01*
X124903204Y-104982222D01*
X124931042Y-105027354D01*
X124995330Y-105131581D01*
X125119419Y-105255670D01*
X125268780Y-105347797D01*
X125351771Y-105375297D01*
X125435361Y-105402996D01*
X125472236Y-105406763D01*
X125538174Y-105413500D01*
X125538178Y-105413500D01*
X126937822Y-105413500D01*
X126937826Y-105413500D01*
X127040638Y-105402996D01*
X127207220Y-105347797D01*
X127356581Y-105255670D01*
X127480670Y-105131581D01*
X127572797Y-104982220D01*
X127621819Y-104834278D01*
X127651844Y-104785601D01*
X128333550Y-104103896D01*
X128334327Y-104114265D01*
X128383887Y-104240541D01*
X128468465Y-104346599D01*
X128580547Y-104423016D01*
X128688299Y-104456253D01*
X127979199Y-105165351D01*
X128009650Y-105189050D01*
X128213697Y-105299476D01*
X128213706Y-105299479D01*
X128433139Y-105374811D01*
X128661993Y-105413000D01*
X128894007Y-105413000D01*
X129122860Y-105374811D01*
X129342293Y-105299479D01*
X129342302Y-105299476D01*
X129546350Y-105189050D01*
X129576798Y-105165351D01*
X128866231Y-104454784D01*
X128912138Y-104447865D01*
X129034357Y-104389007D01*
X129133798Y-104296740D01*
X129201625Y-104179260D01*
X129219499Y-104100946D01*
X129929186Y-104810634D01*
X129943892Y-104788126D01*
X129997038Y-104742769D01*
X130066269Y-104733345D01*
X130129605Y-104762847D01*
X130151510Y-104788126D01*
X130209016Y-104876147D01*
X130209019Y-104876151D01*
X130209021Y-104876153D01*
X130366216Y-105046913D01*
X130366219Y-105046915D01*
X130366222Y-105046918D01*
X130549365Y-105189464D01*
X130549371Y-105189468D01*
X130549374Y-105189470D01*
X130630882Y-105233580D01*
X130752652Y-105299479D01*
X130753497Y-105299936D01*
X130867487Y-105339068D01*
X130973015Y-105375297D01*
X130973017Y-105375297D01*
X130973019Y-105375298D01*
X131201951Y-105413500D01*
X131201952Y-105413500D01*
X131434048Y-105413500D01*
X131434049Y-105413500D01*
X131662981Y-105375298D01*
X131882503Y-105299936D01*
X132086626Y-105189470D01*
X132269784Y-105046913D01*
X132426979Y-104876153D01*
X132553924Y-104681849D01*
X132647157Y-104469300D01*
X132704134Y-104244305D01*
X132721274Y-104037442D01*
X132746426Y-103972262D01*
X132783485Y-103945165D01*
X132772779Y-103938847D01*
X132894012Y-103938847D01*
X132933514Y-103960998D01*
X132966306Y-104022695D01*
X132968170Y-104034722D01*
X132972325Y-104074253D01*
X132972326Y-104074257D01*
X133030818Y-104254277D01*
X133030821Y-104254284D01*
X133125467Y-104418216D01*
X133252129Y-104558888D01*
X133405265Y-104670148D01*
X133405270Y-104670151D01*
X133578192Y-104747142D01*
X133578197Y-104747144D01*
X133763354Y-104786500D01*
X133763355Y-104786500D01*
X133952644Y-104786500D01*
X133952646Y-104786500D01*
X134137803Y-104747144D01*
X134310730Y-104670151D01*
X134463871Y-104558888D01*
X134590533Y-104418216D01*
X134685179Y-104254284D01*
X134698243Y-104214079D01*
X134704069Y-104196147D01*
X134743506Y-104138472D01*
X134807865Y-104111273D01*
X134876711Y-104123187D01*
X134928187Y-104170431D01*
X134946000Y-104234465D01*
X134946000Y-104631844D01*
X134952401Y-104691372D01*
X134952403Y-104691379D01*
X135002645Y-104826086D01*
X135002649Y-104826093D01*
X135088809Y-104941187D01*
X135088812Y-104941190D01*
X135203906Y-105027350D01*
X135203913Y-105027354D01*
X135338620Y-105077596D01*
X135338627Y-105077598D01*
X135398155Y-105083999D01*
X135398172Y-105084000D01*
X136021000Y-105084000D01*
X136021000Y-104250683D01*
X136049819Y-104268209D01*
X136195404Y-104309000D01*
X136308622Y-104309000D01*
X136420783Y-104293584D01*
X136521000Y-104250053D01*
X136521000Y-105084000D01*
X137143828Y-105084000D01*
X137143844Y-105083999D01*
X137203372Y-105077598D01*
X137203379Y-105077596D01*
X137338086Y-105027354D01*
X137338093Y-105027350D01*
X137453187Y-104941190D01*
X137453190Y-104941187D01*
X137539350Y-104826093D01*
X137539354Y-104826086D01*
X137589596Y-104691379D01*
X137591380Y-104683832D01*
X137594160Y-104684488D01*
X137615721Y-104632405D01*
X137673104Y-104592544D01*
X137742929Y-104590035D01*
X137799970Y-104622509D01*
X137955731Y-104778270D01*
X138145718Y-104911301D01*
X138355921Y-105009320D01*
X138579950Y-105069349D01*
X138744985Y-105083787D01*
X138810998Y-105089563D01*
X138811000Y-105089563D01*
X138811002Y-105089563D01*
X138874586Y-105084000D01*
X139042050Y-105069349D01*
X139266079Y-105009320D01*
X139476282Y-104911301D01*
X139666269Y-104778270D01*
X139830270Y-104614269D01*
X139963301Y-104424282D01*
X139968618Y-104412878D01*
X140014790Y-104360440D01*
X140081984Y-104341288D01*
X140148865Y-104361504D01*
X140193381Y-104412878D01*
X140198699Y-104424282D01*
X140331730Y-104614269D01*
X140495731Y-104778270D01*
X140685718Y-104911301D01*
X140895921Y-105009320D01*
X141119950Y-105069349D01*
X141284985Y-105083787D01*
X141350998Y-105089563D01*
X141351000Y-105089563D01*
X141351002Y-105089563D01*
X141414586Y-105084000D01*
X141582050Y-105069349D01*
X141806079Y-105009320D01*
X142016282Y-104911301D01*
X142206269Y-104778270D01*
X142370270Y-104614269D01*
X142503301Y-104424282D01*
X142601320Y-104214079D01*
X142661349Y-103990050D01*
X142670452Y-103886000D01*
X143112540Y-103886000D01*
X143132326Y-104074256D01*
X143132327Y-104074259D01*
X143190818Y-104254277D01*
X143190821Y-104254284D01*
X143285467Y-104418216D01*
X143412129Y-104558888D01*
X143565265Y-104670148D01*
X143565270Y-104670151D01*
X143738192Y-104747142D01*
X143738197Y-104747144D01*
X143923354Y-104786500D01*
X143923355Y-104786500D01*
X144112644Y-104786500D01*
X144112646Y-104786500D01*
X144297803Y-104747144D01*
X144470730Y-104670151D01*
X144523455Y-104631844D01*
X145487000Y-104631844D01*
X145493401Y-104691372D01*
X145493403Y-104691379D01*
X145543645Y-104826086D01*
X145543649Y-104826093D01*
X145629809Y-104941187D01*
X145629812Y-104941190D01*
X145744906Y-105027350D01*
X145744913Y-105027354D01*
X145879620Y-105077596D01*
X145879627Y-105077598D01*
X145939155Y-105083999D01*
X145939172Y-105084000D01*
X146562000Y-105084000D01*
X146562000Y-104250683D01*
X146590819Y-104268209D01*
X146736404Y-104309000D01*
X146849622Y-104309000D01*
X146961783Y-104293584D01*
X147062000Y-104250053D01*
X147062000Y-105084000D01*
X147684828Y-105084000D01*
X147684844Y-105083999D01*
X147744372Y-105077598D01*
X147744379Y-105077596D01*
X147879086Y-105027354D01*
X147879093Y-105027350D01*
X147994187Y-104941190D01*
X147994190Y-104941187D01*
X148080350Y-104826093D01*
X148080354Y-104826086D01*
X148130596Y-104691379D01*
X148132380Y-104683832D01*
X148135160Y-104684488D01*
X148156721Y-104632405D01*
X148214104Y-104592544D01*
X148283929Y-104590035D01*
X148340970Y-104622509D01*
X148496731Y-104778270D01*
X148686718Y-104911301D01*
X148896921Y-105009320D01*
X149120950Y-105069349D01*
X149285985Y-105083787D01*
X149351998Y-105089563D01*
X149352000Y-105089563D01*
X149352002Y-105089563D01*
X149415586Y-105084000D01*
X149583050Y-105069349D01*
X149807079Y-105009320D01*
X150017282Y-104911301D01*
X150207269Y-104778270D01*
X150371270Y-104614269D01*
X150504301Y-104424282D01*
X150509618Y-104412878D01*
X150555790Y-104360440D01*
X150622984Y-104341288D01*
X150689865Y-104361504D01*
X150734381Y-104412878D01*
X150739699Y-104424282D01*
X150872730Y-104614269D01*
X151036731Y-104778270D01*
X151226718Y-104911301D01*
X151436921Y-105009320D01*
X151660950Y-105069349D01*
X151825985Y-105083787D01*
X151891998Y-105089563D01*
X151892000Y-105089563D01*
X151892002Y-105089563D01*
X151955586Y-105084000D01*
X152123050Y-105069349D01*
X152347079Y-105009320D01*
X152557282Y-104911301D01*
X152747269Y-104778270D01*
X152911270Y-104614269D01*
X153044301Y-104424282D01*
X153086044Y-104334763D01*
X157145787Y-104334763D01*
X157175413Y-104604013D01*
X157175415Y-104604024D01*
X157235612Y-104834279D01*
X157243928Y-104866088D01*
X157349870Y-105115390D01*
X157490979Y-105346605D01*
X157490986Y-105346615D01*
X157664253Y-105554819D01*
X157664259Y-105554824D01*
X157865998Y-105735582D01*
X158091910Y-105885044D01*
X158337176Y-106000020D01*
X158337183Y-106000022D01*
X158337185Y-106000023D01*
X158596557Y-106078057D01*
X158596564Y-106078058D01*
X158596569Y-106078060D01*
X158864561Y-106117500D01*
X158864566Y-106117500D01*
X159067636Y-106117500D01*
X159119133Y-106113730D01*
X159270156Y-106102677D01*
X159382758Y-106077593D01*
X159534546Y-106043782D01*
X159534548Y-106043781D01*
X159534553Y-106043780D01*
X159787558Y-105947014D01*
X160023777Y-105814441D01*
X160238177Y-105648888D01*
X160426186Y-105453881D01*
X160583799Y-105233579D01*
X160679768Y-105046918D01*
X160707649Y-104992690D01*
X160707651Y-104992684D01*
X160707656Y-104992675D01*
X160795118Y-104736305D01*
X160844319Y-104469933D01*
X160854212Y-104199235D01*
X160824586Y-103929982D01*
X160756072Y-103667912D01*
X160650130Y-103418610D01*
X160509018Y-103187390D01*
X160483307Y-103156495D01*
X160335746Y-102979180D01*
X160335740Y-102979175D01*
X160134002Y-102798418D01*
X159908092Y-102648957D01*
X159852727Y-102623003D01*
X159662824Y-102533980D01*
X159662819Y-102533978D01*
X159662814Y-102533976D01*
X159403442Y-102455942D01*
X159403428Y-102455939D01*
X159287791Y-102438921D01*
X159135439Y-102416500D01*
X158932369Y-102416500D01*
X158932364Y-102416500D01*
X158729844Y-102431323D01*
X158729831Y-102431325D01*
X158465453Y-102490217D01*
X158465446Y-102490220D01*
X158212439Y-102586987D01*
X157976226Y-102719557D01*
X157976224Y-102719558D01*
X157976223Y-102719559D01*
X157950099Y-102739731D01*
X157761822Y-102885112D01*
X157573822Y-103080109D01*
X157573816Y-103080116D01*
X157416202Y-103300419D01*
X157416199Y-103300424D01*
X157292350Y-103541309D01*
X157292343Y-103541327D01*
X157204884Y-103797685D01*
X157204881Y-103797699D01*
X157180449Y-103929975D01*
X157165114Y-104013000D01*
X157155681Y-104064068D01*
X157155680Y-104064075D01*
X157145787Y-104334763D01*
X153086044Y-104334763D01*
X153142320Y-104214079D01*
X153202349Y-103990050D01*
X153222563Y-103759000D01*
X153219248Y-103721114D01*
X153214594Y-103667912D01*
X153202349Y-103527950D01*
X153142320Y-103303921D01*
X153044301Y-103093719D01*
X153044299Y-103093716D01*
X153044298Y-103093714D01*
X152911273Y-102903735D01*
X152911268Y-102903729D01*
X152747269Y-102739730D01*
X152747263Y-102739726D01*
X152557282Y-102606699D01*
X152347079Y-102508680D01*
X152347076Y-102508679D01*
X152347074Y-102508678D01*
X152123051Y-102448651D01*
X152123044Y-102448650D01*
X151892002Y-102428437D01*
X151891998Y-102428437D01*
X151660955Y-102448650D01*
X151660948Y-102448651D01*
X151436917Y-102508681D01*
X151226718Y-102606699D01*
X151226714Y-102606701D01*
X151036735Y-102739726D01*
X151036729Y-102739731D01*
X150872731Y-102903729D01*
X150872726Y-102903735D01*
X150739701Y-103093714D01*
X150739698Y-103093720D01*
X150734381Y-103105123D01*
X150688207Y-103157562D01*
X150621013Y-103176712D01*
X150554133Y-103156495D01*
X150509619Y-103105123D01*
X150504301Y-103093720D01*
X150504298Y-103093714D01*
X150371273Y-102903735D01*
X150371268Y-102903729D01*
X150207269Y-102739730D01*
X150207263Y-102739726D01*
X150017282Y-102606699D01*
X149807079Y-102508680D01*
X149807076Y-102508679D01*
X149807074Y-102508678D01*
X149583051Y-102448651D01*
X149583044Y-102448650D01*
X149352002Y-102428437D01*
X149351998Y-102428437D01*
X149120955Y-102448650D01*
X149120948Y-102448651D01*
X148896917Y-102508681D01*
X148686718Y-102606699D01*
X148686714Y-102606701D01*
X148496735Y-102739726D01*
X148340970Y-102895491D01*
X148279647Y-102928975D01*
X148209955Y-102923991D01*
X148154022Y-102882119D01*
X148134923Y-102833567D01*
X148132380Y-102834168D01*
X148130596Y-102826620D01*
X148080354Y-102691913D01*
X148080350Y-102691906D01*
X147994190Y-102576812D01*
X147994187Y-102576809D01*
X147879093Y-102490649D01*
X147879086Y-102490645D01*
X147744379Y-102440403D01*
X147744372Y-102440401D01*
X147684844Y-102434000D01*
X147062000Y-102434000D01*
X147062000Y-103267316D01*
X147033181Y-103249791D01*
X146887596Y-103209000D01*
X146774378Y-103209000D01*
X146662217Y-103224416D01*
X146562000Y-103267946D01*
X146562000Y-102434000D01*
X145939155Y-102434000D01*
X145879627Y-102440401D01*
X145879620Y-102440403D01*
X145744913Y-102490645D01*
X145744906Y-102490649D01*
X145629812Y-102576809D01*
X145629809Y-102576812D01*
X145543649Y-102691906D01*
X145543645Y-102691913D01*
X145493403Y-102826620D01*
X145493401Y-102826627D01*
X145487000Y-102886155D01*
X145487000Y-103509000D01*
X146317148Y-103509000D01*
X146268441Y-103646047D01*
X146258123Y-103796886D01*
X146288884Y-103944915D01*
X146322090Y-104009000D01*
X145487000Y-104009000D01*
X145487000Y-104631844D01*
X144523455Y-104631844D01*
X144623871Y-104558888D01*
X144750533Y-104418216D01*
X144845179Y-104254284D01*
X144903674Y-104074256D01*
X144923460Y-103886000D01*
X144903674Y-103697744D01*
X144845179Y-103517716D01*
X144750533Y-103353784D01*
X144623871Y-103213112D01*
X144620085Y-103210361D01*
X144470734Y-103101851D01*
X144470729Y-103101848D01*
X144297807Y-103024857D01*
X144297802Y-103024855D01*
X144152001Y-102993865D01*
X144112646Y-102985500D01*
X143923354Y-102985500D01*
X143890897Y-102992398D01*
X143738197Y-103024855D01*
X143738192Y-103024857D01*
X143565270Y-103101848D01*
X143565265Y-103101851D01*
X143412129Y-103213111D01*
X143285466Y-103353785D01*
X143190821Y-103517715D01*
X143190818Y-103517722D01*
X143144501Y-103660272D01*
X143132326Y-103697744D01*
X143112540Y-103886000D01*
X142670452Y-103886000D01*
X142681563Y-103759000D01*
X142678248Y-103721114D01*
X142673594Y-103667912D01*
X142661349Y-103527950D01*
X142601320Y-103303921D01*
X142503301Y-103093719D01*
X142503299Y-103093716D01*
X142503298Y-103093714D01*
X142370273Y-102903735D01*
X142370268Y-102903729D01*
X142206269Y-102739730D01*
X142206263Y-102739726D01*
X142016282Y-102606699D01*
X141806079Y-102508680D01*
X141806076Y-102508679D01*
X141806074Y-102508678D01*
X141582051Y-102448651D01*
X141582044Y-102448650D01*
X141351002Y-102428437D01*
X141350998Y-102428437D01*
X141119955Y-102448650D01*
X141119948Y-102448651D01*
X140895917Y-102508681D01*
X140685718Y-102606699D01*
X140685714Y-102606701D01*
X140495735Y-102739726D01*
X140495729Y-102739731D01*
X140331731Y-102903729D01*
X140331726Y-102903735D01*
X140198701Y-103093714D01*
X140198698Y-103093720D01*
X140193381Y-103105123D01*
X140147207Y-103157562D01*
X140080013Y-103176712D01*
X140013133Y-103156495D01*
X139968619Y-103105123D01*
X139963301Y-103093720D01*
X139963298Y-103093714D01*
X139830273Y-102903735D01*
X139830268Y-102903729D01*
X139666269Y-102739730D01*
X139666263Y-102739726D01*
X139476282Y-102606699D01*
X139266079Y-102508680D01*
X139266076Y-102508679D01*
X139266074Y-102508678D01*
X139042051Y-102448651D01*
X139042044Y-102448650D01*
X138811002Y-102428437D01*
X138810998Y-102428437D01*
X138579955Y-102448650D01*
X138579948Y-102448651D01*
X138355917Y-102508681D01*
X138145718Y-102606699D01*
X138145714Y-102606701D01*
X137955735Y-102739726D01*
X137799970Y-102895491D01*
X137738647Y-102928975D01*
X137668955Y-102923991D01*
X137613022Y-102882119D01*
X137593923Y-102833567D01*
X137591380Y-102834168D01*
X137589596Y-102826620D01*
X137539354Y-102691913D01*
X137539350Y-102691906D01*
X137453190Y-102576812D01*
X137453187Y-102576809D01*
X137338093Y-102490649D01*
X137338086Y-102490645D01*
X137203379Y-102440403D01*
X137203372Y-102440401D01*
X137143844Y-102434000D01*
X136521000Y-102434000D01*
X136521000Y-103267316D01*
X136492181Y-103249791D01*
X136346596Y-103209000D01*
X136233378Y-103209000D01*
X136121217Y-103224416D01*
X136021000Y-103267946D01*
X136021000Y-102434000D01*
X135398155Y-102434000D01*
X135338627Y-102440401D01*
X135338620Y-102440403D01*
X135203913Y-102490645D01*
X135203906Y-102490649D01*
X135088812Y-102576809D01*
X135088809Y-102576812D01*
X135002649Y-102691906D01*
X135002645Y-102691913D01*
X134952403Y-102826620D01*
X134952401Y-102826627D01*
X134946000Y-102886155D01*
X134946000Y-103537534D01*
X134926315Y-103604573D01*
X134873511Y-103650328D01*
X134804353Y-103660272D01*
X134740797Y-103631247D01*
X134704069Y-103575852D01*
X134685181Y-103517722D01*
X134685180Y-103517721D01*
X134685179Y-103517716D01*
X134590533Y-103353784D01*
X134463871Y-103213112D01*
X134460085Y-103210361D01*
X134310734Y-103101851D01*
X134310729Y-103101848D01*
X134137807Y-103024857D01*
X134137802Y-103024855D01*
X133992001Y-102993865D01*
X133952646Y-102985500D01*
X133763354Y-102985500D01*
X133730897Y-102992398D01*
X133578197Y-103024855D01*
X133578192Y-103024857D01*
X133405270Y-103101848D01*
X133405265Y-103101851D01*
X133252129Y-103213111D01*
X133125466Y-103353785D01*
X133030821Y-103517715D01*
X133030818Y-103517722D01*
X132984501Y-103660272D01*
X132972326Y-103697744D01*
X132969870Y-103721114D01*
X132956403Y-103849246D01*
X132929818Y-103913860D01*
X132894012Y-103938847D01*
X132772779Y-103938847D01*
X132742528Y-103920995D01*
X132711105Y-103858591D01*
X132709506Y-103846536D01*
X132704134Y-103781695D01*
X132682874Y-103697740D01*
X132647157Y-103556699D01*
X132553924Y-103344151D01*
X132426983Y-103149852D01*
X132426980Y-103149849D01*
X132426979Y-103149847D01*
X132269784Y-102979087D01*
X132269779Y-102979083D01*
X132269777Y-102979081D01*
X132086634Y-102836535D01*
X132086628Y-102836531D01*
X131882504Y-102726064D01*
X131882495Y-102726061D01*
X131662984Y-102650702D01*
X131491282Y-102622050D01*
X131434049Y-102612500D01*
X131201951Y-102612500D01*
X131156164Y-102620140D01*
X130973015Y-102650702D01*
X130753504Y-102726061D01*
X130753495Y-102726064D01*
X130549371Y-102836531D01*
X130549365Y-102836535D01*
X130366222Y-102979081D01*
X130366219Y-102979084D01*
X130366216Y-102979086D01*
X130366216Y-102979087D01*
X130250193Y-103105123D01*
X130209015Y-103149854D01*
X130151509Y-103237874D01*
X130098363Y-103283230D01*
X130029132Y-103292654D01*
X129965796Y-103263152D01*
X129943892Y-103237873D01*
X129929186Y-103215364D01*
X129222449Y-103922101D01*
X129221673Y-103911735D01*
X129172113Y-103785459D01*
X129087535Y-103679401D01*
X128975453Y-103602984D01*
X128867700Y-103569747D01*
X129576799Y-102860648D01*
X129576799Y-102860647D01*
X129546349Y-102836949D01*
X129342302Y-102726523D01*
X129342293Y-102726520D01*
X129122860Y-102651188D01*
X128894007Y-102613000D01*
X128661993Y-102613000D01*
X128433139Y-102651188D01*
X128213706Y-102726520D01*
X128213698Y-102726523D01*
X128009644Y-102836952D01*
X127979200Y-102860646D01*
X127979200Y-102860647D01*
X128689768Y-103571215D01*
X128643862Y-103578135D01*
X128521643Y-103636993D01*
X128422202Y-103729260D01*
X128354375Y-103846740D01*
X128336500Y-103925053D01*
X127651843Y-103240396D01*
X127621818Y-103191718D01*
X127610500Y-103157562D01*
X127572797Y-103043780D01*
X127480670Y-102894419D01*
X127356581Y-102770330D01*
X127263791Y-102713097D01*
X127207222Y-102678204D01*
X127207217Y-102678202D01*
X127040638Y-102623003D01*
X126937833Y-102612500D01*
X126937826Y-102612500D01*
X125538174Y-102612500D01*
X125538166Y-102612500D01*
X125435361Y-102623003D01*
X125268782Y-102678202D01*
X125268777Y-102678204D01*
X125119417Y-102770331D01*
X124995331Y-102894417D01*
X124903204Y-103043777D01*
X124903202Y-103043782D01*
X124848003Y-103210361D01*
X124837500Y-103313166D01*
X124837500Y-104712833D01*
X103399453Y-104712833D01*
X103444319Y-104469933D01*
X103454212Y-104199235D01*
X103424586Y-103929982D01*
X103356072Y-103667912D01*
X103250130Y-103418610D01*
X103109018Y-103187390D01*
X103083307Y-103156495D01*
X102935746Y-102979180D01*
X102935740Y-102979175D01*
X102734002Y-102798418D01*
X102508092Y-102648957D01*
X102452727Y-102623003D01*
X102262824Y-102533980D01*
X102262819Y-102533978D01*
X102262814Y-102533976D01*
X102003442Y-102455942D01*
X102003428Y-102455939D01*
X101887791Y-102438921D01*
X101735439Y-102416500D01*
X101532369Y-102416500D01*
X101532364Y-102416500D01*
X101329844Y-102431323D01*
X101329831Y-102431325D01*
X101065453Y-102490217D01*
X101065446Y-102490220D01*
X100812439Y-102586987D01*
X100576226Y-102719557D01*
X100576224Y-102719558D01*
X100576223Y-102719559D01*
X100550099Y-102739731D01*
X100361822Y-102885112D01*
X100173822Y-103080109D01*
X100173816Y-103080116D01*
X100016202Y-103300419D01*
X100016199Y-103300424D01*
X99892350Y-103541309D01*
X99892343Y-103541327D01*
X99804884Y-103797685D01*
X99804881Y-103797699D01*
X99780449Y-103929975D01*
X99765114Y-104013000D01*
X99755681Y-104064068D01*
X99755680Y-104064075D01*
X99745787Y-104334763D01*
X98217500Y-104334763D01*
X98217500Y-101473000D01*
X116315540Y-101473000D01*
X116335326Y-101661256D01*
X116335327Y-101661259D01*
X116393818Y-101841277D01*
X116393821Y-101841284D01*
X116488467Y-102005216D01*
X116615129Y-102145888D01*
X116768265Y-102257148D01*
X116768270Y-102257151D01*
X116941192Y-102334142D01*
X116941197Y-102334144D01*
X117126354Y-102373500D01*
X117126355Y-102373500D01*
X117315644Y-102373500D01*
X117315646Y-102373500D01*
X117500803Y-102334144D01*
X117673730Y-102257151D01*
X117826871Y-102145888D01*
X117953533Y-102005216D01*
X118048179Y-101841284D01*
X118106674Y-101661256D01*
X118126460Y-101473000D01*
X118106674Y-101284744D01*
X118048179Y-101104716D01*
X118040837Y-101092000D01*
X132952540Y-101092000D01*
X132972326Y-101280256D01*
X132972327Y-101280259D01*
X133030818Y-101460277D01*
X133030821Y-101460284D01*
X133125467Y-101624216D01*
X133158821Y-101661259D01*
X133252129Y-101764888D01*
X133405265Y-101876148D01*
X133405270Y-101876151D01*
X133578192Y-101953142D01*
X133578197Y-101953144D01*
X133763354Y-101992500D01*
X133763355Y-101992500D01*
X133952644Y-101992500D01*
X133952646Y-101992500D01*
X134137803Y-101953144D01*
X134310730Y-101876151D01*
X134463871Y-101764888D01*
X134590533Y-101624216D01*
X134685179Y-101460284D01*
X134743674Y-101280256D01*
X134763460Y-101092000D01*
X143112540Y-101092000D01*
X143132326Y-101280256D01*
X143132327Y-101280259D01*
X143190818Y-101460277D01*
X143190821Y-101460284D01*
X143285467Y-101624216D01*
X143318821Y-101661259D01*
X143412129Y-101764888D01*
X143565265Y-101876148D01*
X143565270Y-101876151D01*
X143738192Y-101953142D01*
X143738197Y-101953144D01*
X143923354Y-101992500D01*
X143923355Y-101992500D01*
X144112644Y-101992500D01*
X144112646Y-101992500D01*
X144297803Y-101953144D01*
X144470730Y-101876151D01*
X144623871Y-101764888D01*
X144750533Y-101624216D01*
X144845179Y-101460284D01*
X144903674Y-101280256D01*
X144923460Y-101092000D01*
X144903674Y-100903744D01*
X144845179Y-100723716D01*
X144750533Y-100559784D01*
X144623871Y-100419112D01*
X144623870Y-100419111D01*
X144470734Y-100307851D01*
X144470729Y-100307848D01*
X144297807Y-100230857D01*
X144297802Y-100230855D01*
X144152001Y-100199865D01*
X144112646Y-100191500D01*
X143923354Y-100191500D01*
X143890897Y-100198398D01*
X143738197Y-100230855D01*
X143738192Y-100230857D01*
X143565270Y-100307848D01*
X143565265Y-100307851D01*
X143412129Y-100419111D01*
X143285466Y-100559785D01*
X143190821Y-100723715D01*
X143190818Y-100723722D01*
X143165998Y-100800112D01*
X143132326Y-100903744D01*
X143112540Y-101092000D01*
X134763460Y-101092000D01*
X134743674Y-100903744D01*
X134685179Y-100723716D01*
X134590533Y-100559784D01*
X134463871Y-100419112D01*
X134463870Y-100419111D01*
X134310734Y-100307851D01*
X134310729Y-100307848D01*
X134137807Y-100230857D01*
X134137802Y-100230855D01*
X133992001Y-100199865D01*
X133952646Y-100191500D01*
X133763354Y-100191500D01*
X133730897Y-100198398D01*
X133578197Y-100230855D01*
X133578192Y-100230857D01*
X133405270Y-100307848D01*
X133405265Y-100307851D01*
X133252129Y-100419111D01*
X133125466Y-100559785D01*
X133030821Y-100723715D01*
X133030818Y-100723722D01*
X133005998Y-100800112D01*
X132972326Y-100903744D01*
X132952540Y-101092000D01*
X118040837Y-101092000D01*
X117953533Y-100940784D01*
X117826871Y-100800112D01*
X117826870Y-100800111D01*
X117673734Y-100688851D01*
X117673729Y-100688848D01*
X117500807Y-100611857D01*
X117500802Y-100611855D01*
X117355001Y-100580865D01*
X117315646Y-100572500D01*
X117126354Y-100572500D01*
X117093897Y-100579398D01*
X116941197Y-100611855D01*
X116941192Y-100611857D01*
X116768270Y-100688848D01*
X116768265Y-100688851D01*
X116615129Y-100800111D01*
X116488466Y-100940785D01*
X116393821Y-101104715D01*
X116393818Y-101104722D01*
X116336784Y-101280256D01*
X116335326Y-101284744D01*
X116315540Y-101473000D01*
X98217500Y-101473000D01*
X98217500Y-99060000D01*
X154796540Y-99060000D01*
X154816326Y-99248256D01*
X154816327Y-99248259D01*
X154874818Y-99428277D01*
X154874821Y-99428284D01*
X154969467Y-99592216D01*
X155096129Y-99732888D01*
X155249265Y-99844148D01*
X155249270Y-99844151D01*
X155422192Y-99921142D01*
X155422197Y-99921144D01*
X155607354Y-99960500D01*
X155607355Y-99960500D01*
X155796644Y-99960500D01*
X155796646Y-99960500D01*
X155981803Y-99921144D01*
X156154730Y-99844151D01*
X156307871Y-99732888D01*
X156434533Y-99592216D01*
X156529179Y-99428284D01*
X156587674Y-99248256D01*
X156607460Y-99060000D01*
X157590540Y-99060000D01*
X157610326Y-99248256D01*
X157610327Y-99248259D01*
X157668818Y-99428277D01*
X157668821Y-99428284D01*
X157763467Y-99592216D01*
X157890129Y-99732888D01*
X158043265Y-99844148D01*
X158043270Y-99844151D01*
X158216192Y-99921142D01*
X158216197Y-99921144D01*
X158401354Y-99960500D01*
X158401355Y-99960500D01*
X158590644Y-99960500D01*
X158590646Y-99960500D01*
X158775803Y-99921144D01*
X158948730Y-99844151D01*
X159101871Y-99732888D01*
X159228533Y-99592216D01*
X159323179Y-99428284D01*
X159381674Y-99248256D01*
X159401460Y-99060000D01*
X160384540Y-99060000D01*
X160404326Y-99248256D01*
X160404327Y-99248259D01*
X160462818Y-99428277D01*
X160462821Y-99428284D01*
X160557467Y-99592216D01*
X160684129Y-99732888D01*
X160837265Y-99844148D01*
X160837270Y-99844151D01*
X161010192Y-99921142D01*
X161010197Y-99921144D01*
X161195354Y-99960500D01*
X161195355Y-99960500D01*
X161384644Y-99960500D01*
X161384646Y-99960500D01*
X161569803Y-99921144D01*
X161742730Y-99844151D01*
X161895871Y-99732888D01*
X162022533Y-99592216D01*
X162117179Y-99428284D01*
X162175674Y-99248256D01*
X162195460Y-99060000D01*
X162175674Y-98871744D01*
X162117179Y-98691716D01*
X162022533Y-98527784D01*
X161895871Y-98387112D01*
X161895870Y-98387111D01*
X161742734Y-98275851D01*
X161742729Y-98275848D01*
X161569807Y-98198857D01*
X161569802Y-98198855D01*
X161424001Y-98167865D01*
X161384646Y-98159500D01*
X161195354Y-98159500D01*
X161162897Y-98166398D01*
X161010197Y-98198855D01*
X161010192Y-98198857D01*
X160837270Y-98275848D01*
X160837265Y-98275851D01*
X160684129Y-98387111D01*
X160557466Y-98527785D01*
X160462821Y-98691715D01*
X160462818Y-98691722D01*
X160417955Y-98829797D01*
X160404326Y-98871744D01*
X160384540Y-99060000D01*
X159401460Y-99060000D01*
X159381674Y-98871744D01*
X159323179Y-98691716D01*
X159228533Y-98527784D01*
X159101871Y-98387112D01*
X159101870Y-98387111D01*
X158948734Y-98275851D01*
X158948729Y-98275848D01*
X158775807Y-98198857D01*
X158775802Y-98198855D01*
X158630001Y-98167865D01*
X158590646Y-98159500D01*
X158401354Y-98159500D01*
X158368897Y-98166398D01*
X158216197Y-98198855D01*
X158216192Y-98198857D01*
X158043270Y-98275848D01*
X158043265Y-98275851D01*
X157890129Y-98387111D01*
X157763466Y-98527785D01*
X157668821Y-98691715D01*
X157668818Y-98691722D01*
X157623955Y-98829797D01*
X157610326Y-98871744D01*
X157590540Y-99060000D01*
X156607460Y-99060000D01*
X156587674Y-98871744D01*
X156529179Y-98691716D01*
X156434533Y-98527784D01*
X156307871Y-98387112D01*
X156307870Y-98387111D01*
X156154734Y-98275851D01*
X156154729Y-98275848D01*
X155981807Y-98198857D01*
X155981802Y-98198855D01*
X155836001Y-98167865D01*
X155796646Y-98159500D01*
X155607354Y-98159500D01*
X155574897Y-98166398D01*
X155422197Y-98198855D01*
X155422192Y-98198857D01*
X155249270Y-98275848D01*
X155249265Y-98275851D01*
X155096129Y-98387111D01*
X154969466Y-98527785D01*
X154874821Y-98691715D01*
X154874818Y-98691722D01*
X154829955Y-98829797D01*
X154816326Y-98871744D01*
X154796540Y-99060000D01*
X98217500Y-99060000D01*
X98217500Y-97536000D01*
X106599341Y-97536000D01*
X106619936Y-97771403D01*
X106619938Y-97771413D01*
X106681094Y-97999655D01*
X106681096Y-97999659D01*
X106681097Y-97999663D01*
X106773983Y-98198857D01*
X106780965Y-98213830D01*
X106780967Y-98213834D01*
X106889281Y-98368521D01*
X106916505Y-98407401D01*
X107083599Y-98574495D01*
X107180384Y-98642265D01*
X107277165Y-98710032D01*
X107277167Y-98710033D01*
X107277170Y-98710035D01*
X107491337Y-98809903D01*
X107719592Y-98871063D01*
X107896034Y-98886500D01*
X107954999Y-98891659D01*
X107955000Y-98891659D01*
X107955001Y-98891659D01*
X108013966Y-98886500D01*
X108190408Y-98871063D01*
X108418663Y-98809903D01*
X108632830Y-98710035D01*
X108826401Y-98574495D01*
X108948329Y-98452566D01*
X109009648Y-98419084D01*
X109079340Y-98424068D01*
X109135274Y-98465939D01*
X109152189Y-98496917D01*
X109201202Y-98628328D01*
X109201206Y-98628335D01*
X109287452Y-98743544D01*
X109287455Y-98743547D01*
X109402664Y-98829793D01*
X109402671Y-98829797D01*
X109537517Y-98880091D01*
X109537516Y-98880091D01*
X109544444Y-98880835D01*
X109597127Y-98886500D01*
X111392872Y-98886499D01*
X111452483Y-98880091D01*
X111587331Y-98829796D01*
X111702546Y-98743546D01*
X111788796Y-98628331D01*
X111839091Y-98493483D01*
X111845500Y-98433873D01*
X111845499Y-96638128D01*
X111839091Y-96578517D01*
X111837810Y-96575083D01*
X111788797Y-96443671D01*
X111788793Y-96443664D01*
X111702547Y-96328455D01*
X111702544Y-96328452D01*
X111587335Y-96242206D01*
X111587328Y-96242202D01*
X111452482Y-96191908D01*
X111452483Y-96191908D01*
X111392883Y-96185501D01*
X111392881Y-96185500D01*
X111392873Y-96185500D01*
X111392864Y-96185500D01*
X109597129Y-96185500D01*
X109597123Y-96185501D01*
X109537516Y-96191908D01*
X109402671Y-96242202D01*
X109402664Y-96242206D01*
X109287455Y-96328452D01*
X109287452Y-96328455D01*
X109201206Y-96443664D01*
X109201203Y-96443669D01*
X109152189Y-96575083D01*
X109110317Y-96631016D01*
X109044853Y-96655433D01*
X108976580Y-96640581D01*
X108948326Y-96619430D01*
X108826402Y-96497506D01*
X108826395Y-96497501D01*
X108632834Y-96361967D01*
X108632830Y-96361965D01*
X108632828Y-96361964D01*
X108418663Y-96262097D01*
X108418659Y-96262096D01*
X108418655Y-96262094D01*
X108190413Y-96200938D01*
X108190403Y-96200936D01*
X107955001Y-96180341D01*
X107954999Y-96180341D01*
X107719596Y-96200936D01*
X107719586Y-96200938D01*
X107491344Y-96262094D01*
X107491335Y-96262098D01*
X107277171Y-96361964D01*
X107277169Y-96361965D01*
X107083597Y-96497505D01*
X106916505Y-96664597D01*
X106780965Y-96858169D01*
X106780964Y-96858171D01*
X106681098Y-97072335D01*
X106681094Y-97072344D01*
X106619938Y-97300586D01*
X106619936Y-97300596D01*
X106599341Y-97535999D01*
X106599341Y-97536000D01*
X98217500Y-97536000D01*
X98217500Y-96139000D01*
X121522540Y-96139000D01*
X121542326Y-96327256D01*
X121542327Y-96327259D01*
X121600818Y-96507277D01*
X121600821Y-96507284D01*
X121695467Y-96671216D01*
X121809817Y-96798214D01*
X121822129Y-96811888D01*
X121975265Y-96923148D01*
X121975270Y-96923151D01*
X122148192Y-97000142D01*
X122148197Y-97000144D01*
X122333354Y-97039500D01*
X122333355Y-97039500D01*
X122522644Y-97039500D01*
X122522646Y-97039500D01*
X122707803Y-97000144D01*
X122880730Y-96923151D01*
X123033871Y-96811888D01*
X123160533Y-96671216D01*
X123255179Y-96507284D01*
X123313674Y-96327256D01*
X123320112Y-96266000D01*
X128888540Y-96266000D01*
X128908326Y-96454256D01*
X128908327Y-96454259D01*
X128966818Y-96634277D01*
X128966821Y-96634284D01*
X129061467Y-96798216D01*
X129115451Y-96858171D01*
X129188129Y-96938888D01*
X129341265Y-97050148D01*
X129341270Y-97050151D01*
X129514192Y-97127142D01*
X129514197Y-97127144D01*
X129699354Y-97166500D01*
X129699355Y-97166500D01*
X129888644Y-97166500D01*
X129888646Y-97166500D01*
X130073803Y-97127144D01*
X130246730Y-97050151D01*
X130399871Y-96938888D01*
X130526533Y-96798216D01*
X130621179Y-96634284D01*
X130679674Y-96454256D01*
X130699460Y-96266000D01*
X130679674Y-96077744D01*
X130621179Y-95897716D01*
X130526533Y-95733784D01*
X130399871Y-95593112D01*
X130399870Y-95593111D01*
X130246734Y-95481851D01*
X130246729Y-95481848D01*
X130073807Y-95404857D01*
X130073802Y-95404855D01*
X129928001Y-95373865D01*
X129888646Y-95365500D01*
X129699354Y-95365500D01*
X129666897Y-95372398D01*
X129514197Y-95404855D01*
X129514192Y-95404857D01*
X129341270Y-95481848D01*
X129341265Y-95481851D01*
X129188129Y-95593111D01*
X129061466Y-95733785D01*
X128966821Y-95897715D01*
X128966818Y-95897722D01*
X128940031Y-95980166D01*
X128908326Y-96077744D01*
X128888540Y-96266000D01*
X123320112Y-96266000D01*
X123333460Y-96139000D01*
X123313674Y-95950744D01*
X123255179Y-95770716D01*
X123160533Y-95606784D01*
X123033871Y-95466112D01*
X123021383Y-95457039D01*
X122880734Y-95354851D01*
X122880729Y-95354848D01*
X122707807Y-95277857D01*
X122707802Y-95277855D01*
X122562001Y-95246865D01*
X122522646Y-95238500D01*
X122333354Y-95238500D01*
X122300897Y-95245398D01*
X122148197Y-95277855D01*
X122148192Y-95277857D01*
X121975270Y-95354848D01*
X121975265Y-95354851D01*
X121822129Y-95466111D01*
X121695466Y-95606785D01*
X121600821Y-95770715D01*
X121600818Y-95770722D01*
X121542327Y-95950740D01*
X121542326Y-95950744D01*
X121522540Y-96139000D01*
X98217500Y-96139000D01*
X98217500Y-94748000D01*
X98680632Y-94748000D01*
X99589889Y-94748000D01*
X99550390Y-94772457D01*
X99482799Y-94861962D01*
X99452105Y-94969840D01*
X99462454Y-95081521D01*
X99512448Y-95181922D01*
X99584931Y-95248000D01*
X98684742Y-95248000D01*
X98711770Y-95359409D01*
X98799040Y-95550507D01*
X98920889Y-95721619D01*
X98920895Y-95721625D01*
X99072932Y-95866592D01*
X99249657Y-95980166D01*
X99444685Y-96058244D01*
X99650962Y-96098000D01*
X99906000Y-96098000D01*
X99906000Y-95298000D01*
X100406000Y-95298000D01*
X100406000Y-96098000D01*
X100608398Y-96098000D01*
X100765122Y-96083034D01*
X100765126Y-96083033D01*
X100966686Y-96023850D01*
X101153414Y-95927586D01*
X101318537Y-95797731D01*
X101318540Y-95797728D01*
X101456105Y-95638969D01*
X101456114Y-95638958D01*
X101561144Y-95457039D01*
X101561147Y-95457032D01*
X101629855Y-95258517D01*
X101629855Y-95258515D01*
X101631368Y-95248000D01*
X100722111Y-95248000D01*
X100761610Y-95223543D01*
X100829201Y-95134038D01*
X100859895Y-95026160D01*
X100849546Y-94914479D01*
X100799552Y-94814078D01*
X100727069Y-94748000D01*
X101627257Y-94748000D01*
X102805632Y-94748000D01*
X103714889Y-94748000D01*
X103675390Y-94772457D01*
X103607799Y-94861962D01*
X103577105Y-94969840D01*
X103587454Y-95081521D01*
X103637448Y-95181922D01*
X103709931Y-95248000D01*
X102809742Y-95248000D01*
X102836770Y-95359409D01*
X102924040Y-95550507D01*
X103045889Y-95721619D01*
X103045895Y-95721625D01*
X103197932Y-95866592D01*
X103374657Y-95980166D01*
X103569685Y-96058244D01*
X103775962Y-96098000D01*
X104181000Y-96098000D01*
X104181000Y-95298000D01*
X104681000Y-95298000D01*
X104681000Y-96098000D01*
X105033398Y-96098000D01*
X105190122Y-96083034D01*
X105190126Y-96083033D01*
X105391686Y-96023850D01*
X105578414Y-95927586D01*
X105743537Y-95797731D01*
X105743540Y-95797728D01*
X105881105Y-95638969D01*
X105881114Y-95638958D01*
X105986144Y-95457039D01*
X105986147Y-95457032D01*
X106054855Y-95258517D01*
X106054855Y-95258515D01*
X106056368Y-95248000D01*
X105147111Y-95248000D01*
X105186610Y-95223543D01*
X105254201Y-95134038D01*
X105284895Y-95026160D01*
X105274546Y-94914479D01*
X105224552Y-94814078D01*
X105152069Y-94748000D01*
X106052257Y-94748000D01*
X106025229Y-94636590D01*
X105937959Y-94445492D01*
X105816110Y-94274380D01*
X105816104Y-94274374D01*
X105664067Y-94129407D01*
X105487342Y-94015833D01*
X105292314Y-93937755D01*
X105086038Y-93898000D01*
X104530500Y-93898000D01*
X104463461Y-93878315D01*
X104417706Y-93825511D01*
X104406500Y-93774000D01*
X104406500Y-93350341D01*
X104391070Y-93238082D01*
X104391070Y-93238080D01*
X104360028Y-93166615D01*
X104330782Y-93099283D01*
X104305373Y-93068051D01*
X104235278Y-92981892D01*
X104235276Y-92981891D01*
X104235275Y-92981889D01*
X104111647Y-92894623D01*
X104111644Y-92894621D01*
X103969058Y-92843946D01*
X103818081Y-92833619D01*
X103818074Y-92833619D01*
X103669921Y-92864405D01*
X103669915Y-92864408D01*
X103535553Y-92934029D01*
X103535552Y-92934030D01*
X103535548Y-92934032D01*
X103424956Y-93037318D01*
X103346329Y-93166615D01*
X103346328Y-93166617D01*
X103346328Y-93166618D01*
X103305500Y-93312335D01*
X103305500Y-93775658D01*
X103320930Y-93887920D01*
X103331809Y-93912965D01*
X103332063Y-93913550D01*
X103340717Y-93982882D01*
X103310513Y-94045886D01*
X103285372Y-94067265D01*
X103283590Y-94068410D01*
X103118462Y-94198268D01*
X103118459Y-94198271D01*
X102980894Y-94357030D01*
X102980885Y-94357041D01*
X102875855Y-94538960D01*
X102875852Y-94538967D01*
X102807144Y-94737482D01*
X102807144Y-94737484D01*
X102805632Y-94748000D01*
X101627257Y-94748000D01*
X101600229Y-94636590D01*
X101512959Y-94445492D01*
X101391110Y-94274380D01*
X101391104Y-94274374D01*
X101239067Y-94129407D01*
X101062342Y-94015833D01*
X100867314Y-93937755D01*
X100661038Y-93898000D01*
X100406000Y-93898000D01*
X100406000Y-94698000D01*
X99906000Y-94698000D01*
X99906000Y-93898000D01*
X99703602Y-93898000D01*
X99546877Y-93912965D01*
X99546873Y-93912966D01*
X99345313Y-93972149D01*
X99158585Y-94068413D01*
X98993462Y-94198268D01*
X98993459Y-94198271D01*
X98855894Y-94357030D01*
X98855885Y-94357041D01*
X98750855Y-94538960D01*
X98750852Y-94538967D01*
X98682144Y-94737482D01*
X98682144Y-94737484D01*
X98680632Y-94748000D01*
X98217500Y-94748000D01*
X98217500Y-91644100D01*
X106028540Y-91644100D01*
X106048326Y-91832356D01*
X106048327Y-91832359D01*
X106106818Y-92012377D01*
X106106821Y-92012384D01*
X106201467Y-92176316D01*
X106328129Y-92316988D01*
X106481265Y-92428248D01*
X106481270Y-92428251D01*
X106654191Y-92505242D01*
X106654193Y-92505242D01*
X106654197Y-92505244D01*
X106722936Y-92519854D01*
X106784415Y-92553046D01*
X106818192Y-92614208D01*
X106813540Y-92683923D01*
X106789303Y-92724116D01*
X106709466Y-92812784D01*
X106614821Y-92976715D01*
X106614818Y-92976722D01*
X106585144Y-93068051D01*
X106556326Y-93156744D01*
X106536540Y-93345000D01*
X106556326Y-93533256D01*
X106556327Y-93533259D01*
X106614818Y-93713277D01*
X106614820Y-93713281D01*
X106614821Y-93713284D01*
X106650833Y-93775658D01*
X106696352Y-93854501D01*
X106712824Y-93922401D01*
X106696352Y-93978499D01*
X106614820Y-94119718D01*
X106614818Y-94119722D01*
X106558718Y-94292381D01*
X106556326Y-94299744D01*
X106536540Y-94488000D01*
X106556326Y-94676256D01*
X106556327Y-94676259D01*
X106614818Y-94856277D01*
X106614821Y-94856284D01*
X106709467Y-95020216D01*
X106805616Y-95127000D01*
X106836129Y-95160888D01*
X106989265Y-95272148D01*
X106989270Y-95272151D01*
X107162192Y-95349142D01*
X107162197Y-95349144D01*
X107347354Y-95388500D01*
X107347355Y-95388500D01*
X107536644Y-95388500D01*
X107536646Y-95388500D01*
X107721803Y-95349144D01*
X107837087Y-95297815D01*
X107894728Y-95272152D01*
X107894728Y-95272151D01*
X107894730Y-95272151D01*
X107940614Y-95238813D01*
X108006421Y-95215334D01*
X108074475Y-95231159D01*
X108086386Y-95238814D01*
X108132271Y-95272152D01*
X108305192Y-95349142D01*
X108305197Y-95349144D01*
X108490354Y-95388500D01*
X108490355Y-95388500D01*
X108679644Y-95388500D01*
X108679646Y-95388500D01*
X108864803Y-95349144D01*
X109037730Y-95272151D01*
X109190871Y-95160888D01*
X109317533Y-95020216D01*
X109412179Y-94856284D01*
X109449312Y-94742000D01*
X115680540Y-94742000D01*
X115700326Y-94930256D01*
X115700327Y-94930259D01*
X115758818Y-95110277D01*
X115758821Y-95110284D01*
X115853467Y-95274216D01*
X115935660Y-95365500D01*
X115980129Y-95414888D01*
X116133265Y-95526148D01*
X116133270Y-95526151D01*
X116306192Y-95603142D01*
X116306197Y-95603144D01*
X116491354Y-95642500D01*
X116491355Y-95642500D01*
X116680644Y-95642500D01*
X116680646Y-95642500D01*
X116865803Y-95603144D01*
X117038730Y-95526151D01*
X117191871Y-95414888D01*
X117318533Y-95274216D01*
X117413179Y-95110284D01*
X117471674Y-94930256D01*
X117491460Y-94742000D01*
X117471674Y-94553744D01*
X117413179Y-94373716D01*
X117318533Y-94209784D01*
X117191871Y-94069112D01*
X117189329Y-94067265D01*
X117038734Y-93957851D01*
X117038729Y-93957848D01*
X116865807Y-93880857D01*
X116865802Y-93880855D01*
X116711358Y-93848028D01*
X116680646Y-93841500D01*
X116491354Y-93841500D01*
X116460642Y-93848028D01*
X116306197Y-93880855D01*
X116306192Y-93880857D01*
X116133270Y-93957848D01*
X116133265Y-93957851D01*
X115980129Y-94069111D01*
X115853466Y-94209785D01*
X115758821Y-94373715D01*
X115758818Y-94373722D01*
X115705127Y-94538967D01*
X115700326Y-94553744D01*
X115680540Y-94742000D01*
X109449312Y-94742000D01*
X109470674Y-94676256D01*
X109490460Y-94488000D01*
X109470674Y-94299744D01*
X109412179Y-94119716D01*
X109330647Y-93978499D01*
X109314175Y-93910600D01*
X109330648Y-93854500D01*
X109334385Y-93848028D01*
X109412179Y-93713284D01*
X109470674Y-93533256D01*
X109490460Y-93345000D01*
X109470674Y-93156744D01*
X109412179Y-92976716D01*
X109331515Y-92837001D01*
X157292437Y-92837001D01*
X157312650Y-93068044D01*
X157312651Y-93068051D01*
X157372678Y-93292074D01*
X157372679Y-93292076D01*
X157372680Y-93292079D01*
X157470699Y-93502282D01*
X157603729Y-93692267D01*
X157603730Y-93692269D01*
X157759490Y-93848029D01*
X157792975Y-93909352D01*
X157787991Y-93979044D01*
X157746119Y-94034977D01*
X157697569Y-94054087D01*
X157698168Y-94056620D01*
X157690620Y-94058403D01*
X157555913Y-94108645D01*
X157555906Y-94108649D01*
X157440812Y-94194809D01*
X157440809Y-94194812D01*
X157354649Y-94309906D01*
X157354645Y-94309913D01*
X157304403Y-94444620D01*
X157304401Y-94444627D01*
X157298000Y-94504155D01*
X157298000Y-95127000D01*
X158128148Y-95127000D01*
X158079441Y-95264047D01*
X158069123Y-95414886D01*
X158099884Y-95562915D01*
X158133090Y-95627000D01*
X157298000Y-95627000D01*
X157298000Y-96249844D01*
X157304401Y-96309372D01*
X157304403Y-96309379D01*
X157354645Y-96444086D01*
X157354649Y-96444093D01*
X157440809Y-96559187D01*
X157440812Y-96559190D01*
X157555906Y-96645350D01*
X157555913Y-96645354D01*
X157690620Y-96695596D01*
X157690627Y-96695598D01*
X157750155Y-96701999D01*
X157750172Y-96702000D01*
X158373000Y-96702000D01*
X158373000Y-95868683D01*
X158401819Y-95886209D01*
X158547404Y-95927000D01*
X158660622Y-95927000D01*
X158772783Y-95911584D01*
X158873000Y-95868053D01*
X158873000Y-96702000D01*
X159495828Y-96702000D01*
X159495844Y-96701999D01*
X159555372Y-96695598D01*
X159555379Y-96695596D01*
X159690086Y-96645354D01*
X159690093Y-96645350D01*
X159805187Y-96559190D01*
X159805190Y-96559187D01*
X159891350Y-96444093D01*
X159891354Y-96444086D01*
X159941596Y-96309379D01*
X159941598Y-96309372D01*
X159947999Y-96249844D01*
X159948000Y-96249827D01*
X159948000Y-95627000D01*
X159117852Y-95627000D01*
X159166559Y-95489953D01*
X159176877Y-95339114D01*
X159146116Y-95191085D01*
X159112910Y-95127000D01*
X159948000Y-95127000D01*
X159948000Y-94504172D01*
X159947999Y-94504155D01*
X159941598Y-94444627D01*
X159941596Y-94444620D01*
X159891354Y-94309913D01*
X159891350Y-94309906D01*
X159805190Y-94194812D01*
X159805187Y-94194809D01*
X159690093Y-94108649D01*
X159690086Y-94108645D01*
X159555379Y-94058403D01*
X159547832Y-94056620D01*
X159548486Y-94053848D01*
X159496360Y-94032243D01*
X159456526Y-93974841D01*
X159454049Y-93905015D01*
X159486506Y-93848032D01*
X159642270Y-93692269D01*
X159775301Y-93502282D01*
X159873320Y-93292079D01*
X159933349Y-93068050D01*
X159953563Y-92837000D01*
X159951444Y-92812785D01*
X159943458Y-92721500D01*
X159933349Y-92605950D01*
X159873320Y-92381921D01*
X159775301Y-92171719D01*
X159775299Y-92171716D01*
X159775298Y-92171714D01*
X159642273Y-91981735D01*
X159642268Y-91981729D01*
X159478269Y-91817730D01*
X159478263Y-91817726D01*
X159288282Y-91684699D01*
X159276878Y-91679381D01*
X159224440Y-91633210D01*
X159205288Y-91566016D01*
X159225504Y-91499135D01*
X159276878Y-91454618D01*
X159288282Y-91449301D01*
X159478269Y-91316270D01*
X159642270Y-91152269D01*
X159775301Y-90962282D01*
X159873320Y-90752079D01*
X159933349Y-90528050D01*
X159953563Y-90297000D01*
X159933349Y-90065950D01*
X159873320Y-89841921D01*
X159775301Y-89631719D01*
X159775299Y-89631716D01*
X159775298Y-89631714D01*
X159642273Y-89441735D01*
X159642268Y-89441729D01*
X159478269Y-89277730D01*
X159443154Y-89253142D01*
X159288282Y-89144699D01*
X159078079Y-89046680D01*
X159078076Y-89046679D01*
X159078074Y-89046678D01*
X158854051Y-88986651D01*
X158854044Y-88986650D01*
X158623002Y-88966437D01*
X158622998Y-88966437D01*
X158391955Y-88986650D01*
X158391948Y-88986651D01*
X158167917Y-89046681D01*
X157957718Y-89144699D01*
X157957714Y-89144701D01*
X157767735Y-89277726D01*
X157767729Y-89277731D01*
X157603731Y-89441729D01*
X157603726Y-89441735D01*
X157470701Y-89631714D01*
X157470699Y-89631718D01*
X157372681Y-89841917D01*
X157312651Y-90065948D01*
X157312650Y-90065955D01*
X157292437Y-90296998D01*
X157292437Y-90297001D01*
X157312650Y-90528044D01*
X157312651Y-90528051D01*
X157372678Y-90752074D01*
X157372679Y-90752076D01*
X157372680Y-90752079D01*
X157470699Y-90962282D01*
X157603730Y-91152269D01*
X157767731Y-91316270D01*
X157957718Y-91449301D01*
X157969121Y-91454618D01*
X158021560Y-91500790D01*
X158040712Y-91567984D01*
X158020496Y-91634865D01*
X157969123Y-91679381D01*
X157957720Y-91684698D01*
X157957714Y-91684701D01*
X157767735Y-91817726D01*
X157767729Y-91817731D01*
X157603731Y-91981729D01*
X157603726Y-91981735D01*
X157470701Y-92171714D01*
X157470699Y-92171718D01*
X157372681Y-92381917D01*
X157312651Y-92605948D01*
X157312650Y-92605955D01*
X157292437Y-92836998D01*
X157292437Y-92837001D01*
X109331515Y-92837001D01*
X109317533Y-92812784D01*
X109190871Y-92672112D01*
X109156500Y-92647140D01*
X109037734Y-92560851D01*
X109037729Y-92560848D01*
X108864807Y-92483857D01*
X108864802Y-92483855D01*
X108719001Y-92452865D01*
X108679646Y-92444500D01*
X108490354Y-92444500D01*
X108457897Y-92451398D01*
X108305197Y-92483855D01*
X108305192Y-92483857D01*
X108132270Y-92560848D01*
X108132266Y-92560851D01*
X108086384Y-92594186D01*
X108020578Y-92617665D01*
X107952524Y-92601839D01*
X107940616Y-92594186D01*
X107894733Y-92560851D01*
X107894729Y-92560848D01*
X107721807Y-92483857D01*
X107721802Y-92483855D01*
X107653065Y-92469245D01*
X107591583Y-92436053D01*
X107557807Y-92374889D01*
X107562459Y-92305175D01*
X107586692Y-92264987D01*
X107666533Y-92176316D01*
X107761179Y-92012384D01*
X107819674Y-91832356D01*
X107820868Y-91821000D01*
X137651540Y-91821000D01*
X137671326Y-92009256D01*
X137671327Y-92009259D01*
X137729818Y-92189277D01*
X137729821Y-92189284D01*
X137824467Y-92353216D01*
X137892029Y-92428251D01*
X137951129Y-92493888D01*
X138104265Y-92605148D01*
X138104270Y-92605151D01*
X138277192Y-92682142D01*
X138277197Y-92682144D01*
X138462354Y-92721500D01*
X138462355Y-92721500D01*
X138651644Y-92721500D01*
X138651646Y-92721500D01*
X138836803Y-92682144D01*
X139009730Y-92605151D01*
X139162871Y-92493888D01*
X139289533Y-92353216D01*
X139384179Y-92189284D01*
X139442674Y-92009256D01*
X139462460Y-91821000D01*
X139449112Y-91694000D01*
X148954540Y-91694000D01*
X148974326Y-91882256D01*
X148974327Y-91882259D01*
X149032818Y-92062277D01*
X149032821Y-92062284D01*
X149127467Y-92226216D01*
X149209199Y-92316988D01*
X149254129Y-92366888D01*
X149407265Y-92478148D01*
X149407270Y-92478151D01*
X149580192Y-92555142D01*
X149580197Y-92555144D01*
X149765354Y-92594500D01*
X149765355Y-92594500D01*
X149954644Y-92594500D01*
X149954646Y-92594500D01*
X150139803Y-92555144D01*
X150312730Y-92478151D01*
X150465871Y-92366888D01*
X150592533Y-92226216D01*
X150687179Y-92062284D01*
X150745674Y-91882256D01*
X150765460Y-91694000D01*
X150745674Y-91505744D01*
X150687179Y-91325716D01*
X150592533Y-91161784D01*
X150465871Y-91021112D01*
X150465870Y-91021111D01*
X150312734Y-90909851D01*
X150312729Y-90909848D01*
X150139807Y-90832857D01*
X150139802Y-90832855D01*
X149994001Y-90801865D01*
X149954646Y-90793500D01*
X149765354Y-90793500D01*
X149732897Y-90800398D01*
X149580197Y-90832855D01*
X149580192Y-90832857D01*
X149407270Y-90909848D01*
X149407265Y-90909851D01*
X149254129Y-91021111D01*
X149127466Y-91161785D01*
X149032821Y-91325715D01*
X149032818Y-91325722D01*
X148974327Y-91505740D01*
X148974326Y-91505744D01*
X148954540Y-91694000D01*
X139449112Y-91694000D01*
X139442674Y-91632744D01*
X139384179Y-91452716D01*
X139289533Y-91288784D01*
X139162871Y-91148112D01*
X139113009Y-91111885D01*
X139009734Y-91036851D01*
X139009729Y-91036848D01*
X138836807Y-90959857D01*
X138836802Y-90959855D01*
X138691001Y-90928865D01*
X138651646Y-90920500D01*
X138462354Y-90920500D01*
X138429897Y-90927398D01*
X138277197Y-90959855D01*
X138277192Y-90959857D01*
X138104270Y-91036848D01*
X138104265Y-91036851D01*
X137951129Y-91148111D01*
X137824466Y-91288785D01*
X137729821Y-91452715D01*
X137729818Y-91452722D01*
X137686293Y-91586680D01*
X137671326Y-91632744D01*
X137651540Y-91821000D01*
X107820868Y-91821000D01*
X107839460Y-91644100D01*
X107819674Y-91455844D01*
X107761179Y-91275816D01*
X107666533Y-91111884D01*
X107539871Y-90971212D01*
X107527580Y-90962282D01*
X107386734Y-90859951D01*
X107386729Y-90859948D01*
X107281195Y-90812961D01*
X107227958Y-90767711D01*
X107207637Y-90700862D01*
X107226683Y-90633638D01*
X107279049Y-90587383D01*
X107305847Y-90578392D01*
X107484977Y-90540318D01*
X107657904Y-90463325D01*
X107811045Y-90352062D01*
X107937707Y-90211390D01*
X108032353Y-90047458D01*
X108090848Y-89867430D01*
X108110634Y-89679174D01*
X108095481Y-89535000D01*
X120252540Y-89535000D01*
X120272326Y-89723256D01*
X120272327Y-89723259D01*
X120330818Y-89903277D01*
X120330821Y-89903284D01*
X120425467Y-90067216D01*
X120552129Y-90207888D01*
X120705265Y-90319148D01*
X120705270Y-90319151D01*
X120878192Y-90396142D01*
X120878197Y-90396144D01*
X121063354Y-90435500D01*
X121063355Y-90435500D01*
X121252644Y-90435500D01*
X121252646Y-90435500D01*
X121437803Y-90396144D01*
X121610730Y-90319151D01*
X121763871Y-90207888D01*
X121890533Y-90067216D01*
X121985179Y-89903284D01*
X122043674Y-89723256D01*
X122063460Y-89535000D01*
X122043674Y-89346744D01*
X121985179Y-89166716D01*
X121890533Y-89002784D01*
X121763871Y-88862112D01*
X121763870Y-88862111D01*
X121610734Y-88750851D01*
X121610729Y-88750848D01*
X121437807Y-88673857D01*
X121437802Y-88673855D01*
X121292001Y-88642865D01*
X121252646Y-88634500D01*
X121063354Y-88634500D01*
X121030897Y-88641398D01*
X120878197Y-88673855D01*
X120878192Y-88673857D01*
X120705270Y-88750848D01*
X120705265Y-88750851D01*
X120552129Y-88862111D01*
X120425466Y-89002785D01*
X120330821Y-89166715D01*
X120330818Y-89166722D01*
X120272327Y-89346740D01*
X120272326Y-89346744D01*
X120252540Y-89535000D01*
X108095481Y-89535000D01*
X108090848Y-89490918D01*
X108032353Y-89310890D01*
X107937707Y-89146958D01*
X107811045Y-89006286D01*
X107811044Y-89006285D01*
X107657908Y-88895025D01*
X107657903Y-88895022D01*
X107484981Y-88818031D01*
X107484976Y-88818029D01*
X107339175Y-88787039D01*
X107299820Y-88778674D01*
X107110528Y-88778674D01*
X107078071Y-88785572D01*
X106925371Y-88818029D01*
X106925366Y-88818031D01*
X106752444Y-88895022D01*
X106752439Y-88895025D01*
X106599303Y-89006285D01*
X106472640Y-89146959D01*
X106377995Y-89310889D01*
X106377992Y-89310896D01*
X106319501Y-89490914D01*
X106319500Y-89490918D01*
X106299714Y-89679174D01*
X106319500Y-89867430D01*
X106319501Y-89867433D01*
X106377992Y-90047451D01*
X106377995Y-90047458D01*
X106472641Y-90211390D01*
X106599303Y-90352062D01*
X106752444Y-90463325D01*
X106857981Y-90510313D01*
X106911215Y-90555562D01*
X106931536Y-90622411D01*
X106912491Y-90689635D01*
X106860125Y-90735890D01*
X106833323Y-90744881D01*
X106654197Y-90782955D01*
X106654192Y-90782957D01*
X106481270Y-90859948D01*
X106481265Y-90859951D01*
X106328129Y-90971211D01*
X106201466Y-91111885D01*
X106106821Y-91275815D01*
X106106818Y-91275822D01*
X106049342Y-91452716D01*
X106048326Y-91455844D01*
X106028540Y-91644100D01*
X98217500Y-91644100D01*
X98217500Y-88392000D01*
X148954540Y-88392000D01*
X148974326Y-88580256D01*
X148974327Y-88580259D01*
X149032818Y-88760277D01*
X149032821Y-88760284D01*
X149127467Y-88924216D01*
X149237733Y-89046678D01*
X149254129Y-89064888D01*
X149407265Y-89176148D01*
X149407270Y-89176151D01*
X149580192Y-89253142D01*
X149580197Y-89253144D01*
X149765354Y-89292500D01*
X149765355Y-89292500D01*
X149954644Y-89292500D01*
X149954646Y-89292500D01*
X150139803Y-89253144D01*
X150312730Y-89176151D01*
X150465871Y-89064888D01*
X150592533Y-88924216D01*
X150687179Y-88760284D01*
X150745674Y-88580256D01*
X150765460Y-88392000D01*
X150745674Y-88203744D01*
X150687179Y-88023716D01*
X150592533Y-87859784D01*
X150465871Y-87719112D01*
X150429737Y-87692859D01*
X150343219Y-87630000D01*
X154796540Y-87630000D01*
X154816326Y-87818256D01*
X154816327Y-87818259D01*
X154874818Y-87998277D01*
X154874821Y-87998284D01*
X154969467Y-88162216D01*
X155096129Y-88302888D01*
X155249265Y-88414148D01*
X155249270Y-88414151D01*
X155422192Y-88491142D01*
X155422197Y-88491144D01*
X155607354Y-88530500D01*
X155607355Y-88530500D01*
X155796644Y-88530500D01*
X155796646Y-88530500D01*
X155981803Y-88491144D01*
X156154730Y-88414151D01*
X156307871Y-88302888D01*
X156434533Y-88162216D01*
X156529179Y-87998284D01*
X156587674Y-87818256D01*
X156607460Y-87630000D01*
X157590540Y-87630000D01*
X157610326Y-87818256D01*
X157610327Y-87818259D01*
X157668818Y-87998277D01*
X157668821Y-87998284D01*
X157763467Y-88162216D01*
X157890129Y-88302888D01*
X158043265Y-88414148D01*
X158043270Y-88414151D01*
X158216192Y-88491142D01*
X158216197Y-88491144D01*
X158401354Y-88530500D01*
X158401355Y-88530500D01*
X158590644Y-88530500D01*
X158590646Y-88530500D01*
X158775803Y-88491144D01*
X158948730Y-88414151D01*
X159101871Y-88302888D01*
X159228533Y-88162216D01*
X159323179Y-87998284D01*
X159381674Y-87818256D01*
X159401460Y-87630000D01*
X160384540Y-87630000D01*
X160404326Y-87818256D01*
X160404327Y-87818259D01*
X160462818Y-87998277D01*
X160462821Y-87998284D01*
X160557467Y-88162216D01*
X160684129Y-88302888D01*
X160837265Y-88414148D01*
X160837270Y-88414151D01*
X161010192Y-88491142D01*
X161010197Y-88491144D01*
X161195354Y-88530500D01*
X161195355Y-88530500D01*
X161384644Y-88530500D01*
X161384646Y-88530500D01*
X161569803Y-88491144D01*
X161742730Y-88414151D01*
X161895871Y-88302888D01*
X162022533Y-88162216D01*
X162117179Y-87998284D01*
X162175674Y-87818256D01*
X162195460Y-87630000D01*
X162175674Y-87441744D01*
X162117179Y-87261716D01*
X162022533Y-87097784D01*
X161895871Y-86957112D01*
X161817961Y-86900507D01*
X161742734Y-86845851D01*
X161742729Y-86845848D01*
X161569807Y-86768857D01*
X161569802Y-86768855D01*
X161424001Y-86737865D01*
X161384646Y-86729500D01*
X161195354Y-86729500D01*
X161162897Y-86736398D01*
X161010197Y-86768855D01*
X161010192Y-86768857D01*
X160837270Y-86845848D01*
X160837265Y-86845851D01*
X160684129Y-86957111D01*
X160557466Y-87097785D01*
X160462821Y-87261715D01*
X160462818Y-87261722D01*
X160404327Y-87441740D01*
X160404326Y-87441744D01*
X160384540Y-87630000D01*
X159401460Y-87630000D01*
X159381674Y-87441744D01*
X159323179Y-87261716D01*
X159228533Y-87097784D01*
X159101871Y-86957112D01*
X159023961Y-86900507D01*
X158948734Y-86845851D01*
X158948729Y-86845848D01*
X158775807Y-86768857D01*
X158775802Y-86768855D01*
X158630001Y-86737865D01*
X158590646Y-86729500D01*
X158401354Y-86729500D01*
X158368897Y-86736398D01*
X158216197Y-86768855D01*
X158216192Y-86768857D01*
X158043270Y-86845848D01*
X158043265Y-86845851D01*
X157890129Y-86957111D01*
X157763466Y-87097785D01*
X157668821Y-87261715D01*
X157668818Y-87261722D01*
X157610327Y-87441740D01*
X157610326Y-87441744D01*
X157590540Y-87630000D01*
X156607460Y-87630000D01*
X156587674Y-87441744D01*
X156529179Y-87261716D01*
X156434533Y-87097784D01*
X156307871Y-86957112D01*
X156229961Y-86900507D01*
X156154734Y-86845851D01*
X156154729Y-86845848D01*
X155981807Y-86768857D01*
X155981802Y-86768855D01*
X155836001Y-86737865D01*
X155796646Y-86729500D01*
X155607354Y-86729500D01*
X155574897Y-86736398D01*
X155422197Y-86768855D01*
X155422192Y-86768857D01*
X155249270Y-86845848D01*
X155249265Y-86845851D01*
X155096129Y-86957111D01*
X154969466Y-87097785D01*
X154874821Y-87261715D01*
X154874818Y-87261722D01*
X154816327Y-87441740D01*
X154816326Y-87441744D01*
X154796540Y-87630000D01*
X150343219Y-87630000D01*
X150312734Y-87607851D01*
X150312729Y-87607848D01*
X150139807Y-87530857D01*
X150139802Y-87530855D01*
X149994001Y-87499865D01*
X149954646Y-87491500D01*
X149765354Y-87491500D01*
X149762127Y-87492186D01*
X149580197Y-87530855D01*
X149580192Y-87530857D01*
X149407270Y-87607848D01*
X149407265Y-87607851D01*
X149254129Y-87719111D01*
X149127466Y-87859785D01*
X149032821Y-88023715D01*
X149032818Y-88023722D01*
X149006913Y-88103451D01*
X148974326Y-88203744D01*
X148954540Y-88392000D01*
X98217500Y-88392000D01*
X98217500Y-86098000D01*
X98680632Y-86098000D01*
X99589889Y-86098000D01*
X99550390Y-86122457D01*
X99482799Y-86211962D01*
X99452105Y-86319840D01*
X99462454Y-86431521D01*
X99512448Y-86531922D01*
X99584931Y-86598000D01*
X98684742Y-86598000D01*
X98711770Y-86709409D01*
X98799040Y-86900507D01*
X98920889Y-87071619D01*
X98920895Y-87071625D01*
X99072932Y-87216592D01*
X99249657Y-87330166D01*
X99444685Y-87408244D01*
X99650962Y-87448000D01*
X99906000Y-87448000D01*
X99906000Y-86648000D01*
X100406000Y-86648000D01*
X100406000Y-87448000D01*
X100608398Y-87448000D01*
X100765122Y-87433034D01*
X100765126Y-87433033D01*
X100966686Y-87373850D01*
X101153414Y-87277586D01*
X101318537Y-87147731D01*
X101318540Y-87147728D01*
X101456105Y-86988969D01*
X101456114Y-86988958D01*
X101561144Y-86807039D01*
X101561147Y-86807032D01*
X101629855Y-86608517D01*
X101629855Y-86608515D01*
X101631368Y-86598000D01*
X100722111Y-86598000D01*
X100761610Y-86573543D01*
X100829201Y-86484038D01*
X100859895Y-86376160D01*
X100849546Y-86264479D01*
X100799552Y-86164078D01*
X100727069Y-86098000D01*
X101627257Y-86098000D01*
X102805632Y-86098000D01*
X103714889Y-86098000D01*
X103675390Y-86122457D01*
X103607799Y-86211962D01*
X103577105Y-86319840D01*
X103587454Y-86431521D01*
X103637448Y-86531922D01*
X103709931Y-86598000D01*
X102809742Y-86598000D01*
X102836770Y-86709409D01*
X102924040Y-86900507D01*
X103045889Y-87071619D01*
X103045895Y-87071625D01*
X103197932Y-87216592D01*
X103353180Y-87316363D01*
X103398935Y-87369167D01*
X103408879Y-87438326D01*
X103387446Y-87492186D01*
X103362622Y-87527353D01*
X103362621Y-87527355D01*
X103311946Y-87669939D01*
X103311946Y-87669942D01*
X103301619Y-87820918D01*
X103301619Y-87820921D01*
X103332405Y-87969078D01*
X103332407Y-87969083D01*
X103332408Y-87969085D01*
X103402029Y-88103447D01*
X103402031Y-88103449D01*
X103402032Y-88103451D01*
X103505318Y-88214043D01*
X103505320Y-88214044D01*
X103634618Y-88292672D01*
X103780335Y-88333500D01*
X103780336Y-88333500D01*
X103893659Y-88333500D01*
X103921723Y-88329642D01*
X104005920Y-88318070D01*
X104115854Y-88270318D01*
X104144716Y-88257782D01*
X104144716Y-88257781D01*
X104144720Y-88257780D01*
X104262108Y-88162278D01*
X104349377Y-88038647D01*
X104363725Y-87998277D01*
X104400053Y-87896060D01*
X104400053Y-87896058D01*
X104400054Y-87896056D01*
X104410381Y-87745079D01*
X104394768Y-87669944D01*
X104379594Y-87596921D01*
X104379592Y-87596918D01*
X104379592Y-87596915D01*
X104309971Y-87462553D01*
X104309967Y-87462549D01*
X104309967Y-87462548D01*
X104214376Y-87360195D01*
X104183005Y-87297765D01*
X104181000Y-87275559D01*
X104181000Y-86648000D01*
X104681000Y-86648000D01*
X104681000Y-87448000D01*
X105033398Y-87448000D01*
X105190122Y-87433034D01*
X105190126Y-87433033D01*
X105391686Y-87373850D01*
X105578414Y-87277586D01*
X105743537Y-87147731D01*
X105743540Y-87147728D01*
X105875879Y-86995000D01*
X106536540Y-86995000D01*
X106556326Y-87183256D01*
X106556327Y-87183259D01*
X106614818Y-87363277D01*
X106614821Y-87363284D01*
X106709467Y-87527216D01*
X106836129Y-87667888D01*
X106989265Y-87779148D01*
X106989270Y-87779151D01*
X107162192Y-87856142D01*
X107162197Y-87856144D01*
X107347354Y-87895500D01*
X107347355Y-87895500D01*
X107536644Y-87895500D01*
X107536646Y-87895500D01*
X107721803Y-87856144D01*
X107894730Y-87779151D01*
X107940614Y-87745813D01*
X108006421Y-87722334D01*
X108074475Y-87738159D01*
X108086386Y-87745814D01*
X108132271Y-87779152D01*
X108305192Y-87856142D01*
X108305197Y-87856144D01*
X108490354Y-87895500D01*
X108490355Y-87895500D01*
X108679644Y-87895500D01*
X108679646Y-87895500D01*
X108864803Y-87856144D01*
X109037730Y-87779151D01*
X109083614Y-87745813D01*
X109149421Y-87722334D01*
X109217475Y-87738159D01*
X109229386Y-87745814D01*
X109275271Y-87779152D01*
X109448192Y-87856142D01*
X109448197Y-87856144D01*
X109633354Y-87895500D01*
X109633355Y-87895500D01*
X109822644Y-87895500D01*
X109822646Y-87895500D01*
X110007803Y-87856144D01*
X110180730Y-87779151D01*
X110333871Y-87667888D01*
X110460533Y-87527216D01*
X110555179Y-87363284D01*
X110613674Y-87183256D01*
X110633460Y-86995000D01*
X110613674Y-86806744D01*
X110555179Y-86626716D01*
X110460533Y-86462784D01*
X110333871Y-86322112D01*
X110333870Y-86322111D01*
X110251834Y-86262508D01*
X131377364Y-86262508D01*
X131383986Y-86266668D01*
X131383989Y-86266670D01*
X131540857Y-86321560D01*
X131705997Y-86340167D01*
X131706003Y-86340167D01*
X131871140Y-86321560D01*
X132028015Y-86266667D01*
X132034633Y-86262508D01*
X132902364Y-86262508D01*
X132908986Y-86266668D01*
X132908989Y-86266670D01*
X133065857Y-86321560D01*
X133230997Y-86340167D01*
X133231003Y-86340167D01*
X133396140Y-86321560D01*
X133553015Y-86266667D01*
X133559633Y-86262508D01*
X133231001Y-85933875D01*
X133231000Y-85933875D01*
X132902364Y-86262508D01*
X132034633Y-86262508D01*
X131706001Y-85933875D01*
X131706000Y-85933875D01*
X131377364Y-86262508D01*
X110251834Y-86262508D01*
X110180734Y-86210851D01*
X110180729Y-86210848D01*
X110007807Y-86133857D01*
X110007802Y-86133855D01*
X109839112Y-86098000D01*
X109822646Y-86094500D01*
X109633354Y-86094500D01*
X109628061Y-86095624D01*
X109558397Y-86090307D01*
X109502664Y-86048169D01*
X109478560Y-85982589D01*
X109478963Y-85961381D01*
X109490460Y-85852000D01*
X109470674Y-85663744D01*
X109417473Y-85500008D01*
X130614864Y-85500008D01*
X130621486Y-85504168D01*
X130621489Y-85504170D01*
X130778357Y-85559060D01*
X130863508Y-85568654D01*
X130927922Y-85595720D01*
X130967477Y-85653315D01*
X130972845Y-85677990D01*
X130982439Y-85763140D01*
X131037333Y-85920018D01*
X131041489Y-85926634D01*
X131337632Y-85630492D01*
X131606000Y-85630492D01*
X131644197Y-85683065D01*
X131690162Y-85698000D01*
X131721838Y-85698000D01*
X131767803Y-85683065D01*
X131806000Y-85630492D01*
X131806000Y-85598000D01*
X132041875Y-85598000D01*
X132370508Y-85926633D01*
X132376921Y-85925911D01*
X132415843Y-85891487D01*
X132484897Y-85880841D01*
X132548744Y-85909219D01*
X132563545Y-85926302D01*
X132566489Y-85926634D01*
X132862632Y-85630492D01*
X133131000Y-85630492D01*
X133169197Y-85683065D01*
X133215162Y-85698000D01*
X133246838Y-85698000D01*
X133292803Y-85683065D01*
X133331000Y-85630492D01*
X133331000Y-85598000D01*
X133566875Y-85598000D01*
X133895508Y-85926633D01*
X133899667Y-85920015D01*
X133954560Y-85763140D01*
X133964154Y-85677991D01*
X133991220Y-85613577D01*
X134048815Y-85574022D01*
X134073491Y-85568654D01*
X134158640Y-85559060D01*
X134315515Y-85504167D01*
X134322133Y-85500008D01*
X133993500Y-85171375D01*
X133566875Y-85598000D01*
X133331000Y-85598000D01*
X133331000Y-85565508D01*
X133292803Y-85512935D01*
X133246838Y-85498000D01*
X133215162Y-85498000D01*
X133169197Y-85512935D01*
X133131000Y-85565508D01*
X133131000Y-85630492D01*
X132862632Y-85630492D01*
X132895124Y-85598000D01*
X132850338Y-85553212D01*
X132468500Y-85171375D01*
X132041875Y-85598000D01*
X131806000Y-85598000D01*
X131806000Y-85565508D01*
X131767803Y-85512935D01*
X131721838Y-85498000D01*
X131690162Y-85498000D01*
X131644197Y-85512935D01*
X131606000Y-85565508D01*
X131606000Y-85630492D01*
X131337632Y-85630492D01*
X131370124Y-85598000D01*
X131325338Y-85553212D01*
X130943501Y-85171375D01*
X130943500Y-85171375D01*
X130614864Y-85500008D01*
X109417473Y-85500008D01*
X109412179Y-85483716D01*
X109317533Y-85319784D01*
X109190871Y-85179112D01*
X109180222Y-85171375D01*
X109037734Y-85067851D01*
X109037729Y-85067848D01*
X108864807Y-84990857D01*
X108864802Y-84990855D01*
X108719001Y-84959865D01*
X108679646Y-84951500D01*
X108490354Y-84951500D01*
X108457897Y-84958398D01*
X108305197Y-84990855D01*
X108305192Y-84990857D01*
X108132270Y-85067848D01*
X108132266Y-85067851D01*
X108086384Y-85101186D01*
X108020578Y-85124665D01*
X107952524Y-85108839D01*
X107940616Y-85101186D01*
X107894733Y-85067851D01*
X107894729Y-85067848D01*
X107721807Y-84990857D01*
X107721802Y-84990855D01*
X107576001Y-84959865D01*
X107536646Y-84951500D01*
X107347354Y-84951500D01*
X107314897Y-84958398D01*
X107162197Y-84990855D01*
X107162192Y-84990857D01*
X106989270Y-85067848D01*
X106989265Y-85067851D01*
X106836129Y-85179111D01*
X106709466Y-85319785D01*
X106614821Y-85483715D01*
X106614818Y-85483722D01*
X106556327Y-85663740D01*
X106556326Y-85663744D01*
X106536540Y-85852000D01*
X106556326Y-86040256D01*
X106556327Y-86040259D01*
X106614818Y-86220277D01*
X106614820Y-86220281D01*
X106614821Y-86220284D01*
X106641601Y-86266668D01*
X106696352Y-86361501D01*
X106712824Y-86429401D01*
X106696352Y-86485499D01*
X106614820Y-86626718D01*
X106614818Y-86626722D01*
X106568636Y-86768857D01*
X106556326Y-86806744D01*
X106536540Y-86995000D01*
X105875879Y-86995000D01*
X105881105Y-86988969D01*
X105881114Y-86988958D01*
X105986144Y-86807039D01*
X105986147Y-86807032D01*
X106054855Y-86608517D01*
X106054855Y-86608515D01*
X106056368Y-86598000D01*
X105147111Y-86598000D01*
X105186610Y-86573543D01*
X105254201Y-86484038D01*
X105284895Y-86376160D01*
X105274546Y-86264479D01*
X105224552Y-86164078D01*
X105152069Y-86098000D01*
X106052257Y-86098000D01*
X106025229Y-85986590D01*
X105937959Y-85795492D01*
X105816110Y-85624380D01*
X105816104Y-85624374D01*
X105664067Y-85479407D01*
X105487342Y-85365833D01*
X105292314Y-85287755D01*
X105086038Y-85248000D01*
X104681000Y-85248000D01*
X104681000Y-86048000D01*
X104181000Y-86048000D01*
X104181000Y-85248000D01*
X103828602Y-85248000D01*
X103671877Y-85262965D01*
X103671873Y-85262966D01*
X103470313Y-85322149D01*
X103283585Y-85418413D01*
X103118462Y-85548268D01*
X103118459Y-85548271D01*
X102980894Y-85707030D01*
X102980885Y-85707041D01*
X102875855Y-85888960D01*
X102875852Y-85888967D01*
X102807144Y-86087482D01*
X102807144Y-86087484D01*
X102805632Y-86098000D01*
X101627257Y-86098000D01*
X101600229Y-85986590D01*
X101512959Y-85795492D01*
X101391110Y-85624380D01*
X101391104Y-85624374D01*
X101239067Y-85479407D01*
X101062342Y-85365833D01*
X100867314Y-85287755D01*
X100661038Y-85248000D01*
X100406000Y-85248000D01*
X100406000Y-86048000D01*
X99906000Y-86048000D01*
X99906000Y-85248000D01*
X99703602Y-85248000D01*
X99546877Y-85262965D01*
X99546873Y-85262966D01*
X99345313Y-85322149D01*
X99158585Y-85418413D01*
X98993462Y-85548268D01*
X98993459Y-85548271D01*
X98855894Y-85707030D01*
X98855885Y-85707041D01*
X98750855Y-85888960D01*
X98750852Y-85888967D01*
X98682144Y-86087482D01*
X98682144Y-86087484D01*
X98680632Y-86098000D01*
X98217500Y-86098000D01*
X98217500Y-84010500D01*
X113204040Y-84010500D01*
X113223826Y-84198756D01*
X113223827Y-84198759D01*
X113282318Y-84378777D01*
X113282321Y-84378784D01*
X113376967Y-84542716D01*
X113473643Y-84650085D01*
X113503629Y-84683388D01*
X113656765Y-84794648D01*
X113656770Y-84794651D01*
X113829692Y-84871642D01*
X113829697Y-84871644D01*
X114014854Y-84911000D01*
X114014855Y-84911000D01*
X114204144Y-84911000D01*
X114204146Y-84911000D01*
X114389303Y-84871644D01*
X114470478Y-84835502D01*
X130201333Y-84835502D01*
X130219939Y-85000640D01*
X130274833Y-85157518D01*
X130278989Y-85164134D01*
X130575132Y-84867992D01*
X130843500Y-84867992D01*
X130881697Y-84920565D01*
X130927662Y-84935500D01*
X130959338Y-84935500D01*
X131005303Y-84920565D01*
X131043500Y-84867992D01*
X131043500Y-84835500D01*
X131279375Y-84835500D01*
X131324162Y-84880287D01*
X131706000Y-85262124D01*
X132087838Y-84880287D01*
X132100133Y-84867992D01*
X132368500Y-84867992D01*
X132406697Y-84920565D01*
X132452662Y-84935500D01*
X132484338Y-84935500D01*
X132530303Y-84920565D01*
X132568500Y-84867992D01*
X132568500Y-84835500D01*
X132804375Y-84835500D01*
X132849162Y-84880287D01*
X133231000Y-85262124D01*
X133612838Y-84880287D01*
X133625133Y-84867992D01*
X133893500Y-84867992D01*
X133931697Y-84920565D01*
X133977662Y-84935500D01*
X134009338Y-84935500D01*
X134055303Y-84920565D01*
X134093500Y-84867992D01*
X134093500Y-84835500D01*
X134329375Y-84835500D01*
X134658008Y-85164133D01*
X134662167Y-85157515D01*
X134717060Y-85000640D01*
X134735667Y-84835502D01*
X134735667Y-84835497D01*
X134717060Y-84670357D01*
X134686143Y-84582000D01*
X148954540Y-84582000D01*
X148974326Y-84770256D01*
X148974327Y-84770259D01*
X149032818Y-84950277D01*
X149032821Y-84950284D01*
X149127467Y-85114216D01*
X149185899Y-85179111D01*
X149254129Y-85254888D01*
X149407265Y-85366148D01*
X149407270Y-85366151D01*
X149580192Y-85443142D01*
X149580197Y-85443144D01*
X149765354Y-85482500D01*
X149765355Y-85482500D01*
X149954644Y-85482500D01*
X149954646Y-85482500D01*
X150139803Y-85443144D01*
X150312730Y-85366151D01*
X150465871Y-85254888D01*
X150592533Y-85114216D01*
X150687179Y-84950284D01*
X150745674Y-84770256D01*
X150765460Y-84582000D01*
X150745674Y-84393744D01*
X150687179Y-84213716D01*
X150592533Y-84049784D01*
X150465871Y-83909112D01*
X150458312Y-83903620D01*
X150312734Y-83797851D01*
X150312729Y-83797848D01*
X150139807Y-83720857D01*
X150139802Y-83720855D01*
X149994001Y-83689865D01*
X149954646Y-83681500D01*
X149765354Y-83681500D01*
X149732897Y-83688398D01*
X149580197Y-83720855D01*
X149580192Y-83720857D01*
X149407270Y-83797848D01*
X149407265Y-83797851D01*
X149254129Y-83909111D01*
X149127466Y-84049785D01*
X149032821Y-84213715D01*
X149032818Y-84213722D01*
X148974327Y-84393740D01*
X148974326Y-84393744D01*
X148954540Y-84582000D01*
X134686143Y-84582000D01*
X134662170Y-84513489D01*
X134662168Y-84513486D01*
X134658008Y-84506864D01*
X134329375Y-84835499D01*
X134329375Y-84835500D01*
X134093500Y-84835500D01*
X134093500Y-84803008D01*
X134055303Y-84750435D01*
X134009338Y-84735500D01*
X133977662Y-84735500D01*
X133931697Y-84750435D01*
X133893500Y-84803008D01*
X133893500Y-84867992D01*
X133625133Y-84867992D01*
X133657624Y-84835500D01*
X133657624Y-84835499D01*
X133231000Y-84408875D01*
X132804375Y-84835500D01*
X132568500Y-84835500D01*
X132568500Y-84803008D01*
X132530303Y-84750435D01*
X132484338Y-84735500D01*
X132452662Y-84735500D01*
X132406697Y-84750435D01*
X132368500Y-84803008D01*
X132368500Y-84867992D01*
X132100133Y-84867992D01*
X132132624Y-84835500D01*
X132132624Y-84835499D01*
X131706000Y-84408875D01*
X131279375Y-84835500D01*
X131043500Y-84835500D01*
X131043500Y-84803008D01*
X131005303Y-84750435D01*
X130959338Y-84735500D01*
X130927662Y-84735500D01*
X130881697Y-84750435D01*
X130843500Y-84803008D01*
X130843500Y-84867992D01*
X130575132Y-84867992D01*
X130607624Y-84835500D01*
X130607624Y-84835499D01*
X130278990Y-84506864D01*
X130278989Y-84506864D01*
X130274831Y-84513483D01*
X130219939Y-84670357D01*
X130201333Y-84835497D01*
X130201333Y-84835502D01*
X114470478Y-84835502D01*
X114562230Y-84794651D01*
X114715371Y-84683388D01*
X114842033Y-84542716D01*
X114936679Y-84378784D01*
X114995174Y-84198756D01*
X115014960Y-84010500D01*
X114995174Y-83822244D01*
X114936679Y-83642216D01*
X114842033Y-83478284D01*
X114806661Y-83439000D01*
X118281740Y-83439000D01*
X118301526Y-83627256D01*
X118301527Y-83627259D01*
X118360018Y-83807277D01*
X118360021Y-83807284D01*
X118454667Y-83971216D01*
X118525411Y-84049785D01*
X118581329Y-84111888D01*
X118734465Y-84223148D01*
X118734470Y-84223151D01*
X118907392Y-84300142D01*
X118907397Y-84300144D01*
X119092554Y-84339500D01*
X119092555Y-84339500D01*
X119281844Y-84339500D01*
X119281846Y-84339500D01*
X119467003Y-84300144D01*
X119639930Y-84223151D01*
X119793071Y-84111888D01*
X119919733Y-83971216D01*
X120014379Y-83807284D01*
X120072874Y-83627256D01*
X120079312Y-83566000D01*
X121243140Y-83566000D01*
X121262926Y-83754256D01*
X121262927Y-83754259D01*
X121321418Y-83934277D01*
X121321421Y-83934284D01*
X121416067Y-84098216D01*
X121528557Y-84223148D01*
X121542729Y-84238888D01*
X121695865Y-84350148D01*
X121695870Y-84350151D01*
X121868792Y-84427142D01*
X121868797Y-84427144D01*
X122053954Y-84466500D01*
X122053955Y-84466500D01*
X122243244Y-84466500D01*
X122243246Y-84466500D01*
X122428403Y-84427144D01*
X122601330Y-84350151D01*
X122754471Y-84238888D01*
X122815607Y-84170990D01*
X130614864Y-84170990D01*
X130943499Y-84499624D01*
X131325338Y-84117787D01*
X131337633Y-84105492D01*
X131606000Y-84105492D01*
X131644197Y-84158065D01*
X131690162Y-84173000D01*
X131721838Y-84173000D01*
X131767803Y-84158065D01*
X131806000Y-84105492D01*
X131806000Y-84073000D01*
X132041875Y-84073000D01*
X132086662Y-84117787D01*
X132468500Y-84499624D01*
X132850338Y-84117787D01*
X132862633Y-84105492D01*
X133131000Y-84105492D01*
X133169197Y-84158065D01*
X133215162Y-84173000D01*
X133246838Y-84173000D01*
X133292803Y-84158065D01*
X133331000Y-84105492D01*
X133331000Y-84073000D01*
X133566875Y-84073000D01*
X133611662Y-84117787D01*
X133993500Y-84499624D01*
X133993501Y-84499624D01*
X134322134Y-84170989D01*
X134321410Y-84164570D01*
X134286992Y-84125664D01*
X134276339Y-84056612D01*
X134304711Y-83992761D01*
X134321802Y-83977950D01*
X134322133Y-83975008D01*
X133993500Y-83646375D01*
X133566875Y-84073000D01*
X133331000Y-84073000D01*
X133331000Y-84040508D01*
X133292803Y-83987935D01*
X133246838Y-83973000D01*
X133215162Y-83973000D01*
X133169197Y-83987935D01*
X133131000Y-84040508D01*
X133131000Y-84105492D01*
X132862633Y-84105492D01*
X132895124Y-84073000D01*
X132895124Y-84072999D01*
X132468500Y-83646375D01*
X132041875Y-84073000D01*
X131806000Y-84073000D01*
X131806000Y-84040508D01*
X131767803Y-83987935D01*
X131721838Y-83973000D01*
X131690162Y-83973000D01*
X131644197Y-83987935D01*
X131606000Y-84040508D01*
X131606000Y-84105492D01*
X131337633Y-84105492D01*
X131370124Y-84073000D01*
X131370124Y-84072999D01*
X131325338Y-84028213D01*
X130943501Y-83646375D01*
X130943500Y-83646375D01*
X130614864Y-83975008D01*
X130615588Y-83981426D01*
X130650006Y-84020335D01*
X130660657Y-84089388D01*
X130632284Y-84153238D01*
X130615196Y-84168042D01*
X130614864Y-84170990D01*
X122815607Y-84170990D01*
X122881133Y-84098216D01*
X122975779Y-83934284D01*
X123034274Y-83754256D01*
X123054060Y-83566000D01*
X123034274Y-83377744D01*
X123012426Y-83310502D01*
X130201333Y-83310502D01*
X130219939Y-83475640D01*
X130274833Y-83632518D01*
X130278989Y-83639134D01*
X130575132Y-83342992D01*
X130843500Y-83342992D01*
X130881697Y-83395565D01*
X130927662Y-83410500D01*
X130959338Y-83410500D01*
X131005303Y-83395565D01*
X131043500Y-83342992D01*
X131043500Y-83310500D01*
X131279375Y-83310500D01*
X131324162Y-83355287D01*
X131706000Y-83737124D01*
X132087838Y-83355287D01*
X132100133Y-83342992D01*
X132368500Y-83342992D01*
X132406697Y-83395565D01*
X132452662Y-83410500D01*
X132484338Y-83410500D01*
X132530303Y-83395565D01*
X132568500Y-83342992D01*
X132568500Y-83310500D01*
X132804375Y-83310500D01*
X132849162Y-83355287D01*
X133231000Y-83737124D01*
X133612838Y-83355287D01*
X133625133Y-83342992D01*
X133893500Y-83342992D01*
X133931697Y-83395565D01*
X133977662Y-83410500D01*
X134009338Y-83410500D01*
X134055303Y-83395565D01*
X134093500Y-83342992D01*
X134093500Y-83310500D01*
X134329375Y-83310500D01*
X134658008Y-83639133D01*
X134662167Y-83632515D01*
X134717060Y-83475640D01*
X134735667Y-83310502D01*
X134735667Y-83310497D01*
X134717060Y-83145357D01*
X134662170Y-82988489D01*
X134662168Y-82988486D01*
X134658008Y-82981864D01*
X134329375Y-83310499D01*
X134329375Y-83310500D01*
X134093500Y-83310500D01*
X134093500Y-83278008D01*
X134055303Y-83225435D01*
X134009338Y-83210500D01*
X133977662Y-83210500D01*
X133931697Y-83225435D01*
X133893500Y-83278008D01*
X133893500Y-83342992D01*
X133625133Y-83342992D01*
X133657624Y-83310500D01*
X133657624Y-83310499D01*
X133231000Y-82883875D01*
X132804375Y-83310500D01*
X132568500Y-83310500D01*
X132568500Y-83278008D01*
X132530303Y-83225435D01*
X132484338Y-83210500D01*
X132452662Y-83210500D01*
X132406697Y-83225435D01*
X132368500Y-83278008D01*
X132368500Y-83342992D01*
X132100133Y-83342992D01*
X132132624Y-83310500D01*
X132132624Y-83310499D01*
X131706000Y-82883875D01*
X131279375Y-83310500D01*
X131043500Y-83310500D01*
X131043500Y-83278008D01*
X131005303Y-83225435D01*
X130959338Y-83210500D01*
X130927662Y-83210500D01*
X130881697Y-83225435D01*
X130843500Y-83278008D01*
X130843500Y-83342992D01*
X130575132Y-83342992D01*
X130607624Y-83310500D01*
X130607624Y-83310499D01*
X130278990Y-82981864D01*
X130278989Y-82981864D01*
X130274831Y-82988483D01*
X130219939Y-83145357D01*
X130201333Y-83310497D01*
X130201333Y-83310502D01*
X123012426Y-83310502D01*
X122975779Y-83197716D01*
X122881133Y-83033784D01*
X122754471Y-82893112D01*
X122754470Y-82893111D01*
X122601334Y-82781851D01*
X122601329Y-82781848D01*
X122428407Y-82704857D01*
X122428402Y-82704855D01*
X122282601Y-82673865D01*
X122243246Y-82665500D01*
X122053954Y-82665500D01*
X122021497Y-82672398D01*
X121868797Y-82704855D01*
X121868792Y-82704857D01*
X121695870Y-82781848D01*
X121695865Y-82781851D01*
X121542729Y-82893111D01*
X121416066Y-83033785D01*
X121321421Y-83197715D01*
X121321418Y-83197722D01*
X121262927Y-83377740D01*
X121262926Y-83377744D01*
X121243140Y-83566000D01*
X120079312Y-83566000D01*
X120092660Y-83439000D01*
X120072874Y-83250744D01*
X120014379Y-83070716D01*
X119919733Y-82906784D01*
X119793071Y-82766112D01*
X119793070Y-82766111D01*
X119639934Y-82654851D01*
X119639929Y-82654848D01*
X119620034Y-82645990D01*
X130614864Y-82645990D01*
X130943499Y-82974624D01*
X131325338Y-82592787D01*
X131337632Y-82580492D01*
X131606000Y-82580492D01*
X131644197Y-82633065D01*
X131690162Y-82648000D01*
X131721838Y-82648000D01*
X131767803Y-82633065D01*
X131806000Y-82580492D01*
X131806000Y-82547999D01*
X132041875Y-82547999D01*
X132468500Y-82974624D01*
X132850338Y-82592787D01*
X132862632Y-82580492D01*
X133131000Y-82580492D01*
X133169197Y-82633065D01*
X133215162Y-82648000D01*
X133246838Y-82648000D01*
X133292803Y-82633065D01*
X133331000Y-82580492D01*
X133331000Y-82547999D01*
X133566875Y-82547999D01*
X133993500Y-82974624D01*
X133993501Y-82974624D01*
X134322134Y-82645989D01*
X134315518Y-82641833D01*
X134158640Y-82586939D01*
X134073490Y-82577345D01*
X134009076Y-82550278D01*
X133969521Y-82492683D01*
X133964154Y-82468008D01*
X133954560Y-82382857D01*
X133924168Y-82296001D01*
X157292437Y-82296001D01*
X157312650Y-82527044D01*
X157312651Y-82527051D01*
X157372678Y-82751074D01*
X157372679Y-82751076D01*
X157372680Y-82751079D01*
X157470699Y-82961282D01*
X157602391Y-83149357D01*
X157603730Y-83151269D01*
X157759490Y-83307029D01*
X157792975Y-83368352D01*
X157787991Y-83438044D01*
X157746119Y-83493977D01*
X157697569Y-83513087D01*
X157698168Y-83515620D01*
X157690620Y-83517403D01*
X157555913Y-83567645D01*
X157555906Y-83567649D01*
X157440812Y-83653809D01*
X157440809Y-83653812D01*
X157354649Y-83768906D01*
X157354645Y-83768913D01*
X157304403Y-83903620D01*
X157304401Y-83903627D01*
X157298000Y-83963155D01*
X157298000Y-84586000D01*
X158128148Y-84586000D01*
X158079441Y-84723047D01*
X158069123Y-84873886D01*
X158099884Y-85021915D01*
X158133090Y-85086000D01*
X157298000Y-85086000D01*
X157298000Y-85708844D01*
X157304401Y-85768372D01*
X157304403Y-85768379D01*
X157354645Y-85903086D01*
X157354649Y-85903093D01*
X157440809Y-86018187D01*
X157440812Y-86018190D01*
X157555906Y-86104350D01*
X157555913Y-86104354D01*
X157690620Y-86154596D01*
X157690627Y-86154598D01*
X157750155Y-86160999D01*
X157750172Y-86161000D01*
X158373000Y-86161000D01*
X158373000Y-85327683D01*
X158401819Y-85345209D01*
X158547404Y-85386000D01*
X158660622Y-85386000D01*
X158772783Y-85370584D01*
X158873000Y-85327053D01*
X158873000Y-86161000D01*
X159495828Y-86161000D01*
X159495844Y-86160999D01*
X159555372Y-86154598D01*
X159555379Y-86154596D01*
X159690086Y-86104354D01*
X159690093Y-86104350D01*
X159805187Y-86018190D01*
X159805190Y-86018187D01*
X159891350Y-85903093D01*
X159891354Y-85903086D01*
X159941596Y-85768379D01*
X159941598Y-85768372D01*
X159947999Y-85708844D01*
X159948000Y-85708827D01*
X159948000Y-85086000D01*
X159117852Y-85086000D01*
X159166559Y-84948953D01*
X159176877Y-84798114D01*
X159146116Y-84650085D01*
X159112910Y-84586000D01*
X159948000Y-84586000D01*
X159948000Y-83963172D01*
X159947999Y-83963155D01*
X159941598Y-83903627D01*
X159941596Y-83903620D01*
X159891354Y-83768913D01*
X159891350Y-83768906D01*
X159805190Y-83653812D01*
X159805187Y-83653809D01*
X159690093Y-83567649D01*
X159690086Y-83567645D01*
X159555379Y-83517403D01*
X159547832Y-83515620D01*
X159548486Y-83512848D01*
X159496360Y-83491243D01*
X159456526Y-83433841D01*
X159454049Y-83364015D01*
X159486506Y-83307032D01*
X159642270Y-83151269D01*
X159775301Y-82961282D01*
X159873320Y-82751079D01*
X159933349Y-82527050D01*
X159953563Y-82296000D01*
X159949932Y-82254502D01*
X159940015Y-82141142D01*
X159933349Y-82064950D01*
X159873320Y-81840921D01*
X159775301Y-81630719D01*
X159775299Y-81630716D01*
X159775298Y-81630714D01*
X159642273Y-81440735D01*
X159642268Y-81440729D01*
X159478269Y-81276730D01*
X159472334Y-81272574D01*
X159288282Y-81143699D01*
X159276878Y-81138381D01*
X159224440Y-81092210D01*
X159205288Y-81025016D01*
X159225504Y-80958135D01*
X159276878Y-80913618D01*
X159288282Y-80908301D01*
X159478269Y-80775270D01*
X159642270Y-80611269D01*
X159775301Y-80421282D01*
X159873320Y-80211079D01*
X159933349Y-79987050D01*
X159953563Y-79756000D01*
X159951444Y-79731785D01*
X159943565Y-79641722D01*
X159933349Y-79524950D01*
X159873320Y-79300921D01*
X159775301Y-79090719D01*
X159775299Y-79090716D01*
X159775298Y-79090714D01*
X159642273Y-78900735D01*
X159642268Y-78900729D01*
X159478269Y-78736730D01*
X159464769Y-78727277D01*
X159288282Y-78603699D01*
X159078079Y-78505680D01*
X159078076Y-78505679D01*
X159078074Y-78505678D01*
X158854051Y-78445651D01*
X158854044Y-78445650D01*
X158623002Y-78425437D01*
X158622998Y-78425437D01*
X158391955Y-78445650D01*
X158391948Y-78445651D01*
X158167917Y-78505681D01*
X157957718Y-78603699D01*
X157957714Y-78603701D01*
X157767735Y-78736726D01*
X157767729Y-78736731D01*
X157603731Y-78900729D01*
X157603726Y-78900735D01*
X157470701Y-79090714D01*
X157470699Y-79090718D01*
X157372681Y-79300917D01*
X157312651Y-79524948D01*
X157312650Y-79524955D01*
X157292437Y-79755998D01*
X157292437Y-79756001D01*
X157312650Y-79987044D01*
X157312651Y-79987051D01*
X157372678Y-80211074D01*
X157372679Y-80211076D01*
X157372680Y-80211079D01*
X157470699Y-80421282D01*
X157603730Y-80611269D01*
X157767731Y-80775270D01*
X157957718Y-80908301D01*
X157969121Y-80913618D01*
X158021560Y-80959790D01*
X158040712Y-81026984D01*
X158020496Y-81093865D01*
X157969123Y-81138381D01*
X157957720Y-81143698D01*
X157957714Y-81143701D01*
X157767735Y-81276726D01*
X157767729Y-81276731D01*
X157603731Y-81440729D01*
X157603726Y-81440735D01*
X157470701Y-81630714D01*
X157470699Y-81630718D01*
X157372681Y-81840917D01*
X157312651Y-82064948D01*
X157312650Y-82064955D01*
X157292437Y-82295998D01*
X157292437Y-82296001D01*
X133924168Y-82296001D01*
X133899670Y-82225989D01*
X133899668Y-82225986D01*
X133895508Y-82219364D01*
X133566875Y-82547999D01*
X133331000Y-82547999D01*
X133331000Y-82515508D01*
X133292803Y-82462935D01*
X133246838Y-82448000D01*
X133215162Y-82448000D01*
X133169197Y-82462935D01*
X133131000Y-82515508D01*
X133131000Y-82580492D01*
X132862632Y-82580492D01*
X132895124Y-82547999D01*
X132895124Y-82547998D01*
X132566490Y-82219364D01*
X132560066Y-82220088D01*
X132521170Y-82254502D01*
X132452118Y-82265158D01*
X132388266Y-82236791D01*
X132373453Y-82219696D01*
X132370508Y-82219364D01*
X132041875Y-82547999D01*
X131806000Y-82547999D01*
X131806000Y-82515508D01*
X131767803Y-82462935D01*
X131721838Y-82448000D01*
X131690162Y-82448000D01*
X131644197Y-82462935D01*
X131606000Y-82515508D01*
X131606000Y-82580492D01*
X131337632Y-82580492D01*
X131370124Y-82547999D01*
X131370124Y-82547998D01*
X131041490Y-82219364D01*
X131041489Y-82219364D01*
X131037331Y-82225983D01*
X130982439Y-82382857D01*
X130972845Y-82468009D01*
X130945778Y-82532423D01*
X130888183Y-82571978D01*
X130863509Y-82577345D01*
X130778357Y-82586939D01*
X130621483Y-82641831D01*
X130614864Y-82645989D01*
X130614864Y-82645990D01*
X119620034Y-82645990D01*
X119467007Y-82577857D01*
X119467002Y-82577855D01*
X119321201Y-82546865D01*
X119281846Y-82538500D01*
X119092554Y-82538500D01*
X119060097Y-82545398D01*
X118907397Y-82577855D01*
X118907392Y-82577857D01*
X118734470Y-82654848D01*
X118734465Y-82654851D01*
X118581329Y-82766111D01*
X118454666Y-82906785D01*
X118360021Y-83070715D01*
X118360018Y-83070722D01*
X118301527Y-83250740D01*
X118301526Y-83250744D01*
X118281740Y-83439000D01*
X114806661Y-83439000D01*
X114715371Y-83337612D01*
X114715370Y-83337611D01*
X114562234Y-83226351D01*
X114562229Y-83226348D01*
X114389307Y-83149357D01*
X114389302Y-83149355D01*
X114243501Y-83118365D01*
X114204146Y-83110000D01*
X114014854Y-83110000D01*
X113982397Y-83116898D01*
X113829697Y-83149355D01*
X113829692Y-83149357D01*
X113656770Y-83226348D01*
X113656765Y-83226351D01*
X113503629Y-83337611D01*
X113376966Y-83478285D01*
X113282321Y-83642215D01*
X113282318Y-83642222D01*
X113223827Y-83822240D01*
X113223826Y-83822244D01*
X113204040Y-84010500D01*
X98217500Y-84010500D01*
X98217500Y-81280000D01*
X98916540Y-81280000D01*
X98936326Y-81468256D01*
X98936327Y-81468259D01*
X98994818Y-81648277D01*
X98994821Y-81648284D01*
X99089467Y-81812216D01*
X99192369Y-81926500D01*
X99216129Y-81952888D01*
X99369265Y-82064148D01*
X99369270Y-82064151D01*
X99542192Y-82141142D01*
X99542197Y-82141144D01*
X99727354Y-82180500D01*
X99727355Y-82180500D01*
X99916644Y-82180500D01*
X99916646Y-82180500D01*
X100101803Y-82141144D01*
X100274730Y-82064151D01*
X100427871Y-81952888D01*
X100427870Y-81952888D01*
X100433129Y-81949068D01*
X100434066Y-81950358D01*
X100489806Y-81923604D01*
X100559141Y-81932226D01*
X100612809Y-81976964D01*
X100623652Y-81996869D01*
X100626473Y-82003410D01*
X100626474Y-82003412D01*
X100695547Y-82163539D01*
X100799685Y-82303422D01*
X100799686Y-82303423D01*
X100799688Y-82303425D01*
X100871118Y-82363361D01*
X100933275Y-82415517D01*
X101089116Y-82493783D01*
X101258805Y-82534000D01*
X101258807Y-82534000D01*
X101389448Y-82534000D01*
X101389455Y-82534000D01*
X101519211Y-82518834D01*
X101683084Y-82459189D01*
X101738106Y-82423000D01*
X103488540Y-82423000D01*
X103508326Y-82611256D01*
X103508327Y-82611259D01*
X103566818Y-82791277D01*
X103566821Y-82791284D01*
X103661467Y-82955216D01*
X103788129Y-83095888D01*
X103941265Y-83207148D01*
X103941270Y-83207151D01*
X104114192Y-83284142D01*
X104114197Y-83284144D01*
X104299354Y-83323500D01*
X104299355Y-83323500D01*
X104488644Y-83323500D01*
X104488646Y-83323500D01*
X104673803Y-83284144D01*
X104846730Y-83207151D01*
X104999871Y-83095888D01*
X105126533Y-82955216D01*
X105221179Y-82791284D01*
X105279674Y-82611256D01*
X105299460Y-82423000D01*
X105279674Y-82234744D01*
X105221179Y-82054716D01*
X105126533Y-81890784D01*
X104999871Y-81750112D01*
X104999870Y-81750111D01*
X104846734Y-81638851D01*
X104846729Y-81638848D01*
X104673807Y-81561857D01*
X104673802Y-81561855D01*
X104528001Y-81530865D01*
X104488646Y-81522500D01*
X104299354Y-81522500D01*
X104266897Y-81529398D01*
X104114197Y-81561855D01*
X104114192Y-81561857D01*
X103941270Y-81638848D01*
X103941265Y-81638851D01*
X103788129Y-81750111D01*
X103661466Y-81890785D01*
X103566821Y-82054715D01*
X103566818Y-82054722D01*
X103508327Y-82234740D01*
X103508326Y-82234744D01*
X103488540Y-82423000D01*
X101738106Y-82423000D01*
X101828784Y-82363360D01*
X101948458Y-82236513D01*
X102035653Y-82085487D01*
X102085668Y-81918423D01*
X102095808Y-81744329D01*
X102065526Y-81572588D01*
X101996453Y-81412461D01*
X101892315Y-81272578D01*
X101892312Y-81272576D01*
X101892311Y-81272574D01*
X101758725Y-81160483D01*
X101758723Y-81160482D01*
X101602887Y-81082218D01*
X101602885Y-81082217D01*
X101602884Y-81082217D01*
X101433195Y-81042000D01*
X101302545Y-81042000D01*
X101201623Y-81053795D01*
X101172787Y-81057166D01*
X101172785Y-81057167D01*
X101008918Y-81116809D01*
X100899785Y-81188588D01*
X100832957Y-81208980D01*
X100765714Y-81190006D01*
X100719403Y-81137689D01*
X100708326Y-81097949D01*
X100707674Y-81091744D01*
X100649179Y-80911716D01*
X100554533Y-80747784D01*
X100427871Y-80607112D01*
X100427870Y-80607111D01*
X100274734Y-80495851D01*
X100274729Y-80495848D01*
X100101807Y-80418857D01*
X100101802Y-80418855D01*
X99956001Y-80387865D01*
X99916646Y-80379500D01*
X99727354Y-80379500D01*
X99694897Y-80386398D01*
X99542197Y-80418855D01*
X99542192Y-80418857D01*
X99369270Y-80495848D01*
X99369265Y-80495851D01*
X99216129Y-80607111D01*
X99089466Y-80747785D01*
X98994821Y-80911715D01*
X98994818Y-80911722D01*
X98939421Y-81082218D01*
X98936326Y-81091744D01*
X98916540Y-81280000D01*
X98217500Y-81280000D01*
X98217500Y-80264000D01*
X103107540Y-80264000D01*
X103127326Y-80452256D01*
X103127327Y-80452259D01*
X103185818Y-80632277D01*
X103185821Y-80632284D01*
X103280467Y-80796216D01*
X103386177Y-80913618D01*
X103407129Y-80936888D01*
X103560265Y-81048148D01*
X103560270Y-81048151D01*
X103733192Y-81125142D01*
X103733197Y-81125144D01*
X103918354Y-81164500D01*
X103918355Y-81164500D01*
X104107644Y-81164500D01*
X104107646Y-81164500D01*
X104292803Y-81125144D01*
X104465730Y-81048151D01*
X104575117Y-80968676D01*
X104640920Y-80945198D01*
X104708974Y-80961023D01*
X104720871Y-80968668D01*
X104826869Y-81045680D01*
X104830270Y-81048151D01*
X105003192Y-81125142D01*
X105003197Y-81125144D01*
X105188354Y-81164500D01*
X105188355Y-81164500D01*
X105377644Y-81164500D01*
X105377646Y-81164500D01*
X105562803Y-81125144D01*
X105735730Y-81048151D01*
X105888871Y-80936888D01*
X106015533Y-80796216D01*
X106110179Y-80632284D01*
X106168674Y-80452256D01*
X106188460Y-80264000D01*
X106168674Y-80075744D01*
X106147312Y-80010000D01*
X113902540Y-80010000D01*
X113922326Y-80198256D01*
X113922327Y-80198259D01*
X113980818Y-80378277D01*
X113980821Y-80378284D01*
X114075467Y-80542216D01*
X114194675Y-80674610D01*
X114202129Y-80682888D01*
X114355265Y-80794148D01*
X114355270Y-80794151D01*
X114528192Y-80871142D01*
X114528193Y-80871142D01*
X114528197Y-80871144D01*
X114705550Y-80908841D01*
X114767032Y-80942033D01*
X114800809Y-81003196D01*
X114803091Y-81043091D01*
X114792517Y-81143701D01*
X114791540Y-81153000D01*
X114811326Y-81341256D01*
X114811327Y-81341259D01*
X114869818Y-81521277D01*
X114869821Y-81521284D01*
X114964467Y-81685216D01*
X115004594Y-81729781D01*
X115091129Y-81825888D01*
X115244265Y-81937148D01*
X115244270Y-81937151D01*
X115417192Y-82014142D01*
X115417197Y-82014144D01*
X115602354Y-82053500D01*
X115602355Y-82053500D01*
X115791644Y-82053500D01*
X115791646Y-82053500D01*
X115976803Y-82014144D01*
X116149730Y-81937151D01*
X116223588Y-81883490D01*
X131377364Y-81883490D01*
X131706000Y-82212124D01*
X131706001Y-82212124D01*
X132034633Y-81883490D01*
X132902364Y-81883490D01*
X133231000Y-82212124D01*
X133231001Y-82212124D01*
X133559634Y-81883489D01*
X133553018Y-81879333D01*
X133396140Y-81824439D01*
X133231003Y-81805833D01*
X133230997Y-81805833D01*
X133065857Y-81824439D01*
X132908983Y-81879331D01*
X132902364Y-81883489D01*
X132902364Y-81883490D01*
X132034633Y-81883490D01*
X132034634Y-81883489D01*
X132028018Y-81879333D01*
X131871140Y-81824439D01*
X131706003Y-81805833D01*
X131705997Y-81805833D01*
X131540857Y-81824439D01*
X131383983Y-81879331D01*
X131377364Y-81883489D01*
X131377364Y-81883490D01*
X116223588Y-81883490D01*
X116302871Y-81825888D01*
X116429533Y-81685216D01*
X116524179Y-81521284D01*
X116582674Y-81341256D01*
X116602460Y-81153000D01*
X116582674Y-80964744D01*
X116524179Y-80784716D01*
X116429533Y-80620784D01*
X116336986Y-80518000D01*
X136762540Y-80518000D01*
X136782326Y-80706256D01*
X136782327Y-80706259D01*
X136840818Y-80886277D01*
X136840821Y-80886284D01*
X136935467Y-81050216D01*
X137034751Y-81160482D01*
X137062129Y-81190888D01*
X137215265Y-81302148D01*
X137215270Y-81302151D01*
X137388192Y-81379142D01*
X137388197Y-81379144D01*
X137573354Y-81418500D01*
X137573355Y-81418500D01*
X137762644Y-81418500D01*
X137762646Y-81418500D01*
X137947803Y-81379144D01*
X138120730Y-81302151D01*
X138273871Y-81190888D01*
X138400533Y-81050216D01*
X138449613Y-80965205D01*
X138500179Y-80916991D01*
X138568786Y-80903767D01*
X138633651Y-80929735D01*
X138664385Y-80965203D01*
X138709353Y-81043091D01*
X138713467Y-81050216D01*
X138840129Y-81190888D01*
X138993265Y-81302148D01*
X138993270Y-81302151D01*
X139166192Y-81379142D01*
X139166197Y-81379144D01*
X139351354Y-81418500D01*
X139351355Y-81418500D01*
X139540644Y-81418500D01*
X139540646Y-81418500D01*
X139725803Y-81379144D01*
X139898730Y-81302151D01*
X140051871Y-81190888D01*
X140178533Y-81050216D01*
X140192514Y-81026000D01*
X148954540Y-81026000D01*
X148974326Y-81214256D01*
X148974327Y-81214259D01*
X149032818Y-81394277D01*
X149032821Y-81394284D01*
X149127467Y-81558216D01*
X149208559Y-81648277D01*
X149254129Y-81698888D01*
X149407265Y-81810148D01*
X149407270Y-81810151D01*
X149580192Y-81887142D01*
X149580197Y-81887144D01*
X149765354Y-81926500D01*
X149765355Y-81926500D01*
X149954644Y-81926500D01*
X149954646Y-81926500D01*
X150139803Y-81887144D01*
X150312730Y-81810151D01*
X150465871Y-81698888D01*
X150592533Y-81558216D01*
X150687179Y-81394284D01*
X150745674Y-81214256D01*
X150765460Y-81026000D01*
X150745674Y-80837744D01*
X150687179Y-80657716D01*
X150592533Y-80493784D01*
X150465871Y-80353112D01*
X150433708Y-80329744D01*
X150312734Y-80241851D01*
X150312729Y-80241848D01*
X150139807Y-80164857D01*
X150139802Y-80164855D01*
X149986318Y-80132232D01*
X149954646Y-80125500D01*
X149765354Y-80125500D01*
X149733682Y-80132232D01*
X149580197Y-80164855D01*
X149580192Y-80164857D01*
X149407270Y-80241848D01*
X149407265Y-80241851D01*
X149254129Y-80353111D01*
X149127466Y-80493785D01*
X149032821Y-80657715D01*
X149032818Y-80657722D01*
X148988491Y-80794148D01*
X148974326Y-80837744D01*
X148954540Y-81026000D01*
X140192514Y-81026000D01*
X140273179Y-80886284D01*
X140331674Y-80706256D01*
X140351460Y-80518000D01*
X140331674Y-80329744D01*
X140273179Y-80149716D01*
X140178533Y-79985784D01*
X140051871Y-79845112D01*
X140019708Y-79821744D01*
X139898734Y-79733851D01*
X139898729Y-79733848D01*
X139725807Y-79656857D01*
X139725802Y-79656855D01*
X139580001Y-79625865D01*
X139540646Y-79617500D01*
X139351354Y-79617500D01*
X139318897Y-79624398D01*
X139166197Y-79656855D01*
X139166192Y-79656857D01*
X138993270Y-79733848D01*
X138993265Y-79733851D01*
X138840129Y-79845111D01*
X138713466Y-79985785D01*
X138664387Y-80070793D01*
X138613820Y-80119008D01*
X138545213Y-80132232D01*
X138480349Y-80106264D01*
X138449613Y-80070793D01*
X138414514Y-80010000D01*
X138400533Y-79985784D01*
X138273871Y-79845112D01*
X138241708Y-79821744D01*
X138120734Y-79733851D01*
X138120729Y-79733848D01*
X137947807Y-79656857D01*
X137947802Y-79656855D01*
X137802001Y-79625865D01*
X137762646Y-79617500D01*
X137573354Y-79617500D01*
X137540897Y-79624398D01*
X137388197Y-79656855D01*
X137388192Y-79656857D01*
X137215270Y-79733848D01*
X137215265Y-79733851D01*
X137062129Y-79845111D01*
X136935466Y-79985785D01*
X136840821Y-80149715D01*
X136840818Y-80149722D01*
X136794636Y-80291857D01*
X136782326Y-80329744D01*
X136762540Y-80518000D01*
X116336986Y-80518000D01*
X116302871Y-80480112D01*
X116302870Y-80480111D01*
X116149734Y-80368851D01*
X116149729Y-80368848D01*
X115976807Y-80291857D01*
X115976802Y-80291855D01*
X115799448Y-80254158D01*
X115737966Y-80220966D01*
X115704190Y-80159803D01*
X115701908Y-80119910D01*
X115713460Y-80010000D01*
X115693674Y-79821744D01*
X115635179Y-79641716D01*
X115540533Y-79477784D01*
X115509458Y-79443272D01*
X115479229Y-79380282D01*
X115487854Y-79310947D01*
X115528720Y-79259986D01*
X115667871Y-79158888D01*
X115794533Y-79018216D01*
X115889179Y-78854284D01*
X115947674Y-78674256D01*
X115967460Y-78486000D01*
X115947674Y-78297744D01*
X115889179Y-78117716D01*
X115794533Y-77953784D01*
X115667871Y-77813112D01*
X115667870Y-77813111D01*
X115514734Y-77701851D01*
X115514729Y-77701848D01*
X115341807Y-77624857D01*
X115341802Y-77624855D01*
X115196001Y-77593865D01*
X115156646Y-77585500D01*
X114967354Y-77585500D01*
X114934897Y-77592398D01*
X114782197Y-77624855D01*
X114782192Y-77624857D01*
X114609270Y-77701848D01*
X114609265Y-77701851D01*
X114456129Y-77813111D01*
X114329466Y-77953785D01*
X114234821Y-78117715D01*
X114234818Y-78117722D01*
X114176327Y-78297740D01*
X114176326Y-78297744D01*
X114156540Y-78486000D01*
X114176326Y-78674256D01*
X114176327Y-78674259D01*
X114234818Y-78854277D01*
X114234821Y-78854284D01*
X114329467Y-79018216D01*
X114359330Y-79051382D01*
X114360540Y-79052726D01*
X114390770Y-79115717D01*
X114382145Y-79185053D01*
X114341276Y-79236016D01*
X114202127Y-79337113D01*
X114075466Y-79477785D01*
X113980821Y-79641715D01*
X113980818Y-79641722D01*
X113943687Y-79756001D01*
X113922326Y-79821744D01*
X113902540Y-80010000D01*
X106147312Y-80010000D01*
X106110179Y-79895716D01*
X106015533Y-79731784D01*
X105888871Y-79591112D01*
X105888870Y-79591111D01*
X105735734Y-79479851D01*
X105735729Y-79479848D01*
X105562807Y-79402857D01*
X105562802Y-79402855D01*
X105522729Y-79394338D01*
X105461248Y-79361146D01*
X105427471Y-79299983D01*
X105425190Y-79260084D01*
X105426460Y-79248003D01*
X105426460Y-79248002D01*
X105418531Y-79172562D01*
X105406674Y-79059744D01*
X105348179Y-78879716D01*
X105253533Y-78715784D01*
X105126871Y-78575112D01*
X105126870Y-78575111D01*
X104973734Y-78463851D01*
X104973729Y-78463848D01*
X104800807Y-78386857D01*
X104800802Y-78386855D01*
X104655001Y-78355865D01*
X104615646Y-78347500D01*
X104426354Y-78347500D01*
X104393897Y-78354398D01*
X104241197Y-78386855D01*
X104241192Y-78386857D01*
X104068270Y-78463848D01*
X104068265Y-78463851D01*
X103915129Y-78575111D01*
X103788466Y-78715785D01*
X103693821Y-78879715D01*
X103693818Y-78879722D01*
X103686991Y-78900735D01*
X103635326Y-79059744D01*
X103626560Y-79143148D01*
X103615540Y-79248000D01*
X103626934Y-79356416D01*
X103614364Y-79425145D01*
X103566631Y-79476169D01*
X103565620Y-79476759D01*
X103560271Y-79479847D01*
X103407129Y-79591111D01*
X103280466Y-79731785D01*
X103185821Y-79895715D01*
X103185818Y-79895722D01*
X103127327Y-80075740D01*
X103127326Y-80075744D01*
X103107540Y-80264000D01*
X98217500Y-80264000D01*
X98217500Y-78359000D01*
X98662540Y-78359000D01*
X98682326Y-78547256D01*
X98682327Y-78547259D01*
X98740818Y-78727277D01*
X98740821Y-78727284D01*
X98835467Y-78891216D01*
X98949817Y-79018214D01*
X98962129Y-79031888D01*
X99115265Y-79143148D01*
X99115270Y-79143151D01*
X99288192Y-79220142D01*
X99288197Y-79220144D01*
X99473354Y-79259500D01*
X99473355Y-79259500D01*
X99662644Y-79259500D01*
X99662646Y-79259500D01*
X99847803Y-79220144D01*
X100020730Y-79143151D01*
X100173871Y-79031888D01*
X100300533Y-78891216D01*
X100395179Y-78727284D01*
X100453674Y-78547256D01*
X100473460Y-78359000D01*
X100453674Y-78170744D01*
X100395179Y-77990716D01*
X100300533Y-77826784D01*
X100173871Y-77686112D01*
X100163035Y-77678239D01*
X100120370Y-77622908D01*
X100114392Y-77553294D01*
X100146999Y-77491500D01*
X100207839Y-77457144D01*
X100236583Y-77455546D01*
X100236583Y-77454000D01*
X100374448Y-77454000D01*
X100374455Y-77454000D01*
X100504211Y-77438834D01*
X100668084Y-77379189D01*
X100813784Y-77283360D01*
X100933458Y-77156513D01*
X101020653Y-77005487D01*
X101070668Y-76838423D01*
X101075721Y-76751671D01*
X101611192Y-76751671D01*
X101626487Y-76838418D01*
X101641474Y-76923412D01*
X101710547Y-77083539D01*
X101814685Y-77223422D01*
X101814686Y-77223423D01*
X101814688Y-77223425D01*
X101886118Y-77283361D01*
X101948275Y-77335517D01*
X102104116Y-77413783D01*
X102273805Y-77454000D01*
X102273807Y-77454000D01*
X102404448Y-77454000D01*
X102404455Y-77454000D01*
X102534211Y-77438834D01*
X102698084Y-77379189D01*
X102843784Y-77283360D01*
X102907335Y-77216000D01*
X154796540Y-77216000D01*
X154816326Y-77404256D01*
X154816327Y-77404259D01*
X154874818Y-77584277D01*
X154874821Y-77584284D01*
X154969467Y-77748216D01*
X155040211Y-77826785D01*
X155096129Y-77888888D01*
X155249265Y-78000148D01*
X155249270Y-78000151D01*
X155422192Y-78077142D01*
X155422197Y-78077144D01*
X155607354Y-78116500D01*
X155607355Y-78116500D01*
X155796644Y-78116500D01*
X155796646Y-78116500D01*
X155981803Y-78077144D01*
X156154730Y-78000151D01*
X156307871Y-77888888D01*
X156434533Y-77748216D01*
X156529179Y-77584284D01*
X156587674Y-77404256D01*
X156607460Y-77216000D01*
X157590540Y-77216000D01*
X157610326Y-77404256D01*
X157610327Y-77404259D01*
X157668818Y-77584277D01*
X157668821Y-77584284D01*
X157763467Y-77748216D01*
X157834211Y-77826785D01*
X157890129Y-77888888D01*
X158043265Y-78000148D01*
X158043270Y-78000151D01*
X158216192Y-78077142D01*
X158216197Y-78077144D01*
X158401354Y-78116500D01*
X158401355Y-78116500D01*
X158590644Y-78116500D01*
X158590646Y-78116500D01*
X158775803Y-78077144D01*
X158948730Y-78000151D01*
X159101871Y-77888888D01*
X159228533Y-77748216D01*
X159323179Y-77584284D01*
X159381674Y-77404256D01*
X159401460Y-77216000D01*
X160384540Y-77216000D01*
X160404326Y-77404256D01*
X160404327Y-77404259D01*
X160462818Y-77584277D01*
X160462821Y-77584284D01*
X160557467Y-77748216D01*
X160628211Y-77826785D01*
X160684129Y-77888888D01*
X160837265Y-78000148D01*
X160837270Y-78000151D01*
X161010192Y-78077142D01*
X161010197Y-78077144D01*
X161195354Y-78116500D01*
X161195355Y-78116500D01*
X161384644Y-78116500D01*
X161384646Y-78116500D01*
X161569803Y-78077144D01*
X161742730Y-78000151D01*
X161895871Y-77888888D01*
X162022533Y-77748216D01*
X162117179Y-77584284D01*
X162175674Y-77404256D01*
X162195460Y-77216000D01*
X162175674Y-77027744D01*
X162117179Y-76847716D01*
X162022533Y-76683784D01*
X161895871Y-76543112D01*
X161895870Y-76543111D01*
X161742734Y-76431851D01*
X161742729Y-76431848D01*
X161569807Y-76354857D01*
X161569802Y-76354855D01*
X161424001Y-76323865D01*
X161384646Y-76315500D01*
X161195354Y-76315500D01*
X161162897Y-76322398D01*
X161010197Y-76354855D01*
X161010192Y-76354857D01*
X160837270Y-76431848D01*
X160837265Y-76431851D01*
X160684129Y-76543111D01*
X160557466Y-76683785D01*
X160462821Y-76847715D01*
X160462818Y-76847722D01*
X160411557Y-77005488D01*
X160404326Y-77027744D01*
X160384540Y-77216000D01*
X159401460Y-77216000D01*
X159381674Y-77027744D01*
X159323179Y-76847716D01*
X159228533Y-76683784D01*
X159101871Y-76543112D01*
X159101870Y-76543111D01*
X158948734Y-76431851D01*
X158948729Y-76431848D01*
X158775807Y-76354857D01*
X158775802Y-76354855D01*
X158630001Y-76323865D01*
X158590646Y-76315500D01*
X158401354Y-76315500D01*
X158368897Y-76322398D01*
X158216197Y-76354855D01*
X158216192Y-76354857D01*
X158043270Y-76431848D01*
X158043265Y-76431851D01*
X157890129Y-76543111D01*
X157763466Y-76683785D01*
X157668821Y-76847715D01*
X157668818Y-76847722D01*
X157617557Y-77005488D01*
X157610326Y-77027744D01*
X157590540Y-77216000D01*
X156607460Y-77216000D01*
X156587674Y-77027744D01*
X156529179Y-76847716D01*
X156434533Y-76683784D01*
X156307871Y-76543112D01*
X156307870Y-76543111D01*
X156154734Y-76431851D01*
X156154729Y-76431848D01*
X155981807Y-76354857D01*
X155981802Y-76354855D01*
X155836001Y-76323865D01*
X155796646Y-76315500D01*
X155607354Y-76315500D01*
X155574897Y-76322398D01*
X155422197Y-76354855D01*
X155422192Y-76354857D01*
X155249270Y-76431848D01*
X155249265Y-76431851D01*
X155096129Y-76543111D01*
X154969466Y-76683785D01*
X154874821Y-76847715D01*
X154874818Y-76847722D01*
X154823557Y-77005488D01*
X154816326Y-77027744D01*
X154796540Y-77216000D01*
X102907335Y-77216000D01*
X102963458Y-77156513D01*
X103050653Y-77005487D01*
X103100668Y-76838423D01*
X103110808Y-76664329D01*
X103080526Y-76492588D01*
X103011453Y-76332461D01*
X102907315Y-76192578D01*
X102907312Y-76192576D01*
X102907311Y-76192574D01*
X102773725Y-76080483D01*
X102773723Y-76080482D01*
X102617887Y-76002218D01*
X102617885Y-76002217D01*
X102617884Y-76002217D01*
X102448195Y-75962000D01*
X102317545Y-75962000D01*
X102216623Y-75973795D01*
X102187787Y-75977166D01*
X102187785Y-75977167D01*
X102023917Y-76036810D01*
X102023913Y-76036812D01*
X101878218Y-76132637D01*
X101878217Y-76132638D01*
X101758543Y-76259485D01*
X101758539Y-76259490D01*
X101671347Y-76410511D01*
X101621333Y-76577573D01*
X101621331Y-76577581D01*
X101611192Y-76751670D01*
X101611192Y-76751671D01*
X101075721Y-76751671D01*
X101080808Y-76664329D01*
X101050526Y-76492588D01*
X100981453Y-76332461D01*
X100877315Y-76192578D01*
X100877312Y-76192576D01*
X100877311Y-76192574D01*
X100743725Y-76080483D01*
X100743723Y-76080482D01*
X100587887Y-76002218D01*
X100587885Y-76002217D01*
X100587884Y-76002217D01*
X100418195Y-75962000D01*
X100287545Y-75962000D01*
X100186623Y-75973795D01*
X100157787Y-75977166D01*
X100157785Y-75977167D01*
X99993917Y-76036810D01*
X99993913Y-76036812D01*
X99848218Y-76132637D01*
X99848217Y-76132638D01*
X99728543Y-76259485D01*
X99728539Y-76259490D01*
X99641347Y-76410511D01*
X99591333Y-76577573D01*
X99591331Y-76577581D01*
X99581192Y-76751670D01*
X99581192Y-76751671D01*
X99596487Y-76838418D01*
X99611474Y-76923412D01*
X99680547Y-77083539D01*
X99784685Y-77223422D01*
X99784689Y-77223425D01*
X99820304Y-77253310D01*
X99859006Y-77311481D01*
X99860114Y-77381342D01*
X99823277Y-77440712D01*
X99760190Y-77470741D01*
X99714821Y-77469590D01*
X99662646Y-77458500D01*
X99473354Y-77458500D01*
X99440897Y-77465398D01*
X99288197Y-77497855D01*
X99288192Y-77497857D01*
X99115270Y-77574848D01*
X99115265Y-77574851D01*
X98962129Y-77686111D01*
X98835466Y-77826785D01*
X98740821Y-77990715D01*
X98740818Y-77990722D01*
X98682327Y-78170740D01*
X98682326Y-78170744D01*
X98662540Y-78359000D01*
X98217500Y-78359000D01*
X98217500Y-74803000D01*
X108314540Y-74803000D01*
X108334326Y-74991256D01*
X108334327Y-74991259D01*
X108392818Y-75171277D01*
X108392821Y-75171284D01*
X108487467Y-75335216D01*
X108614129Y-75475888D01*
X108767265Y-75587148D01*
X108767270Y-75587151D01*
X108940192Y-75664142D01*
X108940197Y-75664144D01*
X109125354Y-75703500D01*
X109125355Y-75703500D01*
X109314644Y-75703500D01*
X109314646Y-75703500D01*
X109499803Y-75664144D01*
X109672730Y-75587151D01*
X109825871Y-75475888D01*
X109952533Y-75335216D01*
X110047179Y-75171284D01*
X110105674Y-74991256D01*
X110125460Y-74803000D01*
X110105674Y-74614744D01*
X110047179Y-74434716D01*
X109952533Y-74270784D01*
X109825871Y-74130112D01*
X109825870Y-74130111D01*
X109715783Y-74050128D01*
X109673117Y-73994798D01*
X109667138Y-73925185D01*
X109699744Y-73863390D01*
X109738226Y-73836534D01*
X109799730Y-73809151D01*
X109952871Y-73697888D01*
X110079533Y-73557216D01*
X110174179Y-73393284D01*
X110232674Y-73213256D01*
X110252460Y-73025000D01*
X110232674Y-72836744D01*
X110174179Y-72656716D01*
X110079533Y-72492784D01*
X109952871Y-72352112D01*
X109934729Y-72338931D01*
X109799734Y-72240851D01*
X109799729Y-72240848D01*
X109626807Y-72163857D01*
X109626802Y-72163855D01*
X109481001Y-72132865D01*
X109441646Y-72124500D01*
X109252354Y-72124500D01*
X109219897Y-72131398D01*
X109067197Y-72163855D01*
X109067192Y-72163857D01*
X108894270Y-72240848D01*
X108894265Y-72240851D01*
X108741129Y-72352111D01*
X108614466Y-72492785D01*
X108519821Y-72656715D01*
X108519818Y-72656722D01*
X108494356Y-72735088D01*
X108461326Y-72836744D01*
X108441540Y-73025000D01*
X108461326Y-73213256D01*
X108463292Y-73219309D01*
X108519818Y-73393277D01*
X108519821Y-73393284D01*
X108614467Y-73557216D01*
X108657115Y-73604581D01*
X108741129Y-73697888D01*
X108851216Y-73777871D01*
X108893882Y-73833201D01*
X108899861Y-73902814D01*
X108867255Y-73964609D01*
X108828768Y-73991468D01*
X108767267Y-74018850D01*
X108767265Y-74018851D01*
X108614129Y-74130111D01*
X108487466Y-74270785D01*
X108392821Y-74434715D01*
X108392818Y-74434722D01*
X108334327Y-74614740D01*
X108334326Y-74614744D01*
X108314540Y-74803000D01*
X98217500Y-74803000D01*
X98217500Y-72203763D01*
X99745787Y-72203763D01*
X99775413Y-72473013D01*
X99775415Y-72473024D01*
X99823440Y-72656722D01*
X99843928Y-72735088D01*
X99949870Y-72984390D01*
X100021998Y-73102575D01*
X100090979Y-73215605D01*
X100090986Y-73215615D01*
X100264253Y-73423819D01*
X100264259Y-73423824D01*
X100465998Y-73604582D01*
X100691910Y-73754044D01*
X100937176Y-73869020D01*
X100937183Y-73869022D01*
X100937185Y-73869023D01*
X101196557Y-73947057D01*
X101196564Y-73947058D01*
X101196569Y-73947060D01*
X101464561Y-73986500D01*
X101464566Y-73986500D01*
X101667636Y-73986500D01*
X101719133Y-73982730D01*
X101870156Y-73971677D01*
X102004027Y-73941856D01*
X102134546Y-73912782D01*
X102134548Y-73912781D01*
X102134553Y-73912780D01*
X102387558Y-73816014D01*
X102623777Y-73683441D01*
X102838177Y-73517888D01*
X103026186Y-73322881D01*
X103183799Y-73102579D01*
X103257787Y-72958669D01*
X103307649Y-72861690D01*
X103307651Y-72861684D01*
X103307656Y-72861675D01*
X103395118Y-72605305D01*
X103444319Y-72338933D01*
X103454212Y-72068235D01*
X103424586Y-71798982D01*
X103356072Y-71536912D01*
X103250130Y-71287610D01*
X103109018Y-71056390D01*
X103071471Y-71011272D01*
X102935746Y-70848180D01*
X102935740Y-70848175D01*
X102734002Y-70667418D01*
X102508092Y-70517957D01*
X102504875Y-70516449D01*
X102262824Y-70402980D01*
X102262819Y-70402978D01*
X102262814Y-70402976D01*
X102003442Y-70324942D01*
X102003428Y-70324939D01*
X101887791Y-70307921D01*
X101735439Y-70285500D01*
X101532369Y-70285500D01*
X101532364Y-70285500D01*
X101329844Y-70300323D01*
X101329831Y-70300325D01*
X101065453Y-70359217D01*
X101065446Y-70359220D01*
X100812439Y-70455987D01*
X100576226Y-70588557D01*
X100361822Y-70754112D01*
X100173822Y-70949109D01*
X100173816Y-70949116D01*
X100016202Y-71169419D01*
X100016199Y-71169424D01*
X99892350Y-71410309D01*
X99892343Y-71410327D01*
X99804884Y-71666685D01*
X99804881Y-71666699D01*
X99755681Y-71933068D01*
X99755680Y-71933075D01*
X99745787Y-72203763D01*
X98217500Y-72203763D01*
X98217500Y-70994877D01*
X98217613Y-70991133D01*
X98227149Y-70833481D01*
X98233601Y-70726797D01*
X98234505Y-70719365D01*
X98281901Y-70460739D01*
X98283691Y-70453473D01*
X98361918Y-70202432D01*
X98364569Y-70195445D01*
X98467132Y-69967558D01*
X98472486Y-69955662D01*
X98475956Y-69949049D01*
X98611993Y-69724019D01*
X98616236Y-69717872D01*
X98778406Y-69510877D01*
X98783350Y-69505296D01*
X98969296Y-69319350D01*
X98974877Y-69314406D01*
X99181872Y-69152236D01*
X99188019Y-69147993D01*
X99413049Y-69011956D01*
X99419662Y-69008486D01*
X99659445Y-68900569D01*
X99666432Y-68897918D01*
X99917473Y-68819691D01*
X99924739Y-68817901D01*
X100183365Y-68770505D01*
X100190797Y-68769601D01*
X100391717Y-68757448D01*
X100455134Y-68753613D01*
X100458878Y-68753500D01*
X100504595Y-68753500D01*
X118193500Y-68753500D01*
X118260539Y-68773185D01*
G37*
%TD.AperFunction*%
%TD*%
M02*
