%TF.GenerationSoftware,KiCad,Pcbnew,7.0.9*%
%TF.CreationDate,2024-01-15T17:59:57-05:00*%
%TF.ProjectId,wled-esp32-control-board,776c6564-2d65-4737-9033-322d636f6e74,C*%
%TF.SameCoordinates,Original*%
%TF.FileFunction,Copper,L2,Inr*%
%TF.FilePolarity,Positive*%
%FSLAX46Y46*%
G04 Gerber Fmt 4.6, Leading zero omitted, Abs format (unit mm)*
G04 Created by KiCad (PCBNEW 7.0.9) date 2024-01-15 17:59:57*
%MOMM*%
%LPD*%
G01*
G04 APERTURE LIST*
G04 Aperture macros list*
%AMRoundRect*
0 Rectangle with rounded corners*
0 $1 Rounding radius*
0 $2 $3 $4 $5 $6 $7 $8 $9 X,Y pos of 4 corners*
0 Add a 4 corners polygon primitive as box body*
4,1,4,$2,$3,$4,$5,$6,$7,$8,$9,$2,$3,0*
0 Add four circle primitives for the rounded corners*
1,1,$1+$1,$2,$3*
1,1,$1+$1,$4,$5*
1,1,$1+$1,$6,$7*
1,1,$1+$1,$8,$9*
0 Add four rect primitives between the rounded corners*
20,1,$1+$1,$2,$3,$4,$5,0*
20,1,$1+$1,$4,$5,$6,$7,0*
20,1,$1+$1,$6,$7,$8,$9,0*
20,1,$1+$1,$8,$9,$2,$3,0*%
G04 Aperture macros list end*
%TA.AperFunction,ComponentPad*%
%ADD10O,2.300000X1.200000*%
%TD*%
%TA.AperFunction,ComponentPad*%
%ADD11O,2.000000X1.200000*%
%TD*%
%TA.AperFunction,ComponentPad*%
%ADD12R,1.700000X1.700000*%
%TD*%
%TA.AperFunction,ComponentPad*%
%ADD13O,1.700000X1.700000*%
%TD*%
%TA.AperFunction,ComponentPad*%
%ADD14R,1.650000X1.650000*%
%TD*%
%TA.AperFunction,ComponentPad*%
%ADD15C,1.650000*%
%TD*%
%TA.AperFunction,ComponentPad*%
%ADD16RoundRect,0.250200X-0.649800X-0.649800X0.649800X-0.649800X0.649800X0.649800X-0.649800X0.649800X0*%
%TD*%
%TA.AperFunction,ComponentPad*%
%ADD17C,1.800000*%
%TD*%
%TA.AperFunction,ComponentPad*%
%ADD18C,0.475000*%
%TD*%
%TA.AperFunction,ViaPad*%
%ADD19C,0.800000*%
%TD*%
G04 APERTURE END LIST*
D10*
%TO.N,GND*%
%TO.C,J201*%
X6514000Y21602000D03*
D11*
X2239000Y21602000D03*
D10*
X6514000Y12952000D03*
D11*
X2239000Y12952000D03*
%TD*%
D12*
%TO.N,/LED_PWR*%
%TO.C,SW101*%
X12578000Y10414000D03*
D13*
%TO.N,VCC*%
X10038000Y10414000D03*
%TD*%
D14*
%TO.N,GND*%
%TO.C,J104*%
X38354000Y4191000D03*
D15*
%TO.N,Net-(J104-Pin_2)*%
X40894000Y4191000D03*
%TO.N,/LED_PWR*%
X43434000Y4191000D03*
%TD*%
D16*
%TO.N,/IR_RECV*%
%TO.C,U106*%
X28321000Y3937000D03*
D17*
%TO.N,GND*%
X30861000Y3937000D03*
%TO.N,+3.3V*%
X33401000Y3937000D03*
%TD*%
D14*
%TO.N,GND*%
%TO.C,J102*%
X60706000Y12573000D03*
D15*
%TO.N,Net-(J102-Pin_2)*%
X60706000Y15113000D03*
%TO.N,/LED_PWR*%
X60706000Y17653000D03*
%TD*%
D14*
%TO.N,GND*%
%TO.C,J101*%
X60706000Y23114000D03*
D15*
%TO.N,Net-(J101-Pin_2)*%
X60706000Y25654000D03*
%TO.N,/LED_PWR*%
X60706000Y28194000D03*
%TD*%
D14*
%TO.N,GND*%
%TO.C,J103*%
X48895000Y4191000D03*
D15*
%TO.N,Net-(J103-Pin_2)*%
X51435000Y4191000D03*
%TO.N,/LED_PWR*%
X53975000Y4191000D03*
%TD*%
D18*
%TO.N,GND*%
%TO.C,U103*%
X33026500Y24639500D03*
X33026500Y23114500D03*
X33789000Y25402000D03*
X33789000Y23877000D03*
X33789000Y22352000D03*
X34551500Y24639500D03*
X34551500Y23114500D03*
X35314000Y25402000D03*
X35314000Y23877000D03*
X35314000Y22352000D03*
X36076500Y24639500D03*
X36076500Y23114500D03*
%TD*%
D19*
%TO.N,+3.3V*%
X31877000Y11684000D03*
X17145000Y29464000D03*
%TO.N,GND*%
X15113000Y26162000D03*
X19177000Y30861000D03*
X41529000Y28431503D03*
X46863000Y25146000D03*
X46863000Y27051000D03*
X25019000Y2413000D03*
X10642600Y30886800D03*
X46863000Y13970000D03*
X46863000Y15875000D03*
X7112000Y10922000D03*
X22987000Y30861000D03*
X15367000Y10414000D03*
X1905000Y23622000D03*
X46863000Y21463000D03*
X19177000Y18161000D03*
X46863000Y23368000D03*
X15621000Y2413000D03*
X46863000Y17780000D03*
X24638000Y25400000D03*
X13919200Y12776200D03*
X45720000Y31242000D03*
X29464000Y11557000D03*
X7620000Y31877000D03*
X46863000Y19685000D03*
X11557000Y36576000D03*
X13589000Y18288000D03*
X39776449Y28456952D03*
X9144000Y31877000D03*
X1740500Y28194000D03*
X17145000Y10414000D03*
X5715000Y23876000D03*
X18161000Y17018000D03*
X24638000Y31242000D03*
%TO.N,+5V*%
X51943000Y26924000D03*
X1905000Y26670000D03*
X51943000Y19558000D03*
X6604000Y28702000D03*
X7366000Y27686000D03*
X51943000Y23368000D03*
X18669000Y13208000D03*
X51943000Y16256000D03*
X6096000Y27686000D03*
%TO.N,/EN*%
X23241000Y18415000D03*
X6477000Y25527000D03*
X21270200Y24511000D03*
%TO.N,/IO0*%
X19304000Y6477000D03*
X1651000Y29591000D03*
X24511000Y11811000D03*
X40640000Y16129000D03*
%TO.N,/USB-TTL-AutoProgram/D_P*%
X9017000Y16305900D03*
X9288174Y18270826D03*
%TO.N,VCC*%
X10668000Y14605000D03*
X9525000Y13462000D03*
X10668000Y13462000D03*
X9525000Y20955000D03*
X11811000Y20955000D03*
X9525000Y14605000D03*
X10668000Y20955000D03*
X10668000Y22098000D03*
X9525000Y22098000D03*
%TO.N,/ESP_TX*%
X41529000Y27432000D03*
X17780000Y26797000D03*
X11303000Y33147000D03*
%TO.N,/ESP_RX*%
X11430000Y34925000D03*
X39751000Y27432000D03*
X16891000Y27940000D03*
%TO.N,/USB-TTL-AutoProgram/DTR*%
X16192500Y23939500D03*
X24231600Y24384000D03*
%TO.N,/LED_PWR*%
X46101000Y1270000D03*
X46101000Y4064000D03*
X60579000Y8890000D03*
X63373000Y20320000D03*
X35941000Y4064000D03*
X63373000Y8890000D03*
X60579000Y30734000D03*
X35941000Y6858000D03*
X46101000Y6858000D03*
X60579000Y20320000D03*
X57785000Y30734000D03*
X57785000Y20320000D03*
X35941000Y1270000D03*
X63373000Y30734000D03*
X57785000Y8890000D03*
%TD*%
%TA.AperFunction,Conductor*%
%TO.N,GND*%
G36*
X20343539Y39176815D02*
G01*
X20389294Y39124011D01*
X20400500Y39072500D01*
X20400500Y32444216D01*
X20397437Y32422255D01*
X20396598Y32413208D01*
X20400235Y32373965D01*
X20400500Y32368242D01*
X20400500Y32357157D01*
X20400501Y32357145D01*
X20402536Y32346251D01*
X20403327Y32340585D01*
X20406964Y32301342D01*
X20409443Y32292628D01*
X20412667Y32283011D01*
X20415938Y32274568D01*
X20415939Y32274567D01*
X20436690Y32241052D01*
X20439467Y32236067D01*
X20445442Y32224069D01*
X20457042Y32200772D01*
X20462526Y32193510D01*
X20468957Y32185765D01*
X20475080Y32179049D01*
X20506535Y32155294D01*
X20510943Y32151634D01*
X20511006Y32151577D01*
X20540067Y32125084D01*
X20540068Y32125084D01*
X20540069Y32125083D01*
X20547797Y32120298D01*
X20556580Y32115406D01*
X20564732Y32111347D01*
X20564736Y32111344D01*
X20602660Y32100555D01*
X20608054Y32098747D01*
X20644827Y32084500D01*
X20644829Y32084500D01*
X20653755Y32082831D01*
X20663742Y32081438D01*
X20672792Y32080599D01*
X20672792Y32080600D01*
X20672793Y32080599D01*
X20681847Y32081438D01*
X20712036Y32084235D01*
X20717759Y32084500D01*
X49724785Y32084500D01*
X49746742Y32081438D01*
X49755792Y32080599D01*
X49755792Y32080600D01*
X49755793Y32080599D01*
X49764847Y32081438D01*
X49795036Y32084235D01*
X49800759Y32084500D01*
X49811844Y32084500D01*
X49822757Y32086541D01*
X49828387Y32087327D01*
X49867660Y32090965D01*
X49867665Y32090968D01*
X49876421Y32093459D01*
X49885940Y32096650D01*
X49894431Y32099939D01*
X49894433Y32099939D01*
X49927965Y32120703D01*
X49932919Y32123462D01*
X49968228Y32141042D01*
X49968229Y32141043D01*
X49975523Y32146552D01*
X49983197Y32152924D01*
X49989949Y32159079D01*
X49989949Y32159080D01*
X49989952Y32159081D01*
X50013715Y32190551D01*
X50017341Y32194918D01*
X50043916Y32224067D01*
X50043918Y32224073D01*
X50048721Y32231830D01*
X50053579Y32240552D01*
X50057650Y32248729D01*
X50057656Y32248736D01*
X50068445Y32286662D01*
X50070251Y32292049D01*
X50084500Y32328827D01*
X50084500Y32328830D01*
X50084501Y32328832D01*
X50086172Y32337771D01*
X50087561Y32347724D01*
X50088401Y32356793D01*
X50084765Y32396036D01*
X50084500Y32401759D01*
X50084500Y35746237D01*
X59228787Y35746237D01*
X59258413Y35476987D01*
X59258415Y35476976D01*
X59306440Y35293278D01*
X59326928Y35214912D01*
X59432870Y34965610D01*
X59504998Y34847425D01*
X59573979Y34734395D01*
X59573986Y34734385D01*
X59747253Y34526181D01*
X59747259Y34526176D01*
X59948998Y34345418D01*
X60174910Y34195956D01*
X60420176Y34080980D01*
X60420183Y34080978D01*
X60420185Y34080977D01*
X60679557Y34002943D01*
X60679564Y34002942D01*
X60679569Y34002940D01*
X60947561Y33963500D01*
X60947566Y33963500D01*
X61150636Y33963500D01*
X61202133Y33967270D01*
X61353156Y33978323D01*
X61487027Y34008144D01*
X61617546Y34037218D01*
X61617548Y34037219D01*
X61617553Y34037220D01*
X61870558Y34133986D01*
X62106777Y34266559D01*
X62321177Y34432112D01*
X62509186Y34627119D01*
X62666799Y34847421D01*
X62740787Y34991331D01*
X62790649Y35088310D01*
X62790651Y35088316D01*
X62790656Y35088325D01*
X62878118Y35344695D01*
X62927319Y35611067D01*
X62937212Y35881765D01*
X62907586Y36151018D01*
X62839072Y36413088D01*
X62733130Y36662390D01*
X62592018Y36893610D01*
X62554471Y36938728D01*
X62418746Y37101820D01*
X62418740Y37101825D01*
X62217002Y37282582D01*
X61991092Y37432043D01*
X61987875Y37433551D01*
X61745824Y37547020D01*
X61745819Y37547022D01*
X61745814Y37547024D01*
X61486442Y37625058D01*
X61486428Y37625061D01*
X61370791Y37642079D01*
X61218439Y37664500D01*
X61015369Y37664500D01*
X61015364Y37664500D01*
X60812844Y37649677D01*
X60812831Y37649675D01*
X60548453Y37590783D01*
X60548446Y37590780D01*
X60295439Y37494013D01*
X60059226Y37361443D01*
X59844822Y37195888D01*
X59656822Y37000891D01*
X59656816Y37000884D01*
X59499202Y36780581D01*
X59499199Y36780576D01*
X59375350Y36539691D01*
X59375343Y36539673D01*
X59287884Y36283315D01*
X59287881Y36283301D01*
X59238681Y36016932D01*
X59238680Y36016925D01*
X59228787Y35746237D01*
X50084500Y35746237D01*
X50084500Y39072500D01*
X50104185Y39139539D01*
X50156989Y39185294D01*
X50208500Y39196500D01*
X62353964Y39196500D01*
X62357927Y39196373D01*
X62541079Y39184647D01*
X62623173Y39179390D01*
X62630583Y39178464D01*
X62890135Y39129951D01*
X62897389Y39128135D01*
X63149187Y39048694D01*
X63156176Y39046015D01*
X63396556Y38936805D01*
X63403176Y38933301D01*
X63628651Y38795905D01*
X63634779Y38791643D01*
X63694709Y38744347D01*
X63842046Y38628071D01*
X63847638Y38623082D01*
X63879222Y38591274D01*
X64027379Y38442063D01*
X64033661Y38435737D01*
X64038603Y38430120D01*
X64114007Y38333169D01*
X64200700Y38221702D01*
X64204934Y38215523D01*
X64315696Y38030824D01*
X64340724Y37989090D01*
X64344183Y37982442D01*
X64451683Y37741302D01*
X64454315Y37734286D01*
X64531968Y37481943D01*
X64533736Y37474661D01*
X64580404Y37214806D01*
X64581281Y37207364D01*
X64596395Y36941865D01*
X64596495Y36938120D01*
X64596303Y36884347D01*
X64596500Y36881801D01*
X64596500Y2541878D01*
X64596387Y2538134D01*
X64580398Y2273805D01*
X64579494Y2266366D01*
X64532098Y2007740D01*
X64530305Y2000464D01*
X64452088Y1749453D01*
X64449430Y1742446D01*
X64341519Y1502675D01*
X64338036Y1496039D01*
X64202013Y1271031D01*
X64197756Y1264864D01*
X64035602Y1057889D01*
X64030633Y1052280D01*
X63844720Y866367D01*
X63839111Y861398D01*
X63632136Y699244D01*
X63625969Y694987D01*
X63400961Y558964D01*
X63394325Y555481D01*
X63154554Y447570D01*
X63147547Y444912D01*
X62896536Y366695D01*
X62889260Y364902D01*
X62630634Y317506D01*
X62623195Y316602D01*
X62358866Y300613D01*
X62355122Y300500D01*
X46680252Y300500D01*
X46613213Y320185D01*
X46567458Y372989D01*
X46557514Y442147D01*
X46586539Y505703D01*
X46607367Y524818D01*
X46651690Y557021D01*
X46706871Y597112D01*
X46833533Y737784D01*
X46928179Y901716D01*
X46986674Y1081744D01*
X47006460Y1270000D01*
X46986674Y1458256D01*
X46928179Y1638284D01*
X46833533Y1802216D01*
X46706871Y1942888D01*
X46697110Y1949980D01*
X46553734Y2054149D01*
X46553729Y2054152D01*
X46380807Y2131143D01*
X46380802Y2131145D01*
X46235001Y2162135D01*
X46195646Y2170500D01*
X46006354Y2170500D01*
X45973897Y2163602D01*
X45821197Y2131145D01*
X45821192Y2131143D01*
X45648270Y2054152D01*
X45648265Y2054149D01*
X45495129Y1942889D01*
X45368466Y1802215D01*
X45273821Y1638285D01*
X45273818Y1638278D01*
X45215327Y1458260D01*
X45215326Y1458256D01*
X45195540Y1270000D01*
X45215326Y1081744D01*
X45215327Y1081741D01*
X45273818Y901723D01*
X45273821Y901716D01*
X45368467Y737784D01*
X45407002Y694987D01*
X45495129Y597112D01*
X45594633Y524818D01*
X45637299Y469488D01*
X45643278Y399875D01*
X45610672Y338080D01*
X45549834Y303723D01*
X45521748Y300500D01*
X36520252Y300500D01*
X36453213Y320185D01*
X36407458Y372989D01*
X36397514Y442147D01*
X36426539Y505703D01*
X36447367Y524818D01*
X36491690Y557021D01*
X36546871Y597112D01*
X36673533Y737784D01*
X36768179Y901716D01*
X36826674Y1081744D01*
X36846460Y1270000D01*
X36826674Y1458256D01*
X36768179Y1638284D01*
X36673533Y1802216D01*
X36546871Y1942888D01*
X36537110Y1949980D01*
X36393734Y2054149D01*
X36393729Y2054152D01*
X36220807Y2131143D01*
X36220802Y2131145D01*
X36075001Y2162135D01*
X36035646Y2170500D01*
X35846354Y2170500D01*
X35813897Y2163602D01*
X35661197Y2131145D01*
X35661192Y2131143D01*
X35488270Y2054152D01*
X35488265Y2054149D01*
X35335129Y1942889D01*
X35208466Y1802215D01*
X35113821Y1638285D01*
X35113818Y1638278D01*
X35055327Y1458260D01*
X35055326Y1458256D01*
X35035540Y1270000D01*
X35055326Y1081744D01*
X35055327Y1081741D01*
X35113818Y901723D01*
X35113821Y901716D01*
X35208467Y737784D01*
X35247002Y694987D01*
X35335129Y597112D01*
X35434633Y524818D01*
X35477299Y469488D01*
X35483278Y399875D01*
X35450672Y338080D01*
X35389834Y303723D01*
X35361748Y300500D01*
X2541878Y300500D01*
X2538134Y300613D01*
X2273804Y316602D01*
X2266365Y317506D01*
X2007739Y364902D01*
X2000463Y366695D01*
X1833680Y418666D01*
X1749447Y444914D01*
X1742445Y447570D01*
X1502674Y555481D01*
X1496038Y558964D01*
X1271030Y694987D01*
X1264863Y699244D01*
X1057888Y861398D01*
X1052287Y866360D01*
X866358Y1052289D01*
X861397Y1057889D01*
X699243Y1264864D01*
X694986Y1271031D01*
X581804Y1458256D01*
X558960Y1496044D01*
X555480Y1502675D01*
X447569Y1742446D01*
X444916Y1749439D01*
X366692Y2000470D01*
X364901Y2007740D01*
X317505Y2266366D01*
X316601Y2273805D01*
X314949Y2301112D01*
X300712Y2536501D01*
X300613Y2538134D01*
X300500Y2541878D01*
X300500Y3615237D01*
X1828787Y3615237D01*
X1858413Y3345987D01*
X1858415Y3345976D01*
X1918612Y3115721D01*
X1926928Y3083912D01*
X2032870Y2834610D01*
X2173979Y2603395D01*
X2173986Y2603385D01*
X2347253Y2395181D01*
X2347259Y2395176D01*
X2548998Y2214418D01*
X2774910Y2064956D01*
X3020176Y1949980D01*
X3020183Y1949978D01*
X3020185Y1949977D01*
X3279557Y1871943D01*
X3279564Y1871942D01*
X3279569Y1871940D01*
X3547561Y1832500D01*
X3547566Y1832500D01*
X3750636Y1832500D01*
X3802133Y1836270D01*
X3953156Y1847323D01*
X4065758Y1872407D01*
X4217546Y1906218D01*
X4217548Y1906219D01*
X4217553Y1906220D01*
X4470558Y2002986D01*
X4706777Y2135559D01*
X4921177Y2301112D01*
X5109186Y2496119D01*
X5266799Y2716421D01*
X5362768Y2903082D01*
X5390649Y2957310D01*
X5390651Y2957316D01*
X5390656Y2957325D01*
X5478118Y3213695D01*
X5482453Y3237167D01*
X26920500Y3237167D01*
X26931003Y3134362D01*
X26986202Y2967783D01*
X26986204Y2967778D01*
X27014042Y2922646D01*
X27078330Y2818419D01*
X27202419Y2694330D01*
X27351780Y2602203D01*
X27434771Y2574703D01*
X27518361Y2547004D01*
X27555236Y2543237D01*
X27621174Y2536500D01*
X27621178Y2536500D01*
X29020822Y2536500D01*
X29020826Y2536500D01*
X29123638Y2547004D01*
X29290220Y2602203D01*
X29439581Y2694330D01*
X29563670Y2818419D01*
X29655797Y2967780D01*
X29704819Y3115722D01*
X29734844Y3164399D01*
X30416550Y3846104D01*
X30417327Y3835735D01*
X30466887Y3709459D01*
X30551465Y3603401D01*
X30663547Y3526984D01*
X30771299Y3493747D01*
X30062199Y2784649D01*
X30092650Y2760950D01*
X30296697Y2650524D01*
X30296706Y2650521D01*
X30516139Y2575189D01*
X30744993Y2537000D01*
X30977007Y2537000D01*
X31205860Y2575189D01*
X31425293Y2650521D01*
X31425302Y2650524D01*
X31629350Y2760950D01*
X31659798Y2784649D01*
X30949231Y3495216D01*
X30995138Y3502135D01*
X31117357Y3560993D01*
X31216798Y3653260D01*
X31284625Y3770740D01*
X31302499Y3849054D01*
X32012186Y3139366D01*
X32026892Y3161874D01*
X32080038Y3207231D01*
X32149269Y3216655D01*
X32212605Y3187153D01*
X32234510Y3161874D01*
X32292016Y3073853D01*
X32292019Y3073849D01*
X32292021Y3073847D01*
X32449216Y2903087D01*
X32449219Y2903085D01*
X32449222Y2903082D01*
X32632365Y2760536D01*
X32632371Y2760532D01*
X32632374Y2760530D01*
X32713882Y2716420D01*
X32835652Y2650521D01*
X32836497Y2650064D01*
X32950487Y2610932D01*
X33056015Y2574703D01*
X33056017Y2574703D01*
X33056019Y2574702D01*
X33284951Y2536500D01*
X33284952Y2536500D01*
X33517048Y2536500D01*
X33517049Y2536500D01*
X33745981Y2574702D01*
X33965503Y2650064D01*
X34169626Y2760530D01*
X34352784Y2903087D01*
X34509979Y3073847D01*
X34636924Y3268151D01*
X34730157Y3480700D01*
X34787134Y3705695D01*
X34804274Y3912558D01*
X34829426Y3977738D01*
X34866485Y4004835D01*
X34855779Y4011153D01*
X34977012Y4011153D01*
X35016514Y3989002D01*
X35049306Y3927305D01*
X35051170Y3915278D01*
X35055325Y3875747D01*
X35055326Y3875743D01*
X35113818Y3695723D01*
X35113821Y3695716D01*
X35208467Y3531784D01*
X35335129Y3391112D01*
X35488265Y3279852D01*
X35488270Y3279849D01*
X35661192Y3202858D01*
X35661197Y3202856D01*
X35846354Y3163500D01*
X35846355Y3163500D01*
X36035644Y3163500D01*
X36035646Y3163500D01*
X36220803Y3202856D01*
X36393730Y3279849D01*
X36546871Y3391112D01*
X36673533Y3531784D01*
X36768179Y3695716D01*
X36781243Y3735921D01*
X36787069Y3753853D01*
X36826506Y3811528D01*
X36890865Y3838727D01*
X36959711Y3826813D01*
X37011187Y3779569D01*
X37029000Y3715535D01*
X37029000Y3318156D01*
X37035401Y3258628D01*
X37035403Y3258621D01*
X37085645Y3123914D01*
X37085649Y3123907D01*
X37171809Y3008813D01*
X37171812Y3008810D01*
X37286906Y2922650D01*
X37286913Y2922646D01*
X37421620Y2872404D01*
X37421627Y2872402D01*
X37481155Y2866001D01*
X37481172Y2866000D01*
X38104000Y2866000D01*
X38104000Y3699317D01*
X38132819Y3681791D01*
X38278404Y3641000D01*
X38391622Y3641000D01*
X38503783Y3656416D01*
X38604000Y3699947D01*
X38604000Y2866000D01*
X39226828Y2866000D01*
X39226844Y2866001D01*
X39286372Y2872402D01*
X39286379Y2872404D01*
X39421086Y2922646D01*
X39421093Y2922650D01*
X39536187Y3008810D01*
X39536190Y3008813D01*
X39622350Y3123907D01*
X39622354Y3123914D01*
X39672596Y3258621D01*
X39674380Y3266168D01*
X39677160Y3265512D01*
X39698721Y3317595D01*
X39756104Y3357456D01*
X39825929Y3359965D01*
X39882970Y3327491D01*
X40038731Y3171730D01*
X40228718Y3038699D01*
X40438921Y2940680D01*
X40662950Y2880651D01*
X40827985Y2866213D01*
X40893998Y2860437D01*
X40894000Y2860437D01*
X40894002Y2860437D01*
X40957586Y2866000D01*
X41125050Y2880651D01*
X41349079Y2940680D01*
X41559282Y3038699D01*
X41749269Y3171730D01*
X41913270Y3335731D01*
X42046301Y3525718D01*
X42051618Y3537122D01*
X42097790Y3589560D01*
X42164984Y3608712D01*
X42231865Y3588496D01*
X42276381Y3537122D01*
X42281699Y3525718D01*
X42414730Y3335731D01*
X42578731Y3171730D01*
X42768718Y3038699D01*
X42978921Y2940680D01*
X43202950Y2880651D01*
X43367985Y2866213D01*
X43433998Y2860437D01*
X43434000Y2860437D01*
X43434002Y2860437D01*
X43497586Y2866000D01*
X43665050Y2880651D01*
X43889079Y2940680D01*
X44099282Y3038699D01*
X44289269Y3171730D01*
X44453270Y3335731D01*
X44586301Y3525718D01*
X44684320Y3735921D01*
X44744349Y3959950D01*
X44753452Y4064000D01*
X45195540Y4064000D01*
X45215326Y3875744D01*
X45215327Y3875741D01*
X45273818Y3695723D01*
X45273821Y3695716D01*
X45368467Y3531784D01*
X45495129Y3391112D01*
X45648265Y3279852D01*
X45648270Y3279849D01*
X45821192Y3202858D01*
X45821197Y3202856D01*
X46006354Y3163500D01*
X46006355Y3163500D01*
X46195644Y3163500D01*
X46195646Y3163500D01*
X46380803Y3202856D01*
X46553730Y3279849D01*
X46606455Y3318156D01*
X47570000Y3318156D01*
X47576401Y3258628D01*
X47576403Y3258621D01*
X47626645Y3123914D01*
X47626649Y3123907D01*
X47712809Y3008813D01*
X47712812Y3008810D01*
X47827906Y2922650D01*
X47827913Y2922646D01*
X47962620Y2872404D01*
X47962627Y2872402D01*
X48022155Y2866001D01*
X48022172Y2866000D01*
X48645000Y2866000D01*
X48645000Y3699317D01*
X48673819Y3681791D01*
X48819404Y3641000D01*
X48932622Y3641000D01*
X49044783Y3656416D01*
X49145000Y3699947D01*
X49145000Y2866000D01*
X49767828Y2866000D01*
X49767844Y2866001D01*
X49827372Y2872402D01*
X49827379Y2872404D01*
X49962086Y2922646D01*
X49962093Y2922650D01*
X50077187Y3008810D01*
X50077190Y3008813D01*
X50163350Y3123907D01*
X50163354Y3123914D01*
X50213596Y3258621D01*
X50215380Y3266168D01*
X50218160Y3265512D01*
X50239721Y3317595D01*
X50297104Y3357456D01*
X50366929Y3359965D01*
X50423970Y3327491D01*
X50579731Y3171730D01*
X50769718Y3038699D01*
X50979921Y2940680D01*
X51203950Y2880651D01*
X51368985Y2866213D01*
X51434998Y2860437D01*
X51435000Y2860437D01*
X51435002Y2860437D01*
X51498586Y2866000D01*
X51666050Y2880651D01*
X51890079Y2940680D01*
X52100282Y3038699D01*
X52290269Y3171730D01*
X52454270Y3335731D01*
X52587301Y3525718D01*
X52592618Y3537122D01*
X52638790Y3589560D01*
X52705984Y3608712D01*
X52772865Y3588496D01*
X52817381Y3537122D01*
X52822699Y3525718D01*
X52955730Y3335731D01*
X53119731Y3171730D01*
X53309718Y3038699D01*
X53519921Y2940680D01*
X53743950Y2880651D01*
X53908985Y2866213D01*
X53974998Y2860437D01*
X53975000Y2860437D01*
X53975002Y2860437D01*
X54038586Y2866000D01*
X54206050Y2880651D01*
X54430079Y2940680D01*
X54640282Y3038699D01*
X54830269Y3171730D01*
X54994270Y3335731D01*
X55127301Y3525718D01*
X55169044Y3615237D01*
X59228787Y3615237D01*
X59258413Y3345987D01*
X59258415Y3345976D01*
X59318612Y3115721D01*
X59326928Y3083912D01*
X59432870Y2834610D01*
X59573979Y2603395D01*
X59573986Y2603385D01*
X59747253Y2395181D01*
X59747259Y2395176D01*
X59948998Y2214418D01*
X60174910Y2064956D01*
X60420176Y1949980D01*
X60420183Y1949978D01*
X60420185Y1949977D01*
X60679557Y1871943D01*
X60679564Y1871942D01*
X60679569Y1871940D01*
X60947561Y1832500D01*
X60947566Y1832500D01*
X61150636Y1832500D01*
X61202133Y1836270D01*
X61353156Y1847323D01*
X61465758Y1872407D01*
X61617546Y1906218D01*
X61617548Y1906219D01*
X61617553Y1906220D01*
X61870558Y2002986D01*
X62106777Y2135559D01*
X62321177Y2301112D01*
X62509186Y2496119D01*
X62666799Y2716421D01*
X62762768Y2903082D01*
X62790649Y2957310D01*
X62790651Y2957316D01*
X62790656Y2957325D01*
X62878118Y3213695D01*
X62927319Y3480067D01*
X62937212Y3750765D01*
X62907586Y4020018D01*
X62839072Y4282088D01*
X62733130Y4531390D01*
X62592018Y4762610D01*
X62566307Y4793505D01*
X62418746Y4970820D01*
X62418740Y4970825D01*
X62217002Y5151582D01*
X61991092Y5301043D01*
X61935727Y5326997D01*
X61745824Y5416020D01*
X61745819Y5416022D01*
X61745814Y5416024D01*
X61486442Y5494058D01*
X61486428Y5494061D01*
X61370791Y5511079D01*
X61218439Y5533500D01*
X61015369Y5533500D01*
X61015364Y5533500D01*
X60812844Y5518677D01*
X60812831Y5518675D01*
X60548453Y5459783D01*
X60548446Y5459780D01*
X60295439Y5363013D01*
X60059226Y5230443D01*
X60059224Y5230442D01*
X60059223Y5230441D01*
X60033099Y5210269D01*
X59844822Y5064888D01*
X59656822Y4869891D01*
X59656816Y4869884D01*
X59499202Y4649581D01*
X59499199Y4649576D01*
X59375350Y4408691D01*
X59375343Y4408673D01*
X59287884Y4152315D01*
X59287881Y4152301D01*
X59263449Y4020025D01*
X59248114Y3937000D01*
X59238681Y3885932D01*
X59238680Y3885925D01*
X59228787Y3615237D01*
X55169044Y3615237D01*
X55225320Y3735921D01*
X55285349Y3959950D01*
X55305563Y4191000D01*
X55302248Y4228886D01*
X55297594Y4282088D01*
X55285349Y4422050D01*
X55225320Y4646079D01*
X55127301Y4856281D01*
X55127299Y4856284D01*
X55127298Y4856286D01*
X54994273Y5046265D01*
X54994268Y5046271D01*
X54830269Y5210270D01*
X54830263Y5210274D01*
X54640282Y5343301D01*
X54430079Y5441320D01*
X54430076Y5441321D01*
X54430074Y5441322D01*
X54206051Y5501349D01*
X54206044Y5501350D01*
X53975002Y5521563D01*
X53974998Y5521563D01*
X53743955Y5501350D01*
X53743948Y5501349D01*
X53519917Y5441319D01*
X53309718Y5343301D01*
X53309714Y5343299D01*
X53119735Y5210274D01*
X53119729Y5210269D01*
X52955731Y5046271D01*
X52955726Y5046265D01*
X52822701Y4856286D01*
X52822698Y4856280D01*
X52817381Y4844877D01*
X52771207Y4792438D01*
X52704013Y4773288D01*
X52637133Y4793505D01*
X52592619Y4844877D01*
X52587301Y4856280D01*
X52587298Y4856286D01*
X52454273Y5046265D01*
X52454268Y5046271D01*
X52290269Y5210270D01*
X52290263Y5210274D01*
X52100282Y5343301D01*
X51890079Y5441320D01*
X51890076Y5441321D01*
X51890074Y5441322D01*
X51666051Y5501349D01*
X51666044Y5501350D01*
X51435002Y5521563D01*
X51434998Y5521563D01*
X51203955Y5501350D01*
X51203948Y5501349D01*
X50979917Y5441319D01*
X50769718Y5343301D01*
X50769714Y5343299D01*
X50579735Y5210274D01*
X50423970Y5054509D01*
X50362647Y5021025D01*
X50292955Y5026009D01*
X50237022Y5067881D01*
X50217923Y5116433D01*
X50215380Y5115832D01*
X50213596Y5123380D01*
X50163354Y5258087D01*
X50163350Y5258094D01*
X50077190Y5373188D01*
X50077187Y5373191D01*
X49962093Y5459351D01*
X49962086Y5459355D01*
X49827379Y5509597D01*
X49827372Y5509599D01*
X49767844Y5516000D01*
X49145000Y5516000D01*
X49145000Y4682684D01*
X49116181Y4700209D01*
X48970596Y4741000D01*
X48857378Y4741000D01*
X48745217Y4725584D01*
X48645000Y4682054D01*
X48645000Y5516000D01*
X48022155Y5516000D01*
X47962627Y5509599D01*
X47962620Y5509597D01*
X47827913Y5459355D01*
X47827906Y5459351D01*
X47712812Y5373191D01*
X47712809Y5373188D01*
X47626649Y5258094D01*
X47626645Y5258087D01*
X47576403Y5123380D01*
X47576401Y5123373D01*
X47570000Y5063845D01*
X47570000Y4441000D01*
X48400148Y4441000D01*
X48351441Y4303953D01*
X48341123Y4153114D01*
X48371884Y4005085D01*
X48405090Y3941000D01*
X47570000Y3941000D01*
X47570000Y3318156D01*
X46606455Y3318156D01*
X46706871Y3391112D01*
X46833533Y3531784D01*
X46928179Y3695716D01*
X46986674Y3875744D01*
X47006460Y4064000D01*
X46986674Y4252256D01*
X46928179Y4432284D01*
X46833533Y4596216D01*
X46706871Y4736888D01*
X46703085Y4739639D01*
X46553734Y4848149D01*
X46553729Y4848152D01*
X46380807Y4925143D01*
X46380802Y4925145D01*
X46235001Y4956135D01*
X46195646Y4964500D01*
X46006354Y4964500D01*
X45973897Y4957602D01*
X45821197Y4925145D01*
X45821192Y4925143D01*
X45648270Y4848152D01*
X45648265Y4848149D01*
X45495129Y4736889D01*
X45368466Y4596215D01*
X45273821Y4432285D01*
X45273818Y4432278D01*
X45227501Y4289728D01*
X45215326Y4252256D01*
X45195540Y4064000D01*
X44753452Y4064000D01*
X44764563Y4191000D01*
X44761248Y4228886D01*
X44756594Y4282088D01*
X44744349Y4422050D01*
X44684320Y4646079D01*
X44586301Y4856281D01*
X44586299Y4856284D01*
X44586298Y4856286D01*
X44453273Y5046265D01*
X44453268Y5046271D01*
X44289269Y5210270D01*
X44289263Y5210274D01*
X44099282Y5343301D01*
X43889079Y5441320D01*
X43889076Y5441321D01*
X43889074Y5441322D01*
X43665051Y5501349D01*
X43665044Y5501350D01*
X43434002Y5521563D01*
X43433998Y5521563D01*
X43202955Y5501350D01*
X43202948Y5501349D01*
X42978917Y5441319D01*
X42768718Y5343301D01*
X42768714Y5343299D01*
X42578735Y5210274D01*
X42578729Y5210269D01*
X42414731Y5046271D01*
X42414726Y5046265D01*
X42281701Y4856286D01*
X42281698Y4856280D01*
X42276381Y4844877D01*
X42230207Y4792438D01*
X42163013Y4773288D01*
X42096133Y4793505D01*
X42051619Y4844877D01*
X42046301Y4856280D01*
X42046298Y4856286D01*
X41913273Y5046265D01*
X41913268Y5046271D01*
X41749269Y5210270D01*
X41749263Y5210274D01*
X41559282Y5343301D01*
X41349079Y5441320D01*
X41349076Y5441321D01*
X41349074Y5441322D01*
X41125051Y5501349D01*
X41125044Y5501350D01*
X40894002Y5521563D01*
X40893998Y5521563D01*
X40662955Y5501350D01*
X40662948Y5501349D01*
X40438917Y5441319D01*
X40228718Y5343301D01*
X40228714Y5343299D01*
X40038735Y5210274D01*
X39882970Y5054509D01*
X39821647Y5021025D01*
X39751955Y5026009D01*
X39696022Y5067881D01*
X39676923Y5116433D01*
X39674380Y5115832D01*
X39672596Y5123380D01*
X39622354Y5258087D01*
X39622350Y5258094D01*
X39536190Y5373188D01*
X39536187Y5373191D01*
X39421093Y5459351D01*
X39421086Y5459355D01*
X39286379Y5509597D01*
X39286372Y5509599D01*
X39226844Y5516000D01*
X38604000Y5516000D01*
X38604000Y4682684D01*
X38575181Y4700209D01*
X38429596Y4741000D01*
X38316378Y4741000D01*
X38204217Y4725584D01*
X38104000Y4682054D01*
X38104000Y5516000D01*
X37481155Y5516000D01*
X37421627Y5509599D01*
X37421620Y5509597D01*
X37286913Y5459355D01*
X37286906Y5459351D01*
X37171812Y5373191D01*
X37171809Y5373188D01*
X37085649Y5258094D01*
X37085645Y5258087D01*
X37035403Y5123380D01*
X37035401Y5123373D01*
X37029000Y5063845D01*
X37029000Y4412466D01*
X37009315Y4345427D01*
X36956511Y4299672D01*
X36887353Y4289728D01*
X36823797Y4318753D01*
X36787069Y4374148D01*
X36768181Y4432278D01*
X36768180Y4432279D01*
X36768179Y4432284D01*
X36673533Y4596216D01*
X36546871Y4736888D01*
X36543085Y4739639D01*
X36393734Y4848149D01*
X36393729Y4848152D01*
X36220807Y4925143D01*
X36220802Y4925145D01*
X36075001Y4956135D01*
X36035646Y4964500D01*
X35846354Y4964500D01*
X35813897Y4957602D01*
X35661197Y4925145D01*
X35661192Y4925143D01*
X35488270Y4848152D01*
X35488265Y4848149D01*
X35335129Y4736889D01*
X35208466Y4596215D01*
X35113821Y4432285D01*
X35113818Y4432278D01*
X35067501Y4289728D01*
X35055326Y4252256D01*
X35052870Y4228886D01*
X35039403Y4100754D01*
X35012818Y4036140D01*
X34977012Y4011153D01*
X34855779Y4011153D01*
X34825528Y4029005D01*
X34794105Y4091409D01*
X34792506Y4103464D01*
X34787134Y4168305D01*
X34765874Y4252260D01*
X34730157Y4393301D01*
X34636924Y4605849D01*
X34509983Y4800148D01*
X34509980Y4800151D01*
X34509979Y4800153D01*
X34352784Y4970913D01*
X34352779Y4970917D01*
X34352777Y4970919D01*
X34169634Y5113465D01*
X34169628Y5113469D01*
X33965504Y5223936D01*
X33965495Y5223939D01*
X33745984Y5299298D01*
X33574282Y5327950D01*
X33517049Y5337500D01*
X33284951Y5337500D01*
X33239164Y5329860D01*
X33056015Y5299298D01*
X32836504Y5223939D01*
X32836495Y5223936D01*
X32632371Y5113469D01*
X32632365Y5113465D01*
X32449222Y4970919D01*
X32449219Y4970916D01*
X32449216Y4970914D01*
X32449216Y4970913D01*
X32333193Y4844877D01*
X32292015Y4800146D01*
X32234509Y4712126D01*
X32181363Y4666770D01*
X32112132Y4657346D01*
X32048796Y4686848D01*
X32026892Y4712127D01*
X32012186Y4734636D01*
X31305449Y4027899D01*
X31304673Y4038265D01*
X31255113Y4164541D01*
X31170535Y4270599D01*
X31058453Y4347016D01*
X30950700Y4380253D01*
X31659799Y5089352D01*
X31659799Y5089353D01*
X31629349Y5113051D01*
X31425302Y5223477D01*
X31425293Y5223480D01*
X31205860Y5298812D01*
X30977007Y5337000D01*
X30744993Y5337000D01*
X30516139Y5298812D01*
X30296706Y5223480D01*
X30296698Y5223477D01*
X30092644Y5113048D01*
X30062200Y5089354D01*
X30062200Y5089353D01*
X30772768Y4378785D01*
X30726862Y4371865D01*
X30604643Y4313007D01*
X30505202Y4220740D01*
X30437375Y4103260D01*
X30419500Y4024947D01*
X29734843Y4709604D01*
X29704818Y4758282D01*
X29693500Y4792438D01*
X29655797Y4906220D01*
X29563670Y5055581D01*
X29439581Y5179670D01*
X29346791Y5236903D01*
X29290222Y5271796D01*
X29290217Y5271798D01*
X29123638Y5326997D01*
X29020833Y5337500D01*
X29020826Y5337500D01*
X27621174Y5337500D01*
X27621166Y5337500D01*
X27518361Y5326997D01*
X27351782Y5271798D01*
X27351777Y5271796D01*
X27202417Y5179669D01*
X27078331Y5055583D01*
X26986204Y4906223D01*
X26986202Y4906218D01*
X26931003Y4739639D01*
X26920500Y4636834D01*
X26920500Y3237167D01*
X5482453Y3237167D01*
X5527319Y3480067D01*
X5537212Y3750765D01*
X5507586Y4020018D01*
X5439072Y4282088D01*
X5333130Y4531390D01*
X5192018Y4762610D01*
X5166307Y4793505D01*
X5018746Y4970820D01*
X5018740Y4970825D01*
X4817002Y5151582D01*
X4591092Y5301043D01*
X4535727Y5326997D01*
X4345824Y5416020D01*
X4345819Y5416022D01*
X4345814Y5416024D01*
X4086442Y5494058D01*
X4086428Y5494061D01*
X3970791Y5511079D01*
X3818439Y5533500D01*
X3615369Y5533500D01*
X3615364Y5533500D01*
X3412844Y5518677D01*
X3412831Y5518675D01*
X3148453Y5459783D01*
X3148446Y5459780D01*
X2895439Y5363013D01*
X2659226Y5230443D01*
X2659224Y5230442D01*
X2659223Y5230441D01*
X2633099Y5210269D01*
X2444822Y5064888D01*
X2256822Y4869891D01*
X2256816Y4869884D01*
X2099202Y4649581D01*
X2099199Y4649576D01*
X1975350Y4408691D01*
X1975343Y4408673D01*
X1887884Y4152315D01*
X1887881Y4152301D01*
X1863449Y4020025D01*
X1848114Y3937000D01*
X1838681Y3885932D01*
X1838680Y3885925D01*
X1828787Y3615237D01*
X300500Y3615237D01*
X300500Y6477000D01*
X18398540Y6477000D01*
X18418326Y6288744D01*
X18418327Y6288741D01*
X18476818Y6108723D01*
X18476821Y6108716D01*
X18571467Y5944784D01*
X18698129Y5804112D01*
X18851265Y5692852D01*
X18851270Y5692849D01*
X19024192Y5615858D01*
X19024197Y5615856D01*
X19209354Y5576500D01*
X19209355Y5576500D01*
X19398644Y5576500D01*
X19398646Y5576500D01*
X19583803Y5615856D01*
X19756730Y5692849D01*
X19909871Y5804112D01*
X20036533Y5944784D01*
X20131179Y6108716D01*
X20189674Y6288744D01*
X20209460Y6477000D01*
X20189674Y6665256D01*
X20131179Y6845284D01*
X20123837Y6858000D01*
X35035540Y6858000D01*
X35055326Y6669744D01*
X35055327Y6669741D01*
X35113818Y6489723D01*
X35113821Y6489716D01*
X35208467Y6325784D01*
X35241821Y6288741D01*
X35335129Y6185112D01*
X35488265Y6073852D01*
X35488270Y6073849D01*
X35661192Y5996858D01*
X35661197Y5996856D01*
X35846354Y5957500D01*
X35846355Y5957500D01*
X36035644Y5957500D01*
X36035646Y5957500D01*
X36220803Y5996856D01*
X36393730Y6073849D01*
X36546871Y6185112D01*
X36673533Y6325784D01*
X36768179Y6489716D01*
X36826674Y6669744D01*
X36846460Y6858000D01*
X45195540Y6858000D01*
X45215326Y6669744D01*
X45215327Y6669741D01*
X45273818Y6489723D01*
X45273821Y6489716D01*
X45368467Y6325784D01*
X45401821Y6288741D01*
X45495129Y6185112D01*
X45648265Y6073852D01*
X45648270Y6073849D01*
X45821192Y5996858D01*
X45821197Y5996856D01*
X46006354Y5957500D01*
X46006355Y5957500D01*
X46195644Y5957500D01*
X46195646Y5957500D01*
X46380803Y5996856D01*
X46553730Y6073849D01*
X46706871Y6185112D01*
X46833533Y6325784D01*
X46928179Y6489716D01*
X46986674Y6669744D01*
X47006460Y6858000D01*
X46986674Y7046256D01*
X46928179Y7226284D01*
X46833533Y7390216D01*
X46706871Y7530888D01*
X46706870Y7530889D01*
X46553734Y7642149D01*
X46553729Y7642152D01*
X46380807Y7719143D01*
X46380802Y7719145D01*
X46235001Y7750135D01*
X46195646Y7758500D01*
X46006354Y7758500D01*
X45973897Y7751602D01*
X45821197Y7719145D01*
X45821192Y7719143D01*
X45648270Y7642152D01*
X45648265Y7642149D01*
X45495129Y7530889D01*
X45368466Y7390215D01*
X45273821Y7226285D01*
X45273818Y7226278D01*
X45248998Y7149888D01*
X45215326Y7046256D01*
X45195540Y6858000D01*
X36846460Y6858000D01*
X36826674Y7046256D01*
X36768179Y7226284D01*
X36673533Y7390216D01*
X36546871Y7530888D01*
X36546870Y7530889D01*
X36393734Y7642149D01*
X36393729Y7642152D01*
X36220807Y7719143D01*
X36220802Y7719145D01*
X36075001Y7750135D01*
X36035646Y7758500D01*
X35846354Y7758500D01*
X35813897Y7751602D01*
X35661197Y7719145D01*
X35661192Y7719143D01*
X35488270Y7642152D01*
X35488265Y7642149D01*
X35335129Y7530889D01*
X35208466Y7390215D01*
X35113821Y7226285D01*
X35113818Y7226278D01*
X35088998Y7149888D01*
X35055326Y7046256D01*
X35035540Y6858000D01*
X20123837Y6858000D01*
X20036533Y7009216D01*
X19909871Y7149888D01*
X19909870Y7149889D01*
X19756734Y7261149D01*
X19756729Y7261152D01*
X19583807Y7338143D01*
X19583802Y7338145D01*
X19438001Y7369135D01*
X19398646Y7377500D01*
X19209354Y7377500D01*
X19176897Y7370602D01*
X19024197Y7338145D01*
X19024192Y7338143D01*
X18851270Y7261152D01*
X18851265Y7261149D01*
X18698129Y7149889D01*
X18571466Y7009215D01*
X18476821Y6845285D01*
X18476818Y6845278D01*
X18419784Y6669744D01*
X18418326Y6665256D01*
X18398540Y6477000D01*
X300500Y6477000D01*
X300500Y8890000D01*
X56879540Y8890000D01*
X56899326Y8701744D01*
X56899327Y8701741D01*
X56957818Y8521723D01*
X56957821Y8521716D01*
X57052467Y8357784D01*
X57179129Y8217112D01*
X57332265Y8105852D01*
X57332270Y8105849D01*
X57505192Y8028858D01*
X57505197Y8028856D01*
X57690354Y7989500D01*
X57690355Y7989500D01*
X57879644Y7989500D01*
X57879646Y7989500D01*
X58064803Y8028856D01*
X58237730Y8105849D01*
X58390871Y8217112D01*
X58517533Y8357784D01*
X58612179Y8521716D01*
X58670674Y8701744D01*
X58690460Y8890000D01*
X59673540Y8890000D01*
X59693326Y8701744D01*
X59693327Y8701741D01*
X59751818Y8521723D01*
X59751821Y8521716D01*
X59846467Y8357784D01*
X59973129Y8217112D01*
X60126265Y8105852D01*
X60126270Y8105849D01*
X60299192Y8028858D01*
X60299197Y8028856D01*
X60484354Y7989500D01*
X60484355Y7989500D01*
X60673644Y7989500D01*
X60673646Y7989500D01*
X60858803Y8028856D01*
X61031730Y8105849D01*
X61184871Y8217112D01*
X61311533Y8357784D01*
X61406179Y8521716D01*
X61464674Y8701744D01*
X61484460Y8890000D01*
X62467540Y8890000D01*
X62487326Y8701744D01*
X62487327Y8701741D01*
X62545818Y8521723D01*
X62545821Y8521716D01*
X62640467Y8357784D01*
X62767129Y8217112D01*
X62920265Y8105852D01*
X62920270Y8105849D01*
X63093192Y8028858D01*
X63093197Y8028856D01*
X63278354Y7989500D01*
X63278355Y7989500D01*
X63467644Y7989500D01*
X63467646Y7989500D01*
X63652803Y8028856D01*
X63825730Y8105849D01*
X63978871Y8217112D01*
X64105533Y8357784D01*
X64200179Y8521716D01*
X64258674Y8701744D01*
X64278460Y8890000D01*
X64258674Y9078256D01*
X64200179Y9258284D01*
X64105533Y9422216D01*
X63978871Y9562888D01*
X63978870Y9562889D01*
X63825734Y9674149D01*
X63825729Y9674152D01*
X63652807Y9751143D01*
X63652802Y9751145D01*
X63507001Y9782135D01*
X63467646Y9790500D01*
X63278354Y9790500D01*
X63245897Y9783602D01*
X63093197Y9751145D01*
X63093192Y9751143D01*
X62920270Y9674152D01*
X62920265Y9674149D01*
X62767129Y9562889D01*
X62640466Y9422215D01*
X62545821Y9258285D01*
X62545818Y9258278D01*
X62500955Y9120203D01*
X62487326Y9078256D01*
X62467540Y8890000D01*
X61484460Y8890000D01*
X61464674Y9078256D01*
X61406179Y9258284D01*
X61311533Y9422216D01*
X61184871Y9562888D01*
X61184870Y9562889D01*
X61031734Y9674149D01*
X61031729Y9674152D01*
X60858807Y9751143D01*
X60858802Y9751145D01*
X60713001Y9782135D01*
X60673646Y9790500D01*
X60484354Y9790500D01*
X60451897Y9783602D01*
X60299197Y9751145D01*
X60299192Y9751143D01*
X60126270Y9674152D01*
X60126265Y9674149D01*
X59973129Y9562889D01*
X59846466Y9422215D01*
X59751821Y9258285D01*
X59751818Y9258278D01*
X59706955Y9120203D01*
X59693326Y9078256D01*
X59673540Y8890000D01*
X58690460Y8890000D01*
X58670674Y9078256D01*
X58612179Y9258284D01*
X58517533Y9422216D01*
X58390871Y9562888D01*
X58390870Y9562889D01*
X58237734Y9674149D01*
X58237729Y9674152D01*
X58064807Y9751143D01*
X58064802Y9751145D01*
X57919001Y9782135D01*
X57879646Y9790500D01*
X57690354Y9790500D01*
X57657897Y9783602D01*
X57505197Y9751145D01*
X57505192Y9751143D01*
X57332270Y9674152D01*
X57332265Y9674149D01*
X57179129Y9562889D01*
X57052466Y9422215D01*
X56957821Y9258285D01*
X56957818Y9258278D01*
X56912955Y9120203D01*
X56899326Y9078256D01*
X56879540Y8890000D01*
X300500Y8890000D01*
X300500Y10414000D01*
X8682341Y10414000D01*
X8702936Y10178597D01*
X8702938Y10178587D01*
X8764094Y9950345D01*
X8764096Y9950341D01*
X8764097Y9950337D01*
X8856983Y9751143D01*
X8863965Y9736170D01*
X8863967Y9736166D01*
X8972281Y9581479D01*
X8999505Y9542599D01*
X9166599Y9375505D01*
X9263384Y9307735D01*
X9360165Y9239968D01*
X9360167Y9239967D01*
X9360170Y9239965D01*
X9574337Y9140097D01*
X9802592Y9078937D01*
X9979034Y9063500D01*
X10037999Y9058341D01*
X10038000Y9058341D01*
X10038001Y9058341D01*
X10096966Y9063500D01*
X10273408Y9078937D01*
X10501663Y9140097D01*
X10715830Y9239965D01*
X10909401Y9375505D01*
X11031329Y9497434D01*
X11092648Y9530916D01*
X11162340Y9525932D01*
X11218274Y9484061D01*
X11235189Y9453083D01*
X11284202Y9321672D01*
X11284206Y9321665D01*
X11370452Y9206456D01*
X11370455Y9206453D01*
X11485664Y9120207D01*
X11485671Y9120203D01*
X11620517Y9069909D01*
X11620516Y9069909D01*
X11627444Y9069165D01*
X11680127Y9063500D01*
X13475872Y9063501D01*
X13535483Y9069909D01*
X13670331Y9120204D01*
X13785546Y9206454D01*
X13871796Y9321669D01*
X13922091Y9456517D01*
X13928500Y9516127D01*
X13928499Y11311872D01*
X13922091Y11371483D01*
X13920810Y11374917D01*
X13871797Y11506329D01*
X13871793Y11506336D01*
X13785547Y11621545D01*
X13785544Y11621548D01*
X13670335Y11707794D01*
X13670328Y11707798D01*
X13535482Y11758092D01*
X13535483Y11758092D01*
X13475883Y11764499D01*
X13475881Y11764500D01*
X13475873Y11764500D01*
X13475864Y11764500D01*
X11680129Y11764500D01*
X11680123Y11764499D01*
X11620516Y11758092D01*
X11485671Y11707798D01*
X11485664Y11707794D01*
X11370455Y11621548D01*
X11370452Y11621545D01*
X11284206Y11506336D01*
X11284203Y11506331D01*
X11235189Y11374917D01*
X11193317Y11318984D01*
X11127853Y11294567D01*
X11059580Y11309419D01*
X11031326Y11330570D01*
X10909402Y11452494D01*
X10909395Y11452499D01*
X10715834Y11588033D01*
X10715830Y11588035D01*
X10715828Y11588036D01*
X10501663Y11687903D01*
X10501659Y11687904D01*
X10501655Y11687906D01*
X10273413Y11749062D01*
X10273403Y11749064D01*
X10038001Y11769659D01*
X10037999Y11769659D01*
X9802596Y11749064D01*
X9802586Y11749062D01*
X9574344Y11687906D01*
X9574335Y11687902D01*
X9360171Y11588036D01*
X9360169Y11588035D01*
X9166597Y11452495D01*
X8999505Y11285403D01*
X8863965Y11091831D01*
X8863964Y11091829D01*
X8764098Y10877665D01*
X8764094Y10877656D01*
X8702938Y10649414D01*
X8702936Y10649404D01*
X8682341Y10414001D01*
X8682341Y10414000D01*
X300500Y10414000D01*
X300500Y11811000D01*
X23605540Y11811000D01*
X23625326Y11622744D01*
X23625327Y11622741D01*
X23683818Y11442723D01*
X23683821Y11442716D01*
X23778467Y11278784D01*
X23892817Y11151786D01*
X23905129Y11138112D01*
X24058265Y11026852D01*
X24058270Y11026849D01*
X24231192Y10949858D01*
X24231197Y10949856D01*
X24416354Y10910500D01*
X24416355Y10910500D01*
X24605644Y10910500D01*
X24605646Y10910500D01*
X24790803Y10949856D01*
X24963730Y11026849D01*
X25116871Y11138112D01*
X25243533Y11278784D01*
X25338179Y11442716D01*
X25396674Y11622744D01*
X25403112Y11684000D01*
X30971540Y11684000D01*
X30991326Y11495744D01*
X30991327Y11495741D01*
X31049818Y11315723D01*
X31049821Y11315716D01*
X31144467Y11151784D01*
X31198451Y11091829D01*
X31271129Y11011112D01*
X31424265Y10899852D01*
X31424270Y10899849D01*
X31597192Y10822858D01*
X31597197Y10822856D01*
X31782354Y10783500D01*
X31782355Y10783500D01*
X31971644Y10783500D01*
X31971646Y10783500D01*
X32156803Y10822856D01*
X32329730Y10899849D01*
X32482871Y11011112D01*
X32609533Y11151784D01*
X32704179Y11315716D01*
X32762674Y11495744D01*
X32782460Y11684000D01*
X32762674Y11872256D01*
X32704179Y12052284D01*
X32609533Y12216216D01*
X32482871Y12356888D01*
X32482870Y12356889D01*
X32329734Y12468149D01*
X32329729Y12468152D01*
X32156807Y12545143D01*
X32156802Y12545145D01*
X32011001Y12576135D01*
X31971646Y12584500D01*
X31782354Y12584500D01*
X31749897Y12577602D01*
X31597197Y12545145D01*
X31597192Y12545143D01*
X31424270Y12468152D01*
X31424265Y12468149D01*
X31271129Y12356889D01*
X31144466Y12216215D01*
X31049821Y12052285D01*
X31049818Y12052278D01*
X31023031Y11969834D01*
X30991326Y11872256D01*
X30971540Y11684000D01*
X25403112Y11684000D01*
X25416460Y11811000D01*
X25396674Y11999256D01*
X25338179Y12179284D01*
X25243533Y12343216D01*
X25116871Y12483888D01*
X25104383Y12492961D01*
X24963734Y12595149D01*
X24963729Y12595152D01*
X24790807Y12672143D01*
X24790802Y12672145D01*
X24645001Y12703135D01*
X24605646Y12711500D01*
X24416354Y12711500D01*
X24383897Y12704602D01*
X24231197Y12672145D01*
X24231192Y12672143D01*
X24058270Y12595152D01*
X24058265Y12595149D01*
X23905129Y12483889D01*
X23778466Y12343215D01*
X23683821Y12179285D01*
X23683818Y12179278D01*
X23625327Y11999260D01*
X23625326Y11999256D01*
X23605540Y11811000D01*
X300500Y11811000D01*
X300500Y13202000D01*
X763632Y13202000D01*
X1672889Y13202000D01*
X1633390Y13177543D01*
X1565799Y13088038D01*
X1535105Y12980160D01*
X1545454Y12868479D01*
X1595448Y12768078D01*
X1667931Y12702000D01*
X767742Y12702000D01*
X794770Y12590591D01*
X882040Y12399493D01*
X1003889Y12228381D01*
X1003895Y12228375D01*
X1155932Y12083408D01*
X1332657Y11969834D01*
X1527685Y11891756D01*
X1733962Y11852000D01*
X1989000Y11852000D01*
X1989000Y12652000D01*
X2489000Y12652000D01*
X2489000Y11852000D01*
X2691398Y11852000D01*
X2848122Y11866966D01*
X2848126Y11866967D01*
X3049686Y11926150D01*
X3236414Y12022414D01*
X3401537Y12152269D01*
X3401540Y12152272D01*
X3539105Y12311031D01*
X3539114Y12311042D01*
X3644144Y12492961D01*
X3644147Y12492968D01*
X3712855Y12691483D01*
X3712855Y12691485D01*
X3714368Y12702000D01*
X2805111Y12702000D01*
X2844610Y12726457D01*
X2912201Y12815962D01*
X2942895Y12923840D01*
X2932546Y13035521D01*
X2882552Y13135922D01*
X2810069Y13202000D01*
X3710257Y13202000D01*
X4888632Y13202000D01*
X5797889Y13202000D01*
X5758390Y13177543D01*
X5690799Y13088038D01*
X5660105Y12980160D01*
X5670454Y12868479D01*
X5720448Y12768078D01*
X5792931Y12702000D01*
X4892742Y12702000D01*
X4919770Y12590591D01*
X5007040Y12399493D01*
X5128889Y12228381D01*
X5128895Y12228375D01*
X5280932Y12083408D01*
X5457657Y11969834D01*
X5652685Y11891756D01*
X5858962Y11852000D01*
X6264000Y11852000D01*
X6264000Y12652000D01*
X6764000Y12652000D01*
X6764000Y11852000D01*
X7116398Y11852000D01*
X7273122Y11866966D01*
X7273126Y11866967D01*
X7474686Y11926150D01*
X7661414Y12022414D01*
X7826537Y12152269D01*
X7826540Y12152272D01*
X7964105Y12311031D01*
X7964114Y12311042D01*
X8069144Y12492961D01*
X8069147Y12492968D01*
X8137855Y12691483D01*
X8137855Y12691485D01*
X8139368Y12702000D01*
X7230111Y12702000D01*
X7269610Y12726457D01*
X7337201Y12815962D01*
X7367895Y12923840D01*
X7357546Y13035521D01*
X7307552Y13135922D01*
X7235069Y13202000D01*
X8135257Y13202000D01*
X8108229Y13313410D01*
X8020959Y13504508D01*
X7899110Y13675620D01*
X7899104Y13675626D01*
X7747067Y13820593D01*
X7570342Y13934167D01*
X7375314Y14012245D01*
X7169038Y14052000D01*
X6613500Y14052000D01*
X6546461Y14071685D01*
X6500706Y14124489D01*
X6489500Y14176000D01*
X6489500Y14599659D01*
X6474070Y14711918D01*
X6474070Y14711920D01*
X6443028Y14783385D01*
X6413782Y14850717D01*
X6388373Y14881949D01*
X6318278Y14968108D01*
X6318276Y14968109D01*
X6318275Y14968111D01*
X6194647Y15055377D01*
X6194644Y15055379D01*
X6052058Y15106054D01*
X5901081Y15116381D01*
X5901074Y15116381D01*
X5752921Y15085595D01*
X5752915Y15085592D01*
X5618553Y15015971D01*
X5618552Y15015970D01*
X5618548Y15015968D01*
X5507956Y14912682D01*
X5429329Y14783385D01*
X5429328Y14783383D01*
X5429328Y14783382D01*
X5388500Y14637665D01*
X5388500Y14174342D01*
X5403930Y14062080D01*
X5414809Y14037035D01*
X5415063Y14036450D01*
X5423717Y13967118D01*
X5393513Y13904114D01*
X5368372Y13882735D01*
X5366590Y13881590D01*
X5201462Y13751732D01*
X5201459Y13751729D01*
X5063894Y13592970D01*
X5063885Y13592959D01*
X4958855Y13411040D01*
X4958852Y13411033D01*
X4890144Y13212518D01*
X4890144Y13212516D01*
X4888632Y13202000D01*
X3710257Y13202000D01*
X3683229Y13313410D01*
X3595959Y13504508D01*
X3474110Y13675620D01*
X3474104Y13675626D01*
X3322067Y13820593D01*
X3145342Y13934167D01*
X2950314Y14012245D01*
X2744038Y14052000D01*
X2489000Y14052000D01*
X2489000Y13252000D01*
X1989000Y13252000D01*
X1989000Y14052000D01*
X1786602Y14052000D01*
X1629877Y14037035D01*
X1629873Y14037034D01*
X1428313Y13977851D01*
X1241585Y13881587D01*
X1076462Y13751732D01*
X1076459Y13751729D01*
X938894Y13592970D01*
X938885Y13592959D01*
X833855Y13411040D01*
X833852Y13411033D01*
X765144Y13212518D01*
X765144Y13212516D01*
X763632Y13202000D01*
X300500Y13202000D01*
X300500Y16305900D01*
X8111540Y16305900D01*
X8131326Y16117644D01*
X8131327Y16117641D01*
X8189818Y15937623D01*
X8189821Y15937616D01*
X8284467Y15773684D01*
X8411129Y15633012D01*
X8564265Y15521752D01*
X8564270Y15521749D01*
X8737191Y15444758D01*
X8737193Y15444758D01*
X8737197Y15444756D01*
X8805936Y15430146D01*
X8867415Y15396954D01*
X8901192Y15335792D01*
X8896540Y15266077D01*
X8872303Y15225884D01*
X8792466Y15137216D01*
X8697821Y14973285D01*
X8697818Y14973278D01*
X8668144Y14881949D01*
X8639326Y14793256D01*
X8619540Y14605000D01*
X8639326Y14416744D01*
X8639327Y14416741D01*
X8697818Y14236723D01*
X8697820Y14236719D01*
X8697821Y14236716D01*
X8733833Y14174342D01*
X8779352Y14095499D01*
X8795824Y14027599D01*
X8779352Y13971501D01*
X8697820Y13830282D01*
X8697818Y13830278D01*
X8641718Y13657619D01*
X8639326Y13650256D01*
X8619540Y13462000D01*
X8639326Y13273744D01*
X8639327Y13273741D01*
X8697818Y13093723D01*
X8697821Y13093716D01*
X8792467Y12929784D01*
X8888616Y12823000D01*
X8919129Y12789112D01*
X9072265Y12677852D01*
X9072270Y12677849D01*
X9245192Y12600858D01*
X9245197Y12600856D01*
X9430354Y12561500D01*
X9430355Y12561500D01*
X9619644Y12561500D01*
X9619646Y12561500D01*
X9804803Y12600856D01*
X9920087Y12652185D01*
X9977728Y12677848D01*
X9977728Y12677849D01*
X9977730Y12677849D01*
X10023614Y12711187D01*
X10089421Y12734666D01*
X10157475Y12718841D01*
X10169386Y12711186D01*
X10215271Y12677848D01*
X10388192Y12600858D01*
X10388197Y12600856D01*
X10573354Y12561500D01*
X10573355Y12561500D01*
X10762644Y12561500D01*
X10762646Y12561500D01*
X10947803Y12600856D01*
X11120730Y12677849D01*
X11273871Y12789112D01*
X11400533Y12929784D01*
X11495179Y13093716D01*
X11532312Y13208000D01*
X17763540Y13208000D01*
X17783326Y13019744D01*
X17783327Y13019741D01*
X17841818Y12839723D01*
X17841821Y12839716D01*
X17936467Y12675784D01*
X18018660Y12584500D01*
X18063129Y12535112D01*
X18216265Y12423852D01*
X18216270Y12423849D01*
X18389192Y12346858D01*
X18389197Y12346856D01*
X18574354Y12307500D01*
X18574355Y12307500D01*
X18763644Y12307500D01*
X18763646Y12307500D01*
X18948803Y12346856D01*
X19121730Y12423849D01*
X19274871Y12535112D01*
X19401533Y12675784D01*
X19496179Y12839716D01*
X19554674Y13019744D01*
X19574460Y13208000D01*
X19554674Y13396256D01*
X19496179Y13576284D01*
X19401533Y13740216D01*
X19274871Y13880888D01*
X19272329Y13882735D01*
X19121734Y13992149D01*
X19121729Y13992152D01*
X18948807Y14069143D01*
X18948802Y14069145D01*
X18794358Y14101972D01*
X18763646Y14108500D01*
X18574354Y14108500D01*
X18543642Y14101972D01*
X18389197Y14069145D01*
X18389192Y14069143D01*
X18216270Y13992152D01*
X18216265Y13992149D01*
X18063129Y13880889D01*
X17936466Y13740215D01*
X17841821Y13576285D01*
X17841818Y13576278D01*
X17788127Y13411033D01*
X17783326Y13396256D01*
X17763540Y13208000D01*
X11532312Y13208000D01*
X11553674Y13273744D01*
X11573460Y13462000D01*
X11553674Y13650256D01*
X11495179Y13830284D01*
X11413647Y13971501D01*
X11397175Y14039400D01*
X11413648Y14095500D01*
X11417385Y14101972D01*
X11495179Y14236716D01*
X11553674Y14416744D01*
X11573460Y14605000D01*
X11553674Y14793256D01*
X11495179Y14973284D01*
X11414515Y15112999D01*
X59375437Y15112999D01*
X59395650Y14881956D01*
X59395651Y14881949D01*
X59455678Y14657926D01*
X59455679Y14657924D01*
X59455680Y14657921D01*
X59553699Y14447718D01*
X59686729Y14257733D01*
X59686730Y14257731D01*
X59842490Y14101971D01*
X59875975Y14040648D01*
X59870991Y13970956D01*
X59829119Y13915023D01*
X59780569Y13895913D01*
X59781168Y13893380D01*
X59773620Y13891597D01*
X59638913Y13841355D01*
X59638906Y13841351D01*
X59523812Y13755191D01*
X59523809Y13755188D01*
X59437649Y13640094D01*
X59437645Y13640087D01*
X59387403Y13505380D01*
X59387401Y13505373D01*
X59381000Y13445845D01*
X59381000Y12823000D01*
X60211148Y12823000D01*
X60162441Y12685953D01*
X60152123Y12535114D01*
X60182884Y12387085D01*
X60216090Y12323000D01*
X59381000Y12323000D01*
X59381000Y11700156D01*
X59387401Y11640628D01*
X59387403Y11640621D01*
X59437645Y11505914D01*
X59437649Y11505907D01*
X59523809Y11390813D01*
X59523812Y11390810D01*
X59638906Y11304650D01*
X59638913Y11304646D01*
X59773620Y11254404D01*
X59773627Y11254402D01*
X59833155Y11248001D01*
X59833172Y11248000D01*
X60456000Y11248000D01*
X60456000Y12081317D01*
X60484819Y12063791D01*
X60630404Y12023000D01*
X60743622Y12023000D01*
X60855783Y12038416D01*
X60956000Y12081947D01*
X60956000Y11248000D01*
X61578828Y11248000D01*
X61578844Y11248001D01*
X61638372Y11254402D01*
X61638379Y11254404D01*
X61773086Y11304646D01*
X61773093Y11304650D01*
X61888187Y11390810D01*
X61888190Y11390813D01*
X61974350Y11505907D01*
X61974354Y11505914D01*
X62024596Y11640621D01*
X62024598Y11640628D01*
X62030999Y11700156D01*
X62031000Y11700173D01*
X62031000Y12323000D01*
X61200852Y12323000D01*
X61249559Y12460047D01*
X61259877Y12610886D01*
X61229116Y12758915D01*
X61195910Y12823000D01*
X62031000Y12823000D01*
X62031000Y13445828D01*
X62030999Y13445845D01*
X62024598Y13505373D01*
X62024596Y13505380D01*
X61974354Y13640087D01*
X61974350Y13640094D01*
X61888190Y13755188D01*
X61888187Y13755191D01*
X61773093Y13841351D01*
X61773086Y13841355D01*
X61638379Y13891597D01*
X61630832Y13893380D01*
X61631486Y13896152D01*
X61579360Y13917757D01*
X61539526Y13975159D01*
X61537049Y14044985D01*
X61569506Y14101968D01*
X61725270Y14257731D01*
X61858301Y14447718D01*
X61956320Y14657921D01*
X62016349Y14881950D01*
X62036563Y15113000D01*
X62034444Y15137215D01*
X62026458Y15228500D01*
X62016349Y15344050D01*
X61956320Y15568079D01*
X61858301Y15778281D01*
X61858299Y15778284D01*
X61858298Y15778286D01*
X61725273Y15968265D01*
X61725268Y15968271D01*
X61561269Y16132270D01*
X61561263Y16132274D01*
X61371282Y16265301D01*
X61359878Y16270619D01*
X61307440Y16316790D01*
X61288288Y16383984D01*
X61308504Y16450865D01*
X61359878Y16495382D01*
X61371282Y16500699D01*
X61561269Y16633730D01*
X61725270Y16797731D01*
X61858301Y16987718D01*
X61956320Y17197921D01*
X62016349Y17421950D01*
X62036563Y17653000D01*
X62016349Y17884050D01*
X61956320Y18108079D01*
X61858301Y18318281D01*
X61858299Y18318284D01*
X61858298Y18318286D01*
X61725273Y18508265D01*
X61725268Y18508271D01*
X61561269Y18672270D01*
X61526154Y18696858D01*
X61371282Y18805301D01*
X61161079Y18903320D01*
X61161076Y18903321D01*
X61161074Y18903322D01*
X60937051Y18963349D01*
X60937044Y18963350D01*
X60706002Y18983563D01*
X60705998Y18983563D01*
X60474955Y18963350D01*
X60474948Y18963349D01*
X60250917Y18903319D01*
X60040718Y18805301D01*
X60040714Y18805299D01*
X59850735Y18672274D01*
X59850729Y18672269D01*
X59686731Y18508271D01*
X59686726Y18508265D01*
X59553701Y18318286D01*
X59553699Y18318282D01*
X59455681Y18108083D01*
X59395651Y17884052D01*
X59395650Y17884045D01*
X59375437Y17653002D01*
X59375437Y17652999D01*
X59395650Y17421956D01*
X59395651Y17421949D01*
X59455678Y17197926D01*
X59455679Y17197924D01*
X59455680Y17197921D01*
X59553699Y16987718D01*
X59686730Y16797731D01*
X59850731Y16633730D01*
X60040718Y16500699D01*
X60052121Y16495382D01*
X60104560Y16449210D01*
X60123712Y16382016D01*
X60103496Y16315135D01*
X60052123Y16270619D01*
X60040720Y16265302D01*
X60040714Y16265299D01*
X59850735Y16132274D01*
X59850729Y16132269D01*
X59686731Y15968271D01*
X59686726Y15968265D01*
X59553701Y15778286D01*
X59553699Y15778282D01*
X59455681Y15568083D01*
X59395651Y15344052D01*
X59395650Y15344045D01*
X59375437Y15113002D01*
X59375437Y15112999D01*
X11414515Y15112999D01*
X11400533Y15137216D01*
X11273871Y15277888D01*
X11239500Y15302860D01*
X11120734Y15389149D01*
X11120729Y15389152D01*
X10947807Y15466143D01*
X10947802Y15466145D01*
X10802001Y15497135D01*
X10762646Y15505500D01*
X10573354Y15505500D01*
X10540897Y15498602D01*
X10388197Y15466145D01*
X10388192Y15466143D01*
X10215270Y15389152D01*
X10215266Y15389149D01*
X10169384Y15355814D01*
X10103578Y15332335D01*
X10035524Y15348161D01*
X10023616Y15355814D01*
X9977733Y15389149D01*
X9977729Y15389152D01*
X9804807Y15466143D01*
X9804802Y15466145D01*
X9736065Y15480755D01*
X9674583Y15513947D01*
X9640807Y15575111D01*
X9645459Y15644825D01*
X9669692Y15685013D01*
X9749533Y15773684D01*
X9844179Y15937616D01*
X9902674Y16117644D01*
X9903868Y16129000D01*
X39734540Y16129000D01*
X39754326Y15940744D01*
X39754327Y15940741D01*
X39812818Y15760723D01*
X39812821Y15760716D01*
X39907467Y15596784D01*
X39975029Y15521749D01*
X40034129Y15456112D01*
X40187265Y15344852D01*
X40187270Y15344849D01*
X40360192Y15267858D01*
X40360197Y15267856D01*
X40545354Y15228500D01*
X40545355Y15228500D01*
X40734644Y15228500D01*
X40734646Y15228500D01*
X40919803Y15267856D01*
X41092730Y15344849D01*
X41245871Y15456112D01*
X41372533Y15596784D01*
X41467179Y15760716D01*
X41525674Y15940744D01*
X41545460Y16129000D01*
X41532112Y16256000D01*
X51037540Y16256000D01*
X51057326Y16067744D01*
X51057327Y16067741D01*
X51115818Y15887723D01*
X51115821Y15887716D01*
X51210467Y15723784D01*
X51292199Y15633012D01*
X51337129Y15583112D01*
X51490265Y15471852D01*
X51490270Y15471849D01*
X51663192Y15394858D01*
X51663197Y15394856D01*
X51848354Y15355500D01*
X51848355Y15355500D01*
X52037644Y15355500D01*
X52037646Y15355500D01*
X52222803Y15394856D01*
X52395730Y15471849D01*
X52548871Y15583112D01*
X52675533Y15723784D01*
X52770179Y15887716D01*
X52828674Y16067744D01*
X52848460Y16256000D01*
X52828674Y16444256D01*
X52770179Y16624284D01*
X52675533Y16788216D01*
X52548871Y16928888D01*
X52548870Y16928889D01*
X52395734Y17040149D01*
X52395729Y17040152D01*
X52222807Y17117143D01*
X52222802Y17117145D01*
X52077001Y17148135D01*
X52037646Y17156500D01*
X51848354Y17156500D01*
X51815897Y17149602D01*
X51663197Y17117145D01*
X51663192Y17117143D01*
X51490270Y17040152D01*
X51490265Y17040149D01*
X51337129Y16928889D01*
X51210466Y16788215D01*
X51115821Y16624285D01*
X51115818Y16624278D01*
X51057327Y16444260D01*
X51057326Y16444256D01*
X51037540Y16256000D01*
X41532112Y16256000D01*
X41525674Y16317256D01*
X41467179Y16497284D01*
X41372533Y16661216D01*
X41245871Y16801888D01*
X41196009Y16838115D01*
X41092734Y16913149D01*
X41092729Y16913152D01*
X40919807Y16990143D01*
X40919802Y16990145D01*
X40774001Y17021135D01*
X40734646Y17029500D01*
X40545354Y17029500D01*
X40512897Y17022602D01*
X40360197Y16990145D01*
X40360192Y16990143D01*
X40187270Y16913152D01*
X40187265Y16913149D01*
X40034129Y16801889D01*
X39907466Y16661215D01*
X39812821Y16497285D01*
X39812818Y16497278D01*
X39769293Y16363320D01*
X39754326Y16317256D01*
X39734540Y16129000D01*
X9903868Y16129000D01*
X9922460Y16305900D01*
X9902674Y16494156D01*
X9844179Y16674184D01*
X9749533Y16838116D01*
X9622871Y16978788D01*
X9610580Y16987718D01*
X9469734Y17090049D01*
X9469729Y17090052D01*
X9364195Y17137039D01*
X9310958Y17182289D01*
X9290637Y17249138D01*
X9309683Y17316362D01*
X9362049Y17362617D01*
X9388847Y17371608D01*
X9567977Y17409682D01*
X9740904Y17486675D01*
X9894045Y17597938D01*
X10020707Y17738610D01*
X10115353Y17902542D01*
X10173848Y18082570D01*
X10193634Y18270826D01*
X10178481Y18415000D01*
X22335540Y18415000D01*
X22355326Y18226744D01*
X22355327Y18226741D01*
X22413818Y18046723D01*
X22413821Y18046716D01*
X22508467Y17882784D01*
X22635129Y17742112D01*
X22788265Y17630852D01*
X22788270Y17630849D01*
X22961192Y17553858D01*
X22961197Y17553856D01*
X23146354Y17514500D01*
X23146355Y17514500D01*
X23335644Y17514500D01*
X23335646Y17514500D01*
X23520803Y17553856D01*
X23693730Y17630849D01*
X23846871Y17742112D01*
X23973533Y17882784D01*
X24068179Y18046716D01*
X24126674Y18226744D01*
X24146460Y18415000D01*
X24126674Y18603256D01*
X24068179Y18783284D01*
X23973533Y18947216D01*
X23846871Y19087888D01*
X23846870Y19087889D01*
X23693734Y19199149D01*
X23693729Y19199152D01*
X23520807Y19276143D01*
X23520802Y19276145D01*
X23375001Y19307135D01*
X23335646Y19315500D01*
X23146354Y19315500D01*
X23113897Y19308602D01*
X22961197Y19276145D01*
X22961192Y19276143D01*
X22788270Y19199152D01*
X22788265Y19199149D01*
X22635129Y19087889D01*
X22508466Y18947215D01*
X22413821Y18783285D01*
X22413818Y18783278D01*
X22355327Y18603260D01*
X22355326Y18603256D01*
X22335540Y18415000D01*
X10178481Y18415000D01*
X10173848Y18459082D01*
X10115353Y18639110D01*
X10020707Y18803042D01*
X9894045Y18943714D01*
X9894044Y18943715D01*
X9740908Y19054975D01*
X9740903Y19054978D01*
X9567981Y19131969D01*
X9567976Y19131971D01*
X9422175Y19162961D01*
X9382820Y19171326D01*
X9193528Y19171326D01*
X9161071Y19164428D01*
X9008371Y19131971D01*
X9008366Y19131969D01*
X8835444Y19054978D01*
X8835439Y19054975D01*
X8682303Y18943715D01*
X8555640Y18803041D01*
X8460995Y18639111D01*
X8460992Y18639104D01*
X8402501Y18459086D01*
X8402500Y18459082D01*
X8382714Y18270826D01*
X8402500Y18082570D01*
X8402501Y18082567D01*
X8460992Y17902549D01*
X8460995Y17902542D01*
X8555641Y17738610D01*
X8682303Y17597938D01*
X8835444Y17486675D01*
X8940981Y17439687D01*
X8994215Y17394438D01*
X9014536Y17327589D01*
X8995491Y17260365D01*
X8943125Y17214110D01*
X8916323Y17205119D01*
X8737197Y17167045D01*
X8737192Y17167043D01*
X8564270Y17090052D01*
X8564265Y17090049D01*
X8411129Y16978789D01*
X8284466Y16838115D01*
X8189821Y16674185D01*
X8189818Y16674178D01*
X8132342Y16497284D01*
X8131326Y16494156D01*
X8111540Y16305900D01*
X300500Y16305900D01*
X300500Y19558000D01*
X51037540Y19558000D01*
X51057326Y19369744D01*
X51057327Y19369741D01*
X51115818Y19189723D01*
X51115821Y19189716D01*
X51210467Y19025784D01*
X51320733Y18903322D01*
X51337129Y18885112D01*
X51490265Y18773852D01*
X51490270Y18773849D01*
X51663192Y18696858D01*
X51663197Y18696856D01*
X51848354Y18657500D01*
X51848355Y18657500D01*
X52037644Y18657500D01*
X52037646Y18657500D01*
X52222803Y18696856D01*
X52395730Y18773849D01*
X52548871Y18885112D01*
X52675533Y19025784D01*
X52770179Y19189716D01*
X52828674Y19369744D01*
X52848460Y19558000D01*
X52828674Y19746256D01*
X52770179Y19926284D01*
X52675533Y20090216D01*
X52548871Y20230888D01*
X52512737Y20257141D01*
X52426219Y20320000D01*
X56879540Y20320000D01*
X56899326Y20131744D01*
X56899327Y20131741D01*
X56957818Y19951723D01*
X56957821Y19951716D01*
X57052467Y19787784D01*
X57179129Y19647112D01*
X57332265Y19535852D01*
X57332270Y19535849D01*
X57505192Y19458858D01*
X57505197Y19458856D01*
X57690354Y19419500D01*
X57690355Y19419500D01*
X57879644Y19419500D01*
X57879646Y19419500D01*
X58064803Y19458856D01*
X58237730Y19535849D01*
X58390871Y19647112D01*
X58517533Y19787784D01*
X58612179Y19951716D01*
X58670674Y20131744D01*
X58690460Y20320000D01*
X59673540Y20320000D01*
X59693326Y20131744D01*
X59693327Y20131741D01*
X59751818Y19951723D01*
X59751821Y19951716D01*
X59846467Y19787784D01*
X59973129Y19647112D01*
X60126265Y19535852D01*
X60126270Y19535849D01*
X60299192Y19458858D01*
X60299197Y19458856D01*
X60484354Y19419500D01*
X60484355Y19419500D01*
X60673644Y19419500D01*
X60673646Y19419500D01*
X60858803Y19458856D01*
X61031730Y19535849D01*
X61184871Y19647112D01*
X61311533Y19787784D01*
X61406179Y19951716D01*
X61464674Y20131744D01*
X61484460Y20320000D01*
X62467540Y20320000D01*
X62487326Y20131744D01*
X62487327Y20131741D01*
X62545818Y19951723D01*
X62545821Y19951716D01*
X62640467Y19787784D01*
X62767129Y19647112D01*
X62920265Y19535852D01*
X62920270Y19535849D01*
X63093192Y19458858D01*
X63093197Y19458856D01*
X63278354Y19419500D01*
X63278355Y19419500D01*
X63467644Y19419500D01*
X63467646Y19419500D01*
X63652803Y19458856D01*
X63825730Y19535849D01*
X63978871Y19647112D01*
X64105533Y19787784D01*
X64200179Y19951716D01*
X64258674Y20131744D01*
X64278460Y20320000D01*
X64258674Y20508256D01*
X64200179Y20688284D01*
X64105533Y20852216D01*
X63978871Y20992888D01*
X63900961Y21049493D01*
X63825734Y21104149D01*
X63825729Y21104152D01*
X63652807Y21181143D01*
X63652802Y21181145D01*
X63507001Y21212135D01*
X63467646Y21220500D01*
X63278354Y21220500D01*
X63245897Y21213602D01*
X63093197Y21181145D01*
X63093192Y21181143D01*
X62920270Y21104152D01*
X62920265Y21104149D01*
X62767129Y20992889D01*
X62640466Y20852215D01*
X62545821Y20688285D01*
X62545818Y20688278D01*
X62487327Y20508260D01*
X62487326Y20508256D01*
X62467540Y20320000D01*
X61484460Y20320000D01*
X61464674Y20508256D01*
X61406179Y20688284D01*
X61311533Y20852216D01*
X61184871Y20992888D01*
X61106961Y21049493D01*
X61031734Y21104149D01*
X61031729Y21104152D01*
X60858807Y21181143D01*
X60858802Y21181145D01*
X60713001Y21212135D01*
X60673646Y21220500D01*
X60484354Y21220500D01*
X60451897Y21213602D01*
X60299197Y21181145D01*
X60299192Y21181143D01*
X60126270Y21104152D01*
X60126265Y21104149D01*
X59973129Y20992889D01*
X59846466Y20852215D01*
X59751821Y20688285D01*
X59751818Y20688278D01*
X59693327Y20508260D01*
X59693326Y20508256D01*
X59673540Y20320000D01*
X58690460Y20320000D01*
X58670674Y20508256D01*
X58612179Y20688284D01*
X58517533Y20852216D01*
X58390871Y20992888D01*
X58312961Y21049493D01*
X58237734Y21104149D01*
X58237729Y21104152D01*
X58064807Y21181143D01*
X58064802Y21181145D01*
X57919001Y21212135D01*
X57879646Y21220500D01*
X57690354Y21220500D01*
X57657897Y21213602D01*
X57505197Y21181145D01*
X57505192Y21181143D01*
X57332270Y21104152D01*
X57332265Y21104149D01*
X57179129Y20992889D01*
X57052466Y20852215D01*
X56957821Y20688285D01*
X56957818Y20688278D01*
X56899327Y20508260D01*
X56899326Y20508256D01*
X56879540Y20320000D01*
X52426219Y20320000D01*
X52395734Y20342149D01*
X52395729Y20342152D01*
X52222807Y20419143D01*
X52222802Y20419145D01*
X52077001Y20450135D01*
X52037646Y20458500D01*
X51848354Y20458500D01*
X51845127Y20457814D01*
X51663197Y20419145D01*
X51663192Y20419143D01*
X51490270Y20342152D01*
X51490265Y20342149D01*
X51337129Y20230889D01*
X51210466Y20090215D01*
X51115821Y19926285D01*
X51115818Y19926278D01*
X51089913Y19846549D01*
X51057326Y19746256D01*
X51037540Y19558000D01*
X300500Y19558000D01*
X300500Y21852000D01*
X763632Y21852000D01*
X1672889Y21852000D01*
X1633390Y21827543D01*
X1565799Y21738038D01*
X1535105Y21630160D01*
X1545454Y21518479D01*
X1595448Y21418078D01*
X1667931Y21352000D01*
X767742Y21352000D01*
X794770Y21240591D01*
X882040Y21049493D01*
X1003889Y20878381D01*
X1003895Y20878375D01*
X1155932Y20733408D01*
X1332657Y20619834D01*
X1527685Y20541756D01*
X1733962Y20502000D01*
X1989000Y20502000D01*
X1989000Y21302000D01*
X2489000Y21302000D01*
X2489000Y20502000D01*
X2691398Y20502000D01*
X2848122Y20516966D01*
X2848126Y20516967D01*
X3049686Y20576150D01*
X3236414Y20672414D01*
X3401537Y20802269D01*
X3401540Y20802272D01*
X3539105Y20961031D01*
X3539114Y20961042D01*
X3644144Y21142961D01*
X3644147Y21142968D01*
X3712855Y21341483D01*
X3712855Y21341485D01*
X3714368Y21352000D01*
X2805111Y21352000D01*
X2844610Y21376457D01*
X2912201Y21465962D01*
X2942895Y21573840D01*
X2932546Y21685521D01*
X2882552Y21785922D01*
X2810069Y21852000D01*
X3710257Y21852000D01*
X4888632Y21852000D01*
X5797889Y21852000D01*
X5758390Y21827543D01*
X5690799Y21738038D01*
X5660105Y21630160D01*
X5670454Y21518479D01*
X5720448Y21418078D01*
X5792931Y21352000D01*
X4892742Y21352000D01*
X4919770Y21240591D01*
X5007040Y21049493D01*
X5128889Y20878381D01*
X5128895Y20878375D01*
X5280932Y20733408D01*
X5436180Y20633637D01*
X5481935Y20580833D01*
X5491879Y20511674D01*
X5470446Y20457814D01*
X5445622Y20422647D01*
X5445621Y20422645D01*
X5394946Y20280061D01*
X5394946Y20280058D01*
X5384619Y20129082D01*
X5384619Y20129079D01*
X5415405Y19980922D01*
X5415407Y19980917D01*
X5415408Y19980915D01*
X5485029Y19846553D01*
X5485031Y19846551D01*
X5485032Y19846549D01*
X5588318Y19735957D01*
X5588320Y19735956D01*
X5717618Y19657328D01*
X5863335Y19616500D01*
X5863336Y19616500D01*
X5976659Y19616500D01*
X6004723Y19620358D01*
X6088920Y19631930D01*
X6198854Y19679682D01*
X6227716Y19692218D01*
X6227716Y19692219D01*
X6227720Y19692220D01*
X6345108Y19787722D01*
X6432377Y19911353D01*
X6446725Y19951723D01*
X6483053Y20053940D01*
X6483053Y20053942D01*
X6483054Y20053944D01*
X6493381Y20204921D01*
X6477768Y20280056D01*
X6462594Y20353079D01*
X6462592Y20353082D01*
X6462592Y20353085D01*
X6392971Y20487447D01*
X6392967Y20487451D01*
X6392967Y20487452D01*
X6297376Y20589805D01*
X6266005Y20652235D01*
X6264000Y20674441D01*
X6264000Y21302000D01*
X6764000Y21302000D01*
X6764000Y20502000D01*
X7116398Y20502000D01*
X7273122Y20516966D01*
X7273126Y20516967D01*
X7474686Y20576150D01*
X7661414Y20672414D01*
X7826537Y20802269D01*
X7826540Y20802272D01*
X7958879Y20955000D01*
X8619540Y20955000D01*
X8639326Y20766744D01*
X8639327Y20766741D01*
X8697818Y20586723D01*
X8697821Y20586716D01*
X8792467Y20422784D01*
X8919129Y20282112D01*
X9072265Y20170852D01*
X9072270Y20170849D01*
X9245192Y20093858D01*
X9245197Y20093856D01*
X9430354Y20054500D01*
X9430355Y20054500D01*
X9619644Y20054500D01*
X9619646Y20054500D01*
X9804803Y20093856D01*
X9977730Y20170849D01*
X10023614Y20204187D01*
X10089421Y20227666D01*
X10157475Y20211841D01*
X10169386Y20204186D01*
X10215271Y20170848D01*
X10388192Y20093858D01*
X10388197Y20093856D01*
X10573354Y20054500D01*
X10573355Y20054500D01*
X10762644Y20054500D01*
X10762646Y20054500D01*
X10947803Y20093856D01*
X11120730Y20170849D01*
X11166614Y20204187D01*
X11232421Y20227666D01*
X11300475Y20211841D01*
X11312386Y20204186D01*
X11358271Y20170848D01*
X11531192Y20093858D01*
X11531197Y20093856D01*
X11716354Y20054500D01*
X11716355Y20054500D01*
X11905644Y20054500D01*
X11905646Y20054500D01*
X12090803Y20093856D01*
X12263730Y20170849D01*
X12416871Y20282112D01*
X12543533Y20422784D01*
X12638179Y20586716D01*
X12696674Y20766744D01*
X12716460Y20955000D01*
X12696674Y21143256D01*
X12638179Y21323284D01*
X12543533Y21487216D01*
X12416871Y21627888D01*
X12416870Y21627889D01*
X12334834Y21687492D01*
X33460364Y21687492D01*
X33466986Y21683332D01*
X33466989Y21683330D01*
X33623857Y21628440D01*
X33788997Y21609833D01*
X33789003Y21609833D01*
X33954140Y21628440D01*
X34111015Y21683333D01*
X34117633Y21687492D01*
X34985364Y21687492D01*
X34991986Y21683332D01*
X34991989Y21683330D01*
X35148857Y21628440D01*
X35313997Y21609833D01*
X35314003Y21609833D01*
X35479140Y21628440D01*
X35636015Y21683333D01*
X35642633Y21687492D01*
X35314001Y22016125D01*
X35314000Y22016125D01*
X34985364Y21687492D01*
X34117633Y21687492D01*
X33789001Y22016125D01*
X33789000Y22016125D01*
X33460364Y21687492D01*
X12334834Y21687492D01*
X12263734Y21739149D01*
X12263729Y21739152D01*
X12090807Y21816143D01*
X12090802Y21816145D01*
X11922112Y21852000D01*
X11905646Y21855500D01*
X11716354Y21855500D01*
X11711061Y21854376D01*
X11641397Y21859693D01*
X11585664Y21901831D01*
X11561560Y21967411D01*
X11561963Y21988619D01*
X11573460Y22098000D01*
X11553674Y22286256D01*
X11500473Y22449992D01*
X32697864Y22449992D01*
X32704486Y22445832D01*
X32704489Y22445830D01*
X32861357Y22390940D01*
X32946508Y22381346D01*
X33010922Y22354280D01*
X33050477Y22296685D01*
X33055845Y22272010D01*
X33065439Y22186860D01*
X33120333Y22029982D01*
X33124489Y22023366D01*
X33420632Y22319508D01*
X33689000Y22319508D01*
X33727197Y22266935D01*
X33773162Y22252000D01*
X33804838Y22252000D01*
X33850803Y22266935D01*
X33889000Y22319508D01*
X33889000Y22352000D01*
X34124875Y22352000D01*
X34453508Y22023367D01*
X34459921Y22024089D01*
X34498843Y22058513D01*
X34567897Y22069159D01*
X34631744Y22040781D01*
X34646545Y22023698D01*
X34649489Y22023366D01*
X34945632Y22319508D01*
X35214000Y22319508D01*
X35252197Y22266935D01*
X35298162Y22252000D01*
X35329838Y22252000D01*
X35375803Y22266935D01*
X35414000Y22319508D01*
X35414000Y22352000D01*
X35649875Y22352000D01*
X35978508Y22023367D01*
X35982667Y22029985D01*
X36037560Y22186860D01*
X36047154Y22272009D01*
X36074220Y22336423D01*
X36131815Y22375978D01*
X36156491Y22381346D01*
X36241640Y22390940D01*
X36398515Y22445833D01*
X36405133Y22449992D01*
X36076500Y22778625D01*
X35649875Y22352000D01*
X35414000Y22352000D01*
X35414000Y22384492D01*
X35375803Y22437065D01*
X35329838Y22452000D01*
X35298162Y22452000D01*
X35252197Y22437065D01*
X35214000Y22384492D01*
X35214000Y22319508D01*
X34945632Y22319508D01*
X34978124Y22352000D01*
X34933338Y22396788D01*
X34551500Y22778625D01*
X34124875Y22352000D01*
X33889000Y22352000D01*
X33889000Y22384492D01*
X33850803Y22437065D01*
X33804838Y22452000D01*
X33773162Y22452000D01*
X33727197Y22437065D01*
X33689000Y22384492D01*
X33689000Y22319508D01*
X33420632Y22319508D01*
X33453124Y22352000D01*
X33408338Y22396788D01*
X33026501Y22778625D01*
X33026500Y22778625D01*
X32697864Y22449992D01*
X11500473Y22449992D01*
X11495179Y22466284D01*
X11400533Y22630216D01*
X11273871Y22770888D01*
X11263222Y22778625D01*
X11120734Y22882149D01*
X11120729Y22882152D01*
X10947807Y22959143D01*
X10947802Y22959145D01*
X10802001Y22990135D01*
X10762646Y22998500D01*
X10573354Y22998500D01*
X10540897Y22991602D01*
X10388197Y22959145D01*
X10388192Y22959143D01*
X10215270Y22882152D01*
X10215266Y22882149D01*
X10169384Y22848814D01*
X10103578Y22825335D01*
X10035524Y22841161D01*
X10023616Y22848814D01*
X9977733Y22882149D01*
X9977729Y22882152D01*
X9804807Y22959143D01*
X9804802Y22959145D01*
X9659001Y22990135D01*
X9619646Y22998500D01*
X9430354Y22998500D01*
X9397897Y22991602D01*
X9245197Y22959145D01*
X9245192Y22959143D01*
X9072270Y22882152D01*
X9072265Y22882149D01*
X8919129Y22770889D01*
X8792466Y22630215D01*
X8697821Y22466285D01*
X8697818Y22466278D01*
X8639327Y22286260D01*
X8639326Y22286256D01*
X8619540Y22098000D01*
X8639326Y21909744D01*
X8639327Y21909741D01*
X8697818Y21729723D01*
X8697820Y21729719D01*
X8697821Y21729716D01*
X8724601Y21683332D01*
X8779352Y21588499D01*
X8795824Y21520599D01*
X8779352Y21464501D01*
X8697820Y21323282D01*
X8697818Y21323278D01*
X8651636Y21181143D01*
X8639326Y21143256D01*
X8619540Y20955000D01*
X7958879Y20955000D01*
X7964105Y20961031D01*
X7964114Y20961042D01*
X8069144Y21142961D01*
X8069147Y21142968D01*
X8137855Y21341483D01*
X8137855Y21341485D01*
X8139368Y21352000D01*
X7230111Y21352000D01*
X7269610Y21376457D01*
X7337201Y21465962D01*
X7367895Y21573840D01*
X7357546Y21685521D01*
X7307552Y21785922D01*
X7235069Y21852000D01*
X8135257Y21852000D01*
X8108229Y21963410D01*
X8020959Y22154508D01*
X7899110Y22325620D01*
X7899104Y22325626D01*
X7747067Y22470593D01*
X7570342Y22584167D01*
X7375314Y22662245D01*
X7169038Y22702000D01*
X6764000Y22702000D01*
X6764000Y21902000D01*
X6264000Y21902000D01*
X6264000Y22702000D01*
X5911602Y22702000D01*
X5754877Y22687035D01*
X5754873Y22687034D01*
X5553313Y22627851D01*
X5366585Y22531587D01*
X5201462Y22401732D01*
X5201459Y22401729D01*
X5063894Y22242970D01*
X5063885Y22242959D01*
X4958855Y22061040D01*
X4958852Y22061033D01*
X4890144Y21862518D01*
X4890144Y21862516D01*
X4888632Y21852000D01*
X3710257Y21852000D01*
X3683229Y21963410D01*
X3595959Y22154508D01*
X3474110Y22325620D01*
X3474104Y22325626D01*
X3322067Y22470593D01*
X3145342Y22584167D01*
X2950314Y22662245D01*
X2744038Y22702000D01*
X2489000Y22702000D01*
X2489000Y21902000D01*
X1989000Y21902000D01*
X1989000Y22702000D01*
X1786602Y22702000D01*
X1629877Y22687035D01*
X1629873Y22687034D01*
X1428313Y22627851D01*
X1241585Y22531587D01*
X1076462Y22401732D01*
X1076459Y22401729D01*
X938894Y22242970D01*
X938885Y22242959D01*
X833855Y22061040D01*
X833852Y22061033D01*
X765144Y21862518D01*
X765144Y21862516D01*
X763632Y21852000D01*
X300500Y21852000D01*
X300500Y23939500D01*
X15287040Y23939500D01*
X15306826Y23751244D01*
X15306827Y23751241D01*
X15365318Y23571223D01*
X15365321Y23571216D01*
X15459967Y23407284D01*
X15556643Y23299915D01*
X15586629Y23266612D01*
X15739765Y23155352D01*
X15739770Y23155349D01*
X15912692Y23078358D01*
X15912697Y23078356D01*
X16097854Y23039000D01*
X16097855Y23039000D01*
X16287144Y23039000D01*
X16287146Y23039000D01*
X16472303Y23078356D01*
X16553478Y23114498D01*
X32284333Y23114498D01*
X32302939Y22949360D01*
X32357833Y22792482D01*
X32361989Y22785866D01*
X32658132Y23082008D01*
X32926500Y23082008D01*
X32964697Y23029435D01*
X33010662Y23014500D01*
X33042338Y23014500D01*
X33088303Y23029435D01*
X33126500Y23082008D01*
X33126500Y23114500D01*
X33362375Y23114500D01*
X33407162Y23069713D01*
X33789000Y22687876D01*
X34170838Y23069713D01*
X34183133Y23082008D01*
X34451500Y23082008D01*
X34489697Y23029435D01*
X34535662Y23014500D01*
X34567338Y23014500D01*
X34613303Y23029435D01*
X34651500Y23082008D01*
X34651500Y23114500D01*
X34887375Y23114500D01*
X34932162Y23069713D01*
X35314000Y22687876D01*
X35695838Y23069713D01*
X35708133Y23082008D01*
X35976500Y23082008D01*
X36014697Y23029435D01*
X36060662Y23014500D01*
X36092338Y23014500D01*
X36138303Y23029435D01*
X36176500Y23082008D01*
X36176500Y23114500D01*
X36412375Y23114500D01*
X36741008Y22785867D01*
X36745167Y22792485D01*
X36800060Y22949360D01*
X36818667Y23114498D01*
X36818667Y23114503D01*
X36800060Y23279643D01*
X36769143Y23368000D01*
X51037540Y23368000D01*
X51057326Y23179744D01*
X51057327Y23179741D01*
X51115818Y22999723D01*
X51115821Y22999716D01*
X51210467Y22835784D01*
X51268899Y22770889D01*
X51337129Y22695112D01*
X51490265Y22583852D01*
X51490270Y22583849D01*
X51663192Y22506858D01*
X51663197Y22506856D01*
X51848354Y22467500D01*
X51848355Y22467500D01*
X52037644Y22467500D01*
X52037646Y22467500D01*
X52222803Y22506856D01*
X52395730Y22583849D01*
X52548871Y22695112D01*
X52675533Y22835784D01*
X52770179Y22999716D01*
X52828674Y23179744D01*
X52848460Y23368000D01*
X52828674Y23556256D01*
X52770179Y23736284D01*
X52675533Y23900216D01*
X52548871Y24040888D01*
X52541312Y24046380D01*
X52395734Y24152149D01*
X52395729Y24152152D01*
X52222807Y24229143D01*
X52222802Y24229145D01*
X52077001Y24260135D01*
X52037646Y24268500D01*
X51848354Y24268500D01*
X51815897Y24261602D01*
X51663197Y24229145D01*
X51663192Y24229143D01*
X51490270Y24152152D01*
X51490265Y24152149D01*
X51337129Y24040889D01*
X51210466Y23900215D01*
X51115821Y23736285D01*
X51115818Y23736278D01*
X51057327Y23556260D01*
X51057326Y23556256D01*
X51037540Y23368000D01*
X36769143Y23368000D01*
X36745170Y23436511D01*
X36745168Y23436514D01*
X36741008Y23443136D01*
X36412375Y23114501D01*
X36412375Y23114500D01*
X36176500Y23114500D01*
X36176500Y23146992D01*
X36138303Y23199565D01*
X36092338Y23214500D01*
X36060662Y23214500D01*
X36014697Y23199565D01*
X35976500Y23146992D01*
X35976500Y23082008D01*
X35708133Y23082008D01*
X35740624Y23114500D01*
X35740624Y23114501D01*
X35314000Y23541125D01*
X34887375Y23114500D01*
X34651500Y23114500D01*
X34651500Y23146992D01*
X34613303Y23199565D01*
X34567338Y23214500D01*
X34535662Y23214500D01*
X34489697Y23199565D01*
X34451500Y23146992D01*
X34451500Y23082008D01*
X34183133Y23082008D01*
X34215624Y23114500D01*
X34215624Y23114501D01*
X33789000Y23541125D01*
X33362375Y23114500D01*
X33126500Y23114500D01*
X33126500Y23146992D01*
X33088303Y23199565D01*
X33042338Y23214500D01*
X33010662Y23214500D01*
X32964697Y23199565D01*
X32926500Y23146992D01*
X32926500Y23082008D01*
X32658132Y23082008D01*
X32690624Y23114500D01*
X32690624Y23114501D01*
X32361990Y23443136D01*
X32361989Y23443136D01*
X32357831Y23436517D01*
X32302939Y23279643D01*
X32284333Y23114503D01*
X32284333Y23114498D01*
X16553478Y23114498D01*
X16645230Y23155349D01*
X16798371Y23266612D01*
X16925033Y23407284D01*
X17019679Y23571216D01*
X17078174Y23751244D01*
X17097960Y23939500D01*
X17078174Y24127756D01*
X17019679Y24307784D01*
X16925033Y24471716D01*
X16889661Y24511000D01*
X20364740Y24511000D01*
X20384526Y24322744D01*
X20384527Y24322741D01*
X20443018Y24142723D01*
X20443021Y24142716D01*
X20537667Y23978784D01*
X20608411Y23900215D01*
X20664329Y23838112D01*
X20817465Y23726852D01*
X20817470Y23726849D01*
X20990392Y23649858D01*
X20990397Y23649856D01*
X21175554Y23610500D01*
X21175555Y23610500D01*
X21364844Y23610500D01*
X21364846Y23610500D01*
X21550003Y23649856D01*
X21722930Y23726849D01*
X21876071Y23838112D01*
X22002733Y23978784D01*
X22097379Y24142716D01*
X22155874Y24322744D01*
X22162312Y24384000D01*
X23326140Y24384000D01*
X23345926Y24195744D01*
X23345927Y24195741D01*
X23404418Y24015723D01*
X23404421Y24015716D01*
X23499067Y23851784D01*
X23611557Y23726852D01*
X23625729Y23711112D01*
X23778865Y23599852D01*
X23778870Y23599849D01*
X23951792Y23522858D01*
X23951797Y23522856D01*
X24136954Y23483500D01*
X24136955Y23483500D01*
X24326244Y23483500D01*
X24326246Y23483500D01*
X24511403Y23522856D01*
X24684330Y23599849D01*
X24837471Y23711112D01*
X24898607Y23779010D01*
X32697864Y23779010D01*
X33026499Y23450376D01*
X33408338Y23832213D01*
X33420633Y23844508D01*
X33689000Y23844508D01*
X33727197Y23791935D01*
X33773162Y23777000D01*
X33804838Y23777000D01*
X33850803Y23791935D01*
X33889000Y23844508D01*
X33889000Y23877000D01*
X34124875Y23877000D01*
X34169662Y23832213D01*
X34551500Y23450376D01*
X34933338Y23832213D01*
X34945633Y23844508D01*
X35214000Y23844508D01*
X35252197Y23791935D01*
X35298162Y23777000D01*
X35329838Y23777000D01*
X35375803Y23791935D01*
X35414000Y23844508D01*
X35414000Y23877000D01*
X35649875Y23877000D01*
X35694662Y23832213D01*
X36076500Y23450376D01*
X36076501Y23450376D01*
X36405134Y23779011D01*
X36404410Y23785430D01*
X36369992Y23824336D01*
X36359339Y23893388D01*
X36387711Y23957239D01*
X36404802Y23972050D01*
X36405133Y23974992D01*
X36076500Y24303625D01*
X35649875Y23877000D01*
X35414000Y23877000D01*
X35414000Y23909492D01*
X35375803Y23962065D01*
X35329838Y23977000D01*
X35298162Y23977000D01*
X35252197Y23962065D01*
X35214000Y23909492D01*
X35214000Y23844508D01*
X34945633Y23844508D01*
X34978124Y23877000D01*
X34978124Y23877001D01*
X34551500Y24303625D01*
X34124875Y23877000D01*
X33889000Y23877000D01*
X33889000Y23909492D01*
X33850803Y23962065D01*
X33804838Y23977000D01*
X33773162Y23977000D01*
X33727197Y23962065D01*
X33689000Y23909492D01*
X33689000Y23844508D01*
X33420633Y23844508D01*
X33453124Y23877000D01*
X33453124Y23877001D01*
X33408338Y23921787D01*
X33026501Y24303625D01*
X33026500Y24303625D01*
X32697864Y23974992D01*
X32698588Y23968574D01*
X32733006Y23929665D01*
X32743657Y23860612D01*
X32715284Y23796762D01*
X32698196Y23781958D01*
X32697864Y23779010D01*
X24898607Y23779010D01*
X24964133Y23851784D01*
X25058779Y24015716D01*
X25117274Y24195744D01*
X25137060Y24384000D01*
X25117274Y24572256D01*
X25095426Y24639498D01*
X32284333Y24639498D01*
X32302939Y24474360D01*
X32357833Y24317482D01*
X32361989Y24310866D01*
X32658132Y24607008D01*
X32926500Y24607008D01*
X32964697Y24554435D01*
X33010662Y24539500D01*
X33042338Y24539500D01*
X33088303Y24554435D01*
X33126500Y24607008D01*
X33126500Y24639500D01*
X33362375Y24639500D01*
X33407162Y24594713D01*
X33789000Y24212876D01*
X34170838Y24594713D01*
X34183133Y24607008D01*
X34451500Y24607008D01*
X34489697Y24554435D01*
X34535662Y24539500D01*
X34567338Y24539500D01*
X34613303Y24554435D01*
X34651500Y24607008D01*
X34651500Y24639500D01*
X34887375Y24639500D01*
X34932162Y24594713D01*
X35314000Y24212876D01*
X35695838Y24594713D01*
X35708133Y24607008D01*
X35976500Y24607008D01*
X36014697Y24554435D01*
X36060662Y24539500D01*
X36092338Y24539500D01*
X36138303Y24554435D01*
X36176500Y24607008D01*
X36176500Y24639500D01*
X36412375Y24639500D01*
X36741008Y24310867D01*
X36745167Y24317485D01*
X36800060Y24474360D01*
X36818667Y24639498D01*
X36818667Y24639503D01*
X36800060Y24804643D01*
X36745170Y24961511D01*
X36745168Y24961514D01*
X36741008Y24968136D01*
X36412375Y24639501D01*
X36412375Y24639500D01*
X36176500Y24639500D01*
X36176500Y24671992D01*
X36138303Y24724565D01*
X36092338Y24739500D01*
X36060662Y24739500D01*
X36014697Y24724565D01*
X35976500Y24671992D01*
X35976500Y24607008D01*
X35708133Y24607008D01*
X35740624Y24639500D01*
X35740624Y24639501D01*
X35314000Y25066125D01*
X34887375Y24639500D01*
X34651500Y24639500D01*
X34651500Y24671992D01*
X34613303Y24724565D01*
X34567338Y24739500D01*
X34535662Y24739500D01*
X34489697Y24724565D01*
X34451500Y24671992D01*
X34451500Y24607008D01*
X34183133Y24607008D01*
X34215624Y24639500D01*
X34215624Y24639501D01*
X33789000Y25066125D01*
X33362375Y24639500D01*
X33126500Y24639500D01*
X33126500Y24671992D01*
X33088303Y24724565D01*
X33042338Y24739500D01*
X33010662Y24739500D01*
X32964697Y24724565D01*
X32926500Y24671992D01*
X32926500Y24607008D01*
X32658132Y24607008D01*
X32690624Y24639500D01*
X32690624Y24639501D01*
X32361990Y24968136D01*
X32361989Y24968136D01*
X32357831Y24961517D01*
X32302939Y24804643D01*
X32284333Y24639503D01*
X32284333Y24639498D01*
X25095426Y24639498D01*
X25058779Y24752284D01*
X24964133Y24916216D01*
X24837471Y25056888D01*
X24837470Y25056889D01*
X24684334Y25168149D01*
X24684329Y25168152D01*
X24511407Y25245143D01*
X24511402Y25245145D01*
X24365601Y25276135D01*
X24326246Y25284500D01*
X24136954Y25284500D01*
X24104497Y25277602D01*
X23951797Y25245145D01*
X23951792Y25245143D01*
X23778870Y25168152D01*
X23778865Y25168149D01*
X23625729Y25056889D01*
X23499066Y24916215D01*
X23404421Y24752285D01*
X23404418Y24752278D01*
X23345927Y24572260D01*
X23345926Y24572256D01*
X23326140Y24384000D01*
X22162312Y24384000D01*
X22175660Y24511000D01*
X22155874Y24699256D01*
X22097379Y24879284D01*
X22002733Y25043216D01*
X21876071Y25183888D01*
X21876070Y25183889D01*
X21722934Y25295149D01*
X21722929Y25295152D01*
X21703034Y25304010D01*
X32697864Y25304010D01*
X33026499Y24975376D01*
X33408338Y25357213D01*
X33420632Y25369508D01*
X33689000Y25369508D01*
X33727197Y25316935D01*
X33773162Y25302000D01*
X33804838Y25302000D01*
X33850803Y25316935D01*
X33889000Y25369508D01*
X33889000Y25402001D01*
X34124875Y25402001D01*
X34551500Y24975376D01*
X34933338Y25357213D01*
X34945632Y25369508D01*
X35214000Y25369508D01*
X35252197Y25316935D01*
X35298162Y25302000D01*
X35329838Y25302000D01*
X35375803Y25316935D01*
X35414000Y25369508D01*
X35414000Y25402001D01*
X35649875Y25402001D01*
X36076500Y24975376D01*
X36076501Y24975376D01*
X36405134Y25304011D01*
X36398518Y25308167D01*
X36241640Y25363061D01*
X36156490Y25372655D01*
X36092076Y25399722D01*
X36052521Y25457317D01*
X36047154Y25481992D01*
X36037560Y25567143D01*
X36007168Y25653999D01*
X59375437Y25653999D01*
X59395650Y25422956D01*
X59395651Y25422949D01*
X59455678Y25198926D01*
X59455679Y25198924D01*
X59455680Y25198921D01*
X59553699Y24988718D01*
X59685391Y24800643D01*
X59686730Y24798731D01*
X59842490Y24642971D01*
X59875975Y24581648D01*
X59870991Y24511956D01*
X59829119Y24456023D01*
X59780569Y24436913D01*
X59781168Y24434380D01*
X59773620Y24432597D01*
X59638913Y24382355D01*
X59638906Y24382351D01*
X59523812Y24296191D01*
X59523809Y24296188D01*
X59437649Y24181094D01*
X59437645Y24181087D01*
X59387403Y24046380D01*
X59387401Y24046373D01*
X59381000Y23986845D01*
X59381000Y23364000D01*
X60211148Y23364000D01*
X60162441Y23226953D01*
X60152123Y23076114D01*
X60182884Y22928085D01*
X60216090Y22864000D01*
X59381000Y22864000D01*
X59381000Y22241156D01*
X59387401Y22181628D01*
X59387403Y22181621D01*
X59437645Y22046914D01*
X59437649Y22046907D01*
X59523809Y21931813D01*
X59523812Y21931810D01*
X59638906Y21845650D01*
X59638913Y21845646D01*
X59773620Y21795404D01*
X59773627Y21795402D01*
X59833155Y21789001D01*
X59833172Y21789000D01*
X60456000Y21789000D01*
X60456000Y22622317D01*
X60484819Y22604791D01*
X60630404Y22564000D01*
X60743622Y22564000D01*
X60855783Y22579416D01*
X60956000Y22622947D01*
X60956000Y21789000D01*
X61578828Y21789000D01*
X61578844Y21789001D01*
X61638372Y21795402D01*
X61638379Y21795404D01*
X61773086Y21845646D01*
X61773093Y21845650D01*
X61888187Y21931810D01*
X61888190Y21931813D01*
X61974350Y22046907D01*
X61974354Y22046914D01*
X62024596Y22181621D01*
X62024598Y22181628D01*
X62030999Y22241156D01*
X62031000Y22241173D01*
X62031000Y22864000D01*
X61200852Y22864000D01*
X61249559Y23001047D01*
X61259877Y23151886D01*
X61229116Y23299915D01*
X61195910Y23364000D01*
X62031000Y23364000D01*
X62031000Y23986828D01*
X62030999Y23986845D01*
X62024598Y24046373D01*
X62024596Y24046380D01*
X61974354Y24181087D01*
X61974350Y24181094D01*
X61888190Y24296188D01*
X61888187Y24296191D01*
X61773093Y24382351D01*
X61773086Y24382355D01*
X61638379Y24432597D01*
X61630832Y24434380D01*
X61631486Y24437152D01*
X61579360Y24458757D01*
X61539526Y24516159D01*
X61537049Y24585985D01*
X61569506Y24642968D01*
X61725270Y24798731D01*
X61858301Y24988718D01*
X61956320Y25198921D01*
X62016349Y25422950D01*
X62036563Y25654000D01*
X62032932Y25695498D01*
X62023015Y25808858D01*
X62016349Y25885050D01*
X61956320Y26109079D01*
X61858301Y26319281D01*
X61858299Y26319284D01*
X61858298Y26319286D01*
X61725273Y26509265D01*
X61725268Y26509271D01*
X61561269Y26673270D01*
X61555334Y26677426D01*
X61371282Y26806301D01*
X61359878Y26811619D01*
X61307440Y26857790D01*
X61288288Y26924984D01*
X61308504Y26991865D01*
X61359878Y27036382D01*
X61371282Y27041699D01*
X61561269Y27174730D01*
X61725270Y27338731D01*
X61858301Y27528718D01*
X61956320Y27738921D01*
X62016349Y27962950D01*
X62036563Y28194000D01*
X62034444Y28218215D01*
X62026565Y28308278D01*
X62016349Y28425050D01*
X61956320Y28649079D01*
X61858301Y28859281D01*
X61858299Y28859284D01*
X61858298Y28859286D01*
X61725273Y29049265D01*
X61725268Y29049271D01*
X61561269Y29213270D01*
X61547769Y29222723D01*
X61371282Y29346301D01*
X61161079Y29444320D01*
X61161076Y29444321D01*
X61161074Y29444322D01*
X60937051Y29504349D01*
X60937044Y29504350D01*
X60706002Y29524563D01*
X60705998Y29524563D01*
X60474955Y29504350D01*
X60474948Y29504349D01*
X60250917Y29444319D01*
X60040718Y29346301D01*
X60040714Y29346299D01*
X59850735Y29213274D01*
X59850729Y29213269D01*
X59686731Y29049271D01*
X59686726Y29049265D01*
X59553701Y28859286D01*
X59553699Y28859282D01*
X59455681Y28649083D01*
X59395651Y28425052D01*
X59395650Y28425045D01*
X59375437Y28194002D01*
X59375437Y28193999D01*
X59395650Y27962956D01*
X59395651Y27962949D01*
X59455678Y27738926D01*
X59455679Y27738924D01*
X59455680Y27738921D01*
X59553699Y27528718D01*
X59686730Y27338731D01*
X59850731Y27174730D01*
X60040718Y27041699D01*
X60052121Y27036382D01*
X60104560Y26990210D01*
X60123712Y26923016D01*
X60103496Y26856135D01*
X60052123Y26811619D01*
X60040720Y26806302D01*
X60040714Y26806299D01*
X59850735Y26673274D01*
X59850729Y26673269D01*
X59686731Y26509271D01*
X59686726Y26509265D01*
X59553701Y26319286D01*
X59553699Y26319282D01*
X59455681Y26109083D01*
X59395651Y25885052D01*
X59395650Y25885045D01*
X59375437Y25654002D01*
X59375437Y25653999D01*
X36007168Y25653999D01*
X35982670Y25724011D01*
X35982668Y25724014D01*
X35978508Y25730636D01*
X35649875Y25402001D01*
X35414000Y25402001D01*
X35414000Y25434492D01*
X35375803Y25487065D01*
X35329838Y25502000D01*
X35298162Y25502000D01*
X35252197Y25487065D01*
X35214000Y25434492D01*
X35214000Y25369508D01*
X34945632Y25369508D01*
X34978124Y25402001D01*
X34978124Y25402002D01*
X34649490Y25730636D01*
X34643066Y25729912D01*
X34604170Y25695498D01*
X34535118Y25684842D01*
X34471266Y25713209D01*
X34456453Y25730304D01*
X34453508Y25730636D01*
X34124875Y25402001D01*
X33889000Y25402001D01*
X33889000Y25434492D01*
X33850803Y25487065D01*
X33804838Y25502000D01*
X33773162Y25502000D01*
X33727197Y25487065D01*
X33689000Y25434492D01*
X33689000Y25369508D01*
X33420632Y25369508D01*
X33453124Y25402001D01*
X33453124Y25402002D01*
X33124490Y25730636D01*
X33124489Y25730636D01*
X33120331Y25724017D01*
X33065439Y25567143D01*
X33055845Y25481991D01*
X33028778Y25417577D01*
X32971183Y25378022D01*
X32946509Y25372655D01*
X32861357Y25363061D01*
X32704483Y25308169D01*
X32697864Y25304011D01*
X32697864Y25304010D01*
X21703034Y25304010D01*
X21550007Y25372143D01*
X21550002Y25372145D01*
X21404201Y25403135D01*
X21364846Y25411500D01*
X21175554Y25411500D01*
X21143097Y25404602D01*
X20990397Y25372145D01*
X20990392Y25372143D01*
X20817470Y25295152D01*
X20817465Y25295149D01*
X20664329Y25183889D01*
X20537666Y25043215D01*
X20443021Y24879285D01*
X20443018Y24879278D01*
X20384527Y24699260D01*
X20384526Y24699256D01*
X20364740Y24511000D01*
X16889661Y24511000D01*
X16798371Y24612388D01*
X16798370Y24612389D01*
X16645234Y24723649D01*
X16645229Y24723652D01*
X16472307Y24800643D01*
X16472302Y24800645D01*
X16326501Y24831635D01*
X16287146Y24840000D01*
X16097854Y24840000D01*
X16065397Y24833102D01*
X15912697Y24800645D01*
X15912692Y24800643D01*
X15739770Y24723652D01*
X15739765Y24723649D01*
X15586629Y24612389D01*
X15459966Y24471715D01*
X15365321Y24307785D01*
X15365318Y24307778D01*
X15306827Y24127760D01*
X15306826Y24127756D01*
X15287040Y23939500D01*
X300500Y23939500D01*
X300500Y26670000D01*
X999540Y26670000D01*
X1019326Y26481744D01*
X1019327Y26481741D01*
X1077818Y26301723D01*
X1077821Y26301716D01*
X1172467Y26137784D01*
X1275369Y26023500D01*
X1299129Y25997112D01*
X1452265Y25885852D01*
X1452270Y25885849D01*
X1625192Y25808858D01*
X1625197Y25808856D01*
X1810354Y25769500D01*
X1810355Y25769500D01*
X1999644Y25769500D01*
X1999646Y25769500D01*
X2184803Y25808856D01*
X2357730Y25885849D01*
X2510871Y25997112D01*
X2510870Y25997112D01*
X2516129Y26000932D01*
X2517066Y25999642D01*
X2572806Y26026396D01*
X2642141Y26017774D01*
X2695809Y25973036D01*
X2706652Y25953131D01*
X2709473Y25946590D01*
X2709474Y25946588D01*
X2778547Y25786461D01*
X2882685Y25646578D01*
X2882686Y25646577D01*
X2882688Y25646575D01*
X2954118Y25586639D01*
X3016275Y25534483D01*
X3172116Y25456217D01*
X3341805Y25416000D01*
X3341807Y25416000D01*
X3472448Y25416000D01*
X3472455Y25416000D01*
X3602211Y25431166D01*
X3766084Y25490811D01*
X3821106Y25527000D01*
X5571540Y25527000D01*
X5591326Y25338744D01*
X5591327Y25338741D01*
X5649818Y25158723D01*
X5649821Y25158716D01*
X5744467Y24994784D01*
X5871129Y24854112D01*
X6024265Y24742852D01*
X6024270Y24742849D01*
X6197192Y24665858D01*
X6197197Y24665856D01*
X6382354Y24626500D01*
X6382355Y24626500D01*
X6571644Y24626500D01*
X6571646Y24626500D01*
X6756803Y24665856D01*
X6929730Y24742849D01*
X7082871Y24854112D01*
X7209533Y24994784D01*
X7304179Y25158716D01*
X7362674Y25338744D01*
X7382460Y25527000D01*
X7362674Y25715256D01*
X7304179Y25895284D01*
X7209533Y26059216D01*
X7082871Y26199888D01*
X7082870Y26199889D01*
X6929734Y26311149D01*
X6929729Y26311152D01*
X6756807Y26388143D01*
X6756802Y26388145D01*
X6611001Y26419135D01*
X6571646Y26427500D01*
X6382354Y26427500D01*
X6349897Y26420602D01*
X6197197Y26388145D01*
X6197192Y26388143D01*
X6024270Y26311152D01*
X6024265Y26311149D01*
X5871129Y26199889D01*
X5744466Y26059215D01*
X5649821Y25895285D01*
X5649818Y25895278D01*
X5591327Y25715260D01*
X5591326Y25715256D01*
X5571540Y25527000D01*
X3821106Y25527000D01*
X3911784Y25586640D01*
X4031458Y25713487D01*
X4118653Y25864513D01*
X4168668Y26031577D01*
X4178808Y26205671D01*
X4148526Y26377412D01*
X4079453Y26537539D01*
X3975315Y26677422D01*
X3975312Y26677424D01*
X3975311Y26677426D01*
X3841725Y26789517D01*
X3841723Y26789518D01*
X3685887Y26867782D01*
X3685885Y26867783D01*
X3685884Y26867783D01*
X3516195Y26908000D01*
X3385545Y26908000D01*
X3284623Y26896205D01*
X3255787Y26892834D01*
X3255785Y26892833D01*
X3091918Y26833191D01*
X2982785Y26761412D01*
X2915957Y26741020D01*
X2848714Y26759994D01*
X2802403Y26812311D01*
X2791326Y26852051D01*
X2790674Y26858256D01*
X2732179Y27038284D01*
X2637533Y27202216D01*
X2510871Y27342888D01*
X2510870Y27342889D01*
X2357734Y27454149D01*
X2357729Y27454152D01*
X2184807Y27531143D01*
X2184802Y27531145D01*
X2039001Y27562135D01*
X1999646Y27570500D01*
X1810354Y27570500D01*
X1777897Y27563602D01*
X1625197Y27531145D01*
X1625192Y27531143D01*
X1452270Y27454152D01*
X1452265Y27454149D01*
X1299129Y27342889D01*
X1172466Y27202215D01*
X1077821Y27038285D01*
X1077818Y27038278D01*
X1022421Y26867782D01*
X1019326Y26858256D01*
X999540Y26670000D01*
X300500Y26670000D01*
X300500Y27686000D01*
X5190540Y27686000D01*
X5210326Y27497744D01*
X5210327Y27497741D01*
X5268818Y27317723D01*
X5268821Y27317716D01*
X5363467Y27153784D01*
X5469177Y27036382D01*
X5490129Y27013112D01*
X5643265Y26901852D01*
X5643270Y26901849D01*
X5816192Y26824858D01*
X5816197Y26824856D01*
X6001354Y26785500D01*
X6001355Y26785500D01*
X6190644Y26785500D01*
X6190646Y26785500D01*
X6375803Y26824856D01*
X6548730Y26901849D01*
X6658117Y26981324D01*
X6723920Y27004802D01*
X6791974Y26988977D01*
X6803871Y26981332D01*
X6909869Y26904320D01*
X6913270Y26901849D01*
X7086192Y26824858D01*
X7086197Y26824856D01*
X7271354Y26785500D01*
X7271355Y26785500D01*
X7460644Y26785500D01*
X7460646Y26785500D01*
X7645803Y26824856D01*
X7818730Y26901849D01*
X7971871Y27013112D01*
X8098533Y27153784D01*
X8193179Y27317716D01*
X8251674Y27497744D01*
X8271460Y27686000D01*
X8251674Y27874256D01*
X8230312Y27940000D01*
X15985540Y27940000D01*
X16005326Y27751744D01*
X16005327Y27751741D01*
X16063818Y27571723D01*
X16063821Y27571716D01*
X16158467Y27407784D01*
X16277675Y27275390D01*
X16285129Y27267112D01*
X16438265Y27155852D01*
X16438270Y27155849D01*
X16611192Y27078858D01*
X16611193Y27078858D01*
X16611197Y27078856D01*
X16788550Y27041159D01*
X16850032Y27007967D01*
X16883809Y26946804D01*
X16886091Y26906909D01*
X16875517Y26806299D01*
X16874540Y26797000D01*
X16894326Y26608744D01*
X16894327Y26608741D01*
X16952818Y26428723D01*
X16952821Y26428716D01*
X17047467Y26264784D01*
X17087594Y26220219D01*
X17174129Y26124112D01*
X17327265Y26012852D01*
X17327270Y26012849D01*
X17500192Y25935858D01*
X17500197Y25935856D01*
X17685354Y25896500D01*
X17685355Y25896500D01*
X17874644Y25896500D01*
X17874646Y25896500D01*
X18059803Y25935856D01*
X18232730Y26012849D01*
X18306588Y26066510D01*
X33460364Y26066510D01*
X33789000Y25737876D01*
X33789001Y25737876D01*
X34117633Y26066510D01*
X34985364Y26066510D01*
X35314000Y25737876D01*
X35314001Y25737876D01*
X35642634Y26066511D01*
X35636018Y26070667D01*
X35479140Y26125561D01*
X35314003Y26144167D01*
X35313997Y26144167D01*
X35148857Y26125561D01*
X34991983Y26070669D01*
X34985364Y26066511D01*
X34985364Y26066510D01*
X34117633Y26066510D01*
X34117634Y26066511D01*
X34111018Y26070667D01*
X33954140Y26125561D01*
X33789003Y26144167D01*
X33788997Y26144167D01*
X33623857Y26125561D01*
X33466983Y26070669D01*
X33460364Y26066511D01*
X33460364Y26066510D01*
X18306588Y26066510D01*
X18385871Y26124112D01*
X18512533Y26264784D01*
X18607179Y26428716D01*
X18665674Y26608744D01*
X18685460Y26797000D01*
X18665674Y26985256D01*
X18607179Y27165284D01*
X18512533Y27329216D01*
X18419986Y27432000D01*
X38845540Y27432000D01*
X38865326Y27243744D01*
X38865327Y27243741D01*
X38923818Y27063723D01*
X38923821Y27063716D01*
X39018467Y26899784D01*
X39117751Y26789518D01*
X39145129Y26759112D01*
X39298265Y26647852D01*
X39298270Y26647849D01*
X39471192Y26570858D01*
X39471197Y26570856D01*
X39656354Y26531500D01*
X39656355Y26531500D01*
X39845644Y26531500D01*
X39845646Y26531500D01*
X40030803Y26570856D01*
X40203730Y26647849D01*
X40356871Y26759112D01*
X40483533Y26899784D01*
X40532613Y26984795D01*
X40583179Y27033009D01*
X40651786Y27046233D01*
X40716651Y27020265D01*
X40747385Y26984797D01*
X40792353Y26906909D01*
X40796467Y26899784D01*
X40923129Y26759112D01*
X41076265Y26647852D01*
X41076270Y26647849D01*
X41249192Y26570858D01*
X41249197Y26570856D01*
X41434354Y26531500D01*
X41434355Y26531500D01*
X41623644Y26531500D01*
X41623646Y26531500D01*
X41808803Y26570856D01*
X41981730Y26647849D01*
X42134871Y26759112D01*
X42261533Y26899784D01*
X42275514Y26924000D01*
X51037540Y26924000D01*
X51057326Y26735744D01*
X51057327Y26735741D01*
X51115818Y26555723D01*
X51115821Y26555716D01*
X51210467Y26391784D01*
X51291559Y26301723D01*
X51337129Y26251112D01*
X51490265Y26139852D01*
X51490270Y26139849D01*
X51663192Y26062858D01*
X51663197Y26062856D01*
X51848354Y26023500D01*
X51848355Y26023500D01*
X52037644Y26023500D01*
X52037646Y26023500D01*
X52222803Y26062856D01*
X52395730Y26139849D01*
X52548871Y26251112D01*
X52675533Y26391784D01*
X52770179Y26555716D01*
X52828674Y26735744D01*
X52848460Y26924000D01*
X52828674Y27112256D01*
X52770179Y27292284D01*
X52675533Y27456216D01*
X52548871Y27596888D01*
X52516708Y27620256D01*
X52395734Y27708149D01*
X52395729Y27708152D01*
X52222807Y27785143D01*
X52222802Y27785145D01*
X52069318Y27817768D01*
X52037646Y27824500D01*
X51848354Y27824500D01*
X51816682Y27817768D01*
X51663197Y27785145D01*
X51663192Y27785143D01*
X51490270Y27708152D01*
X51490265Y27708149D01*
X51337129Y27596889D01*
X51210466Y27456215D01*
X51115821Y27292285D01*
X51115818Y27292278D01*
X51071491Y27155852D01*
X51057326Y27112256D01*
X51037540Y26924000D01*
X42275514Y26924000D01*
X42356179Y27063716D01*
X42414674Y27243744D01*
X42434460Y27432000D01*
X42414674Y27620256D01*
X42356179Y27800284D01*
X42261533Y27964216D01*
X42134871Y28104888D01*
X42102708Y28128256D01*
X41981734Y28216149D01*
X41981729Y28216152D01*
X41808807Y28293143D01*
X41808802Y28293145D01*
X41663001Y28324135D01*
X41623646Y28332500D01*
X41434354Y28332500D01*
X41401897Y28325602D01*
X41249197Y28293145D01*
X41249192Y28293143D01*
X41076270Y28216152D01*
X41076265Y28216149D01*
X40923129Y28104889D01*
X40796466Y27964215D01*
X40747387Y27879207D01*
X40696820Y27830992D01*
X40628213Y27817768D01*
X40563349Y27843736D01*
X40532613Y27879207D01*
X40497514Y27940000D01*
X40483533Y27964216D01*
X40356871Y28104888D01*
X40324708Y28128256D01*
X40203734Y28216149D01*
X40203729Y28216152D01*
X40030807Y28293143D01*
X40030802Y28293145D01*
X39885001Y28324135D01*
X39845646Y28332500D01*
X39656354Y28332500D01*
X39623897Y28325602D01*
X39471197Y28293145D01*
X39471192Y28293143D01*
X39298270Y28216152D01*
X39298265Y28216149D01*
X39145129Y28104889D01*
X39018466Y27964215D01*
X38923821Y27800285D01*
X38923818Y27800278D01*
X38877636Y27658143D01*
X38865326Y27620256D01*
X38845540Y27432000D01*
X18419986Y27432000D01*
X18385871Y27469888D01*
X18385870Y27469889D01*
X18232734Y27581149D01*
X18232729Y27581152D01*
X18059807Y27658143D01*
X18059802Y27658145D01*
X17882448Y27695842D01*
X17820966Y27729034D01*
X17787190Y27790197D01*
X17784908Y27830090D01*
X17796460Y27940000D01*
X17776674Y28128256D01*
X17718179Y28308284D01*
X17623533Y28472216D01*
X17592458Y28506728D01*
X17562229Y28569718D01*
X17570854Y28639053D01*
X17611720Y28690014D01*
X17750871Y28791112D01*
X17877533Y28931784D01*
X17972179Y29095716D01*
X18030674Y29275744D01*
X18050460Y29464000D01*
X18030674Y29652256D01*
X17972179Y29832284D01*
X17877533Y29996216D01*
X17750871Y30136888D01*
X17750870Y30136889D01*
X17597734Y30248149D01*
X17597729Y30248152D01*
X17424807Y30325143D01*
X17424802Y30325145D01*
X17279001Y30356135D01*
X17239646Y30364500D01*
X17050354Y30364500D01*
X17017897Y30357602D01*
X16865197Y30325145D01*
X16865192Y30325143D01*
X16692270Y30248152D01*
X16692265Y30248149D01*
X16539129Y30136889D01*
X16412466Y29996215D01*
X16317821Y29832285D01*
X16317818Y29832278D01*
X16259327Y29652260D01*
X16259326Y29652256D01*
X16239540Y29464000D01*
X16259326Y29275744D01*
X16259327Y29275741D01*
X16317818Y29095723D01*
X16317821Y29095716D01*
X16412467Y28931784D01*
X16442330Y28898618D01*
X16443540Y28897274D01*
X16473770Y28834283D01*
X16465145Y28764947D01*
X16424276Y28713984D01*
X16285127Y28612887D01*
X16158466Y28472215D01*
X16063821Y28308285D01*
X16063818Y28308278D01*
X16026687Y28193999D01*
X16005326Y28128256D01*
X15985540Y27940000D01*
X8230312Y27940000D01*
X8193179Y28054284D01*
X8098533Y28218216D01*
X7971871Y28358888D01*
X7971870Y28358889D01*
X7818734Y28470149D01*
X7818729Y28470152D01*
X7645807Y28547143D01*
X7645802Y28547145D01*
X7605729Y28555662D01*
X7544248Y28588854D01*
X7510471Y28650017D01*
X7508190Y28689916D01*
X7509460Y28701997D01*
X7509460Y28701998D01*
X7501531Y28777438D01*
X7489674Y28890256D01*
X7431179Y29070284D01*
X7336533Y29234216D01*
X7209871Y29374888D01*
X7209870Y29374889D01*
X7056734Y29486149D01*
X7056729Y29486152D01*
X6883807Y29563143D01*
X6883802Y29563145D01*
X6738001Y29594135D01*
X6698646Y29602500D01*
X6509354Y29602500D01*
X6476897Y29595602D01*
X6324197Y29563145D01*
X6324192Y29563143D01*
X6151270Y29486152D01*
X6151265Y29486149D01*
X5998129Y29374889D01*
X5871466Y29234215D01*
X5776821Y29070285D01*
X5776818Y29070278D01*
X5769991Y29049265D01*
X5718326Y28890256D01*
X5709560Y28806852D01*
X5698540Y28702000D01*
X5709934Y28593584D01*
X5697364Y28524855D01*
X5649631Y28473831D01*
X5648620Y28473241D01*
X5643271Y28470153D01*
X5490129Y28358889D01*
X5363466Y28218215D01*
X5268821Y28054285D01*
X5268818Y28054278D01*
X5210327Y27874260D01*
X5210326Y27874256D01*
X5190540Y27686000D01*
X300500Y27686000D01*
X300500Y29591000D01*
X745540Y29591000D01*
X765326Y29402744D01*
X765327Y29402741D01*
X823818Y29222723D01*
X823821Y29222716D01*
X918467Y29058784D01*
X1032817Y28931786D01*
X1045129Y28918112D01*
X1198265Y28806852D01*
X1198270Y28806849D01*
X1371192Y28729858D01*
X1371197Y28729856D01*
X1556354Y28690500D01*
X1556355Y28690500D01*
X1745644Y28690500D01*
X1745646Y28690500D01*
X1930803Y28729856D01*
X2103730Y28806849D01*
X2256871Y28918112D01*
X2383533Y29058784D01*
X2478179Y29222716D01*
X2536674Y29402744D01*
X2556460Y29591000D01*
X2536674Y29779256D01*
X2478179Y29959284D01*
X2383533Y30123216D01*
X2256871Y30263888D01*
X2246035Y30271761D01*
X2203370Y30327092D01*
X2197392Y30396706D01*
X2229999Y30458500D01*
X2290839Y30492856D01*
X2319583Y30494454D01*
X2319583Y30496000D01*
X2457448Y30496000D01*
X2457455Y30496000D01*
X2587211Y30511166D01*
X2751084Y30570811D01*
X2896784Y30666640D01*
X3016458Y30793487D01*
X3103653Y30944513D01*
X3153668Y31111577D01*
X3158721Y31198329D01*
X3694192Y31198329D01*
X3709487Y31111582D01*
X3724474Y31026588D01*
X3793547Y30866461D01*
X3897685Y30726578D01*
X3897686Y30726577D01*
X3897688Y30726575D01*
X3969118Y30666639D01*
X4031275Y30614483D01*
X4187116Y30536217D01*
X4356805Y30496000D01*
X4356807Y30496000D01*
X4487448Y30496000D01*
X4487455Y30496000D01*
X4617211Y30511166D01*
X4781084Y30570811D01*
X4926784Y30666640D01*
X4990335Y30734000D01*
X56879540Y30734000D01*
X56899326Y30545744D01*
X56899327Y30545741D01*
X56957818Y30365723D01*
X56957821Y30365716D01*
X57052467Y30201784D01*
X57123211Y30123215D01*
X57179129Y30061112D01*
X57332265Y29949852D01*
X57332270Y29949849D01*
X57505192Y29872858D01*
X57505197Y29872856D01*
X57690354Y29833500D01*
X57690355Y29833500D01*
X57879644Y29833500D01*
X57879646Y29833500D01*
X58064803Y29872856D01*
X58237730Y29949849D01*
X58390871Y30061112D01*
X58517533Y30201784D01*
X58612179Y30365716D01*
X58670674Y30545744D01*
X58690460Y30734000D01*
X59673540Y30734000D01*
X59693326Y30545744D01*
X59693327Y30545741D01*
X59751818Y30365723D01*
X59751821Y30365716D01*
X59846467Y30201784D01*
X59917211Y30123215D01*
X59973129Y30061112D01*
X60126265Y29949852D01*
X60126270Y29949849D01*
X60299192Y29872858D01*
X60299197Y29872856D01*
X60484354Y29833500D01*
X60484355Y29833500D01*
X60673644Y29833500D01*
X60673646Y29833500D01*
X60858803Y29872856D01*
X61031730Y29949849D01*
X61184871Y30061112D01*
X61311533Y30201784D01*
X61406179Y30365716D01*
X61464674Y30545744D01*
X61484460Y30734000D01*
X62467540Y30734000D01*
X62487326Y30545744D01*
X62487327Y30545741D01*
X62545818Y30365723D01*
X62545821Y30365716D01*
X62640467Y30201784D01*
X62711211Y30123215D01*
X62767129Y30061112D01*
X62920265Y29949852D01*
X62920270Y29949849D01*
X63093192Y29872858D01*
X63093197Y29872856D01*
X63278354Y29833500D01*
X63278355Y29833500D01*
X63467644Y29833500D01*
X63467646Y29833500D01*
X63652803Y29872856D01*
X63825730Y29949849D01*
X63978871Y30061112D01*
X64105533Y30201784D01*
X64200179Y30365716D01*
X64258674Y30545744D01*
X64278460Y30734000D01*
X64258674Y30922256D01*
X64200179Y31102284D01*
X64105533Y31266216D01*
X63978871Y31406888D01*
X63978870Y31406889D01*
X63825734Y31518149D01*
X63825729Y31518152D01*
X63652807Y31595143D01*
X63652802Y31595145D01*
X63507001Y31626135D01*
X63467646Y31634500D01*
X63278354Y31634500D01*
X63245897Y31627602D01*
X63093197Y31595145D01*
X63093192Y31595143D01*
X62920270Y31518152D01*
X62920265Y31518149D01*
X62767129Y31406889D01*
X62640466Y31266215D01*
X62545821Y31102285D01*
X62545818Y31102278D01*
X62494557Y30944512D01*
X62487326Y30922256D01*
X62467540Y30734000D01*
X61484460Y30734000D01*
X61464674Y30922256D01*
X61406179Y31102284D01*
X61311533Y31266216D01*
X61184871Y31406888D01*
X61184870Y31406889D01*
X61031734Y31518149D01*
X61031729Y31518152D01*
X60858807Y31595143D01*
X60858802Y31595145D01*
X60713001Y31626135D01*
X60673646Y31634500D01*
X60484354Y31634500D01*
X60451897Y31627602D01*
X60299197Y31595145D01*
X60299192Y31595143D01*
X60126270Y31518152D01*
X60126265Y31518149D01*
X59973129Y31406889D01*
X59846466Y31266215D01*
X59751821Y31102285D01*
X59751818Y31102278D01*
X59700557Y30944512D01*
X59693326Y30922256D01*
X59673540Y30734000D01*
X58690460Y30734000D01*
X58670674Y30922256D01*
X58612179Y31102284D01*
X58517533Y31266216D01*
X58390871Y31406888D01*
X58390870Y31406889D01*
X58237734Y31518149D01*
X58237729Y31518152D01*
X58064807Y31595143D01*
X58064802Y31595145D01*
X57919001Y31626135D01*
X57879646Y31634500D01*
X57690354Y31634500D01*
X57657897Y31627602D01*
X57505197Y31595145D01*
X57505192Y31595143D01*
X57332270Y31518152D01*
X57332265Y31518149D01*
X57179129Y31406889D01*
X57052466Y31266215D01*
X56957821Y31102285D01*
X56957818Y31102278D01*
X56906557Y30944512D01*
X56899326Y30922256D01*
X56879540Y30734000D01*
X4990335Y30734000D01*
X5046458Y30793487D01*
X5133653Y30944513D01*
X5183668Y31111577D01*
X5193808Y31285671D01*
X5163526Y31457412D01*
X5094453Y31617539D01*
X4990315Y31757422D01*
X4990312Y31757424D01*
X4990311Y31757426D01*
X4856725Y31869517D01*
X4856723Y31869518D01*
X4700887Y31947782D01*
X4700885Y31947783D01*
X4700884Y31947783D01*
X4531195Y31988000D01*
X4400545Y31988000D01*
X4299623Y31976205D01*
X4270787Y31972834D01*
X4270785Y31972833D01*
X4106917Y31913190D01*
X4106913Y31913188D01*
X3961218Y31817363D01*
X3961217Y31817362D01*
X3841543Y31690515D01*
X3841539Y31690510D01*
X3754347Y31539489D01*
X3704333Y31372427D01*
X3704331Y31372419D01*
X3694192Y31198330D01*
X3694192Y31198329D01*
X3158721Y31198329D01*
X3163808Y31285671D01*
X3133526Y31457412D01*
X3064453Y31617539D01*
X2960315Y31757422D01*
X2960312Y31757424D01*
X2960311Y31757426D01*
X2826725Y31869517D01*
X2826723Y31869518D01*
X2670887Y31947782D01*
X2670885Y31947783D01*
X2670884Y31947783D01*
X2501195Y31988000D01*
X2370545Y31988000D01*
X2269623Y31976205D01*
X2240787Y31972834D01*
X2240785Y31972833D01*
X2076917Y31913190D01*
X2076913Y31913188D01*
X1931218Y31817363D01*
X1931217Y31817362D01*
X1811543Y31690515D01*
X1811539Y31690510D01*
X1724347Y31539489D01*
X1674333Y31372427D01*
X1674331Y31372419D01*
X1664192Y31198330D01*
X1664192Y31198329D01*
X1679487Y31111582D01*
X1694474Y31026588D01*
X1763547Y30866461D01*
X1867685Y30726578D01*
X1867689Y30726575D01*
X1903304Y30696690D01*
X1942006Y30638519D01*
X1943114Y30568658D01*
X1906277Y30509288D01*
X1843190Y30479259D01*
X1797821Y30480410D01*
X1745646Y30491500D01*
X1556354Y30491500D01*
X1523897Y30484602D01*
X1371197Y30452145D01*
X1371192Y30452143D01*
X1198270Y30375152D01*
X1198265Y30375149D01*
X1045129Y30263889D01*
X918466Y30123215D01*
X823821Y29959285D01*
X823818Y29959278D01*
X765327Y29779260D01*
X765326Y29779256D01*
X745540Y29591000D01*
X300500Y29591000D01*
X300500Y33147000D01*
X10397540Y33147000D01*
X10417326Y32958744D01*
X10417327Y32958741D01*
X10475818Y32778723D01*
X10475821Y32778716D01*
X10570467Y32614784D01*
X10697129Y32474112D01*
X10850265Y32362852D01*
X10850270Y32362849D01*
X11023192Y32285858D01*
X11023197Y32285856D01*
X11208354Y32246500D01*
X11208355Y32246500D01*
X11397644Y32246500D01*
X11397646Y32246500D01*
X11582803Y32285856D01*
X11755730Y32362849D01*
X11908871Y32474112D01*
X12035533Y32614784D01*
X12130179Y32778716D01*
X12188674Y32958744D01*
X12208460Y33147000D01*
X12188674Y33335256D01*
X12130179Y33515284D01*
X12035533Y33679216D01*
X11908871Y33819888D01*
X11908870Y33819889D01*
X11798783Y33899872D01*
X11756117Y33955202D01*
X11750138Y34024815D01*
X11782744Y34086610D01*
X11821226Y34113466D01*
X11882730Y34140849D01*
X12035871Y34252112D01*
X12162533Y34392784D01*
X12257179Y34556716D01*
X12315674Y34736744D01*
X12335460Y34925000D01*
X12315674Y35113256D01*
X12257179Y35293284D01*
X12162533Y35457216D01*
X12035871Y35597888D01*
X12017729Y35611069D01*
X11882734Y35709149D01*
X11882729Y35709152D01*
X11709807Y35786143D01*
X11709802Y35786145D01*
X11564001Y35817135D01*
X11524646Y35825500D01*
X11335354Y35825500D01*
X11302897Y35818602D01*
X11150197Y35786145D01*
X11150192Y35786143D01*
X10977270Y35709152D01*
X10977265Y35709149D01*
X10824129Y35597889D01*
X10697466Y35457215D01*
X10602821Y35293285D01*
X10602818Y35293278D01*
X10577356Y35214912D01*
X10544326Y35113256D01*
X10524540Y34925000D01*
X10544326Y34736744D01*
X10546292Y34730691D01*
X10602818Y34556723D01*
X10602821Y34556716D01*
X10697467Y34392784D01*
X10740115Y34345419D01*
X10824129Y34252112D01*
X10934216Y34172129D01*
X10976882Y34116799D01*
X10982861Y34047186D01*
X10950255Y33985391D01*
X10911768Y33958532D01*
X10850267Y33931150D01*
X10850265Y33931149D01*
X10697129Y33819889D01*
X10570466Y33679215D01*
X10475821Y33515285D01*
X10475818Y33515278D01*
X10417327Y33335260D01*
X10417326Y33335256D01*
X10397540Y33147000D01*
X300500Y33147000D01*
X300500Y35746237D01*
X1828787Y35746237D01*
X1858413Y35476987D01*
X1858415Y35476976D01*
X1906440Y35293278D01*
X1926928Y35214912D01*
X2032870Y34965610D01*
X2104998Y34847425D01*
X2173979Y34734395D01*
X2173986Y34734385D01*
X2347253Y34526181D01*
X2347259Y34526176D01*
X2548998Y34345418D01*
X2774910Y34195956D01*
X3020176Y34080980D01*
X3020183Y34080978D01*
X3020185Y34080977D01*
X3279557Y34002943D01*
X3279564Y34002942D01*
X3279569Y34002940D01*
X3547561Y33963500D01*
X3547566Y33963500D01*
X3750636Y33963500D01*
X3802133Y33967270D01*
X3953156Y33978323D01*
X4087027Y34008144D01*
X4217546Y34037218D01*
X4217548Y34037219D01*
X4217553Y34037220D01*
X4470558Y34133986D01*
X4706777Y34266559D01*
X4921177Y34432112D01*
X5109186Y34627119D01*
X5266799Y34847421D01*
X5340787Y34991331D01*
X5390649Y35088310D01*
X5390651Y35088316D01*
X5390656Y35088325D01*
X5478118Y35344695D01*
X5527319Y35611067D01*
X5537212Y35881765D01*
X5507586Y36151018D01*
X5439072Y36413088D01*
X5333130Y36662390D01*
X5192018Y36893610D01*
X5154471Y36938728D01*
X5018746Y37101820D01*
X5018740Y37101825D01*
X4817002Y37282582D01*
X4591092Y37432043D01*
X4587875Y37433551D01*
X4345824Y37547020D01*
X4345819Y37547022D01*
X4345814Y37547024D01*
X4086442Y37625058D01*
X4086428Y37625061D01*
X3970791Y37642079D01*
X3818439Y37664500D01*
X3615369Y37664500D01*
X3615364Y37664500D01*
X3412844Y37649677D01*
X3412831Y37649675D01*
X3148453Y37590783D01*
X3148446Y37590780D01*
X2895439Y37494013D01*
X2659226Y37361443D01*
X2444822Y37195888D01*
X2256822Y37000891D01*
X2256816Y37000884D01*
X2099202Y36780581D01*
X2099199Y36780576D01*
X1975350Y36539691D01*
X1975343Y36539673D01*
X1887884Y36283315D01*
X1887881Y36283301D01*
X1838681Y36016932D01*
X1838680Y36016925D01*
X1828787Y35746237D01*
X300500Y35746237D01*
X300500Y36955123D01*
X300613Y36958867D01*
X310149Y37116519D01*
X316601Y37223203D01*
X317505Y37230635D01*
X364901Y37489261D01*
X366691Y37496527D01*
X444918Y37747568D01*
X447569Y37754555D01*
X550132Y37982442D01*
X555486Y37994338D01*
X558956Y38000951D01*
X694993Y38225981D01*
X699236Y38232128D01*
X861406Y38439123D01*
X866350Y38444704D01*
X1052296Y38630650D01*
X1057877Y38635594D01*
X1264872Y38797764D01*
X1271019Y38802007D01*
X1496049Y38938044D01*
X1502662Y38941514D01*
X1742445Y39049431D01*
X1749432Y39052082D01*
X2000473Y39130309D01*
X2007739Y39132099D01*
X2266365Y39179495D01*
X2273797Y39180399D01*
X2474717Y39192552D01*
X2538134Y39196387D01*
X2541878Y39196500D01*
X2587595Y39196500D01*
X20276500Y39196500D01*
X20343539Y39176815D01*
G37*
%TD.AperFunction*%
%TD*%
M02*
