%TF.GenerationSoftware,KiCad,Pcbnew,7.0.6-0*%
%TF.CreationDate,2023-10-23T20:39:10-04:00*%
%TF.ProjectId,wled-esp32-control-board,776c6564-2d65-4737-9033-322d636f6e74,B*%
%TF.SameCoordinates,Original*%
%TF.FileFunction,Copper,L3,Inr*%
%TF.FilePolarity,Positive*%
%FSLAX46Y46*%
G04 Gerber Fmt 4.6, Leading zero omitted, Abs format (unit mm)*
G04 Created by KiCad (PCBNEW 7.0.6-0) date 2023-10-23 20:39:10*
%MOMM*%
%LPD*%
G01*
G04 APERTURE LIST*
G04 Aperture macros list*
%AMRoundRect*
0 Rectangle with rounded corners*
0 $1 Rounding radius*
0 $2 $3 $4 $5 $6 $7 $8 $9 X,Y pos of 4 corners*
0 Add a 4 corners polygon primitive as box body*
4,1,4,$2,$3,$4,$5,$6,$7,$8,$9,$2,$3,0*
0 Add four circle primitives for the rounded corners*
1,1,$1+$1,$2,$3*
1,1,$1+$1,$4,$5*
1,1,$1+$1,$6,$7*
1,1,$1+$1,$8,$9*
0 Add four rect primitives between the rounded corners*
20,1,$1+$1,$2,$3,$4,$5,0*
20,1,$1+$1,$4,$5,$6,$7,0*
20,1,$1+$1,$6,$7,$8,$9,0*
20,1,$1+$1,$8,$9,$2,$3,0*%
G04 Aperture macros list end*
%TA.AperFunction,ComponentPad*%
%ADD10O,2.300000X1.200000*%
%TD*%
%TA.AperFunction,ComponentPad*%
%ADD11O,2.000000X1.200000*%
%TD*%
%TA.AperFunction,ComponentPad*%
%ADD12R,1.700000X1.700000*%
%TD*%
%TA.AperFunction,ComponentPad*%
%ADD13O,1.700000X1.700000*%
%TD*%
%TA.AperFunction,ComponentPad*%
%ADD14R,1.650000X1.650000*%
%TD*%
%TA.AperFunction,ComponentPad*%
%ADD15C,1.650000*%
%TD*%
%TA.AperFunction,ComponentPad*%
%ADD16RoundRect,0.250200X-0.649800X-0.649800X0.649800X-0.649800X0.649800X0.649800X-0.649800X0.649800X0*%
%TD*%
%TA.AperFunction,ComponentPad*%
%ADD17C,1.800000*%
%TD*%
%TA.AperFunction,ComponentPad*%
%ADD18C,0.475000*%
%TD*%
%TA.AperFunction,ViaPad*%
%ADD19C,0.800000*%
%TD*%
%TA.AperFunction,Conductor*%
%ADD20C,2.000000*%
%TD*%
%TA.AperFunction,Conductor*%
%ADD21C,0.250000*%
%TD*%
G04 APERTURE END LIST*
D10*
%TO.N,GND*%
%TO.C,J201*%
X104431000Y-86348000D03*
D11*
X100156000Y-86348000D03*
D10*
X104431000Y-94998000D03*
D11*
X100156000Y-94998000D03*
%TD*%
D12*
%TO.N,/LED_PWR*%
%TO.C,SW101*%
X110495000Y-97536000D03*
D13*
%TO.N,VCC*%
X107955000Y-97536000D03*
%TD*%
D14*
%TO.N,GND*%
%TO.C,J104*%
X136271000Y-103759000D03*
D15*
%TO.N,Net-(J104-Pin_2)*%
X138811000Y-103759000D03*
%TO.N,/LED_PWR*%
X141351000Y-103759000D03*
%TD*%
D16*
%TO.N,/IR_RECV*%
%TO.C,U106*%
X126238000Y-104013000D03*
D17*
%TO.N,GND*%
X128778000Y-104013000D03*
%TO.N,+3.3V*%
X131318000Y-104013000D03*
%TD*%
D14*
%TO.N,GND*%
%TO.C,J102*%
X158623000Y-95377000D03*
D15*
%TO.N,Net-(J102-Pin_2)*%
X158623000Y-92837000D03*
%TO.N,/LED_PWR*%
X158623000Y-90297000D03*
%TD*%
D14*
%TO.N,GND*%
%TO.C,J101*%
X158623000Y-84836000D03*
D15*
%TO.N,Net-(J101-Pin_2)*%
X158623000Y-82296000D03*
%TO.N,/LED_PWR*%
X158623000Y-79756000D03*
%TD*%
D14*
%TO.N,GND*%
%TO.C,J103*%
X146812000Y-103759000D03*
D15*
%TO.N,Net-(J103-Pin_2)*%
X149352000Y-103759000D03*
%TO.N,/LED_PWR*%
X151892000Y-103759000D03*
%TD*%
D18*
%TO.N,GND*%
%TO.C,U103*%
X130943500Y-83310500D03*
X130943500Y-84835500D03*
X131706000Y-82548000D03*
X131706000Y-84073000D03*
X131706000Y-85598000D03*
X132468500Y-83310500D03*
X132468500Y-84835500D03*
X133231000Y-82548000D03*
X133231000Y-84073000D03*
X133231000Y-85598000D03*
X133993500Y-83310500D03*
X133993500Y-84835500D03*
%TD*%
D19*
%TO.N,+3.3V*%
X129794000Y-96266000D03*
X115062000Y-78486000D03*
%TO.N,GND*%
X113030000Y-81788000D03*
X117094000Y-77089000D03*
X139446000Y-79518497D03*
X144780000Y-82804000D03*
X144780000Y-80899000D03*
X122936000Y-105537000D03*
X108559600Y-77063200D03*
X144780000Y-93980000D03*
X144780000Y-92075000D03*
X105029000Y-97028000D03*
X120904000Y-77089000D03*
X113284000Y-97536000D03*
X99822000Y-84328000D03*
X144780000Y-86487000D03*
X117094000Y-89789000D03*
X144780000Y-84582000D03*
X113538000Y-105537000D03*
X144780000Y-90170000D03*
X122555000Y-82550000D03*
X111836200Y-95173800D03*
X143637000Y-76708000D03*
X127381000Y-96393000D03*
X105537000Y-76073000D03*
X144780000Y-88265000D03*
X109474000Y-71374000D03*
X111506000Y-89662000D03*
X137693449Y-79493048D03*
X107061000Y-76073000D03*
X99657500Y-79756000D03*
X115062000Y-97536000D03*
X103632000Y-84074000D03*
X116078000Y-90932000D03*
X122555000Y-76708000D03*
%TO.N,+5V*%
X149860000Y-81026000D03*
X99822000Y-81280000D03*
X149860000Y-88392000D03*
X104521000Y-79248000D03*
X105283000Y-80264000D03*
X149860000Y-84582000D03*
X116586000Y-94742000D03*
X149860000Y-91694000D03*
X104013000Y-80264000D03*
%TO.N,/EN*%
X121158000Y-89535000D03*
X104394000Y-82423000D03*
X119187200Y-83439000D03*
%TO.N,/IO0*%
X117221000Y-101473000D03*
X99568000Y-78359000D03*
X122428000Y-96139000D03*
X138557000Y-91821000D03*
%TO.N,/USB-TTL-AutoProgram/D_P*%
X106934000Y-91644100D03*
X107205174Y-89679174D03*
%TO.N,VCC*%
X108585000Y-93345000D03*
X107442000Y-94488000D03*
X108585000Y-94488000D03*
X107442000Y-86995000D03*
X109728000Y-86995000D03*
X107442000Y-93345000D03*
X108585000Y-86995000D03*
X108585000Y-85852000D03*
X107442000Y-85852000D03*
%TO.N,/ESP_TX*%
X139446000Y-80518000D03*
X115697000Y-81153000D03*
X109220000Y-74803000D03*
%TO.N,/ESP_RX*%
X109347000Y-73025000D03*
X137668000Y-80518000D03*
X114808000Y-80010000D03*
%TO.N,/USB-TTL-AutoProgram/DTR*%
X114109500Y-84010500D03*
X122148600Y-83566000D03*
%TO.N,/LED_PWR*%
X144018000Y-106680000D03*
X144018000Y-103886000D03*
X158496000Y-99060000D03*
X161290000Y-87630000D03*
X133858000Y-103886000D03*
X161290000Y-99060000D03*
X158496000Y-77216000D03*
X133858000Y-101092000D03*
X144018000Y-101092000D03*
X158496000Y-87630000D03*
X155702000Y-77216000D03*
X155702000Y-87630000D03*
X133858000Y-106680000D03*
X161290000Y-77216000D03*
X155702000Y-99060000D03*
%TD*%
D20*
%TO.N,+5V*%
X149860000Y-92456000D02*
X146558000Y-95758000D01*
X149860000Y-91694000D02*
X149860000Y-88392000D01*
X149860000Y-91694000D02*
X149860000Y-92456000D01*
X146558000Y-95758000D02*
X133096000Y-95758000D01*
X133096000Y-95758000D02*
X130607000Y-98247000D01*
X130607000Y-98247000D02*
X120091000Y-98247000D01*
X120091000Y-98247000D02*
X116586000Y-94742000D01*
D21*
%TO.N,+3.3V*%
X129794000Y-96266000D02*
X129794000Y-94107000D01*
X125730000Y-84455000D02*
X119761000Y-78486000D01*
X125730000Y-90043000D02*
X125730000Y-84455000D01*
X129794000Y-94107000D02*
X125730000Y-90043000D01*
X119761000Y-78486000D02*
X115062000Y-78486000D01*
D20*
%TO.N,+5V*%
X104394000Y-79502000D02*
X104394000Y-80010000D01*
X107696000Y-80264000D02*
X113792000Y-86360000D01*
X149860000Y-84582000D02*
X149860000Y-81026000D01*
X149860000Y-88392000D02*
X149860000Y-84582000D01*
X113792000Y-86360000D02*
X113792000Y-91948000D01*
X113792000Y-91948000D02*
X116586000Y-94742000D01*
X103886000Y-80264000D02*
X107696000Y-80264000D01*
%TO.N,VCC*%
X108585000Y-85852000D02*
X107442000Y-85852000D01*
X108585000Y-85852000D02*
X108805174Y-86072174D01*
X108805174Y-94267826D02*
X108585000Y-94488000D01*
X108585000Y-86995000D02*
X107442000Y-86995000D01*
X107442000Y-94488000D02*
X107442000Y-93345000D01*
X108805174Y-86072174D02*
X108805174Y-94267826D01*
X108585000Y-94488000D02*
X107442000Y-94488000D01*
%TD*%
%TA.AperFunction,Conductor*%
%TO.N,/LED_PWR*%
G36*
X162249039Y-76219685D02*
G01*
X162294794Y-76272489D01*
X162306000Y-76324000D01*
X162306000Y-100206000D01*
X162286315Y-100273039D01*
X162233511Y-100318794D01*
X162182000Y-100330000D01*
X154940000Y-100330000D01*
X154940000Y-107318000D01*
X154920315Y-107385039D01*
X154867511Y-107430794D01*
X154816000Y-107442000D01*
X133728000Y-107442000D01*
X133660961Y-107422315D01*
X133615206Y-107369511D01*
X133604000Y-107318000D01*
X133604000Y-104935941D01*
X140739742Y-104935941D01*
X140896090Y-105008847D01*
X140896099Y-105008851D01*
X141120031Y-105068852D01*
X141120041Y-105068854D01*
X141350999Y-105089061D01*
X141351001Y-105089061D01*
X141581958Y-105068854D01*
X141581968Y-105068852D01*
X141805900Y-105008851D01*
X141805909Y-105008847D01*
X141962257Y-104935941D01*
X151280742Y-104935941D01*
X151437090Y-105008847D01*
X151437099Y-105008851D01*
X151661031Y-105068852D01*
X151661041Y-105068854D01*
X151891999Y-105089061D01*
X151892001Y-105089061D01*
X152122958Y-105068854D01*
X152122968Y-105068852D01*
X152346900Y-105008851D01*
X152346909Y-105008847D01*
X152503257Y-104935941D01*
X151892001Y-104324685D01*
X151892000Y-104324685D01*
X151280742Y-104935941D01*
X141962257Y-104935941D01*
X141630068Y-104603752D01*
X145786500Y-104603752D01*
X145798131Y-104662229D01*
X145798132Y-104662230D01*
X145842447Y-104728552D01*
X145908769Y-104772867D01*
X145908770Y-104772868D01*
X145967247Y-104784499D01*
X145967250Y-104784500D01*
X145967252Y-104784500D01*
X147656750Y-104784500D01*
X147656751Y-104784499D01*
X147671568Y-104781552D01*
X147715229Y-104772868D01*
X147715229Y-104772867D01*
X147715231Y-104772867D01*
X147781552Y-104728552D01*
X147825867Y-104662231D01*
X147825867Y-104662229D01*
X147825868Y-104662229D01*
X147834552Y-104618568D01*
X147837500Y-104603748D01*
X147837500Y-103759000D01*
X148321538Y-103759000D01*
X148341337Y-103960031D01*
X148399978Y-104153345D01*
X148495198Y-104331488D01*
X148495201Y-104331492D01*
X148495202Y-104331494D01*
X148514688Y-104355238D01*
X148623352Y-104487647D01*
X148732016Y-104576824D01*
X148779506Y-104615798D01*
X148779509Y-104615799D01*
X148779511Y-104615801D01*
X148957654Y-104711021D01*
X148957656Y-104711021D01*
X148957659Y-104711023D01*
X149150967Y-104769662D01*
X149352000Y-104789462D01*
X149553033Y-104769662D01*
X149746341Y-104711023D01*
X149924494Y-104615798D01*
X150080647Y-104487647D01*
X150208798Y-104331494D01*
X150304023Y-104153341D01*
X150348896Y-104005411D01*
X150387192Y-103946975D01*
X150451005Y-103918519D01*
X150520072Y-103929079D01*
X150572465Y-103975303D01*
X150587331Y-104009316D01*
X150642148Y-104213900D01*
X150642153Y-104213914D01*
X150715056Y-104370257D01*
X150715057Y-104370257D01*
X151288429Y-103796886D01*
X151338123Y-103796886D01*
X151368884Y-103944915D01*
X151438442Y-104079156D01*
X151541638Y-104189652D01*
X151670819Y-104268209D01*
X151816404Y-104309000D01*
X151929622Y-104309000D01*
X152041783Y-104293584D01*
X152180458Y-104233349D01*
X152297739Y-104137934D01*
X152384928Y-104014415D01*
X152435559Y-103871953D01*
X152443286Y-103758999D01*
X152457684Y-103758999D01*
X153068942Y-104370256D01*
X153141847Y-104213909D01*
X153141851Y-104213900D01*
X153201852Y-103989968D01*
X153201854Y-103989958D01*
X153222061Y-103759000D01*
X153222061Y-103758999D01*
X153201854Y-103528041D01*
X153201852Y-103528031D01*
X153141851Y-103304099D01*
X153141849Y-103304095D01*
X153068940Y-103147743D01*
X152457684Y-103758999D01*
X152443286Y-103758999D01*
X152445877Y-103721114D01*
X152415116Y-103573085D01*
X152345558Y-103438844D01*
X152242362Y-103328348D01*
X152113181Y-103249791D01*
X151967596Y-103209000D01*
X151854378Y-103209000D01*
X151742217Y-103224416D01*
X151603542Y-103284651D01*
X151486261Y-103380066D01*
X151399072Y-103503585D01*
X151348441Y-103646047D01*
X151338123Y-103796886D01*
X151288429Y-103796886D01*
X151326315Y-103759000D01*
X150715058Y-103147743D01*
X150642152Y-103304090D01*
X150642148Y-103304099D01*
X150587331Y-103508683D01*
X150550966Y-103568344D01*
X150488119Y-103598873D01*
X150418744Y-103590578D01*
X150364866Y-103546093D01*
X150348896Y-103512588D01*
X150304023Y-103364659D01*
X150304021Y-103364656D01*
X150304021Y-103364654D01*
X150208801Y-103186511D01*
X150208799Y-103186509D01*
X150208798Y-103186506D01*
X150121489Y-103080119D01*
X150080647Y-103030352D01*
X149924495Y-102902203D01*
X149924488Y-102902198D01*
X149746345Y-102806978D01*
X149553031Y-102748337D01*
X149373962Y-102730701D01*
X149352000Y-102728538D01*
X149351999Y-102728538D01*
X149150968Y-102748337D01*
X148957654Y-102806978D01*
X148779511Y-102902198D01*
X148779504Y-102902203D01*
X148623352Y-103030352D01*
X148495203Y-103186504D01*
X148495198Y-103186511D01*
X148399978Y-103364654D01*
X148341337Y-103557968D01*
X148321538Y-103759000D01*
X147837500Y-103759000D01*
X147837500Y-102914252D01*
X147837500Y-102914251D01*
X147837500Y-102914249D01*
X147837499Y-102914247D01*
X147825868Y-102855770D01*
X147825867Y-102855769D01*
X147781552Y-102789447D01*
X147715230Y-102745132D01*
X147715229Y-102745131D01*
X147656752Y-102733500D01*
X147656748Y-102733500D01*
X145967252Y-102733500D01*
X145967247Y-102733500D01*
X145908770Y-102745131D01*
X145908769Y-102745132D01*
X145842447Y-102789447D01*
X145798132Y-102855769D01*
X145798131Y-102855770D01*
X145786500Y-102914247D01*
X145786500Y-104603752D01*
X141630068Y-104603752D01*
X141351001Y-104324685D01*
X141351000Y-104324685D01*
X140739742Y-104935941D01*
X133604000Y-104935941D01*
X133604000Y-104603752D01*
X135245500Y-104603752D01*
X135257131Y-104662229D01*
X135257132Y-104662230D01*
X135301447Y-104728552D01*
X135367769Y-104772867D01*
X135367770Y-104772868D01*
X135426247Y-104784499D01*
X135426250Y-104784500D01*
X135426252Y-104784500D01*
X137115750Y-104784500D01*
X137115751Y-104784499D01*
X137130568Y-104781552D01*
X137174229Y-104772868D01*
X137174229Y-104772867D01*
X137174231Y-104772867D01*
X137240552Y-104728552D01*
X137284867Y-104662231D01*
X137284867Y-104662229D01*
X137284868Y-104662229D01*
X137293552Y-104618568D01*
X137296500Y-104603748D01*
X137296500Y-103759000D01*
X137780538Y-103759000D01*
X137800337Y-103960031D01*
X137858978Y-104153345D01*
X137954198Y-104331488D01*
X137954201Y-104331492D01*
X137954202Y-104331494D01*
X137973688Y-104355238D01*
X138082352Y-104487647D01*
X138191016Y-104576824D01*
X138238506Y-104615798D01*
X138238509Y-104615799D01*
X138238511Y-104615801D01*
X138416654Y-104711021D01*
X138416656Y-104711021D01*
X138416659Y-104711023D01*
X138609967Y-104769662D01*
X138811000Y-104789462D01*
X139012033Y-104769662D01*
X139205341Y-104711023D01*
X139383494Y-104615798D01*
X139539647Y-104487647D01*
X139667798Y-104331494D01*
X139763023Y-104153341D01*
X139807896Y-104005411D01*
X139846192Y-103946975D01*
X139910005Y-103918519D01*
X139979072Y-103929079D01*
X140031465Y-103975303D01*
X140046331Y-104009316D01*
X140101148Y-104213900D01*
X140101153Y-104213914D01*
X140174056Y-104370257D01*
X140747428Y-103796886D01*
X140797123Y-103796886D01*
X140827884Y-103944915D01*
X140897442Y-104079156D01*
X141000638Y-104189652D01*
X141129819Y-104268209D01*
X141275404Y-104309000D01*
X141388622Y-104309000D01*
X141500783Y-104293584D01*
X141639458Y-104233349D01*
X141756739Y-104137934D01*
X141843928Y-104014415D01*
X141894559Y-103871953D01*
X141902286Y-103758999D01*
X141916685Y-103758999D01*
X142527941Y-104370256D01*
X142600847Y-104213909D01*
X142600851Y-104213900D01*
X142660852Y-103989968D01*
X142660854Y-103989958D01*
X142681061Y-103759000D01*
X142681061Y-103758999D01*
X142660854Y-103528041D01*
X142660852Y-103528031D01*
X142600851Y-103304099D01*
X142600849Y-103304095D01*
X142527940Y-103147743D01*
X141916685Y-103758999D01*
X141902286Y-103758999D01*
X141904877Y-103721114D01*
X141874116Y-103573085D01*
X141804558Y-103438844D01*
X141701362Y-103328348D01*
X141572181Y-103249791D01*
X141426596Y-103209000D01*
X141313378Y-103209000D01*
X141201217Y-103224416D01*
X141062542Y-103284651D01*
X140945261Y-103380066D01*
X140858072Y-103503585D01*
X140807441Y-103646047D01*
X140797123Y-103796886D01*
X140747428Y-103796886D01*
X140785315Y-103758999D01*
X140785315Y-103758998D01*
X140174058Y-103147742D01*
X140101152Y-103304090D01*
X140101148Y-103304099D01*
X140046331Y-103508683D01*
X140009966Y-103568344D01*
X139947119Y-103598873D01*
X139877744Y-103590578D01*
X139823866Y-103546093D01*
X139807896Y-103512588D01*
X139763023Y-103364659D01*
X139763021Y-103364656D01*
X139763021Y-103364654D01*
X139667801Y-103186511D01*
X139667799Y-103186509D01*
X139667798Y-103186506D01*
X139580489Y-103080119D01*
X139539647Y-103030352D01*
X139383495Y-102902203D01*
X139383488Y-102902198D01*
X139205345Y-102806978D01*
X139012031Y-102748337D01*
X138832962Y-102730701D01*
X138811000Y-102728538D01*
X138810999Y-102728538D01*
X138609968Y-102748337D01*
X138416654Y-102806978D01*
X138238511Y-102902198D01*
X138238504Y-102902203D01*
X138082352Y-103030352D01*
X137954203Y-103186504D01*
X137954198Y-103186511D01*
X137858978Y-103364654D01*
X137800337Y-103557968D01*
X137780538Y-103759000D01*
X137296500Y-103759000D01*
X137296500Y-102914252D01*
X137296500Y-102914251D01*
X137296500Y-102914249D01*
X137296499Y-102914247D01*
X137284868Y-102855770D01*
X137284867Y-102855769D01*
X137240552Y-102789447D01*
X137174230Y-102745132D01*
X137174229Y-102745131D01*
X137115752Y-102733500D01*
X137115748Y-102733500D01*
X135426252Y-102733500D01*
X135426247Y-102733500D01*
X135367770Y-102745131D01*
X135367769Y-102745132D01*
X135301447Y-102789447D01*
X135257132Y-102855769D01*
X135257131Y-102855770D01*
X135245500Y-102914247D01*
X135245500Y-104603752D01*
X133604000Y-104603752D01*
X133604000Y-102582058D01*
X140739743Y-102582058D01*
X141351000Y-103193315D01*
X141351001Y-103193315D01*
X141962256Y-102582058D01*
X151280743Y-102582058D01*
X151892000Y-103193315D01*
X151892001Y-103193315D01*
X152503257Y-102582057D01*
X152503257Y-102582056D01*
X152346914Y-102509153D01*
X152346900Y-102509148D01*
X152122968Y-102449147D01*
X152122958Y-102449145D01*
X151892001Y-102428939D01*
X151891999Y-102428939D01*
X151661041Y-102449145D01*
X151661031Y-102449147D01*
X151437099Y-102509148D01*
X151437090Y-102509152D01*
X151280743Y-102582058D01*
X141962256Y-102582058D01*
X141962257Y-102582057D01*
X141962257Y-102582056D01*
X141805914Y-102509153D01*
X141805900Y-102509148D01*
X141581968Y-102449147D01*
X141581958Y-102449145D01*
X141351001Y-102428939D01*
X141350999Y-102428939D01*
X141120041Y-102449145D01*
X141120031Y-102449147D01*
X140896099Y-102509148D01*
X140896090Y-102509152D01*
X140739743Y-102582058D01*
X133604000Y-102582058D01*
X133604000Y-97406000D01*
X133623685Y-97338961D01*
X133676489Y-97293206D01*
X133728000Y-97282000D01*
X147574000Y-97282000D01*
X151384000Y-97282000D01*
X151384000Y-96221752D01*
X157597500Y-96221752D01*
X157609131Y-96280229D01*
X157609132Y-96280230D01*
X157653447Y-96346552D01*
X157719769Y-96390867D01*
X157719770Y-96390868D01*
X157778247Y-96402499D01*
X157778250Y-96402500D01*
X157778252Y-96402500D01*
X159467750Y-96402500D01*
X159467751Y-96402499D01*
X159482568Y-96399552D01*
X159526229Y-96390868D01*
X159526229Y-96390867D01*
X159526231Y-96390867D01*
X159592552Y-96346552D01*
X159636867Y-96280231D01*
X159636867Y-96280229D01*
X159636868Y-96280229D01*
X159648499Y-96221752D01*
X159648500Y-96221750D01*
X159648500Y-94532249D01*
X159648499Y-94532247D01*
X159636868Y-94473770D01*
X159636867Y-94473769D01*
X159592552Y-94407447D01*
X159526230Y-94363132D01*
X159526229Y-94363131D01*
X159467752Y-94351500D01*
X159467748Y-94351500D01*
X157778252Y-94351500D01*
X157778247Y-94351500D01*
X157719770Y-94363131D01*
X157719769Y-94363132D01*
X157653447Y-94407447D01*
X157609132Y-94473769D01*
X157609131Y-94473770D01*
X157597500Y-94532247D01*
X157597500Y-96221752D01*
X151384000Y-96221752D01*
X151384000Y-92837000D01*
X157592538Y-92837000D01*
X157612337Y-93038031D01*
X157670978Y-93231345D01*
X157766198Y-93409488D01*
X157766203Y-93409495D01*
X157894352Y-93565647D01*
X158003016Y-93654824D01*
X158050506Y-93693798D01*
X158050509Y-93693799D01*
X158050511Y-93693801D01*
X158228654Y-93789021D01*
X158228656Y-93789021D01*
X158228659Y-93789023D01*
X158421967Y-93847662D01*
X158623000Y-93867462D01*
X158824033Y-93847662D01*
X159017341Y-93789023D01*
X159195494Y-93693798D01*
X159351647Y-93565647D01*
X159479798Y-93409494D01*
X159575023Y-93231341D01*
X159633662Y-93038033D01*
X159653462Y-92837000D01*
X159633662Y-92635967D01*
X159575023Y-92442659D01*
X159575021Y-92442656D01*
X159575021Y-92442654D01*
X159479801Y-92264511D01*
X159479799Y-92264509D01*
X159479798Y-92264506D01*
X159364358Y-92123841D01*
X159351647Y-92108352D01*
X159195495Y-91980203D01*
X159195488Y-91980198D01*
X159017347Y-91884979D01*
X159017341Y-91884977D01*
X158869412Y-91840103D01*
X158810975Y-91801806D01*
X158782519Y-91737994D01*
X158793079Y-91668927D01*
X158839303Y-91616533D01*
X158873316Y-91601668D01*
X159077900Y-91546851D01*
X159077909Y-91546847D01*
X159234257Y-91473941D01*
X158623001Y-90862685D01*
X158623000Y-90862685D01*
X158011742Y-91473941D01*
X158168090Y-91546847D01*
X158168099Y-91546851D01*
X158372683Y-91601668D01*
X158432343Y-91638033D01*
X158462873Y-91700879D01*
X158454579Y-91770255D01*
X158410094Y-91824133D01*
X158376586Y-91840103D01*
X158228657Y-91884977D01*
X158050511Y-91980198D01*
X158050504Y-91980203D01*
X157894352Y-92108352D01*
X157766203Y-92264504D01*
X157766198Y-92264511D01*
X157670978Y-92442654D01*
X157612337Y-92635968D01*
X157592538Y-92837000D01*
X151384000Y-92837000D01*
X151384000Y-90297000D01*
X157292939Y-90297000D01*
X157313145Y-90527958D01*
X157313147Y-90527968D01*
X157373148Y-90751900D01*
X157373153Y-90751914D01*
X157446056Y-90908257D01*
X158019428Y-90334886D01*
X158069123Y-90334886D01*
X158099884Y-90482915D01*
X158169442Y-90617156D01*
X158272638Y-90727652D01*
X158401819Y-90806209D01*
X158547404Y-90847000D01*
X158660622Y-90847000D01*
X158772783Y-90831584D01*
X158911458Y-90771349D01*
X159028739Y-90675934D01*
X159115928Y-90552415D01*
X159166559Y-90409953D01*
X159174285Y-90297000D01*
X159188685Y-90297000D01*
X159799941Y-90908256D01*
X159872847Y-90751909D01*
X159872851Y-90751900D01*
X159932852Y-90527968D01*
X159932854Y-90527958D01*
X159953060Y-90297000D01*
X159953060Y-90296999D01*
X159932854Y-90066041D01*
X159932852Y-90066031D01*
X159872851Y-89842099D01*
X159872849Y-89842095D01*
X159799940Y-89685743D01*
X159188685Y-90296999D01*
X159188685Y-90297000D01*
X159174285Y-90297000D01*
X159176877Y-90259114D01*
X159146116Y-90111085D01*
X159076558Y-89976844D01*
X158973362Y-89866348D01*
X158844181Y-89787791D01*
X158698596Y-89747000D01*
X158585378Y-89747000D01*
X158473217Y-89762416D01*
X158334542Y-89822651D01*
X158217261Y-89918066D01*
X158130072Y-90041585D01*
X158079441Y-90184047D01*
X158069123Y-90334886D01*
X158019428Y-90334886D01*
X158057315Y-90296999D01*
X158057315Y-90296998D01*
X157446058Y-89685742D01*
X157373152Y-89842090D01*
X157373148Y-89842099D01*
X157313147Y-90066031D01*
X157313145Y-90066041D01*
X157292939Y-90296999D01*
X157292939Y-90297000D01*
X151384000Y-90297000D01*
X151384000Y-89120058D01*
X158011743Y-89120058D01*
X158623000Y-89731315D01*
X158623001Y-89731315D01*
X159234257Y-89120057D01*
X159234257Y-89120056D01*
X159077914Y-89047153D01*
X159077900Y-89047148D01*
X158853968Y-88987147D01*
X158853958Y-88987145D01*
X158623001Y-88966939D01*
X158622999Y-88966939D01*
X158392041Y-88987145D01*
X158392031Y-88987147D01*
X158168099Y-89047148D01*
X158168090Y-89047152D01*
X158011743Y-89120058D01*
X151384000Y-89120058D01*
X151384000Y-85680752D01*
X157597500Y-85680752D01*
X157609131Y-85739229D01*
X157609132Y-85739230D01*
X157653447Y-85805552D01*
X157719769Y-85849867D01*
X157719770Y-85849868D01*
X157778247Y-85861499D01*
X157778250Y-85861500D01*
X157778252Y-85861500D01*
X159467750Y-85861500D01*
X159467751Y-85861499D01*
X159482568Y-85858552D01*
X159526229Y-85849868D01*
X159526229Y-85849867D01*
X159526231Y-85849867D01*
X159592552Y-85805552D01*
X159636867Y-85739231D01*
X159636867Y-85739229D01*
X159636868Y-85739229D01*
X159648499Y-85680752D01*
X159648500Y-85680750D01*
X159648500Y-83991249D01*
X159648499Y-83991247D01*
X159636868Y-83932770D01*
X159636867Y-83932769D01*
X159592552Y-83866447D01*
X159526230Y-83822132D01*
X159526229Y-83822131D01*
X159467752Y-83810500D01*
X159467748Y-83810500D01*
X157778252Y-83810500D01*
X157778247Y-83810500D01*
X157719770Y-83822131D01*
X157719769Y-83822132D01*
X157653447Y-83866447D01*
X157609132Y-83932769D01*
X157609131Y-83932770D01*
X157597500Y-83991247D01*
X157597500Y-85680752D01*
X151384000Y-85680752D01*
X151384000Y-82296000D01*
X157592538Y-82296000D01*
X157612337Y-82497031D01*
X157670978Y-82690345D01*
X157766198Y-82868488D01*
X157766203Y-82868495D01*
X157894352Y-83024647D01*
X157951156Y-83071264D01*
X158050506Y-83152798D01*
X158050509Y-83152799D01*
X158050511Y-83152801D01*
X158228654Y-83248021D01*
X158228656Y-83248021D01*
X158228659Y-83248023D01*
X158421967Y-83306662D01*
X158623000Y-83326462D01*
X158824033Y-83306662D01*
X159017341Y-83248023D01*
X159195494Y-83152798D01*
X159351647Y-83024647D01*
X159479798Y-82868494D01*
X159575023Y-82690341D01*
X159633662Y-82497033D01*
X159653462Y-82296000D01*
X159633662Y-82094967D01*
X159575023Y-81901659D01*
X159575021Y-81901656D01*
X159575021Y-81901654D01*
X159479801Y-81723511D01*
X159479799Y-81723509D01*
X159479798Y-81723506D01*
X159440824Y-81676016D01*
X159351647Y-81567352D01*
X159195495Y-81439203D01*
X159195488Y-81439198D01*
X159017347Y-81343979D01*
X159017341Y-81343977D01*
X158869412Y-81299103D01*
X158810975Y-81260806D01*
X158782519Y-81196994D01*
X158793079Y-81127927D01*
X158839303Y-81075533D01*
X158873316Y-81060668D01*
X159077900Y-81005851D01*
X159077909Y-81005847D01*
X159234257Y-80932941D01*
X158623001Y-80321685D01*
X158623000Y-80321685D01*
X158011742Y-80932941D01*
X158168090Y-81005847D01*
X158168099Y-81005851D01*
X158372683Y-81060668D01*
X158432343Y-81097033D01*
X158462873Y-81159879D01*
X158454579Y-81229255D01*
X158410094Y-81283133D01*
X158376586Y-81299103D01*
X158228657Y-81343977D01*
X158050511Y-81439198D01*
X158050504Y-81439203D01*
X157894352Y-81567352D01*
X157766203Y-81723504D01*
X157766198Y-81723511D01*
X157670978Y-81901654D01*
X157612337Y-82094968D01*
X157592538Y-82296000D01*
X151384000Y-82296000D01*
X151384000Y-79756000D01*
X157292939Y-79756000D01*
X157313145Y-79986958D01*
X157313147Y-79986968D01*
X157373148Y-80210900D01*
X157373153Y-80210914D01*
X157446056Y-80367257D01*
X157446057Y-80367257D01*
X158019429Y-79793886D01*
X158069123Y-79793886D01*
X158099884Y-79941915D01*
X158169442Y-80076156D01*
X158272638Y-80186652D01*
X158401819Y-80265209D01*
X158547404Y-80306000D01*
X158660622Y-80306000D01*
X158772783Y-80290584D01*
X158911458Y-80230349D01*
X159028739Y-80134934D01*
X159115928Y-80011415D01*
X159166559Y-79868953D01*
X159174286Y-79755999D01*
X159188685Y-79755999D01*
X159799942Y-80367256D01*
X159872847Y-80210909D01*
X159872851Y-80210900D01*
X159932852Y-79986968D01*
X159932854Y-79986958D01*
X159953060Y-79756000D01*
X159953060Y-79755999D01*
X159932854Y-79525041D01*
X159932852Y-79525031D01*
X159872851Y-79301099D01*
X159872849Y-79301095D01*
X159799940Y-79144743D01*
X159188685Y-79755998D01*
X159188685Y-79755999D01*
X159174286Y-79755999D01*
X159176877Y-79718114D01*
X159146116Y-79570085D01*
X159076558Y-79435844D01*
X158973362Y-79325348D01*
X158844181Y-79246791D01*
X158698596Y-79206000D01*
X158585378Y-79206000D01*
X158473217Y-79221416D01*
X158334542Y-79281651D01*
X158217261Y-79377066D01*
X158130072Y-79500585D01*
X158079441Y-79643047D01*
X158069123Y-79793886D01*
X158019429Y-79793886D01*
X158057315Y-79756000D01*
X157446058Y-79144743D01*
X157373152Y-79301090D01*
X157373148Y-79301099D01*
X157313147Y-79525031D01*
X157313145Y-79525041D01*
X157292939Y-79755999D01*
X157292939Y-79756000D01*
X151384000Y-79756000D01*
X151384000Y-78579058D01*
X158011743Y-78579058D01*
X158623000Y-79190315D01*
X158623001Y-79190315D01*
X159234257Y-78579057D01*
X159234257Y-78579056D01*
X159077914Y-78506153D01*
X159077900Y-78506148D01*
X158853968Y-78446147D01*
X158853958Y-78446145D01*
X158623001Y-78425939D01*
X158622999Y-78425939D01*
X158392041Y-78446145D01*
X158392031Y-78446147D01*
X158168099Y-78506148D01*
X158168090Y-78506152D01*
X158011743Y-78579058D01*
X151384000Y-78579058D01*
X151384000Y-76323999D01*
X151403685Y-76256961D01*
X151456489Y-76211206D01*
X151508000Y-76200000D01*
X162182000Y-76200000D01*
X162249039Y-76219685D01*
G37*
%TD.AperFunction*%
%TD*%
%TA.AperFunction,Conductor*%
%TO.N,GND*%
G36*
X118260539Y-68773185D02*
G01*
X118306294Y-68825989D01*
X118317500Y-68877500D01*
X118317500Y-75505784D01*
X118314437Y-75527745D01*
X118313598Y-75536792D01*
X118317235Y-75576035D01*
X118317500Y-75581758D01*
X118317500Y-75592843D01*
X118317501Y-75592855D01*
X118319536Y-75603749D01*
X118320327Y-75609415D01*
X118323964Y-75648658D01*
X118326443Y-75657372D01*
X118329667Y-75666989D01*
X118332938Y-75675432D01*
X118332939Y-75675433D01*
X118353690Y-75708948D01*
X118356467Y-75713933D01*
X118366789Y-75734662D01*
X118374042Y-75749228D01*
X118379526Y-75756490D01*
X118385957Y-75764235D01*
X118392080Y-75770951D01*
X118423535Y-75794706D01*
X118427943Y-75798366D01*
X118428006Y-75798423D01*
X118457067Y-75824916D01*
X118457068Y-75824916D01*
X118457069Y-75824917D01*
X118464797Y-75829702D01*
X118473580Y-75834594D01*
X118481732Y-75838653D01*
X118481736Y-75838656D01*
X118519660Y-75849445D01*
X118525054Y-75851253D01*
X118561827Y-75865500D01*
X118561829Y-75865500D01*
X118570755Y-75867169D01*
X118580742Y-75868562D01*
X118589792Y-75869401D01*
X118589792Y-75869400D01*
X118589793Y-75869401D01*
X118598847Y-75868562D01*
X118629036Y-75865765D01*
X118634759Y-75865500D01*
X147641785Y-75865500D01*
X147663742Y-75868562D01*
X147672792Y-75869401D01*
X147672792Y-75869400D01*
X147672793Y-75869401D01*
X147681847Y-75868562D01*
X147712036Y-75865765D01*
X147717759Y-75865500D01*
X147728844Y-75865500D01*
X147739757Y-75863459D01*
X147745387Y-75862673D01*
X147784660Y-75859035D01*
X147784665Y-75859032D01*
X147793421Y-75856541D01*
X147802940Y-75853350D01*
X147811431Y-75850061D01*
X147811433Y-75850061D01*
X147844965Y-75829297D01*
X147849919Y-75826538D01*
X147885228Y-75808958D01*
X147885228Y-75808957D01*
X147892523Y-75803448D01*
X147900197Y-75797076D01*
X147906949Y-75790921D01*
X147906949Y-75790920D01*
X147906952Y-75790919D01*
X147930715Y-75759449D01*
X147934341Y-75755082D01*
X147960916Y-75725933D01*
X147960918Y-75725927D01*
X147965721Y-75718170D01*
X147970579Y-75709448D01*
X147974650Y-75701271D01*
X147974656Y-75701264D01*
X147985445Y-75663338D01*
X147987251Y-75657951D01*
X148001500Y-75621173D01*
X148001500Y-75621170D01*
X148001501Y-75621168D01*
X148003172Y-75612229D01*
X148004561Y-75602276D01*
X148005401Y-75593207D01*
X148001765Y-75553964D01*
X148001500Y-75548241D01*
X148001500Y-72203763D01*
X157145787Y-72203763D01*
X157175413Y-72473013D01*
X157175415Y-72473024D01*
X157223440Y-72656722D01*
X157243928Y-72735088D01*
X157349870Y-72984390D01*
X157421998Y-73102575D01*
X157490979Y-73215605D01*
X157490986Y-73215615D01*
X157664253Y-73423819D01*
X157664259Y-73423824D01*
X157865998Y-73604582D01*
X158091910Y-73754044D01*
X158337176Y-73869020D01*
X158337183Y-73869022D01*
X158337185Y-73869023D01*
X158596557Y-73947057D01*
X158596564Y-73947058D01*
X158596569Y-73947060D01*
X158864561Y-73986500D01*
X158864566Y-73986500D01*
X159067636Y-73986500D01*
X159119133Y-73982730D01*
X159270156Y-73971677D01*
X159404027Y-73941856D01*
X159534546Y-73912782D01*
X159534548Y-73912781D01*
X159534553Y-73912780D01*
X159787558Y-73816014D01*
X160023777Y-73683441D01*
X160238177Y-73517888D01*
X160426186Y-73322881D01*
X160583799Y-73102579D01*
X160657787Y-72958669D01*
X160707649Y-72861690D01*
X160707651Y-72861684D01*
X160707656Y-72861675D01*
X160795118Y-72605305D01*
X160844319Y-72338933D01*
X160854212Y-72068235D01*
X160824586Y-71798982D01*
X160756072Y-71536912D01*
X160650130Y-71287610D01*
X160509018Y-71056390D01*
X160471471Y-71011272D01*
X160335746Y-70848180D01*
X160335740Y-70848175D01*
X160134002Y-70667418D01*
X159908092Y-70517957D01*
X159904875Y-70516449D01*
X159662824Y-70402980D01*
X159662819Y-70402978D01*
X159662814Y-70402976D01*
X159403442Y-70324942D01*
X159403428Y-70324939D01*
X159287791Y-70307921D01*
X159135439Y-70285500D01*
X158932369Y-70285500D01*
X158932364Y-70285500D01*
X158729844Y-70300323D01*
X158729831Y-70300325D01*
X158465453Y-70359217D01*
X158465446Y-70359220D01*
X158212439Y-70455987D01*
X157976226Y-70588557D01*
X157761822Y-70754112D01*
X157573822Y-70949109D01*
X157573816Y-70949116D01*
X157416202Y-71169419D01*
X157416199Y-71169424D01*
X157292350Y-71410309D01*
X157292343Y-71410327D01*
X157204884Y-71666685D01*
X157204881Y-71666699D01*
X157155681Y-71933068D01*
X157155680Y-71933075D01*
X157145787Y-72203763D01*
X148001500Y-72203763D01*
X148001500Y-68877500D01*
X148021185Y-68810461D01*
X148073989Y-68764706D01*
X148125500Y-68753500D01*
X160270964Y-68753500D01*
X160274927Y-68753627D01*
X160458079Y-68765353D01*
X160540173Y-68770610D01*
X160547583Y-68771536D01*
X160807135Y-68820049D01*
X160814389Y-68821865D01*
X161066187Y-68901306D01*
X161073176Y-68903985D01*
X161313556Y-69013195D01*
X161320176Y-69016699D01*
X161545651Y-69154095D01*
X161551779Y-69158357D01*
X161611709Y-69205653D01*
X161759046Y-69321929D01*
X161764638Y-69326918D01*
X161796222Y-69358726D01*
X161944379Y-69507937D01*
X161950661Y-69514263D01*
X161955603Y-69519880D01*
X162031007Y-69616831D01*
X162117700Y-69728298D01*
X162121934Y-69734477D01*
X162232696Y-69919176D01*
X162257724Y-69960910D01*
X162261183Y-69967558D01*
X162368683Y-70208698D01*
X162371315Y-70215714D01*
X162448968Y-70468057D01*
X162450736Y-70475339D01*
X162497404Y-70735194D01*
X162498281Y-70742636D01*
X162513395Y-71008135D01*
X162513495Y-71011880D01*
X162513303Y-71065653D01*
X162513500Y-71068199D01*
X162513500Y-75604851D01*
X162493815Y-75671890D01*
X162441011Y-75717645D01*
X162371853Y-75727589D01*
X162354564Y-75723828D01*
X162324426Y-75714978D01*
X162324421Y-75714976D01*
X162222690Y-75700350D01*
X162182000Y-75694500D01*
X151508000Y-75694500D01*
X151507991Y-75694500D01*
X151507990Y-75694501D01*
X151400549Y-75706052D01*
X151400537Y-75706054D01*
X151349027Y-75717260D01*
X151246502Y-75751383D01*
X151246496Y-75751386D01*
X151125462Y-75829171D01*
X151125451Y-75829179D01*
X151072657Y-75874925D01*
X151072654Y-75874928D01*
X150978438Y-75983656D01*
X150978436Y-75983660D01*
X150918661Y-76114543D01*
X150908424Y-76149406D01*
X150898978Y-76181577D01*
X150898976Y-76181583D01*
X150898975Y-76181585D01*
X150898974Y-76181589D01*
X150878500Y-76323998D01*
X150878500Y-79663787D01*
X150858815Y-79730826D01*
X150806011Y-79776581D01*
X150736853Y-79786525D01*
X150686686Y-79767601D01*
X150683514Y-79765529D01*
X150683510Y-79765526D01*
X150683509Y-79765526D01*
X150606502Y-79723852D01*
X150464811Y-79647172D01*
X150464802Y-79647169D01*
X150229616Y-79566429D01*
X149984335Y-79525500D01*
X149735665Y-79525500D01*
X149490383Y-79566429D01*
X149255197Y-79647169D01*
X149255188Y-79647172D01*
X149036493Y-79765524D01*
X148840257Y-79918261D01*
X148671833Y-80101217D01*
X148535826Y-80309393D01*
X148435936Y-80537118D01*
X148374892Y-80778175D01*
X148374890Y-80778186D01*
X148359500Y-80963935D01*
X148359500Y-91783109D01*
X148339815Y-91850148D01*
X148323181Y-91870790D01*
X145972791Y-94221181D01*
X145911468Y-94254666D01*
X145885110Y-94257500D01*
X133193019Y-94257500D01*
X133185347Y-94257024D01*
X133158221Y-94253643D01*
X133158219Y-94253643D01*
X133064965Y-94257500D01*
X133033933Y-94257500D01*
X133003008Y-94260062D01*
X133003009Y-94260062D01*
X132909765Y-94263918D01*
X132909751Y-94263920D01*
X132883017Y-94269526D01*
X132875409Y-94270635D01*
X132848185Y-94272890D01*
X132848175Y-94272892D01*
X132775815Y-94291215D01*
X132757725Y-94295797D01*
X132743755Y-94298726D01*
X132666390Y-94314948D01*
X132666375Y-94314953D01*
X132640920Y-94324886D01*
X132633599Y-94327231D01*
X132607119Y-94333937D01*
X132607113Y-94333939D01*
X132521667Y-94371419D01*
X132434723Y-94405345D01*
X132411247Y-94419333D01*
X132404413Y-94422851D01*
X132379388Y-94433829D01*
X132379385Y-94433830D01*
X132301275Y-94484862D01*
X132221101Y-94532637D01*
X132200250Y-94550297D01*
X132194087Y-94554892D01*
X132171215Y-94569835D01*
X132171212Y-94569838D01*
X132102554Y-94633042D01*
X132078871Y-94653101D01*
X132056934Y-94675038D01*
X131988261Y-94738257D01*
X131988256Y-94738262D01*
X131971472Y-94759826D01*
X131966383Y-94765589D01*
X130813438Y-95918532D01*
X130752115Y-95952017D01*
X130682423Y-95947033D01*
X130626490Y-95905161D01*
X130618370Y-95892851D01*
X130603344Y-95866825D01*
X130526533Y-95733784D01*
X130474650Y-95676163D01*
X130451348Y-95650283D01*
X130421118Y-95587292D01*
X130419498Y-95567323D01*
X130419499Y-94189749D01*
X130421224Y-94174128D01*
X130420938Y-94174101D01*
X130421671Y-94166341D01*
X130421673Y-94166333D01*
X130419500Y-94097185D01*
X130419500Y-94067650D01*
X130418631Y-94060772D01*
X130418172Y-94054943D01*
X130417887Y-94045886D01*
X130416709Y-94008373D01*
X130411122Y-93989144D01*
X130407174Y-93970084D01*
X130404664Y-93950208D01*
X130404663Y-93950206D01*
X130404663Y-93950204D01*
X130387512Y-93906887D01*
X130385619Y-93901358D01*
X130372618Y-93856609D01*
X130372616Y-93856606D01*
X130362423Y-93839371D01*
X130353861Y-93821894D01*
X130346487Y-93803270D01*
X130346486Y-93803268D01*
X130319079Y-93765545D01*
X130315888Y-93760686D01*
X130292172Y-93720583D01*
X130292165Y-93720574D01*
X130278006Y-93706415D01*
X130265368Y-93691619D01*
X130253594Y-93675413D01*
X130217688Y-93645709D01*
X130213376Y-93641786D01*
X128392590Y-91821000D01*
X137651540Y-91821000D01*
X137671326Y-92009256D01*
X137671327Y-92009259D01*
X137729818Y-92189277D01*
X137729821Y-92189284D01*
X137824467Y-92353216D01*
X137899794Y-92436875D01*
X137951129Y-92493888D01*
X138104265Y-92605148D01*
X138104270Y-92605151D01*
X138277192Y-92682142D01*
X138277197Y-92682144D01*
X138462354Y-92721500D01*
X138462355Y-92721500D01*
X138651644Y-92721500D01*
X138651646Y-92721500D01*
X138836803Y-92682144D01*
X139009730Y-92605151D01*
X139162871Y-92493888D01*
X139289533Y-92353216D01*
X139384179Y-92189284D01*
X139442674Y-92009256D01*
X139462460Y-91821000D01*
X139442674Y-91632744D01*
X139384179Y-91452716D01*
X139289533Y-91288784D01*
X139162871Y-91148112D01*
X139113009Y-91111885D01*
X139009734Y-91036851D01*
X139009729Y-91036848D01*
X138836807Y-90959857D01*
X138836802Y-90959855D01*
X138691001Y-90928865D01*
X138651646Y-90920500D01*
X138462354Y-90920500D01*
X138429897Y-90927398D01*
X138277197Y-90959855D01*
X138277192Y-90959857D01*
X138104270Y-91036848D01*
X138104265Y-91036851D01*
X137951129Y-91148111D01*
X137824466Y-91288785D01*
X137729821Y-91452715D01*
X137729818Y-91452722D01*
X137671327Y-91632740D01*
X137671326Y-91632744D01*
X137651540Y-91821000D01*
X128392590Y-91821000D01*
X126391818Y-89820227D01*
X126358333Y-89758905D01*
X126355499Y-89732547D01*
X126355499Y-86262508D01*
X131377364Y-86262508D01*
X131383986Y-86266668D01*
X131383989Y-86266670D01*
X131540857Y-86321560D01*
X131705997Y-86340167D01*
X131706003Y-86340167D01*
X131871140Y-86321560D01*
X132028015Y-86266667D01*
X132034633Y-86262508D01*
X132902364Y-86262508D01*
X132908986Y-86266668D01*
X132908989Y-86266670D01*
X133065857Y-86321560D01*
X133230997Y-86340167D01*
X133231003Y-86340167D01*
X133396140Y-86321560D01*
X133553015Y-86266667D01*
X133559633Y-86262508D01*
X133231001Y-85933875D01*
X133231000Y-85933875D01*
X132902364Y-86262508D01*
X132034633Y-86262508D01*
X131706001Y-85933875D01*
X131706000Y-85933875D01*
X131377364Y-86262508D01*
X126355499Y-86262508D01*
X126355499Y-85500008D01*
X130614864Y-85500008D01*
X130621486Y-85504168D01*
X130621489Y-85504170D01*
X130778357Y-85559060D01*
X130863508Y-85568654D01*
X130927922Y-85595720D01*
X130967477Y-85653315D01*
X130972845Y-85677990D01*
X130982439Y-85763140D01*
X131037333Y-85920018D01*
X131041489Y-85926634D01*
X131337632Y-85630492D01*
X131606000Y-85630492D01*
X131644197Y-85683065D01*
X131690162Y-85698000D01*
X131721838Y-85698000D01*
X131767803Y-85683065D01*
X131806000Y-85630492D01*
X131806000Y-85598000D01*
X132041875Y-85598000D01*
X132370508Y-85926633D01*
X132376921Y-85925911D01*
X132415843Y-85891487D01*
X132484897Y-85880841D01*
X132548744Y-85909219D01*
X132563545Y-85926302D01*
X132566489Y-85926634D01*
X132862632Y-85630492D01*
X133131000Y-85630492D01*
X133169197Y-85683065D01*
X133215162Y-85698000D01*
X133246838Y-85698000D01*
X133292803Y-85683065D01*
X133331000Y-85630492D01*
X133331000Y-85598000D01*
X133566875Y-85598000D01*
X133895508Y-85926633D01*
X133899667Y-85920015D01*
X133954560Y-85763140D01*
X133964154Y-85677991D01*
X133991220Y-85613577D01*
X134048815Y-85574022D01*
X134073491Y-85568654D01*
X134158640Y-85559060D01*
X134315515Y-85504167D01*
X134322133Y-85500008D01*
X133993499Y-85171375D01*
X133993498Y-85171375D01*
X133611662Y-85553213D01*
X133566875Y-85598000D01*
X133331000Y-85598000D01*
X133331000Y-85565508D01*
X133292803Y-85512935D01*
X133246838Y-85498000D01*
X133215162Y-85498000D01*
X133169197Y-85512935D01*
X133131000Y-85565508D01*
X133131000Y-85630492D01*
X132862632Y-85630492D01*
X132895124Y-85598000D01*
X132850338Y-85553212D01*
X132468500Y-85171375D01*
X132041875Y-85598000D01*
X131806000Y-85598000D01*
X131806000Y-85565508D01*
X131767803Y-85512935D01*
X131721838Y-85498000D01*
X131690162Y-85498000D01*
X131644197Y-85512935D01*
X131606000Y-85565508D01*
X131606000Y-85630492D01*
X131337632Y-85630492D01*
X131370124Y-85598000D01*
X131325338Y-85553212D01*
X130943501Y-85171375D01*
X130943500Y-85171375D01*
X130614864Y-85500008D01*
X126355499Y-85500008D01*
X126355499Y-84835502D01*
X130201333Y-84835502D01*
X130219939Y-85000640D01*
X130274833Y-85157518D01*
X130278989Y-85164133D01*
X130278990Y-85164134D01*
X130575130Y-84867992D01*
X130843500Y-84867992D01*
X130881697Y-84920565D01*
X130927662Y-84935500D01*
X130959338Y-84935500D01*
X131005303Y-84920565D01*
X131043500Y-84867992D01*
X131043500Y-84835500D01*
X131279375Y-84835500D01*
X131705999Y-85262124D01*
X132087838Y-84880287D01*
X132100132Y-84867992D01*
X132368500Y-84867992D01*
X132406697Y-84920565D01*
X132452662Y-84935500D01*
X132484338Y-84935500D01*
X132530303Y-84920565D01*
X132568500Y-84867992D01*
X132568500Y-84835500D01*
X132804375Y-84835500D01*
X132849162Y-84880287D01*
X133231000Y-85262124D01*
X133612838Y-84880287D01*
X133625133Y-84867992D01*
X133893500Y-84867992D01*
X133931697Y-84920565D01*
X133977662Y-84935500D01*
X134009338Y-84935500D01*
X134055303Y-84920565D01*
X134093500Y-84867992D01*
X134093500Y-84835500D01*
X134329375Y-84835500D01*
X134658008Y-85164133D01*
X134662167Y-85157515D01*
X134717060Y-85000640D01*
X134735667Y-84835502D01*
X134735667Y-84835497D01*
X134717060Y-84670357D01*
X134662170Y-84513489D01*
X134662168Y-84513486D01*
X134658008Y-84506864D01*
X134329375Y-84835499D01*
X134329375Y-84835500D01*
X134093500Y-84835500D01*
X134093500Y-84803008D01*
X134055303Y-84750435D01*
X134009338Y-84735500D01*
X133977662Y-84735500D01*
X133931697Y-84750435D01*
X133893500Y-84803008D01*
X133893500Y-84867992D01*
X133625133Y-84867992D01*
X133657624Y-84835500D01*
X133657624Y-84835499D01*
X133231000Y-84408875D01*
X132804375Y-84835500D01*
X132568500Y-84835500D01*
X132568500Y-84803008D01*
X132530303Y-84750435D01*
X132484338Y-84735500D01*
X132452662Y-84735500D01*
X132406697Y-84750435D01*
X132368500Y-84803008D01*
X132368500Y-84867992D01*
X132100132Y-84867992D01*
X132132623Y-84835498D01*
X131706000Y-84408875D01*
X131279375Y-84835500D01*
X131043500Y-84835500D01*
X131043500Y-84803008D01*
X131005303Y-84750435D01*
X130959338Y-84735500D01*
X130927662Y-84735500D01*
X130881697Y-84750435D01*
X130843500Y-84803008D01*
X130843500Y-84867992D01*
X130575130Y-84867992D01*
X130607623Y-84835499D01*
X130607624Y-84835498D01*
X130278990Y-84506864D01*
X130278989Y-84506864D01*
X130274831Y-84513483D01*
X130219939Y-84670357D01*
X130201333Y-84835497D01*
X130201333Y-84835502D01*
X126355499Y-84835502D01*
X126355499Y-84537750D01*
X126357224Y-84522128D01*
X126356938Y-84522101D01*
X126357671Y-84514341D01*
X126357673Y-84514333D01*
X126355500Y-84445171D01*
X126355500Y-84415650D01*
X126354631Y-84408779D01*
X126354173Y-84402952D01*
X126353760Y-84389801D01*
X126352710Y-84356373D01*
X126347119Y-84337130D01*
X126343173Y-84318078D01*
X126340664Y-84298208D01*
X126323504Y-84254867D01*
X126321624Y-84249379D01*
X126308618Y-84204610D01*
X126298422Y-84187370D01*
X126290398Y-84170990D01*
X130614864Y-84170990D01*
X130943499Y-84499624D01*
X131325338Y-84117787D01*
X131337633Y-84105492D01*
X131606000Y-84105492D01*
X131644197Y-84158065D01*
X131690162Y-84173000D01*
X131721838Y-84173000D01*
X131767803Y-84158065D01*
X131806000Y-84105492D01*
X131806000Y-84073000D01*
X132041875Y-84073000D01*
X132086662Y-84117787D01*
X132468498Y-84499624D01*
X132850338Y-84117787D01*
X132862633Y-84105492D01*
X133131000Y-84105492D01*
X133169197Y-84158065D01*
X133215162Y-84173000D01*
X133246838Y-84173000D01*
X133292803Y-84158065D01*
X133331000Y-84105492D01*
X133331000Y-84073000D01*
X133566875Y-84073000D01*
X133611662Y-84117787D01*
X133993500Y-84499624D01*
X133993501Y-84499624D01*
X134322134Y-84170989D01*
X134321410Y-84164570D01*
X134286992Y-84125664D01*
X134276339Y-84056612D01*
X134304711Y-83992761D01*
X134321802Y-83977950D01*
X134322133Y-83975008D01*
X133993500Y-83646375D01*
X133566875Y-84073000D01*
X133331000Y-84073000D01*
X133331000Y-84040508D01*
X133292803Y-83987935D01*
X133246838Y-83973000D01*
X133215162Y-83973000D01*
X133169197Y-83987935D01*
X133131000Y-84040508D01*
X133131000Y-84105492D01*
X132862633Y-84105492D01*
X132895124Y-84073000D01*
X132895124Y-84072999D01*
X132468500Y-83646375D01*
X132041875Y-84073000D01*
X131806000Y-84073000D01*
X131806000Y-84040508D01*
X131767803Y-83987935D01*
X131721838Y-83973000D01*
X131690162Y-83973000D01*
X131644197Y-83987935D01*
X131606000Y-84040508D01*
X131606000Y-84105492D01*
X131337633Y-84105492D01*
X131370124Y-84073000D01*
X131370124Y-84072999D01*
X131325338Y-84028213D01*
X130943501Y-83646375D01*
X130943500Y-83646375D01*
X130614864Y-83975008D01*
X130615588Y-83981426D01*
X130650006Y-84020335D01*
X130660657Y-84089388D01*
X130632284Y-84153238D01*
X130615196Y-84168042D01*
X130614864Y-84170990D01*
X126290398Y-84170990D01*
X126289861Y-84169894D01*
X126282487Y-84151270D01*
X126282486Y-84151268D01*
X126255079Y-84113545D01*
X126251888Y-84108686D01*
X126249999Y-84105492D01*
X126230784Y-84073000D01*
X126228172Y-84068583D01*
X126228165Y-84068574D01*
X126214006Y-84054415D01*
X126201368Y-84039619D01*
X126193081Y-84028213D01*
X126189594Y-84023413D01*
X126185873Y-84020335D01*
X126153688Y-83993709D01*
X126149376Y-83989786D01*
X125470092Y-83310502D01*
X130201333Y-83310502D01*
X130219939Y-83475640D01*
X130274833Y-83632518D01*
X130278989Y-83639134D01*
X130575131Y-83342992D01*
X130843500Y-83342992D01*
X130881697Y-83395565D01*
X130927662Y-83410500D01*
X130959338Y-83410500D01*
X131005303Y-83395565D01*
X131043500Y-83342992D01*
X131043500Y-83310500D01*
X131279375Y-83310500D01*
X131324162Y-83355287D01*
X131706000Y-83737124D01*
X132087838Y-83355287D01*
X132100133Y-83342992D01*
X132368500Y-83342992D01*
X132406697Y-83395565D01*
X132452662Y-83410500D01*
X132484338Y-83410500D01*
X132530303Y-83395565D01*
X132568500Y-83342992D01*
X132568500Y-83310500D01*
X132804375Y-83310500D01*
X132849162Y-83355287D01*
X133231000Y-83737124D01*
X133612838Y-83355287D01*
X133625133Y-83342992D01*
X133893500Y-83342992D01*
X133931697Y-83395565D01*
X133977662Y-83410500D01*
X134009338Y-83410500D01*
X134055303Y-83395565D01*
X134093500Y-83342992D01*
X134093500Y-83310500D01*
X134329375Y-83310500D01*
X134658008Y-83639133D01*
X134662167Y-83632515D01*
X134717060Y-83475640D01*
X134735667Y-83310502D01*
X134735667Y-83310497D01*
X134717060Y-83145357D01*
X134662170Y-82988489D01*
X134662168Y-82988486D01*
X134658008Y-82981864D01*
X134329375Y-83310499D01*
X134329375Y-83310500D01*
X134093500Y-83310500D01*
X134093500Y-83278008D01*
X134055303Y-83225435D01*
X134009338Y-83210500D01*
X133977662Y-83210500D01*
X133931697Y-83225435D01*
X133893500Y-83278008D01*
X133893500Y-83342992D01*
X133625133Y-83342992D01*
X133657624Y-83310500D01*
X133657624Y-83310499D01*
X133231000Y-82883875D01*
X132804375Y-83310500D01*
X132568500Y-83310500D01*
X132568500Y-83278008D01*
X132530303Y-83225435D01*
X132484338Y-83210500D01*
X132452662Y-83210500D01*
X132406697Y-83225435D01*
X132368500Y-83278008D01*
X132368500Y-83342992D01*
X132100133Y-83342992D01*
X132132624Y-83310500D01*
X132132624Y-83310499D01*
X131706000Y-82883875D01*
X131279375Y-83310500D01*
X131043500Y-83310500D01*
X131043500Y-83278008D01*
X131005303Y-83225435D01*
X130959338Y-83210500D01*
X130927662Y-83210500D01*
X130881697Y-83225435D01*
X130843500Y-83278008D01*
X130843500Y-83342992D01*
X130575131Y-83342992D01*
X130607624Y-83310499D01*
X130278990Y-82981864D01*
X130278989Y-82981864D01*
X130274831Y-82988483D01*
X130219939Y-83145357D01*
X130201333Y-83310497D01*
X130201333Y-83310502D01*
X125470092Y-83310502D01*
X124805580Y-82645990D01*
X130614864Y-82645990D01*
X130943499Y-82974624D01*
X131325338Y-82592787D01*
X131337632Y-82580492D01*
X131606000Y-82580492D01*
X131644197Y-82633065D01*
X131690162Y-82648000D01*
X131721838Y-82648000D01*
X131767803Y-82633065D01*
X131806000Y-82580492D01*
X131806000Y-82547998D01*
X132041875Y-82547998D01*
X132086662Y-82592788D01*
X132468498Y-82974624D01*
X132850338Y-82592787D01*
X132862632Y-82580492D01*
X133131000Y-82580492D01*
X133169197Y-82633065D01*
X133215162Y-82648000D01*
X133246838Y-82648000D01*
X133292803Y-82633065D01*
X133331000Y-82580492D01*
X133331000Y-82547998D01*
X133566875Y-82547998D01*
X133611662Y-82592787D01*
X133993500Y-82974624D01*
X133993501Y-82974624D01*
X134322134Y-82645989D01*
X134315518Y-82641833D01*
X134158640Y-82586939D01*
X134073490Y-82577345D01*
X134009076Y-82550278D01*
X133969521Y-82492683D01*
X133964154Y-82468008D01*
X133954560Y-82382857D01*
X133899670Y-82225989D01*
X133899668Y-82225986D01*
X133895508Y-82219365D01*
X133566875Y-82547998D01*
X133331000Y-82547998D01*
X133331000Y-82515508D01*
X133292803Y-82462935D01*
X133246838Y-82448000D01*
X133215162Y-82448000D01*
X133169197Y-82462935D01*
X133131000Y-82515508D01*
X133131000Y-82580492D01*
X132862632Y-82580492D01*
X132895124Y-82547999D01*
X132895124Y-82547998D01*
X132566490Y-82219364D01*
X132560066Y-82220088D01*
X132521170Y-82254502D01*
X132452118Y-82265158D01*
X132388266Y-82236791D01*
X132373453Y-82219696D01*
X132370508Y-82219365D01*
X132041875Y-82547998D01*
X131806000Y-82547998D01*
X131806000Y-82515508D01*
X131767803Y-82462935D01*
X131721838Y-82448000D01*
X131690162Y-82448000D01*
X131644197Y-82462935D01*
X131606000Y-82515508D01*
X131606000Y-82580492D01*
X131337632Y-82580492D01*
X131370124Y-82547999D01*
X131370124Y-82547998D01*
X131041490Y-82219364D01*
X131041489Y-82219364D01*
X131037331Y-82225983D01*
X130982439Y-82382857D01*
X130972845Y-82468009D01*
X130945778Y-82532423D01*
X130888183Y-82571978D01*
X130863509Y-82577345D01*
X130778357Y-82586939D01*
X130621483Y-82641831D01*
X130614864Y-82645989D01*
X130614864Y-82645990D01*
X124805580Y-82645990D01*
X124043080Y-81883490D01*
X131377364Y-81883490D01*
X131706000Y-82212124D01*
X131706001Y-82212124D01*
X132034633Y-81883490D01*
X132902364Y-81883490D01*
X133231000Y-82212124D01*
X133231001Y-82212124D01*
X133559634Y-81883489D01*
X133553018Y-81879333D01*
X133396140Y-81824439D01*
X133231003Y-81805833D01*
X133230997Y-81805833D01*
X133065857Y-81824439D01*
X132908983Y-81879331D01*
X132902364Y-81883489D01*
X132902364Y-81883490D01*
X132034633Y-81883490D01*
X132034634Y-81883489D01*
X132028018Y-81879333D01*
X131871140Y-81824439D01*
X131706003Y-81805833D01*
X131705997Y-81805833D01*
X131540857Y-81824439D01*
X131383983Y-81879331D01*
X131377364Y-81883489D01*
X131377364Y-81883490D01*
X124043080Y-81883490D01*
X122677590Y-80518000D01*
X136762540Y-80518000D01*
X136782326Y-80706256D01*
X136782327Y-80706259D01*
X136840818Y-80886277D01*
X136840821Y-80886284D01*
X136935467Y-81050216D01*
X137034751Y-81160482D01*
X137062129Y-81190888D01*
X137215265Y-81302148D01*
X137215270Y-81302151D01*
X137388192Y-81379142D01*
X137388197Y-81379144D01*
X137573354Y-81418500D01*
X137573355Y-81418500D01*
X137762644Y-81418500D01*
X137762646Y-81418500D01*
X137947803Y-81379144D01*
X138120730Y-81302151D01*
X138273871Y-81190888D01*
X138400533Y-81050216D01*
X138449613Y-80965205D01*
X138500179Y-80916991D01*
X138568786Y-80903767D01*
X138633651Y-80929735D01*
X138664385Y-80965203D01*
X138709353Y-81043091D01*
X138713467Y-81050216D01*
X138840129Y-81190888D01*
X138993265Y-81302148D01*
X138993270Y-81302151D01*
X139166192Y-81379142D01*
X139166197Y-81379144D01*
X139351354Y-81418500D01*
X139351355Y-81418500D01*
X139540644Y-81418500D01*
X139540646Y-81418500D01*
X139725803Y-81379144D01*
X139898730Y-81302151D01*
X140051871Y-81190888D01*
X140178533Y-81050216D01*
X140273179Y-80886284D01*
X140331674Y-80706256D01*
X140351460Y-80518000D01*
X140331674Y-80329744D01*
X140273179Y-80149716D01*
X140178533Y-79985784D01*
X140051871Y-79845112D01*
X140019708Y-79821744D01*
X139898734Y-79733851D01*
X139898729Y-79733848D01*
X139725807Y-79656857D01*
X139725802Y-79656855D01*
X139580000Y-79625865D01*
X139540646Y-79617500D01*
X139351354Y-79617500D01*
X139318897Y-79624398D01*
X139166197Y-79656855D01*
X139166192Y-79656857D01*
X138993270Y-79733848D01*
X138993265Y-79733851D01*
X138840129Y-79845111D01*
X138713466Y-79985785D01*
X138664387Y-80070793D01*
X138613820Y-80119008D01*
X138545213Y-80132232D01*
X138480349Y-80106264D01*
X138449613Y-80070793D01*
X138414514Y-80010000D01*
X138400533Y-79985784D01*
X138273871Y-79845112D01*
X138241708Y-79821744D01*
X138120734Y-79733851D01*
X138120729Y-79733848D01*
X137947807Y-79656857D01*
X137947802Y-79656855D01*
X137802000Y-79625865D01*
X137762646Y-79617500D01*
X137573354Y-79617500D01*
X137540897Y-79624398D01*
X137388197Y-79656855D01*
X137388192Y-79656857D01*
X137215270Y-79733848D01*
X137215265Y-79733851D01*
X137062129Y-79845111D01*
X136935466Y-79985785D01*
X136840821Y-80149715D01*
X136840818Y-80149722D01*
X136794636Y-80291857D01*
X136782326Y-80329744D01*
X136762540Y-80518000D01*
X122677590Y-80518000D01*
X120261803Y-78102212D01*
X120251980Y-78089950D01*
X120251759Y-78090134D01*
X120246786Y-78084123D01*
X120246785Y-78084122D01*
X120196364Y-78036773D01*
X120185919Y-78026328D01*
X120175475Y-78015883D01*
X120169986Y-78011625D01*
X120165561Y-78007847D01*
X120131582Y-77975938D01*
X120131580Y-77975936D01*
X120131577Y-77975935D01*
X120114029Y-77966288D01*
X120097763Y-77955604D01*
X120081933Y-77943325D01*
X120039168Y-77924818D01*
X120033922Y-77922248D01*
X119993093Y-77899803D01*
X119993092Y-77899802D01*
X119973693Y-77894822D01*
X119955281Y-77888518D01*
X119936898Y-77880562D01*
X119936892Y-77880560D01*
X119890874Y-77873272D01*
X119885152Y-77872087D01*
X119840021Y-77860500D01*
X119840019Y-77860500D01*
X119819984Y-77860500D01*
X119800586Y-77858973D01*
X119793162Y-77857797D01*
X119780805Y-77855840D01*
X119780804Y-77855840D01*
X119734416Y-77860225D01*
X119728578Y-77860500D01*
X115765748Y-77860500D01*
X115698709Y-77840815D01*
X115673600Y-77819474D01*
X115667873Y-77813114D01*
X115667869Y-77813110D01*
X115514734Y-77701851D01*
X115514729Y-77701848D01*
X115341807Y-77624857D01*
X115341802Y-77624855D01*
X115196001Y-77593865D01*
X115156646Y-77585500D01*
X114967354Y-77585500D01*
X114934897Y-77592398D01*
X114782197Y-77624855D01*
X114782192Y-77624857D01*
X114609270Y-77701848D01*
X114609265Y-77701851D01*
X114456129Y-77813111D01*
X114329466Y-77953785D01*
X114234821Y-78117715D01*
X114234818Y-78117722D01*
X114194593Y-78241524D01*
X114176326Y-78297744D01*
X114156540Y-78486000D01*
X114176326Y-78674256D01*
X114176327Y-78674259D01*
X114234818Y-78854277D01*
X114234821Y-78854284D01*
X114329467Y-79018216D01*
X114347852Y-79038634D01*
X114360540Y-79052726D01*
X114390770Y-79115717D01*
X114382145Y-79185053D01*
X114341276Y-79236016D01*
X114202127Y-79337113D01*
X114075466Y-79477785D01*
X113980821Y-79641715D01*
X113980818Y-79641722D01*
X113940593Y-79765524D01*
X113922326Y-79821744D01*
X113902540Y-80010000D01*
X113922326Y-80198256D01*
X113922327Y-80198259D01*
X113980818Y-80378277D01*
X113980821Y-80378284D01*
X114075467Y-80542216D01*
X114157764Y-80633616D01*
X114202129Y-80682888D01*
X114355265Y-80794148D01*
X114355270Y-80794151D01*
X114528192Y-80871142D01*
X114528193Y-80871142D01*
X114528197Y-80871144D01*
X114705550Y-80908841D01*
X114767032Y-80942033D01*
X114800809Y-81003196D01*
X114803091Y-81043091D01*
X114793149Y-81137689D01*
X114791540Y-81153000D01*
X114811326Y-81341256D01*
X114811327Y-81341259D01*
X114869818Y-81521277D01*
X114869821Y-81521284D01*
X114964467Y-81685216D01*
X115068557Y-81800819D01*
X115091129Y-81825888D01*
X115244265Y-81937148D01*
X115244270Y-81937151D01*
X115417192Y-82014142D01*
X115417197Y-82014144D01*
X115602354Y-82053500D01*
X115602355Y-82053500D01*
X115791644Y-82053500D01*
X115791646Y-82053500D01*
X115976803Y-82014144D01*
X116149730Y-81937151D01*
X116302871Y-81825888D01*
X116429533Y-81685216D01*
X116524179Y-81521284D01*
X116582674Y-81341256D01*
X116602460Y-81153000D01*
X116582674Y-80964744D01*
X116524179Y-80784716D01*
X116429533Y-80620784D01*
X116302871Y-80480112D01*
X116302870Y-80480111D01*
X116149734Y-80368851D01*
X116149729Y-80368848D01*
X115976807Y-80291857D01*
X115976802Y-80291855D01*
X115799448Y-80254158D01*
X115737966Y-80220966D01*
X115704190Y-80159803D01*
X115701908Y-80119910D01*
X115713460Y-80010000D01*
X115693674Y-79821744D01*
X115635179Y-79641716D01*
X115540533Y-79477784D01*
X115509458Y-79443272D01*
X115479229Y-79380282D01*
X115487854Y-79310947D01*
X115528720Y-79259986D01*
X115667871Y-79158888D01*
X115670570Y-79155890D01*
X115673600Y-79152526D01*
X115733087Y-79115879D01*
X115765748Y-79111500D01*
X119450548Y-79111500D01*
X119517587Y-79131185D01*
X119538229Y-79147819D01*
X125068180Y-84677769D01*
X125101665Y-84739092D01*
X125104499Y-84765450D01*
X125104499Y-89960261D01*
X125102776Y-89975878D01*
X125103060Y-89975905D01*
X125102326Y-89983664D01*
X125104500Y-90052814D01*
X125104500Y-90082343D01*
X125104501Y-90082360D01*
X125105368Y-90089231D01*
X125105826Y-90095050D01*
X125107290Y-90141624D01*
X125107291Y-90141627D01*
X125112880Y-90160867D01*
X125116824Y-90179911D01*
X125119336Y-90199792D01*
X125123927Y-90211388D01*
X125136490Y-90243119D01*
X125138382Y-90248647D01*
X125151381Y-90293388D01*
X125161580Y-90310634D01*
X125170138Y-90328103D01*
X125177514Y-90346732D01*
X125204898Y-90384423D01*
X125208106Y-90389307D01*
X125231827Y-90429416D01*
X125231833Y-90429424D01*
X125245990Y-90443580D01*
X125258628Y-90458376D01*
X125270405Y-90474586D01*
X125270406Y-90474587D01*
X125306309Y-90504288D01*
X125310620Y-90508210D01*
X127222622Y-92420212D01*
X129132181Y-94329771D01*
X129165666Y-94391094D01*
X129168500Y-94417452D01*
X129168500Y-95567312D01*
X129148815Y-95634351D01*
X129136650Y-95650284D01*
X129061466Y-95733784D01*
X128966821Y-95897715D01*
X128966818Y-95897722D01*
X128930927Y-96008185D01*
X128908326Y-96077744D01*
X128902512Y-96133063D01*
X128888951Y-96262094D01*
X128888540Y-96266000D01*
X128908326Y-96454256D01*
X128947585Y-96575083D01*
X128950542Y-96584182D01*
X128952537Y-96654023D01*
X128916457Y-96713856D01*
X128853756Y-96744684D01*
X128832611Y-96746500D01*
X123331842Y-96746500D01*
X123264803Y-96726815D01*
X123219048Y-96674011D01*
X123209104Y-96604853D01*
X123224454Y-96560501D01*
X123255179Y-96507284D01*
X123313674Y-96327256D01*
X123333460Y-96139000D01*
X123313674Y-95950744D01*
X123255179Y-95770716D01*
X123160533Y-95606784D01*
X123033871Y-95466112D01*
X123026316Y-95460623D01*
X122880734Y-95354851D01*
X122880729Y-95354848D01*
X122707807Y-95277857D01*
X122707802Y-95277855D01*
X122562000Y-95246865D01*
X122522646Y-95238500D01*
X122333354Y-95238500D01*
X122300897Y-95245398D01*
X122148197Y-95277855D01*
X122148192Y-95277857D01*
X121975270Y-95354848D01*
X121975265Y-95354851D01*
X121822129Y-95466111D01*
X121695466Y-95606785D01*
X121600821Y-95770715D01*
X121600818Y-95770722D01*
X121542503Y-95950198D01*
X121542326Y-95950744D01*
X121522540Y-96139000D01*
X121542326Y-96327256D01*
X121542327Y-96327259D01*
X121600818Y-96507277D01*
X121600820Y-96507281D01*
X121600821Y-96507284D01*
X121631546Y-96560501D01*
X121648018Y-96628401D01*
X121625165Y-96694428D01*
X121570243Y-96737618D01*
X121524158Y-96746500D01*
X120763889Y-96746500D01*
X120696850Y-96726815D01*
X120676208Y-96710181D01*
X119157112Y-95191085D01*
X117603126Y-93637098D01*
X115328817Y-91362789D01*
X115295333Y-91301467D01*
X115292499Y-91275118D01*
X115292499Y-89535000D01*
X120252540Y-89535000D01*
X120272326Y-89723256D01*
X120272327Y-89723259D01*
X120330818Y-89903277D01*
X120330821Y-89903284D01*
X120425467Y-90067216D01*
X120509783Y-90160858D01*
X120552129Y-90207888D01*
X120705265Y-90319148D01*
X120705270Y-90319151D01*
X120878192Y-90396142D01*
X120878197Y-90396144D01*
X121063354Y-90435500D01*
X121063355Y-90435500D01*
X121252644Y-90435500D01*
X121252646Y-90435500D01*
X121437803Y-90396144D01*
X121610730Y-90319151D01*
X121763871Y-90207888D01*
X121890533Y-90067216D01*
X121985179Y-89903284D01*
X122043674Y-89723256D01*
X122063460Y-89535000D01*
X122043674Y-89346744D01*
X121985179Y-89166716D01*
X121890533Y-89002784D01*
X121763871Y-88862112D01*
X121763870Y-88862111D01*
X121610734Y-88750851D01*
X121610729Y-88750848D01*
X121437807Y-88673857D01*
X121437802Y-88673855D01*
X121292001Y-88642865D01*
X121252646Y-88634500D01*
X121063354Y-88634500D01*
X121030897Y-88641398D01*
X120878197Y-88673855D01*
X120878192Y-88673857D01*
X120705270Y-88750848D01*
X120705265Y-88750851D01*
X120552129Y-88862111D01*
X120425466Y-89002785D01*
X120330821Y-89166715D01*
X120330818Y-89166722D01*
X120272327Y-89346740D01*
X120272326Y-89346744D01*
X120252540Y-89535000D01*
X115292499Y-89535000D01*
X115292499Y-86457014D01*
X115292976Y-86449336D01*
X115296357Y-86422221D01*
X115292500Y-86328964D01*
X115292500Y-86297934D01*
X115289937Y-86267009D01*
X115288060Y-86221614D01*
X115286081Y-86173763D01*
X115283513Y-86161516D01*
X115280473Y-86147016D01*
X115279364Y-86139406D01*
X115277109Y-86112187D01*
X115277108Y-86112184D01*
X115277108Y-86112179D01*
X115254198Y-86021711D01*
X115235049Y-85930386D01*
X115225116Y-85904932D01*
X115222771Y-85897609D01*
X115216064Y-85871123D01*
X115216063Y-85871119D01*
X115195549Y-85824353D01*
X115178577Y-85785659D01*
X115144655Y-85698725D01*
X115140631Y-85691972D01*
X115130665Y-85675248D01*
X115127150Y-85668416D01*
X115116174Y-85643396D01*
X115116173Y-85643393D01*
X115099000Y-85617107D01*
X115065137Y-85565275D01*
X115033948Y-85512935D01*
X115017366Y-85485106D01*
X114999702Y-85464250D01*
X114995106Y-85458086D01*
X114980166Y-85435218D01*
X114980165Y-85435217D01*
X114980164Y-85435215D01*
X114916966Y-85366564D01*
X114896902Y-85342874D01*
X114896894Y-85342866D01*
X114874950Y-85320921D01*
X114811747Y-85252265D01*
X114811746Y-85252264D01*
X114811744Y-85252262D01*
X114790174Y-85235473D01*
X114784412Y-85230384D01*
X114541112Y-84987084D01*
X114507627Y-84925761D01*
X114512611Y-84856069D01*
X114554483Y-84800136D01*
X114556984Y-84798486D01*
X114556973Y-84798471D01*
X114643645Y-84735500D01*
X114715371Y-84683388D01*
X114842033Y-84542716D01*
X114936679Y-84378784D01*
X114995174Y-84198756D01*
X115014960Y-84010500D01*
X114995174Y-83822244D01*
X114936679Y-83642216D01*
X114842033Y-83478284D01*
X114806661Y-83439000D01*
X118281740Y-83439000D01*
X118301526Y-83627256D01*
X118301527Y-83627259D01*
X118360018Y-83807277D01*
X118360021Y-83807284D01*
X118454667Y-83971216D01*
X118516258Y-84039619D01*
X118581329Y-84111888D01*
X118734465Y-84223148D01*
X118734470Y-84223151D01*
X118907392Y-84300142D01*
X118907397Y-84300144D01*
X119092554Y-84339500D01*
X119092555Y-84339500D01*
X119281844Y-84339500D01*
X119281846Y-84339500D01*
X119467003Y-84300144D01*
X119639930Y-84223151D01*
X119793071Y-84111888D01*
X119919733Y-83971216D01*
X120014379Y-83807284D01*
X120072874Y-83627256D01*
X120079312Y-83566000D01*
X121243140Y-83566000D01*
X121262926Y-83754256D01*
X121262927Y-83754259D01*
X121321418Y-83934277D01*
X121321421Y-83934284D01*
X121416067Y-84098216D01*
X121483403Y-84173000D01*
X121542729Y-84238888D01*
X121695865Y-84350148D01*
X121695870Y-84350151D01*
X121868792Y-84427142D01*
X121868797Y-84427144D01*
X122053954Y-84466500D01*
X122053955Y-84466500D01*
X122243244Y-84466500D01*
X122243246Y-84466500D01*
X122428403Y-84427144D01*
X122601330Y-84350151D01*
X122754471Y-84238888D01*
X122881133Y-84098216D01*
X122975779Y-83934284D01*
X123034274Y-83754256D01*
X123054060Y-83566000D01*
X123034274Y-83377744D01*
X122975779Y-83197716D01*
X122881133Y-83033784D01*
X122754471Y-82893112D01*
X122754470Y-82893111D01*
X122601334Y-82781851D01*
X122601329Y-82781848D01*
X122428407Y-82704857D01*
X122428402Y-82704855D01*
X122282600Y-82673865D01*
X122243246Y-82665500D01*
X122053954Y-82665500D01*
X122021497Y-82672398D01*
X121868797Y-82704855D01*
X121868792Y-82704857D01*
X121695870Y-82781848D01*
X121695865Y-82781851D01*
X121542729Y-82893111D01*
X121416066Y-83033785D01*
X121321421Y-83197715D01*
X121321418Y-83197722D01*
X121262927Y-83377740D01*
X121262926Y-83377744D01*
X121243140Y-83566000D01*
X120079312Y-83566000D01*
X120092660Y-83439000D01*
X120072874Y-83250744D01*
X120014379Y-83070716D01*
X119919733Y-82906784D01*
X119793071Y-82766112D01*
X119793070Y-82766111D01*
X119639934Y-82654851D01*
X119639929Y-82654848D01*
X119467007Y-82577857D01*
X119467002Y-82577855D01*
X119321201Y-82546865D01*
X119281846Y-82538500D01*
X119092554Y-82538500D01*
X119060097Y-82545398D01*
X118907397Y-82577855D01*
X118907392Y-82577857D01*
X118734470Y-82654848D01*
X118734465Y-82654851D01*
X118581329Y-82766111D01*
X118454666Y-82906785D01*
X118360021Y-83070715D01*
X118360018Y-83070722D01*
X118301527Y-83250740D01*
X118301526Y-83250744D01*
X118281740Y-83439000D01*
X114806661Y-83439000D01*
X114715371Y-83337612D01*
X114715370Y-83337611D01*
X114562234Y-83226351D01*
X114562229Y-83226348D01*
X114389307Y-83149357D01*
X114389302Y-83149355D01*
X114243501Y-83118365D01*
X114204146Y-83110000D01*
X114014854Y-83110000D01*
X113982397Y-83116898D01*
X113829697Y-83149355D01*
X113829692Y-83149357D01*
X113656770Y-83226348D01*
X113656765Y-83226351D01*
X113503629Y-83337611D01*
X113376965Y-83478285D01*
X113331614Y-83556837D01*
X113281047Y-83605053D01*
X113212440Y-83618276D01*
X113147575Y-83592308D01*
X113136546Y-83582518D01*
X108825615Y-79271587D01*
X108820524Y-79265822D01*
X108803739Y-79244257D01*
X108735078Y-79181049D01*
X108713129Y-79159100D01*
X108689435Y-79139033D01*
X108620786Y-79075837D01*
X108620785Y-79075836D01*
X108597904Y-79060887D01*
X108591747Y-79056296D01*
X108570894Y-79038634D01*
X108490720Y-78990860D01*
X108412607Y-78939827D01*
X108412604Y-78939825D01*
X108387588Y-78928852D01*
X108380750Y-78925332D01*
X108357275Y-78911344D01*
X108270335Y-78877420D01*
X108184881Y-78839937D01*
X108184877Y-78839936D01*
X108184875Y-78839935D01*
X108158387Y-78833227D01*
X108151067Y-78830882D01*
X108134593Y-78824454D01*
X108125614Y-78820951D01*
X108034288Y-78801801D01*
X108034287Y-78801800D01*
X107943819Y-78778891D01*
X107916590Y-78776635D01*
X107908983Y-78775526D01*
X107888986Y-78771334D01*
X107882237Y-78769919D01*
X107882235Y-78769918D01*
X107788990Y-78766062D01*
X107758067Y-78763500D01*
X107758064Y-78763500D01*
X107727035Y-78763500D01*
X107633780Y-78759643D01*
X107633779Y-78759643D01*
X107606652Y-78763024D01*
X107598981Y-78763500D01*
X105770976Y-78763500D01*
X105703937Y-78743815D01*
X105667167Y-78707322D01*
X105645564Y-78674256D01*
X105582164Y-78577215D01*
X105413744Y-78394262D01*
X105217509Y-78241526D01*
X105217507Y-78241525D01*
X105217506Y-78241524D01*
X104998811Y-78123172D01*
X104998802Y-78123169D01*
X104763616Y-78042429D01*
X104518335Y-78001500D01*
X104269665Y-78001500D01*
X104024383Y-78042429D01*
X103789197Y-78123169D01*
X103789188Y-78123172D01*
X103570493Y-78241524D01*
X103374257Y-78394261D01*
X103205833Y-78577217D01*
X103069826Y-78785393D01*
X102969939Y-79013114D01*
X102969937Y-79013119D01*
X102965184Y-79031888D01*
X102960940Y-79048646D01*
X102925399Y-79108800D01*
X102924719Y-79109431D01*
X102778261Y-79244256D01*
X102625524Y-79440493D01*
X102507172Y-79659188D01*
X102507169Y-79659197D01*
X102426429Y-79894383D01*
X102385500Y-80139665D01*
X102385500Y-80388334D01*
X102426429Y-80633616D01*
X102507169Y-80868802D01*
X102507172Y-80868811D01*
X102625524Y-81087506D01*
X102625526Y-81087509D01*
X102778262Y-81283744D01*
X102881892Y-81379142D01*
X102961217Y-81452166D01*
X103169393Y-81588173D01*
X103397118Y-81688063D01*
X103570949Y-81732083D01*
X103631105Y-81767623D01*
X103662497Y-81830043D01*
X103655159Y-81899527D01*
X103647896Y-81914289D01*
X103566821Y-82054715D01*
X103566818Y-82054722D01*
X103508327Y-82234740D01*
X103508326Y-82234744D01*
X103488540Y-82423000D01*
X103508326Y-82611256D01*
X103508327Y-82611259D01*
X103566818Y-82791277D01*
X103566821Y-82791284D01*
X103661467Y-82955216D01*
X103788128Y-83095888D01*
X103788129Y-83095888D01*
X103941265Y-83207148D01*
X103941270Y-83207151D01*
X104114192Y-83284142D01*
X104114197Y-83284144D01*
X104299354Y-83323500D01*
X104299355Y-83323500D01*
X104488644Y-83323500D01*
X104488646Y-83323500D01*
X104673803Y-83284144D01*
X104846730Y-83207151D01*
X104999871Y-83095888D01*
X105126533Y-82955216D01*
X105221179Y-82791284D01*
X105279674Y-82611256D01*
X105299460Y-82423000D01*
X105279674Y-82234744D01*
X105221179Y-82054716D01*
X105161010Y-81950500D01*
X105144537Y-81882599D01*
X105167390Y-81816573D01*
X105222311Y-81773382D01*
X105268397Y-81764500D01*
X107023110Y-81764500D01*
X107090149Y-81784185D01*
X107110791Y-81800819D01*
X112255181Y-86945209D01*
X112288666Y-87006532D01*
X112291500Y-87032890D01*
X112291500Y-91850981D01*
X112291024Y-91858651D01*
X112287643Y-91885779D01*
X112291500Y-91979035D01*
X112291500Y-92010067D01*
X112291692Y-92012384D01*
X112294062Y-92040990D01*
X112297918Y-92134233D01*
X112303526Y-92160983D01*
X112304635Y-92168590D01*
X112306891Y-92195818D01*
X112306891Y-92195819D01*
X112306892Y-92195821D01*
X112329801Y-92286288D01*
X112348951Y-92377614D01*
X112348952Y-92377616D01*
X112358882Y-92403067D01*
X112361227Y-92410387D01*
X112363715Y-92420212D01*
X112367937Y-92436881D01*
X112392942Y-92493888D01*
X112405420Y-92522335D01*
X112439344Y-92609275D01*
X112453332Y-92632750D01*
X112456852Y-92639588D01*
X112467825Y-92664604D01*
X112467827Y-92664607D01*
X112518860Y-92742720D01*
X112566634Y-92822894D01*
X112584296Y-92843747D01*
X112588887Y-92849904D01*
X112603836Y-92872785D01*
X112603837Y-92872786D01*
X112667033Y-92941435D01*
X112687100Y-92965129D01*
X112709049Y-92987078D01*
X112772257Y-93055739D01*
X112793822Y-93072524D01*
X112799587Y-93077615D01*
X115481098Y-95759126D01*
X118961392Y-99239419D01*
X118966476Y-99245177D01*
X118983258Y-99266739D01*
X118983265Y-99266747D01*
X119051933Y-99329961D01*
X119073872Y-99351900D01*
X119097554Y-99371957D01*
X119166215Y-99435164D01*
X119189089Y-99450108D01*
X119195252Y-99454704D01*
X119216101Y-99472362D01*
X119216106Y-99472366D01*
X119246679Y-99490583D01*
X119296275Y-99520137D01*
X119368600Y-99567388D01*
X119374393Y-99571173D01*
X119399402Y-99582143D01*
X119399418Y-99582150D01*
X119406248Y-99585665D01*
X119429727Y-99599656D01*
X119516667Y-99633580D01*
X119602119Y-99671063D01*
X119628623Y-99677774D01*
X119635920Y-99680112D01*
X119661386Y-99690050D01*
X119752725Y-99709202D01*
X119843179Y-99732108D01*
X119843183Y-99732108D01*
X119843187Y-99732109D01*
X119870406Y-99734364D01*
X119878016Y-99735473D01*
X119890727Y-99738138D01*
X119904763Y-99741081D01*
X119998009Y-99744937D01*
X120028933Y-99747500D01*
X120028934Y-99747500D01*
X120059965Y-99747500D01*
X120153221Y-99751357D01*
X120180347Y-99747975D01*
X120188019Y-99747500D01*
X130509981Y-99747500D01*
X130517652Y-99747975D01*
X130544779Y-99751357D01*
X130638035Y-99747500D01*
X130669067Y-99747500D01*
X130699990Y-99744937D01*
X130793237Y-99741081D01*
X130819982Y-99735472D01*
X130827582Y-99734364D01*
X130854821Y-99732108D01*
X130854824Y-99732107D01*
X130854826Y-99732107D01*
X130854829Y-99732106D01*
X130945288Y-99709198D01*
X130945287Y-99709197D01*
X131036614Y-99690049D01*
X131062077Y-99680112D01*
X131069374Y-99677774D01*
X131095881Y-99671063D01*
X131181335Y-99633579D01*
X131268274Y-99599656D01*
X131291761Y-99585659D01*
X131298581Y-99582149D01*
X131323607Y-99571173D01*
X131401720Y-99520139D01*
X131481894Y-99472366D01*
X131502754Y-99454697D01*
X131508894Y-99450117D01*
X131531785Y-99435164D01*
X131600435Y-99371966D01*
X131624126Y-99351902D01*
X131646078Y-99329949D01*
X131714738Y-99266744D01*
X131731530Y-99245167D01*
X131736604Y-99239422D01*
X132886821Y-98089205D01*
X132948142Y-98055722D01*
X133017834Y-98060706D01*
X133073767Y-98102578D01*
X133098184Y-98168042D01*
X133098500Y-98176888D01*
X133098499Y-100573266D01*
X133081887Y-100635264D01*
X133030822Y-100723713D01*
X133030818Y-100723722D01*
X132975992Y-100892461D01*
X132972326Y-100903744D01*
X132952540Y-101092000D01*
X132972326Y-101280256D01*
X132972327Y-101280259D01*
X133030818Y-101460277D01*
X133030821Y-101460284D01*
X133081887Y-101548732D01*
X133098500Y-101610732D01*
X133098500Y-103367266D01*
X133081888Y-103429264D01*
X133038980Y-103503585D01*
X133030820Y-103517718D01*
X133030818Y-103517722D01*
X132982019Y-103667912D01*
X132972326Y-103697744D01*
X132969870Y-103721114D01*
X132956403Y-103849246D01*
X132929818Y-103913860D01*
X132894012Y-103938847D01*
X132933514Y-103960998D01*
X132966306Y-104022695D01*
X132968170Y-104034722D01*
X132972325Y-104074253D01*
X132972326Y-104074257D01*
X133030818Y-104254277D01*
X133030821Y-104254284D01*
X133062411Y-104309000D01*
X133081887Y-104342732D01*
X133098500Y-104404732D01*
X133098500Y-106161266D01*
X133081888Y-106223265D01*
X133030820Y-106311718D01*
X133030818Y-106311722D01*
X132972327Y-106491740D01*
X132972326Y-106491744D01*
X132952540Y-106680000D01*
X132972326Y-106868256D01*
X132972327Y-106868259D01*
X133030818Y-107048277D01*
X133030821Y-107048284D01*
X133081887Y-107136732D01*
X133098500Y-107198732D01*
X133098500Y-107318000D01*
X133098501Y-107318009D01*
X133110052Y-107425450D01*
X133110054Y-107425462D01*
X133121258Y-107476964D01*
X133124380Y-107486344D01*
X133126871Y-107556169D01*
X133091217Y-107616257D01*
X133028737Y-107647530D01*
X133006724Y-107649500D01*
X100458878Y-107649500D01*
X100455134Y-107649387D01*
X100190804Y-107633398D01*
X100183365Y-107632494D01*
X99924739Y-107585098D01*
X99917463Y-107583305D01*
X99750680Y-107531334D01*
X99666447Y-107505086D01*
X99659445Y-107502430D01*
X99419674Y-107394519D01*
X99413038Y-107391036D01*
X99188030Y-107255013D01*
X99181863Y-107250756D01*
X98974888Y-107088602D01*
X98969287Y-107083640D01*
X98783358Y-106897711D01*
X98778397Y-106892111D01*
X98616243Y-106685136D01*
X98611986Y-106678969D01*
X98498804Y-106491744D01*
X98475960Y-106453956D01*
X98472480Y-106447325D01*
X98364569Y-106207554D01*
X98361916Y-106200561D01*
X98283692Y-105949530D01*
X98281901Y-105942260D01*
X98234505Y-105683634D01*
X98233601Y-105676195D01*
X98231949Y-105648888D01*
X98217712Y-105413499D01*
X98217613Y-105411866D01*
X98217500Y-105408122D01*
X98217500Y-104334763D01*
X99745787Y-104334763D01*
X99775413Y-104604013D01*
X99775415Y-104604024D01*
X99835612Y-104834279D01*
X99843928Y-104866088D01*
X99949870Y-105115390D01*
X100090979Y-105346605D01*
X100090986Y-105346615D01*
X100264253Y-105554819D01*
X100264259Y-105554824D01*
X100465998Y-105735582D01*
X100691910Y-105885044D01*
X100937176Y-106000020D01*
X100937183Y-106000022D01*
X100937185Y-106000023D01*
X101196557Y-106078057D01*
X101196564Y-106078058D01*
X101196569Y-106078060D01*
X101464561Y-106117500D01*
X101464566Y-106117500D01*
X101667636Y-106117500D01*
X101719133Y-106113730D01*
X101870156Y-106102677D01*
X101982758Y-106077593D01*
X102134546Y-106043782D01*
X102134548Y-106043781D01*
X102134553Y-106043780D01*
X102387558Y-105947014D01*
X102623777Y-105814441D01*
X102838177Y-105648888D01*
X103026186Y-105453881D01*
X103183799Y-105233579D01*
X103279768Y-105046918D01*
X103307649Y-104992690D01*
X103307651Y-104992684D01*
X103307656Y-104992675D01*
X103395118Y-104736305D01*
X103399453Y-104712833D01*
X124837500Y-104712833D01*
X124848003Y-104815638D01*
X124864719Y-104866082D01*
X124903203Y-104982220D01*
X124995330Y-105131581D01*
X125119419Y-105255670D01*
X125268780Y-105347797D01*
X125351771Y-105375297D01*
X125435361Y-105402996D01*
X125472236Y-105406763D01*
X125538174Y-105413500D01*
X125538178Y-105413500D01*
X126937822Y-105413500D01*
X126937826Y-105413500D01*
X127040638Y-105402996D01*
X127207220Y-105347797D01*
X127356581Y-105255670D01*
X127480670Y-105131581D01*
X127572797Y-104982220D01*
X127621819Y-104834278D01*
X127651844Y-104785601D01*
X128333549Y-104103895D01*
X128334327Y-104114265D01*
X128383887Y-104240541D01*
X128468465Y-104346599D01*
X128580547Y-104423016D01*
X128688299Y-104456253D01*
X127979199Y-105165351D01*
X128009650Y-105189050D01*
X128213697Y-105299476D01*
X128213706Y-105299479D01*
X128433139Y-105374811D01*
X128661993Y-105413000D01*
X128894007Y-105413000D01*
X129122860Y-105374811D01*
X129342293Y-105299479D01*
X129342302Y-105299476D01*
X129546350Y-105189050D01*
X129576798Y-105165351D01*
X128866231Y-104454784D01*
X128912138Y-104447865D01*
X129034357Y-104389007D01*
X129133798Y-104296740D01*
X129201625Y-104179260D01*
X129219499Y-104100945D01*
X129929186Y-104810634D01*
X129943892Y-104788126D01*
X129997038Y-104742769D01*
X130066269Y-104733345D01*
X130129605Y-104762847D01*
X130151510Y-104788126D01*
X130209016Y-104876147D01*
X130209019Y-104876151D01*
X130209021Y-104876153D01*
X130366216Y-105046913D01*
X130366219Y-105046915D01*
X130366222Y-105046918D01*
X130549365Y-105189464D01*
X130549371Y-105189468D01*
X130549374Y-105189470D01*
X130630882Y-105233580D01*
X130752652Y-105299479D01*
X130753497Y-105299936D01*
X130867487Y-105339068D01*
X130973015Y-105375297D01*
X130973017Y-105375297D01*
X130973019Y-105375298D01*
X131201951Y-105413500D01*
X131201952Y-105413500D01*
X131434048Y-105413500D01*
X131434049Y-105413500D01*
X131662981Y-105375298D01*
X131882503Y-105299936D01*
X132086626Y-105189470D01*
X132269784Y-105046913D01*
X132426979Y-104876153D01*
X132553924Y-104681849D01*
X132647157Y-104469300D01*
X132704134Y-104244305D01*
X132721274Y-104037442D01*
X132746426Y-103972262D01*
X132783485Y-103945165D01*
X132742528Y-103920995D01*
X132711105Y-103858591D01*
X132709506Y-103846536D01*
X132704134Y-103781695D01*
X132682874Y-103697740D01*
X132647157Y-103556699D01*
X132553924Y-103344151D01*
X132426983Y-103149852D01*
X132426980Y-103149849D01*
X132426979Y-103149847D01*
X132269784Y-102979087D01*
X132269779Y-102979083D01*
X132269777Y-102979081D01*
X132086634Y-102836535D01*
X132086628Y-102836531D01*
X131882504Y-102726064D01*
X131882495Y-102726061D01*
X131662984Y-102650702D01*
X131491281Y-102622050D01*
X131434049Y-102612500D01*
X131201951Y-102612500D01*
X131156164Y-102620140D01*
X130973015Y-102650702D01*
X130753504Y-102726061D01*
X130753495Y-102726064D01*
X130549371Y-102836531D01*
X130549365Y-102836535D01*
X130366222Y-102979081D01*
X130366219Y-102979084D01*
X130366216Y-102979086D01*
X130366216Y-102979087D01*
X130306659Y-103043784D01*
X130209015Y-103149854D01*
X130151509Y-103237874D01*
X130098363Y-103283230D01*
X130029132Y-103292654D01*
X129965796Y-103263152D01*
X129943892Y-103237873D01*
X129929186Y-103215364D01*
X129222449Y-103922101D01*
X129221673Y-103911735D01*
X129172113Y-103785459D01*
X129087535Y-103679401D01*
X128975453Y-103602984D01*
X128867699Y-103569746D01*
X129576799Y-102860647D01*
X129546349Y-102836949D01*
X129342302Y-102726523D01*
X129342293Y-102726520D01*
X129122860Y-102651188D01*
X128894007Y-102613000D01*
X128661993Y-102613000D01*
X128433139Y-102651188D01*
X128213706Y-102726520D01*
X128213698Y-102726523D01*
X128009644Y-102836952D01*
X127979200Y-102860646D01*
X127979200Y-102860647D01*
X128689769Y-103571215D01*
X128643862Y-103578135D01*
X128521643Y-103636993D01*
X128422202Y-103729260D01*
X128354375Y-103846740D01*
X128336500Y-103925053D01*
X127651843Y-103240396D01*
X127621818Y-103191718D01*
X127607945Y-103149852D01*
X127572797Y-103043780D01*
X127480670Y-102894419D01*
X127356581Y-102770330D01*
X127207220Y-102678203D01*
X127207217Y-102678202D01*
X127040638Y-102623003D01*
X126937833Y-102612500D01*
X126937826Y-102612500D01*
X125538174Y-102612500D01*
X125538166Y-102612500D01*
X125435361Y-102623003D01*
X125268782Y-102678202D01*
X125268777Y-102678204D01*
X125119417Y-102770331D01*
X124995331Y-102894417D01*
X124903204Y-103043777D01*
X124903202Y-103043782D01*
X124848003Y-103210361D01*
X124837500Y-103313166D01*
X124837500Y-104712833D01*
X103399453Y-104712833D01*
X103444319Y-104469933D01*
X103454212Y-104199235D01*
X103424586Y-103929982D01*
X103356072Y-103667912D01*
X103250130Y-103418610D01*
X103109018Y-103187390D01*
X103107845Y-103185981D01*
X102935746Y-102979180D01*
X102935740Y-102979175D01*
X102734002Y-102798418D01*
X102508092Y-102648957D01*
X102452727Y-102623003D01*
X102262824Y-102533980D01*
X102262819Y-102533978D01*
X102262814Y-102533976D01*
X102003442Y-102455942D01*
X102003428Y-102455939D01*
X101887791Y-102438921D01*
X101735439Y-102416500D01*
X101532369Y-102416500D01*
X101532364Y-102416500D01*
X101329844Y-102431323D01*
X101329831Y-102431325D01*
X101065453Y-102490217D01*
X101065446Y-102490220D01*
X100812439Y-102586987D01*
X100576226Y-102719557D01*
X100576224Y-102719558D01*
X100576223Y-102719559D01*
X100513893Y-102767688D01*
X100361822Y-102885112D01*
X100173822Y-103080109D01*
X100173816Y-103080116D01*
X100016202Y-103300419D01*
X100016199Y-103300424D01*
X99892350Y-103541309D01*
X99892343Y-103541327D01*
X99804884Y-103797685D01*
X99804881Y-103797699D01*
X99780449Y-103929975D01*
X99765114Y-104013000D01*
X99755681Y-104064068D01*
X99755680Y-104064075D01*
X99745787Y-104334763D01*
X98217500Y-104334763D01*
X98217500Y-101473000D01*
X116315540Y-101473000D01*
X116335326Y-101661256D01*
X116335327Y-101661259D01*
X116393818Y-101841277D01*
X116393821Y-101841284D01*
X116488467Y-102005216D01*
X116615129Y-102145888D01*
X116768265Y-102257148D01*
X116768270Y-102257151D01*
X116941192Y-102334142D01*
X116941197Y-102334144D01*
X117126354Y-102373500D01*
X117126355Y-102373500D01*
X117315644Y-102373500D01*
X117315646Y-102373500D01*
X117500803Y-102334144D01*
X117673730Y-102257151D01*
X117826871Y-102145888D01*
X117953533Y-102005216D01*
X118048179Y-101841284D01*
X118106674Y-101661256D01*
X118126460Y-101473000D01*
X118106674Y-101284744D01*
X118048179Y-101104716D01*
X117953533Y-100940784D01*
X117826871Y-100800112D01*
X117826870Y-100800111D01*
X117673734Y-100688851D01*
X117673729Y-100688848D01*
X117500807Y-100611857D01*
X117500802Y-100611855D01*
X117355000Y-100580865D01*
X117315646Y-100572500D01*
X117126354Y-100572500D01*
X117093897Y-100579398D01*
X116941197Y-100611855D01*
X116941192Y-100611857D01*
X116768270Y-100688848D01*
X116768265Y-100688851D01*
X116615129Y-100800111D01*
X116488466Y-100940785D01*
X116393821Y-101104715D01*
X116393818Y-101104722D01*
X116336784Y-101280256D01*
X116335326Y-101284744D01*
X116315540Y-101473000D01*
X98217500Y-101473000D01*
X98217500Y-94748000D01*
X98680632Y-94748000D01*
X99589889Y-94748000D01*
X99550390Y-94772457D01*
X99482799Y-94861962D01*
X99452105Y-94969840D01*
X99462454Y-95081521D01*
X99512448Y-95181922D01*
X99584931Y-95248000D01*
X98684742Y-95248000D01*
X98711770Y-95359409D01*
X98799040Y-95550507D01*
X98920889Y-95721619D01*
X98920895Y-95721625D01*
X99072932Y-95866592D01*
X99249657Y-95980166D01*
X99444685Y-96058244D01*
X99650962Y-96098000D01*
X99906000Y-96098000D01*
X99906000Y-95298000D01*
X100406000Y-95298000D01*
X100406000Y-96098000D01*
X100608398Y-96098000D01*
X100765122Y-96083034D01*
X100765126Y-96083033D01*
X100966686Y-96023850D01*
X101153414Y-95927586D01*
X101318537Y-95797731D01*
X101318540Y-95797728D01*
X101456105Y-95638969D01*
X101456114Y-95638958D01*
X101561144Y-95457039D01*
X101561147Y-95457032D01*
X101629855Y-95258517D01*
X101629855Y-95258515D01*
X101631368Y-95248000D01*
X100722111Y-95248000D01*
X100761610Y-95223543D01*
X100829201Y-95134038D01*
X100859895Y-95026160D01*
X100849546Y-94914479D01*
X100799552Y-94814078D01*
X100727069Y-94748000D01*
X101627257Y-94748000D01*
X102805632Y-94748000D01*
X103714889Y-94748000D01*
X103675390Y-94772457D01*
X103607799Y-94861962D01*
X103577105Y-94969840D01*
X103587454Y-95081521D01*
X103637448Y-95181922D01*
X103709931Y-95248000D01*
X102809742Y-95248000D01*
X102836770Y-95359409D01*
X102924040Y-95550507D01*
X103045889Y-95721619D01*
X103045895Y-95721625D01*
X103197932Y-95866592D01*
X103374657Y-95980166D01*
X103569685Y-96058244D01*
X103775962Y-96098000D01*
X104181000Y-96098000D01*
X104181000Y-95298000D01*
X104681000Y-95298000D01*
X104681000Y-96098000D01*
X105033398Y-96098000D01*
X105190122Y-96083034D01*
X105190126Y-96083033D01*
X105391686Y-96023850D01*
X105578414Y-95927586D01*
X105743537Y-95797731D01*
X105743540Y-95797728D01*
X105881105Y-95638969D01*
X105881114Y-95638958D01*
X105986144Y-95457039D01*
X105986149Y-95457029D01*
X106006162Y-95399206D01*
X106046690Y-95342292D01*
X106111555Y-95316323D01*
X106180162Y-95329546D01*
X106227149Y-95371938D01*
X106253836Y-95412785D01*
X106253838Y-95412787D01*
X106294273Y-95456712D01*
X106297586Y-95460623D01*
X106309965Y-95476527D01*
X106334262Y-95507744D01*
X106334264Y-95507746D01*
X106334265Y-95507747D01*
X106334268Y-95507751D01*
X106353155Y-95525137D01*
X106378214Y-95548205D01*
X106381804Y-95551796D01*
X106392040Y-95562915D01*
X106422248Y-95595731D01*
X106422256Y-95595738D01*
X106469381Y-95632417D01*
X106473286Y-95635724D01*
X106517215Y-95676164D01*
X106517217Y-95676165D01*
X106567196Y-95708818D01*
X106571368Y-95711797D01*
X106591917Y-95727790D01*
X106618491Y-95748474D01*
X106671008Y-95776894D01*
X106675399Y-95779510D01*
X106725393Y-95812173D01*
X106780079Y-95836160D01*
X106784666Y-95838403D01*
X106837184Y-95866825D01*
X106837190Y-95866828D01*
X106893674Y-95886218D01*
X106898442Y-95888078D01*
X106953119Y-95912063D01*
X106953120Y-95912063D01*
X106953122Y-95912064D01*
X106953121Y-95912064D01*
X106976667Y-95918026D01*
X107011007Y-95926721D01*
X107015902Y-95928179D01*
X107072386Y-95947571D01*
X107072390Y-95947571D01*
X107072391Y-95947572D01*
X107088129Y-95950198D01*
X107131281Y-95957398D01*
X107136295Y-95958449D01*
X107194179Y-95973108D01*
X107253686Y-95978038D01*
X107258768Y-95978671D01*
X107317665Y-95988500D01*
X107379933Y-95988500D01*
X107570542Y-95988500D01*
X107637581Y-96008185D01*
X107683336Y-96060989D01*
X107693280Y-96130147D01*
X107664255Y-96193703D01*
X107605477Y-96231477D01*
X107602635Y-96232275D01*
X107491344Y-96262094D01*
X107491335Y-96262098D01*
X107277171Y-96361964D01*
X107277169Y-96361965D01*
X107083597Y-96497505D01*
X106916505Y-96664597D01*
X106780965Y-96858169D01*
X106780964Y-96858171D01*
X106681098Y-97072335D01*
X106681094Y-97072344D01*
X106619938Y-97300586D01*
X106619936Y-97300596D01*
X106599341Y-97535999D01*
X106599341Y-97536000D01*
X106619936Y-97771403D01*
X106619938Y-97771413D01*
X106681094Y-97999655D01*
X106681096Y-97999659D01*
X106681097Y-97999663D01*
X106707238Y-98055722D01*
X106780965Y-98213830D01*
X106780967Y-98213834D01*
X106889281Y-98368521D01*
X106916505Y-98407401D01*
X107083599Y-98574495D01*
X107180384Y-98642264D01*
X107277165Y-98710032D01*
X107277167Y-98710033D01*
X107277170Y-98710035D01*
X107491337Y-98809903D01*
X107719592Y-98871063D01*
X107896034Y-98886500D01*
X107954999Y-98891659D01*
X107955000Y-98891659D01*
X107955001Y-98891659D01*
X108013966Y-98886500D01*
X108190408Y-98871063D01*
X108418663Y-98809903D01*
X108632830Y-98710035D01*
X108826401Y-98574495D01*
X108948329Y-98452566D01*
X109009648Y-98419084D01*
X109079340Y-98424068D01*
X109135274Y-98465939D01*
X109152189Y-98496917D01*
X109201202Y-98628328D01*
X109201206Y-98628335D01*
X109287452Y-98743544D01*
X109287455Y-98743547D01*
X109402664Y-98829793D01*
X109402671Y-98829797D01*
X109537517Y-98880091D01*
X109537516Y-98880091D01*
X109544444Y-98880835D01*
X109597127Y-98886500D01*
X111392872Y-98886499D01*
X111452483Y-98880091D01*
X111587331Y-98829796D01*
X111702546Y-98743546D01*
X111788796Y-98628331D01*
X111839091Y-98493483D01*
X111845500Y-98433873D01*
X111845499Y-96638128D01*
X111839091Y-96578517D01*
X111837810Y-96575083D01*
X111788797Y-96443671D01*
X111788793Y-96443664D01*
X111702547Y-96328455D01*
X111702544Y-96328452D01*
X111587335Y-96242206D01*
X111587328Y-96242202D01*
X111452482Y-96191908D01*
X111452483Y-96191908D01*
X111392883Y-96185501D01*
X111392881Y-96185500D01*
X111392873Y-96185500D01*
X111392864Y-96185500D01*
X109597129Y-96185500D01*
X109597123Y-96185501D01*
X109537516Y-96191908D01*
X109402671Y-96242202D01*
X109402664Y-96242206D01*
X109287455Y-96328452D01*
X109287452Y-96328455D01*
X109201206Y-96443664D01*
X109201203Y-96443669D01*
X109152189Y-96575083D01*
X109110317Y-96631016D01*
X109044853Y-96655433D01*
X108976580Y-96640581D01*
X108948326Y-96619430D01*
X108826402Y-96497506D01*
X108826395Y-96497501D01*
X108632834Y-96361967D01*
X108632830Y-96361965D01*
X108632829Y-96361964D01*
X108418663Y-96262097D01*
X108418659Y-96262096D01*
X108418655Y-96262094D01*
X108307365Y-96232275D01*
X108247704Y-96195910D01*
X108217175Y-96133063D01*
X108225469Y-96063688D01*
X108269955Y-96009810D01*
X108336507Y-95988535D01*
X108339458Y-95988500D01*
X108487981Y-95988500D01*
X108495652Y-95988975D01*
X108522779Y-95992357D01*
X108616035Y-95988500D01*
X108647067Y-95988500D01*
X108677990Y-95985937D01*
X108771237Y-95982081D01*
X108797982Y-95976472D01*
X108805582Y-95975364D01*
X108832821Y-95973108D01*
X108832824Y-95973107D01*
X108832826Y-95973107D01*
X108832829Y-95973106D01*
X108923288Y-95950198D01*
X108935812Y-95947572D01*
X109014614Y-95931049D01*
X109040077Y-95921112D01*
X109047374Y-95918774D01*
X109073881Y-95912063D01*
X109159335Y-95874579D01*
X109246274Y-95840656D01*
X109269761Y-95826659D01*
X109276581Y-95823149D01*
X109301607Y-95812173D01*
X109379720Y-95761139D01*
X109459894Y-95713366D01*
X109480754Y-95695697D01*
X109486894Y-95691117D01*
X109509785Y-95676164D01*
X109578435Y-95612966D01*
X109602126Y-95592902D01*
X109624078Y-95570949D01*
X109692738Y-95507744D01*
X109709530Y-95486167D01*
X109714604Y-95480422D01*
X109797596Y-95397430D01*
X109803341Y-95392356D01*
X109824918Y-95375564D01*
X109888123Y-95306904D01*
X109910076Y-95284952D01*
X109930140Y-95261261D01*
X109993338Y-95192611D01*
X110008291Y-95169720D01*
X110012871Y-95163580D01*
X110030540Y-95142720D01*
X110078313Y-95062546D01*
X110129347Y-94984433D01*
X110140323Y-94959407D01*
X110143833Y-94952587D01*
X110157830Y-94929100D01*
X110191753Y-94842161D01*
X110229237Y-94756707D01*
X110235948Y-94730200D01*
X110238286Y-94722903D01*
X110248223Y-94697440D01*
X110267372Y-94606114D01*
X110290282Y-94515647D01*
X110292538Y-94488408D01*
X110293646Y-94480808D01*
X110299255Y-94454063D01*
X110303111Y-94360816D01*
X110305674Y-94329893D01*
X110305674Y-94298861D01*
X110309531Y-94205605D01*
X110306149Y-94178475D01*
X110305673Y-94170824D01*
X110305674Y-87746801D01*
X110325359Y-87679763D01*
X110337514Y-87663841D01*
X110460533Y-87527216D01*
X110555179Y-87363284D01*
X110613674Y-87183256D01*
X110633460Y-86995000D01*
X110613674Y-86806744D01*
X110555179Y-86626716D01*
X110460533Y-86462784D01*
X110382536Y-86376160D01*
X110337524Y-86326168D01*
X110307294Y-86263176D01*
X110305674Y-86243196D01*
X110305674Y-86169192D01*
X110306151Y-86161516D01*
X110309531Y-86134394D01*
X110309531Y-86134393D01*
X110305674Y-86041138D01*
X110305674Y-86010108D01*
X110303111Y-85979183D01*
X110300218Y-85909219D01*
X110299255Y-85885937D01*
X110296148Y-85871118D01*
X110293647Y-85859190D01*
X110292538Y-85851580D01*
X110290283Y-85824361D01*
X110290282Y-85824358D01*
X110290282Y-85824353D01*
X110267372Y-85733885D01*
X110248223Y-85642560D01*
X110238290Y-85617106D01*
X110235945Y-85609783D01*
X110232961Y-85598000D01*
X110229237Y-85583293D01*
X110225171Y-85574022D01*
X110191753Y-85497837D01*
X110157832Y-85410904D01*
X110157827Y-85410894D01*
X110151830Y-85400831D01*
X110143837Y-85387417D01*
X110140321Y-85380586D01*
X110129347Y-85355567D01*
X110129346Y-85355566D01*
X110078313Y-85277452D01*
X110049845Y-85229678D01*
X110030540Y-85197280D01*
X110012876Y-85176424D01*
X110008280Y-85170260D01*
X109993340Y-85147392D01*
X109993339Y-85147391D01*
X109993338Y-85147389D01*
X109930140Y-85078738D01*
X109910076Y-85055048D01*
X109910068Y-85055040D01*
X109888124Y-85033095D01*
X109824921Y-84964439D01*
X109824920Y-84964438D01*
X109824918Y-84964436D01*
X109803348Y-84947647D01*
X109797586Y-84942558D01*
X109714615Y-84859587D01*
X109709524Y-84853822D01*
X109692739Y-84832257D01*
X109624078Y-84769049D01*
X109602129Y-84747100D01*
X109578435Y-84727033D01*
X109509786Y-84663837D01*
X109509785Y-84663836D01*
X109486904Y-84648887D01*
X109480747Y-84644296D01*
X109459894Y-84626634D01*
X109379720Y-84578860D01*
X109301607Y-84527827D01*
X109301604Y-84527825D01*
X109276588Y-84516852D01*
X109269750Y-84513332D01*
X109246275Y-84499344D01*
X109159335Y-84465420D01*
X109113173Y-84445172D01*
X109073881Y-84427937D01*
X109073877Y-84427936D01*
X109073875Y-84427935D01*
X109047387Y-84421227D01*
X109040067Y-84418882D01*
X109023593Y-84412454D01*
X109014614Y-84408951D01*
X108923288Y-84389801D01*
X108923287Y-84389800D01*
X108832819Y-84366891D01*
X108805590Y-84364635D01*
X108797983Y-84363526D01*
X108777986Y-84359334D01*
X108771237Y-84357919D01*
X108771235Y-84357918D01*
X108677990Y-84354062D01*
X108677989Y-84354062D01*
X108647067Y-84351500D01*
X108647064Y-84351500D01*
X108616035Y-84351500D01*
X108522780Y-84347643D01*
X108522779Y-84347643D01*
X108495652Y-84351024D01*
X108487981Y-84351500D01*
X107379933Y-84351500D01*
X107360521Y-84353108D01*
X107194186Y-84366890D01*
X107194175Y-84366892D01*
X106953118Y-84427936D01*
X106725393Y-84527826D01*
X106517217Y-84663833D01*
X106334261Y-84832257D01*
X106181524Y-85028493D01*
X106063172Y-85247188D01*
X106063169Y-85247197D01*
X105982429Y-85482382D01*
X105977673Y-85510885D01*
X105947221Y-85573770D01*
X105887606Y-85610209D01*
X105817754Y-85608633D01*
X105769795Y-85580217D01*
X105664070Y-85479409D01*
X105487342Y-85365833D01*
X105292314Y-85287755D01*
X105086038Y-85248000D01*
X104681000Y-85248000D01*
X104681000Y-86048000D01*
X104181000Y-86048000D01*
X104181000Y-85248000D01*
X103828602Y-85248000D01*
X103671877Y-85262965D01*
X103671873Y-85262966D01*
X103470313Y-85322149D01*
X103283585Y-85418413D01*
X103118462Y-85548268D01*
X103118459Y-85548271D01*
X102980894Y-85707030D01*
X102980885Y-85707041D01*
X102875855Y-85888960D01*
X102875852Y-85888967D01*
X102807144Y-86087482D01*
X102807144Y-86087484D01*
X102805632Y-86098000D01*
X103714889Y-86098000D01*
X103675390Y-86122457D01*
X103607799Y-86211962D01*
X103577105Y-86319840D01*
X103587454Y-86431521D01*
X103637448Y-86531922D01*
X103709931Y-86598000D01*
X102809742Y-86598000D01*
X102836770Y-86709409D01*
X102924040Y-86900507D01*
X103045889Y-87071619D01*
X103045895Y-87071625D01*
X103197932Y-87216592D01*
X103353180Y-87316363D01*
X103398935Y-87369167D01*
X103408879Y-87438326D01*
X103387446Y-87492186D01*
X103362622Y-87527353D01*
X103362621Y-87527355D01*
X103311946Y-87669939D01*
X103311946Y-87669942D01*
X103301619Y-87820918D01*
X103301619Y-87820921D01*
X103332405Y-87969078D01*
X103332407Y-87969083D01*
X103332408Y-87969085D01*
X103402029Y-88103447D01*
X103402031Y-88103449D01*
X103402032Y-88103451D01*
X103505318Y-88214043D01*
X103505320Y-88214044D01*
X103634618Y-88292672D01*
X103780335Y-88333500D01*
X103780336Y-88333500D01*
X103893659Y-88333500D01*
X103921723Y-88329642D01*
X104005920Y-88318070D01*
X104115854Y-88270318D01*
X104144716Y-88257782D01*
X104144716Y-88257781D01*
X104144720Y-88257780D01*
X104262108Y-88162278D01*
X104349377Y-88038647D01*
X104357873Y-88014742D01*
X104400053Y-87896060D01*
X104400053Y-87896058D01*
X104400054Y-87896056D01*
X104410381Y-87745079D01*
X104394768Y-87669944D01*
X104379594Y-87596921D01*
X104379592Y-87596918D01*
X104379592Y-87596915D01*
X104309971Y-87462553D01*
X104309967Y-87462549D01*
X104309967Y-87462548D01*
X104214376Y-87360195D01*
X104183005Y-87297765D01*
X104181000Y-87275559D01*
X104181000Y-86648000D01*
X104681000Y-86648000D01*
X104681000Y-87448000D01*
X105033398Y-87448000D01*
X105190122Y-87433034D01*
X105190126Y-87433033D01*
X105391686Y-87373850D01*
X105578414Y-87277586D01*
X105743537Y-87147731D01*
X105747817Y-87143651D01*
X105749420Y-87145332D01*
X105799567Y-87113055D01*
X105869437Y-87113006D01*
X105928242Y-87150739D01*
X105956895Y-87211598D01*
X105982429Y-87364617D01*
X106063169Y-87599802D01*
X106063172Y-87599811D01*
X106142720Y-87746802D01*
X106181526Y-87818509D01*
X106334262Y-88014744D01*
X106430624Y-88103451D01*
X106517217Y-88183166D01*
X106725393Y-88319173D01*
X106953118Y-88419063D01*
X107076807Y-88450385D01*
X107194179Y-88480108D01*
X107194184Y-88480108D01*
X107199234Y-88480951D01*
X107198903Y-88482933D01*
X107256052Y-88504954D01*
X107297317Y-88561337D01*
X107304674Y-88603413D01*
X107304674Y-88654674D01*
X107284989Y-88721713D01*
X107232185Y-88767468D01*
X107180674Y-88778674D01*
X107110528Y-88778674D01*
X107078071Y-88785572D01*
X106925371Y-88818029D01*
X106925366Y-88818031D01*
X106752444Y-88895022D01*
X106752439Y-88895025D01*
X106599303Y-89006285D01*
X106472640Y-89146959D01*
X106377995Y-89310889D01*
X106377992Y-89310896D01*
X106319501Y-89490914D01*
X106319500Y-89490918D01*
X106299714Y-89679174D01*
X106319500Y-89867430D01*
X106319501Y-89867433D01*
X106377992Y-90047451D01*
X106377995Y-90047458D01*
X106472641Y-90211390D01*
X106562001Y-90310634D01*
X106599303Y-90352062D01*
X106734769Y-90450484D01*
X106752444Y-90463325D01*
X106857981Y-90510313D01*
X106911215Y-90555562D01*
X106931536Y-90622411D01*
X106912491Y-90689635D01*
X106860125Y-90735890D01*
X106833323Y-90744881D01*
X106654197Y-90782955D01*
X106654192Y-90782957D01*
X106481270Y-90859948D01*
X106481265Y-90859951D01*
X106328129Y-90971211D01*
X106201466Y-91111885D01*
X106106821Y-91275815D01*
X106106818Y-91275822D01*
X106049342Y-91452716D01*
X106048326Y-91455844D01*
X106031577Y-91615201D01*
X106029734Y-91632744D01*
X106028540Y-91644100D01*
X106048326Y-91832356D01*
X106048327Y-91832359D01*
X106106818Y-92012377D01*
X106106821Y-92012384D01*
X106201464Y-92176312D01*
X106201465Y-92176314D01*
X106201467Y-92176316D01*
X106262841Y-92244479D01*
X106293070Y-92307468D01*
X106284445Y-92376803D01*
X106261925Y-92411426D01*
X106253837Y-92420212D01*
X106253835Y-92420214D01*
X106117826Y-92628393D01*
X106017936Y-92856118D01*
X105956892Y-93097175D01*
X105956890Y-93097186D01*
X105941500Y-93282935D01*
X105941500Y-94104371D01*
X105921815Y-94171410D01*
X105869011Y-94217165D01*
X105799853Y-94227109D01*
X105736297Y-94198084D01*
X105731931Y-94194114D01*
X105664070Y-94129409D01*
X105487342Y-94015833D01*
X105292314Y-93937755D01*
X105086038Y-93898000D01*
X104530500Y-93898000D01*
X104463461Y-93878315D01*
X104417706Y-93825511D01*
X104406500Y-93774000D01*
X104406500Y-93350341D01*
X104391070Y-93238082D01*
X104391070Y-93238080D01*
X104360028Y-93166615D01*
X104330782Y-93099283D01*
X104329076Y-93097186D01*
X104235278Y-92981892D01*
X104235276Y-92981891D01*
X104235275Y-92981889D01*
X104111647Y-92894623D01*
X104111644Y-92894621D01*
X103969058Y-92843946D01*
X103818081Y-92833619D01*
X103818074Y-92833619D01*
X103669921Y-92864405D01*
X103669915Y-92864408D01*
X103535553Y-92934029D01*
X103535551Y-92934030D01*
X103535552Y-92934030D01*
X103535548Y-92934032D01*
X103424956Y-93037318D01*
X103346329Y-93166615D01*
X103346328Y-93166617D01*
X103346328Y-93166618D01*
X103305500Y-93312335D01*
X103305500Y-93775658D01*
X103320930Y-93887920D01*
X103326767Y-93901358D01*
X103332063Y-93913550D01*
X103340717Y-93982882D01*
X103310513Y-94045886D01*
X103285372Y-94067265D01*
X103283590Y-94068410D01*
X103118462Y-94198268D01*
X103118459Y-94198271D01*
X102980894Y-94357030D01*
X102980885Y-94357041D01*
X102875855Y-94538960D01*
X102875852Y-94538967D01*
X102807144Y-94737482D01*
X102807144Y-94737484D01*
X102805632Y-94748000D01*
X101627257Y-94748000D01*
X101600229Y-94636590D01*
X101512959Y-94445492D01*
X101391110Y-94274380D01*
X101391104Y-94274374D01*
X101239067Y-94129407D01*
X101062342Y-94015833D01*
X100867314Y-93937755D01*
X100661038Y-93898000D01*
X100406000Y-93898000D01*
X100406000Y-94698000D01*
X99906000Y-94698000D01*
X99906000Y-93898000D01*
X99703602Y-93898000D01*
X99546877Y-93912965D01*
X99546873Y-93912966D01*
X99345313Y-93972149D01*
X99158585Y-94068413D01*
X98993462Y-94198268D01*
X98993459Y-94198271D01*
X98855894Y-94357030D01*
X98855885Y-94357041D01*
X98750855Y-94538960D01*
X98750852Y-94538967D01*
X98682144Y-94737482D01*
X98682144Y-94737484D01*
X98680632Y-94748000D01*
X98217500Y-94748000D01*
X98217500Y-86098000D01*
X98680632Y-86098000D01*
X99589889Y-86098000D01*
X99550390Y-86122457D01*
X99482799Y-86211962D01*
X99452105Y-86319840D01*
X99462454Y-86431521D01*
X99512448Y-86531922D01*
X99584931Y-86598000D01*
X98684742Y-86598000D01*
X98711770Y-86709409D01*
X98799040Y-86900507D01*
X98920889Y-87071619D01*
X98920895Y-87071625D01*
X99072932Y-87216592D01*
X99249657Y-87330166D01*
X99444685Y-87408244D01*
X99650962Y-87448000D01*
X99906000Y-87448000D01*
X99906000Y-86648000D01*
X100406000Y-86648000D01*
X100406000Y-87448000D01*
X100608398Y-87448000D01*
X100765122Y-87433034D01*
X100765126Y-87433033D01*
X100966686Y-87373850D01*
X101153414Y-87277586D01*
X101318537Y-87147731D01*
X101318540Y-87147728D01*
X101456105Y-86988969D01*
X101456114Y-86988958D01*
X101561144Y-86807039D01*
X101561147Y-86807032D01*
X101629855Y-86608517D01*
X101629855Y-86608515D01*
X101631368Y-86598000D01*
X100722111Y-86598000D01*
X100761610Y-86573543D01*
X100829201Y-86484038D01*
X100859895Y-86376160D01*
X100849546Y-86264479D01*
X100799552Y-86164078D01*
X100727069Y-86098000D01*
X101627257Y-86098000D01*
X101600229Y-85986590D01*
X101512959Y-85795492D01*
X101391110Y-85624380D01*
X101391104Y-85624374D01*
X101239067Y-85479407D01*
X101062342Y-85365833D01*
X100867314Y-85287755D01*
X100661038Y-85248000D01*
X100406000Y-85248000D01*
X100406000Y-86048000D01*
X99906000Y-86048000D01*
X99906000Y-85248000D01*
X99703602Y-85248000D01*
X99546877Y-85262965D01*
X99546873Y-85262966D01*
X99345313Y-85322149D01*
X99158585Y-85418413D01*
X98993462Y-85548268D01*
X98993459Y-85548271D01*
X98855894Y-85707030D01*
X98855885Y-85707041D01*
X98750855Y-85888960D01*
X98750852Y-85888967D01*
X98682144Y-86087482D01*
X98682144Y-86087484D01*
X98680632Y-86098000D01*
X98217500Y-86098000D01*
X98217500Y-81280000D01*
X98916540Y-81280000D01*
X98936326Y-81468256D01*
X98936327Y-81468259D01*
X98994818Y-81648277D01*
X98994821Y-81648284D01*
X99089467Y-81812216D01*
X99197525Y-81932226D01*
X99216129Y-81952888D01*
X99369265Y-82064148D01*
X99369270Y-82064151D01*
X99542192Y-82141142D01*
X99542197Y-82141144D01*
X99727354Y-82180500D01*
X99727355Y-82180500D01*
X99916644Y-82180500D01*
X99916646Y-82180500D01*
X100101803Y-82141144D01*
X100274730Y-82064151D01*
X100427871Y-81952888D01*
X100427870Y-81952888D01*
X100433129Y-81949068D01*
X100434066Y-81950358D01*
X100489806Y-81923604D01*
X100559141Y-81932226D01*
X100612809Y-81976964D01*
X100623652Y-81996869D01*
X100626473Y-82003410D01*
X100626474Y-82003412D01*
X100695547Y-82163539D01*
X100799685Y-82303422D01*
X100799686Y-82303423D01*
X100799688Y-82303425D01*
X100871118Y-82363361D01*
X100933275Y-82415517D01*
X101089116Y-82493783D01*
X101258805Y-82534000D01*
X101258807Y-82534000D01*
X101389448Y-82534000D01*
X101389455Y-82534000D01*
X101519211Y-82518834D01*
X101683084Y-82459189D01*
X101828784Y-82363360D01*
X101948458Y-82236513D01*
X102035653Y-82085487D01*
X102085668Y-81918423D01*
X102095808Y-81744329D01*
X102065526Y-81572588D01*
X101996453Y-81412461D01*
X101892315Y-81272578D01*
X101892312Y-81272576D01*
X101892311Y-81272574D01*
X101758725Y-81160483D01*
X101758723Y-81160482D01*
X101602887Y-81082218D01*
X101602885Y-81082217D01*
X101602884Y-81082217D01*
X101433195Y-81042000D01*
X101302545Y-81042000D01*
X101201623Y-81053795D01*
X101172787Y-81057166D01*
X101172785Y-81057167D01*
X101008918Y-81116809D01*
X100899785Y-81188588D01*
X100832957Y-81208980D01*
X100765714Y-81190006D01*
X100719403Y-81137689D01*
X100708326Y-81097949D01*
X100707674Y-81091744D01*
X100649179Y-80911716D01*
X100554533Y-80747784D01*
X100427871Y-80607112D01*
X100427870Y-80607111D01*
X100274734Y-80495851D01*
X100274729Y-80495848D01*
X100101807Y-80418857D01*
X100101802Y-80418855D01*
X99956001Y-80387865D01*
X99916646Y-80379500D01*
X99727354Y-80379500D01*
X99694897Y-80386398D01*
X99542197Y-80418855D01*
X99542192Y-80418857D01*
X99369270Y-80495848D01*
X99369265Y-80495851D01*
X99216129Y-80607111D01*
X99089466Y-80747785D01*
X98994821Y-80911715D01*
X98994818Y-80911722D01*
X98939421Y-81082218D01*
X98936326Y-81091744D01*
X98916540Y-81280000D01*
X98217500Y-81280000D01*
X98217500Y-78359000D01*
X98662540Y-78359000D01*
X98682326Y-78547256D01*
X98682327Y-78547259D01*
X98740818Y-78727277D01*
X98740821Y-78727284D01*
X98835467Y-78891216D01*
X98867962Y-78927305D01*
X98962129Y-79031888D01*
X99115265Y-79143148D01*
X99115270Y-79143151D01*
X99288192Y-79220142D01*
X99288197Y-79220144D01*
X99473354Y-79259500D01*
X99473355Y-79259500D01*
X99662644Y-79259500D01*
X99662646Y-79259500D01*
X99847803Y-79220144D01*
X100020730Y-79143151D01*
X100173871Y-79031888D01*
X100300533Y-78891216D01*
X100395179Y-78727284D01*
X100453674Y-78547256D01*
X100473460Y-78359000D01*
X100453674Y-78170744D01*
X100395179Y-77990716D01*
X100300533Y-77826784D01*
X100173871Y-77686112D01*
X100163035Y-77678239D01*
X100120370Y-77622908D01*
X100114392Y-77553294D01*
X100146999Y-77491500D01*
X100207839Y-77457144D01*
X100236583Y-77455546D01*
X100236583Y-77454000D01*
X100374448Y-77454000D01*
X100374455Y-77454000D01*
X100504211Y-77438834D01*
X100668084Y-77379189D01*
X100813784Y-77283360D01*
X100933458Y-77156513D01*
X101020653Y-77005487D01*
X101070668Y-76838423D01*
X101075721Y-76751671D01*
X101611192Y-76751671D01*
X101626487Y-76838418D01*
X101641474Y-76923412D01*
X101710547Y-77083539D01*
X101814685Y-77223422D01*
X101814686Y-77223423D01*
X101814688Y-77223425D01*
X101886118Y-77283361D01*
X101948275Y-77335517D01*
X102104116Y-77413783D01*
X102273805Y-77454000D01*
X102273807Y-77454000D01*
X102404448Y-77454000D01*
X102404455Y-77454000D01*
X102534211Y-77438834D01*
X102698084Y-77379189D01*
X102843784Y-77283360D01*
X102963458Y-77156513D01*
X103050653Y-77005487D01*
X103100668Y-76838423D01*
X103110808Y-76664329D01*
X103080526Y-76492588D01*
X103011453Y-76332461D01*
X102907315Y-76192578D01*
X102907312Y-76192576D01*
X102907311Y-76192574D01*
X102773725Y-76080483D01*
X102773723Y-76080482D01*
X102617887Y-76002218D01*
X102617885Y-76002217D01*
X102617884Y-76002217D01*
X102448195Y-75962000D01*
X102317545Y-75962000D01*
X102216623Y-75973795D01*
X102187787Y-75977166D01*
X102187785Y-75977167D01*
X102023917Y-76036810D01*
X102023913Y-76036812D01*
X101878218Y-76132637D01*
X101878217Y-76132638D01*
X101758543Y-76259485D01*
X101758539Y-76259490D01*
X101671347Y-76410511D01*
X101621333Y-76577573D01*
X101621331Y-76577581D01*
X101611192Y-76751670D01*
X101611192Y-76751671D01*
X101075721Y-76751671D01*
X101080808Y-76664329D01*
X101050526Y-76492588D01*
X100981453Y-76332461D01*
X100877315Y-76192578D01*
X100877312Y-76192576D01*
X100877311Y-76192574D01*
X100743725Y-76080483D01*
X100743723Y-76080482D01*
X100587887Y-76002218D01*
X100587885Y-76002217D01*
X100587884Y-76002217D01*
X100418195Y-75962000D01*
X100287545Y-75962000D01*
X100186623Y-75973795D01*
X100157787Y-75977166D01*
X100157785Y-75977167D01*
X99993917Y-76036810D01*
X99993913Y-76036812D01*
X99848218Y-76132637D01*
X99848217Y-76132638D01*
X99728543Y-76259485D01*
X99728539Y-76259490D01*
X99641347Y-76410511D01*
X99591333Y-76577573D01*
X99591331Y-76577581D01*
X99581192Y-76751670D01*
X99581192Y-76751671D01*
X99596487Y-76838418D01*
X99611474Y-76923412D01*
X99680547Y-77083539D01*
X99784685Y-77223422D01*
X99784689Y-77223425D01*
X99820304Y-77253310D01*
X99859006Y-77311481D01*
X99860114Y-77381342D01*
X99823277Y-77440712D01*
X99760190Y-77470741D01*
X99714821Y-77469590D01*
X99662646Y-77458500D01*
X99473354Y-77458500D01*
X99440897Y-77465398D01*
X99288197Y-77497855D01*
X99288192Y-77497857D01*
X99115270Y-77574848D01*
X99115265Y-77574851D01*
X98962129Y-77686111D01*
X98835466Y-77826785D01*
X98740821Y-77990715D01*
X98740818Y-77990722D01*
X98697784Y-78123169D01*
X98682326Y-78170744D01*
X98662540Y-78359000D01*
X98217500Y-78359000D01*
X98217500Y-74803000D01*
X108314540Y-74803000D01*
X108334326Y-74991256D01*
X108334327Y-74991259D01*
X108392818Y-75171277D01*
X108392821Y-75171284D01*
X108487467Y-75335216D01*
X108614129Y-75475887D01*
X108614129Y-75475888D01*
X108767265Y-75587148D01*
X108767270Y-75587151D01*
X108940192Y-75664142D01*
X108940197Y-75664144D01*
X109125354Y-75703500D01*
X109125355Y-75703500D01*
X109314644Y-75703500D01*
X109314646Y-75703500D01*
X109499803Y-75664144D01*
X109672730Y-75587151D01*
X109825871Y-75475888D01*
X109952533Y-75335216D01*
X110047179Y-75171284D01*
X110105674Y-74991256D01*
X110125460Y-74803000D01*
X110105674Y-74614744D01*
X110047179Y-74434716D01*
X109952533Y-74270784D01*
X109825871Y-74130112D01*
X109825870Y-74130111D01*
X109715783Y-74050128D01*
X109673117Y-73994798D01*
X109667138Y-73925185D01*
X109699744Y-73863390D01*
X109738226Y-73836534D01*
X109799730Y-73809151D01*
X109952871Y-73697888D01*
X110079533Y-73557216D01*
X110174179Y-73393284D01*
X110232674Y-73213256D01*
X110252460Y-73025000D01*
X110232674Y-72836744D01*
X110174179Y-72656716D01*
X110079533Y-72492784D01*
X109952871Y-72352112D01*
X109934729Y-72338931D01*
X109799734Y-72240851D01*
X109799729Y-72240848D01*
X109626807Y-72163857D01*
X109626802Y-72163855D01*
X109481000Y-72132865D01*
X109441646Y-72124500D01*
X109252354Y-72124500D01*
X109219897Y-72131398D01*
X109067197Y-72163855D01*
X109067192Y-72163857D01*
X108894270Y-72240848D01*
X108894265Y-72240851D01*
X108741129Y-72352111D01*
X108614466Y-72492785D01*
X108519821Y-72656715D01*
X108519818Y-72656722D01*
X108494356Y-72735088D01*
X108461326Y-72836744D01*
X108441540Y-73025000D01*
X108461326Y-73213256D01*
X108463292Y-73219309D01*
X108519818Y-73393277D01*
X108519821Y-73393284D01*
X108614467Y-73557216D01*
X108657115Y-73604581D01*
X108741129Y-73697888D01*
X108851216Y-73777871D01*
X108893882Y-73833201D01*
X108899861Y-73902814D01*
X108867255Y-73964609D01*
X108828768Y-73991468D01*
X108767267Y-74018850D01*
X108767265Y-74018851D01*
X108614129Y-74130111D01*
X108487466Y-74270785D01*
X108392821Y-74434715D01*
X108392818Y-74434722D01*
X108334327Y-74614740D01*
X108334326Y-74614744D01*
X108314540Y-74803000D01*
X98217500Y-74803000D01*
X98217500Y-72203763D01*
X99745787Y-72203763D01*
X99775413Y-72473013D01*
X99775415Y-72473024D01*
X99823440Y-72656722D01*
X99843928Y-72735088D01*
X99949870Y-72984390D01*
X100021998Y-73102575D01*
X100090979Y-73215605D01*
X100090986Y-73215615D01*
X100264253Y-73423819D01*
X100264259Y-73423824D01*
X100465998Y-73604582D01*
X100691910Y-73754044D01*
X100937176Y-73869020D01*
X100937183Y-73869022D01*
X100937185Y-73869023D01*
X101196557Y-73947057D01*
X101196564Y-73947058D01*
X101196569Y-73947060D01*
X101464561Y-73986500D01*
X101464566Y-73986500D01*
X101667636Y-73986500D01*
X101719133Y-73982730D01*
X101870156Y-73971677D01*
X102004027Y-73941856D01*
X102134546Y-73912782D01*
X102134548Y-73912781D01*
X102134553Y-73912780D01*
X102387558Y-73816014D01*
X102623777Y-73683441D01*
X102838177Y-73517888D01*
X103026186Y-73322881D01*
X103183799Y-73102579D01*
X103257787Y-72958669D01*
X103307649Y-72861690D01*
X103307651Y-72861684D01*
X103307656Y-72861675D01*
X103395118Y-72605305D01*
X103444319Y-72338933D01*
X103454212Y-72068235D01*
X103424586Y-71798982D01*
X103356072Y-71536912D01*
X103250130Y-71287610D01*
X103109018Y-71056390D01*
X103071471Y-71011272D01*
X102935746Y-70848180D01*
X102935740Y-70848175D01*
X102734002Y-70667418D01*
X102508092Y-70517957D01*
X102504875Y-70516449D01*
X102262824Y-70402980D01*
X102262819Y-70402978D01*
X102262814Y-70402976D01*
X102003442Y-70324942D01*
X102003428Y-70324939D01*
X101887791Y-70307921D01*
X101735439Y-70285500D01*
X101532369Y-70285500D01*
X101532364Y-70285500D01*
X101329844Y-70300323D01*
X101329831Y-70300325D01*
X101065453Y-70359217D01*
X101065446Y-70359220D01*
X100812439Y-70455987D01*
X100576226Y-70588557D01*
X100361822Y-70754112D01*
X100173822Y-70949109D01*
X100173816Y-70949116D01*
X100016202Y-71169419D01*
X100016199Y-71169424D01*
X99892350Y-71410309D01*
X99892343Y-71410327D01*
X99804884Y-71666685D01*
X99804881Y-71666699D01*
X99755681Y-71933068D01*
X99755680Y-71933075D01*
X99745787Y-72203763D01*
X98217500Y-72203763D01*
X98217500Y-70994877D01*
X98217613Y-70991133D01*
X98227149Y-70833481D01*
X98233601Y-70726797D01*
X98234505Y-70719365D01*
X98281901Y-70460739D01*
X98283691Y-70453473D01*
X98361918Y-70202432D01*
X98364569Y-70195445D01*
X98467132Y-69967558D01*
X98472486Y-69955662D01*
X98475956Y-69949049D01*
X98611993Y-69724019D01*
X98616236Y-69717872D01*
X98778406Y-69510877D01*
X98783350Y-69505296D01*
X98969296Y-69319350D01*
X98974877Y-69314406D01*
X99181872Y-69152236D01*
X99188019Y-69147993D01*
X99413049Y-69011956D01*
X99419662Y-69008486D01*
X99659443Y-68900569D01*
X99666432Y-68897918D01*
X99917473Y-68819691D01*
X99924739Y-68817901D01*
X100183365Y-68770505D01*
X100190797Y-68769601D01*
X100391717Y-68757448D01*
X100455134Y-68753613D01*
X100458878Y-68753500D01*
X100504595Y-68753500D01*
X118193500Y-68753500D01*
X118260539Y-68773185D01*
G37*
%TD.AperFunction*%
%TD*%
%TA.AperFunction,Conductor*%
%TO.N,/LED_PWR*%
G36*
X151384000Y-97282000D02*
G01*
X147574000Y-97282000D01*
X151384000Y-93345000D01*
X151384000Y-97282000D01*
G37*
%TD.AperFunction*%
%TD*%
M02*
