%TF.GenerationSoftware,KiCad,Pcbnew,7.0.6-0*%
%TF.CreationDate,2023-10-23T20:39:10-04:00*%
%TF.ProjectId,wled-esp32-control-board,776c6564-2d65-4737-9033-322d636f6e74,B*%
%TF.SameCoordinates,Original*%
%TF.FileFunction,Paste,Top*%
%TF.FilePolarity,Positive*%
%FSLAX46Y46*%
G04 Gerber Fmt 4.6, Leading zero omitted, Abs format (unit mm)*
G04 Created by KiCad (PCBNEW 7.0.6-0) date 2023-10-23 20:39:10*
%MOMM*%
%LPD*%
G01*
G04 APERTURE LIST*
G04 Aperture macros list*
%AMRoundRect*
0 Rectangle with rounded corners*
0 $1 Rounding radius*
0 $2 $3 $4 $5 $6 $7 $8 $9 X,Y pos of 4 corners*
0 Add a 4 corners polygon primitive as box body*
4,1,4,$2,$3,$4,$5,$6,$7,$8,$9,$2,$3,0*
0 Add four circle primitives for the rounded corners*
1,1,$1+$1,$2,$3*
1,1,$1+$1,$4,$5*
1,1,$1+$1,$6,$7*
1,1,$1+$1,$8,$9*
0 Add four rect primitives between the rounded corners*
20,1,$1+$1,$2,$3,$4,$5,0*
20,1,$1+$1,$4,$5,$6,$7,0*
20,1,$1+$1,$6,$7,$8,$9,0*
20,1,$1+$1,$8,$9,$2,$3,0*%
G04 Aperture macros list end*
%ADD10R,1.360000X0.260000*%
%ADD11RoundRect,0.180000X-0.200000X-0.275000X0.200000X-0.275000X0.200000X0.275000X-0.200000X0.275000X0*%
%ADD12RoundRect,0.205000X-0.250000X0.225000X-0.250000X-0.225000X0.250000X-0.225000X0.250000X0.225000X0*%
%ADD13R,0.960000X0.660000*%
%ADD14R,0.560000X0.660000*%
%ADD15RoundRect,0.198750X-0.218750X-0.256250X0.218750X-0.256250X0.218750X0.256250X-0.218750X0.256250X0*%
%ADD16RoundRect,0.205000X0.250000X-0.225000X0.250000X0.225000X-0.250000X0.225000X-0.250000X-0.225000X0*%
%ADD17RoundRect,0.180000X0.200000X0.275000X-0.200000X0.275000X-0.200000X-0.275000X0.200000X-0.275000X0*%
%ADD18RoundRect,0.180000X-0.275000X0.200000X-0.275000X-0.200000X0.275000X-0.200000X0.275000X0.200000X0*%
%ADD19RoundRect,0.180000X0.275000X-0.200000X0.275000X0.200000X-0.275000X0.200000X-0.275000X-0.200000X0*%
%ADD20RoundRect,0.130000X-0.512500X-0.150000X0.512500X-0.150000X0.512500X0.150000X-0.512500X0.150000X0*%
%ADD21R,0.360000X0.610000*%
%ADD22RoundRect,0.230000X0.250000X0.475000X-0.250000X0.475000X-0.250000X-0.475000X0.250000X-0.475000X0*%
%ADD23R,0.960000X0.710000*%
%ADD24RoundRect,0.198750X0.218750X0.256250X-0.218750X0.256250X-0.218750X-0.256250X0.218750X-0.256250X0*%
%ADD25RoundRect,0.230000X0.450000X-0.262500X0.450000X0.262500X-0.450000X0.262500X-0.450000X-0.262500X0*%
%ADD26RoundRect,0.205000X0.225000X0.250000X-0.225000X0.250000X-0.225000X-0.250000X0.225000X-0.250000X0*%
%ADD27RoundRect,0.225000X-0.225000X-0.225000X0.225000X-0.225000X0.225000X0.225000X-0.225000X0.225000X0*%
%ADD28RoundRect,0.042500X-0.337500X-0.062500X0.337500X-0.062500X0.337500X0.062500X-0.337500X0.062500X0*%
%ADD29RoundRect,0.042500X-0.062500X-0.337500X0.062500X-0.337500X0.062500X0.337500X-0.062500X0.337500X0*%
%ADD30RoundRect,0.205000X-0.225000X-0.250000X0.225000X-0.250000X0.225000X0.250000X-0.225000X0.250000X0*%
%ADD31R,1.460000X0.860000*%
%ADD32R,0.860000X1.460000*%
%ADD33R,1.010000X1.010000*%
G04 APERTURE END LIST*
D10*
%TO.C,J201*%
X105006000Y-87323000D03*
X105006000Y-88123000D03*
X105006000Y-89423000D03*
X105006000Y-90423000D03*
X105006000Y-90923000D03*
X105006000Y-91923000D03*
X105006000Y-93223000D03*
X105006000Y-94023000D03*
X105006000Y-93723000D03*
X105006000Y-92923000D03*
X105006000Y-92423000D03*
X105006000Y-91423000D03*
X105006000Y-89923000D03*
X105006000Y-88923000D03*
X105006000Y-88423000D03*
X105006000Y-87623000D03*
%TD*%
D11*
%TO.C,R101*%
X118174000Y-80137000D03*
X119824000Y-80137000D03*
%TD*%
D12*
%TO.C,C403*%
X114935000Y-94729000D03*
X114935000Y-96279000D03*
%TD*%
D13*
%TO.C,D201*%
X110097000Y-89678000D03*
D14*
X108397000Y-89678000D03*
X108397000Y-91678000D03*
X110297000Y-91678000D03*
%TD*%
D12*
%TO.C,C301*%
X105664000Y-77304600D03*
X105664000Y-78854600D03*
%TD*%
D15*
%TO.C,LED102*%
X110715000Y-73025000D03*
X112290000Y-73025000D03*
%TD*%
D16*
%TO.C,C102*%
X119761000Y-78626000D03*
X119761000Y-77076000D03*
%TD*%
D12*
%TO.C,C402*%
X113411000Y-94729000D03*
X113411000Y-96279000D03*
%TD*%
D15*
%TO.C,LED101*%
X110715000Y-74803000D03*
X112290000Y-74803000D03*
%TD*%
D17*
%TO.C,R107*%
X115452000Y-71247000D03*
X113802000Y-71247000D03*
%TD*%
%TO.C,R105*%
X115443000Y-73025000D03*
X113793000Y-73025000D03*
%TD*%
D18*
%TO.C,R108*%
X151257000Y-92139000D03*
X151257000Y-93789000D03*
%TD*%
D19*
%TO.C,R103*%
X151257000Y-86423000D03*
X151257000Y-84773000D03*
%TD*%
D16*
%TO.C,C101*%
X118237000Y-78626000D03*
X118237000Y-77076000D03*
%TD*%
D19*
%TO.C,R106*%
X151257000Y-90106000D03*
X151257000Y-88456000D03*
%TD*%
D16*
%TO.C,C202*%
X107188000Y-78854600D03*
X107188000Y-77304600D03*
%TD*%
D20*
%TO.C,U101*%
X146182500Y-80965000D03*
X146182500Y-81915000D03*
X146182500Y-82865000D03*
X148457500Y-82865000D03*
X148457500Y-80965000D03*
%TD*%
%TO.C,U102*%
X146182500Y-84648000D03*
X146182500Y-85598000D03*
X146182500Y-86548000D03*
X148457500Y-86548000D03*
X148457500Y-84648000D03*
%TD*%
D12*
%TO.C,C401*%
X111861600Y-92468400D03*
X111861600Y-94018400D03*
%TD*%
D21*
%TO.C,Q401*%
X119187200Y-86485204D03*
X119837200Y-86485204D03*
X120487200Y-86485204D03*
X120487200Y-84585204D03*
X119837200Y-84585204D03*
X119187200Y-84585204D03*
%TD*%
D22*
%TO.C,C201*%
X106868000Y-84074000D03*
X104968000Y-84074000D03*
%TD*%
D23*
%TO.C,SW105*%
X117396000Y-102900000D03*
X123396000Y-102900000D03*
X117396000Y-106650000D03*
X123396000Y-106650000D03*
%TD*%
D24*
%TO.C,F201*%
X110413900Y-82245200D03*
X108838900Y-82245200D03*
%TD*%
D20*
%TO.C,U105*%
X146182500Y-92014000D03*
X146182500Y-92964000D03*
X146182500Y-93914000D03*
X148457500Y-93914000D03*
X148457500Y-92014000D03*
%TD*%
D25*
%TO.C,FB201*%
X106781600Y-82192500D03*
X106781600Y-80367500D03*
%TD*%
D26*
%TO.C,R201*%
X103899000Y-97028000D03*
X102349000Y-97028000D03*
%TD*%
D18*
%TO.C,R402*%
X117602000Y-84761004D03*
X117602000Y-86411004D03*
%TD*%
D20*
%TO.C,U301*%
X109352500Y-78745000D03*
X109352500Y-79695000D03*
X109352500Y-80645000D03*
X111627500Y-80645000D03*
X111627500Y-78745000D03*
%TD*%
D27*
%TO.C,U401*%
X115491400Y-89291000D03*
X115491400Y-90411000D03*
X115491400Y-91531000D03*
X116611400Y-89291000D03*
X116611400Y-90411000D03*
X116611400Y-91531000D03*
X117731400Y-89291000D03*
X117731400Y-90411000D03*
X117731400Y-91531000D03*
D28*
X114161400Y-88911000D03*
X114161400Y-89411000D03*
X114161400Y-89911000D03*
X114161400Y-90411000D03*
X114161400Y-90911000D03*
X114161400Y-91411000D03*
X114161400Y-91911000D03*
D29*
X115111400Y-92861000D03*
X115611400Y-92861000D03*
X116111400Y-92861000D03*
X116611400Y-92861000D03*
X117111400Y-92861000D03*
X117611400Y-92861000D03*
X118111400Y-92861000D03*
D28*
X119061400Y-91911000D03*
X119061400Y-91411000D03*
X119061400Y-90911000D03*
X119061400Y-90411000D03*
X119061400Y-89911000D03*
X119061400Y-89411000D03*
X119061400Y-88911000D03*
D29*
X118111400Y-87961000D03*
X117611400Y-87961000D03*
X117111400Y-87961000D03*
X116611400Y-87961000D03*
X116111400Y-87961000D03*
X115611400Y-87961000D03*
X115111400Y-87961000D03*
%TD*%
D30*
%TO.C,R202*%
X100825000Y-84328000D03*
X102375000Y-84328000D03*
%TD*%
D12*
%TO.C,C104*%
X121285000Y-80124000D03*
X121285000Y-81674000D03*
%TD*%
D20*
%TO.C,U104*%
X146182500Y-88331000D03*
X146182500Y-89281000D03*
X146182500Y-90231000D03*
X148457500Y-90231000D03*
X148457500Y-88331000D03*
%TD*%
D15*
%TO.C,LED103*%
X110690000Y-71247000D03*
X112265000Y-71247000D03*
%TD*%
D19*
%TO.C,R102*%
X151257000Y-82740000D03*
X151257000Y-81090000D03*
%TD*%
D26*
%TO.C,C302*%
X111366600Y-77063600D03*
X109816600Y-77063600D03*
%TD*%
D23*
%TO.C,SW103*%
X107998000Y-102900000D03*
X113998000Y-102900000D03*
X107998000Y-106650000D03*
X113998000Y-106650000D03*
%TD*%
D19*
%TO.C,R401*%
X122072400Y-86396204D03*
X122072400Y-84746204D03*
%TD*%
D31*
%TO.C,U103*%
X124398500Y-76733000D03*
X124398500Y-78003000D03*
X124398500Y-79273000D03*
X124398500Y-80543000D03*
X124398500Y-81813000D03*
X124398500Y-83083000D03*
X124398500Y-84353000D03*
X124398500Y-85623000D03*
X124398500Y-86893000D03*
X124398500Y-88163000D03*
X124398500Y-89433000D03*
X124398500Y-90703000D03*
X124398500Y-91973000D03*
X124398500Y-93243000D03*
D32*
X127438500Y-94493000D03*
X128708500Y-94493000D03*
X129978500Y-94493000D03*
X131248500Y-94493000D03*
X132518500Y-94493000D03*
X133788500Y-94493000D03*
X135058500Y-94493000D03*
X136328500Y-94493000D03*
X137598500Y-94493000D03*
X138868500Y-94493000D03*
D31*
X141898500Y-93243000D03*
X141898500Y-91973000D03*
X141898500Y-90703000D03*
X141898500Y-89433000D03*
X141898500Y-88163000D03*
X141898500Y-86893000D03*
X141898500Y-85623000D03*
X141898500Y-84353000D03*
X141898500Y-83083000D03*
X141898500Y-81813000D03*
X141898500Y-80543000D03*
X141898500Y-79273000D03*
X141898500Y-78003000D03*
X141898500Y-76733000D03*
D33*
X130943500Y-82548000D03*
X130943500Y-84073000D03*
X130943500Y-85598000D03*
X132468500Y-82548000D03*
X132468500Y-84073000D03*
X132468500Y-85598000D03*
X133993500Y-82548000D03*
X133993500Y-84073000D03*
X133993500Y-85598000D03*
%TD*%
D17*
%TO.C,R104*%
X115443000Y-74803000D03*
X113793000Y-74803000D03*
%TD*%
M02*
