%TF.GenerationSoftware,KiCad,Pcbnew,7.0.6-0*%
%TF.CreationDate,2023-08-12T13:32:15-04:00*%
%TF.ProjectId,wled-esp32-control-board,776c6564-2d65-4737-9033-322d636f6e74,A*%
%TF.SameCoordinates,Original*%
%TF.FileFunction,Copper,L4,Bot*%
%TF.FilePolarity,Positive*%
%FSLAX46Y46*%
G04 Gerber Fmt 4.6, Leading zero omitted, Abs format (unit mm)*
G04 Created by KiCad (PCBNEW 7.0.6-0) date 2023-08-12 13:32:15*
%MOMM*%
%LPD*%
G01*
G04 APERTURE LIST*
G04 Aperture macros list*
%AMRoundRect*
0 Rectangle with rounded corners*
0 $1 Rounding radius*
0 $2 $3 $4 $5 $6 $7 $8 $9 X,Y pos of 4 corners*
0 Add a 4 corners polygon primitive as box body*
4,1,4,$2,$3,$4,$5,$6,$7,$8,$9,$2,$3,0*
0 Add four circle primitives for the rounded corners*
1,1,$1+$1,$2,$3*
1,1,$1+$1,$4,$5*
1,1,$1+$1,$6,$7*
1,1,$1+$1,$8,$9*
0 Add four rect primitives between the rounded corners*
20,1,$1+$1,$2,$3,$4,$5,0*
20,1,$1+$1,$4,$5,$6,$7,0*
20,1,$1+$1,$6,$7,$8,$9,0*
20,1,$1+$1,$8,$9,$2,$3,0*%
G04 Aperture macros list end*
%TA.AperFunction,ComponentPad*%
%ADD10O,2.300000X1.200000*%
%TD*%
%TA.AperFunction,ComponentPad*%
%ADD11O,2.000000X1.200000*%
%TD*%
%TA.AperFunction,ComponentPad*%
%ADD12R,1.700000X1.700000*%
%TD*%
%TA.AperFunction,ComponentPad*%
%ADD13O,1.700000X1.700000*%
%TD*%
%TA.AperFunction,ComponentPad*%
%ADD14R,1.650000X1.650000*%
%TD*%
%TA.AperFunction,ComponentPad*%
%ADD15C,1.650000*%
%TD*%
%TA.AperFunction,ComponentPad*%
%ADD16RoundRect,0.250200X-0.649800X-0.649800X0.649800X-0.649800X0.649800X0.649800X-0.649800X0.649800X0*%
%TD*%
%TA.AperFunction,ComponentPad*%
%ADD17C,1.800000*%
%TD*%
%TA.AperFunction,ComponentPad*%
%ADD18C,0.475000*%
%TD*%
%TA.AperFunction,ViaPad*%
%ADD19C,0.800000*%
%TD*%
%TA.AperFunction,Conductor*%
%ADD20C,0.250000*%
%TD*%
%TA.AperFunction,Conductor*%
%ADD21C,0.500000*%
%TD*%
%TA.AperFunction,Conductor*%
%ADD22C,0.267200*%
%TD*%
%TA.AperFunction,Conductor*%
%ADD23C,2.000000*%
%TD*%
G04 APERTURE END LIST*
D10*
%TO.P,J201,S1,SHIELD*%
%TO.N,GND*%
X104431000Y-86348000D03*
D11*
X100156000Y-86348000D03*
D10*
X104431000Y-94998000D03*
D11*
X100156000Y-94998000D03*
%TD*%
D12*
%TO.P,SW101,1,A*%
%TO.N,/LED_PWR*%
X110495000Y-97536000D03*
D13*
%TO.P,SW101,2,B*%
%TO.N,VCC*%
X107955000Y-97536000D03*
%TD*%
D14*
%TO.P,J104,1,Pin_1*%
%TO.N,GND*%
X136271000Y-103759000D03*
D15*
%TO.P,J104,2,Pin_2*%
%TO.N,Net-(J104-Pin_2)*%
X138811000Y-103759000D03*
%TO.P,J104,3,Pin_3*%
%TO.N,/LED_PWR*%
X141351000Y-103759000D03*
%TD*%
D16*
%TO.P,U106,1,OUT*%
%TO.N,/IR_RECV*%
X126238000Y-104013000D03*
D17*
%TO.P,U106,2,GND*%
%TO.N,GND*%
X128778000Y-104013000D03*
%TO.P,U106,3,Vs*%
%TO.N,+3.3V*%
X131318000Y-104013000D03*
%TD*%
D14*
%TO.P,J102,1,Pin_1*%
%TO.N,GND*%
X158623000Y-95377000D03*
D15*
%TO.P,J102,2,Pin_2*%
%TO.N,Net-(J102-Pin_2)*%
X158623000Y-92837000D03*
%TO.P,J102,3,Pin_3*%
%TO.N,/LED_PWR*%
X158623000Y-90297000D03*
%TD*%
D14*
%TO.P,J101,1,Pin_1*%
%TO.N,GND*%
X158623000Y-84836000D03*
D15*
%TO.P,J101,2,Pin_2*%
%TO.N,Net-(J101-Pin_2)*%
X158623000Y-82296000D03*
%TO.P,J101,3,Pin_3*%
%TO.N,/LED_PWR*%
X158623000Y-79756000D03*
%TD*%
D14*
%TO.P,J103,1,Pin_1*%
%TO.N,GND*%
X146812000Y-103759000D03*
D15*
%TO.P,J103,2,Pin_2*%
%TO.N,Net-(J103-Pin_2)*%
X149352000Y-103759000D03*
%TO.P,J103,3,Pin_3*%
%TO.N,/LED_PWR*%
X151892000Y-103759000D03*
%TD*%
D18*
%TO.P,U103,39,GND*%
%TO.N,GND*%
X130943500Y-83310500D03*
X130943500Y-84835500D03*
X131706000Y-82548000D03*
X131706000Y-84073000D03*
X131706000Y-85598000D03*
X132468500Y-83310500D03*
X132468500Y-84835500D03*
X133231000Y-82548000D03*
X133231000Y-84073000D03*
X133231000Y-85598000D03*
X133993500Y-83310500D03*
X133993500Y-84835500D03*
%TD*%
D19*
%TO.N,/IO0*%
X99568000Y-78359000D03*
X117221000Y-101473000D03*
%TO.N,+5V*%
X99822000Y-81280000D03*
X105283000Y-80264000D03*
%TO.N,/EN*%
X104394000Y-82423000D03*
%TO.N,GND*%
X99657500Y-79756000D03*
%TO.N,/ESP_TX*%
X115697000Y-81153000D03*
X109220000Y-74803000D03*
%TO.N,/ESP_RX*%
X114808000Y-80010000D03*
%TO.N,GND*%
X99822000Y-84328000D03*
%TO.N,+3.3V*%
X129794000Y-96266000D03*
X115062000Y-78486000D03*
%TO.N,GND*%
X115697000Y-105791000D03*
X113030000Y-81788000D03*
X117094000Y-77089000D03*
X139446000Y-79518497D03*
X144780000Y-82804000D03*
X144780000Y-80899000D03*
X122936000Y-105537000D03*
X108559600Y-77063200D03*
X144780000Y-93980000D03*
X144780000Y-92075000D03*
X105029000Y-97028000D03*
X120904000Y-77089000D03*
X113284000Y-97536000D03*
X144780000Y-86487000D03*
X117094000Y-89789000D03*
X144780000Y-84582000D03*
X113538000Y-105537000D03*
X106286000Y-105563250D03*
X144780000Y-90170000D03*
X117094000Y-81280000D03*
X111836200Y-95173800D03*
X143637000Y-76708000D03*
X127381000Y-96393000D03*
X105537000Y-76073000D03*
X144780000Y-88265000D03*
X109474000Y-71374000D03*
X111506000Y-89662000D03*
X137693449Y-79493048D03*
X107061000Y-76073000D03*
X115062000Y-97536000D03*
X103632000Y-84074000D03*
X116078000Y-90932000D03*
X122555000Y-76708000D03*
%TO.N,+5V*%
X149860000Y-81026000D03*
X149860000Y-88392000D03*
X104521000Y-79248000D03*
X149860000Y-84582000D03*
X116586000Y-94742000D03*
X149860000Y-91948000D03*
X104013000Y-80264000D03*
%TO.N,/EN*%
X121158000Y-89535000D03*
X119187200Y-83439000D03*
%TO.N,/IO0*%
X122428000Y-96139000D03*
X138557000Y-91821000D03*
%TO.N,/USB-TTL-AutoProgram/D_P*%
X106934000Y-91644100D03*
X107205174Y-89679174D03*
%TO.N,VCC*%
X108585000Y-93345000D03*
X107442000Y-94488000D03*
X108585000Y-94488000D03*
X107442000Y-86995000D03*
X109728000Y-86995000D03*
X107442000Y-93345000D03*
X108585000Y-86995000D03*
X108585000Y-85852000D03*
X107442000Y-85852000D03*
%TO.N,/ESP_TX*%
X139446000Y-80518000D03*
%TO.N,/ESP_RX*%
X109347000Y-73025000D03*
X137668000Y-80518000D03*
%TO.N,/USB-TTL-AutoProgram/DTR*%
X114109500Y-84010500D03*
X122148600Y-83566000D03*
%TO.N,/LED_PWR*%
X144018000Y-106680000D03*
X144018000Y-103886000D03*
X158496000Y-99060000D03*
X161290000Y-87630000D03*
X133858000Y-103886000D03*
X161290000Y-99060000D03*
X158496000Y-77216000D03*
X133858000Y-101092000D03*
X144018000Y-101092000D03*
X158496000Y-87630000D03*
X155702000Y-77216000D03*
X155702000Y-87630000D03*
X133858000Y-106680000D03*
X161290000Y-77216000D03*
X155702000Y-99060000D03*
%TD*%
D20*
%TO.N,/IO0*%
X99568000Y-78359000D02*
X98933000Y-78994000D01*
X98933000Y-81416305D02*
X99521695Y-82005000D01*
X99521695Y-82005000D02*
X99531000Y-82005000D01*
X99531000Y-82005000D02*
X101727000Y-84201000D01*
X98933000Y-78994000D02*
X98933000Y-81416305D01*
X107696000Y-101473000D02*
X117221000Y-101473000D01*
X101727000Y-84201000D02*
X101727000Y-95504000D01*
X101727000Y-95504000D02*
X107696000Y-101473000D01*
D21*
%TO.N,+5V*%
X99822000Y-81280000D02*
X100838000Y-80264000D01*
X100838000Y-80264000D02*
X103886000Y-80264000D01*
D20*
%TO.N,/EN*%
X104394000Y-82423000D02*
X105791000Y-82423000D01*
X105791000Y-82423000D02*
X108331000Y-84963000D01*
X108331000Y-84963000D02*
X115062000Y-84963000D01*
X115062000Y-84963000D02*
X116586000Y-83439000D01*
X116586000Y-83439000D02*
X119187200Y-83439000D01*
%TO.N,/ESP_TX*%
X139446000Y-80518000D02*
X138303000Y-81661000D01*
X116295000Y-80555000D02*
X115697000Y-81153000D01*
X138303000Y-81661000D02*
X137160000Y-81661000D01*
X137160000Y-81661000D02*
X136054000Y-80555000D01*
X136054000Y-80555000D02*
X116295000Y-80555000D01*
%TO.N,/ESP_RX*%
X137668000Y-80518000D02*
X137668000Y-80543802D01*
X137393497Y-80269299D02*
X137393497Y-80217695D01*
X137393497Y-80217695D02*
X136550802Y-79375000D01*
X136550802Y-79375000D02*
X115443000Y-79375000D01*
X137668000Y-80543802D02*
X137393497Y-80269299D01*
X115443000Y-79375000D02*
X114808000Y-80010000D01*
X114808000Y-80010000D02*
X109982000Y-75184000D01*
X109982000Y-75184000D02*
X109982000Y-74295000D01*
X109982000Y-74295000D02*
X109347000Y-73660000D01*
X109347000Y-73660000D02*
X109347000Y-73025000D01*
%TO.N,/ESP_TX*%
X115697000Y-81153000D02*
X114046000Y-81153000D01*
X114046000Y-81153000D02*
X109220000Y-76327000D01*
X109220000Y-76327000D02*
X109220000Y-74803000D01*
%TO.N,/EN*%
X119187200Y-87056200D02*
X121158000Y-89027000D01*
X119187200Y-83439000D02*
X119187200Y-87056200D01*
X121158000Y-89027000D02*
X121158000Y-89535000D01*
%TO.N,/IO0*%
X122428000Y-96139000D02*
X123952000Y-96139000D01*
X128270000Y-91821000D02*
X138557000Y-91821000D01*
X123952000Y-96139000D02*
X128270000Y-91821000D01*
D22*
%TO.N,/USB-TTL-AutoProgram/D_P*%
X106934000Y-91644100D02*
X106934000Y-89950348D01*
X106934000Y-89950348D02*
X107205174Y-89679174D01*
D20*
%TO.N,/USB-TTL-AutoProgram/DTR*%
X115570000Y-82550000D02*
X114109500Y-84010500D01*
X122148600Y-83566000D02*
X122148600Y-83475000D01*
X121223600Y-82550000D02*
X115570000Y-82550000D01*
X122148600Y-83475000D02*
X121223600Y-82550000D01*
D23*
%TO.N,/LED_PWR*%
X110495000Y-97536000D02*
X110495000Y-98557000D01*
X110495000Y-98557000D02*
X111302800Y-99364800D01*
X111302800Y-99364800D02*
X139700000Y-99364800D01*
X141351000Y-101015800D02*
X141351000Y-103759000D01*
X139700000Y-99364800D02*
X141351000Y-101015800D01*
%TD*%
%TA.AperFunction,Conductor*%
%TO.N,/LED_PWR*%
G36*
X162249039Y-76219685D02*
G01*
X162294794Y-76272489D01*
X162306000Y-76324000D01*
X162306000Y-100206000D01*
X162286315Y-100273039D01*
X162233511Y-100318794D01*
X162182000Y-100330000D01*
X154940000Y-100330000D01*
X154940000Y-107318000D01*
X154920315Y-107385039D01*
X154867511Y-107430794D01*
X154816000Y-107442000D01*
X133728000Y-107442000D01*
X133660961Y-107422315D01*
X133615206Y-107369511D01*
X133604000Y-107318000D01*
X133604000Y-104935941D01*
X140739742Y-104935941D01*
X140896090Y-105008847D01*
X140896099Y-105008851D01*
X141120031Y-105068852D01*
X141120041Y-105068854D01*
X141350999Y-105089061D01*
X141351001Y-105089061D01*
X141581958Y-105068854D01*
X141581968Y-105068852D01*
X141805900Y-105008851D01*
X141805909Y-105008847D01*
X141962257Y-104935941D01*
X151280742Y-104935941D01*
X151437090Y-105008847D01*
X151437099Y-105008851D01*
X151661031Y-105068852D01*
X151661041Y-105068854D01*
X151891999Y-105089061D01*
X151892001Y-105089061D01*
X152122958Y-105068854D01*
X152122968Y-105068852D01*
X152346900Y-105008851D01*
X152346909Y-105008847D01*
X152503257Y-104935941D01*
X151892001Y-104324685D01*
X151892000Y-104324685D01*
X151280742Y-104935941D01*
X141962257Y-104935941D01*
X141630068Y-104603752D01*
X145786500Y-104603752D01*
X145798131Y-104662229D01*
X145798132Y-104662230D01*
X145842447Y-104728552D01*
X145908769Y-104772867D01*
X145908770Y-104772868D01*
X145967247Y-104784499D01*
X145967250Y-104784500D01*
X145967252Y-104784500D01*
X147656750Y-104784500D01*
X147656751Y-104784499D01*
X147671568Y-104781552D01*
X147715229Y-104772868D01*
X147715229Y-104772867D01*
X147715231Y-104772867D01*
X147781552Y-104728552D01*
X147825867Y-104662231D01*
X147825867Y-104662229D01*
X147825868Y-104662229D01*
X147834552Y-104618568D01*
X147837500Y-104603748D01*
X147837500Y-103759000D01*
X148321538Y-103759000D01*
X148341337Y-103960031D01*
X148399978Y-104153345D01*
X148495198Y-104331488D01*
X148495201Y-104331492D01*
X148495202Y-104331494D01*
X148514688Y-104355238D01*
X148623352Y-104487647D01*
X148732016Y-104576824D01*
X148779506Y-104615798D01*
X148779509Y-104615799D01*
X148779511Y-104615801D01*
X148957654Y-104711021D01*
X148957656Y-104711021D01*
X148957659Y-104711023D01*
X149150967Y-104769662D01*
X149352000Y-104789462D01*
X149553033Y-104769662D01*
X149746341Y-104711023D01*
X149924494Y-104615798D01*
X150080647Y-104487647D01*
X150208798Y-104331494D01*
X150304023Y-104153341D01*
X150348896Y-104005411D01*
X150387192Y-103946975D01*
X150451005Y-103918519D01*
X150520072Y-103929079D01*
X150572465Y-103975303D01*
X150587331Y-104009316D01*
X150642148Y-104213900D01*
X150642153Y-104213914D01*
X150715056Y-104370257D01*
X150715057Y-104370257D01*
X151288429Y-103796886D01*
X151338123Y-103796886D01*
X151368884Y-103944915D01*
X151438442Y-104079156D01*
X151541638Y-104189652D01*
X151670819Y-104268209D01*
X151816404Y-104309000D01*
X151929622Y-104309000D01*
X152041783Y-104293584D01*
X152180458Y-104233349D01*
X152297739Y-104137934D01*
X152384928Y-104014415D01*
X152435559Y-103871953D01*
X152443286Y-103758999D01*
X152457684Y-103758999D01*
X153068942Y-104370256D01*
X153141847Y-104213909D01*
X153141851Y-104213900D01*
X153201852Y-103989968D01*
X153201854Y-103989958D01*
X153222061Y-103759000D01*
X153222061Y-103758999D01*
X153201854Y-103528041D01*
X153201852Y-103528031D01*
X153141851Y-103304099D01*
X153141849Y-103304095D01*
X153068940Y-103147743D01*
X152457684Y-103758999D01*
X152443286Y-103758999D01*
X152445877Y-103721114D01*
X152415116Y-103573085D01*
X152345558Y-103438844D01*
X152242362Y-103328348D01*
X152113181Y-103249791D01*
X151967596Y-103209000D01*
X151854378Y-103209000D01*
X151742217Y-103224416D01*
X151603542Y-103284651D01*
X151486261Y-103380066D01*
X151399072Y-103503585D01*
X151348441Y-103646047D01*
X151338123Y-103796886D01*
X151288429Y-103796886D01*
X151326315Y-103759000D01*
X150715058Y-103147743D01*
X150642152Y-103304090D01*
X150642148Y-103304099D01*
X150587331Y-103508683D01*
X150550966Y-103568344D01*
X150488119Y-103598873D01*
X150418744Y-103590578D01*
X150364866Y-103546093D01*
X150348896Y-103512588D01*
X150304023Y-103364659D01*
X150304021Y-103364656D01*
X150304021Y-103364654D01*
X150208801Y-103186511D01*
X150208799Y-103186509D01*
X150208798Y-103186506D01*
X150121489Y-103080119D01*
X150080647Y-103030352D01*
X149924495Y-102902203D01*
X149924488Y-102902198D01*
X149746345Y-102806978D01*
X149553031Y-102748337D01*
X149373962Y-102730701D01*
X149352000Y-102728538D01*
X149351999Y-102728538D01*
X149150968Y-102748337D01*
X148957654Y-102806978D01*
X148779511Y-102902198D01*
X148779504Y-102902203D01*
X148623352Y-103030352D01*
X148495203Y-103186504D01*
X148495198Y-103186511D01*
X148399978Y-103364654D01*
X148341337Y-103557968D01*
X148321538Y-103759000D01*
X147837500Y-103759000D01*
X147837500Y-102914252D01*
X147837500Y-102914251D01*
X147837500Y-102914249D01*
X147837499Y-102914247D01*
X147825868Y-102855770D01*
X147825867Y-102855769D01*
X147781552Y-102789447D01*
X147715230Y-102745132D01*
X147715229Y-102745131D01*
X147656752Y-102733500D01*
X147656748Y-102733500D01*
X145967252Y-102733500D01*
X145967247Y-102733500D01*
X145908770Y-102745131D01*
X145908769Y-102745132D01*
X145842447Y-102789447D01*
X145798132Y-102855769D01*
X145798131Y-102855770D01*
X145786500Y-102914247D01*
X145786500Y-104603752D01*
X141630068Y-104603752D01*
X141351001Y-104324685D01*
X141351000Y-104324685D01*
X140739742Y-104935941D01*
X133604000Y-104935941D01*
X133604000Y-104603752D01*
X135245500Y-104603752D01*
X135257131Y-104662229D01*
X135257132Y-104662230D01*
X135301447Y-104728552D01*
X135367769Y-104772867D01*
X135367770Y-104772868D01*
X135426247Y-104784499D01*
X135426250Y-104784500D01*
X135426252Y-104784500D01*
X137115750Y-104784500D01*
X137115751Y-104784499D01*
X137130568Y-104781552D01*
X137174229Y-104772868D01*
X137174229Y-104772867D01*
X137174231Y-104772867D01*
X137240552Y-104728552D01*
X137284867Y-104662231D01*
X137284867Y-104662229D01*
X137284868Y-104662229D01*
X137293552Y-104618568D01*
X137296500Y-104603748D01*
X137296500Y-103759000D01*
X137780538Y-103759000D01*
X137800337Y-103960031D01*
X137858978Y-104153345D01*
X137954198Y-104331488D01*
X137954201Y-104331492D01*
X137954202Y-104331494D01*
X137973688Y-104355238D01*
X138082352Y-104487647D01*
X138191016Y-104576824D01*
X138238506Y-104615798D01*
X138238509Y-104615799D01*
X138238511Y-104615801D01*
X138416654Y-104711021D01*
X138416656Y-104711021D01*
X138416659Y-104711023D01*
X138609967Y-104769662D01*
X138811000Y-104789462D01*
X139012033Y-104769662D01*
X139205341Y-104711023D01*
X139383494Y-104615798D01*
X139539647Y-104487647D01*
X139667798Y-104331494D01*
X139763023Y-104153341D01*
X139807896Y-104005411D01*
X139846192Y-103946975D01*
X139910005Y-103918519D01*
X139979072Y-103929079D01*
X140031465Y-103975303D01*
X140046331Y-104009316D01*
X140101148Y-104213900D01*
X140101153Y-104213914D01*
X140174056Y-104370257D01*
X140747428Y-103796886D01*
X140797123Y-103796886D01*
X140827884Y-103944915D01*
X140897442Y-104079156D01*
X141000638Y-104189652D01*
X141129819Y-104268209D01*
X141275404Y-104309000D01*
X141388622Y-104309000D01*
X141500783Y-104293584D01*
X141639458Y-104233349D01*
X141756739Y-104137934D01*
X141843928Y-104014415D01*
X141894559Y-103871953D01*
X141902286Y-103758999D01*
X141916685Y-103758999D01*
X142527941Y-104370256D01*
X142600847Y-104213909D01*
X142600851Y-104213900D01*
X142660852Y-103989968D01*
X142660854Y-103989958D01*
X142681061Y-103759000D01*
X142681061Y-103758999D01*
X142660854Y-103528041D01*
X142660852Y-103528031D01*
X142600851Y-103304099D01*
X142600849Y-103304095D01*
X142527940Y-103147743D01*
X141916685Y-103758999D01*
X141902286Y-103758999D01*
X141904877Y-103721114D01*
X141874116Y-103573085D01*
X141804558Y-103438844D01*
X141701362Y-103328348D01*
X141572181Y-103249791D01*
X141426596Y-103209000D01*
X141313378Y-103209000D01*
X141201217Y-103224416D01*
X141062542Y-103284651D01*
X140945261Y-103380066D01*
X140858072Y-103503585D01*
X140807441Y-103646047D01*
X140797123Y-103796886D01*
X140747428Y-103796886D01*
X140785315Y-103758999D01*
X140785315Y-103758998D01*
X140174058Y-103147742D01*
X140101152Y-103304090D01*
X140101148Y-103304099D01*
X140046331Y-103508683D01*
X140009966Y-103568344D01*
X139947119Y-103598873D01*
X139877744Y-103590578D01*
X139823866Y-103546093D01*
X139807896Y-103512588D01*
X139763023Y-103364659D01*
X139763021Y-103364656D01*
X139763021Y-103364654D01*
X139667801Y-103186511D01*
X139667799Y-103186509D01*
X139667798Y-103186506D01*
X139580489Y-103080119D01*
X139539647Y-103030352D01*
X139383495Y-102902203D01*
X139383488Y-102902198D01*
X139205345Y-102806978D01*
X139012031Y-102748337D01*
X138832962Y-102730701D01*
X138811000Y-102728538D01*
X138810999Y-102728538D01*
X138609968Y-102748337D01*
X138416654Y-102806978D01*
X138238511Y-102902198D01*
X138238504Y-102902203D01*
X138082352Y-103030352D01*
X137954203Y-103186504D01*
X137954198Y-103186511D01*
X137858978Y-103364654D01*
X137800337Y-103557968D01*
X137780538Y-103759000D01*
X137296500Y-103759000D01*
X137296500Y-102914252D01*
X137296500Y-102914251D01*
X137296500Y-102914249D01*
X137296499Y-102914247D01*
X137284868Y-102855770D01*
X137284867Y-102855769D01*
X137240552Y-102789447D01*
X137174230Y-102745132D01*
X137174229Y-102745131D01*
X137115752Y-102733500D01*
X137115748Y-102733500D01*
X135426252Y-102733500D01*
X135426247Y-102733500D01*
X135367770Y-102745131D01*
X135367769Y-102745132D01*
X135301447Y-102789447D01*
X135257132Y-102855769D01*
X135257131Y-102855770D01*
X135245500Y-102914247D01*
X135245500Y-104603752D01*
X133604000Y-104603752D01*
X133604000Y-102582058D01*
X140739743Y-102582058D01*
X141351000Y-103193315D01*
X141351001Y-103193315D01*
X141962256Y-102582058D01*
X151280743Y-102582058D01*
X151892000Y-103193315D01*
X151892001Y-103193315D01*
X152503257Y-102582057D01*
X152503257Y-102582056D01*
X152346914Y-102509153D01*
X152346900Y-102509148D01*
X152122968Y-102449147D01*
X152122958Y-102449145D01*
X151892001Y-102428939D01*
X151891999Y-102428939D01*
X151661041Y-102449145D01*
X151661031Y-102449147D01*
X151437099Y-102509148D01*
X151437090Y-102509152D01*
X151280743Y-102582058D01*
X141962256Y-102582058D01*
X141962257Y-102582057D01*
X141962257Y-102582056D01*
X141805914Y-102509153D01*
X141805900Y-102509148D01*
X141581968Y-102449147D01*
X141581958Y-102449145D01*
X141351001Y-102428939D01*
X141350999Y-102428939D01*
X141120041Y-102449145D01*
X141120031Y-102449147D01*
X140896099Y-102509148D01*
X140896090Y-102509152D01*
X140739743Y-102582058D01*
X133604000Y-102582058D01*
X133604000Y-97406000D01*
X133623685Y-97338961D01*
X133676489Y-97293206D01*
X133728000Y-97282000D01*
X146812000Y-97282000D01*
X150622000Y-97282000D01*
X150622000Y-96221752D01*
X157597500Y-96221752D01*
X157609131Y-96280229D01*
X157609132Y-96280230D01*
X157653447Y-96346552D01*
X157719769Y-96390867D01*
X157719770Y-96390868D01*
X157778247Y-96402499D01*
X157778250Y-96402500D01*
X157778252Y-96402500D01*
X159467750Y-96402500D01*
X159467751Y-96402499D01*
X159482568Y-96399552D01*
X159526229Y-96390868D01*
X159526229Y-96390867D01*
X159526231Y-96390867D01*
X159592552Y-96346552D01*
X159636867Y-96280231D01*
X159636867Y-96280229D01*
X159636868Y-96280229D01*
X159648499Y-96221752D01*
X159648500Y-96221750D01*
X159648500Y-94532249D01*
X159648499Y-94532247D01*
X159636868Y-94473770D01*
X159636867Y-94473769D01*
X159592552Y-94407447D01*
X159526230Y-94363132D01*
X159526229Y-94363131D01*
X159467752Y-94351500D01*
X159467748Y-94351500D01*
X157778252Y-94351500D01*
X157778247Y-94351500D01*
X157719770Y-94363131D01*
X157719769Y-94363132D01*
X157653447Y-94407447D01*
X157609132Y-94473769D01*
X157609131Y-94473770D01*
X157597500Y-94532247D01*
X157597500Y-96221752D01*
X150622000Y-96221752D01*
X150622000Y-92837000D01*
X157592538Y-92837000D01*
X157612337Y-93038031D01*
X157670978Y-93231345D01*
X157766198Y-93409488D01*
X157766203Y-93409495D01*
X157894352Y-93565647D01*
X158003016Y-93654824D01*
X158050506Y-93693798D01*
X158050509Y-93693799D01*
X158050511Y-93693801D01*
X158228654Y-93789021D01*
X158228656Y-93789021D01*
X158228659Y-93789023D01*
X158421967Y-93847662D01*
X158623000Y-93867462D01*
X158824033Y-93847662D01*
X159017341Y-93789023D01*
X159195494Y-93693798D01*
X159351647Y-93565647D01*
X159479798Y-93409494D01*
X159575023Y-93231341D01*
X159633662Y-93038033D01*
X159653462Y-92837000D01*
X159633662Y-92635967D01*
X159575023Y-92442659D01*
X159575021Y-92442656D01*
X159575021Y-92442654D01*
X159479801Y-92264511D01*
X159479799Y-92264509D01*
X159479798Y-92264506D01*
X159440824Y-92217016D01*
X159351647Y-92108352D01*
X159195495Y-91980203D01*
X159195488Y-91980198D01*
X159017347Y-91884979D01*
X159017341Y-91884977D01*
X158869412Y-91840103D01*
X158810975Y-91801806D01*
X158782519Y-91737994D01*
X158793079Y-91668927D01*
X158839303Y-91616533D01*
X158873316Y-91601668D01*
X159077900Y-91546851D01*
X159077909Y-91546847D01*
X159234257Y-91473941D01*
X158623001Y-90862685D01*
X158623000Y-90862685D01*
X158011742Y-91473941D01*
X158168090Y-91546847D01*
X158168099Y-91546851D01*
X158372683Y-91601668D01*
X158432343Y-91638033D01*
X158462873Y-91700879D01*
X158454579Y-91770255D01*
X158410094Y-91824133D01*
X158376586Y-91840103D01*
X158228657Y-91884977D01*
X158050511Y-91980198D01*
X158050504Y-91980203D01*
X157894352Y-92108352D01*
X157766203Y-92264504D01*
X157766198Y-92264511D01*
X157670978Y-92442654D01*
X157612337Y-92635968D01*
X157592538Y-92837000D01*
X150622000Y-92837000D01*
X150622000Y-90297000D01*
X157292939Y-90297000D01*
X157313145Y-90527958D01*
X157313147Y-90527968D01*
X157373148Y-90751900D01*
X157373153Y-90751914D01*
X157446056Y-90908257D01*
X158019428Y-90334886D01*
X158069123Y-90334886D01*
X158099884Y-90482915D01*
X158169442Y-90617156D01*
X158272638Y-90727652D01*
X158401819Y-90806209D01*
X158547404Y-90847000D01*
X158660622Y-90847000D01*
X158772783Y-90831584D01*
X158911458Y-90771349D01*
X159028739Y-90675934D01*
X159115928Y-90552415D01*
X159166559Y-90409953D01*
X159174285Y-90297000D01*
X159188685Y-90297000D01*
X159799941Y-90908256D01*
X159872847Y-90751909D01*
X159872851Y-90751900D01*
X159932852Y-90527968D01*
X159932854Y-90527958D01*
X159953060Y-90297000D01*
X159953060Y-90296999D01*
X159932854Y-90066041D01*
X159932852Y-90066031D01*
X159872851Y-89842099D01*
X159872849Y-89842095D01*
X159799940Y-89685743D01*
X159188685Y-90296999D01*
X159188685Y-90297000D01*
X159174285Y-90297000D01*
X159176877Y-90259114D01*
X159146116Y-90111085D01*
X159076558Y-89976844D01*
X158973362Y-89866348D01*
X158844181Y-89787791D01*
X158698596Y-89747000D01*
X158585378Y-89747000D01*
X158473217Y-89762416D01*
X158334542Y-89822651D01*
X158217261Y-89918066D01*
X158130072Y-90041585D01*
X158079441Y-90184047D01*
X158069123Y-90334886D01*
X158019428Y-90334886D01*
X158057315Y-90296999D01*
X158057315Y-90296998D01*
X157446058Y-89685742D01*
X157373152Y-89842090D01*
X157373148Y-89842099D01*
X157313147Y-90066031D01*
X157313145Y-90066041D01*
X157292939Y-90296999D01*
X157292939Y-90297000D01*
X150622000Y-90297000D01*
X150622000Y-89120058D01*
X158011743Y-89120058D01*
X158623000Y-89731315D01*
X158623001Y-89731315D01*
X159234257Y-89120057D01*
X159234257Y-89120056D01*
X159077914Y-89047153D01*
X159077900Y-89047148D01*
X158853968Y-88987147D01*
X158853958Y-88987145D01*
X158623001Y-88966939D01*
X158622999Y-88966939D01*
X158392041Y-88987145D01*
X158392031Y-88987147D01*
X158168099Y-89047148D01*
X158168090Y-89047152D01*
X158011743Y-89120058D01*
X150622000Y-89120058D01*
X150622000Y-85680752D01*
X157597500Y-85680752D01*
X157609131Y-85739229D01*
X157609132Y-85739230D01*
X157653447Y-85805552D01*
X157719769Y-85849867D01*
X157719770Y-85849868D01*
X157778247Y-85861499D01*
X157778250Y-85861500D01*
X157778252Y-85861500D01*
X159467750Y-85861500D01*
X159467751Y-85861499D01*
X159482568Y-85858552D01*
X159526229Y-85849868D01*
X159526229Y-85849867D01*
X159526231Y-85849867D01*
X159592552Y-85805552D01*
X159636867Y-85739231D01*
X159636867Y-85739229D01*
X159636868Y-85739229D01*
X159648499Y-85680752D01*
X159648500Y-85680750D01*
X159648500Y-83991249D01*
X159648499Y-83991247D01*
X159636868Y-83932770D01*
X159636867Y-83932769D01*
X159592552Y-83866447D01*
X159526230Y-83822132D01*
X159526229Y-83822131D01*
X159467752Y-83810500D01*
X159467748Y-83810500D01*
X157778252Y-83810500D01*
X157778247Y-83810500D01*
X157719770Y-83822131D01*
X157719769Y-83822132D01*
X157653447Y-83866447D01*
X157609132Y-83932769D01*
X157609131Y-83932770D01*
X157597500Y-83991247D01*
X157597500Y-85680752D01*
X150622000Y-85680752D01*
X150622000Y-82296000D01*
X157592538Y-82296000D01*
X157612337Y-82497031D01*
X157670978Y-82690345D01*
X157766198Y-82868488D01*
X157766203Y-82868495D01*
X157894352Y-83024647D01*
X157951156Y-83071264D01*
X158050506Y-83152798D01*
X158050509Y-83152799D01*
X158050511Y-83152801D01*
X158228654Y-83248021D01*
X158228656Y-83248021D01*
X158228659Y-83248023D01*
X158421967Y-83306662D01*
X158623000Y-83326462D01*
X158824033Y-83306662D01*
X159017341Y-83248023D01*
X159195494Y-83152798D01*
X159351647Y-83024647D01*
X159479798Y-82868494D01*
X159575023Y-82690341D01*
X159633662Y-82497033D01*
X159653462Y-82296000D01*
X159633662Y-82094967D01*
X159575023Y-81901659D01*
X159575021Y-81901656D01*
X159575021Y-81901654D01*
X159479801Y-81723511D01*
X159479799Y-81723509D01*
X159479798Y-81723506D01*
X159440824Y-81676016D01*
X159351647Y-81567352D01*
X159195495Y-81439203D01*
X159195488Y-81439198D01*
X159017347Y-81343979D01*
X159017341Y-81343977D01*
X158869412Y-81299103D01*
X158810975Y-81260806D01*
X158782519Y-81196994D01*
X158793079Y-81127927D01*
X158839303Y-81075533D01*
X158873316Y-81060668D01*
X159077900Y-81005851D01*
X159077909Y-81005847D01*
X159234257Y-80932941D01*
X158623001Y-80321685D01*
X158623000Y-80321685D01*
X158011742Y-80932941D01*
X158168090Y-81005847D01*
X158168099Y-81005851D01*
X158372683Y-81060668D01*
X158432343Y-81097033D01*
X158462873Y-81159879D01*
X158454579Y-81229255D01*
X158410094Y-81283133D01*
X158376586Y-81299103D01*
X158228657Y-81343977D01*
X158050511Y-81439198D01*
X158050504Y-81439203D01*
X157894352Y-81567352D01*
X157766203Y-81723504D01*
X157766198Y-81723511D01*
X157670978Y-81901654D01*
X157612337Y-82094968D01*
X157592538Y-82296000D01*
X150622000Y-82296000D01*
X150622000Y-79756000D01*
X157292939Y-79756000D01*
X157313145Y-79986958D01*
X157313147Y-79986968D01*
X157373148Y-80210900D01*
X157373153Y-80210914D01*
X157446056Y-80367257D01*
X157446057Y-80367257D01*
X158019429Y-79793886D01*
X158069123Y-79793886D01*
X158099884Y-79941915D01*
X158169442Y-80076156D01*
X158272638Y-80186652D01*
X158401819Y-80265209D01*
X158547404Y-80306000D01*
X158660622Y-80306000D01*
X158772783Y-80290584D01*
X158911458Y-80230349D01*
X159028739Y-80134934D01*
X159115928Y-80011415D01*
X159166559Y-79868953D01*
X159174286Y-79755999D01*
X159188685Y-79755999D01*
X159799942Y-80367256D01*
X159872847Y-80210909D01*
X159872851Y-80210900D01*
X159932852Y-79986968D01*
X159932854Y-79986958D01*
X159953060Y-79756000D01*
X159953060Y-79755999D01*
X159932854Y-79525041D01*
X159932852Y-79525031D01*
X159872851Y-79301099D01*
X159872849Y-79301095D01*
X159799940Y-79144743D01*
X159188685Y-79755998D01*
X159188685Y-79755999D01*
X159174286Y-79755999D01*
X159176877Y-79718114D01*
X159146116Y-79570085D01*
X159076558Y-79435844D01*
X158973362Y-79325348D01*
X158844181Y-79246791D01*
X158698596Y-79206000D01*
X158585378Y-79206000D01*
X158473217Y-79221416D01*
X158334542Y-79281651D01*
X158217261Y-79377066D01*
X158130072Y-79500585D01*
X158079441Y-79643047D01*
X158069123Y-79793886D01*
X158019429Y-79793886D01*
X158057315Y-79756000D01*
X157446058Y-79144743D01*
X157373152Y-79301090D01*
X157373148Y-79301099D01*
X157313147Y-79525031D01*
X157313145Y-79525041D01*
X157292939Y-79755999D01*
X157292939Y-79756000D01*
X150622000Y-79756000D01*
X150622000Y-78579058D01*
X158011743Y-78579058D01*
X158623000Y-79190315D01*
X158623001Y-79190315D01*
X159234257Y-78579057D01*
X159234257Y-78579056D01*
X159077914Y-78506153D01*
X159077900Y-78506148D01*
X158853968Y-78446147D01*
X158853958Y-78446145D01*
X158623001Y-78425939D01*
X158622999Y-78425939D01*
X158392041Y-78446145D01*
X158392031Y-78446147D01*
X158168099Y-78506148D01*
X158168090Y-78506152D01*
X158011743Y-78579058D01*
X150622000Y-78579058D01*
X150622000Y-76323999D01*
X150641685Y-76256961D01*
X150694489Y-76211206D01*
X150746000Y-76200000D01*
X162182000Y-76200000D01*
X162249039Y-76219685D01*
G37*
%TD.AperFunction*%
%TD*%
%TA.AperFunction,Conductor*%
%TO.N,+5V*%
G36*
X109925039Y-78454885D02*
G01*
X109970794Y-78507689D01*
X109982000Y-78559200D01*
X109982000Y-78920800D01*
X109962315Y-78987839D01*
X109909511Y-79033594D01*
X109858000Y-79044800D01*
X108254800Y-79044800D01*
X108254800Y-80314800D01*
X109858000Y-80314800D01*
X109925039Y-80334485D01*
X109970794Y-80387289D01*
X109982000Y-80438800D01*
X109982000Y-80800400D01*
X109962315Y-80867439D01*
X109909511Y-80913194D01*
X109858000Y-80924400D01*
X103629000Y-80924400D01*
X103561961Y-80904715D01*
X103516206Y-80851911D01*
X103505000Y-80800400D01*
X103505000Y-78559200D01*
X103524685Y-78492161D01*
X103577489Y-78446406D01*
X103629000Y-78435200D01*
X109858000Y-78435200D01*
X109925039Y-78454885D01*
G37*
%TD.AperFunction*%
%TD*%
%TA.AperFunction,Conductor*%
%TO.N,GND*%
G36*
X98422703Y-81791006D02*
G01*
X98428926Y-81797592D01*
X98429311Y-81797207D01*
X98448989Y-81816884D01*
X98461626Y-81831679D01*
X98473404Y-81847889D01*
X98473406Y-81847892D01*
X98509309Y-81877593D01*
X98513620Y-81881515D01*
X98897262Y-82265158D01*
X99020892Y-82388788D01*
X99030717Y-82401051D01*
X99030938Y-82400869D01*
X99035909Y-82406878D01*
X99053077Y-82422999D01*
X99086330Y-82454226D01*
X99107224Y-82475120D01*
X99112706Y-82479373D01*
X99117138Y-82483157D01*
X99151113Y-82515062D01*
X99151117Y-82515064D01*
X99157425Y-82519647D01*
X99157015Y-82520210D01*
X99175494Y-82534084D01*
X101065181Y-84423771D01*
X101098666Y-84485094D01*
X101101500Y-84511452D01*
X101101500Y-85198299D01*
X101081815Y-85265338D01*
X101029011Y-85311093D01*
X100959853Y-85321037D01*
X100931414Y-85313417D01*
X100867314Y-85287755D01*
X100661038Y-85248000D01*
X100406000Y-85248000D01*
X100406000Y-86048000D01*
X99906000Y-86048000D01*
X99906000Y-85248000D01*
X99703602Y-85248000D01*
X99546877Y-85262965D01*
X99546873Y-85262966D01*
X99345313Y-85322149D01*
X99158585Y-85418413D01*
X98993462Y-85548268D01*
X98993459Y-85548271D01*
X98855894Y-85707030D01*
X98855885Y-85707041D01*
X98750855Y-85888960D01*
X98750852Y-85888967D01*
X98682144Y-86087482D01*
X98682144Y-86087484D01*
X98680632Y-86098000D01*
X99589889Y-86098000D01*
X99550390Y-86122457D01*
X99482799Y-86211962D01*
X99452105Y-86319840D01*
X99462454Y-86431521D01*
X99512448Y-86531922D01*
X99584931Y-86598000D01*
X98684742Y-86598000D01*
X98711770Y-86709409D01*
X98799040Y-86900507D01*
X98920889Y-87071619D01*
X98920895Y-87071625D01*
X99072932Y-87216592D01*
X99249657Y-87330166D01*
X99444685Y-87408244D01*
X99650962Y-87448000D01*
X99906000Y-87448000D01*
X99906000Y-86648000D01*
X100406000Y-86648000D01*
X100406000Y-87448000D01*
X100608398Y-87448000D01*
X100765122Y-87433034D01*
X100765125Y-87433033D01*
X100942565Y-87380933D01*
X101012435Y-87380933D01*
X101071213Y-87418707D01*
X101100238Y-87482263D01*
X101101500Y-87499910D01*
X101101500Y-93848299D01*
X101081815Y-93915338D01*
X101029011Y-93961093D01*
X100959853Y-93971037D01*
X100931414Y-93963417D01*
X100867314Y-93937755D01*
X100661038Y-93898000D01*
X100406000Y-93898000D01*
X100406000Y-94698000D01*
X99906000Y-94698000D01*
X99906000Y-93898000D01*
X99703602Y-93898000D01*
X99546877Y-93912965D01*
X99546873Y-93912966D01*
X99345313Y-93972149D01*
X99158585Y-94068413D01*
X98993462Y-94198268D01*
X98993459Y-94198271D01*
X98855894Y-94357030D01*
X98855885Y-94357041D01*
X98750855Y-94538960D01*
X98750852Y-94538967D01*
X98682144Y-94737482D01*
X98682144Y-94737484D01*
X98680632Y-94748000D01*
X99589889Y-94748000D01*
X99550390Y-94772457D01*
X99482799Y-94861962D01*
X99452105Y-94969840D01*
X99462454Y-95081521D01*
X99512448Y-95181922D01*
X99584931Y-95248000D01*
X98684742Y-95248000D01*
X98711770Y-95359409D01*
X98799040Y-95550507D01*
X98920889Y-95721619D01*
X98920895Y-95721625D01*
X99072932Y-95866592D01*
X99249657Y-95980166D01*
X99444685Y-96058244D01*
X99650962Y-96098000D01*
X99906000Y-96098000D01*
X99906000Y-95298000D01*
X100406000Y-95298000D01*
X100406000Y-96098000D01*
X100608398Y-96098000D01*
X100765122Y-96083034D01*
X100765126Y-96083033D01*
X100966686Y-96023850D01*
X101144910Y-95931970D01*
X101213517Y-95918747D01*
X101278382Y-95944715D01*
X101280771Y-95946643D01*
X101303309Y-95965288D01*
X101307632Y-95969222D01*
X107195194Y-101856784D01*
X107205019Y-101869048D01*
X107205240Y-101868866D01*
X107210210Y-101874873D01*
X107210213Y-101874876D01*
X107210214Y-101874877D01*
X107260651Y-101922241D01*
X107281530Y-101943120D01*
X107287004Y-101947366D01*
X107291442Y-101951156D01*
X107325418Y-101983062D01*
X107325422Y-101983064D01*
X107342973Y-101992713D01*
X107359231Y-102003392D01*
X107375064Y-102015674D01*
X107397015Y-102025172D01*
X107417837Y-102034183D01*
X107423081Y-102036752D01*
X107463908Y-102059197D01*
X107483312Y-102064179D01*
X107501710Y-102070478D01*
X107520105Y-102078438D01*
X107566129Y-102085726D01*
X107571832Y-102086907D01*
X107616981Y-102098500D01*
X107637016Y-102098500D01*
X107656413Y-102100026D01*
X107676196Y-102103160D01*
X107722583Y-102098775D01*
X107728422Y-102098500D01*
X116517252Y-102098500D01*
X116584291Y-102118185D01*
X116609400Y-102139526D01*
X116615126Y-102145885D01*
X116615130Y-102145889D01*
X116768265Y-102257148D01*
X116768270Y-102257151D01*
X116941192Y-102334142D01*
X116941197Y-102334144D01*
X117126354Y-102373500D01*
X117126355Y-102373500D01*
X117315644Y-102373500D01*
X117315646Y-102373500D01*
X117500803Y-102334144D01*
X117673730Y-102257151D01*
X117826871Y-102145888D01*
X117953533Y-102005216D01*
X118048179Y-101841284D01*
X118106674Y-101661256D01*
X118126460Y-101473000D01*
X118106674Y-101284744D01*
X118048179Y-101104716D01*
X118017338Y-101051299D01*
X118000866Y-100983400D01*
X118023719Y-100917373D01*
X118078640Y-100874182D01*
X118124726Y-100865300D01*
X132838651Y-100865300D01*
X132905690Y-100884985D01*
X132951445Y-100937789D01*
X132961971Y-101002259D01*
X132952540Y-101092000D01*
X132972326Y-101280256D01*
X132972327Y-101280259D01*
X133030818Y-101460277D01*
X133030821Y-101460284D01*
X133081887Y-101548732D01*
X133098500Y-101610732D01*
X133098500Y-103367266D01*
X133081888Y-103429264D01*
X133038980Y-103503585D01*
X133030820Y-103517718D01*
X133030818Y-103517722D01*
X132982019Y-103667912D01*
X132972326Y-103697744D01*
X132969870Y-103721114D01*
X132956403Y-103849246D01*
X132929818Y-103913860D01*
X132894012Y-103938847D01*
X132933514Y-103960998D01*
X132966306Y-104022695D01*
X132968170Y-104034722D01*
X132972325Y-104074253D01*
X132972326Y-104074257D01*
X133030818Y-104254277D01*
X133030821Y-104254284D01*
X133062411Y-104309000D01*
X133081887Y-104342732D01*
X133098500Y-104404732D01*
X133098500Y-106161266D01*
X133081888Y-106223265D01*
X133030820Y-106311718D01*
X133030818Y-106311722D01*
X132972327Y-106491740D01*
X132972326Y-106491744D01*
X132952540Y-106680000D01*
X132972326Y-106868256D01*
X132972327Y-106868259D01*
X133030818Y-107048277D01*
X133030821Y-107048284D01*
X133081887Y-107136732D01*
X133098500Y-107198732D01*
X133098500Y-107318000D01*
X133098501Y-107318009D01*
X133110052Y-107425450D01*
X133110054Y-107425462D01*
X133121258Y-107476964D01*
X133124380Y-107486344D01*
X133126871Y-107556169D01*
X133091217Y-107616257D01*
X133028737Y-107647530D01*
X133006724Y-107649500D01*
X100458878Y-107649500D01*
X100455134Y-107649387D01*
X100190804Y-107633398D01*
X100183365Y-107632494D01*
X99924739Y-107585098D01*
X99917463Y-107583305D01*
X99750680Y-107531334D01*
X99666447Y-107505086D01*
X99659445Y-107502430D01*
X99419674Y-107394519D01*
X99413038Y-107391036D01*
X99188030Y-107255013D01*
X99181863Y-107250756D01*
X98974888Y-107088602D01*
X98969287Y-107083640D01*
X98783358Y-106897711D01*
X98778397Y-106892111D01*
X98616243Y-106685136D01*
X98611986Y-106678969D01*
X98498804Y-106491744D01*
X98475960Y-106453956D01*
X98472480Y-106447325D01*
X98364569Y-106207554D01*
X98361916Y-106200561D01*
X98283692Y-105949530D01*
X98281901Y-105942260D01*
X98234505Y-105683634D01*
X98233601Y-105676195D01*
X98231949Y-105648888D01*
X98217712Y-105413499D01*
X98217613Y-105411866D01*
X98217500Y-105408122D01*
X98217500Y-104334763D01*
X99745787Y-104334763D01*
X99775413Y-104604013D01*
X99775415Y-104604024D01*
X99835612Y-104834279D01*
X99843928Y-104866088D01*
X99949870Y-105115390D01*
X100090979Y-105346605D01*
X100090986Y-105346615D01*
X100264253Y-105554819D01*
X100264259Y-105554824D01*
X100465998Y-105735582D01*
X100691910Y-105885044D01*
X100937176Y-106000020D01*
X100937183Y-106000022D01*
X100937185Y-106000023D01*
X101196557Y-106078057D01*
X101196564Y-106078058D01*
X101196569Y-106078060D01*
X101464561Y-106117500D01*
X101464566Y-106117500D01*
X101667636Y-106117500D01*
X101719133Y-106113730D01*
X101870156Y-106102677D01*
X101982758Y-106077593D01*
X102134546Y-106043782D01*
X102134548Y-106043781D01*
X102134553Y-106043780D01*
X102387558Y-105947014D01*
X102623777Y-105814441D01*
X102838177Y-105648888D01*
X103026186Y-105453881D01*
X103183799Y-105233579D01*
X103279768Y-105046918D01*
X103307649Y-104992690D01*
X103307651Y-104992684D01*
X103307656Y-104992675D01*
X103395118Y-104736305D01*
X103399453Y-104712833D01*
X124837500Y-104712833D01*
X124848003Y-104815638D01*
X124864719Y-104866082D01*
X124903203Y-104982220D01*
X124995330Y-105131581D01*
X125119419Y-105255670D01*
X125268780Y-105347797D01*
X125351771Y-105375297D01*
X125435361Y-105402996D01*
X125472236Y-105406763D01*
X125538174Y-105413500D01*
X125538178Y-105413500D01*
X126937822Y-105413500D01*
X126937826Y-105413500D01*
X127040638Y-105402996D01*
X127207220Y-105347797D01*
X127356581Y-105255670D01*
X127480670Y-105131581D01*
X127572797Y-104982220D01*
X127621819Y-104834278D01*
X127651844Y-104785601D01*
X128333549Y-104103895D01*
X128334327Y-104114265D01*
X128383887Y-104240541D01*
X128468465Y-104346599D01*
X128580547Y-104423016D01*
X128688299Y-104456253D01*
X127979199Y-105165351D01*
X128009650Y-105189050D01*
X128213697Y-105299476D01*
X128213706Y-105299479D01*
X128433139Y-105374811D01*
X128661993Y-105413000D01*
X128894007Y-105413000D01*
X129122860Y-105374811D01*
X129342293Y-105299479D01*
X129342302Y-105299476D01*
X129546350Y-105189050D01*
X129576798Y-105165351D01*
X128866231Y-104454784D01*
X128912138Y-104447865D01*
X129034357Y-104389007D01*
X129133798Y-104296740D01*
X129201625Y-104179260D01*
X129219499Y-104100945D01*
X129929186Y-104810634D01*
X129943892Y-104788126D01*
X129997038Y-104742769D01*
X130066269Y-104733345D01*
X130129605Y-104762847D01*
X130151510Y-104788126D01*
X130209016Y-104876147D01*
X130209019Y-104876151D01*
X130209021Y-104876153D01*
X130366216Y-105046913D01*
X130366219Y-105046915D01*
X130366222Y-105046918D01*
X130549365Y-105189464D01*
X130549371Y-105189468D01*
X130549374Y-105189470D01*
X130630882Y-105233580D01*
X130752652Y-105299479D01*
X130753497Y-105299936D01*
X130867487Y-105339068D01*
X130973015Y-105375297D01*
X130973017Y-105375297D01*
X130973019Y-105375298D01*
X131201951Y-105413500D01*
X131201952Y-105413500D01*
X131434048Y-105413500D01*
X131434049Y-105413500D01*
X131662981Y-105375298D01*
X131882503Y-105299936D01*
X132086626Y-105189470D01*
X132269784Y-105046913D01*
X132426979Y-104876153D01*
X132553924Y-104681849D01*
X132647157Y-104469300D01*
X132704134Y-104244305D01*
X132721274Y-104037442D01*
X132746426Y-103972262D01*
X132783485Y-103945165D01*
X132742528Y-103920995D01*
X132711105Y-103858591D01*
X132709506Y-103846536D01*
X132704134Y-103781695D01*
X132682874Y-103697740D01*
X132647157Y-103556699D01*
X132553924Y-103344151D01*
X132426983Y-103149852D01*
X132426980Y-103149849D01*
X132426979Y-103149847D01*
X132269784Y-102979087D01*
X132269779Y-102979083D01*
X132269777Y-102979081D01*
X132086634Y-102836535D01*
X132086628Y-102836531D01*
X131882504Y-102726064D01*
X131882495Y-102726061D01*
X131662984Y-102650702D01*
X131491281Y-102622050D01*
X131434049Y-102612500D01*
X131201951Y-102612500D01*
X131156164Y-102620140D01*
X130973015Y-102650702D01*
X130753504Y-102726061D01*
X130753495Y-102726064D01*
X130549371Y-102836531D01*
X130549365Y-102836535D01*
X130366222Y-102979081D01*
X130366219Y-102979084D01*
X130366216Y-102979086D01*
X130366216Y-102979087D01*
X130306659Y-103043784D01*
X130209015Y-103149854D01*
X130151509Y-103237874D01*
X130098363Y-103283230D01*
X130029132Y-103292654D01*
X129965796Y-103263152D01*
X129943892Y-103237873D01*
X129929186Y-103215364D01*
X129222449Y-103922101D01*
X129221673Y-103911735D01*
X129172113Y-103785459D01*
X129087535Y-103679401D01*
X128975453Y-103602984D01*
X128867699Y-103569746D01*
X129576799Y-102860647D01*
X129546349Y-102836949D01*
X129342302Y-102726523D01*
X129342293Y-102726520D01*
X129122860Y-102651188D01*
X128894007Y-102613000D01*
X128661993Y-102613000D01*
X128433139Y-102651188D01*
X128213706Y-102726520D01*
X128213698Y-102726523D01*
X128009644Y-102836952D01*
X127979200Y-102860646D01*
X127979200Y-102860647D01*
X128689769Y-103571215D01*
X128643862Y-103578135D01*
X128521643Y-103636993D01*
X128422202Y-103729260D01*
X128354375Y-103846740D01*
X128336500Y-103925053D01*
X127651843Y-103240396D01*
X127621818Y-103191718D01*
X127607945Y-103149852D01*
X127572797Y-103043780D01*
X127480670Y-102894419D01*
X127356581Y-102770330D01*
X127207220Y-102678203D01*
X127207217Y-102678202D01*
X127040638Y-102623003D01*
X126937833Y-102612500D01*
X126937826Y-102612500D01*
X125538174Y-102612500D01*
X125538166Y-102612500D01*
X125435361Y-102623003D01*
X125268782Y-102678202D01*
X125268777Y-102678204D01*
X125119417Y-102770331D01*
X124995331Y-102894417D01*
X124903204Y-103043777D01*
X124903202Y-103043782D01*
X124848003Y-103210361D01*
X124837500Y-103313166D01*
X124837500Y-104712833D01*
X103399453Y-104712833D01*
X103444319Y-104469933D01*
X103454212Y-104199235D01*
X103424586Y-103929982D01*
X103356072Y-103667912D01*
X103250130Y-103418610D01*
X103109018Y-103187390D01*
X103107845Y-103185981D01*
X102935746Y-102979180D01*
X102935740Y-102979175D01*
X102734002Y-102798418D01*
X102508092Y-102648957D01*
X102452727Y-102623003D01*
X102262824Y-102533980D01*
X102262819Y-102533978D01*
X102262814Y-102533976D01*
X102003442Y-102455942D01*
X102003428Y-102455939D01*
X101887791Y-102438921D01*
X101735439Y-102416500D01*
X101532369Y-102416500D01*
X101532364Y-102416500D01*
X101329844Y-102431323D01*
X101329831Y-102431325D01*
X101065453Y-102490217D01*
X101065446Y-102490220D01*
X100812439Y-102586987D01*
X100576226Y-102719557D01*
X100576224Y-102719558D01*
X100576223Y-102719559D01*
X100513893Y-102767688D01*
X100361822Y-102885112D01*
X100173822Y-103080109D01*
X100173816Y-103080116D01*
X100016202Y-103300419D01*
X100016199Y-103300424D01*
X99892350Y-103541309D01*
X99892343Y-103541327D01*
X99804884Y-103797685D01*
X99804881Y-103797699D01*
X99780449Y-103929975D01*
X99765114Y-104013000D01*
X99755681Y-104064068D01*
X99755680Y-104064075D01*
X99745787Y-104334763D01*
X98217500Y-104334763D01*
X98217500Y-81884719D01*
X98237185Y-81817680D01*
X98289989Y-81771925D01*
X98359147Y-81761981D01*
X98422703Y-81791006D01*
G37*
%TD.AperFunction*%
%TA.AperFunction,Conductor*%
G36*
X118260539Y-68773185D02*
G01*
X118306294Y-68825989D01*
X118317500Y-68877500D01*
X118317500Y-75505784D01*
X118314437Y-75527745D01*
X118313598Y-75536792D01*
X118317235Y-75576035D01*
X118317500Y-75581758D01*
X118317500Y-75592843D01*
X118317501Y-75592855D01*
X118319536Y-75603749D01*
X118320327Y-75609415D01*
X118323964Y-75648658D01*
X118326443Y-75657372D01*
X118329667Y-75666989D01*
X118332938Y-75675432D01*
X118332939Y-75675433D01*
X118353690Y-75708948D01*
X118356467Y-75713933D01*
X118366789Y-75734662D01*
X118374042Y-75749228D01*
X118379526Y-75756490D01*
X118385957Y-75764235D01*
X118392080Y-75770951D01*
X118423535Y-75794706D01*
X118427943Y-75798366D01*
X118428006Y-75798423D01*
X118457067Y-75824916D01*
X118457068Y-75824916D01*
X118457069Y-75824917D01*
X118464797Y-75829702D01*
X118473580Y-75834594D01*
X118481732Y-75838653D01*
X118481736Y-75838656D01*
X118519660Y-75849445D01*
X118525054Y-75851253D01*
X118561827Y-75865500D01*
X118561829Y-75865500D01*
X118570755Y-75867169D01*
X118580742Y-75868562D01*
X118589792Y-75869401D01*
X118589792Y-75869400D01*
X118589793Y-75869401D01*
X118598847Y-75868562D01*
X118629036Y-75865765D01*
X118634759Y-75865500D01*
X147641785Y-75865500D01*
X147663742Y-75868562D01*
X147672792Y-75869401D01*
X147672792Y-75869400D01*
X147672793Y-75869401D01*
X147681847Y-75868562D01*
X147712036Y-75865765D01*
X147717759Y-75865500D01*
X147728844Y-75865500D01*
X147739757Y-75863459D01*
X147745387Y-75862673D01*
X147784660Y-75859035D01*
X147784665Y-75859032D01*
X147793421Y-75856541D01*
X147802940Y-75853350D01*
X147811431Y-75850061D01*
X147811433Y-75850061D01*
X147844965Y-75829297D01*
X147849919Y-75826538D01*
X147885228Y-75808958D01*
X147885228Y-75808957D01*
X147892523Y-75803448D01*
X147900197Y-75797076D01*
X147906949Y-75790921D01*
X147906949Y-75790920D01*
X147906952Y-75790919D01*
X147930715Y-75759449D01*
X147934341Y-75755082D01*
X147960916Y-75725933D01*
X147960918Y-75725927D01*
X147965721Y-75718170D01*
X147970579Y-75709448D01*
X147974650Y-75701271D01*
X147974656Y-75701264D01*
X147985445Y-75663338D01*
X147987251Y-75657951D01*
X148001500Y-75621173D01*
X148001500Y-75621170D01*
X148001501Y-75621168D01*
X148003172Y-75612229D01*
X148004561Y-75602276D01*
X148005401Y-75593207D01*
X148001765Y-75553964D01*
X148001500Y-75548241D01*
X148001500Y-72203763D01*
X157145787Y-72203763D01*
X157175413Y-72473013D01*
X157175415Y-72473024D01*
X157223440Y-72656722D01*
X157243928Y-72735088D01*
X157349870Y-72984390D01*
X157421998Y-73102575D01*
X157490979Y-73215605D01*
X157490986Y-73215615D01*
X157664253Y-73423819D01*
X157664259Y-73423824D01*
X157769240Y-73517887D01*
X157865998Y-73604582D01*
X158091910Y-73754044D01*
X158337176Y-73869020D01*
X158337183Y-73869022D01*
X158337185Y-73869023D01*
X158596557Y-73947057D01*
X158596564Y-73947058D01*
X158596569Y-73947060D01*
X158864561Y-73986500D01*
X158864566Y-73986500D01*
X159067636Y-73986500D01*
X159119133Y-73982730D01*
X159270156Y-73971677D01*
X159382758Y-73946593D01*
X159534546Y-73912782D01*
X159534548Y-73912781D01*
X159534553Y-73912780D01*
X159787558Y-73816014D01*
X160023777Y-73683441D01*
X160238177Y-73517888D01*
X160426186Y-73322881D01*
X160583799Y-73102579D01*
X160657787Y-72958669D01*
X160707649Y-72861690D01*
X160707651Y-72861684D01*
X160707656Y-72861675D01*
X160795118Y-72605305D01*
X160844319Y-72338933D01*
X160854212Y-72068235D01*
X160824586Y-71798982D01*
X160756072Y-71536912D01*
X160650130Y-71287610D01*
X160509018Y-71056390D01*
X160471471Y-71011272D01*
X160335746Y-70848180D01*
X160335740Y-70848175D01*
X160134002Y-70667418D01*
X159908092Y-70517957D01*
X159904875Y-70516449D01*
X159662824Y-70402980D01*
X159662819Y-70402978D01*
X159662814Y-70402976D01*
X159403442Y-70324942D01*
X159403428Y-70324939D01*
X159287791Y-70307921D01*
X159135439Y-70285500D01*
X158932369Y-70285500D01*
X158932364Y-70285500D01*
X158729844Y-70300323D01*
X158729831Y-70300325D01*
X158465453Y-70359217D01*
X158465446Y-70359220D01*
X158212439Y-70455987D01*
X157976226Y-70588557D01*
X157761822Y-70754112D01*
X157573822Y-70949109D01*
X157573816Y-70949116D01*
X157416202Y-71169419D01*
X157416199Y-71169424D01*
X157292350Y-71410309D01*
X157292343Y-71410327D01*
X157204884Y-71666685D01*
X157204881Y-71666699D01*
X157155681Y-71933068D01*
X157155680Y-71933075D01*
X157145787Y-72203763D01*
X148001500Y-72203763D01*
X148001500Y-68877500D01*
X148021185Y-68810461D01*
X148073989Y-68764706D01*
X148125500Y-68753500D01*
X160270964Y-68753500D01*
X160274927Y-68753627D01*
X160458079Y-68765353D01*
X160540173Y-68770610D01*
X160547583Y-68771536D01*
X160807135Y-68820049D01*
X160814389Y-68821865D01*
X161066187Y-68901306D01*
X161073176Y-68903985D01*
X161313556Y-69013195D01*
X161320176Y-69016699D01*
X161545651Y-69154095D01*
X161551779Y-69158357D01*
X161611709Y-69205653D01*
X161759046Y-69321929D01*
X161764638Y-69326918D01*
X161796222Y-69358726D01*
X161944379Y-69507937D01*
X161950661Y-69514263D01*
X161955603Y-69519880D01*
X162031007Y-69616831D01*
X162117700Y-69728298D01*
X162121934Y-69734477D01*
X162232696Y-69919176D01*
X162257724Y-69960910D01*
X162261183Y-69967558D01*
X162368683Y-70208698D01*
X162371315Y-70215714D01*
X162448968Y-70468057D01*
X162450736Y-70475339D01*
X162497404Y-70735194D01*
X162498281Y-70742636D01*
X162513395Y-71008135D01*
X162513495Y-71011880D01*
X162513303Y-71065653D01*
X162513500Y-71068199D01*
X162513500Y-75604851D01*
X162493815Y-75671890D01*
X162441011Y-75717645D01*
X162371853Y-75727589D01*
X162354564Y-75723828D01*
X162324426Y-75714978D01*
X162324421Y-75714976D01*
X162222690Y-75700350D01*
X162182000Y-75694500D01*
X150746000Y-75694500D01*
X150745991Y-75694500D01*
X150745990Y-75694501D01*
X150638549Y-75706052D01*
X150638537Y-75706054D01*
X150587027Y-75717260D01*
X150484502Y-75751383D01*
X150484496Y-75751386D01*
X150363462Y-75829171D01*
X150363451Y-75829179D01*
X150310657Y-75874925D01*
X150310654Y-75874928D01*
X150216438Y-75983656D01*
X150216436Y-75983660D01*
X150156661Y-76114543D01*
X150146424Y-76149406D01*
X150136978Y-76181577D01*
X150136976Y-76181583D01*
X150136975Y-76181585D01*
X150136974Y-76181589D01*
X150116500Y-76323998D01*
X150116500Y-80006775D01*
X150096815Y-80073814D01*
X150044011Y-80119569D01*
X149974853Y-80129513D01*
X149966722Y-80128066D01*
X149954649Y-80125500D01*
X149954646Y-80125500D01*
X149765354Y-80125500D01*
X149733682Y-80132232D01*
X149580197Y-80164855D01*
X149580192Y-80164857D01*
X149407270Y-80241848D01*
X149407265Y-80241851D01*
X149254129Y-80353111D01*
X149127466Y-80493785D01*
X149032821Y-80657715D01*
X149032818Y-80657722D01*
X148974327Y-80837740D01*
X148974326Y-80837744D01*
X148954540Y-81026000D01*
X148974326Y-81214256D01*
X148974327Y-81214259D01*
X149032818Y-81394277D01*
X149032821Y-81394284D01*
X149127467Y-81558216D01*
X149221871Y-81663062D01*
X149254129Y-81698888D01*
X149407265Y-81810148D01*
X149407270Y-81810151D01*
X149580192Y-81887142D01*
X149580197Y-81887144D01*
X149765354Y-81926500D01*
X149765355Y-81926500D01*
X149954640Y-81926500D01*
X149954646Y-81926500D01*
X149966720Y-81923933D01*
X150036383Y-81929247D01*
X150092117Y-81971383D01*
X150116225Y-82036962D01*
X150116500Y-82045223D01*
X150116500Y-83562775D01*
X150096815Y-83629814D01*
X150044011Y-83675569D01*
X149974853Y-83685513D01*
X149966722Y-83684066D01*
X149954649Y-83681500D01*
X149954646Y-83681500D01*
X149765354Y-83681500D01*
X149732897Y-83688398D01*
X149580197Y-83720855D01*
X149580192Y-83720857D01*
X149407270Y-83797848D01*
X149407265Y-83797851D01*
X149254129Y-83909111D01*
X149127466Y-84049785D01*
X149032821Y-84213715D01*
X149032818Y-84213722D01*
X148974327Y-84393740D01*
X148974326Y-84393744D01*
X148954540Y-84582000D01*
X148974326Y-84770256D01*
X148974327Y-84770259D01*
X149032818Y-84950277D01*
X149032821Y-84950284D01*
X149127467Y-85114216D01*
X149185899Y-85179111D01*
X149254129Y-85254888D01*
X149407265Y-85366148D01*
X149407270Y-85366151D01*
X149580192Y-85443142D01*
X149580197Y-85443144D01*
X149765354Y-85482500D01*
X149765355Y-85482500D01*
X149954640Y-85482500D01*
X149954646Y-85482500D01*
X149966720Y-85479933D01*
X150036383Y-85485247D01*
X150092117Y-85527383D01*
X150116225Y-85592962D01*
X150116500Y-85601223D01*
X150116500Y-87372775D01*
X150096815Y-87439814D01*
X150044011Y-87485569D01*
X149974853Y-87495513D01*
X149966722Y-87494066D01*
X149954649Y-87491500D01*
X149954646Y-87491500D01*
X149765354Y-87491500D01*
X149732897Y-87498398D01*
X149580197Y-87530855D01*
X149580192Y-87530857D01*
X149407270Y-87607848D01*
X149407265Y-87607851D01*
X149254129Y-87719111D01*
X149127466Y-87859785D01*
X149032821Y-88023715D01*
X149032818Y-88023722D01*
X149006913Y-88103451D01*
X148974326Y-88203744D01*
X148954540Y-88392000D01*
X148974326Y-88580256D01*
X148974327Y-88580259D01*
X149032818Y-88760277D01*
X149032821Y-88760284D01*
X149127467Y-88924216D01*
X149241502Y-89050864D01*
X149254129Y-89064888D01*
X149407265Y-89176148D01*
X149407270Y-89176151D01*
X149580192Y-89253142D01*
X149580197Y-89253144D01*
X149765354Y-89292500D01*
X149765355Y-89292500D01*
X149954640Y-89292500D01*
X149954646Y-89292500D01*
X149966720Y-89289933D01*
X150036383Y-89295247D01*
X150092117Y-89337383D01*
X150116225Y-89402962D01*
X150116500Y-89411223D01*
X150116500Y-90928775D01*
X150096815Y-90995814D01*
X150044011Y-91041569D01*
X149974853Y-91051513D01*
X149966722Y-91050066D01*
X149954649Y-91047500D01*
X149954646Y-91047500D01*
X149765354Y-91047500D01*
X149732897Y-91054398D01*
X149580197Y-91086855D01*
X149580192Y-91086857D01*
X149407270Y-91163848D01*
X149407265Y-91163851D01*
X149254129Y-91275111D01*
X149127466Y-91415785D01*
X149032821Y-91579715D01*
X149032818Y-91579722D01*
X148974327Y-91759740D01*
X148974326Y-91759744D01*
X148954540Y-91948000D01*
X148974326Y-92136256D01*
X148974327Y-92136259D01*
X149032818Y-92316277D01*
X149032821Y-92316284D01*
X149127467Y-92480216D01*
X149230086Y-92594186D01*
X149254129Y-92620888D01*
X149407265Y-92732148D01*
X149407270Y-92732151D01*
X149580192Y-92809142D01*
X149580197Y-92809144D01*
X149765354Y-92848500D01*
X149765355Y-92848500D01*
X149954640Y-92848500D01*
X149954646Y-92848500D01*
X149966720Y-92845933D01*
X150036383Y-92851247D01*
X150092117Y-92893383D01*
X150116225Y-92958962D01*
X150116500Y-92967223D01*
X150116500Y-94169007D01*
X150096815Y-94236046D01*
X150065829Y-94269001D01*
X146679249Y-96752494D01*
X146613547Y-96776265D01*
X146605920Y-96776500D01*
X133728000Y-96776500D01*
X133727991Y-96776500D01*
X133727990Y-96776501D01*
X133620549Y-96788052D01*
X133620537Y-96788054D01*
X133569027Y-96799260D01*
X133466502Y-96833383D01*
X133466496Y-96833386D01*
X133345462Y-96911171D01*
X133345451Y-96911179D01*
X133292659Y-96956923D01*
X133198433Y-97065664D01*
X133198430Y-97065668D01*
X133138664Y-97196534D01*
X133118978Y-97263575D01*
X133118976Y-97263580D01*
X133098500Y-97406001D01*
X133098500Y-97740300D01*
X133078815Y-97807339D01*
X133026011Y-97853094D01*
X132974500Y-97864300D01*
X112119500Y-97864300D01*
X112052461Y-97844615D01*
X112006706Y-97791811D01*
X111995500Y-97740300D01*
X111995500Y-97473935D01*
X111980109Y-97288186D01*
X111980107Y-97288175D01*
X111919063Y-97047118D01*
X111855943Y-96903219D01*
X111845499Y-96853409D01*
X111845499Y-96638129D01*
X111845498Y-96638123D01*
X111845085Y-96634284D01*
X111839091Y-96578517D01*
X111837810Y-96575083D01*
X111788797Y-96443671D01*
X111788793Y-96443664D01*
X111702547Y-96328455D01*
X111702544Y-96328452D01*
X111587335Y-96242206D01*
X111587328Y-96242202D01*
X111452482Y-96191908D01*
X111452483Y-96191908D01*
X111392883Y-96185501D01*
X111392881Y-96185500D01*
X111392873Y-96185500D01*
X111392865Y-96185500D01*
X111183556Y-96185500D01*
X111124537Y-96170554D01*
X111099810Y-96157172D01*
X111099805Y-96157170D01*
X111099802Y-96157169D01*
X111046878Y-96139000D01*
X121522540Y-96139000D01*
X121542326Y-96327256D01*
X121542327Y-96327259D01*
X121600818Y-96507277D01*
X121600821Y-96507284D01*
X121695467Y-96671216D01*
X121800667Y-96788052D01*
X121822129Y-96811888D01*
X121975265Y-96923148D01*
X121975270Y-96923151D01*
X122148192Y-97000142D01*
X122148197Y-97000144D01*
X122333354Y-97039500D01*
X122333355Y-97039500D01*
X122522644Y-97039500D01*
X122522646Y-97039500D01*
X122707803Y-97000144D01*
X122880730Y-96923151D01*
X123033871Y-96811888D01*
X123036788Y-96808647D01*
X123039600Y-96805526D01*
X123099087Y-96768879D01*
X123131748Y-96764500D01*
X123869257Y-96764500D01*
X123884877Y-96766224D01*
X123884904Y-96765939D01*
X123892660Y-96766671D01*
X123892667Y-96766673D01*
X123961814Y-96764500D01*
X123991350Y-96764500D01*
X123998228Y-96763630D01*
X124004041Y-96763172D01*
X124050627Y-96761709D01*
X124069869Y-96756117D01*
X124088912Y-96752174D01*
X124108792Y-96749664D01*
X124152122Y-96732507D01*
X124157646Y-96730617D01*
X124161396Y-96729527D01*
X124202390Y-96717618D01*
X124219629Y-96707422D01*
X124237103Y-96698862D01*
X124255727Y-96691488D01*
X124255727Y-96691487D01*
X124255732Y-96691486D01*
X124293449Y-96664082D01*
X124298305Y-96660892D01*
X124338420Y-96637170D01*
X124352589Y-96622999D01*
X124367379Y-96610368D01*
X124383587Y-96598594D01*
X124413299Y-96562676D01*
X124417212Y-96558376D01*
X124709588Y-96266000D01*
X128888540Y-96266000D01*
X128908326Y-96454256D01*
X128908327Y-96454259D01*
X128966818Y-96634277D01*
X128966821Y-96634284D01*
X129061467Y-96798216D01*
X129163176Y-96911175D01*
X129188129Y-96938888D01*
X129341265Y-97050148D01*
X129341270Y-97050151D01*
X129514192Y-97127142D01*
X129514197Y-97127144D01*
X129699354Y-97166500D01*
X129699355Y-97166500D01*
X129888644Y-97166500D01*
X129888646Y-97166500D01*
X130073803Y-97127144D01*
X130246730Y-97050151D01*
X130399871Y-96938888D01*
X130526533Y-96798216D01*
X130621179Y-96634284D01*
X130679674Y-96454256D01*
X130699460Y-96266000D01*
X130679674Y-96077744D01*
X130621179Y-95897716D01*
X130526533Y-95733784D01*
X130399871Y-95593112D01*
X130389119Y-95585300D01*
X130246734Y-95481851D01*
X130246729Y-95481848D01*
X130073807Y-95404857D01*
X130073802Y-95404855D01*
X129928000Y-95373865D01*
X129888646Y-95365500D01*
X129699354Y-95365500D01*
X129666897Y-95372398D01*
X129514197Y-95404855D01*
X129514192Y-95404857D01*
X129341270Y-95481848D01*
X129341265Y-95481851D01*
X129188129Y-95593111D01*
X129061466Y-95733785D01*
X128966821Y-95897715D01*
X128966818Y-95897722D01*
X128914662Y-96058244D01*
X128908326Y-96077744D01*
X128899978Y-96157172D01*
X128888951Y-96262094D01*
X128888540Y-96266000D01*
X124709588Y-96266000D01*
X128492771Y-92482819D01*
X128554095Y-92449334D01*
X128580453Y-92446500D01*
X137853252Y-92446500D01*
X137920291Y-92466185D01*
X137945400Y-92487526D01*
X137951126Y-92493885D01*
X137951130Y-92493889D01*
X138104265Y-92605148D01*
X138104270Y-92605151D01*
X138277192Y-92682142D01*
X138277197Y-92682144D01*
X138462354Y-92721500D01*
X138462355Y-92721500D01*
X138651644Y-92721500D01*
X138651646Y-92721500D01*
X138836803Y-92682144D01*
X139009730Y-92605151D01*
X139162871Y-92493888D01*
X139289533Y-92353216D01*
X139384179Y-92189284D01*
X139442674Y-92009256D01*
X139462460Y-91821000D01*
X139442674Y-91632744D01*
X139384179Y-91452716D01*
X139289533Y-91288784D01*
X139162871Y-91148112D01*
X139162870Y-91148111D01*
X139009734Y-91036851D01*
X139009729Y-91036848D01*
X138836807Y-90959857D01*
X138836802Y-90959855D01*
X138690577Y-90928775D01*
X138651646Y-90920500D01*
X138462354Y-90920500D01*
X138429897Y-90927398D01*
X138277197Y-90959855D01*
X138277192Y-90959857D01*
X138104270Y-91036848D01*
X138104265Y-91036851D01*
X137951130Y-91148110D01*
X137951126Y-91148114D01*
X137945400Y-91154474D01*
X137885913Y-91191121D01*
X137853252Y-91195500D01*
X128352738Y-91195500D01*
X128337121Y-91193776D01*
X128337094Y-91194062D01*
X128329332Y-91193327D01*
X128260204Y-91195500D01*
X128230650Y-91195500D01*
X128229929Y-91195590D01*
X128223757Y-91196369D01*
X128217945Y-91196826D01*
X128171373Y-91198290D01*
X128171372Y-91198290D01*
X128152129Y-91203881D01*
X128133079Y-91207825D01*
X128113211Y-91210334D01*
X128113209Y-91210335D01*
X128069884Y-91227488D01*
X128064357Y-91229380D01*
X128019610Y-91242381D01*
X128019609Y-91242382D01*
X128002367Y-91252579D01*
X127984899Y-91261137D01*
X127966269Y-91268513D01*
X127966267Y-91268514D01*
X127928576Y-91295898D01*
X127923694Y-91299105D01*
X127883579Y-91322830D01*
X127869408Y-91337000D01*
X127854623Y-91349628D01*
X127838412Y-91361407D01*
X127808709Y-91397310D01*
X127804777Y-91401631D01*
X123729228Y-95477181D01*
X123667905Y-95510666D01*
X123641547Y-95513500D01*
X123131748Y-95513500D01*
X123064709Y-95493815D01*
X123039600Y-95472474D01*
X123033873Y-95466114D01*
X123033869Y-95466110D01*
X122880734Y-95354851D01*
X122880729Y-95354848D01*
X122707807Y-95277857D01*
X122707802Y-95277855D01*
X122552798Y-95244909D01*
X122522646Y-95238500D01*
X122333354Y-95238500D01*
X122303202Y-95244909D01*
X122148197Y-95277855D01*
X122148192Y-95277857D01*
X121975270Y-95354848D01*
X121975265Y-95354851D01*
X121822129Y-95466111D01*
X121695466Y-95606785D01*
X121600821Y-95770715D01*
X121600818Y-95770722D01*
X121542327Y-95950740D01*
X121542326Y-95950744D01*
X121522540Y-96139000D01*
X111046878Y-96139000D01*
X110864616Y-96076429D01*
X110619335Y-96035500D01*
X110370665Y-96035500D01*
X110125383Y-96076429D01*
X109890198Y-96157169D01*
X109890194Y-96157170D01*
X109890190Y-96157172D01*
X109890187Y-96157173D01*
X109890186Y-96157174D01*
X109865455Y-96170557D01*
X109806443Y-96185500D01*
X109597130Y-96185500D01*
X109597123Y-96185501D01*
X109537516Y-96191908D01*
X109402671Y-96242202D01*
X109402664Y-96242206D01*
X109287455Y-96328452D01*
X109287452Y-96328455D01*
X109201206Y-96443664D01*
X109201203Y-96443669D01*
X109152189Y-96575083D01*
X109110317Y-96631016D01*
X109044853Y-96655433D01*
X108976580Y-96640581D01*
X108948326Y-96619430D01*
X108826402Y-96497506D01*
X108826395Y-96497501D01*
X108632834Y-96361967D01*
X108632830Y-96361965D01*
X108632829Y-96361964D01*
X108418663Y-96262097D01*
X108418659Y-96262096D01*
X108418655Y-96262094D01*
X108190413Y-96200938D01*
X108190403Y-96200936D01*
X107955001Y-96180341D01*
X107954999Y-96180341D01*
X107719596Y-96200936D01*
X107719586Y-96200938D01*
X107491344Y-96262094D01*
X107491335Y-96262098D01*
X107277171Y-96361964D01*
X107277169Y-96361965D01*
X107083597Y-96497505D01*
X106916505Y-96664597D01*
X106780965Y-96858169D01*
X106780964Y-96858171D01*
X106681098Y-97072335D01*
X106681094Y-97072344D01*
X106619938Y-97300586D01*
X106619936Y-97300596D01*
X106599341Y-97535999D01*
X106599341Y-97536000D01*
X106619936Y-97771403D01*
X106619938Y-97771413D01*
X106681094Y-97999655D01*
X106681096Y-97999659D01*
X106681097Y-97999663D01*
X106780964Y-98213829D01*
X106780965Y-98213830D01*
X106780967Y-98213834D01*
X106889281Y-98368521D01*
X106916505Y-98407401D01*
X107083599Y-98574495D01*
X107171594Y-98636110D01*
X107277165Y-98710032D01*
X107277167Y-98710033D01*
X107277170Y-98710035D01*
X107491337Y-98809903D01*
X107719592Y-98871063D01*
X107907918Y-98887539D01*
X107954999Y-98891659D01*
X107955000Y-98891659D01*
X107955001Y-98891659D01*
X107994234Y-98888226D01*
X108190408Y-98871063D01*
X108418663Y-98809903D01*
X108632830Y-98710035D01*
X108803574Y-98590478D01*
X108869778Y-98568152D01*
X108937546Y-98585162D01*
X108985359Y-98636110D01*
X108998590Y-98686929D01*
X109000918Y-98743233D01*
X109006526Y-98769983D01*
X109007635Y-98777590D01*
X109009891Y-98804818D01*
X109009891Y-98804819D01*
X109011179Y-98809905D01*
X109032801Y-98895288D01*
X109051951Y-98986614D01*
X109051952Y-98986616D01*
X109061882Y-99012067D01*
X109064227Y-99019387D01*
X109070937Y-99045881D01*
X109108420Y-99131335D01*
X109142344Y-99218275D01*
X109156332Y-99241750D01*
X109159852Y-99248588D01*
X109170825Y-99273604D01*
X109170827Y-99273607D01*
X109221860Y-99351720D01*
X109269634Y-99431894D01*
X109287296Y-99452747D01*
X109291887Y-99458904D01*
X109306836Y-99481785D01*
X109306837Y-99481786D01*
X109370033Y-99550435D01*
X109390100Y-99574129D01*
X109412049Y-99596078D01*
X109475257Y-99664739D01*
X109496822Y-99681524D01*
X109502587Y-99686615D01*
X110173184Y-100357212D01*
X110178273Y-100362974D01*
X110195062Y-100384544D01*
X110195064Y-100384546D01*
X110195065Y-100384547D01*
X110263721Y-100447750D01*
X110285666Y-100469694D01*
X110285674Y-100469702D01*
X110309364Y-100489766D01*
X110378015Y-100552964D01*
X110378017Y-100552965D01*
X110378018Y-100552966D01*
X110400886Y-100567906D01*
X110407050Y-100572502D01*
X110427906Y-100590166D01*
X110450435Y-100603590D01*
X110472902Y-100616978D01*
X110520416Y-100668205D01*
X110532692Y-100736987D01*
X110505833Y-100801488D01*
X110448365Y-100841228D01*
X110409428Y-100847500D01*
X108006452Y-100847500D01*
X107939413Y-100827815D01*
X107918771Y-100811181D01*
X103323713Y-96216122D01*
X103290228Y-96154799D01*
X103295212Y-96085107D01*
X103337084Y-96029174D01*
X103402548Y-96004757D01*
X103457481Y-96013324D01*
X103569680Y-96058242D01*
X103569685Y-96058244D01*
X103775962Y-96098000D01*
X104181000Y-96098000D01*
X104181000Y-95298000D01*
X104681000Y-95298000D01*
X104681000Y-96098000D01*
X105033398Y-96098000D01*
X105190122Y-96083034D01*
X105190126Y-96083033D01*
X105391686Y-96023850D01*
X105578414Y-95927586D01*
X105743537Y-95797731D01*
X105743540Y-95797728D01*
X105881105Y-95638969D01*
X105881114Y-95638958D01*
X105986144Y-95457039D01*
X105986147Y-95457032D01*
X106054855Y-95258517D01*
X106054855Y-95258515D01*
X106056368Y-95248000D01*
X105147111Y-95248000D01*
X105186610Y-95223543D01*
X105254201Y-95134038D01*
X105284895Y-95026160D01*
X105274546Y-94914479D01*
X105224552Y-94814078D01*
X105152069Y-94748000D01*
X106052257Y-94748000D01*
X106025229Y-94636590D01*
X105937959Y-94445492D01*
X105816110Y-94274380D01*
X105816104Y-94274374D01*
X105664067Y-94129407D01*
X105487342Y-94015833D01*
X105292314Y-93937755D01*
X105086038Y-93898000D01*
X104530500Y-93898000D01*
X104463461Y-93878315D01*
X104417706Y-93825511D01*
X104406500Y-93774000D01*
X104406500Y-93350341D01*
X104391070Y-93238082D01*
X104391070Y-93238080D01*
X104360028Y-93166615D01*
X104330782Y-93099283D01*
X104330780Y-93099280D01*
X104235278Y-92981892D01*
X104235276Y-92981891D01*
X104235275Y-92981889D01*
X104111647Y-92894623D01*
X104111644Y-92894621D01*
X103969058Y-92843946D01*
X103818081Y-92833619D01*
X103818074Y-92833619D01*
X103669921Y-92864405D01*
X103669915Y-92864408D01*
X103535553Y-92934029D01*
X103535551Y-92934030D01*
X103535552Y-92934030D01*
X103535548Y-92934032D01*
X103424956Y-93037318D01*
X103346329Y-93166615D01*
X103346328Y-93166617D01*
X103346328Y-93166618D01*
X103305500Y-93312335D01*
X103305500Y-93775658D01*
X103320930Y-93887920D01*
X103331809Y-93912965D01*
X103332063Y-93913550D01*
X103340717Y-93982882D01*
X103310513Y-94045886D01*
X103285372Y-94067265D01*
X103283590Y-94068410D01*
X103118462Y-94198268D01*
X103118459Y-94198271D01*
X102980894Y-94357030D01*
X102980885Y-94357041D01*
X102875855Y-94538960D01*
X102875852Y-94538967D01*
X102807144Y-94737482D01*
X102807144Y-94737484D01*
X102805632Y-94748000D01*
X103714889Y-94748000D01*
X103675390Y-94772457D01*
X103607799Y-94861962D01*
X103577105Y-94969840D01*
X103587454Y-95081521D01*
X103637448Y-95181922D01*
X103709931Y-95248000D01*
X102809742Y-95248000D01*
X102836770Y-95359409D01*
X102862071Y-95414812D01*
X102872014Y-95483971D01*
X102842988Y-95547526D01*
X102784210Y-95585300D01*
X102714340Y-95585300D01*
X102661595Y-95554004D01*
X102388819Y-95281228D01*
X102355334Y-95219905D01*
X102352500Y-95193547D01*
X102352500Y-91644100D01*
X106028540Y-91644100D01*
X106048326Y-91832356D01*
X106048327Y-91832359D01*
X106106818Y-92012377D01*
X106106821Y-92012384D01*
X106201467Y-92176316D01*
X106327489Y-92316277D01*
X106328129Y-92316988D01*
X106481265Y-92428248D01*
X106481270Y-92428251D01*
X106654191Y-92505242D01*
X106654193Y-92505242D01*
X106654197Y-92505244D01*
X106722936Y-92519854D01*
X106784415Y-92553046D01*
X106818192Y-92614208D01*
X106813540Y-92683923D01*
X106789303Y-92724116D01*
X106709466Y-92812784D01*
X106614821Y-92976715D01*
X106614818Y-92976722D01*
X106595129Y-93037320D01*
X106556326Y-93156744D01*
X106536540Y-93345000D01*
X106556326Y-93533256D01*
X106556327Y-93533259D01*
X106614818Y-93713277D01*
X106614820Y-93713281D01*
X106614821Y-93713284D01*
X106650833Y-93775658D01*
X106696352Y-93854501D01*
X106712824Y-93922401D01*
X106696352Y-93978499D01*
X106614820Y-94119718D01*
X106614818Y-94119722D01*
X106558718Y-94292381D01*
X106556326Y-94299744D01*
X106536540Y-94488000D01*
X106556326Y-94676256D01*
X106556327Y-94676259D01*
X106614818Y-94856277D01*
X106614821Y-94856284D01*
X106709467Y-95020216D01*
X106811953Y-95134038D01*
X106836129Y-95160888D01*
X106989265Y-95272148D01*
X106989270Y-95272151D01*
X107162192Y-95349142D01*
X107162197Y-95349144D01*
X107347354Y-95388500D01*
X107347355Y-95388500D01*
X107536644Y-95388500D01*
X107536646Y-95388500D01*
X107721803Y-95349144D01*
X107837087Y-95297815D01*
X107894728Y-95272152D01*
X107894728Y-95272151D01*
X107894730Y-95272151D01*
X107940614Y-95238813D01*
X108006421Y-95215334D01*
X108074475Y-95231159D01*
X108086386Y-95238814D01*
X108132271Y-95272152D01*
X108305192Y-95349142D01*
X108305197Y-95349144D01*
X108490354Y-95388500D01*
X108490355Y-95388500D01*
X108679644Y-95388500D01*
X108679646Y-95388500D01*
X108864803Y-95349144D01*
X109037730Y-95272151D01*
X109190871Y-95160888D01*
X109317533Y-95020216D01*
X109412179Y-94856284D01*
X109449312Y-94742000D01*
X115680540Y-94742000D01*
X115700326Y-94930256D01*
X115700327Y-94930259D01*
X115758818Y-95110277D01*
X115758821Y-95110284D01*
X115853467Y-95274216D01*
X115935660Y-95365500D01*
X115980129Y-95414888D01*
X116133265Y-95526148D01*
X116133270Y-95526151D01*
X116306192Y-95603142D01*
X116306197Y-95603144D01*
X116491354Y-95642500D01*
X116491355Y-95642500D01*
X116680644Y-95642500D01*
X116680646Y-95642500D01*
X116865803Y-95603144D01*
X117038730Y-95526151D01*
X117191871Y-95414888D01*
X117318533Y-95274216D01*
X117413179Y-95110284D01*
X117471674Y-94930256D01*
X117491460Y-94742000D01*
X117471674Y-94553744D01*
X117413179Y-94373716D01*
X117318533Y-94209784D01*
X117191871Y-94069112D01*
X117189329Y-94067265D01*
X117038734Y-93957851D01*
X117038729Y-93957848D01*
X116865807Y-93880857D01*
X116865802Y-93880855D01*
X116712633Y-93848299D01*
X116680646Y-93841500D01*
X116491354Y-93841500D01*
X116459367Y-93848299D01*
X116306197Y-93880855D01*
X116306192Y-93880857D01*
X116133270Y-93957848D01*
X116133265Y-93957851D01*
X115980129Y-94069111D01*
X115853466Y-94209785D01*
X115758821Y-94373715D01*
X115758818Y-94373722D01*
X115705127Y-94538967D01*
X115700326Y-94553744D01*
X115680540Y-94742000D01*
X109449312Y-94742000D01*
X109470674Y-94676256D01*
X109490460Y-94488000D01*
X109470674Y-94299744D01*
X109412179Y-94119716D01*
X109330647Y-93978499D01*
X109314175Y-93910600D01*
X109330648Y-93854500D01*
X109334228Y-93848299D01*
X109412179Y-93713284D01*
X109470674Y-93533256D01*
X109490460Y-93345000D01*
X109470674Y-93156744D01*
X109412179Y-92976716D01*
X109317533Y-92812784D01*
X109190871Y-92672112D01*
X109156500Y-92647140D01*
X109037734Y-92560851D01*
X109037729Y-92560848D01*
X108864807Y-92483857D01*
X108864802Y-92483855D01*
X108689055Y-92446500D01*
X108679646Y-92444500D01*
X108490354Y-92444500D01*
X108480945Y-92446500D01*
X108305197Y-92483855D01*
X108305192Y-92483857D01*
X108132270Y-92560848D01*
X108132266Y-92560851D01*
X108086384Y-92594186D01*
X108020578Y-92617665D01*
X107952524Y-92601839D01*
X107940616Y-92594186D01*
X107894733Y-92560851D01*
X107894729Y-92560848D01*
X107721807Y-92483857D01*
X107721802Y-92483855D01*
X107653065Y-92469245D01*
X107591583Y-92436053D01*
X107557807Y-92374889D01*
X107562459Y-92305175D01*
X107586692Y-92264987D01*
X107666533Y-92176316D01*
X107761179Y-92012384D01*
X107819674Y-91832356D01*
X107839460Y-91644100D01*
X107819674Y-91455844D01*
X107761179Y-91275816D01*
X107666533Y-91111884D01*
X107599950Y-91037936D01*
X107569720Y-90974945D01*
X107568100Y-90954964D01*
X107568100Y-90583835D01*
X107587785Y-90516796D01*
X107640589Y-90471041D01*
X107641666Y-90470555D01*
X107650819Y-90466479D01*
X107657904Y-90463325D01*
X107811045Y-90352062D01*
X107937707Y-90211390D01*
X108032353Y-90047458D01*
X108090848Y-89867430D01*
X108110634Y-89679174D01*
X108090848Y-89490918D01*
X108032353Y-89310890D01*
X107937707Y-89146958D01*
X107811045Y-89006286D01*
X107811044Y-89006285D01*
X107657908Y-88895025D01*
X107657903Y-88895022D01*
X107484981Y-88818031D01*
X107484976Y-88818029D01*
X107339174Y-88787039D01*
X107299820Y-88778674D01*
X107110528Y-88778674D01*
X107078071Y-88785572D01*
X106925371Y-88818029D01*
X106925366Y-88818031D01*
X106752444Y-88895022D01*
X106752439Y-88895025D01*
X106599303Y-89006285D01*
X106472640Y-89146959D01*
X106377995Y-89310889D01*
X106377992Y-89310896D01*
X106319501Y-89490914D01*
X106319500Y-89490918D01*
X106314867Y-89534999D01*
X106299714Y-89679174D01*
X106311684Y-89793073D01*
X106308468Y-89836868D01*
X106299900Y-89870238D01*
X106299900Y-89890688D01*
X106298373Y-89910087D01*
X106295176Y-89930270D01*
X106295176Y-89930271D01*
X106299625Y-89977337D01*
X106299900Y-89983175D01*
X106299900Y-90954964D01*
X106280215Y-91022003D01*
X106268050Y-91037936D01*
X106201466Y-91111885D01*
X106106821Y-91275815D01*
X106106818Y-91275822D01*
X106049342Y-91452716D01*
X106048326Y-91455844D01*
X106035307Y-91579715D01*
X106029734Y-91632744D01*
X106028540Y-91644100D01*
X102352500Y-91644100D01*
X102352500Y-86098000D01*
X102805632Y-86098000D01*
X103714889Y-86098000D01*
X103675390Y-86122457D01*
X103607799Y-86211962D01*
X103577105Y-86319840D01*
X103587454Y-86431521D01*
X103637448Y-86531922D01*
X103709931Y-86598000D01*
X102809742Y-86598000D01*
X102836770Y-86709409D01*
X102924040Y-86900507D01*
X103045889Y-87071619D01*
X103045895Y-87071625D01*
X103197932Y-87216592D01*
X103353180Y-87316363D01*
X103398935Y-87369167D01*
X103408879Y-87438326D01*
X103387446Y-87492186D01*
X103362622Y-87527353D01*
X103362621Y-87527355D01*
X103311946Y-87669939D01*
X103311946Y-87669942D01*
X103301619Y-87820918D01*
X103301619Y-87820921D01*
X103332405Y-87969078D01*
X103332407Y-87969083D01*
X103332408Y-87969085D01*
X103402029Y-88103447D01*
X103402031Y-88103449D01*
X103402032Y-88103451D01*
X103505318Y-88214043D01*
X103505320Y-88214044D01*
X103634618Y-88292672D01*
X103780335Y-88333500D01*
X103780336Y-88333500D01*
X103893659Y-88333500D01*
X103921723Y-88329642D01*
X104005920Y-88318070D01*
X104115854Y-88270318D01*
X104144716Y-88257782D01*
X104144716Y-88257781D01*
X104144720Y-88257780D01*
X104262108Y-88162278D01*
X104349377Y-88038647D01*
X104356255Y-88019293D01*
X104400053Y-87896060D01*
X104400053Y-87896058D01*
X104400054Y-87896056D01*
X104410381Y-87745079D01*
X104394768Y-87669944D01*
X104379594Y-87596921D01*
X104379592Y-87596918D01*
X104379592Y-87596915D01*
X104309971Y-87462553D01*
X104309967Y-87462549D01*
X104309967Y-87462548D01*
X104214376Y-87360195D01*
X104183005Y-87297765D01*
X104181000Y-87275559D01*
X104181000Y-86648000D01*
X104681000Y-86648000D01*
X104681000Y-87448000D01*
X105033398Y-87448000D01*
X105190122Y-87433034D01*
X105190126Y-87433033D01*
X105391686Y-87373850D01*
X105578414Y-87277586D01*
X105743537Y-87147731D01*
X105743540Y-87147728D01*
X105881105Y-86988969D01*
X105881114Y-86988958D01*
X105986144Y-86807039D01*
X105986147Y-86807032D01*
X106054855Y-86608517D01*
X106054855Y-86608515D01*
X106056368Y-86598000D01*
X105147111Y-86598000D01*
X105186610Y-86573543D01*
X105254201Y-86484038D01*
X105284895Y-86376160D01*
X105274546Y-86264479D01*
X105224552Y-86164078D01*
X105152069Y-86098000D01*
X106052257Y-86098000D01*
X106025229Y-85986590D01*
X105937959Y-85795492D01*
X105816110Y-85624380D01*
X105816104Y-85624374D01*
X105664067Y-85479407D01*
X105487342Y-85365833D01*
X105292314Y-85287755D01*
X105086038Y-85248000D01*
X104681000Y-85248000D01*
X104681000Y-86048000D01*
X104181000Y-86048000D01*
X104181000Y-85248000D01*
X103828602Y-85248000D01*
X103671877Y-85262965D01*
X103671873Y-85262966D01*
X103470313Y-85322149D01*
X103283585Y-85418413D01*
X103118462Y-85548268D01*
X103118459Y-85548271D01*
X102980894Y-85707030D01*
X102980885Y-85707041D01*
X102875855Y-85888960D01*
X102875852Y-85888967D01*
X102807144Y-86087482D01*
X102807144Y-86087484D01*
X102805632Y-86098000D01*
X102352500Y-86098000D01*
X102352500Y-84283742D01*
X102354224Y-84268122D01*
X102353939Y-84268096D01*
X102354671Y-84260340D01*
X102354673Y-84260333D01*
X102352500Y-84191185D01*
X102352500Y-84161650D01*
X102351631Y-84154772D01*
X102351172Y-84148943D01*
X102350796Y-84136989D01*
X102349709Y-84102373D01*
X102349257Y-84100819D01*
X102344122Y-84083144D01*
X102340174Y-84064084D01*
X102337664Y-84044208D01*
X102337663Y-84044206D01*
X102337663Y-84044204D01*
X102320512Y-84000887D01*
X102318619Y-83995358D01*
X102305618Y-83950609D01*
X102305616Y-83950606D01*
X102295423Y-83933371D01*
X102286861Y-83915894D01*
X102279487Y-83897270D01*
X102279486Y-83897268D01*
X102252079Y-83859545D01*
X102248888Y-83854686D01*
X102225172Y-83814583D01*
X102225165Y-83814574D01*
X102211006Y-83800415D01*
X102198368Y-83785619D01*
X102186594Y-83769413D01*
X102168272Y-83754256D01*
X102150688Y-83739709D01*
X102146376Y-83735786D01*
X101155260Y-82744669D01*
X101121776Y-82683348D01*
X101126760Y-82613656D01*
X101168632Y-82557723D01*
X101234096Y-82533306D01*
X101257338Y-82533828D01*
X101258800Y-82533998D01*
X101258805Y-82534000D01*
X101258810Y-82534000D01*
X101389448Y-82534000D01*
X101389455Y-82534000D01*
X101519211Y-82518834D01*
X101683084Y-82459189D01*
X101828784Y-82363360D01*
X101948458Y-82236513D01*
X102035653Y-82085487D01*
X102085668Y-81918423D01*
X102095808Y-81744329D01*
X102065526Y-81572588D01*
X101996453Y-81412461D01*
X101892315Y-81272578D01*
X101845730Y-81233488D01*
X101807028Y-81175319D01*
X101805919Y-81105458D01*
X101842756Y-81046088D01*
X101905843Y-81016058D01*
X101925436Y-81014500D01*
X102958213Y-81014500D01*
X103025252Y-81034185D01*
X103062528Y-81071460D01*
X103134170Y-81182937D01*
X103134179Y-81182948D01*
X103179923Y-81235740D01*
X103179926Y-81235743D01*
X103179930Y-81235747D01*
X103288664Y-81329967D01*
X103288667Y-81329968D01*
X103288668Y-81329969D01*
X103396339Y-81379142D01*
X103419541Y-81389738D01*
X103464357Y-81402897D01*
X103486575Y-81409422D01*
X103486580Y-81409423D01*
X103486584Y-81409424D01*
X103629000Y-81429900D01*
X103629003Y-81429900D01*
X103847231Y-81429900D01*
X103914270Y-81449585D01*
X103960025Y-81502389D01*
X103969969Y-81571547D01*
X103940944Y-81635103D01*
X103920116Y-81654218D01*
X103788129Y-81750111D01*
X103661466Y-81890785D01*
X103566821Y-82054715D01*
X103566818Y-82054722D01*
X103510054Y-82229426D01*
X103508326Y-82234744D01*
X103488540Y-82423000D01*
X103508326Y-82611256D01*
X103508327Y-82611259D01*
X103566818Y-82791277D01*
X103566821Y-82791284D01*
X103661467Y-82955216D01*
X103763185Y-83068185D01*
X103788129Y-83095888D01*
X103941265Y-83207148D01*
X103941270Y-83207151D01*
X104114192Y-83284142D01*
X104114197Y-83284144D01*
X104299354Y-83323500D01*
X104299355Y-83323500D01*
X104488644Y-83323500D01*
X104488646Y-83323500D01*
X104673803Y-83284144D01*
X104846730Y-83207151D01*
X104999871Y-83095888D01*
X105002788Y-83092647D01*
X105005600Y-83089526D01*
X105065087Y-83052879D01*
X105097748Y-83048500D01*
X105480548Y-83048500D01*
X105547587Y-83068185D01*
X105568229Y-83084819D01*
X107258072Y-84774663D01*
X107291557Y-84835986D01*
X107286573Y-84905678D01*
X107244701Y-84961611D01*
X107196173Y-84983634D01*
X107162196Y-84990856D01*
X107162192Y-84990857D01*
X106989270Y-85067848D01*
X106989265Y-85067851D01*
X106836129Y-85179111D01*
X106709466Y-85319785D01*
X106614821Y-85483715D01*
X106614818Y-85483722D01*
X106558604Y-85656732D01*
X106556326Y-85663744D01*
X106536540Y-85852000D01*
X106556326Y-86040256D01*
X106556327Y-86040259D01*
X106614818Y-86220277D01*
X106614820Y-86220281D01*
X106614821Y-86220284D01*
X106641601Y-86266668D01*
X106696352Y-86361501D01*
X106712824Y-86429401D01*
X106696352Y-86485499D01*
X106614820Y-86626718D01*
X106614818Y-86626722D01*
X106556327Y-86806740D01*
X106556326Y-86806744D01*
X106536540Y-86995000D01*
X106556326Y-87183256D01*
X106556327Y-87183259D01*
X106614818Y-87363277D01*
X106614821Y-87363284D01*
X106709467Y-87527216D01*
X106836129Y-87667888D01*
X106989265Y-87779148D01*
X106989270Y-87779151D01*
X107162192Y-87856142D01*
X107162197Y-87856144D01*
X107347354Y-87895500D01*
X107347355Y-87895500D01*
X107536644Y-87895500D01*
X107536646Y-87895500D01*
X107721803Y-87856144D01*
X107894730Y-87779151D01*
X107940615Y-87745812D01*
X108006417Y-87722333D01*
X108074472Y-87738157D01*
X108086377Y-87745807D01*
X108132266Y-87779148D01*
X108132270Y-87779151D01*
X108305192Y-87856142D01*
X108305197Y-87856144D01*
X108490354Y-87895500D01*
X108490355Y-87895500D01*
X108679644Y-87895500D01*
X108679646Y-87895500D01*
X108864803Y-87856144D01*
X109037730Y-87779151D01*
X109083614Y-87745813D01*
X109149421Y-87722334D01*
X109217475Y-87738159D01*
X109229386Y-87745814D01*
X109275271Y-87779152D01*
X109448192Y-87856142D01*
X109448197Y-87856144D01*
X109633354Y-87895500D01*
X109633355Y-87895500D01*
X109822644Y-87895500D01*
X109822646Y-87895500D01*
X110007803Y-87856144D01*
X110180730Y-87779151D01*
X110333871Y-87667888D01*
X110460533Y-87527216D01*
X110555179Y-87363284D01*
X110613674Y-87183256D01*
X110633460Y-86995000D01*
X110613674Y-86806744D01*
X110555179Y-86626716D01*
X110460533Y-86462784D01*
X110333871Y-86322112D01*
X110333870Y-86322111D01*
X110180734Y-86210851D01*
X110180729Y-86210848D01*
X110007807Y-86133857D01*
X110007802Y-86133855D01*
X109839112Y-86098000D01*
X109822646Y-86094500D01*
X109633354Y-86094500D01*
X109628061Y-86095624D01*
X109558397Y-86090307D01*
X109502664Y-86048169D01*
X109478560Y-85982589D01*
X109478963Y-85961381D01*
X109490460Y-85852000D01*
X109477160Y-85725459D01*
X109489730Y-85656732D01*
X109537462Y-85605708D01*
X109600481Y-85588500D01*
X114979257Y-85588500D01*
X114994877Y-85590224D01*
X114994904Y-85589939D01*
X115002660Y-85590671D01*
X115002667Y-85590673D01*
X115071814Y-85588500D01*
X115101350Y-85588500D01*
X115108228Y-85587630D01*
X115114041Y-85587172D01*
X115160627Y-85585709D01*
X115179869Y-85580117D01*
X115198912Y-85576174D01*
X115218792Y-85573664D01*
X115262122Y-85556507D01*
X115267646Y-85554617D01*
X115271396Y-85553527D01*
X115312390Y-85541618D01*
X115329629Y-85531422D01*
X115347103Y-85522862D01*
X115365727Y-85515488D01*
X115365727Y-85515487D01*
X115365732Y-85515486D01*
X115403449Y-85488082D01*
X115408305Y-85484892D01*
X115448420Y-85461170D01*
X115462589Y-85446999D01*
X115477379Y-85434368D01*
X115493587Y-85422594D01*
X115523299Y-85386676D01*
X115527212Y-85382376D01*
X116808771Y-84100819D01*
X116870095Y-84067334D01*
X116896453Y-84064500D01*
X118437700Y-84064500D01*
X118504739Y-84084185D01*
X118550494Y-84136989D01*
X118561700Y-84188500D01*
X118561700Y-86973455D01*
X118559975Y-86989072D01*
X118560261Y-86989099D01*
X118559526Y-86996865D01*
X118561700Y-87066014D01*
X118561700Y-87095543D01*
X118561701Y-87095560D01*
X118562568Y-87102431D01*
X118563026Y-87108250D01*
X118564490Y-87154824D01*
X118564491Y-87154827D01*
X118570080Y-87174067D01*
X118574024Y-87193111D01*
X118576536Y-87212992D01*
X118584260Y-87232500D01*
X118593690Y-87256319D01*
X118595582Y-87261847D01*
X118608582Y-87306590D01*
X118614361Y-87316363D01*
X118618780Y-87323834D01*
X118627338Y-87341303D01*
X118634714Y-87359932D01*
X118662098Y-87397623D01*
X118665306Y-87402507D01*
X118689027Y-87442616D01*
X118689033Y-87442624D01*
X118703190Y-87456780D01*
X118715828Y-87471576D01*
X118727605Y-87487786D01*
X118727606Y-87487787D01*
X118763509Y-87517488D01*
X118767820Y-87521410D01*
X119927095Y-88680686D01*
X120297273Y-89050864D01*
X120330758Y-89112187D01*
X120327523Y-89176863D01*
X120272327Y-89346740D01*
X120272326Y-89346744D01*
X120252540Y-89535000D01*
X120272326Y-89723256D01*
X120272327Y-89723259D01*
X120330818Y-89903277D01*
X120330821Y-89903284D01*
X120425467Y-90067216D01*
X120552128Y-90207888D01*
X120552129Y-90207888D01*
X120705265Y-90319148D01*
X120705270Y-90319151D01*
X120878192Y-90396142D01*
X120878197Y-90396144D01*
X121063354Y-90435500D01*
X121063355Y-90435500D01*
X121252644Y-90435500D01*
X121252646Y-90435500D01*
X121437803Y-90396144D01*
X121610730Y-90319151D01*
X121763871Y-90207888D01*
X121890533Y-90067216D01*
X121985179Y-89903284D01*
X122043674Y-89723256D01*
X122063460Y-89535000D01*
X122043674Y-89346744D01*
X121985179Y-89166716D01*
X121890533Y-89002784D01*
X121781632Y-88881837D01*
X121758491Y-88844515D01*
X121751507Y-88826875D01*
X121749620Y-88821363D01*
X121736618Y-88776610D01*
X121736616Y-88776606D01*
X121726423Y-88759371D01*
X121717861Y-88741894D01*
X121710487Y-88723270D01*
X121710486Y-88723268D01*
X121683079Y-88685545D01*
X121679888Y-88680686D01*
X121656172Y-88640583D01*
X121656165Y-88640574D01*
X121642006Y-88626415D01*
X121629368Y-88611619D01*
X121617594Y-88595413D01*
X121599272Y-88580256D01*
X121581688Y-88565709D01*
X121577376Y-88561786D01*
X119849019Y-86833428D01*
X119815534Y-86772105D01*
X119812700Y-86745747D01*
X119812700Y-86262508D01*
X131377364Y-86262508D01*
X131383986Y-86266668D01*
X131383989Y-86266670D01*
X131540857Y-86321560D01*
X131705997Y-86340167D01*
X131706003Y-86340167D01*
X131871140Y-86321560D01*
X132028015Y-86266667D01*
X132034633Y-86262508D01*
X132902364Y-86262508D01*
X132908986Y-86266668D01*
X132908989Y-86266670D01*
X133065857Y-86321560D01*
X133230997Y-86340167D01*
X133231003Y-86340167D01*
X133396140Y-86321560D01*
X133553015Y-86266667D01*
X133559633Y-86262508D01*
X133231001Y-85933875D01*
X133231000Y-85933875D01*
X132902364Y-86262508D01*
X132034633Y-86262508D01*
X131706001Y-85933875D01*
X131706000Y-85933875D01*
X131377364Y-86262508D01*
X119812700Y-86262508D01*
X119812700Y-85500008D01*
X130614864Y-85500008D01*
X130621486Y-85504168D01*
X130621489Y-85504170D01*
X130778357Y-85559060D01*
X130863508Y-85568654D01*
X130927922Y-85595720D01*
X130967477Y-85653315D01*
X130972845Y-85677990D01*
X130982439Y-85763140D01*
X131037333Y-85920018D01*
X131041489Y-85926634D01*
X131337632Y-85630492D01*
X131606000Y-85630492D01*
X131644197Y-85683065D01*
X131690162Y-85698000D01*
X131721838Y-85698000D01*
X131767803Y-85683065D01*
X131806000Y-85630492D01*
X131806000Y-85598000D01*
X132041875Y-85598000D01*
X132370508Y-85926633D01*
X132376921Y-85925911D01*
X132415843Y-85891487D01*
X132484897Y-85880841D01*
X132548744Y-85909219D01*
X132563545Y-85926302D01*
X132566489Y-85926634D01*
X132862632Y-85630492D01*
X133131000Y-85630492D01*
X133169197Y-85683065D01*
X133215162Y-85698000D01*
X133246838Y-85698000D01*
X133292803Y-85683065D01*
X133331000Y-85630492D01*
X133331000Y-85598000D01*
X133566875Y-85598000D01*
X133895508Y-85926633D01*
X133899667Y-85920015D01*
X133954560Y-85763140D01*
X133964154Y-85677991D01*
X133991220Y-85613577D01*
X134048815Y-85574022D01*
X134073491Y-85568654D01*
X134158640Y-85559060D01*
X134315515Y-85504167D01*
X134322133Y-85500008D01*
X133993499Y-85171375D01*
X133993498Y-85171375D01*
X133611662Y-85553213D01*
X133566875Y-85598000D01*
X133331000Y-85598000D01*
X133331000Y-85565508D01*
X133292803Y-85512935D01*
X133246838Y-85498000D01*
X133215162Y-85498000D01*
X133169197Y-85512935D01*
X133131000Y-85565508D01*
X133131000Y-85630492D01*
X132862632Y-85630492D01*
X132895124Y-85598000D01*
X132850338Y-85553212D01*
X132468500Y-85171375D01*
X132041875Y-85598000D01*
X131806000Y-85598000D01*
X131806000Y-85565508D01*
X131767803Y-85512935D01*
X131721838Y-85498000D01*
X131690162Y-85498000D01*
X131644197Y-85512935D01*
X131606000Y-85565508D01*
X131606000Y-85630492D01*
X131337632Y-85630492D01*
X131370124Y-85598000D01*
X131325338Y-85553212D01*
X130943501Y-85171375D01*
X130943500Y-85171375D01*
X130614864Y-85500008D01*
X119812700Y-85500008D01*
X119812700Y-84835502D01*
X130201333Y-84835502D01*
X130219939Y-85000640D01*
X130274833Y-85157518D01*
X130278989Y-85164133D01*
X130278990Y-85164134D01*
X130575130Y-84867992D01*
X130843500Y-84867992D01*
X130881697Y-84920565D01*
X130927662Y-84935500D01*
X130959338Y-84935500D01*
X131005303Y-84920565D01*
X131043500Y-84867992D01*
X131043500Y-84835500D01*
X131279375Y-84835500D01*
X131705999Y-85262124D01*
X132087838Y-84880287D01*
X132100132Y-84867992D01*
X132368500Y-84867992D01*
X132406697Y-84920565D01*
X132452662Y-84935500D01*
X132484338Y-84935500D01*
X132530303Y-84920565D01*
X132568500Y-84867992D01*
X132568500Y-84835500D01*
X132804375Y-84835500D01*
X132849162Y-84880287D01*
X133231000Y-85262124D01*
X133612838Y-84880287D01*
X133625133Y-84867992D01*
X133893500Y-84867992D01*
X133931697Y-84920565D01*
X133977662Y-84935500D01*
X134009338Y-84935500D01*
X134055303Y-84920565D01*
X134093500Y-84867992D01*
X134093500Y-84835500D01*
X134329375Y-84835500D01*
X134658008Y-85164133D01*
X134662167Y-85157515D01*
X134717060Y-85000640D01*
X134735667Y-84835502D01*
X134735667Y-84835497D01*
X134717060Y-84670357D01*
X134662170Y-84513489D01*
X134662168Y-84513486D01*
X134658008Y-84506864D01*
X134329375Y-84835499D01*
X134329375Y-84835500D01*
X134093500Y-84835500D01*
X134093500Y-84803008D01*
X134055303Y-84750435D01*
X134009338Y-84735500D01*
X133977662Y-84735500D01*
X133931697Y-84750435D01*
X133893500Y-84803008D01*
X133893500Y-84867992D01*
X133625133Y-84867992D01*
X133657624Y-84835500D01*
X133657624Y-84835499D01*
X133231000Y-84408875D01*
X132804375Y-84835500D01*
X132568500Y-84835500D01*
X132568500Y-84803008D01*
X132530303Y-84750435D01*
X132484338Y-84735500D01*
X132452662Y-84735500D01*
X132406697Y-84750435D01*
X132368500Y-84803008D01*
X132368500Y-84867992D01*
X132100132Y-84867992D01*
X132132623Y-84835498D01*
X131706000Y-84408875D01*
X131279375Y-84835500D01*
X131043500Y-84835500D01*
X131043500Y-84803008D01*
X131005303Y-84750435D01*
X130959338Y-84735500D01*
X130927662Y-84735500D01*
X130881697Y-84750435D01*
X130843500Y-84803008D01*
X130843500Y-84867992D01*
X130575130Y-84867992D01*
X130607623Y-84835499D01*
X130607624Y-84835498D01*
X130278990Y-84506864D01*
X130278989Y-84506864D01*
X130274831Y-84513483D01*
X130219939Y-84670357D01*
X130201333Y-84835497D01*
X130201333Y-84835502D01*
X119812700Y-84835502D01*
X119812700Y-84137687D01*
X119832385Y-84070648D01*
X119844550Y-84054715D01*
X119868412Y-84028213D01*
X119919733Y-83971216D01*
X120014379Y-83807284D01*
X120072874Y-83627256D01*
X120092660Y-83439000D01*
X120079360Y-83312459D01*
X120091930Y-83243732D01*
X120139662Y-83192708D01*
X120202681Y-83175500D01*
X120913148Y-83175500D01*
X120980187Y-83195185D01*
X121000829Y-83211819D01*
X121211957Y-83422947D01*
X121245442Y-83484270D01*
X121247597Y-83523587D01*
X121243140Y-83566000D01*
X121262926Y-83754256D01*
X121262927Y-83754259D01*
X121321418Y-83934277D01*
X121321421Y-83934284D01*
X121416067Y-84098216D01*
X121542729Y-84238888D01*
X121695865Y-84350148D01*
X121695870Y-84350151D01*
X121868792Y-84427142D01*
X121868797Y-84427144D01*
X122053954Y-84466500D01*
X122053955Y-84466500D01*
X122243244Y-84466500D01*
X122243246Y-84466500D01*
X122428403Y-84427144D01*
X122601330Y-84350151D01*
X122754471Y-84238888D01*
X122815607Y-84170990D01*
X130614864Y-84170990D01*
X130943499Y-84499624D01*
X131325338Y-84117787D01*
X131337633Y-84105492D01*
X131606000Y-84105492D01*
X131644197Y-84158065D01*
X131690162Y-84173000D01*
X131721838Y-84173000D01*
X131767803Y-84158065D01*
X131806000Y-84105492D01*
X131806000Y-84073000D01*
X132041875Y-84073000D01*
X132086662Y-84117787D01*
X132468498Y-84499624D01*
X132850338Y-84117787D01*
X132862633Y-84105492D01*
X133131000Y-84105492D01*
X133169197Y-84158065D01*
X133215162Y-84173000D01*
X133246838Y-84173000D01*
X133292803Y-84158065D01*
X133331000Y-84105492D01*
X133331000Y-84073000D01*
X133566875Y-84073000D01*
X133611662Y-84117787D01*
X133993500Y-84499624D01*
X133993501Y-84499624D01*
X134322134Y-84170989D01*
X134321410Y-84164570D01*
X134286992Y-84125664D01*
X134276339Y-84056612D01*
X134304711Y-83992761D01*
X134321802Y-83977950D01*
X134322133Y-83975008D01*
X133993500Y-83646375D01*
X133566875Y-84073000D01*
X133331000Y-84073000D01*
X133331000Y-84040508D01*
X133292803Y-83987935D01*
X133246838Y-83973000D01*
X133215162Y-83973000D01*
X133169197Y-83987935D01*
X133131000Y-84040508D01*
X133131000Y-84105492D01*
X132862633Y-84105492D01*
X132895124Y-84073000D01*
X132895124Y-84072999D01*
X132468500Y-83646375D01*
X132041875Y-84073000D01*
X131806000Y-84073000D01*
X131806000Y-84040508D01*
X131767803Y-83987935D01*
X131721838Y-83973000D01*
X131690162Y-83973000D01*
X131644197Y-83987935D01*
X131606000Y-84040508D01*
X131606000Y-84105492D01*
X131337633Y-84105492D01*
X131370124Y-84073000D01*
X131370124Y-84072999D01*
X131325338Y-84028213D01*
X130943501Y-83646375D01*
X130943500Y-83646375D01*
X130614864Y-83975008D01*
X130615588Y-83981426D01*
X130650006Y-84020335D01*
X130660657Y-84089388D01*
X130632284Y-84153238D01*
X130615196Y-84168042D01*
X130614864Y-84170990D01*
X122815607Y-84170990D01*
X122881133Y-84098216D01*
X122975779Y-83934284D01*
X123034274Y-83754256D01*
X123054060Y-83566000D01*
X123034274Y-83377744D01*
X123012426Y-83310502D01*
X130201333Y-83310502D01*
X130219939Y-83475640D01*
X130274833Y-83632518D01*
X130278989Y-83639134D01*
X130575131Y-83342992D01*
X130843500Y-83342992D01*
X130881697Y-83395565D01*
X130927662Y-83410500D01*
X130959338Y-83410500D01*
X131005303Y-83395565D01*
X131043500Y-83342992D01*
X131043500Y-83310500D01*
X131279375Y-83310500D01*
X131324162Y-83355287D01*
X131706000Y-83737124D01*
X132087838Y-83355287D01*
X132100133Y-83342992D01*
X132368500Y-83342992D01*
X132406697Y-83395565D01*
X132452662Y-83410500D01*
X132484338Y-83410500D01*
X132530303Y-83395565D01*
X132568500Y-83342992D01*
X132568500Y-83310500D01*
X132804375Y-83310500D01*
X132849162Y-83355287D01*
X133231000Y-83737124D01*
X133612838Y-83355287D01*
X133625133Y-83342992D01*
X133893500Y-83342992D01*
X133931697Y-83395565D01*
X133977662Y-83410500D01*
X134009338Y-83410500D01*
X134055303Y-83395565D01*
X134093500Y-83342992D01*
X134093500Y-83310500D01*
X134329375Y-83310500D01*
X134658008Y-83639133D01*
X134662167Y-83632515D01*
X134717060Y-83475640D01*
X134735667Y-83310502D01*
X134735667Y-83310497D01*
X134717060Y-83145357D01*
X134662170Y-82988489D01*
X134662168Y-82988486D01*
X134658008Y-82981864D01*
X134329375Y-83310499D01*
X134329375Y-83310500D01*
X134093500Y-83310500D01*
X134093500Y-83278008D01*
X134055303Y-83225435D01*
X134009338Y-83210500D01*
X133977662Y-83210500D01*
X133931697Y-83225435D01*
X133893500Y-83278008D01*
X133893500Y-83342992D01*
X133625133Y-83342992D01*
X133657624Y-83310500D01*
X133657624Y-83310499D01*
X133231000Y-82883875D01*
X132804375Y-83310500D01*
X132568500Y-83310500D01*
X132568500Y-83278008D01*
X132530303Y-83225435D01*
X132484338Y-83210500D01*
X132452662Y-83210500D01*
X132406697Y-83225435D01*
X132368500Y-83278008D01*
X132368500Y-83342992D01*
X132100133Y-83342992D01*
X132132624Y-83310500D01*
X132132624Y-83310499D01*
X131706000Y-82883875D01*
X131279375Y-83310500D01*
X131043500Y-83310500D01*
X131043500Y-83278008D01*
X131005303Y-83225435D01*
X130959338Y-83210500D01*
X130927662Y-83210500D01*
X130881697Y-83225435D01*
X130843500Y-83278008D01*
X130843500Y-83342992D01*
X130575131Y-83342992D01*
X130607624Y-83310499D01*
X130278990Y-82981864D01*
X130278989Y-82981864D01*
X130274831Y-82988483D01*
X130219939Y-83145357D01*
X130201333Y-83310497D01*
X130201333Y-83310502D01*
X123012426Y-83310502D01*
X122975779Y-83197716D01*
X122881133Y-83033784D01*
X122754471Y-82893112D01*
X122754470Y-82893111D01*
X122601334Y-82781851D01*
X122601329Y-82781848D01*
X122428407Y-82704857D01*
X122428402Y-82704855D01*
X122279027Y-82673105D01*
X122254338Y-82667857D01*
X122213833Y-82645990D01*
X130614864Y-82645990D01*
X130943499Y-82974624D01*
X131325338Y-82592787D01*
X131337632Y-82580492D01*
X131606000Y-82580492D01*
X131644197Y-82633065D01*
X131690162Y-82648000D01*
X131721838Y-82648000D01*
X131767803Y-82633065D01*
X131806000Y-82580492D01*
X131806000Y-82547998D01*
X132041875Y-82547998D01*
X132086662Y-82592788D01*
X132468498Y-82974624D01*
X132850338Y-82592787D01*
X132862632Y-82580492D01*
X133131000Y-82580492D01*
X133169197Y-82633065D01*
X133215162Y-82648000D01*
X133246838Y-82648000D01*
X133292803Y-82633065D01*
X133331000Y-82580492D01*
X133331000Y-82547998D01*
X133566875Y-82547998D01*
X133611662Y-82592787D01*
X133993500Y-82974624D01*
X133993501Y-82974624D01*
X134322134Y-82645989D01*
X134315518Y-82641833D01*
X134158640Y-82586939D01*
X134073490Y-82577345D01*
X134009076Y-82550278D01*
X133969521Y-82492683D01*
X133964154Y-82468008D01*
X133954560Y-82382857D01*
X133899670Y-82225989D01*
X133899668Y-82225986D01*
X133895508Y-82219365D01*
X133566875Y-82547998D01*
X133331000Y-82547998D01*
X133331000Y-82515508D01*
X133292803Y-82462935D01*
X133246838Y-82448000D01*
X133215162Y-82448000D01*
X133169197Y-82462935D01*
X133131000Y-82515508D01*
X133131000Y-82580492D01*
X132862632Y-82580492D01*
X132895124Y-82547999D01*
X132895124Y-82547998D01*
X132566490Y-82219364D01*
X132560066Y-82220088D01*
X132521170Y-82254502D01*
X132452118Y-82265158D01*
X132388266Y-82236791D01*
X132373453Y-82219696D01*
X132370508Y-82219365D01*
X132041875Y-82547998D01*
X131806000Y-82547998D01*
X131806000Y-82515508D01*
X131767803Y-82462935D01*
X131721838Y-82448000D01*
X131690162Y-82448000D01*
X131644197Y-82462935D01*
X131606000Y-82515508D01*
X131606000Y-82580492D01*
X131337632Y-82580492D01*
X131370124Y-82547999D01*
X131370124Y-82547998D01*
X131041490Y-82219364D01*
X131041489Y-82219364D01*
X131037331Y-82225983D01*
X130982439Y-82382857D01*
X130972845Y-82468009D01*
X130945778Y-82532423D01*
X130888183Y-82571978D01*
X130863509Y-82577345D01*
X130778357Y-82586939D01*
X130621483Y-82641831D01*
X130614864Y-82645989D01*
X130614864Y-82645990D01*
X122213833Y-82645990D01*
X122192857Y-82634666D01*
X122192439Y-82634249D01*
X121965068Y-82406878D01*
X121724403Y-82166212D01*
X121714580Y-82153950D01*
X121714359Y-82154134D01*
X121709386Y-82148123D01*
X121706074Y-82145013D01*
X121658964Y-82100773D01*
X121643678Y-82085487D01*
X121638075Y-82079883D01*
X121632586Y-82075625D01*
X121628161Y-82071847D01*
X121594182Y-82039938D01*
X121594180Y-82039936D01*
X121594177Y-82039935D01*
X121576629Y-82030288D01*
X121560363Y-82019604D01*
X121544533Y-82007325D01*
X121501768Y-81988818D01*
X121496522Y-81986248D01*
X121455693Y-81963803D01*
X121455692Y-81963802D01*
X121436293Y-81958822D01*
X121417881Y-81952518D01*
X121399498Y-81944562D01*
X121399492Y-81944560D01*
X121353474Y-81937272D01*
X121347752Y-81936087D01*
X121302621Y-81924500D01*
X121302619Y-81924500D01*
X121282584Y-81924500D01*
X121263186Y-81922973D01*
X121255762Y-81921797D01*
X121243405Y-81919840D01*
X121243404Y-81919840D01*
X121197016Y-81924225D01*
X121191178Y-81924500D01*
X116492589Y-81924500D01*
X116425550Y-81904815D01*
X116407072Y-81883490D01*
X131377364Y-81883490D01*
X131706000Y-82212124D01*
X131706001Y-82212124D01*
X132034633Y-81883490D01*
X132902364Y-81883490D01*
X133231000Y-82212124D01*
X133231001Y-82212124D01*
X133559634Y-81883489D01*
X133553018Y-81879333D01*
X133396140Y-81824439D01*
X133231003Y-81805833D01*
X133230997Y-81805833D01*
X133065857Y-81824439D01*
X132908983Y-81879331D01*
X132902364Y-81883489D01*
X132902364Y-81883490D01*
X132034633Y-81883490D01*
X132034634Y-81883489D01*
X132028018Y-81879333D01*
X131871140Y-81824439D01*
X131706003Y-81805833D01*
X131705997Y-81805833D01*
X131540857Y-81824439D01*
X131383983Y-81879331D01*
X131377364Y-81883489D01*
X131377364Y-81883490D01*
X116407072Y-81883490D01*
X116379795Y-81852011D01*
X116369851Y-81782853D01*
X116398876Y-81719297D01*
X116400439Y-81717528D01*
X116403451Y-81714183D01*
X116429533Y-81685216D01*
X116524179Y-81521284D01*
X116582674Y-81341256D01*
X116587899Y-81291536D01*
X116614484Y-81226923D01*
X116671781Y-81186939D01*
X116711220Y-81180500D01*
X135743548Y-81180500D01*
X135810587Y-81200185D01*
X135831228Y-81216818D01*
X136245568Y-81631159D01*
X136659197Y-82044788D01*
X136669022Y-82057051D01*
X136669243Y-82056869D01*
X136674214Y-82062878D01*
X136695043Y-82082437D01*
X136724635Y-82110226D01*
X136745529Y-82131120D01*
X136751011Y-82135373D01*
X136755443Y-82139157D01*
X136789418Y-82171062D01*
X136806976Y-82180714D01*
X136823235Y-82191395D01*
X136839064Y-82203673D01*
X136881838Y-82222182D01*
X136887056Y-82224738D01*
X136927908Y-82247197D01*
X136947316Y-82252180D01*
X136965717Y-82258480D01*
X136984104Y-82266437D01*
X137027488Y-82273308D01*
X137030119Y-82273725D01*
X137035839Y-82274909D01*
X137080981Y-82286500D01*
X137101016Y-82286500D01*
X137120414Y-82288026D01*
X137140194Y-82291159D01*
X137140195Y-82291160D01*
X137140195Y-82291159D01*
X137140196Y-82291160D01*
X137186583Y-82286775D01*
X137192422Y-82286500D01*
X138220257Y-82286500D01*
X138235877Y-82288224D01*
X138235904Y-82287939D01*
X138243660Y-82288671D01*
X138243667Y-82288673D01*
X138312814Y-82286500D01*
X138342350Y-82286500D01*
X138349228Y-82285630D01*
X138355041Y-82285172D01*
X138401627Y-82283709D01*
X138420869Y-82278117D01*
X138439912Y-82274174D01*
X138459792Y-82271664D01*
X138503122Y-82254507D01*
X138508646Y-82252617D01*
X138512396Y-82251527D01*
X138553390Y-82239618D01*
X138570629Y-82229422D01*
X138588103Y-82220862D01*
X138606727Y-82213488D01*
X138606727Y-82213487D01*
X138606732Y-82213486D01*
X138644449Y-82186082D01*
X138649305Y-82182892D01*
X138689420Y-82159170D01*
X138703589Y-82144999D01*
X138718379Y-82132368D01*
X138734587Y-82120594D01*
X138764299Y-82084676D01*
X138768212Y-82080376D01*
X139393771Y-81454819D01*
X139455095Y-81421334D01*
X139481453Y-81418500D01*
X139540644Y-81418500D01*
X139540646Y-81418500D01*
X139725803Y-81379144D01*
X139898730Y-81302151D01*
X140051871Y-81190888D01*
X140178533Y-81050216D01*
X140273179Y-80886284D01*
X140331674Y-80706256D01*
X140351460Y-80518000D01*
X140331674Y-80329744D01*
X140273179Y-80149716D01*
X140178533Y-79985784D01*
X140051871Y-79845112D01*
X140051870Y-79845111D01*
X139898734Y-79733851D01*
X139898729Y-79733848D01*
X139725807Y-79656857D01*
X139725802Y-79656855D01*
X139580000Y-79625865D01*
X139540646Y-79617500D01*
X139351354Y-79617500D01*
X139318897Y-79624398D01*
X139166197Y-79656855D01*
X139166192Y-79656857D01*
X138993270Y-79733848D01*
X138993265Y-79733851D01*
X138840129Y-79845111D01*
X138713466Y-79985785D01*
X138664387Y-80070793D01*
X138613820Y-80119008D01*
X138545213Y-80132232D01*
X138480349Y-80106264D01*
X138449613Y-80070793D01*
X138440789Y-80055509D01*
X138400533Y-79985784D01*
X138273871Y-79845112D01*
X138273870Y-79845111D01*
X138120734Y-79733851D01*
X138120729Y-79733848D01*
X137947807Y-79656857D01*
X137947802Y-79656855D01*
X137802000Y-79625865D01*
X137762646Y-79617500D01*
X137762645Y-79617500D01*
X137729254Y-79617500D01*
X137662215Y-79597815D01*
X137641573Y-79581181D01*
X137051605Y-78991212D01*
X137041782Y-78978950D01*
X137041561Y-78979134D01*
X137036588Y-78973123D01*
X137036588Y-78973122D01*
X136986166Y-78925773D01*
X136975374Y-78914981D01*
X136965277Y-78904883D01*
X136959788Y-78900625D01*
X136955363Y-78896847D01*
X136921384Y-78864938D01*
X136921382Y-78864936D01*
X136921379Y-78864935D01*
X136903831Y-78855288D01*
X136887565Y-78844604D01*
X136871735Y-78832325D01*
X136828970Y-78813818D01*
X136823724Y-78811248D01*
X136782895Y-78788803D01*
X136782894Y-78788802D01*
X136763495Y-78783822D01*
X136745083Y-78777518D01*
X136726700Y-78769562D01*
X136726694Y-78769560D01*
X136680676Y-78762272D01*
X136674954Y-78761087D01*
X136629823Y-78749500D01*
X136629821Y-78749500D01*
X136609786Y-78749500D01*
X136590388Y-78747973D01*
X136582964Y-78746797D01*
X136570607Y-78744840D01*
X136570606Y-78744840D01*
X136524218Y-78749225D01*
X136518380Y-78749500D01*
X116077481Y-78749500D01*
X116010442Y-78729815D01*
X115964687Y-78677011D01*
X115954160Y-78612541D01*
X115967460Y-78486000D01*
X115947674Y-78297744D01*
X115889179Y-78117716D01*
X115794533Y-77953784D01*
X115667871Y-77813112D01*
X115667870Y-77813111D01*
X115514734Y-77701851D01*
X115514729Y-77701848D01*
X115341807Y-77624857D01*
X115341802Y-77624855D01*
X115196001Y-77593865D01*
X115156646Y-77585500D01*
X114967354Y-77585500D01*
X114934897Y-77592398D01*
X114782197Y-77624855D01*
X114782192Y-77624857D01*
X114609270Y-77701848D01*
X114609265Y-77701851D01*
X114456129Y-77813111D01*
X114329466Y-77953785D01*
X114234821Y-78117715D01*
X114234818Y-78117722D01*
X114190791Y-78253225D01*
X114151353Y-78310901D01*
X114086995Y-78338099D01*
X114018148Y-78326184D01*
X113985179Y-78302588D01*
X110643819Y-74961227D01*
X110610334Y-74899904D01*
X110607500Y-74873546D01*
X110607500Y-74377742D01*
X110609224Y-74362122D01*
X110608939Y-74362095D01*
X110609673Y-74354333D01*
X110607500Y-74285172D01*
X110607500Y-74255656D01*
X110607500Y-74255650D01*
X110606631Y-74248779D01*
X110606173Y-74242952D01*
X110604710Y-74196373D01*
X110599119Y-74177130D01*
X110595173Y-74158078D01*
X110592664Y-74138208D01*
X110575504Y-74094867D01*
X110573624Y-74089379D01*
X110560618Y-74044610D01*
X110550422Y-74027370D01*
X110541861Y-74009894D01*
X110534487Y-73991270D01*
X110534486Y-73991268D01*
X110507079Y-73953545D01*
X110503888Y-73948686D01*
X110502926Y-73947060D01*
X110482653Y-73912779D01*
X110480172Y-73908583D01*
X110480165Y-73908574D01*
X110466006Y-73894415D01*
X110453368Y-73879619D01*
X110441594Y-73863413D01*
X110437612Y-73860119D01*
X110405688Y-73833709D01*
X110401376Y-73829786D01*
X110164848Y-73593257D01*
X110131363Y-73531934D01*
X110136347Y-73462242D01*
X110145136Y-73443586D01*
X110174179Y-73393284D01*
X110232674Y-73213256D01*
X110252460Y-73025000D01*
X110232674Y-72836744D01*
X110174179Y-72656716D01*
X110079533Y-72492784D01*
X109952871Y-72352112D01*
X109934729Y-72338931D01*
X109799734Y-72240851D01*
X109799729Y-72240848D01*
X109626807Y-72163857D01*
X109626802Y-72163855D01*
X109481000Y-72132865D01*
X109441646Y-72124500D01*
X109252354Y-72124500D01*
X109219897Y-72131398D01*
X109067197Y-72163855D01*
X109067192Y-72163857D01*
X108894270Y-72240848D01*
X108894265Y-72240851D01*
X108741129Y-72352111D01*
X108614466Y-72492785D01*
X108519821Y-72656715D01*
X108519818Y-72656722D01*
X108494356Y-72735088D01*
X108461326Y-72836744D01*
X108441540Y-73025000D01*
X108461326Y-73213256D01*
X108463292Y-73219309D01*
X108519818Y-73393277D01*
X108519819Y-73393279D01*
X108519821Y-73393284D01*
X108614467Y-73557216D01*
X108646919Y-73593257D01*
X108691340Y-73642592D01*
X108721570Y-73705583D01*
X108723129Y-73721668D01*
X108724290Y-73758624D01*
X108724291Y-73758627D01*
X108729880Y-73777867D01*
X108733824Y-73796911D01*
X108736238Y-73816014D01*
X108736336Y-73816791D01*
X108753490Y-73860119D01*
X108755382Y-73865647D01*
X108769892Y-73915589D01*
X108769693Y-73985458D01*
X108731752Y-74044129D01*
X108723701Y-74050503D01*
X108614129Y-74130111D01*
X108487466Y-74270785D01*
X108392821Y-74434715D01*
X108392818Y-74434722D01*
X108334327Y-74614740D01*
X108334326Y-74614744D01*
X108314540Y-74803000D01*
X108334326Y-74991256D01*
X108334327Y-74991259D01*
X108392818Y-75171277D01*
X108392821Y-75171284D01*
X108487467Y-75335216D01*
X108530772Y-75383310D01*
X108562650Y-75418715D01*
X108592880Y-75481706D01*
X108594500Y-75501687D01*
X108594499Y-76244255D01*
X108592776Y-76259872D01*
X108593061Y-76259899D01*
X108592326Y-76267665D01*
X108594500Y-76336814D01*
X108594500Y-76366343D01*
X108594501Y-76366360D01*
X108595368Y-76373231D01*
X108595826Y-76379050D01*
X108597290Y-76425624D01*
X108597291Y-76425627D01*
X108602880Y-76444867D01*
X108606824Y-76463911D01*
X108609336Y-76483792D01*
X108626490Y-76527119D01*
X108628382Y-76532647D01*
X108641381Y-76577388D01*
X108651580Y-76594634D01*
X108660136Y-76612100D01*
X108667514Y-76630732D01*
X108691923Y-76664329D01*
X108694898Y-76668423D01*
X108698106Y-76673307D01*
X108721827Y-76713416D01*
X108721833Y-76713424D01*
X108735990Y-76727580D01*
X108748628Y-76742376D01*
X108760405Y-76758586D01*
X108760406Y-76758587D01*
X108796309Y-76788288D01*
X108800620Y-76792210D01*
X109291770Y-77283360D01*
X109726429Y-77718019D01*
X109759914Y-77779342D01*
X109754930Y-77849034D01*
X109713058Y-77904967D01*
X109647594Y-77929384D01*
X109638748Y-77929700D01*
X103629000Y-77929700D01*
X103628991Y-77929700D01*
X103628990Y-77929701D01*
X103521549Y-77941252D01*
X103521537Y-77941254D01*
X103470027Y-77952460D01*
X103367502Y-77986583D01*
X103367496Y-77986586D01*
X103246462Y-78064371D01*
X103246451Y-78064379D01*
X103193659Y-78110123D01*
X103099433Y-78218864D01*
X103099430Y-78218868D01*
X103039664Y-78349734D01*
X103019978Y-78416775D01*
X103019976Y-78416780D01*
X102999500Y-78559201D01*
X102999500Y-79389500D01*
X102979815Y-79456539D01*
X102927011Y-79502294D01*
X102875500Y-79513500D01*
X100901705Y-79513500D01*
X100883735Y-79512191D01*
X100859972Y-79508710D01*
X100814533Y-79512686D01*
X100807931Y-79513264D01*
X100802530Y-79513500D01*
X100794289Y-79513500D01*
X100772579Y-79516037D01*
X100761724Y-79517306D01*
X100746419Y-79518645D01*
X100685199Y-79524001D01*
X100678132Y-79525460D01*
X100678120Y-79525404D01*
X100670763Y-79527035D01*
X100670777Y-79527092D01*
X100663743Y-79528759D01*
X100591575Y-79555025D01*
X100518665Y-79579185D01*
X100512126Y-79582235D01*
X100512101Y-79582183D01*
X100505308Y-79585471D01*
X100505334Y-79585522D01*
X100498884Y-79588761D01*
X100434716Y-79630964D01*
X100369347Y-79671285D01*
X100363677Y-79675769D01*
X100363641Y-79675723D01*
X100357798Y-79680484D01*
X100357835Y-79680528D01*
X100352310Y-79685164D01*
X100352304Y-79685169D01*
X100352304Y-79685170D01*
X100306378Y-79733848D01*
X100299614Y-79741017D01*
X99770181Y-80270450D01*
X99708858Y-80303935D01*
X99639166Y-80298951D01*
X99583233Y-80257079D01*
X99558816Y-80191615D01*
X99558500Y-80182769D01*
X99558500Y-79382049D01*
X99578185Y-79315010D01*
X99630989Y-79269255D01*
X99656720Y-79260759D01*
X99662643Y-79259500D01*
X99662646Y-79259500D01*
X99847803Y-79220144D01*
X100020730Y-79143151D01*
X100173871Y-79031888D01*
X100300533Y-78891216D01*
X100395179Y-78727284D01*
X100453674Y-78547256D01*
X100473460Y-78359000D01*
X100453674Y-78170744D01*
X100395179Y-77990716D01*
X100300533Y-77826784D01*
X100173871Y-77686112D01*
X100163035Y-77678239D01*
X100120370Y-77622908D01*
X100114392Y-77553294D01*
X100146999Y-77491500D01*
X100207839Y-77457144D01*
X100236583Y-77455546D01*
X100236583Y-77454000D01*
X100374448Y-77454000D01*
X100374455Y-77454000D01*
X100504211Y-77438834D01*
X100668084Y-77379189D01*
X100813784Y-77283360D01*
X100933458Y-77156513D01*
X101020653Y-77005487D01*
X101070668Y-76838423D01*
X101075721Y-76751671D01*
X101611192Y-76751671D01*
X101626487Y-76838418D01*
X101641474Y-76923412D01*
X101710547Y-77083539D01*
X101814685Y-77223422D01*
X101814686Y-77223423D01*
X101814688Y-77223425D01*
X101886118Y-77283361D01*
X101948275Y-77335517D01*
X102104116Y-77413783D01*
X102273805Y-77454000D01*
X102273807Y-77454000D01*
X102404448Y-77454000D01*
X102404455Y-77454000D01*
X102534211Y-77438834D01*
X102698084Y-77379189D01*
X102843784Y-77283360D01*
X102963458Y-77156513D01*
X103050653Y-77005487D01*
X103100668Y-76838423D01*
X103110808Y-76664329D01*
X103080526Y-76492588D01*
X103011453Y-76332461D01*
X102907315Y-76192578D01*
X102907312Y-76192576D01*
X102907311Y-76192574D01*
X102773725Y-76080483D01*
X102773723Y-76080482D01*
X102617887Y-76002218D01*
X102617885Y-76002217D01*
X102617884Y-76002217D01*
X102448195Y-75962000D01*
X102317545Y-75962000D01*
X102216623Y-75973795D01*
X102187787Y-75977166D01*
X102187785Y-75977167D01*
X102023917Y-76036810D01*
X102023913Y-76036812D01*
X101878218Y-76132637D01*
X101878217Y-76132638D01*
X101758543Y-76259485D01*
X101758539Y-76259490D01*
X101671347Y-76410511D01*
X101621333Y-76577573D01*
X101621331Y-76577581D01*
X101611192Y-76751670D01*
X101611192Y-76751671D01*
X101075721Y-76751671D01*
X101080808Y-76664329D01*
X101050526Y-76492588D01*
X100981453Y-76332461D01*
X100877315Y-76192578D01*
X100877312Y-76192576D01*
X100877311Y-76192574D01*
X100743725Y-76080483D01*
X100743723Y-76080482D01*
X100587887Y-76002218D01*
X100587885Y-76002217D01*
X100587884Y-76002217D01*
X100418195Y-75962000D01*
X100287545Y-75962000D01*
X100186623Y-75973795D01*
X100157787Y-75977166D01*
X100157785Y-75977167D01*
X99993917Y-76036810D01*
X99993913Y-76036812D01*
X99848218Y-76132637D01*
X99848217Y-76132638D01*
X99728543Y-76259485D01*
X99728539Y-76259490D01*
X99641347Y-76410511D01*
X99591333Y-76577573D01*
X99591331Y-76577581D01*
X99581192Y-76751670D01*
X99581192Y-76751671D01*
X99596487Y-76838418D01*
X99611474Y-76923412D01*
X99680547Y-77083539D01*
X99784685Y-77223422D01*
X99784689Y-77223425D01*
X99820304Y-77253310D01*
X99859006Y-77311481D01*
X99860114Y-77381342D01*
X99823277Y-77440712D01*
X99760190Y-77470741D01*
X99714821Y-77469590D01*
X99662646Y-77458500D01*
X99473354Y-77458500D01*
X99440897Y-77465398D01*
X99288197Y-77497855D01*
X99288192Y-77497857D01*
X99115270Y-77574848D01*
X99115265Y-77574851D01*
X98962129Y-77686111D01*
X98835466Y-77826785D01*
X98740821Y-77990715D01*
X98740818Y-77990722D01*
X98682327Y-78170740D01*
X98682326Y-78170744D01*
X98673657Y-78253225D01*
X98664679Y-78338649D01*
X98638094Y-78403263D01*
X98629039Y-78413368D01*
X98549208Y-78493199D01*
X98536951Y-78503020D01*
X98537134Y-78503241D01*
X98531123Y-78508213D01*
X98483772Y-78558636D01*
X98462889Y-78579519D01*
X98462877Y-78579532D01*
X98458621Y-78585017D01*
X98454836Y-78589447D01*
X98431895Y-78613878D01*
X98371656Y-78649275D01*
X98301842Y-78646485D01*
X98244619Y-78606394D01*
X98218155Y-78541729D01*
X98217500Y-78528998D01*
X98217500Y-72203763D01*
X99745787Y-72203763D01*
X99775413Y-72473013D01*
X99775415Y-72473024D01*
X99823440Y-72656722D01*
X99843928Y-72735088D01*
X99949870Y-72984390D01*
X100021998Y-73102575D01*
X100090979Y-73215605D01*
X100090986Y-73215615D01*
X100264253Y-73423819D01*
X100264259Y-73423824D01*
X100369240Y-73517887D01*
X100465998Y-73604582D01*
X100691910Y-73754044D01*
X100937176Y-73869020D01*
X100937183Y-73869022D01*
X100937185Y-73869023D01*
X101196557Y-73947057D01*
X101196564Y-73947058D01*
X101196569Y-73947060D01*
X101464561Y-73986500D01*
X101464566Y-73986500D01*
X101667636Y-73986500D01*
X101719133Y-73982730D01*
X101870156Y-73971677D01*
X101982758Y-73946593D01*
X102134546Y-73912782D01*
X102134548Y-73912781D01*
X102134553Y-73912780D01*
X102387558Y-73816014D01*
X102623777Y-73683441D01*
X102838177Y-73517888D01*
X103026186Y-73322881D01*
X103183799Y-73102579D01*
X103257787Y-72958669D01*
X103307649Y-72861690D01*
X103307651Y-72861684D01*
X103307656Y-72861675D01*
X103395118Y-72605305D01*
X103444319Y-72338933D01*
X103454212Y-72068235D01*
X103424586Y-71798982D01*
X103356072Y-71536912D01*
X103250130Y-71287610D01*
X103109018Y-71056390D01*
X103071471Y-71011272D01*
X102935746Y-70848180D01*
X102935740Y-70848175D01*
X102734002Y-70667418D01*
X102508092Y-70517957D01*
X102504875Y-70516449D01*
X102262824Y-70402980D01*
X102262819Y-70402978D01*
X102262814Y-70402976D01*
X102003442Y-70324942D01*
X102003428Y-70324939D01*
X101887791Y-70307921D01*
X101735439Y-70285500D01*
X101532369Y-70285500D01*
X101532364Y-70285500D01*
X101329844Y-70300323D01*
X101329831Y-70300325D01*
X101065453Y-70359217D01*
X101065446Y-70359220D01*
X100812439Y-70455987D01*
X100576226Y-70588557D01*
X100361822Y-70754112D01*
X100173822Y-70949109D01*
X100173816Y-70949116D01*
X100016202Y-71169419D01*
X100016199Y-71169424D01*
X99892350Y-71410309D01*
X99892343Y-71410327D01*
X99804884Y-71666685D01*
X99804881Y-71666699D01*
X99755681Y-71933068D01*
X99755680Y-71933075D01*
X99745787Y-72203763D01*
X98217500Y-72203763D01*
X98217500Y-70994877D01*
X98217613Y-70991133D01*
X98227149Y-70833481D01*
X98233601Y-70726797D01*
X98234505Y-70719365D01*
X98281901Y-70460739D01*
X98283691Y-70453473D01*
X98361918Y-70202432D01*
X98364569Y-70195445D01*
X98467132Y-69967558D01*
X98472486Y-69955662D01*
X98475956Y-69949049D01*
X98611993Y-69724019D01*
X98616236Y-69717872D01*
X98778406Y-69510877D01*
X98783350Y-69505296D01*
X98969296Y-69319350D01*
X98974877Y-69314406D01*
X99181872Y-69152236D01*
X99188019Y-69147993D01*
X99413049Y-69011956D01*
X99419662Y-69008486D01*
X99659443Y-68900569D01*
X99666432Y-68897918D01*
X99917473Y-68819691D01*
X99924739Y-68817901D01*
X100183365Y-68770505D01*
X100190797Y-68769601D01*
X100391717Y-68757448D01*
X100455134Y-68753613D01*
X100458878Y-68753500D01*
X100504595Y-68753500D01*
X118193500Y-68753500D01*
X118260539Y-68773185D01*
G37*
%TD.AperFunction*%
%TA.AperFunction,Conductor*%
G36*
X110692703Y-78684739D02*
G01*
X110699181Y-78690771D01*
X113545194Y-81536784D01*
X113555019Y-81549048D01*
X113555240Y-81548866D01*
X113560210Y-81554873D01*
X113560213Y-81554876D01*
X113560214Y-81554877D01*
X113610651Y-81602241D01*
X113631530Y-81623120D01*
X113637004Y-81627366D01*
X113641442Y-81631156D01*
X113675418Y-81663062D01*
X113692973Y-81672713D01*
X113709231Y-81683392D01*
X113725064Y-81695674D01*
X113732492Y-81698888D01*
X113767837Y-81714183D01*
X113773081Y-81716752D01*
X113813908Y-81739197D01*
X113833312Y-81744179D01*
X113851710Y-81750478D01*
X113870105Y-81758438D01*
X113916129Y-81765726D01*
X113921832Y-81766907D01*
X113966981Y-81778500D01*
X113987016Y-81778500D01*
X114006413Y-81780026D01*
X114026196Y-81783160D01*
X114072583Y-81778775D01*
X114078422Y-81778500D01*
X114993252Y-81778500D01*
X115060291Y-81798185D01*
X115085400Y-81819526D01*
X115089239Y-81823789D01*
X115091129Y-81825888D01*
X115138986Y-81860658D01*
X115158082Y-81874532D01*
X115200748Y-81929861D01*
X115206727Y-81999475D01*
X115174122Y-82061270D01*
X115172878Y-82062531D01*
X115169416Y-82065993D01*
X115154624Y-82078627D01*
X115138414Y-82090404D01*
X115138411Y-82090407D01*
X115108710Y-82126309D01*
X115104777Y-82130631D01*
X114161728Y-83073681D01*
X114100405Y-83107166D01*
X114074047Y-83110000D01*
X114014854Y-83110000D01*
X113982397Y-83116898D01*
X113829697Y-83149355D01*
X113829692Y-83149357D01*
X113656770Y-83226348D01*
X113656765Y-83226351D01*
X113503629Y-83337611D01*
X113376966Y-83478285D01*
X113282321Y-83642215D01*
X113282318Y-83642222D01*
X113226318Y-83814574D01*
X113223826Y-83822244D01*
X113204040Y-84010500D01*
X113223826Y-84198756D01*
X113223826Y-84198758D01*
X113224014Y-84200539D01*
X113211444Y-84269268D01*
X113163712Y-84320292D01*
X113100693Y-84337500D01*
X108641453Y-84337500D01*
X108574414Y-84317815D01*
X108553772Y-84301181D01*
X106291803Y-82039212D01*
X106281980Y-82026950D01*
X106281759Y-82027134D01*
X106276786Y-82021123D01*
X106257926Y-82003412D01*
X106226364Y-81973773D01*
X106211413Y-81958822D01*
X106205475Y-81952883D01*
X106199986Y-81948625D01*
X106195561Y-81944847D01*
X106161582Y-81912938D01*
X106161580Y-81912936D01*
X106161577Y-81912935D01*
X106144029Y-81903288D01*
X106127763Y-81892604D01*
X106111936Y-81880327D01*
X106111935Y-81880326D01*
X106111933Y-81880325D01*
X106069168Y-81861818D01*
X106063922Y-81859248D01*
X106023093Y-81836803D01*
X106023092Y-81836802D01*
X106003693Y-81831822D01*
X105985281Y-81825518D01*
X105966898Y-81817562D01*
X105966892Y-81817560D01*
X105920874Y-81810272D01*
X105915152Y-81809087D01*
X105870021Y-81797500D01*
X105870019Y-81797500D01*
X105849984Y-81797500D01*
X105830586Y-81795973D01*
X105823162Y-81794797D01*
X105810805Y-81792840D01*
X105810804Y-81792840D01*
X105764416Y-81797225D01*
X105758578Y-81797500D01*
X105097748Y-81797500D01*
X105030709Y-81777815D01*
X105005600Y-81756474D01*
X104999873Y-81750114D01*
X104999872Y-81750113D01*
X104999871Y-81750112D01*
X104880059Y-81663064D01*
X104867884Y-81654218D01*
X104825218Y-81598888D01*
X104819239Y-81529275D01*
X104851845Y-81467480D01*
X104912683Y-81433123D01*
X104940769Y-81429900D01*
X109857990Y-81429900D01*
X109858000Y-81429900D01*
X109965456Y-81418347D01*
X110016967Y-81407141D01*
X110055617Y-81394277D01*
X110119497Y-81373016D01*
X110119501Y-81373013D01*
X110119504Y-81373013D01*
X110240543Y-81295225D01*
X110293347Y-81249470D01*
X110387567Y-81140736D01*
X110447338Y-81009859D01*
X110467023Y-80942820D01*
X110467024Y-80942816D01*
X110487500Y-80800400D01*
X110487500Y-80438800D01*
X110475947Y-80331344D01*
X110464741Y-80279833D01*
X110455644Y-80252500D01*
X110430616Y-80177302D01*
X110430613Y-80177296D01*
X110405648Y-80138450D01*
X110352825Y-80056257D01*
X110331479Y-80031622D01*
X110307076Y-80003459D01*
X110307072Y-80003456D01*
X110307070Y-80003453D01*
X110198336Y-79909233D01*
X110198333Y-79909231D01*
X110198331Y-79909230D01*
X110067465Y-79849464D01*
X110067460Y-79849462D01*
X110067459Y-79849462D01*
X110044858Y-79842825D01*
X110000425Y-79829778D01*
X110000419Y-79829776D01*
X109914966Y-79817490D01*
X109858000Y-79809300D01*
X109857998Y-79809300D01*
X108884300Y-79809300D01*
X108817261Y-79789615D01*
X108771506Y-79736811D01*
X108760300Y-79685300D01*
X108760300Y-79674300D01*
X108779985Y-79607261D01*
X108832789Y-79561506D01*
X108884300Y-79550300D01*
X109857990Y-79550300D01*
X109858000Y-79550300D01*
X109965456Y-79538747D01*
X110016967Y-79527541D01*
X110063086Y-79512191D01*
X110119497Y-79493416D01*
X110119501Y-79493413D01*
X110119504Y-79493413D01*
X110240543Y-79415625D01*
X110293347Y-79369870D01*
X110387567Y-79261136D01*
X110447338Y-79130259D01*
X110467023Y-79063220D01*
X110467024Y-79063216D01*
X110487500Y-78920800D01*
X110487500Y-78778452D01*
X110507185Y-78711413D01*
X110559989Y-78665658D01*
X110629147Y-78655714D01*
X110692703Y-78684739D01*
G37*
%TD.AperFunction*%
%TD*%
%TA.AperFunction,Conductor*%
%TO.N,/LED_PWR*%
G36*
X150622000Y-97282000D02*
G01*
X146812000Y-97282000D01*
X150622000Y-94488000D01*
X150622000Y-97282000D01*
G37*
%TD.AperFunction*%
%TD*%
M02*
