%TF.GenerationSoftware,KiCad,Pcbnew,7.0.6-0*%
%TF.CreationDate,2023-08-21T23:56:37-04:00*%
%TF.ProjectId,wled-esp32-control-board,776c6564-2d65-4737-9033-322d636f6e74,B*%
%TF.SameCoordinates,Original*%
%TF.FileFunction,Legend,Bot*%
%TF.FilePolarity,Positive*%
%FSLAX46Y46*%
G04 Gerber Fmt 4.6, Leading zero omitted, Abs format (unit mm)*
G04 Created by KiCad (PCBNEW 7.0.6-0) date 2023-08-21 23:56:37*
%MOMM*%
%LPD*%
G01*
G04 APERTURE LIST*
G04 Aperture macros list*
%AMRoundRect*
0 Rectangle with rounded corners*
0 $1 Rounding radius*
0 $2 $3 $4 $5 $6 $7 $8 $9 X,Y pos of 4 corners*
0 Add a 4 corners polygon primitive as box body*
4,1,4,$2,$3,$4,$5,$6,$7,$8,$9,$2,$3,0*
0 Add four circle primitives for the rounded corners*
1,1,$1+$1,$2,$3*
1,1,$1+$1,$4,$5*
1,1,$1+$1,$6,$7*
1,1,$1+$1,$8,$9*
0 Add four rect primitives between the rounded corners*
20,1,$1+$1,$2,$3,$4,$5,0*
20,1,$1+$1,$4,$5,$6,$7,0*
20,1,$1+$1,$6,$7,$8,$9,0*
20,1,$1+$1,$8,$9,$2,$3,0*%
G04 Aperture macros list end*
%ADD10C,0.200000*%
%ADD11C,0.153000*%
%ADD12C,0.010000*%
%ADD13C,0.600000*%
%ADD14O,0.600000X0.950000*%
%ADD15O,2.300000X1.200000*%
%ADD16O,2.000000X1.200000*%
%ADD17R,1.700000X1.700000*%
%ADD18O,1.700000X1.700000*%
%ADD19C,0.991000*%
%ADD20R,1.650000X1.650000*%
%ADD21C,1.650000*%
%ADD22RoundRect,0.250200X-0.649800X-0.649800X0.649800X-0.649800X0.649800X0.649800X-0.649800X0.649800X0*%
%ADD23C,1.800000*%
%ADD24C,3.200000*%
G04 APERTURE END LIST*
D10*
X119681048Y-103484742D02*
X119681048Y-104341885D01*
X119681048Y-104341885D02*
X119728667Y-104513314D01*
X119728667Y-104513314D02*
X119823905Y-104627600D01*
X119823905Y-104627600D02*
X119966762Y-104684742D01*
X119966762Y-104684742D02*
X120062000Y-104684742D01*
X118728667Y-104684742D02*
X119204857Y-104684742D01*
X119204857Y-104684742D02*
X119204857Y-103484742D01*
X117823905Y-104570457D02*
X117871524Y-104627600D01*
X117871524Y-104627600D02*
X118014381Y-104684742D01*
X118014381Y-104684742D02*
X118109619Y-104684742D01*
X118109619Y-104684742D02*
X118252476Y-104627600D01*
X118252476Y-104627600D02*
X118347714Y-104513314D01*
X118347714Y-104513314D02*
X118395333Y-104399028D01*
X118395333Y-104399028D02*
X118442952Y-104170457D01*
X118442952Y-104170457D02*
X118442952Y-103999028D01*
X118442952Y-103999028D02*
X118395333Y-103770457D01*
X118395333Y-103770457D02*
X118347714Y-103656171D01*
X118347714Y-103656171D02*
X118252476Y-103541885D01*
X118252476Y-103541885D02*
X118109619Y-103484742D01*
X118109619Y-103484742D02*
X118014381Y-103484742D01*
X118014381Y-103484742D02*
X117871524Y-103541885D01*
X117871524Y-103541885D02*
X117823905Y-103599028D01*
X117109619Y-103484742D02*
X117109619Y-104341885D01*
X117109619Y-104341885D02*
X117157238Y-104513314D01*
X117157238Y-104513314D02*
X117252476Y-104627600D01*
X117252476Y-104627600D02*
X117395333Y-104684742D01*
X117395333Y-104684742D02*
X117490571Y-104684742D01*
X116157238Y-104684742D02*
X116633428Y-104684742D01*
X116633428Y-104684742D02*
X116633428Y-103484742D01*
X115252476Y-104570457D02*
X115300095Y-104627600D01*
X115300095Y-104627600D02*
X115442952Y-104684742D01*
X115442952Y-104684742D02*
X115538190Y-104684742D01*
X115538190Y-104684742D02*
X115681047Y-104627600D01*
X115681047Y-104627600D02*
X115776285Y-104513314D01*
X115776285Y-104513314D02*
X115823904Y-104399028D01*
X115823904Y-104399028D02*
X115871523Y-104170457D01*
X115871523Y-104170457D02*
X115871523Y-103999028D01*
X115871523Y-103999028D02*
X115823904Y-103770457D01*
X115823904Y-103770457D02*
X115776285Y-103656171D01*
X115776285Y-103656171D02*
X115681047Y-103541885D01*
X115681047Y-103541885D02*
X115538190Y-103484742D01*
X115538190Y-103484742D02*
X115442952Y-103484742D01*
X115442952Y-103484742D02*
X115300095Y-103541885D01*
X115300095Y-103541885D02*
X115252476Y-103599028D01*
X114538190Y-103484742D02*
X114538190Y-104341885D01*
X114538190Y-104341885D02*
X114585809Y-104513314D01*
X114585809Y-104513314D02*
X114681047Y-104627600D01*
X114681047Y-104627600D02*
X114823904Y-104684742D01*
X114823904Y-104684742D02*
X114919142Y-104684742D01*
X113585809Y-104684742D02*
X114061999Y-104684742D01*
X114061999Y-104684742D02*
X114061999Y-103484742D01*
X112681047Y-104570457D02*
X112728666Y-104627600D01*
X112728666Y-104627600D02*
X112871523Y-104684742D01*
X112871523Y-104684742D02*
X112966761Y-104684742D01*
X112966761Y-104684742D02*
X113109618Y-104627600D01*
X113109618Y-104627600D02*
X113204856Y-104513314D01*
X113204856Y-104513314D02*
X113252475Y-104399028D01*
X113252475Y-104399028D02*
X113300094Y-104170457D01*
X113300094Y-104170457D02*
X113300094Y-103999028D01*
X113300094Y-103999028D02*
X113252475Y-103770457D01*
X113252475Y-103770457D02*
X113204856Y-103656171D01*
X113204856Y-103656171D02*
X113109618Y-103541885D01*
X113109618Y-103541885D02*
X112966761Y-103484742D01*
X112966761Y-103484742D02*
X112871523Y-103484742D01*
X112871523Y-103484742D02*
X112728666Y-103541885D01*
X112728666Y-103541885D02*
X112681047Y-103599028D01*
X111966761Y-103484742D02*
X111966761Y-104341885D01*
X111966761Y-104341885D02*
X112014380Y-104513314D01*
X112014380Y-104513314D02*
X112109618Y-104627600D01*
X112109618Y-104627600D02*
X112252475Y-104684742D01*
X112252475Y-104684742D02*
X112347713Y-104684742D01*
X111014380Y-104684742D02*
X111490570Y-104684742D01*
X111490570Y-104684742D02*
X111490570Y-103484742D01*
X110109618Y-104570457D02*
X110157237Y-104627600D01*
X110157237Y-104627600D02*
X110300094Y-104684742D01*
X110300094Y-104684742D02*
X110395332Y-104684742D01*
X110395332Y-104684742D02*
X110538189Y-104627600D01*
X110538189Y-104627600D02*
X110633427Y-104513314D01*
X110633427Y-104513314D02*
X110681046Y-104399028D01*
X110681046Y-104399028D02*
X110728665Y-104170457D01*
X110728665Y-104170457D02*
X110728665Y-103999028D01*
X110728665Y-103999028D02*
X110681046Y-103770457D01*
X110681046Y-103770457D02*
X110633427Y-103656171D01*
X110633427Y-103656171D02*
X110538189Y-103541885D01*
X110538189Y-103541885D02*
X110395332Y-103484742D01*
X110395332Y-103484742D02*
X110300094Y-103484742D01*
X110300094Y-103484742D02*
X110157237Y-103541885D01*
X110157237Y-103541885D02*
X110109618Y-103599028D01*
D11*
X119846104Y-87923663D02*
X119388962Y-87923663D01*
X119742533Y-88923663D02*
X119617533Y-87923663D01*
X118936580Y-88876044D02*
X119018723Y-88923663D01*
X119018723Y-88923663D02*
X119171104Y-88923663D01*
X119171104Y-88923663D02*
X119241342Y-88876044D01*
X119241342Y-88876044D02*
X119267533Y-88780805D01*
X119267533Y-88780805D02*
X119219914Y-88399853D01*
X119219914Y-88399853D02*
X119169914Y-88304615D01*
X119169914Y-88304615D02*
X119087771Y-88256996D01*
X119087771Y-88256996D02*
X118935390Y-88256996D01*
X118935390Y-88256996D02*
X118865152Y-88304615D01*
X118865152Y-88304615D02*
X118838961Y-88399853D01*
X118838961Y-88399853D02*
X118850866Y-88495091D01*
X118850866Y-88495091D02*
X119243723Y-88590329D01*
X118561581Y-88923663D02*
X118478247Y-88256996D01*
X118502057Y-88447472D02*
X118452057Y-88352234D01*
X118452057Y-88352234D02*
X118408009Y-88304615D01*
X118408009Y-88304615D02*
X118325866Y-88256996D01*
X118325866Y-88256996D02*
X118249676Y-88256996D01*
X118066343Y-88923663D02*
X117983009Y-88256996D01*
X117994914Y-88352234D02*
X117950867Y-88304615D01*
X117950867Y-88304615D02*
X117868724Y-88256996D01*
X117868724Y-88256996D02*
X117754438Y-88256996D01*
X117754438Y-88256996D02*
X117684200Y-88304615D01*
X117684200Y-88304615D02*
X117658009Y-88399853D01*
X117658009Y-88399853D02*
X117723486Y-88923663D01*
X117658009Y-88399853D02*
X117608009Y-88304615D01*
X117608009Y-88304615D02*
X117525867Y-88256996D01*
X117525867Y-88256996D02*
X117411581Y-88256996D01*
X117411581Y-88256996D02*
X117341343Y-88304615D01*
X117341343Y-88304615D02*
X117315152Y-88399853D01*
X117315152Y-88399853D02*
X117380628Y-88923663D01*
X116999676Y-88923663D02*
X116916342Y-88256996D01*
X116874676Y-87923663D02*
X116918723Y-87971282D01*
X116918723Y-87971282D02*
X116886580Y-88018901D01*
X116886580Y-88018901D02*
X116842533Y-87971282D01*
X116842533Y-87971282D02*
X116874676Y-87923663D01*
X116874676Y-87923663D02*
X116886580Y-88018901D01*
X116535390Y-88256996D02*
X116618724Y-88923663D01*
X116547295Y-88352234D02*
X116503248Y-88304615D01*
X116503248Y-88304615D02*
X116421105Y-88256996D01*
X116421105Y-88256996D02*
X116306819Y-88256996D01*
X116306819Y-88256996D02*
X116236581Y-88304615D01*
X116236581Y-88304615D02*
X116210390Y-88399853D01*
X116210390Y-88399853D02*
X116275867Y-88923663D01*
X115552057Y-88923663D02*
X115486580Y-88399853D01*
X115486580Y-88399853D02*
X115512771Y-88304615D01*
X115512771Y-88304615D02*
X115583009Y-88256996D01*
X115583009Y-88256996D02*
X115735390Y-88256996D01*
X115735390Y-88256996D02*
X115817533Y-88304615D01*
X115546104Y-88876044D02*
X115628247Y-88923663D01*
X115628247Y-88923663D02*
X115818723Y-88923663D01*
X115818723Y-88923663D02*
X115888961Y-88876044D01*
X115888961Y-88876044D02*
X115915152Y-88780805D01*
X115915152Y-88780805D02*
X115903247Y-88685567D01*
X115903247Y-88685567D02*
X115853247Y-88590329D01*
X115853247Y-88590329D02*
X115771104Y-88542710D01*
X115771104Y-88542710D02*
X115580628Y-88542710D01*
X115580628Y-88542710D02*
X115498485Y-88495091D01*
X115056818Y-88923663D02*
X115127056Y-88876044D01*
X115127056Y-88876044D02*
X115153247Y-88780805D01*
X115153247Y-88780805D02*
X115046104Y-87923663D01*
X113810389Y-88399853D02*
X113702056Y-88447472D01*
X113702056Y-88447472D02*
X113669913Y-88495091D01*
X113669913Y-88495091D02*
X113643722Y-88590329D01*
X113643722Y-88590329D02*
X113661579Y-88733186D01*
X113661579Y-88733186D02*
X113711579Y-88828424D01*
X113711579Y-88828424D02*
X113755627Y-88876044D01*
X113755627Y-88876044D02*
X113837770Y-88923663D01*
X113837770Y-88923663D02*
X114142532Y-88923663D01*
X114142532Y-88923663D02*
X114017532Y-87923663D01*
X114017532Y-87923663D02*
X113750865Y-87923663D01*
X113750865Y-87923663D02*
X113680627Y-87971282D01*
X113680627Y-87971282D02*
X113648484Y-88018901D01*
X113648484Y-88018901D02*
X113622294Y-88114139D01*
X113622294Y-88114139D02*
X113634198Y-88209377D01*
X113634198Y-88209377D02*
X113684198Y-88304615D01*
X113684198Y-88304615D02*
X113728246Y-88352234D01*
X113728246Y-88352234D02*
X113810389Y-88399853D01*
X113810389Y-88399853D02*
X114077056Y-88399853D01*
X113228246Y-88923663D02*
X113298484Y-88876044D01*
X113298484Y-88876044D02*
X113324675Y-88780805D01*
X113324675Y-88780805D02*
X113217532Y-87923663D01*
X112809198Y-88923663D02*
X112879436Y-88876044D01*
X112879436Y-88876044D02*
X112911579Y-88828424D01*
X112911579Y-88828424D02*
X112937769Y-88733186D01*
X112937769Y-88733186D02*
X112902055Y-88447472D01*
X112902055Y-88447472D02*
X112852055Y-88352234D01*
X112852055Y-88352234D02*
X112808008Y-88304615D01*
X112808008Y-88304615D02*
X112725865Y-88256996D01*
X112725865Y-88256996D02*
X112611579Y-88256996D01*
X112611579Y-88256996D02*
X112541341Y-88304615D01*
X112541341Y-88304615D02*
X112509198Y-88352234D01*
X112509198Y-88352234D02*
X112483008Y-88447472D01*
X112483008Y-88447472D02*
X112518722Y-88733186D01*
X112518722Y-88733186D02*
X112568722Y-88828424D01*
X112568722Y-88828424D02*
X112612769Y-88876044D01*
X112612769Y-88876044D02*
X112694912Y-88923663D01*
X112694912Y-88923663D02*
X112809198Y-88923663D01*
X111850864Y-88876044D02*
X111933007Y-88923663D01*
X111933007Y-88923663D02*
X112085388Y-88923663D01*
X112085388Y-88923663D02*
X112155626Y-88876044D01*
X112155626Y-88876044D02*
X112187769Y-88828424D01*
X112187769Y-88828424D02*
X112213959Y-88733186D01*
X112213959Y-88733186D02*
X112178245Y-88447472D01*
X112178245Y-88447472D02*
X112128245Y-88352234D01*
X112128245Y-88352234D02*
X112084198Y-88304615D01*
X112084198Y-88304615D02*
X112002055Y-88256996D01*
X112002055Y-88256996D02*
X111849674Y-88256996D01*
X111849674Y-88256996D02*
X111779436Y-88304615D01*
X111513960Y-88923663D02*
X111388960Y-87923663D01*
X111390150Y-88542710D02*
X111209198Y-88923663D01*
X111125864Y-88256996D02*
X111478245Y-88637948D01*
X110854436Y-88828424D02*
X110822293Y-88876044D01*
X110822293Y-88876044D02*
X110866341Y-88923663D01*
X110866341Y-88923663D02*
X110898484Y-88876044D01*
X110898484Y-88876044D02*
X110854436Y-88828424D01*
X110854436Y-88828424D02*
X110866341Y-88923663D01*
X110788960Y-88304615D02*
X110756817Y-88352234D01*
X110756817Y-88352234D02*
X110800865Y-88399853D01*
X110800865Y-88399853D02*
X110833007Y-88352234D01*
X110833007Y-88352234D02*
X110788960Y-88304615D01*
X110788960Y-88304615D02*
X110800865Y-88399853D01*
X109456817Y-88923663D02*
X109913960Y-88923663D01*
X109685389Y-88923663D02*
X109560389Y-87923663D01*
X109560389Y-87923663D02*
X109654436Y-88066520D01*
X109654436Y-88066520D02*
X109742531Y-88161758D01*
X109742531Y-88161758D02*
X109824674Y-88209377D01*
X108836579Y-87923663D02*
X108760388Y-87923663D01*
X108760388Y-87923663D02*
X108690150Y-87971282D01*
X108690150Y-87971282D02*
X108658007Y-88018901D01*
X108658007Y-88018901D02*
X108631817Y-88114139D01*
X108631817Y-88114139D02*
X108617531Y-88304615D01*
X108617531Y-88304615D02*
X108647293Y-88542710D01*
X108647293Y-88542710D02*
X108709198Y-88733186D01*
X108709198Y-88733186D02*
X108759198Y-88828424D01*
X108759198Y-88828424D02*
X108803245Y-88876044D01*
X108803245Y-88876044D02*
X108885388Y-88923663D01*
X108885388Y-88923663D02*
X108961579Y-88923663D01*
X108961579Y-88923663D02*
X109031817Y-88876044D01*
X109031817Y-88876044D02*
X109063960Y-88828424D01*
X109063960Y-88828424D02*
X109090150Y-88733186D01*
X109090150Y-88733186D02*
X109104436Y-88542710D01*
X109104436Y-88542710D02*
X109074674Y-88304615D01*
X109074674Y-88304615D02*
X109012769Y-88114139D01*
X109012769Y-88114139D02*
X108962769Y-88018901D01*
X108962769Y-88018901D02*
X108918722Y-87971282D01*
X108918722Y-87971282D02*
X108836579Y-87923663D01*
X108354436Y-88637948D02*
X107973483Y-88637948D01*
X108466340Y-88923663D02*
X108074674Y-87923663D01*
X108074674Y-87923663D02*
X107933007Y-88923663D01*
X119731819Y-89533663D02*
X119833009Y-90343186D01*
X119833009Y-90343186D02*
X119806819Y-90438424D01*
X119806819Y-90438424D02*
X119774676Y-90486044D01*
X119774676Y-90486044D02*
X119704438Y-90533663D01*
X119704438Y-90533663D02*
X119552057Y-90533663D01*
X119552057Y-90533663D02*
X119469914Y-90486044D01*
X119469914Y-90486044D02*
X119425866Y-90438424D01*
X119425866Y-90438424D02*
X119375866Y-90343186D01*
X119375866Y-90343186D02*
X119274676Y-89533663D01*
X119050867Y-90486044D02*
X118942533Y-90533663D01*
X118942533Y-90533663D02*
X118752057Y-90533663D01*
X118752057Y-90533663D02*
X118669914Y-90486044D01*
X118669914Y-90486044D02*
X118625867Y-90438424D01*
X118625867Y-90438424D02*
X118575867Y-90343186D01*
X118575867Y-90343186D02*
X118563962Y-90247948D01*
X118563962Y-90247948D02*
X118590152Y-90152710D01*
X118590152Y-90152710D02*
X118622295Y-90105091D01*
X118622295Y-90105091D02*
X118692533Y-90057472D01*
X118692533Y-90057472D02*
X118838962Y-90009853D01*
X118838962Y-90009853D02*
X118909200Y-89962234D01*
X118909200Y-89962234D02*
X118941343Y-89914615D01*
X118941343Y-89914615D02*
X118967533Y-89819377D01*
X118967533Y-89819377D02*
X118955628Y-89724139D01*
X118955628Y-89724139D02*
X118905628Y-89628901D01*
X118905628Y-89628901D02*
X118861581Y-89581282D01*
X118861581Y-89581282D02*
X118779438Y-89533663D01*
X118779438Y-89533663D02*
X118588962Y-89533663D01*
X118588962Y-89533663D02*
X118480628Y-89581282D01*
X117924676Y-90009853D02*
X117816343Y-90057472D01*
X117816343Y-90057472D02*
X117784200Y-90105091D01*
X117784200Y-90105091D02*
X117758009Y-90200329D01*
X117758009Y-90200329D02*
X117775866Y-90343186D01*
X117775866Y-90343186D02*
X117825866Y-90438424D01*
X117825866Y-90438424D02*
X117869914Y-90486044D01*
X117869914Y-90486044D02*
X117952057Y-90533663D01*
X117952057Y-90533663D02*
X118256819Y-90533663D01*
X118256819Y-90533663D02*
X118131819Y-89533663D01*
X118131819Y-89533663D02*
X117865152Y-89533663D01*
X117865152Y-89533663D02*
X117794914Y-89581282D01*
X117794914Y-89581282D02*
X117762771Y-89628901D01*
X117762771Y-89628901D02*
X117736581Y-89724139D01*
X117736581Y-89724139D02*
X117748485Y-89819377D01*
X117748485Y-89819377D02*
X117798485Y-89914615D01*
X117798485Y-89914615D02*
X117842533Y-89962234D01*
X117842533Y-89962234D02*
X117924676Y-90009853D01*
X117924676Y-90009853D02*
X118191343Y-90009853D01*
X117409200Y-90152710D02*
X116799676Y-90152710D01*
X115997295Y-90438424D02*
X116041343Y-90486044D01*
X116041343Y-90486044D02*
X116161581Y-90533663D01*
X116161581Y-90533663D02*
X116237771Y-90533663D01*
X116237771Y-90533663D02*
X116346105Y-90486044D01*
X116346105Y-90486044D02*
X116410390Y-90390805D01*
X116410390Y-90390805D02*
X116436581Y-90295567D01*
X116436581Y-90295567D02*
X116450867Y-90105091D01*
X116450867Y-90105091D02*
X116433009Y-89962234D01*
X116433009Y-89962234D02*
X116371105Y-89771758D01*
X116371105Y-89771758D02*
X116321105Y-89676520D01*
X116321105Y-89676520D02*
X116233009Y-89581282D01*
X116233009Y-89581282D02*
X116112771Y-89533663D01*
X116112771Y-89533663D02*
X116036581Y-89533663D01*
X116036581Y-89533663D02*
X115928247Y-89581282D01*
X115928247Y-89581282D02*
X115896105Y-89628901D01*
X115654438Y-90438424D02*
X115622295Y-90486044D01*
X115622295Y-90486044D02*
X115666343Y-90533663D01*
X115666343Y-90533663D02*
X115698486Y-90486044D01*
X115698486Y-90486044D02*
X115654438Y-90438424D01*
X115654438Y-90438424D02*
X115666343Y-90533663D01*
X115588962Y-89914615D02*
X115556819Y-89962234D01*
X115556819Y-89962234D02*
X115600867Y-90009853D01*
X115600867Y-90009853D02*
X115633009Y-89962234D01*
X115633009Y-89962234D02*
X115588962Y-89914615D01*
X115588962Y-89914615D02*
X115600867Y-90009853D01*
X114600867Y-89628901D02*
X114556819Y-89581282D01*
X114556819Y-89581282D02*
X114474676Y-89533663D01*
X114474676Y-89533663D02*
X114284200Y-89533663D01*
X114284200Y-89533663D02*
X114213962Y-89581282D01*
X114213962Y-89581282D02*
X114181819Y-89628901D01*
X114181819Y-89628901D02*
X114155629Y-89724139D01*
X114155629Y-89724139D02*
X114167533Y-89819377D01*
X114167533Y-89819377D02*
X114223486Y-89962234D01*
X114223486Y-89962234D02*
X114752057Y-90533663D01*
X114752057Y-90533663D02*
X114256819Y-90533663D01*
X113916343Y-90247948D02*
X113535390Y-90247948D01*
X114028247Y-90533663D02*
X113636581Y-89533663D01*
X113636581Y-89533663D02*
X113494914Y-90533663D01*
D10*
G36*
X114329709Y-86768651D02*
G01*
X114348516Y-86815666D01*
X114348516Y-86858807D01*
X114168326Y-86813760D01*
X114186369Y-86768651D01*
X114210529Y-86753552D01*
X114305550Y-86753552D01*
X114329709Y-86768651D01*
G37*
G36*
X118824948Y-87054365D02*
G01*
X118843754Y-87101380D01*
X118843755Y-87158103D01*
X118824947Y-87205119D01*
X118800789Y-87220219D01*
X118667673Y-87220219D01*
X118662802Y-87217174D01*
X118662802Y-87039266D01*
X118800789Y-87039266D01*
X118824948Y-87054365D01*
G37*
G36*
X120062802Y-87563076D02*
G01*
X112572457Y-87563076D01*
X112572457Y-87351121D01*
X112715314Y-87351121D01*
X112751641Y-87401121D01*
X112810420Y-87420219D01*
X112886611Y-87420219D01*
X112912841Y-87411696D01*
X112939611Y-87405019D01*
X113015801Y-87357400D01*
X113015914Y-87357264D01*
X113016087Y-87357221D01*
X113035740Y-87333633D01*
X113046994Y-87320219D01*
X113281849Y-87320219D01*
X113300947Y-87378998D01*
X113350947Y-87415325D01*
X113412751Y-87415325D01*
X113462751Y-87378998D01*
X113481849Y-87320219D01*
X113481849Y-86815667D01*
X113500655Y-86768651D01*
X113524815Y-86753552D01*
X113581741Y-86753552D01*
X113619166Y-86776943D01*
X113624706Y-86783867D01*
X113624706Y-87320219D01*
X113643804Y-87378998D01*
X113693804Y-87415325D01*
X113755608Y-87415325D01*
X113805608Y-87378998D01*
X113824706Y-87320219D01*
X113824706Y-86891647D01*
X113967563Y-86891647D01*
X113968674Y-86895068D01*
X113967802Y-86898560D01*
X113978130Y-86924172D01*
X113986661Y-86950426D01*
X113989570Y-86952540D01*
X113990917Y-86955878D01*
X114014324Y-86970524D01*
X114036661Y-86986753D01*
X114040260Y-86986753D01*
X114043309Y-86988661D01*
X114348516Y-87064962D01*
X114348516Y-87158103D01*
X114329708Y-87205119D01*
X114305550Y-87220219D01*
X114210529Y-87220219D01*
X114158658Y-87187800D01*
X114098691Y-87172842D01*
X114041386Y-87195989D01*
X114008630Y-87248399D01*
X114012936Y-87310052D01*
X114052658Y-87357400D01*
X114128850Y-87405019D01*
X114155615Y-87411695D01*
X114181849Y-87420219D01*
X114334230Y-87420219D01*
X114360460Y-87411696D01*
X114387230Y-87405019D01*
X114463420Y-87357400D01*
X114463533Y-87357264D01*
X114463705Y-87357221D01*
X114483285Y-87333721D01*
X114503143Y-87310052D01*
X114503155Y-87309874D01*
X114503268Y-87309739D01*
X114541364Y-87214500D01*
X114542627Y-87195483D01*
X114548516Y-87177361D01*
X114548516Y-86796409D01*
X114542626Y-86778283D01*
X114541363Y-86759269D01*
X114511436Y-86684454D01*
X114581981Y-86684454D01*
X114618308Y-86734454D01*
X114677087Y-86753552D01*
X114724598Y-86753552D01*
X114762022Y-86776942D01*
X114780217Y-86799686D01*
X114805658Y-86863286D01*
X114805658Y-87320219D01*
X114824756Y-87378998D01*
X114874756Y-87415325D01*
X114936560Y-87415325D01*
X114986560Y-87378998D01*
X115005658Y-87320219D01*
X115005658Y-86684454D01*
X115077219Y-86684454D01*
X115113546Y-86734454D01*
X115172325Y-86753552D01*
X115219836Y-86753552D01*
X115257260Y-86776942D01*
X115275455Y-86799686D01*
X115300896Y-86863286D01*
X115300896Y-87320219D01*
X115319994Y-87378998D01*
X115369994Y-87415325D01*
X115431798Y-87415325D01*
X115481798Y-87378998D01*
X115500896Y-87320219D01*
X115681849Y-87320219D01*
X115700947Y-87378998D01*
X115750947Y-87415325D01*
X115812751Y-87415325D01*
X115834427Y-87399576D01*
X115843136Y-87405019D01*
X115869901Y-87411695D01*
X115896135Y-87420219D01*
X116010421Y-87420219D01*
X116036651Y-87411696D01*
X116063421Y-87405019D01*
X116139611Y-87357400D01*
X116139724Y-87357264D01*
X116139897Y-87357221D01*
X116159550Y-87333633D01*
X116179334Y-87310052D01*
X116179346Y-87309874D01*
X116179459Y-87309739D01*
X116211506Y-87229620D01*
X116367670Y-87229620D01*
X116389476Y-87287450D01*
X116427572Y-87335069D01*
X116448329Y-87348724D01*
X116467197Y-87364908D01*
X116581482Y-87412527D01*
X116601165Y-87414117D01*
X116619944Y-87420219D01*
X116696135Y-87420219D01*
X116714914Y-87414117D01*
X116734596Y-87412527D01*
X116848883Y-87364908D01*
X116867747Y-87348727D01*
X116888508Y-87335069D01*
X116895019Y-87326930D01*
X117739217Y-87326930D01*
X117762217Y-87384294D01*
X117814542Y-87417184D01*
X117876206Y-87413037D01*
X117923656Y-87373436D01*
X118048516Y-87174795D01*
X118173376Y-87373436D01*
X118220826Y-87413037D01*
X118282490Y-87417184D01*
X118334815Y-87384294D01*
X118357815Y-87326930D01*
X118356123Y-87320219D01*
X118462802Y-87320219D01*
X118481900Y-87378998D01*
X118531900Y-87415325D01*
X118593704Y-87415325D01*
X118602293Y-87409084D01*
X118612759Y-87411695D01*
X118638993Y-87420219D01*
X118829469Y-87420219D01*
X118855699Y-87411696D01*
X118882469Y-87405019D01*
X118958659Y-87357400D01*
X118958772Y-87357264D01*
X118958944Y-87357221D01*
X118978524Y-87333721D01*
X118989852Y-87320219D01*
X119186612Y-87320219D01*
X119205710Y-87378998D01*
X119255710Y-87415325D01*
X119317514Y-87415325D01*
X119367514Y-87378998D01*
X119386612Y-87320219D01*
X119386612Y-86873989D01*
X119459595Y-87069480D01*
X119476263Y-87090455D01*
X119491065Y-87112795D01*
X119495258Y-87114360D01*
X119498045Y-87117867D01*
X119523873Y-87125043D01*
X119548966Y-87134411D01*
X119553277Y-87133213D01*
X119557593Y-87134412D01*
X119582702Y-87125037D01*
X119608513Y-87117866D01*
X119611298Y-87114361D01*
X119615493Y-87112795D01*
X119630298Y-87090449D01*
X119646963Y-87069479D01*
X119719945Y-86873991D01*
X119719945Y-87320219D01*
X119739043Y-87378998D01*
X119789043Y-87415325D01*
X119850847Y-87415325D01*
X119900847Y-87378998D01*
X119919945Y-87320219D01*
X119919945Y-86320219D01*
X119915702Y-86307162D01*
X119916295Y-86293449D01*
X119906389Y-86278499D01*
X119900847Y-86261440D01*
X119889740Y-86253370D01*
X119882159Y-86241928D01*
X119865357Y-86235655D01*
X119850847Y-86225113D01*
X119837118Y-86225113D01*
X119824258Y-86220312D01*
X119806979Y-86225113D01*
X119789043Y-86225113D01*
X119777936Y-86233182D01*
X119764711Y-86236857D01*
X119753554Y-86250896D01*
X119739043Y-86261440D01*
X119734800Y-86274497D01*
X119726261Y-86285244D01*
X119553278Y-86748589D01*
X119380296Y-86285244D01*
X119371756Y-86274497D01*
X119367514Y-86261440D01*
X119353002Y-86250896D01*
X119341846Y-86236857D01*
X119328620Y-86233182D01*
X119317514Y-86225113D01*
X119299578Y-86225113D01*
X119282298Y-86220312D01*
X119269438Y-86225113D01*
X119255710Y-86225113D01*
X119241199Y-86235655D01*
X119224398Y-86241928D01*
X119216815Y-86253371D01*
X119205710Y-86261440D01*
X119200168Y-86278495D01*
X119190261Y-86293448D01*
X119190853Y-86307164D01*
X119186612Y-86320219D01*
X119186612Y-87320219D01*
X118989852Y-87320219D01*
X118998382Y-87310052D01*
X118998394Y-87309874D01*
X118998507Y-87309739D01*
X119036603Y-87214500D01*
X119037866Y-87195483D01*
X119043755Y-87177361D01*
X119043755Y-87082123D01*
X119037865Y-87063997D01*
X119036602Y-87044983D01*
X118998506Y-86949745D01*
X118998394Y-86949611D01*
X118998382Y-86949433D01*
X118978573Y-86925822D01*
X118958944Y-86902263D01*
X118958771Y-86902219D01*
X118958659Y-86902085D01*
X118882469Y-86854466D01*
X118855699Y-86847788D01*
X118829469Y-86839266D01*
X118667673Y-86839266D01*
X118662802Y-86836221D01*
X118662802Y-86815667D01*
X118681608Y-86768651D01*
X118705768Y-86753552D01*
X118800789Y-86753552D01*
X118852659Y-86785971D01*
X118912625Y-86800929D01*
X118969931Y-86777782D01*
X119002687Y-86725372D01*
X118998382Y-86663719D01*
X118958659Y-86616371D01*
X118882469Y-86568752D01*
X118855699Y-86562074D01*
X118829469Y-86553552D01*
X118677088Y-86553552D01*
X118650854Y-86562075D01*
X118624089Y-86568752D01*
X118547897Y-86616371D01*
X118547783Y-86616506D01*
X118547611Y-86616550D01*
X118527884Y-86640225D01*
X118508175Y-86663719D01*
X118508162Y-86663895D01*
X118508049Y-86664032D01*
X118469954Y-86759270D01*
X118468690Y-86778286D01*
X118462802Y-86796409D01*
X118462802Y-87320219D01*
X118356123Y-87320219D01*
X118342704Y-87267002D01*
X118166630Y-86986885D01*
X118342704Y-86706769D01*
X118357815Y-86646841D01*
X118334815Y-86589477D01*
X118282490Y-86556587D01*
X118220826Y-86560734D01*
X118173376Y-86600335D01*
X118048516Y-86798975D01*
X117923656Y-86600335D01*
X117876206Y-86560734D01*
X117814542Y-86556587D01*
X117762217Y-86589477D01*
X117739217Y-86646841D01*
X117754328Y-86706769D01*
X117930401Y-86986885D01*
X117754328Y-87267002D01*
X117739217Y-87326930D01*
X116895019Y-87326930D01*
X116964699Y-87239830D01*
X116969943Y-87225920D01*
X116979459Y-87214500D01*
X117017554Y-87119262D01*
X117018175Y-87109908D01*
X117022764Y-87101735D01*
X117060860Y-86911259D01*
X117059685Y-86901240D01*
X117062802Y-86891647D01*
X117062802Y-86748790D01*
X117059685Y-86739196D01*
X117060860Y-86729178D01*
X117022764Y-86538702D01*
X117018175Y-86530528D01*
X117017554Y-86521175D01*
X116979459Y-86425937D01*
X116969942Y-86414515D01*
X116964698Y-86400607D01*
X116888508Y-86305369D01*
X116867748Y-86291711D01*
X116848883Y-86275530D01*
X116734596Y-86227911D01*
X116714914Y-86226320D01*
X116696135Y-86220219D01*
X116619944Y-86220219D01*
X116601165Y-86226320D01*
X116581482Y-86227911D01*
X116467197Y-86275530D01*
X116448334Y-86291708D01*
X116427573Y-86305367D01*
X116389477Y-86352987D01*
X116367670Y-86410816D01*
X116384020Y-86470417D01*
X116432280Y-86509026D01*
X116494017Y-86511895D01*
X116545649Y-86477927D01*
X116567751Y-86450299D01*
X116639945Y-86420219D01*
X116676135Y-86420219D01*
X116748327Y-86450299D01*
X116799265Y-86513972D01*
X116828448Y-86586930D01*
X116862802Y-86758692D01*
X116862802Y-86881744D01*
X116828448Y-87053506D01*
X116799265Y-87126464D01*
X116748327Y-87190138D01*
X116676135Y-87220219D01*
X116639945Y-87220219D01*
X116567752Y-87190138D01*
X116545650Y-87162510D01*
X116494018Y-87128542D01*
X116432281Y-87131410D01*
X116384020Y-87170019D01*
X116367670Y-87229620D01*
X116211506Y-87229620D01*
X116217554Y-87214500D01*
X116218817Y-87195485D01*
X116224706Y-87177361D01*
X116224706Y-86653552D01*
X116205608Y-86594773D01*
X116155608Y-86558446D01*
X116093804Y-86558446D01*
X116043804Y-86594773D01*
X116024706Y-86653552D01*
X116024706Y-87158103D01*
X116005899Y-87205119D01*
X115981741Y-87220219D01*
X115924815Y-87220219D01*
X115887389Y-87196828D01*
X115881849Y-87189902D01*
X115881849Y-86653552D01*
X115862751Y-86594773D01*
X115812751Y-86558446D01*
X115750947Y-86558446D01*
X115700947Y-86594773D01*
X115681849Y-86653552D01*
X115681849Y-87320219D01*
X115500896Y-87320219D01*
X115500896Y-86653552D01*
X115481798Y-86594773D01*
X115431798Y-86558446D01*
X115369994Y-86558446D01*
X115330701Y-86586993D01*
X115301515Y-86568752D01*
X115274746Y-86562074D01*
X115248515Y-86553552D01*
X115172325Y-86553552D01*
X115113546Y-86572650D01*
X115077219Y-86622650D01*
X115077219Y-86684454D01*
X115005658Y-86684454D01*
X115005658Y-86653552D01*
X114986560Y-86594773D01*
X114936560Y-86558446D01*
X114874756Y-86558446D01*
X114835463Y-86586993D01*
X114806277Y-86568752D01*
X114779508Y-86562074D01*
X114753277Y-86553552D01*
X114677087Y-86553552D01*
X114618308Y-86572650D01*
X114581981Y-86622650D01*
X114581981Y-86684454D01*
X114511436Y-86684454D01*
X114503267Y-86664031D01*
X114503155Y-86663897D01*
X114503143Y-86663719D01*
X114483334Y-86640108D01*
X114463705Y-86616549D01*
X114463532Y-86616505D01*
X114463420Y-86616371D01*
X114387230Y-86568752D01*
X114360460Y-86562074D01*
X114334230Y-86553552D01*
X114181849Y-86553552D01*
X114155615Y-86562075D01*
X114128850Y-86568752D01*
X114052658Y-86616371D01*
X114052544Y-86616506D01*
X114052372Y-86616550D01*
X114032645Y-86640225D01*
X114012936Y-86663719D01*
X114012923Y-86663895D01*
X114012810Y-86664032D01*
X113974715Y-86759270D01*
X113973451Y-86778286D01*
X113967563Y-86796409D01*
X113967563Y-86891647D01*
X113824706Y-86891647D01*
X113824706Y-86653552D01*
X113805608Y-86594773D01*
X113755608Y-86558446D01*
X113693804Y-86558446D01*
X113672128Y-86574194D01*
X113663421Y-86568752D01*
X113636651Y-86562074D01*
X113610421Y-86553552D01*
X113496135Y-86553552D01*
X113469901Y-86562075D01*
X113443136Y-86568752D01*
X113366944Y-86616371D01*
X113366830Y-86616506D01*
X113366658Y-86616550D01*
X113346931Y-86640225D01*
X113327222Y-86663719D01*
X113327209Y-86663895D01*
X113327096Y-86664032D01*
X113289001Y-86759270D01*
X113287737Y-86778286D01*
X113281849Y-86796409D01*
X113281849Y-87320219D01*
X113046994Y-87320219D01*
X113055524Y-87310052D01*
X113055536Y-87309874D01*
X113055649Y-87309739D01*
X113093744Y-87214500D01*
X113095007Y-87195485D01*
X113100896Y-87177361D01*
X113100896Y-86753552D01*
X113115182Y-86753552D01*
X113173961Y-86734454D01*
X113210288Y-86684454D01*
X113210288Y-86622650D01*
X113173961Y-86572650D01*
X113115182Y-86553552D01*
X113100896Y-86553552D01*
X113100896Y-86320219D01*
X113081798Y-86261440D01*
X113031798Y-86225113D01*
X112969994Y-86225113D01*
X112919994Y-86261440D01*
X112900896Y-86320219D01*
X112900896Y-86553552D01*
X112810420Y-86553552D01*
X112751641Y-86572650D01*
X112715314Y-86622650D01*
X112715314Y-86684454D01*
X112751641Y-86734454D01*
X112810420Y-86753552D01*
X112900896Y-86753552D01*
X112900896Y-87158103D01*
X112882089Y-87205119D01*
X112857931Y-87220219D01*
X112810420Y-87220219D01*
X112751641Y-87239317D01*
X112715314Y-87289317D01*
X112715314Y-87351121D01*
X112572457Y-87351121D01*
X112572457Y-86077362D01*
X120062802Y-86077362D01*
X120062802Y-87563076D01*
G37*
%TO.C,REF\u002A\u002A*%
D12*
X124271128Y-90099945D02*
X124301954Y-90109568D01*
X124339916Y-90125563D01*
X124358296Y-90134159D01*
X124371561Y-90135713D01*
X124374495Y-90123798D01*
X124374498Y-90123461D01*
X124380709Y-90112087D01*
X124402131Y-90106256D01*
X124443653Y-90104614D01*
X124512812Y-90104614D01*
X124512812Y-90708179D01*
X124374495Y-90708179D01*
X124374495Y-90292027D01*
X124340110Y-90260161D01*
X124329368Y-90251104D01*
X124297370Y-90235630D01*
X124257965Y-90235010D01*
X124204312Y-90248664D01*
X124186225Y-90249529D01*
X124165008Y-90236283D01*
X124136768Y-90204800D01*
X124123069Y-90187385D01*
X124106868Y-90162797D01*
X124104371Y-90147145D01*
X124113442Y-90133941D01*
X124141289Y-90117245D01*
X124184540Y-90104030D01*
X124231464Y-90097478D01*
X124271128Y-90099945D01*
G36*
X124271128Y-90099945D02*
G01*
X124301954Y-90109568D01*
X124339916Y-90125563D01*
X124358296Y-90134159D01*
X124371561Y-90135713D01*
X124374495Y-90123798D01*
X124374498Y-90123461D01*
X124380709Y-90112087D01*
X124402131Y-90106256D01*
X124443653Y-90104614D01*
X124512812Y-90104614D01*
X124512812Y-90708179D01*
X124374495Y-90708179D01*
X124374495Y-90292027D01*
X124340110Y-90260161D01*
X124329368Y-90251104D01*
X124297370Y-90235630D01*
X124257965Y-90235010D01*
X124204312Y-90248664D01*
X124186225Y-90249529D01*
X124165008Y-90236283D01*
X124136768Y-90204800D01*
X124123069Y-90187385D01*
X124106868Y-90162797D01*
X124104371Y-90147145D01*
X124113442Y-90133941D01*
X124141289Y-90117245D01*
X124184540Y-90104030D01*
X124231464Y-90097478D01*
X124271128Y-90099945D01*
G37*
X124454265Y-91055965D02*
X124492255Y-91073745D01*
X124525386Y-91099806D01*
X124525386Y-91073745D01*
X124526211Y-91063849D01*
X124533893Y-91053358D01*
X124554667Y-91048725D01*
X124594544Y-91047683D01*
X124663703Y-91047683D01*
X124663703Y-91663822D01*
X124525386Y-91663822D01*
X124525386Y-91463226D01*
X124525369Y-91451710D01*
X124524189Y-91370758D01*
X124521294Y-91304817D01*
X124516888Y-91257258D01*
X124511181Y-91231452D01*
X124505940Y-91221710D01*
X124473676Y-91191156D01*
X124429730Y-91177631D01*
X124381743Y-91183941D01*
X124369973Y-91188217D01*
X124344898Y-91195776D01*
X124327762Y-91193428D01*
X124310518Y-91178064D01*
X124285124Y-91146571D01*
X124243936Y-91094568D01*
X124272886Y-91071125D01*
X124300405Y-91057015D01*
X124348745Y-91047486D01*
X124403230Y-91047174D01*
X124454265Y-91055965D01*
G36*
X124454265Y-91055965D02*
G01*
X124492255Y-91073745D01*
X124525386Y-91099806D01*
X124525386Y-91073745D01*
X124526211Y-91063849D01*
X124533893Y-91053358D01*
X124554667Y-91048725D01*
X124594544Y-91047683D01*
X124663703Y-91047683D01*
X124663703Y-91663822D01*
X124525386Y-91663822D01*
X124525386Y-91463226D01*
X124525369Y-91451710D01*
X124524189Y-91370758D01*
X124521294Y-91304817D01*
X124516888Y-91257258D01*
X124511181Y-91231452D01*
X124505940Y-91221710D01*
X124473676Y-91191156D01*
X124429730Y-91177631D01*
X124381743Y-91183941D01*
X124369973Y-91188217D01*
X124344898Y-91195776D01*
X124327762Y-91193428D01*
X124310518Y-91178064D01*
X124285124Y-91146571D01*
X124243936Y-91094568D01*
X124272886Y-91071125D01*
X124300405Y-91057015D01*
X124348745Y-91047486D01*
X124403230Y-91047174D01*
X124454265Y-91055965D01*
G37*
X127077960Y-91663822D02*
X126952218Y-91663822D01*
X126952218Y-91469740D01*
X126952078Y-91424594D01*
X126950649Y-91349823D01*
X126947029Y-91294467D01*
X126940434Y-91254702D01*
X126930079Y-91226700D01*
X126915178Y-91206635D01*
X126894946Y-91190681D01*
X126872859Y-91178792D01*
X126846705Y-91175421D01*
X126809508Y-91182917D01*
X126797555Y-91186038D01*
X126767718Y-91190735D01*
X126746383Y-91184005D01*
X126721655Y-91163177D01*
X126716963Y-91158647D01*
X126691020Y-91130626D01*
X126674291Y-91107843D01*
X126671996Y-91102355D01*
X126676543Y-91082088D01*
X126699602Y-91065884D01*
X126735995Y-91054513D01*
X126780544Y-91048740D01*
X126828072Y-91049334D01*
X126873400Y-91057063D01*
X126911351Y-91072694D01*
X126923381Y-91079993D01*
X126943632Y-91090676D01*
X126951129Y-91088230D01*
X126952218Y-91072647D01*
X126952473Y-91067053D01*
X126958539Y-91054660D01*
X126977356Y-91049020D01*
X127015089Y-91047683D01*
X127077960Y-91047683D01*
X127077960Y-91663822D01*
G36*
X127077960Y-91663822D02*
G01*
X126952218Y-91663822D01*
X126952218Y-91469740D01*
X126952078Y-91424594D01*
X126950649Y-91349823D01*
X126947029Y-91294467D01*
X126940434Y-91254702D01*
X126930079Y-91226700D01*
X126915178Y-91206635D01*
X126894946Y-91190681D01*
X126872859Y-91178792D01*
X126846705Y-91175421D01*
X126809508Y-91182917D01*
X126797555Y-91186038D01*
X126767718Y-91190735D01*
X126746383Y-91184005D01*
X126721655Y-91163177D01*
X126716963Y-91158647D01*
X126691020Y-91130626D01*
X126674291Y-91107843D01*
X126671996Y-91102355D01*
X126676543Y-91082088D01*
X126699602Y-91065884D01*
X126735995Y-91054513D01*
X126780544Y-91048740D01*
X126828072Y-91049334D01*
X126873400Y-91057063D01*
X126911351Y-91072694D01*
X126923381Y-91079993D01*
X126943632Y-91090676D01*
X126951129Y-91088230D01*
X126952218Y-91072647D01*
X126952473Y-91067053D01*
X126958539Y-91054660D01*
X126977356Y-91049020D01*
X127015089Y-91047683D01*
X127077960Y-91047683D01*
X127077960Y-91663822D01*
G37*
X124764297Y-90300342D02*
X124765357Y-90388394D01*
X124769509Y-90459510D01*
X124777921Y-90511199D01*
X124791757Y-90546360D01*
X124812182Y-90567889D01*
X124840364Y-90578682D01*
X124877465Y-90581636D01*
X124912890Y-90579000D01*
X124941500Y-90568679D01*
X124962296Y-90547772D01*
X124976442Y-90513381D01*
X124985103Y-90462610D01*
X124989445Y-90392563D01*
X124990633Y-90300342D01*
X124990633Y-90104614D01*
X125116376Y-90104614D01*
X125116376Y-90340578D01*
X125116160Y-90403561D01*
X125114484Y-90485007D01*
X125110277Y-90547121D01*
X125102521Y-90593458D01*
X125090196Y-90627573D01*
X125072285Y-90653022D01*
X125047767Y-90673362D01*
X125015623Y-90692147D01*
X124948125Y-90715928D01*
X124877681Y-90717480D01*
X124811264Y-90695580D01*
X124782286Y-90681383D01*
X124767909Y-90679261D01*
X124764297Y-90689293D01*
X124758299Y-90700556D01*
X124736830Y-90706489D01*
X124695138Y-90708179D01*
X124625980Y-90708179D01*
X124625980Y-90104614D01*
X124764297Y-90104614D01*
X124764297Y-90300342D01*
G36*
X124764297Y-90300342D02*
G01*
X124765357Y-90388394D01*
X124769509Y-90459510D01*
X124777921Y-90511199D01*
X124791757Y-90546360D01*
X124812182Y-90567889D01*
X124840364Y-90578682D01*
X124877465Y-90581636D01*
X124912890Y-90579000D01*
X124941500Y-90568679D01*
X124962296Y-90547772D01*
X124976442Y-90513381D01*
X124985103Y-90462610D01*
X124989445Y-90392563D01*
X124990633Y-90300342D01*
X124990633Y-90104614D01*
X125116376Y-90104614D01*
X125116376Y-90340578D01*
X125116160Y-90403561D01*
X125114484Y-90485007D01*
X125110277Y-90547121D01*
X125102521Y-90593458D01*
X125090196Y-90627573D01*
X125072285Y-90653022D01*
X125047767Y-90673362D01*
X125015623Y-90692147D01*
X124948125Y-90715928D01*
X124877681Y-90717480D01*
X124811264Y-90695580D01*
X124782286Y-90681383D01*
X124767909Y-90679261D01*
X124764297Y-90689293D01*
X124758299Y-90700556D01*
X124736830Y-90706489D01*
X124695138Y-90708179D01*
X124625980Y-90708179D01*
X124625980Y-90104614D01*
X124764297Y-90104614D01*
X124764297Y-90300342D01*
G37*
X126866605Y-90103424D02*
X126923926Y-90121434D01*
X126949199Y-90133674D01*
X126961910Y-90134938D01*
X126964792Y-90123798D01*
X126964795Y-90123461D01*
X126971006Y-90112087D01*
X126992428Y-90106256D01*
X127033950Y-90104614D01*
X127103109Y-90104614D01*
X127103109Y-90708179D01*
X126964792Y-90708179D01*
X126964792Y-90500132D01*
X126964697Y-90429879D01*
X126964051Y-90372170D01*
X126962320Y-90331787D01*
X126958974Y-90304615D01*
X126953481Y-90286540D01*
X126945310Y-90273447D01*
X126933928Y-90261221D01*
X126918424Y-90248217D01*
X126873843Y-90230745D01*
X126827047Y-90235873D01*
X126784180Y-90263507D01*
X126771927Y-90276368D01*
X126763132Y-90289384D01*
X126757233Y-90306706D01*
X126753651Y-90332501D01*
X126751809Y-90370939D01*
X126751128Y-90426189D01*
X126751030Y-90502418D01*
X126751030Y-90708179D01*
X126612713Y-90708179D01*
X126612989Y-90484985D01*
X126613008Y-90475044D01*
X126614207Y-90380106D01*
X126617891Y-90306358D01*
X126625006Y-90250214D01*
X126636500Y-90208087D01*
X126653318Y-90176391D01*
X126676409Y-90151541D01*
X126706717Y-90129950D01*
X126738012Y-90115002D01*
X126801037Y-90101421D01*
X126866605Y-90103424D01*
G36*
X126866605Y-90103424D02*
G01*
X126923926Y-90121434D01*
X126949199Y-90133674D01*
X126961910Y-90134938D01*
X126964792Y-90123798D01*
X126964795Y-90123461D01*
X126971006Y-90112087D01*
X126992428Y-90106256D01*
X127033950Y-90104614D01*
X127103109Y-90104614D01*
X127103109Y-90708179D01*
X126964792Y-90708179D01*
X126964792Y-90500132D01*
X126964697Y-90429879D01*
X126964051Y-90372170D01*
X126962320Y-90331787D01*
X126958974Y-90304615D01*
X126953481Y-90286540D01*
X126945310Y-90273447D01*
X126933928Y-90261221D01*
X126918424Y-90248217D01*
X126873843Y-90230745D01*
X126827047Y-90235873D01*
X126784180Y-90263507D01*
X126771927Y-90276368D01*
X126763132Y-90289384D01*
X126757233Y-90306706D01*
X126753651Y-90332501D01*
X126751809Y-90370939D01*
X126751128Y-90426189D01*
X126751030Y-90502418D01*
X126751030Y-90708179D01*
X126612713Y-90708179D01*
X126612989Y-90484985D01*
X126613008Y-90475044D01*
X126614207Y-90380106D01*
X126617891Y-90306358D01*
X126625006Y-90250214D01*
X126636500Y-90208087D01*
X126653318Y-90176391D01*
X126676409Y-90151541D01*
X126706717Y-90129950D01*
X126738012Y-90115002D01*
X126801037Y-90101421D01*
X126866605Y-90103424D01*
G37*
X123917409Y-90107493D02*
X123986021Y-90134224D01*
X124044048Y-90178351D01*
X124086907Y-90238958D01*
X124089801Y-90245137D01*
X124108176Y-90305409D01*
X124117357Y-90377407D01*
X124117285Y-90452369D01*
X124107901Y-90521536D01*
X124089149Y-90576149D01*
X124065995Y-90614212D01*
X124015030Y-90668135D01*
X123951306Y-90702411D01*
X123896785Y-90716272D01*
X123813767Y-90717785D01*
X123734326Y-90696882D01*
X123663879Y-90654464D01*
X123618284Y-90616880D01*
X123659351Y-90574510D01*
X123685296Y-90549409D01*
X123708764Y-90535434D01*
X123730524Y-90538511D01*
X123758356Y-90557287D01*
X123769454Y-90564638D01*
X123816337Y-90579683D01*
X123870224Y-90579673D01*
X123920675Y-90564168D01*
X123939672Y-90551716D01*
X123967537Y-90514946D01*
X123981506Y-90460939D01*
X123982405Y-90387331D01*
X123982403Y-90387289D01*
X123972009Y-90321433D01*
X123949114Y-90275772D01*
X123911439Y-90247528D01*
X123856708Y-90233920D01*
X123822241Y-90232090D01*
X123792126Y-90239584D01*
X123761240Y-90261295D01*
X123721272Y-90294926D01*
X123670656Y-90254250D01*
X123652163Y-90238667D01*
X123629065Y-90216340D01*
X123620039Y-90203183D01*
X123623236Y-90197253D01*
X123641646Y-90179048D01*
X123670973Y-90155895D01*
X123693920Y-90140830D01*
X123766774Y-90109880D01*
X123842799Y-90099073D01*
X123917409Y-90107493D01*
G36*
X123917409Y-90107493D02*
G01*
X123986021Y-90134224D01*
X124044048Y-90178351D01*
X124086907Y-90238958D01*
X124089801Y-90245137D01*
X124108176Y-90305409D01*
X124117357Y-90377407D01*
X124117285Y-90452369D01*
X124107901Y-90521536D01*
X124089149Y-90576149D01*
X124065995Y-90614212D01*
X124015030Y-90668135D01*
X123951306Y-90702411D01*
X123896785Y-90716272D01*
X123813767Y-90717785D01*
X123734326Y-90696882D01*
X123663879Y-90654464D01*
X123618284Y-90616880D01*
X123659351Y-90574510D01*
X123685296Y-90549409D01*
X123708764Y-90535434D01*
X123730524Y-90538511D01*
X123758356Y-90557287D01*
X123769454Y-90564638D01*
X123816337Y-90579683D01*
X123870224Y-90579673D01*
X123920675Y-90564168D01*
X123939672Y-90551716D01*
X123967537Y-90514946D01*
X123981506Y-90460939D01*
X123982405Y-90387331D01*
X123982403Y-90387289D01*
X123972009Y-90321433D01*
X123949114Y-90275772D01*
X123911439Y-90247528D01*
X123856708Y-90233920D01*
X123822241Y-90232090D01*
X123792126Y-90239584D01*
X123761240Y-90261295D01*
X123721272Y-90294926D01*
X123670656Y-90254250D01*
X123652163Y-90238667D01*
X123629065Y-90216340D01*
X123620039Y-90203183D01*
X123623236Y-90197253D01*
X123641646Y-90179048D01*
X123670973Y-90155895D01*
X123693920Y-90140830D01*
X123766774Y-90109880D01*
X123842799Y-90099073D01*
X123917409Y-90107493D01*
G37*
X125716857Y-90449771D02*
X125713349Y-90489565D01*
X125697844Y-90565538D01*
X125670110Y-90623511D01*
X125627898Y-90667300D01*
X125568960Y-90700722D01*
X125546076Y-90708676D01*
X125486812Y-90718601D01*
X125424447Y-90718331D01*
X125371823Y-90707430D01*
X125370789Y-90707034D01*
X125328381Y-90682087D01*
X125285537Y-90643468D01*
X125249986Y-90599306D01*
X125229459Y-90557727D01*
X125223374Y-90527334D01*
X125218164Y-90470429D01*
X125217291Y-90419705D01*
X125343976Y-90419705D01*
X125351549Y-90480545D01*
X125369341Y-90530538D01*
X125396296Y-90563204D01*
X125406513Y-90568812D01*
X125445473Y-90579007D01*
X125490536Y-90581104D01*
X125528448Y-90574020D01*
X125543244Y-90563861D01*
X125564014Y-90528334D01*
X125577083Y-90472732D01*
X125581624Y-90399766D01*
X125581551Y-90378762D01*
X125579974Y-90336203D01*
X125574728Y-90308439D01*
X125563723Y-90287925D01*
X125544868Y-90267112D01*
X125508989Y-90241887D01*
X125462280Y-90231573D01*
X125417151Y-90241396D01*
X125379680Y-90269805D01*
X125355943Y-90315253D01*
X125347675Y-90354497D01*
X125343976Y-90419705D01*
X125217291Y-90419705D01*
X125217049Y-90405621D01*
X125219844Y-90341116D01*
X125226366Y-90285121D01*
X125236432Y-90245842D01*
X125259877Y-90201372D01*
X125309637Y-90146692D01*
X125373238Y-90112055D01*
X125448790Y-90098345D01*
X125534399Y-90106448D01*
X125548644Y-90109899D01*
X125614982Y-90139664D01*
X125664971Y-90188530D01*
X125698612Y-90256501D01*
X125715906Y-90343580D01*
X125716410Y-90399766D01*
X125716857Y-90449771D01*
G36*
X125716857Y-90449771D02*
G01*
X125713349Y-90489565D01*
X125697844Y-90565538D01*
X125670110Y-90623511D01*
X125627898Y-90667300D01*
X125568960Y-90700722D01*
X125546076Y-90708676D01*
X125486812Y-90718601D01*
X125424447Y-90718331D01*
X125371823Y-90707430D01*
X125370789Y-90707034D01*
X125328381Y-90682087D01*
X125285537Y-90643468D01*
X125249986Y-90599306D01*
X125229459Y-90557727D01*
X125223374Y-90527334D01*
X125218164Y-90470429D01*
X125217291Y-90419705D01*
X125343976Y-90419705D01*
X125351549Y-90480545D01*
X125369341Y-90530538D01*
X125396296Y-90563204D01*
X125406513Y-90568812D01*
X125445473Y-90579007D01*
X125490536Y-90581104D01*
X125528448Y-90574020D01*
X125543244Y-90563861D01*
X125564014Y-90528334D01*
X125577083Y-90472732D01*
X125581624Y-90399766D01*
X125581551Y-90378762D01*
X125579974Y-90336203D01*
X125574728Y-90308439D01*
X125563723Y-90287925D01*
X125544868Y-90267112D01*
X125508989Y-90241887D01*
X125462280Y-90231573D01*
X125417151Y-90241396D01*
X125379680Y-90269805D01*
X125355943Y-90315253D01*
X125347675Y-90354497D01*
X125343976Y-90419705D01*
X125217291Y-90419705D01*
X125217049Y-90405621D01*
X125219844Y-90341116D01*
X125226366Y-90285121D01*
X125236432Y-90245842D01*
X125259877Y-90201372D01*
X125309637Y-90146692D01*
X125373238Y-90112055D01*
X125448790Y-90098345D01*
X125534399Y-90106448D01*
X125548644Y-90109899D01*
X125614982Y-90139664D01*
X125664971Y-90188530D01*
X125698612Y-90256501D01*
X125715906Y-90343580D01*
X125716410Y-90399766D01*
X125716857Y-90449771D01*
G37*
X125816997Y-91245130D02*
X125833997Y-91295850D01*
X125854107Y-91351997D01*
X125870899Y-91394532D01*
X125882986Y-91419990D01*
X125888980Y-91424903D01*
X125890426Y-91420630D01*
X125898254Y-91394422D01*
X125910723Y-91350649D01*
X125926447Y-91294211D01*
X125944043Y-91230010D01*
X125991914Y-91053971D01*
X126065007Y-91050152D01*
X126071177Y-91049846D01*
X126110592Y-91049441D01*
X126129533Y-91053487D01*
X126131945Y-91062726D01*
X126128898Y-91071749D01*
X126118874Y-91102632D01*
X126103180Y-91151544D01*
X126082934Y-91214987D01*
X126059256Y-91289462D01*
X126033263Y-91371471D01*
X125940736Y-91663822D01*
X125824993Y-91663822D01*
X125770457Y-91478352D01*
X125760386Y-91444294D01*
X125741775Y-91382378D01*
X125725872Y-91330787D01*
X125714109Y-91294130D01*
X125707918Y-91277018D01*
X125706154Y-91275741D01*
X125697571Y-91286779D01*
X125685316Y-91315969D01*
X125671426Y-91358750D01*
X125670692Y-91361263D01*
X125652096Y-91424400D01*
X125630818Y-91495889D01*
X125611321Y-91560734D01*
X125579705Y-91665122D01*
X125521402Y-91661328D01*
X125463098Y-91657535D01*
X125409098Y-91487782D01*
X125385390Y-91413193D01*
X125358833Y-91329539D01*
X125333404Y-91249342D01*
X125312354Y-91182857D01*
X125269609Y-91047683D01*
X125412612Y-91047683D01*
X125447274Y-91176570D01*
X125456488Y-91210625D01*
X125473915Y-91274115D01*
X125490054Y-91331874D01*
X125502322Y-91374614D01*
X125522709Y-91443773D01*
X125652745Y-91053971D01*
X125702476Y-91050237D01*
X125752206Y-91046504D01*
X125816997Y-91245130D01*
G36*
X125816997Y-91245130D02*
G01*
X125833997Y-91295850D01*
X125854107Y-91351997D01*
X125870899Y-91394532D01*
X125882986Y-91419990D01*
X125888980Y-91424903D01*
X125890426Y-91420630D01*
X125898254Y-91394422D01*
X125910723Y-91350649D01*
X125926447Y-91294211D01*
X125944043Y-91230010D01*
X125991914Y-91053971D01*
X126065007Y-91050152D01*
X126071177Y-91049846D01*
X126110592Y-91049441D01*
X126129533Y-91053487D01*
X126131945Y-91062726D01*
X126128898Y-91071749D01*
X126118874Y-91102632D01*
X126103180Y-91151544D01*
X126082934Y-91214987D01*
X126059256Y-91289462D01*
X126033263Y-91371471D01*
X125940736Y-91663822D01*
X125824993Y-91663822D01*
X125770457Y-91478352D01*
X125760386Y-91444294D01*
X125741775Y-91382378D01*
X125725872Y-91330787D01*
X125714109Y-91294130D01*
X125707918Y-91277018D01*
X125706154Y-91275741D01*
X125697571Y-91286779D01*
X125685316Y-91315969D01*
X125671426Y-91358750D01*
X125670692Y-91361263D01*
X125652096Y-91424400D01*
X125630818Y-91495889D01*
X125611321Y-91560734D01*
X125579705Y-91665122D01*
X125521402Y-91661328D01*
X125463098Y-91657535D01*
X125409098Y-91487782D01*
X125385390Y-91413193D01*
X125358833Y-91329539D01*
X125333404Y-91249342D01*
X125312354Y-91182857D01*
X125269609Y-91047683D01*
X125412612Y-91047683D01*
X125447274Y-91176570D01*
X125456488Y-91210625D01*
X125473915Y-91274115D01*
X125490054Y-91331874D01*
X125502322Y-91374614D01*
X125522709Y-91443773D01*
X125652745Y-91053971D01*
X125702476Y-91050237D01*
X125752206Y-91046504D01*
X125816997Y-91245130D01*
G37*
X128848997Y-90440931D02*
X128847373Y-90480310D01*
X128843688Y-90528332D01*
X128837410Y-90562368D01*
X128827044Y-90589338D01*
X128811092Y-90616158D01*
X128810412Y-90617175D01*
X128771132Y-90660629D01*
X128723072Y-90693772D01*
X128667185Y-90713439D01*
X128593666Y-90719824D01*
X128521609Y-90707268D01*
X128457201Y-90677011D01*
X128406627Y-90630294D01*
X128392108Y-90608221D01*
X128364993Y-90539602D01*
X128351546Y-90454939D01*
X128351776Y-90433523D01*
X128486920Y-90433523D01*
X128487174Y-90473574D01*
X128491421Y-90500313D01*
X128501096Y-90520859D01*
X128517638Y-90542331D01*
X128540593Y-90563639D01*
X128586505Y-90582653D01*
X128635802Y-90579122D01*
X128682917Y-90552694D01*
X128696207Y-90540072D01*
X128710397Y-90518465D01*
X128718266Y-90488094D01*
X128722726Y-90440770D01*
X128723955Y-90405219D01*
X128717224Y-90332620D01*
X128696567Y-90280642D01*
X128661894Y-90248999D01*
X128621249Y-90233847D01*
X128572777Y-90235123D01*
X128527845Y-90260703D01*
X128517103Y-90270442D01*
X128503548Y-90287480D01*
X128495505Y-90309772D01*
X128491043Y-90343947D01*
X128488228Y-90396638D01*
X128486920Y-90433523D01*
X128351776Y-90433523D01*
X128352583Y-90358351D01*
X128353907Y-90344651D01*
X128372374Y-90256908D01*
X128406540Y-90188793D01*
X128456479Y-90140231D01*
X128522261Y-90111148D01*
X128603961Y-90101471D01*
X128634828Y-90102379D01*
X128698128Y-90113493D01*
X128749889Y-90140021D01*
X128798147Y-90185436D01*
X128805865Y-90194551D01*
X128826681Y-90225248D01*
X128840362Y-90260007D01*
X128847948Y-90304056D01*
X128850479Y-90362621D01*
X128849672Y-90405219D01*
X128848997Y-90440931D01*
G36*
X128848997Y-90440931D02*
G01*
X128847373Y-90480310D01*
X128843688Y-90528332D01*
X128837410Y-90562368D01*
X128827044Y-90589338D01*
X128811092Y-90616158D01*
X128810412Y-90617175D01*
X128771132Y-90660629D01*
X128723072Y-90693772D01*
X128667185Y-90713439D01*
X128593666Y-90719824D01*
X128521609Y-90707268D01*
X128457201Y-90677011D01*
X128406627Y-90630294D01*
X128392108Y-90608221D01*
X128364993Y-90539602D01*
X128351546Y-90454939D01*
X128351776Y-90433523D01*
X128486920Y-90433523D01*
X128487174Y-90473574D01*
X128491421Y-90500313D01*
X128501096Y-90520859D01*
X128517638Y-90542331D01*
X128540593Y-90563639D01*
X128586505Y-90582653D01*
X128635802Y-90579122D01*
X128682917Y-90552694D01*
X128696207Y-90540072D01*
X128710397Y-90518465D01*
X128718266Y-90488094D01*
X128722726Y-90440770D01*
X128723955Y-90405219D01*
X128717224Y-90332620D01*
X128696567Y-90280642D01*
X128661894Y-90248999D01*
X128621249Y-90233847D01*
X128572777Y-90235123D01*
X128527845Y-90260703D01*
X128517103Y-90270442D01*
X128503548Y-90287480D01*
X128495505Y-90309772D01*
X128491043Y-90343947D01*
X128488228Y-90396638D01*
X128486920Y-90433523D01*
X128351776Y-90433523D01*
X128352583Y-90358351D01*
X128353907Y-90344651D01*
X128372374Y-90256908D01*
X128406540Y-90188793D01*
X128456479Y-90140231D01*
X128522261Y-90111148D01*
X128603961Y-90101471D01*
X128634828Y-90102379D01*
X128698128Y-90113493D01*
X128749889Y-90140021D01*
X128798147Y-90185436D01*
X128805865Y-90194551D01*
X128826681Y-90225248D01*
X128840362Y-90260007D01*
X128847948Y-90304056D01*
X128850479Y-90362621D01*
X128849672Y-90405219D01*
X128848997Y-90440931D01*
G37*
X126674761Y-91402813D02*
X126673167Y-91456571D01*
X126669962Y-91494018D01*
X126669413Y-91497450D01*
X126647838Y-91558835D01*
X126608438Y-91610877D01*
X126556752Y-91646135D01*
X126501248Y-91660729D01*
X126432977Y-91659597D01*
X126370173Y-91640029D01*
X126353815Y-91631771D01*
X126332779Y-91622923D01*
X126324774Y-91625676D01*
X126323505Y-91640029D01*
X126322922Y-91647186D01*
X126315394Y-91657772D01*
X126294488Y-91662645D01*
X126254346Y-91663822D01*
X126185188Y-91663822D01*
X126185188Y-91361930D01*
X126323505Y-91361930D01*
X126324496Y-91414230D01*
X126328519Y-91449050D01*
X126337108Y-91472905D01*
X126351797Y-91492895D01*
X126390584Y-91522618D01*
X126435974Y-91532582D01*
X126479989Y-91520260D01*
X126517060Y-91485888D01*
X126526859Y-91460735D01*
X126534097Y-91416194D01*
X126537279Y-91362155D01*
X126536277Y-91306728D01*
X126530961Y-91258022D01*
X126521204Y-91224148D01*
X126518087Y-91218593D01*
X126488038Y-91190674D01*
X126447315Y-91178306D01*
X126403579Y-91181183D01*
X126364491Y-91199000D01*
X126337710Y-91231452D01*
X126336603Y-91234181D01*
X126329963Y-91264634D01*
X126325278Y-91310139D01*
X126323505Y-91361930D01*
X126185188Y-91361930D01*
X126185188Y-90808773D01*
X126323505Y-90808773D01*
X126323505Y-91101878D01*
X126349124Y-91078693D01*
X126373792Y-91064282D01*
X126420480Y-91052236D01*
X126475056Y-91048354D01*
X126528354Y-91053120D01*
X126571207Y-91067014D01*
X126601878Y-91086779D01*
X126633471Y-91120449D01*
X126654733Y-91165730D01*
X126667514Y-91226981D01*
X126673664Y-91308563D01*
X126674568Y-91341540D01*
X126674633Y-91362155D01*
X126674761Y-91402813D01*
G36*
X126674761Y-91402813D02*
G01*
X126673167Y-91456571D01*
X126669962Y-91494018D01*
X126669413Y-91497450D01*
X126647838Y-91558835D01*
X126608438Y-91610877D01*
X126556752Y-91646135D01*
X126501248Y-91660729D01*
X126432977Y-91659597D01*
X126370173Y-91640029D01*
X126353815Y-91631771D01*
X126332779Y-91622923D01*
X126324774Y-91625676D01*
X126323505Y-91640029D01*
X126322922Y-91647186D01*
X126315394Y-91657772D01*
X126294488Y-91662645D01*
X126254346Y-91663822D01*
X126185188Y-91663822D01*
X126185188Y-91361930D01*
X126323505Y-91361930D01*
X126324496Y-91414230D01*
X126328519Y-91449050D01*
X126337108Y-91472905D01*
X126351797Y-91492895D01*
X126390584Y-91522618D01*
X126435974Y-91532582D01*
X126479989Y-91520260D01*
X126517060Y-91485888D01*
X126526859Y-91460735D01*
X126534097Y-91416194D01*
X126537279Y-91362155D01*
X126536277Y-91306728D01*
X126530961Y-91258022D01*
X126521204Y-91224148D01*
X126518087Y-91218593D01*
X126488038Y-91190674D01*
X126447315Y-91178306D01*
X126403579Y-91181183D01*
X126364491Y-91199000D01*
X126337710Y-91231452D01*
X126336603Y-91234181D01*
X126329963Y-91264634D01*
X126325278Y-91310139D01*
X126323505Y-91361930D01*
X126185188Y-91361930D01*
X126185188Y-90808773D01*
X126323505Y-90808773D01*
X126323505Y-91101878D01*
X126349124Y-91078693D01*
X126373792Y-91064282D01*
X126420480Y-91052236D01*
X126475056Y-91048354D01*
X126528354Y-91053120D01*
X126571207Y-91067014D01*
X126601878Y-91086779D01*
X126633471Y-91120449D01*
X126654733Y-91165730D01*
X126667514Y-91226981D01*
X126673664Y-91308563D01*
X126674568Y-91341540D01*
X126674633Y-91362155D01*
X126674761Y-91402813D01*
G37*
X123603444Y-90365878D02*
X123601825Y-90462121D01*
X123601615Y-90464014D01*
X123583535Y-90552325D01*
X123550870Y-90620986D01*
X123502601Y-90671506D01*
X123437713Y-90705393D01*
X123425801Y-90709268D01*
X123351971Y-90720688D01*
X123275614Y-90714320D01*
X123204626Y-90691563D01*
X123146904Y-90653819D01*
X123103667Y-90613872D01*
X123149625Y-90577532D01*
X123195583Y-90541193D01*
X123250969Y-90568101D01*
X123315056Y-90589905D01*
X123371632Y-90590558D01*
X123417920Y-90570525D01*
X123451230Y-90530315D01*
X123463171Y-90506222D01*
X123469837Y-90485630D01*
X123465980Y-90471720D01*
X123448675Y-90463181D01*
X123414997Y-90458704D01*
X123362021Y-90456978D01*
X123286822Y-90456693D01*
X123104495Y-90456693D01*
X123104495Y-90369492D01*
X123105857Y-90331210D01*
X123234234Y-90331210D01*
X123240399Y-90338251D01*
X123258654Y-90341916D01*
X123293352Y-90343306D01*
X123348846Y-90343525D01*
X123378603Y-90343176D01*
X123425562Y-90340867D01*
X123457416Y-90336822D01*
X123469148Y-90331542D01*
X123466146Y-90312062D01*
X123444988Y-90274786D01*
X123409731Y-90244164D01*
X123367699Y-90225668D01*
X123326220Y-90224773D01*
X123294997Y-90239604D01*
X123259618Y-90273355D01*
X123237122Y-90315233D01*
X123235805Y-90319690D01*
X123234234Y-90331210D01*
X123105857Y-90331210D01*
X123106136Y-90323371D01*
X123110955Y-90277740D01*
X123117840Y-90246893D01*
X123122859Y-90235117D01*
X123159390Y-90182667D01*
X123212175Y-90138921D01*
X123273904Y-90110279D01*
X123306102Y-90102457D01*
X123382820Y-90098896D01*
X123451179Y-90117009D01*
X123509299Y-90154779D01*
X123555302Y-90210191D01*
X123587310Y-90281229D01*
X123596900Y-90331542D01*
X123603444Y-90365878D01*
G36*
X123603444Y-90365878D02*
G01*
X123601825Y-90462121D01*
X123601615Y-90464014D01*
X123583535Y-90552325D01*
X123550870Y-90620986D01*
X123502601Y-90671506D01*
X123437713Y-90705393D01*
X123425801Y-90709268D01*
X123351971Y-90720688D01*
X123275614Y-90714320D01*
X123204626Y-90691563D01*
X123146904Y-90653819D01*
X123103667Y-90613872D01*
X123149625Y-90577532D01*
X123195583Y-90541193D01*
X123250969Y-90568101D01*
X123315056Y-90589905D01*
X123371632Y-90590558D01*
X123417920Y-90570525D01*
X123451230Y-90530315D01*
X123463171Y-90506222D01*
X123469837Y-90485630D01*
X123465980Y-90471720D01*
X123448675Y-90463181D01*
X123414997Y-90458704D01*
X123362021Y-90456978D01*
X123286822Y-90456693D01*
X123104495Y-90456693D01*
X123104495Y-90369492D01*
X123105857Y-90331210D01*
X123234234Y-90331210D01*
X123240399Y-90338251D01*
X123258654Y-90341916D01*
X123293352Y-90343306D01*
X123348846Y-90343525D01*
X123378603Y-90343176D01*
X123425562Y-90340867D01*
X123457416Y-90336822D01*
X123469148Y-90331542D01*
X123466146Y-90312062D01*
X123444988Y-90274786D01*
X123409731Y-90244164D01*
X123367699Y-90225668D01*
X123326220Y-90224773D01*
X123294997Y-90239604D01*
X123259618Y-90273355D01*
X123237122Y-90315233D01*
X123235805Y-90319690D01*
X123234234Y-90331210D01*
X123105857Y-90331210D01*
X123106136Y-90323371D01*
X123110955Y-90277740D01*
X123117840Y-90246893D01*
X123122859Y-90235117D01*
X123159390Y-90182667D01*
X123212175Y-90138921D01*
X123273904Y-90110279D01*
X123306102Y-90102457D01*
X123382820Y-90098896D01*
X123451179Y-90117009D01*
X123509299Y-90154779D01*
X123555302Y-90210191D01*
X123587310Y-90281229D01*
X123596900Y-90331542D01*
X123603444Y-90365878D01*
G37*
X126082874Y-90104207D02*
X126155495Y-90122408D01*
X126208546Y-90156144D01*
X126242329Y-90205642D01*
X126257147Y-90271126D01*
X126254147Y-90333820D01*
X126232493Y-90386699D01*
X126190967Y-90425796D01*
X126128736Y-90451873D01*
X126044969Y-90465695D01*
X125990540Y-90472940D01*
X125940860Y-90488615D01*
X125915211Y-90511314D01*
X125913662Y-90540998D01*
X125923984Y-90559507D01*
X125955951Y-90581443D01*
X126001395Y-90591818D01*
X126054649Y-90590399D01*
X126110048Y-90576952D01*
X126161928Y-90551243D01*
X126213653Y-90517013D01*
X126259148Y-90563049D01*
X126304643Y-90609084D01*
X126266921Y-90639876D01*
X126252253Y-90650574D01*
X126210983Y-90674880D01*
X126166327Y-90695825D01*
X126130984Y-90707845D01*
X126079234Y-90716552D01*
X126015435Y-90716667D01*
X125937200Y-90707081D01*
X125866722Y-90682783D01*
X125816836Y-90644188D01*
X125787423Y-90591198D01*
X125778365Y-90523718D01*
X125784921Y-90464354D01*
X125805970Y-90415752D01*
X125843864Y-90380946D01*
X125901004Y-90357798D01*
X125979785Y-90344170D01*
X125988834Y-90343183D01*
X126037885Y-90336892D01*
X126077675Y-90330309D01*
X126100312Y-90324708D01*
X126107866Y-90320197D01*
X126120637Y-90296941D01*
X126118563Y-90267171D01*
X126101495Y-90241327D01*
X126092533Y-90235691D01*
X126055188Y-90226660D01*
X126006950Y-90227267D01*
X125956650Y-90236878D01*
X125913115Y-90254858D01*
X125867372Y-90281847D01*
X125831890Y-90240384D01*
X125823280Y-90229850D01*
X125803883Y-90201632D01*
X125795897Y-90182508D01*
X125804283Y-90170781D01*
X125830226Y-90152476D01*
X125867688Y-90132777D01*
X125872966Y-90130370D01*
X125922366Y-90111482D01*
X125969983Y-90102452D01*
X126029072Y-90100639D01*
X126082874Y-90104207D01*
G36*
X126082874Y-90104207D02*
G01*
X126155495Y-90122408D01*
X126208546Y-90156144D01*
X126242329Y-90205642D01*
X126257147Y-90271126D01*
X126254147Y-90333820D01*
X126232493Y-90386699D01*
X126190967Y-90425796D01*
X126128736Y-90451873D01*
X126044969Y-90465695D01*
X125990540Y-90472940D01*
X125940860Y-90488615D01*
X125915211Y-90511314D01*
X125913662Y-90540998D01*
X125923984Y-90559507D01*
X125955951Y-90581443D01*
X126001395Y-90591818D01*
X126054649Y-90590399D01*
X126110048Y-90576952D01*
X126161928Y-90551243D01*
X126213653Y-90517013D01*
X126259148Y-90563049D01*
X126304643Y-90609084D01*
X126266921Y-90639876D01*
X126252253Y-90650574D01*
X126210983Y-90674880D01*
X126166327Y-90695825D01*
X126130984Y-90707845D01*
X126079234Y-90716552D01*
X126015435Y-90716667D01*
X125937200Y-90707081D01*
X125866722Y-90682783D01*
X125816836Y-90644188D01*
X125787423Y-90591198D01*
X125778365Y-90523718D01*
X125784921Y-90464354D01*
X125805970Y-90415752D01*
X125843864Y-90380946D01*
X125901004Y-90357798D01*
X125979785Y-90344170D01*
X125988834Y-90343183D01*
X126037885Y-90336892D01*
X126077675Y-90330309D01*
X126100312Y-90324708D01*
X126107866Y-90320197D01*
X126120637Y-90296941D01*
X126118563Y-90267171D01*
X126101495Y-90241327D01*
X126092533Y-90235691D01*
X126055188Y-90226660D01*
X126006950Y-90227267D01*
X125956650Y-90236878D01*
X125913115Y-90254858D01*
X125867372Y-90281847D01*
X125831890Y-90240384D01*
X125823280Y-90229850D01*
X125803883Y-90201632D01*
X125795897Y-90182508D01*
X125804283Y-90170781D01*
X125830226Y-90152476D01*
X125867688Y-90132777D01*
X125872966Y-90130370D01*
X125922366Y-90111482D01*
X125969983Y-90102452D01*
X126029072Y-90100639D01*
X126082874Y-90104207D01*
G37*
X124248353Y-91355753D02*
X124246718Y-91402692D01*
X124231827Y-91492459D01*
X124201185Y-91563045D01*
X124154524Y-91614952D01*
X124091574Y-91648686D01*
X124071235Y-91654647D01*
X123998612Y-91662971D01*
X123921928Y-91655946D01*
X123852663Y-91634265D01*
X123828262Y-91621959D01*
X123793275Y-91600879D01*
X123772072Y-91583534D01*
X123768942Y-91579571D01*
X123763085Y-91565077D01*
X123771524Y-91549321D01*
X123797221Y-91525460D01*
X123809622Y-91515072D01*
X123834052Y-91496063D01*
X123846861Y-91488293D01*
X123850530Y-91489094D01*
X123871561Y-91497745D01*
X123902960Y-91512931D01*
X123913197Y-91517926D01*
X123973590Y-91536475D01*
X124026057Y-91531694D01*
X124072065Y-91503500D01*
X124077419Y-91498291D01*
X124103013Y-91465659D01*
X124117637Y-91434342D01*
X124125736Y-91399763D01*
X123745782Y-91399763D01*
X123745852Y-91333748D01*
X123745892Y-91327182D01*
X123751022Y-91274218D01*
X123884099Y-91274218D01*
X123885670Y-91285203D01*
X123893738Y-91292773D01*
X123912967Y-91296975D01*
X123948019Y-91298783D01*
X124003554Y-91299169D01*
X124034429Y-91298768D01*
X124080002Y-91296429D01*
X124111348Y-91292465D01*
X124123010Y-91287413D01*
X124113064Y-91245827D01*
X124083947Y-91207013D01*
X124041952Y-91180086D01*
X123993440Y-91170772D01*
X123957723Y-91181272D01*
X123922020Y-91206940D01*
X123894879Y-91240381D01*
X123884099Y-91274218D01*
X123751022Y-91274218D01*
X123753758Y-91245965D01*
X123776655Y-91179895D01*
X123816607Y-91122940D01*
X123840979Y-91098848D01*
X123891315Y-91066597D01*
X123951419Y-91050970D01*
X124027338Y-91049871D01*
X124064010Y-91054179D01*
X124131703Y-91076549D01*
X124183530Y-91117263D01*
X124219945Y-91176949D01*
X124241401Y-91256236D01*
X124243579Y-91287413D01*
X124248353Y-91355753D01*
G36*
X124248353Y-91355753D02*
G01*
X124246718Y-91402692D01*
X124231827Y-91492459D01*
X124201185Y-91563045D01*
X124154524Y-91614952D01*
X124091574Y-91648686D01*
X124071235Y-91654647D01*
X123998612Y-91662971D01*
X123921928Y-91655946D01*
X123852663Y-91634265D01*
X123828262Y-91621959D01*
X123793275Y-91600879D01*
X123772072Y-91583534D01*
X123768942Y-91579571D01*
X123763085Y-91565077D01*
X123771524Y-91549321D01*
X123797221Y-91525460D01*
X123809622Y-91515072D01*
X123834052Y-91496063D01*
X123846861Y-91488293D01*
X123850530Y-91489094D01*
X123871561Y-91497745D01*
X123902960Y-91512931D01*
X123913197Y-91517926D01*
X123973590Y-91536475D01*
X124026057Y-91531694D01*
X124072065Y-91503500D01*
X124077419Y-91498291D01*
X124103013Y-91465659D01*
X124117637Y-91434342D01*
X124125736Y-91399763D01*
X123745782Y-91399763D01*
X123745852Y-91333748D01*
X123745892Y-91327182D01*
X123751022Y-91274218D01*
X123884099Y-91274218D01*
X123885670Y-91285203D01*
X123893738Y-91292773D01*
X123912967Y-91296975D01*
X123948019Y-91298783D01*
X124003554Y-91299169D01*
X124034429Y-91298768D01*
X124080002Y-91296429D01*
X124111348Y-91292465D01*
X124123010Y-91287413D01*
X124113064Y-91245827D01*
X124083947Y-91207013D01*
X124041952Y-91180086D01*
X123993440Y-91170772D01*
X123957723Y-91181272D01*
X123922020Y-91206940D01*
X123894879Y-91240381D01*
X123884099Y-91274218D01*
X123751022Y-91274218D01*
X123753758Y-91245965D01*
X123776655Y-91179895D01*
X123816607Y-91122940D01*
X123840979Y-91098848D01*
X123891315Y-91066597D01*
X123951419Y-91050970D01*
X124027338Y-91049871D01*
X124064010Y-91054179D01*
X124131703Y-91076549D01*
X124183530Y-91117263D01*
X124219945Y-91176949D01*
X124241401Y-91256236D01*
X124243579Y-91287413D01*
X124248353Y-91355753D01*
G37*
X127691022Y-90330861D02*
X127695421Y-90418936D01*
X127694322Y-90457371D01*
X127681926Y-90541367D01*
X127654608Y-90607595D01*
X127610941Y-90658784D01*
X127549495Y-90697663D01*
X127489888Y-90715812D01*
X127415110Y-90719284D01*
X127339664Y-90705930D01*
X127272366Y-90676425D01*
X127247428Y-90660012D01*
X127219951Y-90638973D01*
X127207414Y-90625129D01*
X127208124Y-90619417D01*
X127222158Y-90599955D01*
X127248533Y-90576376D01*
X127294240Y-90541513D01*
X127347799Y-90568262D01*
X127362282Y-90574882D01*
X127404916Y-90589273D01*
X127440649Y-90595010D01*
X127466998Y-90590282D01*
X127508347Y-90567514D01*
X127543104Y-90532170D01*
X127562983Y-90491273D01*
X127571083Y-90456693D01*
X127191129Y-90456693D01*
X127191199Y-90390679D01*
X127191774Y-90369757D01*
X127195972Y-90324862D01*
X127329445Y-90324862D01*
X127329690Y-90327434D01*
X127336604Y-90335443D01*
X127356141Y-90340364D01*
X127392467Y-90342843D01*
X127449748Y-90343525D01*
X127468575Y-90343517D01*
X127517470Y-90343065D01*
X127546863Y-90341113D01*
X127561115Y-90336558D01*
X127564582Y-90328299D01*
X127561625Y-90315233D01*
X127561173Y-90313752D01*
X127535699Y-90268285D01*
X127495539Y-90236981D01*
X127447651Y-90225327D01*
X127429949Y-90226259D01*
X127397094Y-90237408D01*
X127365575Y-90265763D01*
X127357085Y-90275789D01*
X127337336Y-90304423D01*
X127329445Y-90324862D01*
X127195972Y-90324862D01*
X127196512Y-90319091D01*
X127204459Y-90277166D01*
X127213168Y-90253696D01*
X127243790Y-90202646D01*
X127284799Y-90156283D01*
X127328168Y-90124514D01*
X127340699Y-90118614D01*
X127413661Y-90099046D01*
X127488168Y-90101109D01*
X127558217Y-90123931D01*
X127617807Y-90166639D01*
X127650038Y-90206025D01*
X127676392Y-90261510D01*
X127690482Y-90328299D01*
X127691022Y-90330861D01*
G36*
X127691022Y-90330861D02*
G01*
X127695421Y-90418936D01*
X127694322Y-90457371D01*
X127681926Y-90541367D01*
X127654608Y-90607595D01*
X127610941Y-90658784D01*
X127549495Y-90697663D01*
X127489888Y-90715812D01*
X127415110Y-90719284D01*
X127339664Y-90705930D01*
X127272366Y-90676425D01*
X127247428Y-90660012D01*
X127219951Y-90638973D01*
X127207414Y-90625129D01*
X127208124Y-90619417D01*
X127222158Y-90599955D01*
X127248533Y-90576376D01*
X127294240Y-90541513D01*
X127347799Y-90568262D01*
X127362282Y-90574882D01*
X127404916Y-90589273D01*
X127440649Y-90595010D01*
X127466998Y-90590282D01*
X127508347Y-90567514D01*
X127543104Y-90532170D01*
X127562983Y-90491273D01*
X127571083Y-90456693D01*
X127191129Y-90456693D01*
X127191199Y-90390679D01*
X127191774Y-90369757D01*
X127195972Y-90324862D01*
X127329445Y-90324862D01*
X127329690Y-90327434D01*
X127336604Y-90335443D01*
X127356141Y-90340364D01*
X127392467Y-90342843D01*
X127449748Y-90343525D01*
X127468575Y-90343517D01*
X127517470Y-90343065D01*
X127546863Y-90341113D01*
X127561115Y-90336558D01*
X127564582Y-90328299D01*
X127561625Y-90315233D01*
X127561173Y-90313752D01*
X127535699Y-90268285D01*
X127495539Y-90236981D01*
X127447651Y-90225327D01*
X127429949Y-90226259D01*
X127397094Y-90237408D01*
X127365575Y-90265763D01*
X127357085Y-90275789D01*
X127337336Y-90304423D01*
X127329445Y-90324862D01*
X127195972Y-90324862D01*
X127196512Y-90319091D01*
X127204459Y-90277166D01*
X127213168Y-90253696D01*
X127243790Y-90202646D01*
X127284799Y-90156283D01*
X127328168Y-90124514D01*
X127340699Y-90118614D01*
X127413661Y-90099046D01*
X127488168Y-90101109D01*
X127558217Y-90123931D01*
X127617807Y-90166639D01*
X127650038Y-90206025D01*
X127676392Y-90261510D01*
X127690482Y-90328299D01*
X127691022Y-90330861D01*
G37*
X125273413Y-91498333D02*
X125258244Y-91555419D01*
X125225277Y-91604255D01*
X125175270Y-91639386D01*
X125170362Y-91641521D01*
X125115646Y-91656903D01*
X125053993Y-91662899D01*
X124995376Y-91659233D01*
X124949767Y-91645629D01*
X124931549Y-91636754D01*
X124918179Y-91634637D01*
X124915188Y-91645706D01*
X124909524Y-91655942D01*
X124887607Y-91662038D01*
X124845068Y-91663822D01*
X124774948Y-91663822D01*
X124778680Y-91443773D01*
X124915188Y-91443773D01*
X124919924Y-91476666D01*
X124940336Y-91512931D01*
X124947871Y-91519597D01*
X124978753Y-91533620D01*
X125025213Y-91537228D01*
X125053090Y-91535819D01*
X125105255Y-91525204D01*
X125137587Y-91505425D01*
X125148492Y-91477824D01*
X125136374Y-91443743D01*
X125129304Y-91434824D01*
X125097724Y-91414818D01*
X125047744Y-91403395D01*
X124976487Y-91399763D01*
X124915188Y-91399763D01*
X124915188Y-91443773D01*
X124778680Y-91443773D01*
X124779053Y-91421768D01*
X124780169Y-91365794D01*
X124783106Y-91281996D01*
X124788058Y-91217920D01*
X124796002Y-91170073D01*
X124807917Y-91134962D01*
X124824780Y-91109093D01*
X124847572Y-91088974D01*
X124877269Y-91071110D01*
X124892589Y-91064290D01*
X124945589Y-91051417D01*
X125009513Y-91046095D01*
X125075602Y-91048227D01*
X125135099Y-91057714D01*
X125179247Y-91074461D01*
X125194604Y-91084185D01*
X125229960Y-91113005D01*
X125241926Y-91137137D01*
X125239020Y-91141800D01*
X125220909Y-91158088D01*
X125191672Y-91179817D01*
X125176725Y-91189987D01*
X125151270Y-91204397D01*
X125134728Y-91205773D01*
X125119370Y-91195827D01*
X125081094Y-91175684D01*
X125029590Y-91167400D01*
X124976957Y-91173742D01*
X124975961Y-91174030D01*
X124938838Y-91190158D01*
X124920463Y-91215405D01*
X124915380Y-91257158D01*
X124915188Y-91296879D01*
X125046423Y-91301168D01*
X125067331Y-91301873D01*
X125120043Y-91304326D01*
X125155381Y-91308180D01*
X125179267Y-91314878D01*
X125197624Y-91325864D01*
X125216376Y-91342580D01*
X125247337Y-91381244D01*
X125270029Y-91438456D01*
X125272254Y-91477824D01*
X125273413Y-91498333D01*
G36*
X125273413Y-91498333D02*
G01*
X125258244Y-91555419D01*
X125225277Y-91604255D01*
X125175270Y-91639386D01*
X125170362Y-91641521D01*
X125115646Y-91656903D01*
X125053993Y-91662899D01*
X124995376Y-91659233D01*
X124949767Y-91645629D01*
X124931549Y-91636754D01*
X124918179Y-91634637D01*
X124915188Y-91645706D01*
X124909524Y-91655942D01*
X124887607Y-91662038D01*
X124845068Y-91663822D01*
X124774948Y-91663822D01*
X124778680Y-91443773D01*
X124915188Y-91443773D01*
X124919924Y-91476666D01*
X124940336Y-91512931D01*
X124947871Y-91519597D01*
X124978753Y-91533620D01*
X125025213Y-91537228D01*
X125053090Y-91535819D01*
X125105255Y-91525204D01*
X125137587Y-91505425D01*
X125148492Y-91477824D01*
X125136374Y-91443743D01*
X125129304Y-91434824D01*
X125097724Y-91414818D01*
X125047744Y-91403395D01*
X124976487Y-91399763D01*
X124915188Y-91399763D01*
X124915188Y-91443773D01*
X124778680Y-91443773D01*
X124779053Y-91421768D01*
X124780169Y-91365794D01*
X124783106Y-91281996D01*
X124788058Y-91217920D01*
X124796002Y-91170073D01*
X124807917Y-91134962D01*
X124824780Y-91109093D01*
X124847572Y-91088974D01*
X124877269Y-91071110D01*
X124892589Y-91064290D01*
X124945589Y-91051417D01*
X125009513Y-91046095D01*
X125075602Y-91048227D01*
X125135099Y-91057714D01*
X125179247Y-91074461D01*
X125194604Y-91084185D01*
X125229960Y-91113005D01*
X125241926Y-91137137D01*
X125239020Y-91141800D01*
X125220909Y-91158088D01*
X125191672Y-91179817D01*
X125176725Y-91189987D01*
X125151270Y-91204397D01*
X125134728Y-91205773D01*
X125119370Y-91195827D01*
X125081094Y-91175684D01*
X125029590Y-91167400D01*
X124976957Y-91173742D01*
X124975961Y-91174030D01*
X124938838Y-91190158D01*
X124920463Y-91215405D01*
X124915380Y-91257158D01*
X124915188Y-91296879D01*
X125046423Y-91301168D01*
X125067331Y-91301873D01*
X125120043Y-91304326D01*
X125155381Y-91308180D01*
X125179267Y-91314878D01*
X125197624Y-91325864D01*
X125216376Y-91342580D01*
X125247337Y-91381244D01*
X125270029Y-91438456D01*
X125272254Y-91477824D01*
X125273413Y-91498333D01*
G37*
X127691299Y-91496223D02*
X127691157Y-91497882D01*
X127675835Y-91562479D01*
X127641753Y-91611063D01*
X127587218Y-91646072D01*
X127559036Y-91654589D01*
X127510764Y-91661228D01*
X127457978Y-91662813D01*
X127410353Y-91659160D01*
X127377566Y-91650083D01*
X127357652Y-91642813D01*
X127338155Y-91650083D01*
X127331023Y-91654295D01*
X127302557Y-91661126D01*
X127264059Y-91663822D01*
X127203703Y-91663822D01*
X127203703Y-91448111D01*
X127342020Y-91448111D01*
X127346668Y-91484904D01*
X127365015Y-91517269D01*
X127375514Y-91524274D01*
X127412988Y-91535191D01*
X127459773Y-91537917D01*
X127505652Y-91532379D01*
X127540410Y-91518505D01*
X127557726Y-91500161D01*
X127568356Y-91467566D01*
X127558929Y-91441729D01*
X127527764Y-91419263D01*
X127477667Y-91404850D01*
X127411582Y-91399763D01*
X127342020Y-91399763D01*
X127342020Y-91448111D01*
X127203703Y-91448111D01*
X127203703Y-91420484D01*
X127203707Y-91399440D01*
X127203937Y-91320122D01*
X127204797Y-91261154D01*
X127206679Y-91218616D01*
X127209974Y-91188592D01*
X127215073Y-91167163D01*
X127222366Y-91150411D01*
X127232246Y-91134419D01*
X127264023Y-91096948D01*
X127309055Y-91068339D01*
X127368210Y-91052555D01*
X127446161Y-91047703D01*
X127448695Y-91047708D01*
X127502880Y-91050155D01*
X127551380Y-91056256D01*
X127584478Y-91064809D01*
X127593552Y-91069096D01*
X127622433Y-91087248D01*
X127648568Y-91108822D01*
X127665764Y-91128236D01*
X127667825Y-91139909D01*
X127663803Y-91143063D01*
X127619976Y-91176739D01*
X127590671Y-91196600D01*
X127571294Y-91204613D01*
X127557253Y-91202746D01*
X127543957Y-91192965D01*
X127519418Y-91180756D01*
X127478064Y-91172615D01*
X127431326Y-91170503D01*
X127389034Y-91174800D01*
X127361017Y-91185887D01*
X127359543Y-91187236D01*
X127346953Y-91212581D01*
X127342020Y-91250411D01*
X127342020Y-91299169D01*
X127458331Y-91299216D01*
X127511760Y-91300061D01*
X127556735Y-91303740D01*
X127588907Y-91311309D01*
X127614899Y-91323808D01*
X127620948Y-91327647D01*
X127664710Y-91369845D01*
X127687987Y-91425647D01*
X127689955Y-91467566D01*
X127691299Y-91496223D01*
G36*
X127691299Y-91496223D02*
G01*
X127691157Y-91497882D01*
X127675835Y-91562479D01*
X127641753Y-91611063D01*
X127587218Y-91646072D01*
X127559036Y-91654589D01*
X127510764Y-91661228D01*
X127457978Y-91662813D01*
X127410353Y-91659160D01*
X127377566Y-91650083D01*
X127357652Y-91642813D01*
X127338155Y-91650083D01*
X127331023Y-91654295D01*
X127302557Y-91661126D01*
X127264059Y-91663822D01*
X127203703Y-91663822D01*
X127203703Y-91448111D01*
X127342020Y-91448111D01*
X127346668Y-91484904D01*
X127365015Y-91517269D01*
X127375514Y-91524274D01*
X127412988Y-91535191D01*
X127459773Y-91537917D01*
X127505652Y-91532379D01*
X127540410Y-91518505D01*
X127557726Y-91500161D01*
X127568356Y-91467566D01*
X127558929Y-91441729D01*
X127527764Y-91419263D01*
X127477667Y-91404850D01*
X127411582Y-91399763D01*
X127342020Y-91399763D01*
X127342020Y-91448111D01*
X127203703Y-91448111D01*
X127203703Y-91420484D01*
X127203707Y-91399440D01*
X127203937Y-91320122D01*
X127204797Y-91261154D01*
X127206679Y-91218616D01*
X127209974Y-91188592D01*
X127215073Y-91167163D01*
X127222366Y-91150411D01*
X127232246Y-91134419D01*
X127264023Y-91096948D01*
X127309055Y-91068339D01*
X127368210Y-91052555D01*
X127446161Y-91047703D01*
X127448695Y-91047708D01*
X127502880Y-91050155D01*
X127551380Y-91056256D01*
X127584478Y-91064809D01*
X127593552Y-91069096D01*
X127622433Y-91087248D01*
X127648568Y-91108822D01*
X127665764Y-91128236D01*
X127667825Y-91139909D01*
X127663803Y-91143063D01*
X127619976Y-91176739D01*
X127590671Y-91196600D01*
X127571294Y-91204613D01*
X127557253Y-91202746D01*
X127543957Y-91192965D01*
X127519418Y-91180756D01*
X127478064Y-91172615D01*
X127431326Y-91170503D01*
X127389034Y-91174800D01*
X127361017Y-91185887D01*
X127359543Y-91187236D01*
X127346953Y-91212581D01*
X127342020Y-91250411D01*
X127342020Y-91299169D01*
X127458331Y-91299216D01*
X127511760Y-91300061D01*
X127556735Y-91303740D01*
X127588907Y-91311309D01*
X127614899Y-91323808D01*
X127620948Y-91327647D01*
X127664710Y-91369845D01*
X127687987Y-91425647D01*
X127689955Y-91467566D01*
X127691299Y-91496223D01*
G37*
X128259940Y-91665136D02*
X128193926Y-91661336D01*
X128127911Y-91657535D01*
X128124772Y-91456347D01*
X128123844Y-91407425D01*
X128121208Y-91333926D01*
X128116683Y-91279991D01*
X128109438Y-91241995D01*
X128098642Y-91216313D01*
X128083462Y-91199320D01*
X128063066Y-91187389D01*
X128024797Y-91175205D01*
X127986738Y-91179940D01*
X127946549Y-91205979D01*
X127907861Y-91238533D01*
X127907861Y-91663822D01*
X127769544Y-91663822D01*
X127769544Y-91433176D01*
X127769677Y-91360882D01*
X127770413Y-91296641D01*
X127772181Y-91249618D01*
X127775411Y-91215548D01*
X127780530Y-91190170D01*
X127787967Y-91169221D01*
X127798150Y-91148436D01*
X127800564Y-91144024D01*
X127832675Y-91101047D01*
X127870256Y-91071013D01*
X127915564Y-91055243D01*
X127975561Y-91048222D01*
X128035643Y-91052025D01*
X128084525Y-91066868D01*
X128121624Y-91086052D01*
X128121624Y-90670859D01*
X128070792Y-90697354D01*
X128049558Y-90706980D01*
X127982536Y-90720592D01*
X127915930Y-90711184D01*
X127854187Y-90679905D01*
X127801757Y-90627902D01*
X127793543Y-90615680D01*
X127785649Y-90597763D01*
X127780500Y-90573404D01*
X127777527Y-90537927D01*
X127776161Y-90486656D01*
X127775915Y-90433236D01*
X127908749Y-90433236D01*
X127908861Y-90477849D01*
X127912272Y-90507601D01*
X127919937Y-90528835D01*
X127932814Y-90547896D01*
X127949171Y-90565617D01*
X127975329Y-90579028D01*
X128014742Y-90582436D01*
X128049559Y-90579471D01*
X128084020Y-90564631D01*
X128106215Y-90534569D01*
X128118097Y-90486254D01*
X128121624Y-90416650D01*
X128120712Y-90379624D01*
X128111609Y-90309728D01*
X128092828Y-90262464D01*
X128064476Y-90238168D01*
X128035840Y-90231332D01*
X127985970Y-90234537D01*
X127943833Y-90254380D01*
X127933749Y-90263480D01*
X127923063Y-90279223D01*
X127916456Y-90302658D01*
X127912532Y-90339604D01*
X127909897Y-90395880D01*
X127908749Y-90433236D01*
X127775915Y-90433236D01*
X127775831Y-90414917D01*
X127775944Y-90382184D01*
X127777872Y-90306044D01*
X127783240Y-90249166D01*
X127793406Y-90207249D01*
X127809725Y-90175996D01*
X127833553Y-90151106D01*
X127866247Y-90128282D01*
X127892759Y-90115184D01*
X127955615Y-90100739D01*
X128021869Y-90102707D01*
X128080757Y-90121433D01*
X128106030Y-90133673D01*
X128118742Y-90134938D01*
X128121624Y-90123798D01*
X128121626Y-90123461D01*
X128127838Y-90112087D01*
X128149260Y-90106256D01*
X128190782Y-90104614D01*
X128259940Y-90104614D01*
X128259940Y-90416650D01*
X128259940Y-91665136D01*
G36*
X128259940Y-91665136D02*
G01*
X128193926Y-91661336D01*
X128127911Y-91657535D01*
X128124772Y-91456347D01*
X128123844Y-91407425D01*
X128121208Y-91333926D01*
X128116683Y-91279991D01*
X128109438Y-91241995D01*
X128098642Y-91216313D01*
X128083462Y-91199320D01*
X128063066Y-91187389D01*
X128024797Y-91175205D01*
X127986738Y-91179940D01*
X127946549Y-91205979D01*
X127907861Y-91238533D01*
X127907861Y-91663822D01*
X127769544Y-91663822D01*
X127769544Y-91433176D01*
X127769677Y-91360882D01*
X127770413Y-91296641D01*
X127772181Y-91249618D01*
X127775411Y-91215548D01*
X127780530Y-91190170D01*
X127787967Y-91169221D01*
X127798150Y-91148436D01*
X127800564Y-91144024D01*
X127832675Y-91101047D01*
X127870256Y-91071013D01*
X127915564Y-91055243D01*
X127975561Y-91048222D01*
X128035643Y-91052025D01*
X128084525Y-91066868D01*
X128121624Y-91086052D01*
X128121624Y-90670859D01*
X128070792Y-90697354D01*
X128049558Y-90706980D01*
X127982536Y-90720592D01*
X127915930Y-90711184D01*
X127854187Y-90679905D01*
X127801757Y-90627902D01*
X127793543Y-90615680D01*
X127785649Y-90597763D01*
X127780500Y-90573404D01*
X127777527Y-90537927D01*
X127776161Y-90486656D01*
X127775915Y-90433236D01*
X127908749Y-90433236D01*
X127908861Y-90477849D01*
X127912272Y-90507601D01*
X127919937Y-90528835D01*
X127932814Y-90547896D01*
X127949171Y-90565617D01*
X127975329Y-90579028D01*
X128014742Y-90582436D01*
X128049559Y-90579471D01*
X128084020Y-90564631D01*
X128106215Y-90534569D01*
X128118097Y-90486254D01*
X128121624Y-90416650D01*
X128120712Y-90379624D01*
X128111609Y-90309728D01*
X128092828Y-90262464D01*
X128064476Y-90238168D01*
X128035840Y-90231332D01*
X127985970Y-90234537D01*
X127943833Y-90254380D01*
X127933749Y-90263480D01*
X127923063Y-90279223D01*
X127916456Y-90302658D01*
X127912532Y-90339604D01*
X127909897Y-90395880D01*
X127908749Y-90433236D01*
X127775915Y-90433236D01*
X127775831Y-90414917D01*
X127775944Y-90382184D01*
X127777872Y-90306044D01*
X127783240Y-90249166D01*
X127793406Y-90207249D01*
X127809725Y-90175996D01*
X127833553Y-90151106D01*
X127866247Y-90128282D01*
X127892759Y-90115184D01*
X127955615Y-90100739D01*
X128021869Y-90102707D01*
X128080757Y-90121433D01*
X128106030Y-90133673D01*
X128118742Y-90134938D01*
X128121624Y-90123798D01*
X128121626Y-90123461D01*
X128127838Y-90112087D01*
X128149260Y-90106256D01*
X128190782Y-90104614D01*
X128259940Y-90104614D01*
X128259940Y-90416650D01*
X128259940Y-91665136D01*
G37*
X126348389Y-85936018D02*
X126405237Y-86237570D01*
X126615001Y-86324041D01*
X126824764Y-86410512D01*
X127076410Y-86239395D01*
X127126216Y-86205661D01*
X127192244Y-86161381D01*
X127249410Y-86123561D01*
X127294744Y-86094142D01*
X127325280Y-86075067D01*
X127338046Y-86068278D01*
X127345887Y-86073106D01*
X127369325Y-86093339D01*
X127404794Y-86126543D01*
X127449289Y-86169670D01*
X127499805Y-86219670D01*
X127553336Y-86273495D01*
X127606877Y-86328095D01*
X127657423Y-86380423D01*
X127701968Y-86427428D01*
X127737507Y-86466063D01*
X127761034Y-86493278D01*
X127769544Y-86506024D01*
X127767565Y-86511500D01*
X127753857Y-86535927D01*
X127728825Y-86576129D01*
X127694499Y-86628952D01*
X127652907Y-86691247D01*
X127606079Y-86759862D01*
X127580380Y-86797283D01*
X127536173Y-86862432D01*
X127498272Y-86919289D01*
X127468698Y-86964770D01*
X127449472Y-86995793D01*
X127442614Y-87009274D01*
X127442726Y-87010021D01*
X127448776Y-87027110D01*
X127462654Y-87062006D01*
X127482427Y-87110151D01*
X127506160Y-87166986D01*
X127531918Y-87227953D01*
X127557766Y-87288492D01*
X127581771Y-87344047D01*
X127601998Y-87390057D01*
X127616511Y-87421965D01*
X127623377Y-87435212D01*
X127627439Y-87436387D01*
X127652121Y-87441687D01*
X127696111Y-87450467D01*
X127755887Y-87462040D01*
X127827929Y-87475721D01*
X127908716Y-87490823D01*
X127951294Y-87498830D01*
X128029445Y-87514107D01*
X128097775Y-87528215D01*
X128152551Y-87540345D01*
X128190037Y-87549686D01*
X128206500Y-87555427D01*
X128209457Y-87561119D01*
X128214362Y-87588930D01*
X128218216Y-87635250D01*
X128221021Y-87695720D01*
X128222781Y-87765983D01*
X128223499Y-87841680D01*
X128223177Y-87918453D01*
X128221819Y-87991944D01*
X128219428Y-88057794D01*
X128216006Y-88111645D01*
X128211556Y-88149138D01*
X128206082Y-88165916D01*
X128202760Y-88167809D01*
X128177987Y-88175926D01*
X128135011Y-88186666D01*
X128078802Y-88198853D01*
X128014325Y-88211310D01*
X127992570Y-88215277D01*
X127892093Y-88233729D01*
X127813126Y-88248559D01*
X127752934Y-88260380D01*
X127708778Y-88269809D01*
X127677920Y-88277460D01*
X127657625Y-88283948D01*
X127645154Y-88289888D01*
X127637771Y-88295894D01*
X127636913Y-88296902D01*
X127624838Y-88317919D01*
X127606971Y-88356376D01*
X127585042Y-88407761D01*
X127560784Y-88467563D01*
X127535927Y-88531270D01*
X127512205Y-88594371D01*
X127491347Y-88652355D01*
X127475087Y-88700709D01*
X127465156Y-88734922D01*
X127463285Y-88750483D01*
X127464536Y-88752502D01*
X127477486Y-88772028D01*
X127501840Y-88808042D01*
X127535340Y-88857228D01*
X127575727Y-88916267D01*
X127620745Y-88981842D01*
X127633100Y-88999884D01*
X127676545Y-89064599D01*
X127714091Y-89122476D01*
X127743594Y-89170082D01*
X127762914Y-89203985D01*
X127769905Y-89220752D01*
X127768398Y-89225161D01*
X127752695Y-89246882D01*
X127721714Y-89282354D01*
X127677673Y-89329188D01*
X127622790Y-89384996D01*
X127559286Y-89447392D01*
X127522988Y-89482317D01*
X127465595Y-89536711D01*
X127415361Y-89583302D01*
X127374984Y-89619636D01*
X127347161Y-89643261D01*
X127334590Y-89651724D01*
X127325952Y-89648587D01*
X127299360Y-89633747D01*
X127260741Y-89609477D01*
X127215134Y-89578852D01*
X127182707Y-89556503D01*
X127117970Y-89512122D01*
X127048886Y-89464987D01*
X126985787Y-89422155D01*
X126862178Y-89338547D01*
X126758417Y-89394650D01*
X126733984Y-89407599D01*
X126689552Y-89429749D01*
X126655191Y-89445041D01*
X126636828Y-89450743D01*
X126630818Y-89443421D01*
X126615895Y-89415541D01*
X126593852Y-89369575D01*
X126565917Y-89308441D01*
X126533317Y-89235055D01*
X126497276Y-89152335D01*
X126459023Y-89063197D01*
X126419783Y-88970559D01*
X126380783Y-88877337D01*
X126343249Y-88786450D01*
X126308409Y-88700814D01*
X126277488Y-88623345D01*
X126251714Y-88556962D01*
X126232311Y-88504582D01*
X126220508Y-88469121D01*
X126217531Y-88453496D01*
X126217732Y-88453039D01*
X126231601Y-88438595D01*
X126260611Y-88415974D01*
X126298772Y-88389864D01*
X126310817Y-88381892D01*
X126402469Y-88306256D01*
X126478323Y-88216169D01*
X126536581Y-88115381D01*
X126575448Y-88007640D01*
X126593128Y-87896697D01*
X126587826Y-87786303D01*
X126566347Y-87688115D01*
X126527782Y-87588966D01*
X126471562Y-87500512D01*
X126394410Y-87416487D01*
X126364095Y-87389645D01*
X126266094Y-87323510D01*
X126160227Y-87278970D01*
X126049561Y-87255625D01*
X125937164Y-87253078D01*
X125826105Y-87270929D01*
X125719451Y-87308780D01*
X125620270Y-87366232D01*
X125531631Y-87442887D01*
X125456600Y-87538345D01*
X125442175Y-87561985D01*
X125393143Y-87670034D01*
X125367103Y-87782548D01*
X125363372Y-87896614D01*
X125381268Y-88009318D01*
X125420109Y-88117745D01*
X125479214Y-88218982D01*
X125557900Y-88310114D01*
X125655485Y-88388228D01*
X125658654Y-88390333D01*
X125696411Y-88416940D01*
X125724709Y-88439561D01*
X125737634Y-88453496D01*
X125736003Y-88464421D01*
X125725864Y-88496231D01*
X125707884Y-88545534D01*
X125683292Y-88609413D01*
X125653311Y-88684948D01*
X125619170Y-88769223D01*
X125582092Y-88859320D01*
X125543306Y-88952321D01*
X125504036Y-89045308D01*
X125465509Y-89135364D01*
X125428950Y-89219571D01*
X125395586Y-89295010D01*
X125366643Y-89358765D01*
X125343346Y-89407917D01*
X125326923Y-89439549D01*
X125318598Y-89450743D01*
X125311674Y-89449227D01*
X125284477Y-89438331D01*
X125244280Y-89419228D01*
X125197009Y-89394650D01*
X125093248Y-89338547D01*
X124969639Y-89422155D01*
X124933120Y-89446913D01*
X124865194Y-89493171D01*
X124797475Y-89539503D01*
X124740291Y-89578852D01*
X124708732Y-89600297D01*
X124667714Y-89626939D01*
X124637301Y-89645178D01*
X124622446Y-89651941D01*
X124616065Y-89649070D01*
X124592996Y-89631485D01*
X124557433Y-89600523D01*
X124512471Y-89559231D01*
X124461206Y-89510653D01*
X124406733Y-89457835D01*
X124352148Y-89403823D01*
X124300547Y-89351661D01*
X124255024Y-89304396D01*
X124218675Y-89265072D01*
X124194595Y-89236736D01*
X124185881Y-89222432D01*
X124186383Y-89219711D01*
X124196755Y-89197560D01*
X124218912Y-89159235D01*
X124250712Y-89108200D01*
X124290016Y-89047914D01*
X124334681Y-88981842D01*
X124347207Y-88963617D01*
X124391193Y-88899485D01*
X124429937Y-88842789D01*
X124461182Y-88796844D01*
X124482669Y-88764970D01*
X124492140Y-88750483D01*
X124492373Y-88749862D01*
X124489578Y-88732139D01*
X124478903Y-88696235D01*
X124462081Y-88646662D01*
X124440843Y-88587932D01*
X124416921Y-88524556D01*
X124392046Y-88461046D01*
X124367950Y-88401913D01*
X124346365Y-88351669D01*
X124329023Y-88314826D01*
X124317655Y-88295894D01*
X124316516Y-88294719D01*
X124308376Y-88288773D01*
X124294629Y-88282776D01*
X124272537Y-88276114D01*
X124239363Y-88268173D01*
X124192370Y-88258337D01*
X124128820Y-88245991D01*
X124045976Y-88230520D01*
X123941100Y-88211310D01*
X123919348Y-88207267D01*
X123857036Y-88194769D01*
X123804619Y-88182927D01*
X123767066Y-88172917D01*
X123749343Y-88165916D01*
X123746378Y-88160075D01*
X123741435Y-88132016D01*
X123737518Y-88085500D01*
X123734629Y-88024886D01*
X123732773Y-87954532D01*
X123731952Y-87878796D01*
X123732168Y-87802037D01*
X123733426Y-87728612D01*
X123735728Y-87662880D01*
X123739076Y-87609200D01*
X123743474Y-87571930D01*
X123748926Y-87555427D01*
X123754491Y-87552989D01*
X123782178Y-87545305D01*
X123828979Y-87534436D01*
X123891157Y-87521192D01*
X123964979Y-87506384D01*
X124046710Y-87490823D01*
X124091336Y-87482509D01*
X124167824Y-87468092D01*
X124233660Y-87455467D01*
X124285323Y-87445321D01*
X124319293Y-87438341D01*
X124332048Y-87435212D01*
X124332528Y-87434568D01*
X124340651Y-87418181D01*
X124356137Y-87383852D01*
X124377050Y-87336136D01*
X124401455Y-87279586D01*
X124427416Y-87218758D01*
X124452997Y-87158206D01*
X124476262Y-87102485D01*
X124495277Y-87056150D01*
X124508105Y-87023755D01*
X124512812Y-87009855D01*
X124510736Y-87004965D01*
X124496920Y-86981692D01*
X124471860Y-86942519D01*
X124437568Y-86890520D01*
X124396059Y-86828768D01*
X124349346Y-86760336D01*
X124323718Y-86722860D01*
X124279490Y-86657156D01*
X124241570Y-86599492D01*
X124211980Y-86553014D01*
X124192743Y-86520865D01*
X124185881Y-86506190D01*
X124190649Y-86498230D01*
X124210593Y-86474446D01*
X124243313Y-86438451D01*
X124285805Y-86393295D01*
X124335065Y-86342028D01*
X124388091Y-86287701D01*
X124441877Y-86233364D01*
X124493421Y-86182067D01*
X124539720Y-86136859D01*
X124577769Y-86100792D01*
X124604565Y-86076914D01*
X124617105Y-86068278D01*
X124624066Y-86071636D01*
X124649627Y-86087210D01*
X124690874Y-86113715D01*
X124744837Y-86149210D01*
X124808542Y-86191750D01*
X124879016Y-86239395D01*
X125130662Y-86410512D01*
X125550188Y-86237570D01*
X125607036Y-85936018D01*
X125663885Y-85634466D01*
X126291540Y-85634466D01*
X126348389Y-85936018D01*
G36*
X126348389Y-85936018D02*
G01*
X126405237Y-86237570D01*
X126615001Y-86324041D01*
X126824764Y-86410512D01*
X127076410Y-86239395D01*
X127126216Y-86205661D01*
X127192244Y-86161381D01*
X127249410Y-86123561D01*
X127294744Y-86094142D01*
X127325280Y-86075067D01*
X127338046Y-86068278D01*
X127345887Y-86073106D01*
X127369325Y-86093339D01*
X127404794Y-86126543D01*
X127449289Y-86169670D01*
X127499805Y-86219670D01*
X127553336Y-86273495D01*
X127606877Y-86328095D01*
X127657423Y-86380423D01*
X127701968Y-86427428D01*
X127737507Y-86466063D01*
X127761034Y-86493278D01*
X127769544Y-86506024D01*
X127767565Y-86511500D01*
X127753857Y-86535927D01*
X127728825Y-86576129D01*
X127694499Y-86628952D01*
X127652907Y-86691247D01*
X127606079Y-86759862D01*
X127580380Y-86797283D01*
X127536173Y-86862432D01*
X127498272Y-86919289D01*
X127468698Y-86964770D01*
X127449472Y-86995793D01*
X127442614Y-87009274D01*
X127442726Y-87010021D01*
X127448776Y-87027110D01*
X127462654Y-87062006D01*
X127482427Y-87110151D01*
X127506160Y-87166986D01*
X127531918Y-87227953D01*
X127557766Y-87288492D01*
X127581771Y-87344047D01*
X127601998Y-87390057D01*
X127616511Y-87421965D01*
X127623377Y-87435212D01*
X127627439Y-87436387D01*
X127652121Y-87441687D01*
X127696111Y-87450467D01*
X127755887Y-87462040D01*
X127827929Y-87475721D01*
X127908716Y-87490823D01*
X127951294Y-87498830D01*
X128029445Y-87514107D01*
X128097775Y-87528215D01*
X128152551Y-87540345D01*
X128190037Y-87549686D01*
X128206500Y-87555427D01*
X128209457Y-87561119D01*
X128214362Y-87588930D01*
X128218216Y-87635250D01*
X128221021Y-87695720D01*
X128222781Y-87765983D01*
X128223499Y-87841680D01*
X128223177Y-87918453D01*
X128221819Y-87991944D01*
X128219428Y-88057794D01*
X128216006Y-88111645D01*
X128211556Y-88149138D01*
X128206082Y-88165916D01*
X128202760Y-88167809D01*
X128177987Y-88175926D01*
X128135011Y-88186666D01*
X128078802Y-88198853D01*
X128014325Y-88211310D01*
X127992570Y-88215277D01*
X127892093Y-88233729D01*
X127813126Y-88248559D01*
X127752934Y-88260380D01*
X127708778Y-88269809D01*
X127677920Y-88277460D01*
X127657625Y-88283948D01*
X127645154Y-88289888D01*
X127637771Y-88295894D01*
X127636913Y-88296902D01*
X127624838Y-88317919D01*
X127606971Y-88356376D01*
X127585042Y-88407761D01*
X127560784Y-88467563D01*
X127535927Y-88531270D01*
X127512205Y-88594371D01*
X127491347Y-88652355D01*
X127475087Y-88700709D01*
X127465156Y-88734922D01*
X127463285Y-88750483D01*
X127464536Y-88752502D01*
X127477486Y-88772028D01*
X127501840Y-88808042D01*
X127535340Y-88857228D01*
X127575727Y-88916267D01*
X127620745Y-88981842D01*
X127633100Y-88999884D01*
X127676545Y-89064599D01*
X127714091Y-89122476D01*
X127743594Y-89170082D01*
X127762914Y-89203985D01*
X127769905Y-89220752D01*
X127768398Y-89225161D01*
X127752695Y-89246882D01*
X127721714Y-89282354D01*
X127677673Y-89329188D01*
X127622790Y-89384996D01*
X127559286Y-89447392D01*
X127522988Y-89482317D01*
X127465595Y-89536711D01*
X127415361Y-89583302D01*
X127374984Y-89619636D01*
X127347161Y-89643261D01*
X127334590Y-89651724D01*
X127325952Y-89648587D01*
X127299360Y-89633747D01*
X127260741Y-89609477D01*
X127215134Y-89578852D01*
X127182707Y-89556503D01*
X127117970Y-89512122D01*
X127048886Y-89464987D01*
X126985787Y-89422155D01*
X126862178Y-89338547D01*
X126758417Y-89394650D01*
X126733984Y-89407599D01*
X126689552Y-89429749D01*
X126655191Y-89445041D01*
X126636828Y-89450743D01*
X126630818Y-89443421D01*
X126615895Y-89415541D01*
X126593852Y-89369575D01*
X126565917Y-89308441D01*
X126533317Y-89235055D01*
X126497276Y-89152335D01*
X126459023Y-89063197D01*
X126419783Y-88970559D01*
X126380783Y-88877337D01*
X126343249Y-88786450D01*
X126308409Y-88700814D01*
X126277488Y-88623345D01*
X126251714Y-88556962D01*
X126232311Y-88504582D01*
X126220508Y-88469121D01*
X126217531Y-88453496D01*
X126217732Y-88453039D01*
X126231601Y-88438595D01*
X126260611Y-88415974D01*
X126298772Y-88389864D01*
X126310817Y-88381892D01*
X126402469Y-88306256D01*
X126478323Y-88216169D01*
X126536581Y-88115381D01*
X126575448Y-88007640D01*
X126593128Y-87896697D01*
X126587826Y-87786303D01*
X126566347Y-87688115D01*
X126527782Y-87588966D01*
X126471562Y-87500512D01*
X126394410Y-87416487D01*
X126364095Y-87389645D01*
X126266094Y-87323510D01*
X126160227Y-87278970D01*
X126049561Y-87255625D01*
X125937164Y-87253078D01*
X125826105Y-87270929D01*
X125719451Y-87308780D01*
X125620270Y-87366232D01*
X125531631Y-87442887D01*
X125456600Y-87538345D01*
X125442175Y-87561985D01*
X125393143Y-87670034D01*
X125367103Y-87782548D01*
X125363372Y-87896614D01*
X125381268Y-88009318D01*
X125420109Y-88117745D01*
X125479214Y-88218982D01*
X125557900Y-88310114D01*
X125655485Y-88388228D01*
X125658654Y-88390333D01*
X125696411Y-88416940D01*
X125724709Y-88439561D01*
X125737634Y-88453496D01*
X125736003Y-88464421D01*
X125725864Y-88496231D01*
X125707884Y-88545534D01*
X125683292Y-88609413D01*
X125653311Y-88684948D01*
X125619170Y-88769223D01*
X125582092Y-88859320D01*
X125543306Y-88952321D01*
X125504036Y-89045308D01*
X125465509Y-89135364D01*
X125428950Y-89219571D01*
X125395586Y-89295010D01*
X125366643Y-89358765D01*
X125343346Y-89407917D01*
X125326923Y-89439549D01*
X125318598Y-89450743D01*
X125311674Y-89449227D01*
X125284477Y-89438331D01*
X125244280Y-89419228D01*
X125197009Y-89394650D01*
X125093248Y-89338547D01*
X124969639Y-89422155D01*
X124933120Y-89446913D01*
X124865194Y-89493171D01*
X124797475Y-89539503D01*
X124740291Y-89578852D01*
X124708732Y-89600297D01*
X124667714Y-89626939D01*
X124637301Y-89645178D01*
X124622446Y-89651941D01*
X124616065Y-89649070D01*
X124592996Y-89631485D01*
X124557433Y-89600523D01*
X124512471Y-89559231D01*
X124461206Y-89510653D01*
X124406733Y-89457835D01*
X124352148Y-89403823D01*
X124300547Y-89351661D01*
X124255024Y-89304396D01*
X124218675Y-89265072D01*
X124194595Y-89236736D01*
X124185881Y-89222432D01*
X124186383Y-89219711D01*
X124196755Y-89197560D01*
X124218912Y-89159235D01*
X124250712Y-89108200D01*
X124290016Y-89047914D01*
X124334681Y-88981842D01*
X124347207Y-88963617D01*
X124391193Y-88899485D01*
X124429937Y-88842789D01*
X124461182Y-88796844D01*
X124482669Y-88764970D01*
X124492140Y-88750483D01*
X124492373Y-88749862D01*
X124489578Y-88732139D01*
X124478903Y-88696235D01*
X124462081Y-88646662D01*
X124440843Y-88587932D01*
X124416921Y-88524556D01*
X124392046Y-88461046D01*
X124367950Y-88401913D01*
X124346365Y-88351669D01*
X124329023Y-88314826D01*
X124317655Y-88295894D01*
X124316516Y-88294719D01*
X124308376Y-88288773D01*
X124294629Y-88282776D01*
X124272537Y-88276114D01*
X124239363Y-88268173D01*
X124192370Y-88258337D01*
X124128820Y-88245991D01*
X124045976Y-88230520D01*
X123941100Y-88211310D01*
X123919348Y-88207267D01*
X123857036Y-88194769D01*
X123804619Y-88182927D01*
X123767066Y-88172917D01*
X123749343Y-88165916D01*
X123746378Y-88160075D01*
X123741435Y-88132016D01*
X123737518Y-88085500D01*
X123734629Y-88024886D01*
X123732773Y-87954532D01*
X123731952Y-87878796D01*
X123732168Y-87802037D01*
X123733426Y-87728612D01*
X123735728Y-87662880D01*
X123739076Y-87609200D01*
X123743474Y-87571930D01*
X123748926Y-87555427D01*
X123754491Y-87552989D01*
X123782178Y-87545305D01*
X123828979Y-87534436D01*
X123891157Y-87521192D01*
X123964979Y-87506384D01*
X124046710Y-87490823D01*
X124091336Y-87482509D01*
X124167824Y-87468092D01*
X124233660Y-87455467D01*
X124285323Y-87445321D01*
X124319293Y-87438341D01*
X124332048Y-87435212D01*
X124332528Y-87434568D01*
X124340651Y-87418181D01*
X124356137Y-87383852D01*
X124377050Y-87336136D01*
X124401455Y-87279586D01*
X124427416Y-87218758D01*
X124452997Y-87158206D01*
X124476262Y-87102485D01*
X124495277Y-87056150D01*
X124508105Y-87023755D01*
X124512812Y-87009855D01*
X124510736Y-87004965D01*
X124496920Y-86981692D01*
X124471860Y-86942519D01*
X124437568Y-86890520D01*
X124396059Y-86828768D01*
X124349346Y-86760336D01*
X124323718Y-86722860D01*
X124279490Y-86657156D01*
X124241570Y-86599492D01*
X124211980Y-86553014D01*
X124192743Y-86520865D01*
X124185881Y-86506190D01*
X124190649Y-86498230D01*
X124210593Y-86474446D01*
X124243313Y-86438451D01*
X124285805Y-86393295D01*
X124335065Y-86342028D01*
X124388091Y-86287701D01*
X124441877Y-86233364D01*
X124493421Y-86182067D01*
X124539720Y-86136859D01*
X124577769Y-86100792D01*
X124604565Y-86076914D01*
X124617105Y-86068278D01*
X124624066Y-86071636D01*
X124649627Y-86087210D01*
X124690874Y-86113715D01*
X124744837Y-86149210D01*
X124808542Y-86191750D01*
X124879016Y-86239395D01*
X125130662Y-86410512D01*
X125550188Y-86237570D01*
X125607036Y-85936018D01*
X125663885Y-85634466D01*
X126291540Y-85634466D01*
X126348389Y-85936018D01*
G37*
X133269406Y-90920949D02*
X133295127Y-90936647D01*
X133321778Y-90958227D01*
X133321778Y-91605684D01*
X133295127Y-91627264D01*
X133263767Y-91644739D01*
X133227966Y-91645575D01*
X133196528Y-91625082D01*
X133192652Y-91620416D01*
X133187186Y-91610949D01*
X133182979Y-91597267D01*
X133179867Y-91576748D01*
X133177687Y-91546768D01*
X133176276Y-91504704D01*
X133175471Y-91447932D01*
X133175107Y-91373830D01*
X133175022Y-91279773D01*
X133175022Y-90958227D01*
X133201673Y-90936647D01*
X133225386Y-90921877D01*
X133248400Y-90915067D01*
X133269406Y-90920949D01*
G36*
X133269406Y-90920949D02*
G01*
X133295127Y-90936647D01*
X133321778Y-90958227D01*
X133321778Y-91605684D01*
X133295127Y-91627264D01*
X133263767Y-91644739D01*
X133227966Y-91645575D01*
X133196528Y-91625082D01*
X133192652Y-91620416D01*
X133187186Y-91610949D01*
X133182979Y-91597267D01*
X133179867Y-91576748D01*
X133177687Y-91546768D01*
X133176276Y-91504704D01*
X133175471Y-91447932D01*
X133175107Y-91373830D01*
X133175022Y-91279773D01*
X133175022Y-90958227D01*
X133201673Y-90936647D01*
X133225386Y-90921877D01*
X133248400Y-90915067D01*
X133269406Y-90920949D01*
G37*
X140400137Y-90919463D02*
X140434291Y-90942776D01*
X140462000Y-90970485D01*
X140462000Y-91283537D01*
X140461959Y-91367567D01*
X140461701Y-91441789D01*
X140461030Y-91498541D01*
X140459752Y-91540512D01*
X140457673Y-91570389D01*
X140454599Y-91590861D01*
X140450334Y-91604614D01*
X140444684Y-91614337D01*
X140437455Y-91622717D01*
X140405991Y-91644181D01*
X140370826Y-91645947D01*
X140337822Y-91626267D01*
X140332516Y-91620398D01*
X140327066Y-91611314D01*
X140322900Y-91597973D01*
X140319846Y-91577757D01*
X140317732Y-91548049D01*
X140316386Y-91506232D01*
X140315638Y-91449689D01*
X140315314Y-91375802D01*
X140315245Y-91281956D01*
X140315284Y-91206294D01*
X140315539Y-91128385D01*
X140316183Y-91068375D01*
X140317387Y-91023648D01*
X140319324Y-90991585D01*
X140322164Y-90969571D01*
X140326079Y-90954987D01*
X140331242Y-90945218D01*
X140337822Y-90937645D01*
X140367006Y-90918623D01*
X140400137Y-90919463D01*
G36*
X140400137Y-90919463D02*
G01*
X140434291Y-90942776D01*
X140462000Y-90970485D01*
X140462000Y-91283537D01*
X140461959Y-91367567D01*
X140461701Y-91441789D01*
X140461030Y-91498541D01*
X140459752Y-91540512D01*
X140457673Y-91570389D01*
X140454599Y-91590861D01*
X140450334Y-91604614D01*
X140444684Y-91614337D01*
X140437455Y-91622717D01*
X140405991Y-91644181D01*
X140370826Y-91645947D01*
X140337822Y-91626267D01*
X140332516Y-91620398D01*
X140327066Y-91611314D01*
X140322900Y-91597973D01*
X140319846Y-91577757D01*
X140317732Y-91548049D01*
X140316386Y-91506232D01*
X140315638Y-91449689D01*
X140315314Y-91375802D01*
X140315245Y-91281956D01*
X140315284Y-91206294D01*
X140315539Y-91128385D01*
X140316183Y-91068375D01*
X140317387Y-91023648D01*
X140319324Y-90991585D01*
X140322164Y-90969571D01*
X140326079Y-90954987D01*
X140331242Y-90945218D01*
X140337822Y-90937645D01*
X140367006Y-90918623D01*
X140400137Y-90919463D01*
G37*
X139868562Y-85678850D02*
X139951313Y-85706053D01*
X140026406Y-85751484D01*
X140098298Y-85817302D01*
X140136846Y-85861567D01*
X140176256Y-85919961D01*
X140201446Y-85980586D01*
X140214861Y-86049865D01*
X140218948Y-86134222D01*
X140218669Y-86180307D01*
X140216460Y-86221450D01*
X140210894Y-86253582D01*
X140200586Y-86284122D01*
X140184148Y-86320489D01*
X140170200Y-86347728D01*
X140111665Y-86433429D01*
X140039619Y-86502617D01*
X139955947Y-86553741D01*
X139862531Y-86585250D01*
X139829434Y-86592225D01*
X139788960Y-86599094D01*
X139755999Y-86600919D01*
X139721698Y-86597947D01*
X139677200Y-86590426D01*
X139625934Y-86578002D01*
X139535434Y-86540112D01*
X139456345Y-86485836D01*
X139390528Y-86417770D01*
X139339840Y-86338511D01*
X139306140Y-86250654D01*
X139291286Y-86156795D01*
X139297136Y-86059530D01*
X139323399Y-85963220D01*
X139368418Y-85874494D01*
X139429373Y-85799419D01*
X139504184Y-85739641D01*
X139590768Y-85696809D01*
X139687043Y-85672571D01*
X139790928Y-85668576D01*
X139868562Y-85678850D01*
G36*
X139868562Y-85678850D02*
G01*
X139951313Y-85706053D01*
X140026406Y-85751484D01*
X140098298Y-85817302D01*
X140136846Y-85861567D01*
X140176256Y-85919961D01*
X140201446Y-85980586D01*
X140214861Y-86049865D01*
X140218948Y-86134222D01*
X140218669Y-86180307D01*
X140216460Y-86221450D01*
X140210894Y-86253582D01*
X140200586Y-86284122D01*
X140184148Y-86320489D01*
X140170200Y-86347728D01*
X140111665Y-86433429D01*
X140039619Y-86502617D01*
X139955947Y-86553741D01*
X139862531Y-86585250D01*
X139829434Y-86592225D01*
X139788960Y-86599094D01*
X139755999Y-86600919D01*
X139721698Y-86597947D01*
X139677200Y-86590426D01*
X139625934Y-86578002D01*
X139535434Y-86540112D01*
X139456345Y-86485836D01*
X139390528Y-86417770D01*
X139339840Y-86338511D01*
X139306140Y-86250654D01*
X139291286Y-86156795D01*
X139297136Y-86059530D01*
X139323399Y-85963220D01*
X139368418Y-85874494D01*
X139429373Y-85799419D01*
X139504184Y-85739641D01*
X139590768Y-85696809D01*
X139687043Y-85672571D01*
X139790928Y-85668576D01*
X139868562Y-85678850D01*
G37*
X132569767Y-90915068D02*
X132663890Y-90915158D01*
X132738405Y-90915498D01*
X132795811Y-90916239D01*
X132838611Y-90917535D01*
X132869304Y-90919537D01*
X132890391Y-90922396D01*
X132904373Y-90926266D01*
X132913750Y-90931298D01*
X132921022Y-90937645D01*
X132939828Y-90970362D01*
X132941275Y-91007939D01*
X132924917Y-91041178D01*
X132923557Y-91042631D01*
X132912354Y-91050992D01*
X132895252Y-91056547D01*
X132868082Y-91059840D01*
X132826678Y-91061418D01*
X132766873Y-91061822D01*
X132627511Y-91061822D01*
X132627511Y-91325589D01*
X132627436Y-91401417D01*
X132627028Y-91468083D01*
X132626046Y-91517867D01*
X132624250Y-91553784D01*
X132621399Y-91578850D01*
X132617253Y-91596081D01*
X132611571Y-91608492D01*
X132604114Y-91619100D01*
X132601824Y-91621906D01*
X132570646Y-91644548D01*
X132536266Y-91646112D01*
X132503334Y-91626267D01*
X132496355Y-91618191D01*
X132490883Y-91607593D01*
X132486863Y-91591749D01*
X132484072Y-91567773D01*
X132482288Y-91532774D01*
X132481289Y-91483864D01*
X132480852Y-91418154D01*
X132480756Y-91332756D01*
X132480756Y-91061822D01*
X132334820Y-91061822D01*
X132323720Y-91061821D01*
X132267202Y-91061596D01*
X132228358Y-91060457D01*
X132202965Y-91057657D01*
X132186804Y-91052450D01*
X132175652Y-91044089D01*
X132165289Y-91031826D01*
X132149441Y-91001138D01*
X132152543Y-90967358D01*
X132178187Y-90934822D01*
X132183129Y-90931105D01*
X132193338Y-90926269D01*
X132208764Y-90922506D01*
X132231886Y-90919683D01*
X132265183Y-90917670D01*
X132311137Y-90916333D01*
X132372228Y-90915542D01*
X132450935Y-90915163D01*
X132549740Y-90915067D01*
X132569767Y-90915068D01*
G36*
X132569767Y-90915068D02*
G01*
X132663890Y-90915158D01*
X132738405Y-90915498D01*
X132795811Y-90916239D01*
X132838611Y-90917535D01*
X132869304Y-90919537D01*
X132890391Y-90922396D01*
X132904373Y-90926266D01*
X132913750Y-90931298D01*
X132921022Y-90937645D01*
X132939828Y-90970362D01*
X132941275Y-91007939D01*
X132924917Y-91041178D01*
X132923557Y-91042631D01*
X132912354Y-91050992D01*
X132895252Y-91056547D01*
X132868082Y-91059840D01*
X132826678Y-91061418D01*
X132766873Y-91061822D01*
X132627511Y-91061822D01*
X132627511Y-91325589D01*
X132627436Y-91401417D01*
X132627028Y-91468083D01*
X132626046Y-91517867D01*
X132624250Y-91553784D01*
X132621399Y-91578850D01*
X132617253Y-91596081D01*
X132611571Y-91608492D01*
X132604114Y-91619100D01*
X132601824Y-91621906D01*
X132570646Y-91644548D01*
X132536266Y-91646112D01*
X132503334Y-91626267D01*
X132496355Y-91618191D01*
X132490883Y-91607593D01*
X132486863Y-91591749D01*
X132484072Y-91567773D01*
X132482288Y-91532774D01*
X132481289Y-91483864D01*
X132480852Y-91418154D01*
X132480756Y-91332756D01*
X132480756Y-91061822D01*
X132334820Y-91061822D01*
X132323720Y-91061821D01*
X132267202Y-91061596D01*
X132228358Y-91060457D01*
X132202965Y-91057657D01*
X132186804Y-91052450D01*
X132175652Y-91044089D01*
X132165289Y-91031826D01*
X132149441Y-91001138D01*
X132152543Y-90967358D01*
X132178187Y-90934822D01*
X132183129Y-90931105D01*
X132193338Y-90926269D01*
X132208764Y-90922506D01*
X132231886Y-90919683D01*
X132265183Y-90917670D01*
X132311137Y-90916333D01*
X132372228Y-90915542D01*
X132450935Y-90915163D01*
X132549740Y-90915067D01*
X132569767Y-90915068D01*
G37*
X131893734Y-90937645D02*
X131899366Y-90943835D01*
X131904456Y-90952041D01*
X131908543Y-90963817D01*
X131911721Y-90981276D01*
X131914087Y-91006530D01*
X131915738Y-91041690D01*
X131916769Y-91088869D01*
X131917277Y-91150177D01*
X131917359Y-91227727D01*
X131917109Y-91323631D01*
X131916625Y-91440000D01*
X131916557Y-91454175D01*
X131915971Y-91515937D01*
X131914648Y-91559620D01*
X131912103Y-91589001D01*
X131907848Y-91607855D01*
X131901396Y-91619959D01*
X131892262Y-91629089D01*
X131858804Y-91646506D01*
X131823856Y-91643604D01*
X131792953Y-91619100D01*
X131783944Y-91605897D01*
X131776492Y-91587361D01*
X131772124Y-91561333D01*
X131770069Y-91522787D01*
X131769556Y-91466700D01*
X131769556Y-91344045D01*
X131272845Y-91344045D01*
X131272845Y-91478871D01*
X131272772Y-91514662D01*
X131272009Y-91560992D01*
X131269833Y-91591526D01*
X131265536Y-91610557D01*
X131258412Y-91622374D01*
X131247755Y-91631271D01*
X131215504Y-91646341D01*
X131180217Y-91643673D01*
X131149486Y-91619100D01*
X131144831Y-91612845D01*
X131138895Y-91602321D01*
X131134364Y-91588391D01*
X131131048Y-91568317D01*
X131128759Y-91539360D01*
X131127308Y-91498780D01*
X131126505Y-91443840D01*
X131126162Y-91371799D01*
X131126089Y-91279920D01*
X131126089Y-90970485D01*
X131153798Y-90942776D01*
X131185177Y-90920533D01*
X131218406Y-90917844D01*
X131250267Y-90937645D01*
X131258553Y-90947415D01*
X131265965Y-90963307D01*
X131270302Y-90987275D01*
X131272338Y-91024148D01*
X131272845Y-91078756D01*
X131272845Y-91197289D01*
X131769556Y-91197289D01*
X131769556Y-91081776D01*
X131769994Y-91030078D01*
X131771958Y-90995554D01*
X131776474Y-90972978D01*
X131784567Y-90957126D01*
X131797265Y-90942776D01*
X131828643Y-90920533D01*
X131861872Y-90917844D01*
X131893734Y-90937645D01*
G36*
X131893734Y-90937645D02*
G01*
X131899366Y-90943835D01*
X131904456Y-90952041D01*
X131908543Y-90963817D01*
X131911721Y-90981276D01*
X131914087Y-91006530D01*
X131915738Y-91041690D01*
X131916769Y-91088869D01*
X131917277Y-91150177D01*
X131917359Y-91227727D01*
X131917109Y-91323631D01*
X131916625Y-91440000D01*
X131916557Y-91454175D01*
X131915971Y-91515937D01*
X131914648Y-91559620D01*
X131912103Y-91589001D01*
X131907848Y-91607855D01*
X131901396Y-91619959D01*
X131892262Y-91629089D01*
X131858804Y-91646506D01*
X131823856Y-91643604D01*
X131792953Y-91619100D01*
X131783944Y-91605897D01*
X131776492Y-91587361D01*
X131772124Y-91561333D01*
X131770069Y-91522787D01*
X131769556Y-91466700D01*
X131769556Y-91344045D01*
X131272845Y-91344045D01*
X131272845Y-91478871D01*
X131272772Y-91514662D01*
X131272009Y-91560992D01*
X131269833Y-91591526D01*
X131265536Y-91610557D01*
X131258412Y-91622374D01*
X131247755Y-91631271D01*
X131215504Y-91646341D01*
X131180217Y-91643673D01*
X131149486Y-91619100D01*
X131144831Y-91612845D01*
X131138895Y-91602321D01*
X131134364Y-91588391D01*
X131131048Y-91568317D01*
X131128759Y-91539360D01*
X131127308Y-91498780D01*
X131126505Y-91443840D01*
X131126162Y-91371799D01*
X131126089Y-91279920D01*
X131126089Y-90970485D01*
X131153798Y-90942776D01*
X131185177Y-90920533D01*
X131218406Y-90917844D01*
X131250267Y-90937645D01*
X131258553Y-90947415D01*
X131265965Y-90963307D01*
X131270302Y-90987275D01*
X131272338Y-91024148D01*
X131272845Y-91078756D01*
X131272845Y-91197289D01*
X131769556Y-91197289D01*
X131769556Y-91081776D01*
X131769994Y-91030078D01*
X131771958Y-90995554D01*
X131776474Y-90972978D01*
X131784567Y-90957126D01*
X131797265Y-90942776D01*
X131828643Y-90920533D01*
X131861872Y-90917844D01*
X131893734Y-90937645D01*
G37*
X136599133Y-91526396D02*
X136597163Y-91559175D01*
X136594235Y-91582095D01*
X136590158Y-91597897D01*
X136584743Y-91609319D01*
X136577803Y-91619100D01*
X136554406Y-91648845D01*
X136388714Y-91648251D01*
X136353918Y-91647953D01*
X136255435Y-91644522D01*
X136174473Y-91636839D01*
X136107379Y-91624282D01*
X136050496Y-91606227D01*
X136000169Y-91582052D01*
X135996810Y-91580135D01*
X135938998Y-91543417D01*
X135896644Y-91506451D01*
X135863828Y-91462966D01*
X135834628Y-91406689D01*
X135830346Y-91397073D01*
X135807769Y-91333887D01*
X135802034Y-91288333D01*
X135951279Y-91288333D01*
X135956892Y-91313061D01*
X135962618Y-91328939D01*
X135995548Y-91388847D01*
X136042886Y-91434600D01*
X136106652Y-91467736D01*
X136188861Y-91489790D01*
X136191655Y-91490292D01*
X136237940Y-91496255D01*
X136294336Y-91500483D01*
X136349274Y-91502089D01*
X136443156Y-91502089D01*
X136443156Y-91061822D01*
X136355667Y-91062270D01*
X136288747Y-91064746D01*
X136196349Y-91075998D01*
X136117034Y-91095537D01*
X136055060Y-91122511D01*
X136024120Y-91143240D01*
X135996000Y-91173006D01*
X135972660Y-91215434D01*
X135965533Y-91231400D01*
X135953709Y-91263902D01*
X135951279Y-91288333D01*
X135802034Y-91288333D01*
X135800797Y-91278509D01*
X135809399Y-91223483D01*
X135833541Y-91161351D01*
X135834337Y-91159658D01*
X135874788Y-91090236D01*
X135925473Y-91033638D01*
X135988198Y-90989070D01*
X136064774Y-90955741D01*
X136157009Y-90932861D01*
X136266712Y-90919636D01*
X136395691Y-90915275D01*
X136399263Y-90915270D01*
X136459283Y-90915410D01*
X136501214Y-90916446D01*
X136529328Y-90919040D01*
X136547897Y-90923853D01*
X136561194Y-90931544D01*
X136573491Y-90942776D01*
X136601200Y-90970485D01*
X136601200Y-91279920D01*
X136601175Y-91341526D01*
X136600950Y-91420311D01*
X136600332Y-91481021D01*
X136599775Y-91502089D01*
X136599133Y-91526396D01*
G36*
X136599133Y-91526396D02*
G01*
X136597163Y-91559175D01*
X136594235Y-91582095D01*
X136590158Y-91597897D01*
X136584743Y-91609319D01*
X136577803Y-91619100D01*
X136554406Y-91648845D01*
X136388714Y-91648251D01*
X136353918Y-91647953D01*
X136255435Y-91644522D01*
X136174473Y-91636839D01*
X136107379Y-91624282D01*
X136050496Y-91606227D01*
X136000169Y-91582052D01*
X135996810Y-91580135D01*
X135938998Y-91543417D01*
X135896644Y-91506451D01*
X135863828Y-91462966D01*
X135834628Y-91406689D01*
X135830346Y-91397073D01*
X135807769Y-91333887D01*
X135802034Y-91288333D01*
X135951279Y-91288333D01*
X135956892Y-91313061D01*
X135962618Y-91328939D01*
X135995548Y-91388847D01*
X136042886Y-91434600D01*
X136106652Y-91467736D01*
X136188861Y-91489790D01*
X136191655Y-91490292D01*
X136237940Y-91496255D01*
X136294336Y-91500483D01*
X136349274Y-91502089D01*
X136443156Y-91502089D01*
X136443156Y-91061822D01*
X136355667Y-91062270D01*
X136288747Y-91064746D01*
X136196349Y-91075998D01*
X136117034Y-91095537D01*
X136055060Y-91122511D01*
X136024120Y-91143240D01*
X135996000Y-91173006D01*
X135972660Y-91215434D01*
X135965533Y-91231400D01*
X135953709Y-91263902D01*
X135951279Y-91288333D01*
X135802034Y-91288333D01*
X135800797Y-91278509D01*
X135809399Y-91223483D01*
X135833541Y-91161351D01*
X135834337Y-91159658D01*
X135874788Y-91090236D01*
X135925473Y-91033638D01*
X135988198Y-90989070D01*
X136064774Y-90955741D01*
X136157009Y-90932861D01*
X136266712Y-90919636D01*
X136395691Y-90915275D01*
X136399263Y-90915270D01*
X136459283Y-90915410D01*
X136501214Y-90916446D01*
X136529328Y-90919040D01*
X136547897Y-90923853D01*
X136561194Y-90931544D01*
X136573491Y-90942776D01*
X136601200Y-90970485D01*
X136601200Y-91279920D01*
X136601175Y-91341526D01*
X136600950Y-91420311D01*
X136600332Y-91481021D01*
X136599775Y-91502089D01*
X136599133Y-91526396D01*
G37*
X143690817Y-91100427D02*
X143690870Y-91181041D01*
X143690622Y-91281956D01*
X143690583Y-91357617D01*
X143690328Y-91435526D01*
X143689684Y-91495536D01*
X143688480Y-91540264D01*
X143686543Y-91572326D01*
X143683703Y-91594340D01*
X143679788Y-91608924D01*
X143674626Y-91618694D01*
X143668045Y-91626267D01*
X143661077Y-91632501D01*
X143648079Y-91639801D01*
X143628931Y-91644554D01*
X143599528Y-91647292D01*
X143555762Y-91648545D01*
X143493528Y-91648845D01*
X143444582Y-91648469D01*
X143337722Y-91644041D01*
X143248494Y-91633953D01*
X143173696Y-91617365D01*
X143110125Y-91593435D01*
X143054579Y-91561321D01*
X143003854Y-91520182D01*
X142997866Y-91514330D01*
X142960999Y-91465821D01*
X142929899Y-91405013D01*
X142908417Y-91340769D01*
X142903136Y-91302026D01*
X143050353Y-91302026D01*
X143068635Y-91352961D01*
X143098305Y-91398878D01*
X143145002Y-91441287D01*
X143206392Y-91471090D01*
X143285538Y-91490226D01*
X143287028Y-91490464D01*
X143335999Y-91496256D01*
X143394693Y-91500396D01*
X143450734Y-91502004D01*
X143543867Y-91502089D01*
X143543867Y-91061822D01*
X143467667Y-91061808D01*
X143464639Y-91061817D01*
X143413519Y-91063782D01*
X143353416Y-91068507D01*
X143296708Y-91075035D01*
X143246750Y-91084331D01*
X143171998Y-91110600D01*
X143114489Y-91149899D01*
X143072988Y-91202933D01*
X143051771Y-91254200D01*
X143050353Y-91302026D01*
X142903136Y-91302026D01*
X142900400Y-91281956D01*
X142901679Y-91260739D01*
X142913991Y-91203323D01*
X142936520Y-91143413D01*
X142965750Y-91089363D01*
X142998167Y-91049532D01*
X143017708Y-91032510D01*
X143072420Y-90993322D01*
X143132723Y-90963193D01*
X143201919Y-90941232D01*
X143283311Y-90926550D01*
X143380200Y-90918259D01*
X143495889Y-90915467D01*
X143535371Y-90915066D01*
X143581082Y-90914653D01*
X143616883Y-90916457D01*
X143643974Y-90922739D01*
X143663556Y-90935759D01*
X143676830Y-90957778D01*
X143684998Y-90991055D01*
X143689260Y-91037851D01*
X143689857Y-91061822D01*
X143690817Y-91100427D01*
G36*
X143690817Y-91100427D02*
G01*
X143690870Y-91181041D01*
X143690622Y-91281956D01*
X143690583Y-91357617D01*
X143690328Y-91435526D01*
X143689684Y-91495536D01*
X143688480Y-91540264D01*
X143686543Y-91572326D01*
X143683703Y-91594340D01*
X143679788Y-91608924D01*
X143674626Y-91618694D01*
X143668045Y-91626267D01*
X143661077Y-91632501D01*
X143648079Y-91639801D01*
X143628931Y-91644554D01*
X143599528Y-91647292D01*
X143555762Y-91648545D01*
X143493528Y-91648845D01*
X143444582Y-91648469D01*
X143337722Y-91644041D01*
X143248494Y-91633953D01*
X143173696Y-91617365D01*
X143110125Y-91593435D01*
X143054579Y-91561321D01*
X143003854Y-91520182D01*
X142997866Y-91514330D01*
X142960999Y-91465821D01*
X142929899Y-91405013D01*
X142908417Y-91340769D01*
X142903136Y-91302026D01*
X143050353Y-91302026D01*
X143068635Y-91352961D01*
X143098305Y-91398878D01*
X143145002Y-91441287D01*
X143206392Y-91471090D01*
X143285538Y-91490226D01*
X143287028Y-91490464D01*
X143335999Y-91496256D01*
X143394693Y-91500396D01*
X143450734Y-91502004D01*
X143543867Y-91502089D01*
X143543867Y-91061822D01*
X143467667Y-91061808D01*
X143464639Y-91061817D01*
X143413519Y-91063782D01*
X143353416Y-91068507D01*
X143296708Y-91075035D01*
X143246750Y-91084331D01*
X143171998Y-91110600D01*
X143114489Y-91149899D01*
X143072988Y-91202933D01*
X143051771Y-91254200D01*
X143050353Y-91302026D01*
X142903136Y-91302026D01*
X142900400Y-91281956D01*
X142901679Y-91260739D01*
X142913991Y-91203323D01*
X142936520Y-91143413D01*
X142965750Y-91089363D01*
X142998167Y-91049532D01*
X143017708Y-91032510D01*
X143072420Y-90993322D01*
X143132723Y-90963193D01*
X143201919Y-90941232D01*
X143283311Y-90926550D01*
X143380200Y-90918259D01*
X143495889Y-90915467D01*
X143535371Y-90915066D01*
X143581082Y-90914653D01*
X143616883Y-90916457D01*
X143643974Y-90922739D01*
X143663556Y-90935759D01*
X143676830Y-90957778D01*
X143684998Y-90991055D01*
X143689260Y-91037851D01*
X143689857Y-91061822D01*
X143690817Y-91100427D01*
G37*
X138745893Y-90913892D02*
X138757301Y-90920029D01*
X138767850Y-90930691D01*
X138779136Y-90944811D01*
X138783589Y-90950772D01*
X138789588Y-90961268D01*
X138794167Y-90975093D01*
X138797519Y-90994998D01*
X138799833Y-91023732D01*
X138801301Y-91064045D01*
X138802113Y-91118687D01*
X138802460Y-91190407D01*
X138802534Y-91281956D01*
X138802511Y-91340486D01*
X138802292Y-91419573D01*
X138801683Y-91480516D01*
X138800492Y-91526062D01*
X138798529Y-91558963D01*
X138795603Y-91581968D01*
X138791523Y-91597826D01*
X138786097Y-91609286D01*
X138779136Y-91619100D01*
X138748708Y-91643493D01*
X138713765Y-91646372D01*
X138676784Y-91627282D01*
X138672600Y-91623807D01*
X138664424Y-91615279D01*
X138658364Y-91603728D01*
X138653981Y-91585896D01*
X138650839Y-91558524D01*
X138648502Y-91518354D01*
X138646531Y-91462128D01*
X138644489Y-91386589D01*
X138638845Y-91167458D01*
X138373556Y-91408099D01*
X138299722Y-91474875D01*
X138234542Y-91532991D01*
X138182348Y-91577949D01*
X138141273Y-91610871D01*
X138109455Y-91632879D01*
X138085026Y-91645094D01*
X138066124Y-91648639D01*
X138050883Y-91644636D01*
X138037439Y-91634207D01*
X138023927Y-91618474D01*
X138017682Y-91609991D01*
X138012050Y-91599413D01*
X138007839Y-91585255D01*
X138004887Y-91564803D01*
X138003032Y-91535342D01*
X138002113Y-91494161D01*
X138001968Y-91438544D01*
X138002435Y-91365779D01*
X138003352Y-91273151D01*
X138006667Y-90958199D01*
X138033318Y-90936633D01*
X138059383Y-90920441D01*
X138092241Y-90917670D01*
X138126772Y-90936623D01*
X138131084Y-90940208D01*
X138139216Y-90948737D01*
X138145245Y-90960329D01*
X138149606Y-90978235D01*
X138152734Y-91005706D01*
X138155063Y-91045994D01*
X138157029Y-91102351D01*
X138159067Y-91178029D01*
X138164711Y-91397878D01*
X138345334Y-91234084D01*
X138432072Y-91155451D01*
X138507843Y-91087058D01*
X138569980Y-91031708D01*
X138620078Y-90988338D01*
X138659735Y-90955881D01*
X138690548Y-90933273D01*
X138714114Y-90919448D01*
X138732030Y-90913343D01*
X138745893Y-90913892D01*
G36*
X138745893Y-90913892D02*
G01*
X138757301Y-90920029D01*
X138767850Y-90930691D01*
X138779136Y-90944811D01*
X138783589Y-90950772D01*
X138789588Y-90961268D01*
X138794167Y-90975093D01*
X138797519Y-90994998D01*
X138799833Y-91023732D01*
X138801301Y-91064045D01*
X138802113Y-91118687D01*
X138802460Y-91190407D01*
X138802534Y-91281956D01*
X138802511Y-91340486D01*
X138802292Y-91419573D01*
X138801683Y-91480516D01*
X138800492Y-91526062D01*
X138798529Y-91558963D01*
X138795603Y-91581968D01*
X138791523Y-91597826D01*
X138786097Y-91609286D01*
X138779136Y-91619100D01*
X138748708Y-91643493D01*
X138713765Y-91646372D01*
X138676784Y-91627282D01*
X138672600Y-91623807D01*
X138664424Y-91615279D01*
X138658364Y-91603728D01*
X138653981Y-91585896D01*
X138650839Y-91558524D01*
X138648502Y-91518354D01*
X138646531Y-91462128D01*
X138644489Y-91386589D01*
X138638845Y-91167458D01*
X138373556Y-91408099D01*
X138299722Y-91474875D01*
X138234542Y-91532991D01*
X138182348Y-91577949D01*
X138141273Y-91610871D01*
X138109455Y-91632879D01*
X138085026Y-91645094D01*
X138066124Y-91648639D01*
X138050883Y-91644636D01*
X138037439Y-91634207D01*
X138023927Y-91618474D01*
X138017682Y-91609991D01*
X138012050Y-91599413D01*
X138007839Y-91585255D01*
X138004887Y-91564803D01*
X138003032Y-91535342D01*
X138002113Y-91494161D01*
X138001968Y-91438544D01*
X138002435Y-91365779D01*
X138003352Y-91273151D01*
X138006667Y-90958199D01*
X138033318Y-90936633D01*
X138059383Y-90920441D01*
X138092241Y-90917670D01*
X138126772Y-90936623D01*
X138131084Y-90940208D01*
X138139216Y-90948737D01*
X138145245Y-90960329D01*
X138149606Y-90978235D01*
X138152734Y-91005706D01*
X138155063Y-91045994D01*
X138157029Y-91102351D01*
X138159067Y-91178029D01*
X138164711Y-91397878D01*
X138345334Y-91234084D01*
X138432072Y-91155451D01*
X138507843Y-91087058D01*
X138569980Y-91031708D01*
X138620078Y-90988338D01*
X138659735Y-90955881D01*
X138690548Y-90933273D01*
X138714114Y-90919448D01*
X138732030Y-90913343D01*
X138745893Y-90913892D01*
G37*
X139543150Y-90920179D02*
X139649157Y-90936494D01*
X139742969Y-90964545D01*
X139821765Y-91003452D01*
X139882719Y-91052334D01*
X139908789Y-91085195D01*
X139938297Y-91134394D01*
X139963568Y-91188252D01*
X139981218Y-91239419D01*
X139987858Y-91280544D01*
X139986298Y-91300259D01*
X139973357Y-91351592D01*
X139950194Y-91408118D01*
X139920302Y-91462035D01*
X139887173Y-91505539D01*
X139876977Y-91515887D01*
X139809892Y-91567662D01*
X139729766Y-91607554D01*
X139643556Y-91631956D01*
X139588592Y-91640068D01*
X139495139Y-91646673D01*
X139405358Y-91644586D01*
X139322869Y-91634340D01*
X139251286Y-91616470D01*
X139194228Y-91591508D01*
X139155311Y-91559988D01*
X139153936Y-91558012D01*
X139146848Y-91532786D01*
X139142609Y-91485535D01*
X139141200Y-91416071D01*
X139142060Y-91353838D01*
X139146780Y-91306456D01*
X139158470Y-91274353D01*
X139180239Y-91254800D01*
X139215198Y-91245070D01*
X139266456Y-91242433D01*
X139337123Y-91244161D01*
X139385743Y-91247173D01*
X139435939Y-91255366D01*
X139468433Y-91269419D01*
X139485892Y-91290654D01*
X139490983Y-91320394D01*
X139490877Y-91324936D01*
X139482175Y-91359730D01*
X139458165Y-91383147D01*
X139416900Y-91396347D01*
X139356431Y-91400489D01*
X139287956Y-91400489D01*
X139287956Y-91438841D01*
X139288006Y-91447976D01*
X139290227Y-91465227D01*
X139299494Y-91475521D01*
X139320875Y-91482459D01*
X139359436Y-91489641D01*
X139364910Y-91490575D01*
X139461860Y-91500478D01*
X139551852Y-91497559D01*
X139632760Y-91482829D01*
X139702459Y-91457299D01*
X139758824Y-91421978D01*
X139799729Y-91377879D01*
X139823051Y-91326012D01*
X139826663Y-91267388D01*
X139821145Y-91238494D01*
X139794461Y-91182604D01*
X139748273Y-91136945D01*
X139683291Y-91102108D01*
X139600229Y-91078690D01*
X139575555Y-91074241D01*
X139486226Y-91063742D01*
X139406419Y-91064971D01*
X139328326Y-91077906D01*
X139293183Y-91084696D01*
X139247745Y-91085713D01*
X139216430Y-91073182D01*
X139196277Y-91046395D01*
X139189893Y-91018148D01*
X139199379Y-90986924D01*
X139208708Y-90973499D01*
X139242943Y-90949967D01*
X139295565Y-90932095D01*
X139364081Y-90920599D01*
X139446000Y-90916192D01*
X139543150Y-90920179D01*
G36*
X139543150Y-90920179D02*
G01*
X139649157Y-90936494D01*
X139742969Y-90964545D01*
X139821765Y-91003452D01*
X139882719Y-91052334D01*
X139908789Y-91085195D01*
X139938297Y-91134394D01*
X139963568Y-91188252D01*
X139981218Y-91239419D01*
X139987858Y-91280544D01*
X139986298Y-91300259D01*
X139973357Y-91351592D01*
X139950194Y-91408118D01*
X139920302Y-91462035D01*
X139887173Y-91505539D01*
X139876977Y-91515887D01*
X139809892Y-91567662D01*
X139729766Y-91607554D01*
X139643556Y-91631956D01*
X139588592Y-91640068D01*
X139495139Y-91646673D01*
X139405358Y-91644586D01*
X139322869Y-91634340D01*
X139251286Y-91616470D01*
X139194228Y-91591508D01*
X139155311Y-91559988D01*
X139153936Y-91558012D01*
X139146848Y-91532786D01*
X139142609Y-91485535D01*
X139141200Y-91416071D01*
X139142060Y-91353838D01*
X139146780Y-91306456D01*
X139158470Y-91274353D01*
X139180239Y-91254800D01*
X139215198Y-91245070D01*
X139266456Y-91242433D01*
X139337123Y-91244161D01*
X139385743Y-91247173D01*
X139435939Y-91255366D01*
X139468433Y-91269419D01*
X139485892Y-91290654D01*
X139490983Y-91320394D01*
X139490877Y-91324936D01*
X139482175Y-91359730D01*
X139458165Y-91383147D01*
X139416900Y-91396347D01*
X139356431Y-91400489D01*
X139287956Y-91400489D01*
X139287956Y-91438841D01*
X139288006Y-91447976D01*
X139290227Y-91465227D01*
X139299494Y-91475521D01*
X139320875Y-91482459D01*
X139359436Y-91489641D01*
X139364910Y-91490575D01*
X139461860Y-91500478D01*
X139551852Y-91497559D01*
X139632760Y-91482829D01*
X139702459Y-91457299D01*
X139758824Y-91421978D01*
X139799729Y-91377879D01*
X139823051Y-91326012D01*
X139826663Y-91267388D01*
X139821145Y-91238494D01*
X139794461Y-91182604D01*
X139748273Y-91136945D01*
X139683291Y-91102108D01*
X139600229Y-91078690D01*
X139575555Y-91074241D01*
X139486226Y-91063742D01*
X139406419Y-91064971D01*
X139328326Y-91077906D01*
X139293183Y-91084696D01*
X139247745Y-91085713D01*
X139216430Y-91073182D01*
X139196277Y-91046395D01*
X139189893Y-91018148D01*
X139199379Y-90986924D01*
X139208708Y-90973499D01*
X139242943Y-90949967D01*
X139295565Y-90932095D01*
X139364081Y-90920599D01*
X139446000Y-90916192D01*
X139543150Y-90920179D01*
G37*
X137593803Y-90944811D02*
X137598752Y-90951495D01*
X137604596Y-90962066D01*
X137609057Y-90976153D01*
X137612321Y-90996478D01*
X137614574Y-91025765D01*
X137616002Y-91066737D01*
X137616792Y-91122117D01*
X137617129Y-91194628D01*
X137617200Y-91286994D01*
X137617171Y-91352911D01*
X137616939Y-91431228D01*
X137616319Y-91491496D01*
X137615126Y-91536393D01*
X137613179Y-91568602D01*
X137610294Y-91590800D01*
X137606288Y-91605669D01*
X137600979Y-91615889D01*
X137594183Y-91624138D01*
X137589668Y-91628795D01*
X137581438Y-91635282D01*
X137570078Y-91640194D01*
X137552810Y-91643749D01*
X137526855Y-91646167D01*
X137489436Y-91647667D01*
X137437773Y-91648467D01*
X137369089Y-91648787D01*
X137280606Y-91648845D01*
X137260931Y-91648838D01*
X137173906Y-91648572D01*
X137106254Y-91647806D01*
X137055299Y-91646392D01*
X137018367Y-91644180D01*
X136992783Y-91641022D01*
X136975871Y-91636769D01*
X136964957Y-91631271D01*
X136954464Y-91621285D01*
X136941203Y-91590168D01*
X136942386Y-91554280D01*
X136958550Y-91522733D01*
X136960739Y-91520457D01*
X136969427Y-91514189D01*
X136982769Y-91509523D01*
X137003752Y-91506227D01*
X137035363Y-91504068D01*
X137080590Y-91502814D01*
X137142420Y-91502231D01*
X137223839Y-91502089D01*
X137470445Y-91502089D01*
X137470445Y-91344045D01*
X137308006Y-91344045D01*
X137272338Y-91343964D01*
X137216568Y-91343167D01*
X137177430Y-91341162D01*
X137150976Y-91337521D01*
X137133259Y-91331812D01*
X137120329Y-91323607D01*
X137116686Y-91320423D01*
X137098278Y-91289448D01*
X137097644Y-91253112D01*
X137115183Y-91219493D01*
X137115245Y-91219424D01*
X137124916Y-91210798D01*
X137138209Y-91204742D01*
X137158917Y-91200811D01*
X137190828Y-91198556D01*
X137237734Y-91197531D01*
X137303424Y-91197289D01*
X137471571Y-91197289D01*
X137468186Y-91132378D01*
X137464800Y-91067467D01*
X137222723Y-91064414D01*
X137197707Y-91064086D01*
X137116087Y-91062606D01*
X137053768Y-91060222D01*
X137008154Y-91056227D01*
X136976652Y-91049913D01*
X136956667Y-91040574D01*
X136945604Y-91027503D01*
X136940869Y-91009992D01*
X136939867Y-90987335D01*
X136939873Y-90984970D01*
X136941027Y-90964939D01*
X136945824Y-90949146D01*
X136956632Y-90937090D01*
X136975817Y-90928267D01*
X137005745Y-90922175D01*
X137048783Y-90918311D01*
X137107299Y-90916174D01*
X137183657Y-90915260D01*
X137280226Y-90915067D01*
X137570406Y-90915067D01*
X137593803Y-90944811D01*
G36*
X137593803Y-90944811D02*
G01*
X137598752Y-90951495D01*
X137604596Y-90962066D01*
X137609057Y-90976153D01*
X137612321Y-90996478D01*
X137614574Y-91025765D01*
X137616002Y-91066737D01*
X137616792Y-91122117D01*
X137617129Y-91194628D01*
X137617200Y-91286994D01*
X137617171Y-91352911D01*
X137616939Y-91431228D01*
X137616319Y-91491496D01*
X137615126Y-91536393D01*
X137613179Y-91568602D01*
X137610294Y-91590800D01*
X137606288Y-91605669D01*
X137600979Y-91615889D01*
X137594183Y-91624138D01*
X137589668Y-91628795D01*
X137581438Y-91635282D01*
X137570078Y-91640194D01*
X137552810Y-91643749D01*
X137526855Y-91646167D01*
X137489436Y-91647667D01*
X137437773Y-91648467D01*
X137369089Y-91648787D01*
X137280606Y-91648845D01*
X137260931Y-91648838D01*
X137173906Y-91648572D01*
X137106254Y-91647806D01*
X137055299Y-91646392D01*
X137018367Y-91644180D01*
X136992783Y-91641022D01*
X136975871Y-91636769D01*
X136964957Y-91631271D01*
X136954464Y-91621285D01*
X136941203Y-91590168D01*
X136942386Y-91554280D01*
X136958550Y-91522733D01*
X136960739Y-91520457D01*
X136969427Y-91514189D01*
X136982769Y-91509523D01*
X137003752Y-91506227D01*
X137035363Y-91504068D01*
X137080590Y-91502814D01*
X137142420Y-91502231D01*
X137223839Y-91502089D01*
X137470445Y-91502089D01*
X137470445Y-91344045D01*
X137308006Y-91344045D01*
X137272338Y-91343964D01*
X137216568Y-91343167D01*
X137177430Y-91341162D01*
X137150976Y-91337521D01*
X137133259Y-91331812D01*
X137120329Y-91323607D01*
X137116686Y-91320423D01*
X137098278Y-91289448D01*
X137097644Y-91253112D01*
X137115183Y-91219493D01*
X137115245Y-91219424D01*
X137124916Y-91210798D01*
X137138209Y-91204742D01*
X137158917Y-91200811D01*
X137190828Y-91198556D01*
X137237734Y-91197531D01*
X137303424Y-91197289D01*
X137471571Y-91197289D01*
X137468186Y-91132378D01*
X137464800Y-91067467D01*
X137222723Y-91064414D01*
X137197707Y-91064086D01*
X137116087Y-91062606D01*
X137053768Y-91060222D01*
X137008154Y-91056227D01*
X136976652Y-91049913D01*
X136956667Y-91040574D01*
X136945604Y-91027503D01*
X136940869Y-91009992D01*
X136939867Y-90987335D01*
X136939873Y-90984970D01*
X136941027Y-90964939D01*
X136945824Y-90949146D01*
X136956632Y-90937090D01*
X136975817Y-90928267D01*
X137005745Y-90922175D01*
X137048783Y-90918311D01*
X137107299Y-90916174D01*
X137183657Y-90915260D01*
X137280226Y-90915067D01*
X137570406Y-90915067D01*
X137593803Y-90944811D01*
G37*
X142270734Y-90915083D02*
X142347831Y-90915275D01*
X142406777Y-90915860D01*
X142450364Y-90917051D01*
X142481383Y-90919064D01*
X142502625Y-90922112D01*
X142516882Y-90926409D01*
X142526945Y-90932172D01*
X142535606Y-90939612D01*
X142537391Y-90941293D01*
X142544635Y-90948832D01*
X142550277Y-90957850D01*
X142554517Y-90970984D01*
X142557556Y-90990872D01*
X142559594Y-91020151D01*
X142560830Y-91061458D01*
X142561465Y-91117431D01*
X142561700Y-91190707D01*
X142561734Y-91283923D01*
X142561697Y-91356713D01*
X142561448Y-91434889D01*
X142560812Y-91495103D01*
X142559615Y-91539982D01*
X142557684Y-91572152D01*
X142554846Y-91594239D01*
X142550927Y-91608870D01*
X142545755Y-91618670D01*
X142539156Y-91626267D01*
X142535822Y-91629444D01*
X142527300Y-91635554D01*
X142515298Y-91640229D01*
X142497087Y-91643659D01*
X142469940Y-91646036D01*
X142431129Y-91647552D01*
X142377924Y-91648398D01*
X142307598Y-91648765D01*
X142217422Y-91648845D01*
X142175314Y-91648833D01*
X142094167Y-91648651D01*
X142031675Y-91648098D01*
X141985109Y-91646982D01*
X141951741Y-91645113D01*
X141928844Y-91642298D01*
X141913688Y-91638346D01*
X141903546Y-91633066D01*
X141895689Y-91626267D01*
X141880963Y-91604667D01*
X141873111Y-91575467D01*
X141878610Y-91551560D01*
X141895689Y-91524667D01*
X141900668Y-91520059D01*
X141910443Y-91513772D01*
X141924559Y-91509146D01*
X141946054Y-91505930D01*
X141977968Y-91503870D01*
X142023342Y-91502712D01*
X142085213Y-91502202D01*
X142166622Y-91502089D01*
X142414978Y-91502089D01*
X142414978Y-91344045D01*
X142253801Y-91344045D01*
X142217983Y-91343899D01*
X142152359Y-91342176D01*
X142105118Y-91337741D01*
X142073383Y-91329637D01*
X142054277Y-91316906D01*
X142044923Y-91298592D01*
X142042445Y-91273738D01*
X142043242Y-91253482D01*
X142048494Y-91231656D01*
X142061288Y-91216304D01*
X142084628Y-91206309D01*
X142121517Y-91200553D01*
X142174959Y-91197919D01*
X142247958Y-91197289D01*
X142416105Y-91197289D01*
X142412719Y-91132378D01*
X142409334Y-91067467D01*
X142161617Y-91064418D01*
X142099026Y-91063539D01*
X142030565Y-91062095D01*
X141979661Y-91060164D01*
X141943408Y-91057514D01*
X141918901Y-91053910D01*
X141903235Y-91049121D01*
X141893506Y-91042913D01*
X141887491Y-91036510D01*
X141874482Y-91004828D01*
X141878043Y-90969142D01*
X141897818Y-90938084D01*
X141901069Y-90935161D01*
X141910049Y-90928810D01*
X141922153Y-90923957D01*
X141940159Y-90920403D01*
X141966847Y-90917946D01*
X142004997Y-90916385D01*
X142057386Y-90915518D01*
X142126794Y-90915146D01*
X142216001Y-90915067D01*
X142270734Y-90915083D01*
G36*
X142270734Y-90915083D02*
G01*
X142347831Y-90915275D01*
X142406777Y-90915860D01*
X142450364Y-90917051D01*
X142481383Y-90919064D01*
X142502625Y-90922112D01*
X142516882Y-90926409D01*
X142526945Y-90932172D01*
X142535606Y-90939612D01*
X142537391Y-90941293D01*
X142544635Y-90948832D01*
X142550277Y-90957850D01*
X142554517Y-90970984D01*
X142557556Y-90990872D01*
X142559594Y-91020151D01*
X142560830Y-91061458D01*
X142561465Y-91117431D01*
X142561700Y-91190707D01*
X142561734Y-91283923D01*
X142561697Y-91356713D01*
X142561448Y-91434889D01*
X142560812Y-91495103D01*
X142559615Y-91539982D01*
X142557684Y-91572152D01*
X142554846Y-91594239D01*
X142550927Y-91608870D01*
X142545755Y-91618670D01*
X142539156Y-91626267D01*
X142535822Y-91629444D01*
X142527300Y-91635554D01*
X142515298Y-91640229D01*
X142497087Y-91643659D01*
X142469940Y-91646036D01*
X142431129Y-91647552D01*
X142377924Y-91648398D01*
X142307598Y-91648765D01*
X142217422Y-91648845D01*
X142175314Y-91648833D01*
X142094167Y-91648651D01*
X142031675Y-91648098D01*
X141985109Y-91646982D01*
X141951741Y-91645113D01*
X141928844Y-91642298D01*
X141913688Y-91638346D01*
X141903546Y-91633066D01*
X141895689Y-91626267D01*
X141880963Y-91604667D01*
X141873111Y-91575467D01*
X141878610Y-91551560D01*
X141895689Y-91524667D01*
X141900668Y-91520059D01*
X141910443Y-91513772D01*
X141924559Y-91509146D01*
X141946054Y-91505930D01*
X141977968Y-91503870D01*
X142023342Y-91502712D01*
X142085213Y-91502202D01*
X142166622Y-91502089D01*
X142414978Y-91502089D01*
X142414978Y-91344045D01*
X142253801Y-91344045D01*
X142217983Y-91343899D01*
X142152359Y-91342176D01*
X142105118Y-91337741D01*
X142073383Y-91329637D01*
X142054277Y-91316906D01*
X142044923Y-91298592D01*
X142042445Y-91273738D01*
X142043242Y-91253482D01*
X142048494Y-91231656D01*
X142061288Y-91216304D01*
X142084628Y-91206309D01*
X142121517Y-91200553D01*
X142174959Y-91197919D01*
X142247958Y-91197289D01*
X142416105Y-91197289D01*
X142412719Y-91132378D01*
X142409334Y-91067467D01*
X142161617Y-91064418D01*
X142099026Y-91063539D01*
X142030565Y-91062095D01*
X141979661Y-91060164D01*
X141943408Y-91057514D01*
X141918901Y-91053910D01*
X141903235Y-91049121D01*
X141893506Y-91042913D01*
X141887491Y-91036510D01*
X141874482Y-91004828D01*
X141878043Y-90969142D01*
X141897818Y-90938084D01*
X141901069Y-90935161D01*
X141910049Y-90928810D01*
X141922153Y-90923957D01*
X141940159Y-90920403D01*
X141966847Y-90917946D01*
X142004997Y-90916385D01*
X142057386Y-90915518D01*
X142126794Y-90915146D01*
X142216001Y-90915067D01*
X142270734Y-90915083D01*
G37*
X133703702Y-90924478D02*
X133721663Y-90942989D01*
X133742263Y-90974071D01*
X133767095Y-91019756D01*
X133797750Y-91082078D01*
X133835820Y-91163071D01*
X133850454Y-91194454D01*
X133880203Y-91257638D01*
X133906297Y-91312244D01*
X133927292Y-91355290D01*
X133941739Y-91383793D01*
X133948191Y-91394770D01*
X133949550Y-91394189D01*
X133959542Y-91380242D01*
X133976833Y-91350704D01*
X133999430Y-91309087D01*
X134025338Y-91258903D01*
X134041311Y-91227414D01*
X134070261Y-91172061D01*
X134092749Y-91133044D01*
X134110965Y-91107566D01*
X134127096Y-91092831D01*
X134143330Y-91086042D01*
X134161857Y-91084400D01*
X134172360Y-91084875D01*
X134188476Y-91089082D01*
X134203790Y-91099946D01*
X134220388Y-91120219D01*
X134240357Y-91152654D01*
X134265783Y-91200004D01*
X134298752Y-91265022D01*
X134308485Y-91284277D01*
X134332943Y-91330946D01*
X134353178Y-91367109D01*
X134367311Y-91389497D01*
X134373460Y-91394845D01*
X134374827Y-91391573D01*
X134384202Y-91370664D01*
X134401062Y-91333725D01*
X134423979Y-91283874D01*
X134451520Y-91224226D01*
X134482255Y-91157898D01*
X134508970Y-91100677D01*
X134538593Y-91038688D01*
X134561664Y-90992949D01*
X134579643Y-90960908D01*
X134593990Y-90940014D01*
X134606166Y-90927718D01*
X134617632Y-90921466D01*
X134627042Y-90918574D01*
X134652147Y-90918425D01*
X134679290Y-90933768D01*
X134680590Y-90934753D01*
X134702674Y-90957388D01*
X134713723Y-90979613D01*
X134713769Y-90980253D01*
X134709228Y-90997915D01*
X134696364Y-91032481D01*
X134676605Y-91080826D01*
X134651381Y-91139825D01*
X134622119Y-91206355D01*
X134590250Y-91277291D01*
X134557201Y-91349507D01*
X134524401Y-91419880D01*
X134493280Y-91485285D01*
X134465265Y-91542597D01*
X134441786Y-91588692D01*
X134424272Y-91620446D01*
X134414151Y-91634733D01*
X134379743Y-91648102D01*
X134338046Y-91641741D01*
X134332681Y-91637044D01*
X134316852Y-91614893D01*
X134294650Y-91578132D01*
X134268233Y-91530415D01*
X134239760Y-91475393D01*
X134159986Y-91316150D01*
X134086799Y-91462742D01*
X134077103Y-91482032D01*
X134050125Y-91534380D01*
X134026096Y-91579170D01*
X134007332Y-91612154D01*
X133996146Y-91629089D01*
X133995000Y-91630332D01*
X133966879Y-91645619D01*
X133931817Y-91647302D01*
X133900776Y-91634733D01*
X133898350Y-91631884D01*
X133886090Y-91611259D01*
X133866352Y-91573708D01*
X133840448Y-91521880D01*
X133809685Y-91458423D01*
X133775375Y-91385985D01*
X133738825Y-91307216D01*
X133718585Y-91263093D01*
X133681812Y-91182365D01*
X133653355Y-91118687D01*
X133632331Y-91069752D01*
X133617854Y-91033257D01*
X133609039Y-91006895D01*
X133605004Y-90988361D01*
X133604862Y-90975352D01*
X133607730Y-90965561D01*
X133622387Y-90944678D01*
X133648990Y-90924377D01*
X133649745Y-90924035D01*
X133669335Y-90917034D01*
X133686790Y-90916504D01*
X133703702Y-90924478D01*
G36*
X133703702Y-90924478D02*
G01*
X133721663Y-90942989D01*
X133742263Y-90974071D01*
X133767095Y-91019756D01*
X133797750Y-91082078D01*
X133835820Y-91163071D01*
X133850454Y-91194454D01*
X133880203Y-91257638D01*
X133906297Y-91312244D01*
X133927292Y-91355290D01*
X133941739Y-91383793D01*
X133948191Y-91394770D01*
X133949550Y-91394189D01*
X133959542Y-91380242D01*
X133976833Y-91350704D01*
X133999430Y-91309087D01*
X134025338Y-91258903D01*
X134041311Y-91227414D01*
X134070261Y-91172061D01*
X134092749Y-91133044D01*
X134110965Y-91107566D01*
X134127096Y-91092831D01*
X134143330Y-91086042D01*
X134161857Y-91084400D01*
X134172360Y-91084875D01*
X134188476Y-91089082D01*
X134203790Y-91099946D01*
X134220388Y-91120219D01*
X134240357Y-91152654D01*
X134265783Y-91200004D01*
X134298752Y-91265022D01*
X134308485Y-91284277D01*
X134332943Y-91330946D01*
X134353178Y-91367109D01*
X134367311Y-91389497D01*
X134373460Y-91394845D01*
X134374827Y-91391573D01*
X134384202Y-91370664D01*
X134401062Y-91333725D01*
X134423979Y-91283874D01*
X134451520Y-91224226D01*
X134482255Y-91157898D01*
X134508970Y-91100677D01*
X134538593Y-91038688D01*
X134561664Y-90992949D01*
X134579643Y-90960908D01*
X134593990Y-90940014D01*
X134606166Y-90927718D01*
X134617632Y-90921466D01*
X134627042Y-90918574D01*
X134652147Y-90918425D01*
X134679290Y-90933768D01*
X134680590Y-90934753D01*
X134702674Y-90957388D01*
X134713723Y-90979613D01*
X134713769Y-90980253D01*
X134709228Y-90997915D01*
X134696364Y-91032481D01*
X134676605Y-91080826D01*
X134651381Y-91139825D01*
X134622119Y-91206355D01*
X134590250Y-91277291D01*
X134557201Y-91349507D01*
X134524401Y-91419880D01*
X134493280Y-91485285D01*
X134465265Y-91542597D01*
X134441786Y-91588692D01*
X134424272Y-91620446D01*
X134414151Y-91634733D01*
X134379743Y-91648102D01*
X134338046Y-91641741D01*
X134332681Y-91637044D01*
X134316852Y-91614893D01*
X134294650Y-91578132D01*
X134268233Y-91530415D01*
X134239760Y-91475393D01*
X134159986Y-91316150D01*
X134086799Y-91462742D01*
X134077103Y-91482032D01*
X134050125Y-91534380D01*
X134026096Y-91579170D01*
X134007332Y-91612154D01*
X133996146Y-91629089D01*
X133995000Y-91630332D01*
X133966879Y-91645619D01*
X133931817Y-91647302D01*
X133900776Y-91634733D01*
X133898350Y-91631884D01*
X133886090Y-91611259D01*
X133866352Y-91573708D01*
X133840448Y-91521880D01*
X133809685Y-91458423D01*
X133775375Y-91385985D01*
X133738825Y-91307216D01*
X133718585Y-91263093D01*
X133681812Y-91182365D01*
X133653355Y-91118687D01*
X133632331Y-91069752D01*
X133617854Y-91033257D01*
X133609039Y-91006895D01*
X133605004Y-90988361D01*
X133604862Y-90975352D01*
X133607730Y-90965561D01*
X133622387Y-90944678D01*
X133648990Y-90924377D01*
X133649745Y-90924035D01*
X133669335Y-90917034D01*
X133686790Y-90916504D01*
X133703702Y-90924478D01*
G37*
X141254853Y-90915936D02*
X141321100Y-90921366D01*
X141376400Y-90930964D01*
X141427283Y-90945825D01*
X141498595Y-90978958D01*
X141549752Y-91021640D01*
X141580575Y-91073705D01*
X141590889Y-91134983D01*
X141589952Y-91166232D01*
X141584160Y-91191029D01*
X141569353Y-91212699D01*
X141541380Y-91240049D01*
X141533402Y-91247378D01*
X141509692Y-91268281D01*
X141487298Y-91285251D01*
X141463265Y-91299205D01*
X141434637Y-91311056D01*
X141398460Y-91321720D01*
X141351780Y-91332111D01*
X141291641Y-91343146D01*
X141215090Y-91355738D01*
X141119171Y-91370804D01*
X141100808Y-91373838D01*
X141038478Y-91387458D01*
X140993260Y-91403192D01*
X140966976Y-91420263D01*
X140961447Y-91437897D01*
X140964068Y-91442168D01*
X140982000Y-91457233D01*
X141010126Y-91473867D01*
X141022926Y-91479857D01*
X141044224Y-91487050D01*
X141070610Y-91491827D01*
X141106454Y-91494646D01*
X141156128Y-91495964D01*
X141224000Y-91496237D01*
X141241785Y-91496164D01*
X141309406Y-91495053D01*
X141374345Y-91492828D01*
X141429970Y-91489762D01*
X141469651Y-91486127D01*
X141505162Y-91482059D01*
X141534415Y-91481276D01*
X141553315Y-91485876D01*
X141568429Y-91496551D01*
X141572085Y-91500144D01*
X141588427Y-91531918D01*
X141587107Y-91567572D01*
X141568150Y-91598190D01*
X141547780Y-91609796D01*
X141511796Y-91622491D01*
X141469372Y-91632541D01*
X141465922Y-91633140D01*
X141423252Y-91638356D01*
X141365866Y-91642730D01*
X141300849Y-91645818D01*
X141235289Y-91647177D01*
X141219057Y-91647218D01*
X141120744Y-91644741D01*
X141040692Y-91636735D01*
X140975513Y-91622203D01*
X140921817Y-91600149D01*
X140876216Y-91569576D01*
X140835323Y-91529486D01*
X140815202Y-91503259D01*
X140803576Y-91473712D01*
X140800667Y-91433995D01*
X140800808Y-91422026D01*
X140804681Y-91389345D01*
X140817065Y-91362819D01*
X140842230Y-91331971D01*
X140863442Y-91309831D01*
X140889838Y-91287285D01*
X140919555Y-91268917D01*
X140955785Y-91253661D01*
X141001717Y-91240449D01*
X141060544Y-91228214D01*
X141135456Y-91215889D01*
X141229645Y-91202406D01*
X141274957Y-91195396D01*
X141342911Y-91180837D01*
X141392047Y-91164337D01*
X141421614Y-91146439D01*
X141430864Y-91127685D01*
X141419048Y-91108615D01*
X141385416Y-91089771D01*
X141382370Y-91088557D01*
X141336011Y-91076479D01*
X141273361Y-91068279D01*
X141199927Y-91064119D01*
X141121217Y-91064161D01*
X141042739Y-91068569D01*
X140970000Y-91077505D01*
X140966073Y-91078154D01*
X140917257Y-91085861D01*
X140885005Y-91089473D01*
X140864008Y-91088876D01*
X140848954Y-91083954D01*
X140834534Y-91074596D01*
X140833364Y-91073725D01*
X140808847Y-91043351D01*
X140804054Y-91007850D01*
X140819860Y-90973269D01*
X140824406Y-90968813D01*
X140854020Y-90953673D01*
X140901002Y-90940550D01*
X140961306Y-90929750D01*
X141030888Y-90921581D01*
X141105703Y-90916351D01*
X141181706Y-90914367D01*
X141254853Y-90915936D01*
G36*
X141254853Y-90915936D02*
G01*
X141321100Y-90921366D01*
X141376400Y-90930964D01*
X141427283Y-90945825D01*
X141498595Y-90978958D01*
X141549752Y-91021640D01*
X141580575Y-91073705D01*
X141590889Y-91134983D01*
X141589952Y-91166232D01*
X141584160Y-91191029D01*
X141569353Y-91212699D01*
X141541380Y-91240049D01*
X141533402Y-91247378D01*
X141509692Y-91268281D01*
X141487298Y-91285251D01*
X141463265Y-91299205D01*
X141434637Y-91311056D01*
X141398460Y-91321720D01*
X141351780Y-91332111D01*
X141291641Y-91343146D01*
X141215090Y-91355738D01*
X141119171Y-91370804D01*
X141100808Y-91373838D01*
X141038478Y-91387458D01*
X140993260Y-91403192D01*
X140966976Y-91420263D01*
X140961447Y-91437897D01*
X140964068Y-91442168D01*
X140982000Y-91457233D01*
X141010126Y-91473867D01*
X141022926Y-91479857D01*
X141044224Y-91487050D01*
X141070610Y-91491827D01*
X141106454Y-91494646D01*
X141156128Y-91495964D01*
X141224000Y-91496237D01*
X141241785Y-91496164D01*
X141309406Y-91495053D01*
X141374345Y-91492828D01*
X141429970Y-91489762D01*
X141469651Y-91486127D01*
X141505162Y-91482059D01*
X141534415Y-91481276D01*
X141553315Y-91485876D01*
X141568429Y-91496551D01*
X141572085Y-91500144D01*
X141588427Y-91531918D01*
X141587107Y-91567572D01*
X141568150Y-91598190D01*
X141547780Y-91609796D01*
X141511796Y-91622491D01*
X141469372Y-91632541D01*
X141465922Y-91633140D01*
X141423252Y-91638356D01*
X141365866Y-91642730D01*
X141300849Y-91645818D01*
X141235289Y-91647177D01*
X141219057Y-91647218D01*
X141120744Y-91644741D01*
X141040692Y-91636735D01*
X140975513Y-91622203D01*
X140921817Y-91600149D01*
X140876216Y-91569576D01*
X140835323Y-91529486D01*
X140815202Y-91503259D01*
X140803576Y-91473712D01*
X140800667Y-91433995D01*
X140800808Y-91422026D01*
X140804681Y-91389345D01*
X140817065Y-91362819D01*
X140842230Y-91331971D01*
X140863442Y-91309831D01*
X140889838Y-91287285D01*
X140919555Y-91268917D01*
X140955785Y-91253661D01*
X141001717Y-91240449D01*
X141060544Y-91228214D01*
X141135456Y-91215889D01*
X141229645Y-91202406D01*
X141274957Y-91195396D01*
X141342911Y-91180837D01*
X141392047Y-91164337D01*
X141421614Y-91146439D01*
X141430864Y-91127685D01*
X141419048Y-91108615D01*
X141385416Y-91089771D01*
X141382370Y-91088557D01*
X141336011Y-91076479D01*
X141273361Y-91068279D01*
X141199927Y-91064119D01*
X141121217Y-91064161D01*
X141042739Y-91068569D01*
X140970000Y-91077505D01*
X140966073Y-91078154D01*
X140917257Y-91085861D01*
X140885005Y-91089473D01*
X140864008Y-91088876D01*
X140848954Y-91083954D01*
X140834534Y-91074596D01*
X140833364Y-91073725D01*
X140808847Y-91043351D01*
X140804054Y-91007850D01*
X140819860Y-90973269D01*
X140824406Y-90968813D01*
X140854020Y-90953673D01*
X140901002Y-90940550D01*
X140961306Y-90929750D01*
X141030888Y-90921581D01*
X141105703Y-90916351D01*
X141181706Y-90914367D01*
X141254853Y-90915936D01*
G37*
X137402711Y-86608033D02*
X137498268Y-86625523D01*
X137662558Y-86670564D01*
X137816589Y-86733656D01*
X137962509Y-86815915D01*
X138102466Y-86918457D01*
X138238608Y-87042399D01*
X138282473Y-87087661D01*
X138394758Y-87219865D01*
X138487972Y-87357832D01*
X138564719Y-87505750D01*
X138627603Y-87667803D01*
X138631420Y-87679391D01*
X138681507Y-87865392D01*
X138714899Y-88061521D01*
X138731584Y-88263568D01*
X138731551Y-88467325D01*
X138714791Y-88668581D01*
X138681292Y-88863128D01*
X138631044Y-89046756D01*
X138587190Y-89164053D01*
X138509348Y-89326951D01*
X138415828Y-89480866D01*
X138308822Y-89622671D01*
X138190519Y-89749239D01*
X138063111Y-89857441D01*
X137985606Y-89910120D01*
X137858725Y-89979750D01*
X137721243Y-90038468D01*
X137579716Y-90083587D01*
X137440702Y-90112422D01*
X137426597Y-90114106D01*
X137383153Y-90117434D01*
X137325723Y-90120275D01*
X137260122Y-90122373D01*
X137192167Y-90123468D01*
X137065378Y-90121140D01*
X136917673Y-90108136D01*
X136779779Y-90083133D01*
X136646014Y-90045318D01*
X136622562Y-90036889D01*
X136574612Y-90017408D01*
X136518140Y-89992473D01*
X136456379Y-89963722D01*
X136392563Y-89932790D01*
X136329926Y-89901315D01*
X136271703Y-89870934D01*
X136221127Y-89843283D01*
X136181433Y-89819999D01*
X136155854Y-89802718D01*
X136147625Y-89793079D01*
X136149076Y-89789984D01*
X136160250Y-89770079D01*
X136181134Y-89734420D01*
X136210265Y-89685459D01*
X136246181Y-89625646D01*
X136287420Y-89557433D01*
X136332517Y-89483271D01*
X136513785Y-89186008D01*
X136560315Y-89230539D01*
X136651723Y-89308865D01*
X136765334Y-89383439D01*
X136883122Y-89437474D01*
X137003559Y-89470290D01*
X137125117Y-89481211D01*
X137166585Y-89479868D01*
X137284080Y-89461612D01*
X137394089Y-89422617D01*
X137495430Y-89363670D01*
X137586921Y-89285557D01*
X137667380Y-89189064D01*
X137735627Y-89074978D01*
X137751908Y-89040724D01*
X137797982Y-88917240D01*
X137833106Y-88778918D01*
X137857197Y-88629561D01*
X137870173Y-88472973D01*
X137871949Y-88312956D01*
X137862443Y-88153314D01*
X137841572Y-87997850D01*
X137809252Y-87850366D01*
X137765399Y-87714667D01*
X137727982Y-87628076D01*
X137663185Y-87514688D01*
X137587772Y-87421070D01*
X137501418Y-87346959D01*
X137403795Y-87292094D01*
X137294577Y-87256212D01*
X137173439Y-87239051D01*
X137104038Y-87237880D01*
X136981168Y-87252141D01*
X136865664Y-87287241D01*
X136758953Y-87342682D01*
X136662464Y-87417964D01*
X136646720Y-87432440D01*
X136616150Y-87458962D01*
X136593809Y-87476138D01*
X136583691Y-87480787D01*
X136581706Y-87478597D01*
X136567241Y-87459721D01*
X136543400Y-87426397D01*
X136512029Y-87381380D01*
X136474974Y-87327425D01*
X136434083Y-87267285D01*
X136391202Y-87203718D01*
X136348178Y-87139476D01*
X136306857Y-87077315D01*
X136269086Y-87019991D01*
X136236712Y-86970257D01*
X136211582Y-86930868D01*
X136195542Y-86904580D01*
X136190439Y-86894147D01*
X136195050Y-86889941D01*
X136214267Y-86884933D01*
X136223838Y-86882386D01*
X136251809Y-86871249D01*
X136293448Y-86852802D01*
X136344995Y-86828725D01*
X136402690Y-86800699D01*
X136413957Y-86795154D01*
X136591687Y-86715889D01*
X136761490Y-86656385D01*
X136925430Y-86616245D01*
X137085571Y-86595071D01*
X137243977Y-86592466D01*
X137402711Y-86608033D01*
G36*
X137402711Y-86608033D02*
G01*
X137498268Y-86625523D01*
X137662558Y-86670564D01*
X137816589Y-86733656D01*
X137962509Y-86815915D01*
X138102466Y-86918457D01*
X138238608Y-87042399D01*
X138282473Y-87087661D01*
X138394758Y-87219865D01*
X138487972Y-87357832D01*
X138564719Y-87505750D01*
X138627603Y-87667803D01*
X138631420Y-87679391D01*
X138681507Y-87865392D01*
X138714899Y-88061521D01*
X138731584Y-88263568D01*
X138731551Y-88467325D01*
X138714791Y-88668581D01*
X138681292Y-88863128D01*
X138631044Y-89046756D01*
X138587190Y-89164053D01*
X138509348Y-89326951D01*
X138415828Y-89480866D01*
X138308822Y-89622671D01*
X138190519Y-89749239D01*
X138063111Y-89857441D01*
X137985606Y-89910120D01*
X137858725Y-89979750D01*
X137721243Y-90038468D01*
X137579716Y-90083587D01*
X137440702Y-90112422D01*
X137426597Y-90114106D01*
X137383153Y-90117434D01*
X137325723Y-90120275D01*
X137260122Y-90122373D01*
X137192167Y-90123468D01*
X137065378Y-90121140D01*
X136917673Y-90108136D01*
X136779779Y-90083133D01*
X136646014Y-90045318D01*
X136622562Y-90036889D01*
X136574612Y-90017408D01*
X136518140Y-89992473D01*
X136456379Y-89963722D01*
X136392563Y-89932790D01*
X136329926Y-89901315D01*
X136271703Y-89870934D01*
X136221127Y-89843283D01*
X136181433Y-89819999D01*
X136155854Y-89802718D01*
X136147625Y-89793079D01*
X136149076Y-89789984D01*
X136160250Y-89770079D01*
X136181134Y-89734420D01*
X136210265Y-89685459D01*
X136246181Y-89625646D01*
X136287420Y-89557433D01*
X136332517Y-89483271D01*
X136513785Y-89186008D01*
X136560315Y-89230539D01*
X136651723Y-89308865D01*
X136765334Y-89383439D01*
X136883122Y-89437474D01*
X137003559Y-89470290D01*
X137125117Y-89481211D01*
X137166585Y-89479868D01*
X137284080Y-89461612D01*
X137394089Y-89422617D01*
X137495430Y-89363670D01*
X137586921Y-89285557D01*
X137667380Y-89189064D01*
X137735627Y-89074978D01*
X137751908Y-89040724D01*
X137797982Y-88917240D01*
X137833106Y-88778918D01*
X137857197Y-88629561D01*
X137870173Y-88472973D01*
X137871949Y-88312956D01*
X137862443Y-88153314D01*
X137841572Y-87997850D01*
X137809252Y-87850366D01*
X137765399Y-87714667D01*
X137727982Y-87628076D01*
X137663185Y-87514688D01*
X137587772Y-87421070D01*
X137501418Y-87346959D01*
X137403795Y-87292094D01*
X137294577Y-87256212D01*
X137173439Y-87239051D01*
X137104038Y-87237880D01*
X136981168Y-87252141D01*
X136865664Y-87287241D01*
X136758953Y-87342682D01*
X136662464Y-87417964D01*
X136646720Y-87432440D01*
X136616150Y-87458962D01*
X136593809Y-87476138D01*
X136583691Y-87480787D01*
X136581706Y-87478597D01*
X136567241Y-87459721D01*
X136543400Y-87426397D01*
X136512029Y-87381380D01*
X136474974Y-87327425D01*
X136434083Y-87267285D01*
X136391202Y-87203718D01*
X136348178Y-87139476D01*
X136306857Y-87077315D01*
X136269086Y-87019991D01*
X136236712Y-86970257D01*
X136211582Y-86930868D01*
X136195542Y-86904580D01*
X136190439Y-86894147D01*
X136195050Y-86889941D01*
X136214267Y-86884933D01*
X136223838Y-86882386D01*
X136251809Y-86871249D01*
X136293448Y-86852802D01*
X136344995Y-86828725D01*
X136402690Y-86800699D01*
X136413957Y-86795154D01*
X136591687Y-86715889D01*
X136761490Y-86656385D01*
X136925430Y-86616245D01*
X137085571Y-86595071D01*
X137243977Y-86592466D01*
X137402711Y-86608033D01*
G37*
X133599994Y-88888711D02*
X133599268Y-88966158D01*
X133590689Y-89117594D01*
X133571833Y-89254283D01*
X133541837Y-89380276D01*
X133499836Y-89499625D01*
X133444969Y-89616381D01*
X133378167Y-89727179D01*
X133287363Y-89840739D01*
X133183708Y-89936211D01*
X133067887Y-90013073D01*
X132940586Y-90070797D01*
X132802489Y-90108858D01*
X132764793Y-90114666D01*
X132685752Y-90120396D01*
X132597629Y-90120583D01*
X132508236Y-90115539D01*
X132425384Y-90105578D01*
X132356887Y-90091012D01*
X132326035Y-90081364D01*
X132248730Y-90051123D01*
X132171679Y-90013617D01*
X132102200Y-89972614D01*
X132047615Y-89931879D01*
X132024916Y-89912505D01*
X132002201Y-89894662D01*
X131990779Y-89887778D01*
X131989537Y-89889424D01*
X131986728Y-89907205D01*
X131984776Y-89940370D01*
X131984045Y-89983733D01*
X131984045Y-90079689D01*
X131125896Y-90079689D01*
X131160161Y-90018974D01*
X131165355Y-90009868D01*
X131173715Y-89995249D01*
X131181288Y-89981173D01*
X131188112Y-89966540D01*
X131194227Y-89950249D01*
X131199673Y-89931198D01*
X131204487Y-89908286D01*
X131208708Y-89880413D01*
X131212377Y-89846478D01*
X131215531Y-89805379D01*
X131218211Y-89756015D01*
X131220454Y-89697286D01*
X131222299Y-89628090D01*
X131223787Y-89547326D01*
X131224955Y-89453894D01*
X131225678Y-89366721D01*
X132029200Y-89366721D01*
X132099756Y-89413089D01*
X132140417Y-89436791D01*
X132194546Y-89462639D01*
X132243689Y-89480829D01*
X132307165Y-89496551D01*
X132403331Y-89507541D01*
X132487900Y-89499365D01*
X132561219Y-89471805D01*
X132623637Y-89424642D01*
X132675502Y-89357658D01*
X132717160Y-89270633D01*
X132748962Y-89163350D01*
X132751545Y-89151009D01*
X132760000Y-89089772D01*
X132765663Y-89012692D01*
X132768576Y-88925002D01*
X132768783Y-88831934D01*
X132766330Y-88738720D01*
X132761261Y-88650594D01*
X132753619Y-88572788D01*
X132743448Y-88510533D01*
X132742167Y-88504666D01*
X132713126Y-88394121D01*
X132678610Y-88303575D01*
X132637456Y-88230953D01*
X132588499Y-88174181D01*
X132530574Y-88131184D01*
X132498620Y-88115615D01*
X132425784Y-88096722D01*
X132344443Y-88093465D01*
X132259319Y-88105389D01*
X132175133Y-88132040D01*
X132096608Y-88172962D01*
X132029200Y-88216530D01*
X132029200Y-89366721D01*
X131225678Y-89366721D01*
X131225844Y-89346692D01*
X131226491Y-89224620D01*
X131226936Y-89086576D01*
X131227218Y-88931459D01*
X131227375Y-88758168D01*
X131227448Y-88565603D01*
X131227474Y-88352662D01*
X131227493Y-88118245D01*
X131227689Y-86433378D01*
X132133017Y-86433378D01*
X132108585Y-86470067D01*
X132102318Y-86479647D01*
X132076208Y-86525981D01*
X132058469Y-86573102D01*
X132046908Y-86628251D01*
X132039331Y-86698667D01*
X132038839Y-86705650D01*
X132037062Y-86743641D01*
X132035444Y-86797576D01*
X132033999Y-86864703D01*
X132032740Y-86942271D01*
X132031680Y-87027528D01*
X132030829Y-87117724D01*
X132030203Y-87210107D01*
X132029812Y-87301925D01*
X132029670Y-87390427D01*
X132029790Y-87472862D01*
X132030183Y-87546479D01*
X132030862Y-87608526D01*
X132031841Y-87656251D01*
X132033132Y-87686904D01*
X132034747Y-87697733D01*
X132042957Y-87693333D01*
X132064647Y-87678362D01*
X132094014Y-87656448D01*
X132142879Y-87622236D01*
X132231125Y-87575714D01*
X132329916Y-87542046D01*
X132442510Y-87520231D01*
X132572164Y-87509265D01*
X132664670Y-87508219D01*
X132786011Y-87518014D01*
X132896099Y-87542174D01*
X132999389Y-87581785D01*
X133100338Y-87637932D01*
X133145503Y-87668883D01*
X133250911Y-87760115D01*
X133342538Y-87869106D01*
X133420332Y-87995726D01*
X133484241Y-88139845D01*
X133534214Y-88301332D01*
X133570198Y-88480059D01*
X133592143Y-88675895D01*
X133597900Y-88831934D01*
X133599994Y-88888711D01*
G36*
X133599994Y-88888711D02*
G01*
X133599268Y-88966158D01*
X133590689Y-89117594D01*
X133571833Y-89254283D01*
X133541837Y-89380276D01*
X133499836Y-89499625D01*
X133444969Y-89616381D01*
X133378167Y-89727179D01*
X133287363Y-89840739D01*
X133183708Y-89936211D01*
X133067887Y-90013073D01*
X132940586Y-90070797D01*
X132802489Y-90108858D01*
X132764793Y-90114666D01*
X132685752Y-90120396D01*
X132597629Y-90120583D01*
X132508236Y-90115539D01*
X132425384Y-90105578D01*
X132356887Y-90091012D01*
X132326035Y-90081364D01*
X132248730Y-90051123D01*
X132171679Y-90013617D01*
X132102200Y-89972614D01*
X132047615Y-89931879D01*
X132024916Y-89912505D01*
X132002201Y-89894662D01*
X131990779Y-89887778D01*
X131989537Y-89889424D01*
X131986728Y-89907205D01*
X131984776Y-89940370D01*
X131984045Y-89983733D01*
X131984045Y-90079689D01*
X131125896Y-90079689D01*
X131160161Y-90018974D01*
X131165355Y-90009868D01*
X131173715Y-89995249D01*
X131181288Y-89981173D01*
X131188112Y-89966540D01*
X131194227Y-89950249D01*
X131199673Y-89931198D01*
X131204487Y-89908286D01*
X131208708Y-89880413D01*
X131212377Y-89846478D01*
X131215531Y-89805379D01*
X131218211Y-89756015D01*
X131220454Y-89697286D01*
X131222299Y-89628090D01*
X131223787Y-89547326D01*
X131224955Y-89453894D01*
X131225678Y-89366721D01*
X132029200Y-89366721D01*
X132099756Y-89413089D01*
X132140417Y-89436791D01*
X132194546Y-89462639D01*
X132243689Y-89480829D01*
X132307165Y-89496551D01*
X132403331Y-89507541D01*
X132487900Y-89499365D01*
X132561219Y-89471805D01*
X132623637Y-89424642D01*
X132675502Y-89357658D01*
X132717160Y-89270633D01*
X132748962Y-89163350D01*
X132751545Y-89151009D01*
X132760000Y-89089772D01*
X132765663Y-89012692D01*
X132768576Y-88925002D01*
X132768783Y-88831934D01*
X132766330Y-88738720D01*
X132761261Y-88650594D01*
X132753619Y-88572788D01*
X132743448Y-88510533D01*
X132742167Y-88504666D01*
X132713126Y-88394121D01*
X132678610Y-88303575D01*
X132637456Y-88230953D01*
X132588499Y-88174181D01*
X132530574Y-88131184D01*
X132498620Y-88115615D01*
X132425784Y-88096722D01*
X132344443Y-88093465D01*
X132259319Y-88105389D01*
X132175133Y-88132040D01*
X132096608Y-88172962D01*
X132029200Y-88216530D01*
X132029200Y-89366721D01*
X131225678Y-89366721D01*
X131225844Y-89346692D01*
X131226491Y-89224620D01*
X131226936Y-89086576D01*
X131227218Y-88931459D01*
X131227375Y-88758168D01*
X131227448Y-88565603D01*
X131227474Y-88352662D01*
X131227493Y-88118245D01*
X131227689Y-86433378D01*
X132133017Y-86433378D01*
X132108585Y-86470067D01*
X132102318Y-86479647D01*
X132076208Y-86525981D01*
X132058469Y-86573102D01*
X132046908Y-86628251D01*
X132039331Y-86698667D01*
X132038839Y-86705650D01*
X132037062Y-86743641D01*
X132035444Y-86797576D01*
X132033999Y-86864703D01*
X132032740Y-86942271D01*
X132031680Y-87027528D01*
X132030829Y-87117724D01*
X132030203Y-87210107D01*
X132029812Y-87301925D01*
X132029670Y-87390427D01*
X132029790Y-87472862D01*
X132030183Y-87546479D01*
X132030862Y-87608526D01*
X132031841Y-87656251D01*
X132033132Y-87686904D01*
X132034747Y-87697733D01*
X132042957Y-87693333D01*
X132064647Y-87678362D01*
X132094014Y-87656448D01*
X132142879Y-87622236D01*
X132231125Y-87575714D01*
X132329916Y-87542046D01*
X132442510Y-87520231D01*
X132572164Y-87509265D01*
X132664670Y-87508219D01*
X132786011Y-87518014D01*
X132896099Y-87542174D01*
X132999389Y-87581785D01*
X133100338Y-87637932D01*
X133145503Y-87668883D01*
X133250911Y-87760115D01*
X133342538Y-87869106D01*
X133420332Y-87995726D01*
X133484241Y-88139845D01*
X133534214Y-88301332D01*
X133570198Y-88480059D01*
X133592143Y-88675895D01*
X133597900Y-88831934D01*
X133599994Y-88888711D01*
G37*
X136141755Y-89289467D02*
X136141261Y-89323363D01*
X136137632Y-89398202D01*
X136130022Y-89460401D01*
X136117688Y-89516984D01*
X136073313Y-89643076D01*
X136010400Y-89757679D01*
X135930238Y-89858568D01*
X135833740Y-89944924D01*
X135721822Y-90015932D01*
X135595397Y-90070776D01*
X135455378Y-90108638D01*
X135419149Y-90114351D01*
X135340155Y-90120313D01*
X135251841Y-90120646D01*
X135162075Y-90115659D01*
X135078722Y-90105666D01*
X135009651Y-90090978D01*
X134923187Y-90060749D01*
X134813286Y-90006057D01*
X134715956Y-89938543D01*
X134653867Y-89887556D01*
X134650605Y-89983622D01*
X134647343Y-90079689D01*
X134224450Y-90079689D01*
X134213543Y-90079686D01*
X134119056Y-90079380D01*
X134032331Y-90078616D01*
X133955837Y-90077451D01*
X133892043Y-90075942D01*
X133843418Y-90074147D01*
X133812433Y-90072121D01*
X133801556Y-90069922D01*
X133801578Y-90069463D01*
X133808614Y-90053910D01*
X133824434Y-90031071D01*
X133828734Y-90025638D01*
X133839777Y-90011606D01*
X133849311Y-89998186D01*
X133857461Y-89983722D01*
X133864352Y-89966556D01*
X133870111Y-89945034D01*
X133874862Y-89917498D01*
X133878731Y-89882292D01*
X133881844Y-89837760D01*
X133884325Y-89782246D01*
X133886300Y-89714093D01*
X133887894Y-89631645D01*
X133889234Y-89533246D01*
X133890444Y-89417239D01*
X133890896Y-89366462D01*
X134693378Y-89366462D01*
X134738048Y-89422973D01*
X134750785Y-89438212D01*
X134797604Y-89480844D01*
X134858255Y-89516672D01*
X134868897Y-89521850D01*
X134907676Y-89538745D01*
X134942692Y-89548909D01*
X134982722Y-89554325D01*
X135036541Y-89556978D01*
X135054648Y-89557383D01*
X135130011Y-89554540D01*
X135190743Y-89542620D01*
X135242452Y-89520037D01*
X135290746Y-89485211D01*
X135295803Y-89480798D01*
X135344272Y-89425160D01*
X135372459Y-89361333D01*
X135381752Y-89286282D01*
X135374520Y-89214693D01*
X135349796Y-89151645D01*
X135305249Y-89093758D01*
X135250319Y-89046808D01*
X135177894Y-89006961D01*
X135091340Y-88979263D01*
X134988670Y-88963096D01*
X134867894Y-88957842D01*
X134859007Y-88957857D01*
X134803660Y-88958655D01*
X134756736Y-88960488D01*
X134722953Y-88963111D01*
X134707028Y-88966274D01*
X134702943Y-88972741D01*
X134698572Y-88994875D01*
X134695604Y-89033988D01*
X134693914Y-89091939D01*
X134693378Y-89170586D01*
X134693378Y-89366462D01*
X133890896Y-89366462D01*
X133891649Y-89281968D01*
X133892975Y-89125778D01*
X133894228Y-88983012D01*
X133895651Y-88837942D01*
X133897176Y-88712027D01*
X133898933Y-88603436D01*
X133901051Y-88510334D01*
X133903660Y-88430891D01*
X133906890Y-88363273D01*
X133910869Y-88305649D01*
X133915728Y-88256185D01*
X133921597Y-88213050D01*
X133928604Y-88174410D01*
X133936880Y-88138434D01*
X133946554Y-88103289D01*
X133957756Y-88067142D01*
X133970616Y-88028161D01*
X133986090Y-87985091D01*
X134028994Y-87892871D01*
X134082735Y-87813099D01*
X134151576Y-87738965D01*
X134229185Y-87675405D01*
X134333761Y-87613725D01*
X134453244Y-87566202D01*
X134588508Y-87532567D01*
X134740426Y-87512552D01*
X134909872Y-87505889D01*
X134967890Y-87506287D01*
X135033398Y-87508335D01*
X135094693Y-87512704D01*
X135156097Y-87520035D01*
X135221932Y-87530969D01*
X135296520Y-87546147D01*
X135384184Y-87566209D01*
X135489245Y-87591797D01*
X135517806Y-87598820D01*
X135593054Y-87616776D01*
X135663388Y-87632820D01*
X135724567Y-87646028D01*
X135772354Y-87655474D01*
X135802511Y-87660231D01*
X135830783Y-87663910D01*
X135857060Y-87669187D01*
X135867059Y-87673942D01*
X135863952Y-87682781D01*
X135853194Y-87710072D01*
X135835864Y-87752906D01*
X135813126Y-87808425D01*
X135786147Y-87873772D01*
X135756090Y-87946089D01*
X135749493Y-87961879D01*
X135710907Y-88052484D01*
X135679768Y-88122217D01*
X135655917Y-88171405D01*
X135639198Y-88200374D01*
X135629454Y-88209452D01*
X135621766Y-88207405D01*
X135595415Y-88197760D01*
X135556982Y-88182190D01*
X135511822Y-88162815D01*
X135417293Y-88124814D01*
X135280480Y-88083780D01*
X135139289Y-88058612D01*
X135101314Y-88054611D01*
X134998059Y-88052447D01*
X134910952Y-88065622D01*
X134839129Y-88094756D01*
X134781731Y-88140466D01*
X134737896Y-88203372D01*
X134706762Y-88284092D01*
X134687470Y-88383245D01*
X134680050Y-88442224D01*
X134841936Y-88435445D01*
X134968495Y-88433813D01*
X135119951Y-88440194D01*
X135268396Y-88454777D01*
X135404578Y-88476882D01*
X135469245Y-88491821D01*
X135601490Y-88534741D01*
X135723762Y-88591340D01*
X135833685Y-88660017D01*
X135928883Y-88739170D01*
X136006980Y-88827196D01*
X136065599Y-88922493D01*
X136089595Y-88974864D01*
X136115232Y-89045590D01*
X136131478Y-89116812D01*
X136139822Y-89195712D01*
X136141690Y-89286282D01*
X136141755Y-89289467D01*
G36*
X136141755Y-89289467D02*
G01*
X136141261Y-89323363D01*
X136137632Y-89398202D01*
X136130022Y-89460401D01*
X136117688Y-89516984D01*
X136073313Y-89643076D01*
X136010400Y-89757679D01*
X135930238Y-89858568D01*
X135833740Y-89944924D01*
X135721822Y-90015932D01*
X135595397Y-90070776D01*
X135455378Y-90108638D01*
X135419149Y-90114351D01*
X135340155Y-90120313D01*
X135251841Y-90120646D01*
X135162075Y-90115659D01*
X135078722Y-90105666D01*
X135009651Y-90090978D01*
X134923187Y-90060749D01*
X134813286Y-90006057D01*
X134715956Y-89938543D01*
X134653867Y-89887556D01*
X134650605Y-89983622D01*
X134647343Y-90079689D01*
X134224450Y-90079689D01*
X134213543Y-90079686D01*
X134119056Y-90079380D01*
X134032331Y-90078616D01*
X133955837Y-90077451D01*
X133892043Y-90075942D01*
X133843418Y-90074147D01*
X133812433Y-90072121D01*
X133801556Y-90069922D01*
X133801578Y-90069463D01*
X133808614Y-90053910D01*
X133824434Y-90031071D01*
X133828734Y-90025638D01*
X133839777Y-90011606D01*
X133849311Y-89998186D01*
X133857461Y-89983722D01*
X133864352Y-89966556D01*
X133870111Y-89945034D01*
X133874862Y-89917498D01*
X133878731Y-89882292D01*
X133881844Y-89837760D01*
X133884325Y-89782246D01*
X133886300Y-89714093D01*
X133887894Y-89631645D01*
X133889234Y-89533246D01*
X133890444Y-89417239D01*
X133890896Y-89366462D01*
X134693378Y-89366462D01*
X134738048Y-89422973D01*
X134750785Y-89438212D01*
X134797604Y-89480844D01*
X134858255Y-89516672D01*
X134868897Y-89521850D01*
X134907676Y-89538745D01*
X134942692Y-89548909D01*
X134982722Y-89554325D01*
X135036541Y-89556978D01*
X135054648Y-89557383D01*
X135130011Y-89554540D01*
X135190743Y-89542620D01*
X135242452Y-89520037D01*
X135290746Y-89485211D01*
X135295803Y-89480798D01*
X135344272Y-89425160D01*
X135372459Y-89361333D01*
X135381752Y-89286282D01*
X135374520Y-89214693D01*
X135349796Y-89151645D01*
X135305249Y-89093758D01*
X135250319Y-89046808D01*
X135177894Y-89006961D01*
X135091340Y-88979263D01*
X134988670Y-88963096D01*
X134867894Y-88957842D01*
X134859007Y-88957857D01*
X134803660Y-88958655D01*
X134756736Y-88960488D01*
X134722953Y-88963111D01*
X134707028Y-88966274D01*
X134702943Y-88972741D01*
X134698572Y-88994875D01*
X134695604Y-89033988D01*
X134693914Y-89091939D01*
X134693378Y-89170586D01*
X134693378Y-89366462D01*
X133890896Y-89366462D01*
X133891649Y-89281968D01*
X133892975Y-89125778D01*
X133894228Y-88983012D01*
X133895651Y-88837942D01*
X133897176Y-88712027D01*
X133898933Y-88603436D01*
X133901051Y-88510334D01*
X133903660Y-88430891D01*
X133906890Y-88363273D01*
X133910869Y-88305649D01*
X133915728Y-88256185D01*
X133921597Y-88213050D01*
X133928604Y-88174410D01*
X133936880Y-88138434D01*
X133946554Y-88103289D01*
X133957756Y-88067142D01*
X133970616Y-88028161D01*
X133986090Y-87985091D01*
X134028994Y-87892871D01*
X134082735Y-87813099D01*
X134151576Y-87738965D01*
X134229185Y-87675405D01*
X134333761Y-87613725D01*
X134453244Y-87566202D01*
X134588508Y-87532567D01*
X134740426Y-87512552D01*
X134909872Y-87505889D01*
X134967890Y-87506287D01*
X135033398Y-87508335D01*
X135094693Y-87512704D01*
X135156097Y-87520035D01*
X135221932Y-87530969D01*
X135296520Y-87546147D01*
X135384184Y-87566209D01*
X135489245Y-87591797D01*
X135517806Y-87598820D01*
X135593054Y-87616776D01*
X135663388Y-87632820D01*
X135724567Y-87646028D01*
X135772354Y-87655474D01*
X135802511Y-87660231D01*
X135830783Y-87663910D01*
X135857060Y-87669187D01*
X135867059Y-87673942D01*
X135863952Y-87682781D01*
X135853194Y-87710072D01*
X135835864Y-87752906D01*
X135813126Y-87808425D01*
X135786147Y-87873772D01*
X135756090Y-87946089D01*
X135749493Y-87961879D01*
X135710907Y-88052484D01*
X135679768Y-88122217D01*
X135655917Y-88171405D01*
X135639198Y-88200374D01*
X135629454Y-88209452D01*
X135621766Y-88207405D01*
X135595415Y-88197760D01*
X135556982Y-88182190D01*
X135511822Y-88162815D01*
X135417293Y-88124814D01*
X135280480Y-88083780D01*
X135139289Y-88058612D01*
X135101314Y-88054611D01*
X134998059Y-88052447D01*
X134910952Y-88065622D01*
X134839129Y-88094756D01*
X134781731Y-88140466D01*
X134737896Y-88203372D01*
X134706762Y-88284092D01*
X134687470Y-88383245D01*
X134680050Y-88442224D01*
X134841936Y-88435445D01*
X134968495Y-88433813D01*
X135119951Y-88440194D01*
X135268396Y-88454777D01*
X135404578Y-88476882D01*
X135469245Y-88491821D01*
X135601490Y-88534741D01*
X135723762Y-88591340D01*
X135833685Y-88660017D01*
X135928883Y-88739170D01*
X136006980Y-88827196D01*
X136065599Y-88922493D01*
X136089595Y-88974864D01*
X136115232Y-89045590D01*
X136131478Y-89116812D01*
X136139822Y-89195712D01*
X136141690Y-89286282D01*
X136141755Y-89289467D01*
G37*
X143689614Y-86757792D02*
X143690059Y-86889011D01*
X143690362Y-87036216D01*
X143690548Y-87200349D01*
X143690642Y-87382352D01*
X143690671Y-87583165D01*
X143690661Y-87803732D01*
X143690636Y-88044992D01*
X143690622Y-88307889D01*
X143690622Y-88350040D01*
X143690646Y-88610668D01*
X143690685Y-88849796D01*
X143690708Y-89068360D01*
X143690687Y-89267295D01*
X143690593Y-89447535D01*
X143690395Y-89610015D01*
X143690063Y-89755670D01*
X143689569Y-89885434D01*
X143688883Y-90000243D01*
X143687976Y-90101030D01*
X143686817Y-90188730D01*
X143685378Y-90264279D01*
X143683629Y-90328611D01*
X143681540Y-90382661D01*
X143679083Y-90427363D01*
X143676227Y-90463652D01*
X143672943Y-90492463D01*
X143669202Y-90514731D01*
X143664974Y-90531390D01*
X143660229Y-90543375D01*
X143654939Y-90551621D01*
X143649073Y-90557062D01*
X143642602Y-90560634D01*
X143635497Y-90563270D01*
X143627728Y-90565906D01*
X143619266Y-90569477D01*
X143614908Y-90571145D01*
X143606395Y-90573111D01*
X143593694Y-90574911D01*
X143575885Y-90576555D01*
X143552049Y-90578047D01*
X143521266Y-90579397D01*
X143482617Y-90580611D01*
X143435182Y-90581697D01*
X143378043Y-90582661D01*
X143310279Y-90583511D01*
X143230971Y-90584253D01*
X143139199Y-90584897D01*
X143034044Y-90585447D01*
X142914587Y-90585913D01*
X142779908Y-90586300D01*
X142629088Y-90586616D01*
X142461206Y-90586869D01*
X142275345Y-90587066D01*
X142070583Y-90587213D01*
X141846002Y-90587318D01*
X141600682Y-90587389D01*
X141333704Y-90587432D01*
X141295321Y-90587437D01*
X141029922Y-90587480D01*
X140786050Y-90587525D01*
X140562783Y-90587548D01*
X140359196Y-90587524D01*
X140174367Y-90587430D01*
X140007373Y-90587243D01*
X139857290Y-90586939D01*
X139723196Y-90586494D01*
X139604166Y-90585885D01*
X139499279Y-90585089D01*
X139407610Y-90584080D01*
X139328237Y-90582837D01*
X139260237Y-90581335D01*
X139202686Y-90579551D01*
X139154662Y-90577461D01*
X139115240Y-90575042D01*
X139083499Y-90572270D01*
X139058514Y-90569121D01*
X139039364Y-90565572D01*
X139025123Y-90561598D01*
X139014871Y-90557178D01*
X139007682Y-90552286D01*
X139002635Y-90546900D01*
X138998805Y-90540996D01*
X138995271Y-90534549D01*
X138991108Y-90527537D01*
X138990025Y-90525687D01*
X138987813Y-90520180D01*
X138985786Y-90511868D01*
X138983938Y-90499809D01*
X138982261Y-90483063D01*
X138980745Y-90460687D01*
X138979383Y-90431740D01*
X138978167Y-90395280D01*
X138977089Y-90350367D01*
X138976140Y-90296057D01*
X138975312Y-90231410D01*
X138974597Y-90155484D01*
X138973987Y-90067338D01*
X138973942Y-90058493D01*
X139265378Y-90058493D01*
X139269260Y-90059765D01*
X139292520Y-90061791D01*
X139334874Y-90063626D01*
X139394132Y-90065227D01*
X139468107Y-90066549D01*
X139554610Y-90067548D01*
X139651452Y-90068180D01*
X139756445Y-90068400D01*
X140454651Y-90068400D01*
X141609090Y-90068400D01*
X141608456Y-89992200D01*
X141609574Y-89950160D01*
X141615304Y-89914334D01*
X141627890Y-89876772D01*
X141649568Y-89828577D01*
X141652789Y-89821897D01*
X141678188Y-89772359D01*
X141704996Y-89724369D01*
X141727917Y-89687466D01*
X141732485Y-89680834D01*
X141754516Y-89649593D01*
X141786693Y-89604654D01*
X141827457Y-89548147D01*
X141875245Y-89482204D01*
X141928498Y-89408957D01*
X141985655Y-89330536D01*
X142045155Y-89249072D01*
X142105437Y-89166698D01*
X142164940Y-89085544D01*
X142222105Y-89007742D01*
X142275370Y-88935423D01*
X142323174Y-88870718D01*
X142363957Y-88815759D01*
X142396158Y-88772676D01*
X142418216Y-88743602D01*
X142428571Y-88730667D01*
X142433044Y-88726351D01*
X142437236Y-88724312D01*
X142440643Y-88726926D01*
X142443325Y-88735986D01*
X142445341Y-88753285D01*
X142446748Y-88780614D01*
X142447605Y-88819765D01*
X142447970Y-88872533D01*
X142447903Y-88940707D01*
X142447460Y-89026082D01*
X142446702Y-89130449D01*
X142445685Y-89255600D01*
X142445308Y-89300300D01*
X142444169Y-89421395D01*
X142442972Y-89522688D01*
X142441636Y-89606262D01*
X142440077Y-89674204D01*
X142438215Y-89728599D01*
X142435966Y-89771532D01*
X142433248Y-89805089D01*
X142429979Y-89831355D01*
X142426078Y-89852416D01*
X142421461Y-89870357D01*
X142413192Y-89896770D01*
X142389583Y-89958772D01*
X142363685Y-90011573D01*
X142338535Y-90048645D01*
X142337339Y-90050075D01*
X142335168Y-90054424D01*
X142337328Y-90058026D01*
X142345644Y-90060951D01*
X142361940Y-90063269D01*
X142388041Y-90065051D01*
X142425771Y-90066367D01*
X142476956Y-90067286D01*
X142543420Y-90067878D01*
X142626987Y-90068215D01*
X142729483Y-90068365D01*
X142852732Y-90068400D01*
X143384296Y-90068400D01*
X143345523Y-90010783D01*
X143339432Y-90001893D01*
X143328976Y-89987069D01*
X143319579Y-89973422D01*
X143311183Y-89959765D01*
X143303733Y-89944911D01*
X143297173Y-89927670D01*
X143291446Y-89906855D01*
X143286495Y-89881280D01*
X143282266Y-89849755D01*
X143278701Y-89811093D01*
X143275744Y-89764107D01*
X143273340Y-89707608D01*
X143271431Y-89640409D01*
X143269962Y-89561322D01*
X143268876Y-89469160D01*
X143268118Y-89362734D01*
X143267630Y-89240857D01*
X143267358Y-89102341D01*
X143267243Y-88945999D01*
X143267231Y-88770642D01*
X143267265Y-88575082D01*
X143267289Y-88358133D01*
X143267280Y-88235513D01*
X143267243Y-88030447D01*
X143267227Y-87846116D01*
X143267288Y-87681334D01*
X143267484Y-87534916D01*
X143267870Y-87405674D01*
X143268505Y-87292422D01*
X143269444Y-87193975D01*
X143270745Y-87109144D01*
X143272464Y-87036744D01*
X143274659Y-86975589D01*
X143277385Y-86924492D01*
X143280701Y-86882267D01*
X143284662Y-86847727D01*
X143289325Y-86819686D01*
X143294747Y-86796958D01*
X143300986Y-86778356D01*
X143308097Y-86762693D01*
X143316138Y-86748784D01*
X143325166Y-86735441D01*
X143335236Y-86721479D01*
X143346407Y-86705711D01*
X143386197Y-86647867D01*
X142326314Y-86647867D01*
X142364311Y-86710966D01*
X142378993Y-86736005D01*
X142393531Y-86763586D01*
X142405627Y-86791700D01*
X142415532Y-86822551D01*
X142423494Y-86858344D01*
X142429761Y-86901283D01*
X142434582Y-86953574D01*
X142438206Y-87017419D01*
X142440881Y-87095025D01*
X142442857Y-87188594D01*
X142444382Y-87300333D01*
X142445704Y-87432445D01*
X142446613Y-87552434D01*
X142447020Y-87669063D01*
X142446767Y-87764531D01*
X142445857Y-87838556D01*
X142444293Y-87890855D01*
X142442079Y-87921149D01*
X142439220Y-87929156D01*
X142436161Y-87925858D01*
X142418006Y-87904408D01*
X142388275Y-87867889D01*
X142348639Y-87818442D01*
X142300771Y-87758207D01*
X142246343Y-87689327D01*
X142187027Y-87613943D01*
X142124495Y-87534196D01*
X142060421Y-87452228D01*
X141996475Y-87370180D01*
X141934331Y-87290194D01*
X141875661Y-87214411D01*
X141822137Y-87144973D01*
X141775430Y-87084021D01*
X141737214Y-87033696D01*
X141709161Y-86996140D01*
X141692943Y-86973495D01*
X141647635Y-86901212D01*
X141607661Y-86821463D01*
X141586130Y-86753188D01*
X141582827Y-86695844D01*
X141588116Y-86647867D01*
X140456356Y-86648117D01*
X140495867Y-86678722D01*
X140505248Y-86686089D01*
X140568183Y-86740438D01*
X140636997Y-86808259D01*
X140713596Y-86891516D01*
X140799888Y-86992178D01*
X140817052Y-87012847D01*
X140857833Y-87062409D01*
X140907588Y-87123326D01*
X140964955Y-87193898D01*
X141028569Y-87272424D01*
X141097069Y-87357204D01*
X141169090Y-87446537D01*
X141243270Y-87538722D01*
X141258517Y-87557702D01*
X141318246Y-87632060D01*
X141392653Y-87724848D01*
X141465131Y-87815388D01*
X141534314Y-87901978D01*
X141598841Y-87982918D01*
X141657347Y-88056506D01*
X141708470Y-88121044D01*
X141750847Y-88174829D01*
X141783115Y-88216162D01*
X141803910Y-88243342D01*
X141811869Y-88254668D01*
X141810111Y-88258771D01*
X141797230Y-88279334D01*
X141772885Y-88315561D01*
X141738247Y-88365824D01*
X141694486Y-88428492D01*
X141642775Y-88501936D01*
X141584284Y-88584527D01*
X141520184Y-88674636D01*
X141451646Y-88770631D01*
X141379843Y-88870885D01*
X141305944Y-88973768D01*
X141231121Y-89077650D01*
X141156545Y-89180901D01*
X141083387Y-89281892D01*
X141012819Y-89378994D01*
X140946011Y-89470577D01*
X140884135Y-89555011D01*
X140828361Y-89630667D01*
X140779862Y-89695916D01*
X140739807Y-89749128D01*
X140709369Y-89788673D01*
X140688944Y-89814026D01*
X140642899Y-89868295D01*
X140592612Y-89924775D01*
X140545815Y-89974669D01*
X140454651Y-90068400D01*
X139756445Y-90068400D01*
X139825356Y-90068349D01*
X139923607Y-90068091D01*
X140013030Y-90067637D01*
X140091333Y-90067010D01*
X140156223Y-90066235D01*
X140205411Y-90065335D01*
X140236604Y-90064334D01*
X140247511Y-90063257D01*
X140246322Y-90060037D01*
X140236176Y-90042452D01*
X140219040Y-90016158D01*
X140210540Y-90003691D01*
X140201329Y-89989622D01*
X140193233Y-89975351D01*
X140186185Y-89959479D01*
X140180117Y-89940609D01*
X140174961Y-89917341D01*
X140170651Y-89888278D01*
X140167119Y-89852021D01*
X140164297Y-89807170D01*
X140162118Y-89752328D01*
X140160514Y-89686097D01*
X140159419Y-89607077D01*
X140158765Y-89513871D01*
X140158484Y-89405079D01*
X140158509Y-89279303D01*
X140158772Y-89135145D01*
X140159206Y-88971207D01*
X140159745Y-88786089D01*
X140160279Y-88607232D01*
X140160805Y-88448374D01*
X140161350Y-88309316D01*
X140161945Y-88188665D01*
X140162619Y-88085028D01*
X140163403Y-87997011D01*
X140164326Y-87923223D01*
X140165419Y-87862269D01*
X140166712Y-87812757D01*
X140168235Y-87773293D01*
X140170019Y-87742484D01*
X140172092Y-87718938D01*
X140174486Y-87701260D01*
X140177230Y-87688059D01*
X140180356Y-87677940D01*
X140183892Y-87669511D01*
X140187791Y-87661375D01*
X140207438Y-87624544D01*
X140226225Y-87594391D01*
X140227272Y-87592908D01*
X140241602Y-87570659D01*
X140247511Y-87557702D01*
X140246504Y-87557249D01*
X140229305Y-87555803D01*
X140192656Y-87554480D01*
X140138962Y-87553316D01*
X140070630Y-87552347D01*
X139990064Y-87551611D01*
X139899670Y-87551142D01*
X139801853Y-87550978D01*
X139356195Y-87550978D01*
X139353120Y-88727845D01*
X139350045Y-89904711D01*
X139323407Y-89963622D01*
X139311485Y-89988183D01*
X139294246Y-90018434D01*
X139281074Y-90035560D01*
X139273076Y-90043591D01*
X139265378Y-90058493D01*
X138973942Y-90058493D01*
X138973474Y-89966029D01*
X138973050Y-89850617D01*
X138972706Y-89720160D01*
X138972434Y-89573716D01*
X138972227Y-89410344D01*
X138972076Y-89229101D01*
X138971972Y-89029048D01*
X138971908Y-88809241D01*
X138971876Y-88568739D01*
X138971867Y-88306602D01*
X138971867Y-86115031D01*
X139010249Y-86076649D01*
X139037355Y-86052911D01*
X139064253Y-86041111D01*
X139100560Y-86038267D01*
X139152489Y-86038267D01*
X139152489Y-86126206D01*
X139154427Y-86176102D01*
X139173199Y-86286523D01*
X139210217Y-86387987D01*
X139263369Y-86479152D01*
X139330546Y-86558673D01*
X139409638Y-86625205D01*
X139498534Y-86677406D01*
X139595125Y-86713930D01*
X139697300Y-86733434D01*
X139802950Y-86734573D01*
X139909964Y-86716005D01*
X140016232Y-86676384D01*
X140113219Y-86618516D01*
X140198293Y-86543684D01*
X140267015Y-86455615D01*
X140317918Y-86356616D01*
X140349535Y-86248993D01*
X140360400Y-86135054D01*
X140360400Y-86038267D01*
X141980753Y-86038267D01*
X142191897Y-86038280D01*
X142396020Y-86038330D01*
X142579686Y-86038430D01*
X142743991Y-86038592D01*
X142890029Y-86038829D01*
X143018894Y-86039153D01*
X143131683Y-86039575D01*
X143229488Y-86040109D01*
X143313404Y-86040767D01*
X143384527Y-86041561D01*
X143443950Y-86042504D01*
X143492768Y-86043608D01*
X143532077Y-86044884D01*
X143562969Y-86046347D01*
X143586541Y-86048007D01*
X143603886Y-86049878D01*
X143616099Y-86051972D01*
X143624275Y-86054300D01*
X143629508Y-86056876D01*
X143635504Y-86060445D01*
X143642279Y-86063978D01*
X143648478Y-86067488D01*
X143654126Y-86071918D01*
X143659247Y-86078208D01*
X143663869Y-86087301D01*
X143668015Y-86100139D01*
X143671713Y-86117662D01*
X143674987Y-86140813D01*
X143677863Y-86170534D01*
X143680367Y-86207765D01*
X143682524Y-86253449D01*
X143684360Y-86308527D01*
X143685900Y-86373941D01*
X143687170Y-86450633D01*
X143688195Y-86539544D01*
X143689001Y-86641617D01*
X143689034Y-86647867D01*
X143689614Y-86757792D01*
G36*
X143689614Y-86757792D02*
G01*
X143690059Y-86889011D01*
X143690362Y-87036216D01*
X143690548Y-87200349D01*
X143690642Y-87382352D01*
X143690671Y-87583165D01*
X143690661Y-87803732D01*
X143690636Y-88044992D01*
X143690622Y-88307889D01*
X143690622Y-88350040D01*
X143690646Y-88610668D01*
X143690685Y-88849796D01*
X143690708Y-89068360D01*
X143690687Y-89267295D01*
X143690593Y-89447535D01*
X143690395Y-89610015D01*
X143690063Y-89755670D01*
X143689569Y-89885434D01*
X143688883Y-90000243D01*
X143687976Y-90101030D01*
X143686817Y-90188730D01*
X143685378Y-90264279D01*
X143683629Y-90328611D01*
X143681540Y-90382661D01*
X143679083Y-90427363D01*
X143676227Y-90463652D01*
X143672943Y-90492463D01*
X143669202Y-90514731D01*
X143664974Y-90531390D01*
X143660229Y-90543375D01*
X143654939Y-90551621D01*
X143649073Y-90557062D01*
X143642602Y-90560634D01*
X143635497Y-90563270D01*
X143627728Y-90565906D01*
X143619266Y-90569477D01*
X143614908Y-90571145D01*
X143606395Y-90573111D01*
X143593694Y-90574911D01*
X143575885Y-90576555D01*
X143552049Y-90578047D01*
X143521266Y-90579397D01*
X143482617Y-90580611D01*
X143435182Y-90581697D01*
X143378043Y-90582661D01*
X143310279Y-90583511D01*
X143230971Y-90584253D01*
X143139199Y-90584897D01*
X143034044Y-90585447D01*
X142914587Y-90585913D01*
X142779908Y-90586300D01*
X142629088Y-90586616D01*
X142461206Y-90586869D01*
X142275345Y-90587066D01*
X142070583Y-90587213D01*
X141846002Y-90587318D01*
X141600682Y-90587389D01*
X141333704Y-90587432D01*
X141295321Y-90587437D01*
X141029922Y-90587480D01*
X140786050Y-90587525D01*
X140562783Y-90587548D01*
X140359196Y-90587524D01*
X140174367Y-90587430D01*
X140007373Y-90587243D01*
X139857290Y-90586939D01*
X139723196Y-90586494D01*
X139604166Y-90585885D01*
X139499279Y-90585089D01*
X139407610Y-90584080D01*
X139328237Y-90582837D01*
X139260237Y-90581335D01*
X139202686Y-90579551D01*
X139154662Y-90577461D01*
X139115240Y-90575042D01*
X139083499Y-90572270D01*
X139058514Y-90569121D01*
X139039364Y-90565572D01*
X139025123Y-90561598D01*
X139014871Y-90557178D01*
X139007682Y-90552286D01*
X139002635Y-90546900D01*
X138998805Y-90540996D01*
X138995271Y-90534549D01*
X138991108Y-90527537D01*
X138990025Y-90525687D01*
X138987813Y-90520180D01*
X138985786Y-90511868D01*
X138983938Y-90499809D01*
X138982261Y-90483063D01*
X138980745Y-90460687D01*
X138979383Y-90431740D01*
X138978167Y-90395280D01*
X138977089Y-90350367D01*
X138976140Y-90296057D01*
X138975312Y-90231410D01*
X138974597Y-90155484D01*
X138973987Y-90067338D01*
X138973942Y-90058493D01*
X139265378Y-90058493D01*
X139269260Y-90059765D01*
X139292520Y-90061791D01*
X139334874Y-90063626D01*
X139394132Y-90065227D01*
X139468107Y-90066549D01*
X139554610Y-90067548D01*
X139651452Y-90068180D01*
X139756445Y-90068400D01*
X140454651Y-90068400D01*
X141609090Y-90068400D01*
X141608456Y-89992200D01*
X141609574Y-89950160D01*
X141615304Y-89914334D01*
X141627890Y-89876772D01*
X141649568Y-89828577D01*
X141652789Y-89821897D01*
X141678188Y-89772359D01*
X141704996Y-89724369D01*
X141727917Y-89687466D01*
X141732485Y-89680834D01*
X141754516Y-89649593D01*
X141786693Y-89604654D01*
X141827457Y-89548147D01*
X141875245Y-89482204D01*
X141928498Y-89408957D01*
X141985655Y-89330536D01*
X142045155Y-89249072D01*
X142105437Y-89166698D01*
X142164940Y-89085544D01*
X142222105Y-89007742D01*
X142275370Y-88935423D01*
X142323174Y-88870718D01*
X142363957Y-88815759D01*
X142396158Y-88772676D01*
X142418216Y-88743602D01*
X142428571Y-88730667D01*
X142433044Y-88726351D01*
X142437236Y-88724312D01*
X142440643Y-88726926D01*
X142443325Y-88735986D01*
X142445341Y-88753285D01*
X142446748Y-88780614D01*
X142447605Y-88819765D01*
X142447970Y-88872533D01*
X142447903Y-88940707D01*
X142447460Y-89026082D01*
X142446702Y-89130449D01*
X142445685Y-89255600D01*
X142445308Y-89300300D01*
X142444169Y-89421395D01*
X142442972Y-89522688D01*
X142441636Y-89606262D01*
X142440077Y-89674204D01*
X142438215Y-89728599D01*
X142435966Y-89771532D01*
X142433248Y-89805089D01*
X142429979Y-89831355D01*
X142426078Y-89852416D01*
X142421461Y-89870357D01*
X142413192Y-89896770D01*
X142389583Y-89958772D01*
X142363685Y-90011573D01*
X142338535Y-90048645D01*
X142337339Y-90050075D01*
X142335168Y-90054424D01*
X142337328Y-90058026D01*
X142345644Y-90060951D01*
X142361940Y-90063269D01*
X142388041Y-90065051D01*
X142425771Y-90066367D01*
X142476956Y-90067286D01*
X142543420Y-90067878D01*
X142626987Y-90068215D01*
X142729483Y-90068365D01*
X142852732Y-90068400D01*
X143384296Y-90068400D01*
X143345523Y-90010783D01*
X143339432Y-90001893D01*
X143328976Y-89987069D01*
X143319579Y-89973422D01*
X143311183Y-89959765D01*
X143303733Y-89944911D01*
X143297173Y-89927670D01*
X143291446Y-89906855D01*
X143286495Y-89881280D01*
X143282266Y-89849755D01*
X143278701Y-89811093D01*
X143275744Y-89764107D01*
X143273340Y-89707608D01*
X143271431Y-89640409D01*
X143269962Y-89561322D01*
X143268876Y-89469160D01*
X143268118Y-89362734D01*
X143267630Y-89240857D01*
X143267358Y-89102341D01*
X143267243Y-88945999D01*
X143267231Y-88770642D01*
X143267265Y-88575082D01*
X143267289Y-88358133D01*
X143267280Y-88235513D01*
X143267243Y-88030447D01*
X143267227Y-87846116D01*
X143267288Y-87681334D01*
X143267484Y-87534916D01*
X143267870Y-87405674D01*
X143268505Y-87292422D01*
X143269444Y-87193975D01*
X143270745Y-87109144D01*
X143272464Y-87036744D01*
X143274659Y-86975589D01*
X143277385Y-86924492D01*
X143280701Y-86882267D01*
X143284662Y-86847727D01*
X143289325Y-86819686D01*
X143294747Y-86796958D01*
X143300986Y-86778356D01*
X143308097Y-86762693D01*
X143316138Y-86748784D01*
X143325166Y-86735441D01*
X143335236Y-86721479D01*
X143346407Y-86705711D01*
X143386197Y-86647867D01*
X142326314Y-86647867D01*
X142364311Y-86710966D01*
X142378993Y-86736005D01*
X142393531Y-86763586D01*
X142405627Y-86791700D01*
X142415532Y-86822551D01*
X142423494Y-86858344D01*
X142429761Y-86901283D01*
X142434582Y-86953574D01*
X142438206Y-87017419D01*
X142440881Y-87095025D01*
X142442857Y-87188594D01*
X142444382Y-87300333D01*
X142445704Y-87432445D01*
X142446613Y-87552434D01*
X142447020Y-87669063D01*
X142446767Y-87764531D01*
X142445857Y-87838556D01*
X142444293Y-87890855D01*
X142442079Y-87921149D01*
X142439220Y-87929156D01*
X142436161Y-87925858D01*
X142418006Y-87904408D01*
X142388275Y-87867889D01*
X142348639Y-87818442D01*
X142300771Y-87758207D01*
X142246343Y-87689327D01*
X142187027Y-87613943D01*
X142124495Y-87534196D01*
X142060421Y-87452228D01*
X141996475Y-87370180D01*
X141934331Y-87290194D01*
X141875661Y-87214411D01*
X141822137Y-87144973D01*
X141775430Y-87084021D01*
X141737214Y-87033696D01*
X141709161Y-86996140D01*
X141692943Y-86973495D01*
X141647635Y-86901212D01*
X141607661Y-86821463D01*
X141586130Y-86753188D01*
X141582827Y-86695844D01*
X141588116Y-86647867D01*
X140456356Y-86648117D01*
X140495867Y-86678722D01*
X140505248Y-86686089D01*
X140568183Y-86740438D01*
X140636997Y-86808259D01*
X140713596Y-86891516D01*
X140799888Y-86992178D01*
X140817052Y-87012847D01*
X140857833Y-87062409D01*
X140907588Y-87123326D01*
X140964955Y-87193898D01*
X141028569Y-87272424D01*
X141097069Y-87357204D01*
X141169090Y-87446537D01*
X141243270Y-87538722D01*
X141258517Y-87557702D01*
X141318246Y-87632060D01*
X141392653Y-87724848D01*
X141465131Y-87815388D01*
X141534314Y-87901978D01*
X141598841Y-87982918D01*
X141657347Y-88056506D01*
X141708470Y-88121044D01*
X141750847Y-88174829D01*
X141783115Y-88216162D01*
X141803910Y-88243342D01*
X141811869Y-88254668D01*
X141810111Y-88258771D01*
X141797230Y-88279334D01*
X141772885Y-88315561D01*
X141738247Y-88365824D01*
X141694486Y-88428492D01*
X141642775Y-88501936D01*
X141584284Y-88584527D01*
X141520184Y-88674636D01*
X141451646Y-88770631D01*
X141379843Y-88870885D01*
X141305944Y-88973768D01*
X141231121Y-89077650D01*
X141156545Y-89180901D01*
X141083387Y-89281892D01*
X141012819Y-89378994D01*
X140946011Y-89470577D01*
X140884135Y-89555011D01*
X140828361Y-89630667D01*
X140779862Y-89695916D01*
X140739807Y-89749128D01*
X140709369Y-89788673D01*
X140688944Y-89814026D01*
X140642899Y-89868295D01*
X140592612Y-89924775D01*
X140545815Y-89974669D01*
X140454651Y-90068400D01*
X139756445Y-90068400D01*
X139825356Y-90068349D01*
X139923607Y-90068091D01*
X140013030Y-90067637D01*
X140091333Y-90067010D01*
X140156223Y-90066235D01*
X140205411Y-90065335D01*
X140236604Y-90064334D01*
X140247511Y-90063257D01*
X140246322Y-90060037D01*
X140236176Y-90042452D01*
X140219040Y-90016158D01*
X140210540Y-90003691D01*
X140201329Y-89989622D01*
X140193233Y-89975351D01*
X140186185Y-89959479D01*
X140180117Y-89940609D01*
X140174961Y-89917341D01*
X140170651Y-89888278D01*
X140167119Y-89852021D01*
X140164297Y-89807170D01*
X140162118Y-89752328D01*
X140160514Y-89686097D01*
X140159419Y-89607077D01*
X140158765Y-89513871D01*
X140158484Y-89405079D01*
X140158509Y-89279303D01*
X140158772Y-89135145D01*
X140159206Y-88971207D01*
X140159745Y-88786089D01*
X140160279Y-88607232D01*
X140160805Y-88448374D01*
X140161350Y-88309316D01*
X140161945Y-88188665D01*
X140162619Y-88085028D01*
X140163403Y-87997011D01*
X140164326Y-87923223D01*
X140165419Y-87862269D01*
X140166712Y-87812757D01*
X140168235Y-87773293D01*
X140170019Y-87742484D01*
X140172092Y-87718938D01*
X140174486Y-87701260D01*
X140177230Y-87688059D01*
X140180356Y-87677940D01*
X140183892Y-87669511D01*
X140187791Y-87661375D01*
X140207438Y-87624544D01*
X140226225Y-87594391D01*
X140227272Y-87592908D01*
X140241602Y-87570659D01*
X140247511Y-87557702D01*
X140246504Y-87557249D01*
X140229305Y-87555803D01*
X140192656Y-87554480D01*
X140138962Y-87553316D01*
X140070630Y-87552347D01*
X139990064Y-87551611D01*
X139899670Y-87551142D01*
X139801853Y-87550978D01*
X139356195Y-87550978D01*
X139353120Y-88727845D01*
X139350045Y-89904711D01*
X139323407Y-89963622D01*
X139311485Y-89988183D01*
X139294246Y-90018434D01*
X139281074Y-90035560D01*
X139273076Y-90043591D01*
X139265378Y-90058493D01*
X138973942Y-90058493D01*
X138973474Y-89966029D01*
X138973050Y-89850617D01*
X138972706Y-89720160D01*
X138972434Y-89573716D01*
X138972227Y-89410344D01*
X138972076Y-89229101D01*
X138971972Y-89029048D01*
X138971908Y-88809241D01*
X138971876Y-88568739D01*
X138971867Y-88306602D01*
X138971867Y-86115031D01*
X139010249Y-86076649D01*
X139037355Y-86052911D01*
X139064253Y-86041111D01*
X139100560Y-86038267D01*
X139152489Y-86038267D01*
X139152489Y-86126206D01*
X139154427Y-86176102D01*
X139173199Y-86286523D01*
X139210217Y-86387987D01*
X139263369Y-86479152D01*
X139330546Y-86558673D01*
X139409638Y-86625205D01*
X139498534Y-86677406D01*
X139595125Y-86713930D01*
X139697300Y-86733434D01*
X139802950Y-86734573D01*
X139909964Y-86716005D01*
X140016232Y-86676384D01*
X140113219Y-86618516D01*
X140198293Y-86543684D01*
X140267015Y-86455615D01*
X140317918Y-86356616D01*
X140349535Y-86248993D01*
X140360400Y-86135054D01*
X140360400Y-86038267D01*
X141980753Y-86038267D01*
X142191897Y-86038280D01*
X142396020Y-86038330D01*
X142579686Y-86038430D01*
X142743991Y-86038592D01*
X142890029Y-86038829D01*
X143018894Y-86039153D01*
X143131683Y-86039575D01*
X143229488Y-86040109D01*
X143313404Y-86040767D01*
X143384527Y-86041561D01*
X143443950Y-86042504D01*
X143492768Y-86043608D01*
X143532077Y-86044884D01*
X143562969Y-86046347D01*
X143586541Y-86048007D01*
X143603886Y-86049878D01*
X143616099Y-86051972D01*
X143624275Y-86054300D01*
X143629508Y-86056876D01*
X143635504Y-86060445D01*
X143642279Y-86063978D01*
X143648478Y-86067488D01*
X143654126Y-86071918D01*
X143659247Y-86078208D01*
X143663869Y-86087301D01*
X143668015Y-86100139D01*
X143671713Y-86117662D01*
X143674987Y-86140813D01*
X143677863Y-86170534D01*
X143680367Y-86207765D01*
X143682524Y-86253449D01*
X143684360Y-86308527D01*
X143685900Y-86373941D01*
X143687170Y-86450633D01*
X143688195Y-86539544D01*
X143689001Y-86641617D01*
X143689034Y-86647867D01*
X143689614Y-86757792D01*
G37*
%TD*%
%LPC*%
D13*
%TO.C,J201*%
X103856000Y-87783000D03*
D14*
X103856000Y-93563000D03*
D15*
X104431000Y-86348000D03*
D16*
X100156000Y-86348000D03*
D15*
X104431000Y-94998000D03*
D16*
X100156000Y-94998000D03*
%TD*%
D17*
%TO.C,SW101*%
X110495000Y-97536000D03*
D18*
X107955000Y-97536000D03*
%TD*%
D19*
%TO.C,J105*%
X101346000Y-81788000D03*
X100331000Y-76708000D03*
X102361000Y-76708000D03*
%TD*%
D20*
%TO.C,J104*%
X136271000Y-103759000D03*
D21*
X138811000Y-103759000D03*
X141351000Y-103759000D03*
%TD*%
D22*
%TO.C,U106*%
X126238000Y-104013000D03*
D23*
X128778000Y-104013000D03*
X131318000Y-104013000D03*
%TD*%
D20*
%TO.C,J102*%
X158623000Y-95377000D03*
D21*
X158623000Y-92837000D03*
X158623000Y-90297000D03*
%TD*%
D24*
%TO.C,H104*%
X101600000Y-104267000D03*
%TD*%
D20*
%TO.C,J101*%
X158623000Y-84836000D03*
D21*
X158623000Y-82296000D03*
X158623000Y-79756000D03*
%TD*%
D24*
%TO.C,H103*%
X159000000Y-104267000D03*
%TD*%
%TO.C,H101*%
X101600000Y-72136000D03*
%TD*%
D20*
%TO.C,J103*%
X146812000Y-103759000D03*
D21*
X149352000Y-103759000D03*
X151892000Y-103759000D03*
%TD*%
D24*
%TO.C,H102*%
X159000000Y-72136000D03*
%TD*%
%LPD*%
M02*
