%TF.GenerationSoftware,KiCad,Pcbnew,7.0.6-0*%
%TF.CreationDate,2023-08-12T13:32:15-04:00*%
%TF.ProjectId,wled-esp32-control-board,776c6564-2d65-4737-9033-322d636f6e74,A*%
%TF.SameCoordinates,Original*%
%TF.FileFunction,Legend,Top*%
%TF.FilePolarity,Positive*%
%FSLAX46Y46*%
G04 Gerber Fmt 4.6, Leading zero omitted, Abs format (unit mm)*
G04 Created by KiCad (PCBNEW 7.0.6-0) date 2023-08-12 13:32:15*
%MOMM*%
%LPD*%
G01*
G04 APERTURE LIST*
G04 Aperture macros list*
%AMRoundRect*
0 Rectangle with rounded corners*
0 $1 Rounding radius*
0 $2 $3 $4 $5 $6 $7 $8 $9 X,Y pos of 4 corners*
0 Add a 4 corners polygon primitive as box body*
4,1,4,$2,$3,$4,$5,$6,$7,$8,$9,$2,$3,0*
0 Add four circle primitives for the rounded corners*
1,1,$1+$1,$2,$3*
1,1,$1+$1,$4,$5*
1,1,$1+$1,$6,$7*
1,1,$1+$1,$8,$9*
0 Add four rect primitives between the rounded corners*
20,1,$1+$1,$2,$3,$4,$5,0*
20,1,$1+$1,$4,$5,$6,$7,0*
20,1,$1+$1,$6,$7,$8,$9,0*
20,1,$1+$1,$8,$9,$2,$3,0*%
G04 Aperture macros list end*
%ADD10C,0.153000*%
%ADD11C,0.120000*%
%ADD12C,0.100000*%
%ADD13C,0.787000*%
%ADD14C,0.991000*%
%ADD15C,0.600000*%
%ADD16O,0.600000X0.950000*%
%ADD17R,1.400000X0.300000*%
%ADD18O,2.300000X1.200000*%
%ADD19O,2.000000X1.200000*%
%ADD20RoundRect,0.200000X-0.200000X-0.275000X0.200000X-0.275000X0.200000X0.275000X-0.200000X0.275000X0*%
%ADD21RoundRect,0.225000X-0.250000X0.225000X-0.250000X-0.225000X0.250000X-0.225000X0.250000X0.225000X0*%
%ADD22R,1.000000X0.700000*%
%ADD23R,0.600000X0.700000*%
%ADD24RoundRect,0.218750X-0.218750X-0.256250X0.218750X-0.256250X0.218750X0.256250X-0.218750X0.256250X0*%
%ADD25R,1.700000X1.700000*%
%ADD26O,1.700000X1.700000*%
%ADD27RoundRect,0.225000X0.250000X-0.225000X0.250000X0.225000X-0.250000X0.225000X-0.250000X-0.225000X0*%
%ADD28RoundRect,0.200000X0.200000X0.275000X-0.200000X0.275000X-0.200000X-0.275000X0.200000X-0.275000X0*%
%ADD29R,1.650000X1.650000*%
%ADD30C,1.650000*%
%ADD31RoundRect,0.250200X-0.649800X-0.649800X0.649800X-0.649800X0.649800X0.649800X-0.649800X0.649800X0*%
%ADD32C,1.800000*%
%ADD33C,3.200000*%
%ADD34RoundRect,0.200000X-0.275000X0.200000X-0.275000X-0.200000X0.275000X-0.200000X0.275000X0.200000X0*%
%ADD35RoundRect,0.200000X0.275000X-0.200000X0.275000X0.200000X-0.275000X0.200000X-0.275000X-0.200000X0*%
%ADD36RoundRect,0.150000X-0.512500X-0.150000X0.512500X-0.150000X0.512500X0.150000X-0.512500X0.150000X0*%
%ADD37R,0.400000X0.650000*%
%ADD38RoundRect,0.250000X0.250000X0.475000X-0.250000X0.475000X-0.250000X-0.475000X0.250000X-0.475000X0*%
%ADD39R,1.000000X0.750000*%
%ADD40RoundRect,0.218750X0.218750X0.256250X-0.218750X0.256250X-0.218750X-0.256250X0.218750X-0.256250X0*%
%ADD41RoundRect,0.250000X0.450000X-0.262500X0.450000X0.262500X-0.450000X0.262500X-0.450000X-0.262500X0*%
%ADD42RoundRect,0.225000X0.225000X0.250000X-0.225000X0.250000X-0.225000X-0.250000X0.225000X-0.250000X0*%
%ADD43RoundRect,0.062500X-0.337500X-0.062500X0.337500X-0.062500X0.337500X0.062500X-0.337500X0.062500X0*%
%ADD44RoundRect,0.062500X-0.062500X-0.337500X0.062500X-0.337500X0.062500X0.337500X-0.062500X0.337500X0*%
%ADD45R,3.350000X3.350000*%
%ADD46RoundRect,0.225000X-0.225000X-0.250000X0.225000X-0.250000X0.225000X0.250000X-0.225000X0.250000X0*%
%ADD47R,1.500000X0.900000*%
%ADD48R,0.900000X1.500000*%
%ADD49C,0.475000*%
%ADD50R,4.200000X4.200000*%
G04 APERTURE END LIST*
D10*
X153886663Y-80022666D02*
X154886663Y-79755999D01*
X154886663Y-79755999D02*
X153886663Y-79489333D01*
X106541533Y-71828663D02*
X106541533Y-70828663D01*
X106541533Y-70828663D02*
X106846295Y-70828663D01*
X106846295Y-70828663D02*
X106922485Y-70876282D01*
X106922485Y-70876282D02*
X106960580Y-70923901D01*
X106960580Y-70923901D02*
X106998676Y-71019139D01*
X106998676Y-71019139D02*
X106998676Y-71161996D01*
X106998676Y-71161996D02*
X106960580Y-71257234D01*
X106960580Y-71257234D02*
X106922485Y-71304853D01*
X106922485Y-71304853D02*
X106846295Y-71352472D01*
X106846295Y-71352472D02*
X106541533Y-71352472D01*
X107265342Y-70828663D02*
X107455818Y-71828663D01*
X107455818Y-71828663D02*
X107608199Y-71114377D01*
X107608199Y-71114377D02*
X107760580Y-71828663D01*
X107760580Y-71828663D02*
X107951057Y-70828663D01*
X108712962Y-71828663D02*
X108446295Y-71352472D01*
X108255819Y-71828663D02*
X108255819Y-70828663D01*
X108255819Y-70828663D02*
X108560581Y-70828663D01*
X108560581Y-70828663D02*
X108636771Y-70876282D01*
X108636771Y-70876282D02*
X108674866Y-70923901D01*
X108674866Y-70923901D02*
X108712962Y-71019139D01*
X108712962Y-71019139D02*
X108712962Y-71161996D01*
X108712962Y-71161996D02*
X108674866Y-71257234D01*
X108674866Y-71257234D02*
X108636771Y-71304853D01*
X108636771Y-71304853D02*
X108560581Y-71352472D01*
X108560581Y-71352472D02*
X108255819Y-71352472D01*
X116193140Y-96947663D02*
X116383616Y-97947663D01*
X116383616Y-97947663D02*
X116535997Y-97233377D01*
X116535997Y-97233377D02*
X116688378Y-97947663D01*
X116688378Y-97947663D02*
X116878855Y-96947663D01*
X117564569Y-97947663D02*
X117183617Y-97947663D01*
X117183617Y-97947663D02*
X117183617Y-96947663D01*
X117831236Y-97423853D02*
X118097902Y-97423853D01*
X118212188Y-97947663D02*
X117831236Y-97947663D01*
X117831236Y-97947663D02*
X117831236Y-96947663D01*
X117831236Y-96947663D02*
X118212188Y-96947663D01*
X118555046Y-97947663D02*
X118555046Y-96947663D01*
X118555046Y-96947663D02*
X118745522Y-96947663D01*
X118745522Y-96947663D02*
X118859808Y-96995282D01*
X118859808Y-96995282D02*
X118935998Y-97090520D01*
X118935998Y-97090520D02*
X118974093Y-97185758D01*
X118974093Y-97185758D02*
X119012189Y-97376234D01*
X119012189Y-97376234D02*
X119012189Y-97519091D01*
X119012189Y-97519091D02*
X118974093Y-97709567D01*
X118974093Y-97709567D02*
X118935998Y-97804805D01*
X118935998Y-97804805D02*
X118859808Y-97900044D01*
X118859808Y-97900044D02*
X118745522Y-97947663D01*
X118745522Y-97947663D02*
X118555046Y-97947663D01*
X120421713Y-97852424D02*
X120383617Y-97900044D01*
X120383617Y-97900044D02*
X120269332Y-97947663D01*
X120269332Y-97947663D02*
X120193141Y-97947663D01*
X120193141Y-97947663D02*
X120078855Y-97900044D01*
X120078855Y-97900044D02*
X120002665Y-97804805D01*
X120002665Y-97804805D02*
X119964570Y-97709567D01*
X119964570Y-97709567D02*
X119926474Y-97519091D01*
X119926474Y-97519091D02*
X119926474Y-97376234D01*
X119926474Y-97376234D02*
X119964570Y-97185758D01*
X119964570Y-97185758D02*
X120002665Y-97090520D01*
X120002665Y-97090520D02*
X120078855Y-96995282D01*
X120078855Y-96995282D02*
X120193141Y-96947663D01*
X120193141Y-96947663D02*
X120269332Y-96947663D01*
X120269332Y-96947663D02*
X120383617Y-96995282D01*
X120383617Y-96995282D02*
X120421713Y-97042901D01*
X120878855Y-97947663D02*
X120802665Y-97900044D01*
X120802665Y-97900044D02*
X120764570Y-97852424D01*
X120764570Y-97852424D02*
X120726474Y-97757186D01*
X120726474Y-97757186D02*
X120726474Y-97471472D01*
X120726474Y-97471472D02*
X120764570Y-97376234D01*
X120764570Y-97376234D02*
X120802665Y-97328615D01*
X120802665Y-97328615D02*
X120878855Y-97280996D01*
X120878855Y-97280996D02*
X120993141Y-97280996D01*
X120993141Y-97280996D02*
X121069332Y-97328615D01*
X121069332Y-97328615D02*
X121107427Y-97376234D01*
X121107427Y-97376234D02*
X121145522Y-97471472D01*
X121145522Y-97471472D02*
X121145522Y-97757186D01*
X121145522Y-97757186D02*
X121107427Y-97852424D01*
X121107427Y-97852424D02*
X121069332Y-97900044D01*
X121069332Y-97900044D02*
X120993141Y-97947663D01*
X120993141Y-97947663D02*
X120878855Y-97947663D01*
X121488380Y-97280996D02*
X121488380Y-97947663D01*
X121488380Y-97376234D02*
X121526475Y-97328615D01*
X121526475Y-97328615D02*
X121602665Y-97280996D01*
X121602665Y-97280996D02*
X121716951Y-97280996D01*
X121716951Y-97280996D02*
X121793142Y-97328615D01*
X121793142Y-97328615D02*
X121831237Y-97423853D01*
X121831237Y-97423853D02*
X121831237Y-97947663D01*
X122097904Y-97280996D02*
X122402666Y-97280996D01*
X122212190Y-96947663D02*
X122212190Y-97804805D01*
X122212190Y-97804805D02*
X122250285Y-97900044D01*
X122250285Y-97900044D02*
X122326475Y-97947663D01*
X122326475Y-97947663D02*
X122402666Y-97947663D01*
X122669333Y-97947663D02*
X122669333Y-97280996D01*
X122669333Y-97471472D02*
X122707428Y-97376234D01*
X122707428Y-97376234D02*
X122745523Y-97328615D01*
X122745523Y-97328615D02*
X122821714Y-97280996D01*
X122821714Y-97280996D02*
X122897904Y-97280996D01*
X123278856Y-97947663D02*
X123202666Y-97900044D01*
X123202666Y-97900044D02*
X123164571Y-97852424D01*
X123164571Y-97852424D02*
X123126475Y-97757186D01*
X123126475Y-97757186D02*
X123126475Y-97471472D01*
X123126475Y-97471472D02*
X123164571Y-97376234D01*
X123164571Y-97376234D02*
X123202666Y-97328615D01*
X123202666Y-97328615D02*
X123278856Y-97280996D01*
X123278856Y-97280996D02*
X123393142Y-97280996D01*
X123393142Y-97280996D02*
X123469333Y-97328615D01*
X123469333Y-97328615D02*
X123507428Y-97376234D01*
X123507428Y-97376234D02*
X123545523Y-97471472D01*
X123545523Y-97471472D02*
X123545523Y-97757186D01*
X123545523Y-97757186D02*
X123507428Y-97852424D01*
X123507428Y-97852424D02*
X123469333Y-97900044D01*
X123469333Y-97900044D02*
X123393142Y-97947663D01*
X123393142Y-97947663D02*
X123278856Y-97947663D01*
X124002666Y-97947663D02*
X123926476Y-97900044D01*
X123926476Y-97900044D02*
X123888381Y-97804805D01*
X123888381Y-97804805D02*
X123888381Y-96947663D01*
X124421714Y-97947663D02*
X124345524Y-97900044D01*
X124345524Y-97900044D02*
X124307429Y-97804805D01*
X124307429Y-97804805D02*
X124307429Y-96947663D01*
X125031239Y-97900044D02*
X124955048Y-97947663D01*
X124955048Y-97947663D02*
X124802667Y-97947663D01*
X124802667Y-97947663D02*
X124726477Y-97900044D01*
X124726477Y-97900044D02*
X124688381Y-97804805D01*
X124688381Y-97804805D02*
X124688381Y-97423853D01*
X124688381Y-97423853D02*
X124726477Y-97328615D01*
X124726477Y-97328615D02*
X124802667Y-97280996D01*
X124802667Y-97280996D02*
X124955048Y-97280996D01*
X124955048Y-97280996D02*
X125031239Y-97328615D01*
X125031239Y-97328615D02*
X125069334Y-97423853D01*
X125069334Y-97423853D02*
X125069334Y-97519091D01*
X125069334Y-97519091D02*
X124688381Y-97614329D01*
X125412191Y-97947663D02*
X125412191Y-97280996D01*
X125412191Y-97471472D02*
X125450286Y-97376234D01*
X125450286Y-97376234D02*
X125488381Y-97328615D01*
X125488381Y-97328615D02*
X125564572Y-97280996D01*
X125564572Y-97280996D02*
X125640762Y-97280996D01*
X126783619Y-97423853D02*
X126897905Y-97471472D01*
X126897905Y-97471472D02*
X126936000Y-97519091D01*
X126936000Y-97519091D02*
X126974096Y-97614329D01*
X126974096Y-97614329D02*
X126974096Y-97757186D01*
X126974096Y-97757186D02*
X126936000Y-97852424D01*
X126936000Y-97852424D02*
X126897905Y-97900044D01*
X126897905Y-97900044D02*
X126821715Y-97947663D01*
X126821715Y-97947663D02*
X126516953Y-97947663D01*
X126516953Y-97947663D02*
X126516953Y-96947663D01*
X126516953Y-96947663D02*
X126783619Y-96947663D01*
X126783619Y-96947663D02*
X126859810Y-96995282D01*
X126859810Y-96995282D02*
X126897905Y-97042901D01*
X126897905Y-97042901D02*
X126936000Y-97138139D01*
X126936000Y-97138139D02*
X126936000Y-97233377D01*
X126936000Y-97233377D02*
X126897905Y-97328615D01*
X126897905Y-97328615D02*
X126859810Y-97376234D01*
X126859810Y-97376234D02*
X126783619Y-97423853D01*
X126783619Y-97423853D02*
X126516953Y-97423853D01*
X127431238Y-97947663D02*
X127355048Y-97900044D01*
X127355048Y-97900044D02*
X127316953Y-97852424D01*
X127316953Y-97852424D02*
X127278857Y-97757186D01*
X127278857Y-97757186D02*
X127278857Y-97471472D01*
X127278857Y-97471472D02*
X127316953Y-97376234D01*
X127316953Y-97376234D02*
X127355048Y-97328615D01*
X127355048Y-97328615D02*
X127431238Y-97280996D01*
X127431238Y-97280996D02*
X127545524Y-97280996D01*
X127545524Y-97280996D02*
X127621715Y-97328615D01*
X127621715Y-97328615D02*
X127659810Y-97376234D01*
X127659810Y-97376234D02*
X127697905Y-97471472D01*
X127697905Y-97471472D02*
X127697905Y-97757186D01*
X127697905Y-97757186D02*
X127659810Y-97852424D01*
X127659810Y-97852424D02*
X127621715Y-97900044D01*
X127621715Y-97900044D02*
X127545524Y-97947663D01*
X127545524Y-97947663D02*
X127431238Y-97947663D01*
X128383620Y-97947663D02*
X128383620Y-97423853D01*
X128383620Y-97423853D02*
X128345525Y-97328615D01*
X128345525Y-97328615D02*
X128269334Y-97280996D01*
X128269334Y-97280996D02*
X128116953Y-97280996D01*
X128116953Y-97280996D02*
X128040763Y-97328615D01*
X128383620Y-97900044D02*
X128307429Y-97947663D01*
X128307429Y-97947663D02*
X128116953Y-97947663D01*
X128116953Y-97947663D02*
X128040763Y-97900044D01*
X128040763Y-97900044D02*
X128002667Y-97804805D01*
X128002667Y-97804805D02*
X128002667Y-97709567D01*
X128002667Y-97709567D02*
X128040763Y-97614329D01*
X128040763Y-97614329D02*
X128116953Y-97566710D01*
X128116953Y-97566710D02*
X128307429Y-97566710D01*
X128307429Y-97566710D02*
X128383620Y-97519091D01*
X128764573Y-97947663D02*
X128764573Y-97280996D01*
X128764573Y-97471472D02*
X128802668Y-97376234D01*
X128802668Y-97376234D02*
X128840763Y-97328615D01*
X128840763Y-97328615D02*
X128916954Y-97280996D01*
X128916954Y-97280996D02*
X128993144Y-97280996D01*
X129602668Y-97947663D02*
X129602668Y-96947663D01*
X129602668Y-97900044D02*
X129526477Y-97947663D01*
X129526477Y-97947663D02*
X129374096Y-97947663D01*
X129374096Y-97947663D02*
X129297906Y-97900044D01*
X129297906Y-97900044D02*
X129259811Y-97852424D01*
X129259811Y-97852424D02*
X129221715Y-97757186D01*
X129221715Y-97757186D02*
X129221715Y-97471472D01*
X129221715Y-97471472D02*
X129259811Y-97376234D01*
X129259811Y-97376234D02*
X129297906Y-97328615D01*
X129297906Y-97328615D02*
X129374096Y-97280996D01*
X129374096Y-97280996D02*
X129526477Y-97280996D01*
X129526477Y-97280996D02*
X129602668Y-97328615D01*
X117050285Y-98652901D02*
X117088381Y-98605282D01*
X117088381Y-98605282D02*
X117164571Y-98557663D01*
X117164571Y-98557663D02*
X117355047Y-98557663D01*
X117355047Y-98557663D02*
X117431238Y-98605282D01*
X117431238Y-98605282D02*
X117469333Y-98652901D01*
X117469333Y-98652901D02*
X117507428Y-98748139D01*
X117507428Y-98748139D02*
X117507428Y-98843377D01*
X117507428Y-98843377D02*
X117469333Y-98986234D01*
X117469333Y-98986234D02*
X117012190Y-99557663D01*
X117012190Y-99557663D02*
X117507428Y-99557663D01*
X118002667Y-98557663D02*
X118078857Y-98557663D01*
X118078857Y-98557663D02*
X118155048Y-98605282D01*
X118155048Y-98605282D02*
X118193143Y-98652901D01*
X118193143Y-98652901D02*
X118231238Y-98748139D01*
X118231238Y-98748139D02*
X118269333Y-98938615D01*
X118269333Y-98938615D02*
X118269333Y-99176710D01*
X118269333Y-99176710D02*
X118231238Y-99367186D01*
X118231238Y-99367186D02*
X118193143Y-99462424D01*
X118193143Y-99462424D02*
X118155048Y-99510044D01*
X118155048Y-99510044D02*
X118078857Y-99557663D01*
X118078857Y-99557663D02*
X118002667Y-99557663D01*
X118002667Y-99557663D02*
X117926476Y-99510044D01*
X117926476Y-99510044D02*
X117888381Y-99462424D01*
X117888381Y-99462424D02*
X117850286Y-99367186D01*
X117850286Y-99367186D02*
X117812190Y-99176710D01*
X117812190Y-99176710D02*
X117812190Y-98938615D01*
X117812190Y-98938615D02*
X117850286Y-98748139D01*
X117850286Y-98748139D02*
X117888381Y-98652901D01*
X117888381Y-98652901D02*
X117926476Y-98605282D01*
X117926476Y-98605282D02*
X118002667Y-98557663D01*
X118574095Y-98652901D02*
X118612191Y-98605282D01*
X118612191Y-98605282D02*
X118688381Y-98557663D01*
X118688381Y-98557663D02*
X118878857Y-98557663D01*
X118878857Y-98557663D02*
X118955048Y-98605282D01*
X118955048Y-98605282D02*
X118993143Y-98652901D01*
X118993143Y-98652901D02*
X119031238Y-98748139D01*
X119031238Y-98748139D02*
X119031238Y-98843377D01*
X119031238Y-98843377D02*
X118993143Y-98986234D01*
X118993143Y-98986234D02*
X118536000Y-99557663D01*
X118536000Y-99557663D02*
X119031238Y-99557663D01*
X119297905Y-98557663D02*
X119793143Y-98557663D01*
X119793143Y-98557663D02*
X119526477Y-98938615D01*
X119526477Y-98938615D02*
X119640762Y-98938615D01*
X119640762Y-98938615D02*
X119716953Y-98986234D01*
X119716953Y-98986234D02*
X119755048Y-99033853D01*
X119755048Y-99033853D02*
X119793143Y-99129091D01*
X119793143Y-99129091D02*
X119793143Y-99367186D01*
X119793143Y-99367186D02*
X119755048Y-99462424D01*
X119755048Y-99462424D02*
X119716953Y-99510044D01*
X119716953Y-99510044D02*
X119640762Y-99557663D01*
X119640762Y-99557663D02*
X119412191Y-99557663D01*
X119412191Y-99557663D02*
X119336000Y-99510044D01*
X119336000Y-99510044D02*
X119297905Y-99462424D01*
X120136001Y-99176710D02*
X120745525Y-99176710D01*
X121278858Y-98557663D02*
X121355048Y-98557663D01*
X121355048Y-98557663D02*
X121431239Y-98605282D01*
X121431239Y-98605282D02*
X121469334Y-98652901D01*
X121469334Y-98652901D02*
X121507429Y-98748139D01*
X121507429Y-98748139D02*
X121545524Y-98938615D01*
X121545524Y-98938615D02*
X121545524Y-99176710D01*
X121545524Y-99176710D02*
X121507429Y-99367186D01*
X121507429Y-99367186D02*
X121469334Y-99462424D01*
X121469334Y-99462424D02*
X121431239Y-99510044D01*
X121431239Y-99510044D02*
X121355048Y-99557663D01*
X121355048Y-99557663D02*
X121278858Y-99557663D01*
X121278858Y-99557663D02*
X121202667Y-99510044D01*
X121202667Y-99510044D02*
X121164572Y-99462424D01*
X121164572Y-99462424D02*
X121126477Y-99367186D01*
X121126477Y-99367186D02*
X121088381Y-99176710D01*
X121088381Y-99176710D02*
X121088381Y-98938615D01*
X121088381Y-98938615D02*
X121126477Y-98748139D01*
X121126477Y-98748139D02*
X121164572Y-98652901D01*
X121164572Y-98652901D02*
X121202667Y-98605282D01*
X121202667Y-98605282D02*
X121278858Y-98557663D01*
X122002667Y-98986234D02*
X121926477Y-98938615D01*
X121926477Y-98938615D02*
X121888382Y-98890996D01*
X121888382Y-98890996D02*
X121850286Y-98795758D01*
X121850286Y-98795758D02*
X121850286Y-98748139D01*
X121850286Y-98748139D02*
X121888382Y-98652901D01*
X121888382Y-98652901D02*
X121926477Y-98605282D01*
X121926477Y-98605282D02*
X122002667Y-98557663D01*
X122002667Y-98557663D02*
X122155048Y-98557663D01*
X122155048Y-98557663D02*
X122231239Y-98605282D01*
X122231239Y-98605282D02*
X122269334Y-98652901D01*
X122269334Y-98652901D02*
X122307429Y-98748139D01*
X122307429Y-98748139D02*
X122307429Y-98795758D01*
X122307429Y-98795758D02*
X122269334Y-98890996D01*
X122269334Y-98890996D02*
X122231239Y-98938615D01*
X122231239Y-98938615D02*
X122155048Y-98986234D01*
X122155048Y-98986234D02*
X122002667Y-98986234D01*
X122002667Y-98986234D02*
X121926477Y-99033853D01*
X121926477Y-99033853D02*
X121888382Y-99081472D01*
X121888382Y-99081472D02*
X121850286Y-99176710D01*
X121850286Y-99176710D02*
X121850286Y-99367186D01*
X121850286Y-99367186D02*
X121888382Y-99462424D01*
X121888382Y-99462424D02*
X121926477Y-99510044D01*
X121926477Y-99510044D02*
X122002667Y-99557663D01*
X122002667Y-99557663D02*
X122155048Y-99557663D01*
X122155048Y-99557663D02*
X122231239Y-99510044D01*
X122231239Y-99510044D02*
X122269334Y-99462424D01*
X122269334Y-99462424D02*
X122307429Y-99367186D01*
X122307429Y-99367186D02*
X122307429Y-99176710D01*
X122307429Y-99176710D02*
X122269334Y-99081472D01*
X122269334Y-99081472D02*
X122231239Y-99033853D01*
X122231239Y-99033853D02*
X122155048Y-98986234D01*
X122650287Y-99176710D02*
X123259811Y-99176710D01*
X124059810Y-99557663D02*
X123602667Y-99557663D01*
X123831239Y-99557663D02*
X123831239Y-98557663D01*
X123831239Y-98557663D02*
X123755048Y-98700520D01*
X123755048Y-98700520D02*
X123678858Y-98795758D01*
X123678858Y-98795758D02*
X123602667Y-98843377D01*
X124364572Y-98652901D02*
X124402668Y-98605282D01*
X124402668Y-98605282D02*
X124478858Y-98557663D01*
X124478858Y-98557663D02*
X124669334Y-98557663D01*
X124669334Y-98557663D02*
X124745525Y-98605282D01*
X124745525Y-98605282D02*
X124783620Y-98652901D01*
X124783620Y-98652901D02*
X124821715Y-98748139D01*
X124821715Y-98748139D02*
X124821715Y-98843377D01*
X124821715Y-98843377D02*
X124783620Y-98986234D01*
X124783620Y-98986234D02*
X124326477Y-99557663D01*
X124326477Y-99557663D02*
X124821715Y-99557663D01*
X125736001Y-98510044D02*
X125050287Y-99795758D01*
X126459811Y-99557663D02*
X126193144Y-99081472D01*
X126002668Y-99557663D02*
X126002668Y-98557663D01*
X126002668Y-98557663D02*
X126307430Y-98557663D01*
X126307430Y-98557663D02*
X126383620Y-98605282D01*
X126383620Y-98605282D02*
X126421715Y-98652901D01*
X126421715Y-98652901D02*
X126459811Y-98748139D01*
X126459811Y-98748139D02*
X126459811Y-98890996D01*
X126459811Y-98890996D02*
X126421715Y-98986234D01*
X126421715Y-98986234D02*
X126383620Y-99033853D01*
X126383620Y-99033853D02*
X126307430Y-99081472D01*
X126307430Y-99081472D02*
X126002668Y-99081472D01*
X127107430Y-99510044D02*
X127031239Y-99557663D01*
X127031239Y-99557663D02*
X126878858Y-99557663D01*
X126878858Y-99557663D02*
X126802668Y-99510044D01*
X126802668Y-99510044D02*
X126764572Y-99414805D01*
X126764572Y-99414805D02*
X126764572Y-99033853D01*
X126764572Y-99033853D02*
X126802668Y-98938615D01*
X126802668Y-98938615D02*
X126878858Y-98890996D01*
X126878858Y-98890996D02*
X127031239Y-98890996D01*
X127031239Y-98890996D02*
X127107430Y-98938615D01*
X127107430Y-98938615D02*
X127145525Y-99033853D01*
X127145525Y-99033853D02*
X127145525Y-99129091D01*
X127145525Y-99129091D02*
X126764572Y-99224329D01*
X127412191Y-98890996D02*
X127602667Y-99557663D01*
X127602667Y-99557663D02*
X127793144Y-98890996D01*
X128097906Y-99462424D02*
X128136001Y-99510044D01*
X128136001Y-99510044D02*
X128097906Y-99557663D01*
X128097906Y-99557663D02*
X128059810Y-99510044D01*
X128059810Y-99510044D02*
X128097906Y-99462424D01*
X128097906Y-99462424D02*
X128097906Y-99557663D01*
X128440762Y-99271948D02*
X128821715Y-99271948D01*
X128364572Y-99557663D02*
X128631239Y-98557663D01*
X128631239Y-98557663D02*
X128897905Y-99557663D01*
X154886663Y-82886475D02*
X153886663Y-82886475D01*
X153886663Y-82886475D02*
X153886663Y-82695999D01*
X153886663Y-82695999D02*
X153934282Y-82581713D01*
X153934282Y-82581713D02*
X154029520Y-82505523D01*
X154029520Y-82505523D02*
X154124758Y-82467428D01*
X154124758Y-82467428D02*
X154315234Y-82429332D01*
X154315234Y-82429332D02*
X154458091Y-82429332D01*
X154458091Y-82429332D02*
X154648567Y-82467428D01*
X154648567Y-82467428D02*
X154743805Y-82505523D01*
X154743805Y-82505523D02*
X154839044Y-82581713D01*
X154839044Y-82581713D02*
X154886663Y-82695999D01*
X154886663Y-82695999D02*
X154886663Y-82886475D01*
X153886663Y-81934094D02*
X153886663Y-81857904D01*
X153886663Y-81857904D02*
X153934282Y-81781713D01*
X153934282Y-81781713D02*
X153981901Y-81743618D01*
X153981901Y-81743618D02*
X154077139Y-81705523D01*
X154077139Y-81705523D02*
X154267615Y-81667428D01*
X154267615Y-81667428D02*
X154505710Y-81667428D01*
X154505710Y-81667428D02*
X154696186Y-81705523D01*
X154696186Y-81705523D02*
X154791424Y-81743618D01*
X154791424Y-81743618D02*
X154839044Y-81781713D01*
X154839044Y-81781713D02*
X154886663Y-81857904D01*
X154886663Y-81857904D02*
X154886663Y-81934094D01*
X154886663Y-81934094D02*
X154839044Y-82010285D01*
X154839044Y-82010285D02*
X154791424Y-82048380D01*
X154791424Y-82048380D02*
X154696186Y-82086475D01*
X154696186Y-82086475D02*
X154505710Y-82124571D01*
X154505710Y-82124571D02*
X154267615Y-82124571D01*
X154267615Y-82124571D02*
X154077139Y-82086475D01*
X154077139Y-82086475D02*
X153981901Y-82048380D01*
X153981901Y-82048380D02*
X153934282Y-82010285D01*
X153934282Y-82010285D02*
X153886663Y-81934094D01*
X151625333Y-98895663D02*
X151892000Y-99895663D01*
X151892000Y-99895663D02*
X152158666Y-98895663D01*
X136480523Y-98943282D02*
X136404333Y-98895663D01*
X136404333Y-98895663D02*
X136290047Y-98895663D01*
X136290047Y-98895663D02*
X136175761Y-98943282D01*
X136175761Y-98943282D02*
X136099571Y-99038520D01*
X136099571Y-99038520D02*
X136061476Y-99133758D01*
X136061476Y-99133758D02*
X136023380Y-99324234D01*
X136023380Y-99324234D02*
X136023380Y-99467091D01*
X136023380Y-99467091D02*
X136061476Y-99657567D01*
X136061476Y-99657567D02*
X136099571Y-99752805D01*
X136099571Y-99752805D02*
X136175761Y-99848044D01*
X136175761Y-99848044D02*
X136290047Y-99895663D01*
X136290047Y-99895663D02*
X136366238Y-99895663D01*
X136366238Y-99895663D02*
X136480523Y-99848044D01*
X136480523Y-99848044D02*
X136518619Y-99800424D01*
X136518619Y-99800424D02*
X136518619Y-99467091D01*
X136518619Y-99467091D02*
X136366238Y-99467091D01*
X107570104Y-72479663D02*
X108027247Y-72479663D01*
X107798675Y-73479663D02*
X107798675Y-72479663D01*
X108217723Y-72479663D02*
X108751057Y-73479663D01*
X108751057Y-72479663D02*
X108217723Y-73479663D01*
X154886663Y-93427475D02*
X153886663Y-93427475D01*
X153886663Y-93427475D02*
X153886663Y-93236999D01*
X153886663Y-93236999D02*
X153934282Y-93122713D01*
X153934282Y-93122713D02*
X154029520Y-93046523D01*
X154029520Y-93046523D02*
X154124758Y-93008428D01*
X154124758Y-93008428D02*
X154315234Y-92970332D01*
X154315234Y-92970332D02*
X154458091Y-92970332D01*
X154458091Y-92970332D02*
X154648567Y-93008428D01*
X154648567Y-93008428D02*
X154743805Y-93046523D01*
X154743805Y-93046523D02*
X154839044Y-93122713D01*
X154839044Y-93122713D02*
X154886663Y-93236999D01*
X154886663Y-93236999D02*
X154886663Y-93427475D01*
X154886663Y-92208428D02*
X154886663Y-92665571D01*
X154886663Y-92436999D02*
X153886663Y-92436999D01*
X153886663Y-92436999D02*
X154029520Y-92513190D01*
X154029520Y-92513190D02*
X154124758Y-92589380D01*
X154124758Y-92589380D02*
X154172377Y-92665571D01*
X153886663Y-90563666D02*
X154886663Y-90296999D01*
X154886663Y-90296999D02*
X153886663Y-90030333D01*
X153934282Y-84626476D02*
X153886663Y-84702666D01*
X153886663Y-84702666D02*
X153886663Y-84816952D01*
X153886663Y-84816952D02*
X153934282Y-84931238D01*
X153934282Y-84931238D02*
X154029520Y-85007428D01*
X154029520Y-85007428D02*
X154124758Y-85045523D01*
X154124758Y-85045523D02*
X154315234Y-85083619D01*
X154315234Y-85083619D02*
X154458091Y-85083619D01*
X154458091Y-85083619D02*
X154648567Y-85045523D01*
X154648567Y-85045523D02*
X154743805Y-85007428D01*
X154743805Y-85007428D02*
X154839044Y-84931238D01*
X154839044Y-84931238D02*
X154886663Y-84816952D01*
X154886663Y-84816952D02*
X154886663Y-84740761D01*
X154886663Y-84740761D02*
X154839044Y-84626476D01*
X154839044Y-84626476D02*
X154791424Y-84588380D01*
X154791424Y-84588380D02*
X154458091Y-84588380D01*
X154458091Y-84588380D02*
X154458091Y-84740761D01*
X107951057Y-75257663D02*
X107684390Y-74781472D01*
X107493914Y-75257663D02*
X107493914Y-74257663D01*
X107493914Y-74257663D02*
X107798676Y-74257663D01*
X107798676Y-74257663D02*
X107874866Y-74305282D01*
X107874866Y-74305282D02*
X107912961Y-74352901D01*
X107912961Y-74352901D02*
X107951057Y-74448139D01*
X107951057Y-74448139D02*
X107951057Y-74590996D01*
X107951057Y-74590996D02*
X107912961Y-74686234D01*
X107912961Y-74686234D02*
X107874866Y-74733853D01*
X107874866Y-74733853D02*
X107798676Y-74781472D01*
X107798676Y-74781472D02*
X107493914Y-74781472D01*
X108217723Y-74257663D02*
X108751057Y-75257663D01*
X108751057Y-74257663D02*
X108217723Y-75257663D01*
X141084333Y-98895663D02*
X141351000Y-99895663D01*
X141351000Y-99895663D02*
X141617666Y-98895663D01*
X138220524Y-99895663D02*
X138220524Y-98895663D01*
X138220524Y-98895663D02*
X138411000Y-98895663D01*
X138411000Y-98895663D02*
X138525286Y-98943282D01*
X138525286Y-98943282D02*
X138601476Y-99038520D01*
X138601476Y-99038520D02*
X138639571Y-99133758D01*
X138639571Y-99133758D02*
X138677667Y-99324234D01*
X138677667Y-99324234D02*
X138677667Y-99467091D01*
X138677667Y-99467091D02*
X138639571Y-99657567D01*
X138639571Y-99657567D02*
X138601476Y-99752805D01*
X138601476Y-99752805D02*
X138525286Y-99848044D01*
X138525286Y-99848044D02*
X138411000Y-99895663D01*
X138411000Y-99895663D02*
X138220524Y-99895663D01*
X138944333Y-98895663D02*
X139439571Y-98895663D01*
X139439571Y-98895663D02*
X139172905Y-99276615D01*
X139172905Y-99276615D02*
X139287190Y-99276615D01*
X139287190Y-99276615D02*
X139363381Y-99324234D01*
X139363381Y-99324234D02*
X139401476Y-99371853D01*
X139401476Y-99371853D02*
X139439571Y-99467091D01*
X139439571Y-99467091D02*
X139439571Y-99705186D01*
X139439571Y-99705186D02*
X139401476Y-99800424D01*
X139401476Y-99800424D02*
X139363381Y-99848044D01*
X139363381Y-99848044D02*
X139287190Y-99895663D01*
X139287190Y-99895663D02*
X139058619Y-99895663D01*
X139058619Y-99895663D02*
X138982428Y-99848044D01*
X138982428Y-99848044D02*
X138944333Y-99800424D01*
X118967429Y-101546663D02*
X118967429Y-100546663D01*
X118967429Y-100546663D02*
X119272191Y-100546663D01*
X119272191Y-100546663D02*
X119348381Y-100594282D01*
X119348381Y-100594282D02*
X119386476Y-100641901D01*
X119386476Y-100641901D02*
X119424572Y-100737139D01*
X119424572Y-100737139D02*
X119424572Y-100879996D01*
X119424572Y-100879996D02*
X119386476Y-100975234D01*
X119386476Y-100975234D02*
X119348381Y-101022853D01*
X119348381Y-101022853D02*
X119272191Y-101070472D01*
X119272191Y-101070472D02*
X118967429Y-101070472D01*
X120224572Y-101546663D02*
X119957905Y-101070472D01*
X119767429Y-101546663D02*
X119767429Y-100546663D01*
X119767429Y-100546663D02*
X120072191Y-100546663D01*
X120072191Y-100546663D02*
X120148381Y-100594282D01*
X120148381Y-100594282D02*
X120186476Y-100641901D01*
X120186476Y-100641901D02*
X120224572Y-100737139D01*
X120224572Y-100737139D02*
X120224572Y-100879996D01*
X120224572Y-100879996D02*
X120186476Y-100975234D01*
X120186476Y-100975234D02*
X120148381Y-101022853D01*
X120148381Y-101022853D02*
X120072191Y-101070472D01*
X120072191Y-101070472D02*
X119767429Y-101070472D01*
X120719810Y-100546663D02*
X120872191Y-100546663D01*
X120872191Y-100546663D02*
X120948381Y-100594282D01*
X120948381Y-100594282D02*
X121024572Y-100689520D01*
X121024572Y-100689520D02*
X121062667Y-100879996D01*
X121062667Y-100879996D02*
X121062667Y-101213329D01*
X121062667Y-101213329D02*
X121024572Y-101403805D01*
X121024572Y-101403805D02*
X120948381Y-101499044D01*
X120948381Y-101499044D02*
X120872191Y-101546663D01*
X120872191Y-101546663D02*
X120719810Y-101546663D01*
X120719810Y-101546663D02*
X120643619Y-101499044D01*
X120643619Y-101499044D02*
X120567429Y-101403805D01*
X120567429Y-101403805D02*
X120529333Y-101213329D01*
X120529333Y-101213329D02*
X120529333Y-100879996D01*
X120529333Y-100879996D02*
X120567429Y-100689520D01*
X120567429Y-100689520D02*
X120643619Y-100594282D01*
X120643619Y-100594282D02*
X120719810Y-100546663D01*
X121824571Y-100594282D02*
X121748381Y-100546663D01*
X121748381Y-100546663D02*
X121634095Y-100546663D01*
X121634095Y-100546663D02*
X121519809Y-100594282D01*
X121519809Y-100594282D02*
X121443619Y-100689520D01*
X121443619Y-100689520D02*
X121405524Y-100784758D01*
X121405524Y-100784758D02*
X121367428Y-100975234D01*
X121367428Y-100975234D02*
X121367428Y-101118091D01*
X121367428Y-101118091D02*
X121405524Y-101308567D01*
X121405524Y-101308567D02*
X121443619Y-101403805D01*
X121443619Y-101403805D02*
X121519809Y-101499044D01*
X121519809Y-101499044D02*
X121634095Y-101546663D01*
X121634095Y-101546663D02*
X121710286Y-101546663D01*
X121710286Y-101546663D02*
X121824571Y-101499044D01*
X121824571Y-101499044D02*
X121862667Y-101451424D01*
X121862667Y-101451424D02*
X121862667Y-101118091D01*
X121862667Y-101118091D02*
X121710286Y-101118091D01*
X153934282Y-95167476D02*
X153886663Y-95243666D01*
X153886663Y-95243666D02*
X153886663Y-95357952D01*
X153886663Y-95357952D02*
X153934282Y-95472238D01*
X153934282Y-95472238D02*
X154029520Y-95548428D01*
X154029520Y-95548428D02*
X154124758Y-95586523D01*
X154124758Y-95586523D02*
X154315234Y-95624619D01*
X154315234Y-95624619D02*
X154458091Y-95624619D01*
X154458091Y-95624619D02*
X154648567Y-95586523D01*
X154648567Y-95586523D02*
X154743805Y-95548428D01*
X154743805Y-95548428D02*
X154839044Y-95472238D01*
X154839044Y-95472238D02*
X154886663Y-95357952D01*
X154886663Y-95357952D02*
X154886663Y-95281761D01*
X154886663Y-95281761D02*
X154839044Y-95167476D01*
X154839044Y-95167476D02*
X154791424Y-95129380D01*
X154791424Y-95129380D02*
X154458091Y-95129380D01*
X154458091Y-95129380D02*
X154458091Y-95281761D01*
X148761524Y-99895663D02*
X148761524Y-98895663D01*
X148761524Y-98895663D02*
X148952000Y-98895663D01*
X148952000Y-98895663D02*
X149066286Y-98943282D01*
X149066286Y-98943282D02*
X149142476Y-99038520D01*
X149142476Y-99038520D02*
X149180571Y-99133758D01*
X149180571Y-99133758D02*
X149218667Y-99324234D01*
X149218667Y-99324234D02*
X149218667Y-99467091D01*
X149218667Y-99467091D02*
X149180571Y-99657567D01*
X149180571Y-99657567D02*
X149142476Y-99752805D01*
X149142476Y-99752805D02*
X149066286Y-99848044D01*
X149066286Y-99848044D02*
X148952000Y-99895663D01*
X148952000Y-99895663D02*
X148761524Y-99895663D01*
X149523428Y-98990901D02*
X149561524Y-98943282D01*
X149561524Y-98943282D02*
X149637714Y-98895663D01*
X149637714Y-98895663D02*
X149828190Y-98895663D01*
X149828190Y-98895663D02*
X149904381Y-98943282D01*
X149904381Y-98943282D02*
X149942476Y-98990901D01*
X149942476Y-98990901D02*
X149980571Y-99086139D01*
X149980571Y-99086139D02*
X149980571Y-99181377D01*
X149980571Y-99181377D02*
X149942476Y-99324234D01*
X149942476Y-99324234D02*
X149485333Y-99895663D01*
X149485333Y-99895663D02*
X149980571Y-99895663D01*
X147021523Y-98943282D02*
X146945333Y-98895663D01*
X146945333Y-98895663D02*
X146831047Y-98895663D01*
X146831047Y-98895663D02*
X146716761Y-98943282D01*
X146716761Y-98943282D02*
X146640571Y-99038520D01*
X146640571Y-99038520D02*
X146602476Y-99133758D01*
X146602476Y-99133758D02*
X146564380Y-99324234D01*
X146564380Y-99324234D02*
X146564380Y-99467091D01*
X146564380Y-99467091D02*
X146602476Y-99657567D01*
X146602476Y-99657567D02*
X146640571Y-99752805D01*
X146640571Y-99752805D02*
X146716761Y-99848044D01*
X146716761Y-99848044D02*
X146831047Y-99895663D01*
X146831047Y-99895663D02*
X146907238Y-99895663D01*
X146907238Y-99895663D02*
X147021523Y-99848044D01*
X147021523Y-99848044D02*
X147059619Y-99800424D01*
X147059619Y-99800424D02*
X147059619Y-99467091D01*
X147059619Y-99467091D02*
X146907238Y-99467091D01*
X109836095Y-101546663D02*
X109569428Y-101070472D01*
X109378952Y-101546663D02*
X109378952Y-100546663D01*
X109378952Y-100546663D02*
X109683714Y-100546663D01*
X109683714Y-100546663D02*
X109759904Y-100594282D01*
X109759904Y-100594282D02*
X109797999Y-100641901D01*
X109797999Y-100641901D02*
X109836095Y-100737139D01*
X109836095Y-100737139D02*
X109836095Y-100879996D01*
X109836095Y-100879996D02*
X109797999Y-100975234D01*
X109797999Y-100975234D02*
X109759904Y-101022853D01*
X109759904Y-101022853D02*
X109683714Y-101070472D01*
X109683714Y-101070472D02*
X109378952Y-101070472D01*
X110178952Y-101022853D02*
X110445618Y-101022853D01*
X110559904Y-101546663D02*
X110178952Y-101546663D01*
X110178952Y-101546663D02*
X110178952Y-100546663D01*
X110178952Y-100546663D02*
X110559904Y-100546663D01*
X110864666Y-101499044D02*
X110978952Y-101546663D01*
X110978952Y-101546663D02*
X111169428Y-101546663D01*
X111169428Y-101546663D02*
X111245619Y-101499044D01*
X111245619Y-101499044D02*
X111283714Y-101451424D01*
X111283714Y-101451424D02*
X111321809Y-101356186D01*
X111321809Y-101356186D02*
X111321809Y-101260948D01*
X111321809Y-101260948D02*
X111283714Y-101165710D01*
X111283714Y-101165710D02*
X111245619Y-101118091D01*
X111245619Y-101118091D02*
X111169428Y-101070472D01*
X111169428Y-101070472D02*
X111017047Y-101022853D01*
X111017047Y-101022853D02*
X110940857Y-100975234D01*
X110940857Y-100975234D02*
X110902762Y-100927615D01*
X110902762Y-100927615D02*
X110864666Y-100832377D01*
X110864666Y-100832377D02*
X110864666Y-100737139D01*
X110864666Y-100737139D02*
X110902762Y-100641901D01*
X110902762Y-100641901D02*
X110940857Y-100594282D01*
X110940857Y-100594282D02*
X111017047Y-100546663D01*
X111017047Y-100546663D02*
X111207524Y-100546663D01*
X111207524Y-100546663D02*
X111321809Y-100594282D01*
X111664667Y-101022853D02*
X111931333Y-101022853D01*
X112045619Y-101546663D02*
X111664667Y-101546663D01*
X111664667Y-101546663D02*
X111664667Y-100546663D01*
X111664667Y-100546663D02*
X112045619Y-100546663D01*
X112274191Y-100546663D02*
X112731334Y-100546663D01*
X112502762Y-101546663D02*
X112502762Y-100546663D01*
G36*
X125710497Y-100906246D02*
G01*
X125733371Y-100934839D01*
X125761785Y-101005871D01*
X125761785Y-101119263D01*
X125733371Y-101190295D01*
X125710497Y-101218888D01*
X125663964Y-101247972D01*
X125457642Y-101247972D01*
X125457642Y-100877163D01*
X125663964Y-100877163D01*
X125710497Y-100906246D01*
G37*
G36*
X127120021Y-100906246D02*
G01*
X127142895Y-100934839D01*
X127171309Y-101005871D01*
X127171309Y-101119263D01*
X127142895Y-101190295D01*
X127120021Y-101218888D01*
X127073488Y-101247972D01*
X126867166Y-101247972D01*
X126867166Y-100877163D01*
X127073488Y-100877163D01*
X127120021Y-100906246D01*
G37*
G36*
X131958117Y-100906246D02*
G01*
X131980991Y-100934839D01*
X132009405Y-101005871D01*
X132009405Y-101119263D01*
X131980991Y-101190295D01*
X131958117Y-101218888D01*
X131911584Y-101247972D01*
X131705262Y-101247972D01*
X131705262Y-100877163D01*
X131911584Y-100877163D01*
X131958117Y-100906246D01*
G37*
G36*
X132305262Y-102020020D02*
G01*
X124780833Y-102020020D01*
X124780833Y-101800663D01*
X124923690Y-101800663D01*
X124941588Y-101849836D01*
X124986906Y-101876001D01*
X125038440Y-101866914D01*
X125072076Y-101826828D01*
X125076690Y-101800663D01*
X125304642Y-101800663D01*
X125322540Y-101849836D01*
X125367858Y-101876001D01*
X125419392Y-101866914D01*
X125453028Y-101826828D01*
X125457642Y-101800663D01*
X125457642Y-101400972D01*
X125526779Y-101400972D01*
X125771538Y-101838041D01*
X125811181Y-101872200D01*
X125863505Y-101872887D01*
X125904029Y-101839778D01*
X125911456Y-101800663D01*
X126714166Y-101800663D01*
X126732064Y-101849836D01*
X126777382Y-101876001D01*
X126828916Y-101866914D01*
X126862552Y-101826828D01*
X126867166Y-101800663D01*
X126867166Y-101400972D01*
X126936303Y-101400972D01*
X127181062Y-101838041D01*
X127220705Y-101872200D01*
X127273029Y-101872887D01*
X127313553Y-101839778D01*
X127320980Y-101800663D01*
X127514166Y-101800663D01*
X127520963Y-101819338D01*
X127524415Y-101838913D01*
X127529703Y-101843350D01*
X127532064Y-101849836D01*
X127549275Y-101859773D01*
X127564501Y-101872549D01*
X127574438Y-101874301D01*
X127577382Y-101876001D01*
X127580729Y-101875410D01*
X127590666Y-101877163D01*
X127971618Y-101877163D01*
X128020791Y-101859265D01*
X128046956Y-101813947D01*
X128037869Y-101762413D01*
X127997783Y-101728777D01*
X127971618Y-101724163D01*
X127667166Y-101724163D01*
X127667166Y-101372091D01*
X128199880Y-101372091D01*
X128201099Y-101375442D01*
X128201366Y-101387094D01*
X128239462Y-101577570D01*
X128241265Y-101580534D01*
X128243447Y-101590978D01*
X128281542Y-101686216D01*
X128283345Y-101688232D01*
X128292834Y-101705594D01*
X128369024Y-101800833D01*
X128374182Y-101803974D01*
X128376960Y-101809337D01*
X128399338Y-101823659D01*
X128513624Y-101871279D01*
X128515469Y-101871363D01*
X128516882Y-101872549D01*
X128543047Y-101877163D01*
X128619238Y-101877163D01*
X128620972Y-101876531D01*
X128622734Y-101877083D01*
X128648661Y-101871278D01*
X128762946Y-101823659D01*
X128767390Y-101819569D01*
X128773311Y-101818382D01*
X128793259Y-101800833D01*
X128793395Y-101800663D01*
X129037976Y-101800663D01*
X129044773Y-101819338D01*
X129048225Y-101838913D01*
X129053513Y-101843350D01*
X129055874Y-101849836D01*
X129073085Y-101859773D01*
X129088311Y-101872549D01*
X129098248Y-101874301D01*
X129101192Y-101876001D01*
X129104539Y-101875410D01*
X129114476Y-101877163D01*
X129495428Y-101877163D01*
X129544601Y-101859265D01*
X129570766Y-101813947D01*
X129568424Y-101800663D01*
X129761786Y-101800663D01*
X129779684Y-101849836D01*
X129825002Y-101876001D01*
X129876536Y-101866914D01*
X129910172Y-101826828D01*
X129914786Y-101800663D01*
X129914786Y-100800663D01*
X129912326Y-100793904D01*
X130028751Y-100793904D01*
X130031035Y-100820374D01*
X130297702Y-101820374D01*
X130301707Y-101826109D01*
X130302326Y-101833076D01*
X130316334Y-101847051D01*
X130327666Y-101863275D01*
X130334419Y-101865093D01*
X130339372Y-101870034D01*
X130359087Y-101871735D01*
X130378195Y-101876880D01*
X130384537Y-101873931D01*
X130391507Y-101874533D01*
X130407705Y-101863161D01*
X130425648Y-101854821D01*
X130428611Y-101848485D01*
X130434336Y-101844467D01*
X130445536Y-101820374D01*
X130450792Y-101800663D01*
X130828452Y-101800663D01*
X130835249Y-101819338D01*
X130838701Y-101838913D01*
X130843989Y-101843350D01*
X130846350Y-101849836D01*
X130863561Y-101859773D01*
X130878787Y-101872549D01*
X130888724Y-101874301D01*
X130891668Y-101876001D01*
X130895015Y-101875410D01*
X130904952Y-101877163D01*
X131285904Y-101877163D01*
X131335077Y-101859265D01*
X131361242Y-101813947D01*
X131358900Y-101800663D01*
X131552262Y-101800663D01*
X131570160Y-101849836D01*
X131615478Y-101876001D01*
X131667012Y-101866914D01*
X131700648Y-101826828D01*
X131705262Y-101800663D01*
X131705262Y-101400972D01*
X131774399Y-101400972D01*
X132019158Y-101838041D01*
X132058801Y-101872200D01*
X132111125Y-101872887D01*
X132151649Y-101839778D01*
X132161410Y-101788368D01*
X132152652Y-101763285D01*
X131948767Y-101399205D01*
X131949436Y-101399299D01*
X131974069Y-101389344D01*
X132050259Y-101341725D01*
X132050756Y-101341088D01*
X132069451Y-101324642D01*
X132107546Y-101277023D01*
X132108411Y-101274459D01*
X132118837Y-101257646D01*
X132156933Y-101162408D01*
X132156973Y-101161135D01*
X132157791Y-101160161D01*
X132162405Y-101133996D01*
X132162405Y-100991139D01*
X132161969Y-100989942D01*
X132162367Y-100988734D01*
X132156933Y-100962727D01*
X132118837Y-100867489D01*
X132117034Y-100865473D01*
X132107546Y-100848112D01*
X132069451Y-100800493D01*
X132068759Y-100800071D01*
X132050259Y-100783410D01*
X131974069Y-100735791D01*
X131966004Y-100734076D01*
X131959689Y-100728777D01*
X131933524Y-100724163D01*
X131628762Y-100724163D01*
X131610086Y-100730960D01*
X131590512Y-100734412D01*
X131586074Y-100739700D01*
X131579589Y-100742061D01*
X131569651Y-100759272D01*
X131556876Y-100774498D01*
X131555123Y-100784435D01*
X131553424Y-100787379D01*
X131554014Y-100790726D01*
X131552262Y-100800663D01*
X131552262Y-101800663D01*
X131358900Y-101800663D01*
X131352155Y-101762413D01*
X131312069Y-101728777D01*
X131285904Y-101724163D01*
X130981452Y-101724163D01*
X130981452Y-101353353D01*
X131171618Y-101353353D01*
X131220791Y-101335455D01*
X131246956Y-101290137D01*
X131237869Y-101238603D01*
X131197783Y-101204967D01*
X131171618Y-101200353D01*
X130981452Y-101200353D01*
X130981452Y-100877163D01*
X131285904Y-100877163D01*
X131335077Y-100859265D01*
X131361242Y-100813947D01*
X131352155Y-100762413D01*
X131312069Y-100728777D01*
X131285904Y-100724163D01*
X130904952Y-100724163D01*
X130886276Y-100730960D01*
X130866702Y-100734412D01*
X130862264Y-100739700D01*
X130855779Y-100742061D01*
X130845841Y-100759272D01*
X130833066Y-100774498D01*
X130831313Y-100784435D01*
X130829614Y-100787379D01*
X130830204Y-100790726D01*
X130828452Y-100800663D01*
X130828452Y-101800663D01*
X130450792Y-101800663D01*
X130712202Y-100820374D01*
X130707578Y-100768250D01*
X130670532Y-100731291D01*
X130618397Y-100726793D01*
X130575568Y-100756859D01*
X130564368Y-100780952D01*
X130371618Y-101503763D01*
X130178869Y-100780952D01*
X130148905Y-100738051D01*
X130098376Y-100724446D01*
X130050923Y-100746505D01*
X130028751Y-100793904D01*
X129912326Y-100793904D01*
X129896888Y-100751490D01*
X129851570Y-100725325D01*
X129800036Y-100734412D01*
X129766400Y-100774498D01*
X129761786Y-100800663D01*
X129761786Y-101800663D01*
X129568424Y-101800663D01*
X129561679Y-101762413D01*
X129521593Y-101728777D01*
X129495428Y-101724163D01*
X129190976Y-101724163D01*
X129190976Y-101353353D01*
X129381142Y-101353353D01*
X129430315Y-101335455D01*
X129456480Y-101290137D01*
X129447393Y-101238603D01*
X129407307Y-101204967D01*
X129381142Y-101200353D01*
X129190976Y-101200353D01*
X129190976Y-100877163D01*
X129495428Y-100877163D01*
X129544601Y-100859265D01*
X129570766Y-100813947D01*
X129561679Y-100762413D01*
X129521593Y-100728777D01*
X129495428Y-100724163D01*
X129114476Y-100724163D01*
X129095800Y-100730960D01*
X129076226Y-100734412D01*
X129071788Y-100739700D01*
X129065303Y-100742061D01*
X129055365Y-100759272D01*
X129042590Y-100774498D01*
X129040837Y-100784435D01*
X129039138Y-100787379D01*
X129039728Y-100790726D01*
X129037976Y-100800663D01*
X129037976Y-101800663D01*
X128793395Y-101800663D01*
X128831355Y-101753213D01*
X128848097Y-101703635D01*
X128829055Y-101654894D01*
X128783137Y-101629796D01*
X128731830Y-101640086D01*
X128711882Y-101657635D01*
X128686021Y-101689961D01*
X128603939Y-101724163D01*
X128558346Y-101724163D01*
X128476263Y-101689961D01*
X128419388Y-101618867D01*
X128388112Y-101540674D01*
X128352880Y-101364517D01*
X128352880Y-101236807D01*
X128388112Y-101060650D01*
X128419388Y-100982458D01*
X128476263Y-100911363D01*
X128558346Y-100877163D01*
X128603939Y-100877163D01*
X128686020Y-100911363D01*
X128711883Y-100943691D01*
X128756578Y-100970908D01*
X128808310Y-100963028D01*
X128842874Y-100923739D01*
X128844098Y-100871425D01*
X128831355Y-100848112D01*
X128793259Y-100800492D01*
X128788100Y-100797351D01*
X128785324Y-100791989D01*
X128762946Y-100777667D01*
X128648661Y-100730048D01*
X128646817Y-100729963D01*
X128645403Y-100728777D01*
X128619238Y-100724163D01*
X128543047Y-100724163D01*
X128541312Y-100724794D01*
X128539551Y-100724243D01*
X128513624Y-100730047D01*
X128399338Y-100777667D01*
X128394893Y-100781756D01*
X128388973Y-100782944D01*
X128369024Y-100800493D01*
X128292834Y-100895731D01*
X128291967Y-100898296D01*
X128281542Y-100915109D01*
X128243447Y-101010347D01*
X128243337Y-101013818D01*
X128239462Y-101023755D01*
X128201366Y-101214231D01*
X128201904Y-101217753D01*
X128199880Y-101229234D01*
X128199880Y-101372091D01*
X127667166Y-101372091D01*
X127667166Y-101353353D01*
X127857332Y-101353353D01*
X127906505Y-101335455D01*
X127932670Y-101290137D01*
X127923583Y-101238603D01*
X127883497Y-101204967D01*
X127857332Y-101200353D01*
X127667166Y-101200353D01*
X127667166Y-100877163D01*
X127971618Y-100877163D01*
X128020791Y-100859265D01*
X128046956Y-100813947D01*
X128037869Y-100762413D01*
X127997783Y-100728777D01*
X127971618Y-100724163D01*
X127590666Y-100724163D01*
X127571990Y-100730960D01*
X127552416Y-100734412D01*
X127547978Y-100739700D01*
X127541493Y-100742061D01*
X127531555Y-100759272D01*
X127518780Y-100774498D01*
X127517027Y-100784435D01*
X127515328Y-100787379D01*
X127515918Y-100790726D01*
X127514166Y-100800663D01*
X127514166Y-101800663D01*
X127320980Y-101800663D01*
X127323314Y-101788368D01*
X127314556Y-101763285D01*
X127110671Y-101399205D01*
X127111340Y-101399299D01*
X127135973Y-101389344D01*
X127212163Y-101341725D01*
X127212660Y-101341088D01*
X127231355Y-101324642D01*
X127269450Y-101277023D01*
X127270315Y-101274459D01*
X127280741Y-101257646D01*
X127318837Y-101162408D01*
X127318877Y-101161135D01*
X127319695Y-101160161D01*
X127324309Y-101133996D01*
X127324309Y-100991139D01*
X127323873Y-100989942D01*
X127324271Y-100988734D01*
X127318837Y-100962727D01*
X127280741Y-100867489D01*
X127278938Y-100865473D01*
X127269450Y-100848112D01*
X127231355Y-100800493D01*
X127230663Y-100800071D01*
X127212163Y-100783410D01*
X127135973Y-100735791D01*
X127127908Y-100734076D01*
X127121593Y-100728777D01*
X127095428Y-100724163D01*
X126790666Y-100724163D01*
X126771990Y-100730960D01*
X126752416Y-100734412D01*
X126747978Y-100739700D01*
X126741493Y-100742061D01*
X126731555Y-100759272D01*
X126718780Y-100774498D01*
X126717027Y-100784435D01*
X126715328Y-100787379D01*
X126715918Y-100790726D01*
X126714166Y-100800663D01*
X126714166Y-101800663D01*
X125911456Y-101800663D01*
X125913790Y-101788368D01*
X125905032Y-101763285D01*
X125701147Y-101399205D01*
X125701816Y-101399299D01*
X125726449Y-101389344D01*
X125802639Y-101341725D01*
X125803136Y-101341088D01*
X125821831Y-101324642D01*
X125859926Y-101277023D01*
X125860791Y-101274459D01*
X125871217Y-101257646D01*
X125909313Y-101162408D01*
X125909353Y-101161135D01*
X125910171Y-101160161D01*
X125914785Y-101133996D01*
X125914785Y-100991139D01*
X125914349Y-100989942D01*
X125914747Y-100988734D01*
X125909313Y-100962727D01*
X125871217Y-100867489D01*
X125869414Y-100865473D01*
X125859926Y-100848112D01*
X125821831Y-100800493D01*
X125821139Y-100800071D01*
X125802639Y-100783410D01*
X125726449Y-100735791D01*
X125718384Y-100734076D01*
X125712069Y-100728777D01*
X125685904Y-100724163D01*
X125381142Y-100724163D01*
X125362466Y-100730960D01*
X125342892Y-100734412D01*
X125338454Y-100739700D01*
X125331969Y-100742061D01*
X125322031Y-100759272D01*
X125309256Y-100774498D01*
X125307503Y-100784435D01*
X125305804Y-100787379D01*
X125306394Y-100790726D01*
X125304642Y-100800663D01*
X125304642Y-101800663D01*
X125076690Y-101800663D01*
X125076690Y-100800663D01*
X125058792Y-100751490D01*
X125013474Y-100725325D01*
X124961940Y-100734412D01*
X124928304Y-100774498D01*
X124923690Y-100800663D01*
X124923690Y-101800663D01*
X124780833Y-101800663D01*
X124780833Y-100581306D01*
X132305262Y-100581306D01*
X132305262Y-102020020D01*
G37*
D11*
%TO.C,J201*%
X102971000Y-86093000D02*
X101356000Y-86093000D01*
X98996000Y-86093000D02*
X97666000Y-86093000D01*
X97666000Y-86093000D02*
X97666000Y-95253000D01*
X102971000Y-95253000D02*
X101356000Y-95253000D01*
X98996000Y-95253000D02*
X97696000Y-95253000D01*
%TO.C,R101*%
X118761742Y-79614500D02*
X119236258Y-79614500D01*
X118761742Y-80659500D02*
X119236258Y-80659500D01*
%TO.C,C403*%
X115445000Y-95363420D02*
X115445000Y-95644580D01*
X114425000Y-95363420D02*
X114425000Y-95644580D01*
%TO.C,D201*%
X107787000Y-90028000D02*
X107787000Y-91328000D01*
X110907000Y-91328000D02*
X110907000Y-89328000D01*
%TO.C,C301*%
X106174000Y-77939020D02*
X106174000Y-78220180D01*
X105154000Y-77939020D02*
X105154000Y-78220180D01*
%TO.C,LED102*%
X110017500Y-72290000D02*
X110017500Y-73760000D01*
X110017500Y-73760000D02*
X112302500Y-73760000D01*
X112302500Y-72290000D02*
X110017500Y-72290000D01*
%TO.C,C107*%
X116207000Y-103618420D02*
X116207000Y-103899580D01*
X115187000Y-103618420D02*
X115187000Y-103899580D01*
%TO.C,SW101*%
X111825000Y-96206000D02*
X111825000Y-97536000D01*
X110495000Y-96206000D02*
X111825000Y-96206000D01*
X109225000Y-96206000D02*
X106625000Y-96206000D01*
X109225000Y-96206000D02*
X109225000Y-98866000D01*
X106625000Y-96206000D02*
X106625000Y-98866000D01*
X109225000Y-98866000D02*
X106625000Y-98866000D01*
%TO.C,C102*%
X119251000Y-77991580D02*
X119251000Y-77710420D01*
X120271000Y-77991580D02*
X120271000Y-77710420D01*
%TO.C,C402*%
X113921000Y-95363420D02*
X113921000Y-95644580D01*
X112901000Y-95363420D02*
X112901000Y-95644580D01*
%TO.C,LED101*%
X112302500Y-74068000D02*
X110017500Y-74068000D01*
X110017500Y-75538000D02*
X112302500Y-75538000D01*
X110017500Y-74068000D02*
X110017500Y-75538000D01*
%TO.C,R107*%
X114864258Y-71896500D02*
X114389742Y-71896500D01*
X114864258Y-70851500D02*
X114389742Y-70851500D01*
D12*
%TO.C,J104*%
X134366000Y-107442000D02*
X134366000Y-106680000D01*
X134771000Y-100509000D02*
X134771000Y-107009000D01*
X134771000Y-107009000D02*
X142851000Y-107009000D01*
X135128000Y-107442000D02*
X134366000Y-107442000D01*
X142851000Y-100509000D02*
X134771000Y-100509000D01*
X142851000Y-107009000D02*
X142851000Y-100509000D01*
D11*
%TO.C,U106*%
X131378000Y-102503000D02*
X128778000Y-102503000D01*
X131378000Y-102853000D02*
X131378000Y-102503000D01*
X131378000Y-105173000D02*
X131378000Y-105513000D01*
X131378000Y-105513000D02*
X126288000Y-105513000D01*
X126678084Y-105514736D02*
G75*
G03*
X130877999Y-105513000I2099916J101736D01*
G01*
D12*
%TO.C,J102*%
X162306000Y-97282000D02*
X161544000Y-97282000D01*
X155373000Y-96877000D02*
X161873000Y-96877000D01*
X161873000Y-96877000D02*
X161873000Y-88797000D01*
X162306000Y-96520000D02*
X162306000Y-97282000D01*
X155373000Y-88797000D02*
X155373000Y-96877000D01*
X161873000Y-88797000D02*
X155373000Y-88797000D01*
D11*
%TO.C,R105*%
X114855258Y-72502500D02*
X114380742Y-72502500D01*
X114855258Y-73547500D02*
X114380742Y-73547500D01*
D12*
%TO.C,J101*%
X162306000Y-86741000D02*
X161544000Y-86741000D01*
X155373000Y-86336000D02*
X161873000Y-86336000D01*
X161873000Y-86336000D02*
X161873000Y-78256000D01*
X162306000Y-85979000D02*
X162306000Y-86741000D01*
X155373000Y-78256000D02*
X155373000Y-86336000D01*
X161873000Y-78256000D02*
X155373000Y-78256000D01*
D11*
%TO.C,R108*%
X151906500Y-92726742D02*
X151906500Y-93201258D01*
X150861500Y-92726742D02*
X150861500Y-93201258D01*
%TO.C,R103*%
X150734500Y-85835258D02*
X150734500Y-85360742D01*
X151779500Y-85835258D02*
X151779500Y-85360742D01*
%TO.C,C101*%
X117727000Y-77991580D02*
X117727000Y-77710420D01*
X118747000Y-77991580D02*
X118747000Y-77710420D01*
%TO.C,R106*%
X150861500Y-89518258D02*
X150861500Y-89043742D01*
X151906500Y-89518258D02*
X151906500Y-89043742D01*
%TO.C,C202*%
X106678000Y-78220180D02*
X106678000Y-77939020D01*
X107698000Y-78220180D02*
X107698000Y-77939020D01*
%TO.C,U101*%
X147320000Y-80355000D02*
X145520000Y-80355000D01*
X147320000Y-80355000D02*
X148120000Y-80355000D01*
X147320000Y-83475000D02*
X146520000Y-83475000D01*
X147320000Y-83475000D02*
X148120000Y-83475000D01*
%TO.C,U102*%
X147320000Y-84038000D02*
X145520000Y-84038000D01*
X147320000Y-84038000D02*
X148120000Y-84038000D01*
X147320000Y-87158000D02*
X146520000Y-87158000D01*
X147320000Y-87158000D02*
X148120000Y-87158000D01*
%TO.C,C401*%
X112371600Y-93102820D02*
X112371600Y-93383980D01*
X111351600Y-93102820D02*
X111351600Y-93383980D01*
%TO.C,Q401*%
X120997200Y-86235204D02*
X120997200Y-84835204D01*
X118677200Y-84835204D02*
X118677200Y-86735204D01*
%TO.C,C201*%
X106179252Y-84809000D02*
X105656748Y-84809000D01*
X106179252Y-83339000D02*
X105656748Y-83339000D01*
%TO.C,SW105*%
X117096000Y-103475000D02*
X117096000Y-106075000D01*
X117166000Y-102095000D02*
X123626000Y-102095000D01*
X117166000Y-102125000D02*
X117166000Y-102095000D01*
X117166000Y-107475000D02*
X117166000Y-107445000D01*
X117166000Y-107475000D02*
X123626000Y-107475000D01*
X123626000Y-102095000D02*
X123626000Y-102125000D01*
X123626000Y-107475000D02*
X123626000Y-107445000D01*
X123696000Y-103475000D02*
X123696000Y-106075000D01*
%TO.C,F201*%
X109789179Y-82755200D02*
X109463621Y-82755200D01*
X109789179Y-81735200D02*
X109463621Y-81735200D01*
%TO.C,C106*%
X106809000Y-103618420D02*
X106809000Y-103899580D01*
X105789000Y-103618420D02*
X105789000Y-103899580D01*
%TO.C,U105*%
X147320000Y-91404000D02*
X145520000Y-91404000D01*
X147320000Y-91404000D02*
X148120000Y-91404000D01*
X147320000Y-94524000D02*
X146520000Y-94524000D01*
X147320000Y-94524000D02*
X148120000Y-94524000D01*
%TO.C,FB201*%
X106046600Y-81507064D02*
X106046600Y-81052936D01*
X107516600Y-81507064D02*
X107516600Y-81052936D01*
%TO.C,R201*%
X103264580Y-97538000D02*
X102983420Y-97538000D01*
X103264580Y-96518000D02*
X102983420Y-96518000D01*
%TO.C,R402*%
X118124500Y-85348746D02*
X118124500Y-85823262D01*
X117079500Y-85348746D02*
X117079500Y-85823262D01*
%TO.C,U301*%
X110490000Y-78135000D02*
X108690000Y-78135000D01*
X110490000Y-78135000D02*
X111290000Y-78135000D01*
X110490000Y-81255000D02*
X109690000Y-81255000D01*
X110490000Y-81255000D02*
X111290000Y-81255000D01*
%TO.C,G\u002A\u002A\u002A*%
G36*
X149676069Y-75992295D02*
G01*
X149676069Y-76355152D01*
X149863753Y-76355152D01*
X150051438Y-76355152D01*
X150051438Y-76430226D01*
X150051438Y-76505300D01*
X149776167Y-76505300D01*
X149500896Y-76505300D01*
X149500896Y-76067369D01*
X149500896Y-75629438D01*
X149588482Y-75629438D01*
X149676069Y-75629438D01*
X149676069Y-75992295D01*
G37*
G36*
X152929271Y-70211606D02*
G01*
X152929271Y-70574463D01*
X153116955Y-70574463D01*
X153304640Y-70574463D01*
X153304640Y-70649537D01*
X153304640Y-70724610D01*
X153029369Y-70724610D01*
X152754098Y-70724610D01*
X152754098Y-70286679D01*
X152754098Y-69848748D01*
X152841684Y-69848748D01*
X152929271Y-69848748D01*
X152929271Y-70211606D01*
G37*
G36*
X152228581Y-75704512D02*
G01*
X152225316Y-75750676D01*
X152206468Y-75772541D01*
X152158454Y-75779161D01*
X152115970Y-75779586D01*
X152003359Y-75779586D01*
X152003359Y-76142443D01*
X152003359Y-76505300D01*
X151915773Y-76505300D01*
X151828187Y-76505300D01*
X151828187Y-76142443D01*
X151828187Y-75779586D01*
X151715576Y-75779586D01*
X151646330Y-75777410D01*
X151613533Y-75764844D01*
X151603602Y-75732834D01*
X151602965Y-75704512D01*
X151602965Y-75629438D01*
X151915773Y-75629438D01*
X152228581Y-75629438D01*
X152228581Y-75704512D01*
G37*
G36*
X152578926Y-69923822D02*
G01*
X152575661Y-69969986D01*
X152556813Y-69991851D01*
X152508798Y-69998472D01*
X152466315Y-69998896D01*
X152353704Y-69998896D01*
X152353704Y-70361753D01*
X152353704Y-70724610D01*
X152266118Y-70724610D01*
X152178532Y-70724610D01*
X152178532Y-70361753D01*
X152178532Y-69998896D01*
X152065921Y-69998896D01*
X151996675Y-69996720D01*
X151963877Y-69984154D01*
X151953947Y-69952145D01*
X151953310Y-69923822D01*
X151953310Y-69848748D01*
X152266118Y-69848748D01*
X152578926Y-69848748D01*
X152578926Y-69923822D01*
G37*
G36*
X154380699Y-76068880D02*
G01*
X154380699Y-76508321D01*
X154286857Y-76500555D01*
X154193014Y-76492788D01*
X154080404Y-76193385D01*
X153967793Y-75893983D01*
X153960766Y-76199642D01*
X153953740Y-76505300D01*
X153879436Y-76505300D01*
X153805133Y-76505300D01*
X153805133Y-76067369D01*
X153805133Y-75629438D01*
X153898975Y-75629712D01*
X153992817Y-75629986D01*
X154105428Y-75933371D01*
X154218039Y-76236756D01*
X154225065Y-75933097D01*
X154232092Y-75629438D01*
X154306395Y-75629438D01*
X154380699Y-75629438D01*
X154380699Y-76068880D01*
G37*
G36*
X149300699Y-75704512D02*
G01*
X149300699Y-75779586D01*
X149113014Y-75779586D01*
X148925330Y-75779586D01*
X148925330Y-75867172D01*
X148925330Y-75954758D01*
X149100502Y-75954758D01*
X149275674Y-75954758D01*
X149275674Y-76029832D01*
X149275674Y-76104906D01*
X149100502Y-76104906D01*
X148925330Y-76104906D01*
X148925330Y-76230029D01*
X148925330Y-76355152D01*
X149113014Y-76355152D01*
X149300699Y-76355152D01*
X149300699Y-76430226D01*
X149300699Y-76505300D01*
X149025428Y-76505300D01*
X148750157Y-76505300D01*
X148750157Y-76067369D01*
X148750157Y-75629438D01*
X149025428Y-75629438D01*
X149300699Y-75629438D01*
X149300699Y-75704512D01*
G37*
G36*
X150752128Y-75704512D02*
G01*
X150752128Y-75779586D01*
X150564443Y-75779586D01*
X150376758Y-75779586D01*
X150376758Y-75867172D01*
X150376758Y-75954758D01*
X150551931Y-75954758D01*
X150727103Y-75954758D01*
X150727103Y-76029832D01*
X150727103Y-76104906D01*
X150551931Y-76104906D01*
X150376758Y-76104906D01*
X150376758Y-76230029D01*
X150376758Y-76355152D01*
X150564443Y-76355152D01*
X150752128Y-76355152D01*
X150752128Y-76430226D01*
X150752128Y-76505300D01*
X150476857Y-76505300D01*
X150201586Y-76505300D01*
X150201586Y-76067369D01*
X150201586Y-75629438D01*
X150476857Y-75629438D01*
X150752128Y-75629438D01*
X150752128Y-75704512D01*
G37*
G36*
X154005330Y-69923822D02*
G01*
X154005330Y-69998896D01*
X153817645Y-69998896D01*
X153629960Y-69998896D01*
X153629960Y-70086482D01*
X153629960Y-70174069D01*
X153805133Y-70174069D01*
X153980305Y-70174069D01*
X153980305Y-70249142D01*
X153980305Y-70324216D01*
X153805133Y-70324216D01*
X153629960Y-70324216D01*
X153629960Y-70449340D01*
X153629960Y-70574463D01*
X153817645Y-70574463D01*
X154005330Y-70574463D01*
X154005330Y-70649537D01*
X154005330Y-70724610D01*
X153730059Y-70724610D01*
X153454788Y-70724610D01*
X153454788Y-70286679D01*
X153454788Y-69848748D01*
X153730059Y-69848748D01*
X154005330Y-69848748D01*
X154005330Y-69923822D01*
G37*
G36*
X155056364Y-75704512D02*
G01*
X155051482Y-75754951D01*
X155026716Y-75775639D01*
X154968778Y-75779586D01*
X154881192Y-75779586D01*
X154881192Y-76067369D01*
X154881192Y-76355152D01*
X154968778Y-76355152D01*
X155027624Y-76359337D01*
X155051760Y-76380565D01*
X155056364Y-76430226D01*
X155056364Y-76505300D01*
X154793606Y-76505300D01*
X154530847Y-76505300D01*
X154530847Y-76430226D01*
X154535729Y-76379787D01*
X154560495Y-76359099D01*
X154618433Y-76355152D01*
X154706019Y-76355152D01*
X154706019Y-76067369D01*
X154706019Y-75779586D01*
X154618433Y-75779586D01*
X154559587Y-75775401D01*
X154535451Y-75754173D01*
X154530847Y-75704512D01*
X154530847Y-75629438D01*
X154793606Y-75629438D01*
X155056364Y-75629438D01*
X155056364Y-75704512D01*
G37*
G36*
X151387251Y-75614391D02*
G01*
X151448514Y-75647175D01*
X151475369Y-75707190D01*
X151477842Y-75742524D01*
X151477842Y-75828825D01*
X151392896Y-75788318D01*
X151294321Y-75761060D01*
X151213221Y-75778979D01*
X151152373Y-75839406D01*
X151114551Y-75939676D01*
X151102473Y-76067369D01*
X151116210Y-76202541D01*
X151155572Y-76300368D01*
X151217785Y-76358183D01*
X151300073Y-76373319D01*
X151392896Y-76346420D01*
X151477842Y-76305913D01*
X151477842Y-76392214D01*
X151464516Y-76467678D01*
X151429438Y-76504420D01*
X151342982Y-76527699D01*
X151238092Y-76524098D01*
X151137391Y-76495365D01*
X151107026Y-76479514D01*
X151017287Y-76396303D01*
X150958161Y-76277833D01*
X150931996Y-76130150D01*
X150932980Y-76031624D01*
X150945858Y-75931004D01*
X150967231Y-75838146D01*
X150987302Y-75784536D01*
X151062183Y-75690743D01*
X151166862Y-75627618D01*
X151285546Y-75604507D01*
X151387251Y-75614391D01*
G37*
G36*
X155716512Y-75614391D02*
G01*
X155777775Y-75647175D01*
X155804630Y-75707190D01*
X155807103Y-75742524D01*
X155807103Y-75828825D01*
X155722157Y-75788318D01*
X155623582Y-75761060D01*
X155542482Y-75778979D01*
X155481634Y-75839406D01*
X155443812Y-75939676D01*
X155431734Y-76067369D01*
X155445471Y-76202541D01*
X155484833Y-76300368D01*
X155547046Y-76358183D01*
X155629334Y-76373319D01*
X155722157Y-76346420D01*
X155807103Y-76305913D01*
X155807103Y-76392214D01*
X155793777Y-76467678D01*
X155758699Y-76504420D01*
X155672243Y-76527699D01*
X155567354Y-76524098D01*
X155466652Y-76495365D01*
X155436287Y-76479514D01*
X155346548Y-76396303D01*
X155287422Y-76277833D01*
X155261257Y-76130150D01*
X155262241Y-76031624D01*
X155275119Y-75931004D01*
X155296492Y-75838146D01*
X155316563Y-75784536D01*
X155391444Y-75690743D01*
X155496123Y-75627618D01*
X155614807Y-75604507D01*
X155716512Y-75614391D01*
G37*
G36*
X154469239Y-72790926D02*
G01*
X154474879Y-72797047D01*
X154487849Y-72812424D01*
X154497761Y-72825917D01*
X154501297Y-72839552D01*
X154495136Y-72855355D01*
X154475959Y-72875351D01*
X154440446Y-72901565D01*
X154385278Y-72936023D01*
X154307136Y-72980750D01*
X154202700Y-73037772D01*
X154068650Y-73109114D01*
X153901666Y-73196802D01*
X153698430Y-73302860D01*
X153455622Y-73429315D01*
X153339542Y-73489778D01*
X152886464Y-73725829D01*
X152858781Y-73665072D01*
X152850626Y-73643129D01*
X152851927Y-73623172D01*
X152868193Y-73601267D01*
X152904931Y-73573479D01*
X152967647Y-73535876D01*
X153061849Y-73484523D01*
X153193044Y-73415485D01*
X153249297Y-73386116D01*
X153419501Y-73297115D01*
X153610492Y-73196923D01*
X153803604Y-73095352D01*
X153980169Y-73002215D01*
X154055379Y-72962422D01*
X154196380Y-72888320D01*
X154299980Y-72835812D01*
X154372622Y-72802360D01*
X154420749Y-72785421D01*
X154450807Y-72782457D01*
X154469239Y-72790926D01*
G37*
G36*
X150900768Y-72795875D02*
G01*
X150952611Y-72815872D01*
X151026272Y-72849335D01*
X151126056Y-72898238D01*
X151256265Y-72964552D01*
X151421203Y-73050250D01*
X151625173Y-73157306D01*
X151665527Y-73178555D01*
X151877278Y-73291067D01*
X152060901Y-73390616D01*
X152213379Y-73475475D01*
X152331696Y-73543920D01*
X152412834Y-73594226D01*
X152453777Y-73624668D01*
X152458227Y-73631926D01*
X152450034Y-73657138D01*
X152437247Y-73674351D01*
X152415530Y-73681878D01*
X152380544Y-73678033D01*
X152327952Y-73661131D01*
X152253416Y-73629485D01*
X152152598Y-73581408D01*
X152021161Y-73515216D01*
X151854766Y-73429222D01*
X151649076Y-73321739D01*
X151617057Y-73304965D01*
X151433168Y-73208071D01*
X151263748Y-73117756D01*
X151113824Y-73036781D01*
X150988424Y-72967905D01*
X150892574Y-72913889D01*
X150831301Y-72877493D01*
X150809676Y-72861688D01*
X150816707Y-72823968D01*
X150833120Y-72796954D01*
X150845326Y-72788389D01*
X150866440Y-72787371D01*
X150900768Y-72795875D01*
G37*
G36*
X151427793Y-70184793D02*
G01*
X151429634Y-70339707D01*
X151436505Y-70451365D01*
X151450429Y-70526468D01*
X151473428Y-70571721D01*
X151507524Y-70593824D01*
X151552916Y-70599487D01*
X151599657Y-70593386D01*
X151633347Y-70570612D01*
X151656007Y-70524464D01*
X151669661Y-70448239D01*
X151676330Y-70335235D01*
X151678039Y-70184793D01*
X151678039Y-69848748D01*
X151767428Y-69848748D01*
X151856817Y-69848748D01*
X151848758Y-70223619D01*
X151845347Y-70368144D01*
X151841345Y-70471458D01*
X151835259Y-70542391D01*
X151825594Y-70589772D01*
X151810859Y-70622433D01*
X151789559Y-70649203D01*
X151774109Y-70665010D01*
X151698105Y-70712385D01*
X151596564Y-70740275D01*
X151491486Y-70744857D01*
X151415280Y-70727338D01*
X151361039Y-70692310D01*
X151315182Y-70649942D01*
X151295451Y-70623204D01*
X151281256Y-70588047D01*
X151271426Y-70535839D01*
X151264790Y-70457948D01*
X151260178Y-70345744D01*
X151257074Y-70221570D01*
X151249014Y-69848748D01*
X151338404Y-69848748D01*
X151427793Y-69848748D01*
X151427793Y-70184793D01*
G37*
G36*
X153453417Y-75620201D02*
G01*
X153508123Y-75634211D01*
X153549661Y-75665234D01*
X153568400Y-75685785D01*
X153631593Y-75792970D01*
X153669094Y-75928082D01*
X153680843Y-76076575D01*
X153666775Y-76223907D01*
X153626829Y-76355534D01*
X153571664Y-76445159D01*
X153499752Y-76495504D01*
X153402831Y-76522279D01*
X153301670Y-76522138D01*
X153230936Y-76500024D01*
X153151472Y-76430212D01*
X153095175Y-76319138D01*
X153063923Y-76170838D01*
X153060634Y-76134162D01*
X153061621Y-76067369D01*
X153229566Y-76067369D01*
X153239845Y-76201453D01*
X153269204Y-76301567D01*
X153315425Y-76362671D01*
X153367202Y-76380177D01*
X153418092Y-76368180D01*
X153454434Y-76323944D01*
X153468577Y-76293394D01*
X153489624Y-76216990D01*
X153502706Y-76119385D01*
X153504837Y-76067369D01*
X153494558Y-75933285D01*
X153465199Y-75833171D01*
X153418978Y-75772067D01*
X153367202Y-75754561D01*
X153308205Y-75777923D01*
X153264154Y-75844648D01*
X153237269Y-75949695D01*
X153229566Y-76067369D01*
X153061621Y-76067369D01*
X153063325Y-75952028D01*
X153098601Y-75801424D01*
X153165525Y-75686340D01*
X153165695Y-75686142D01*
X153207343Y-75645502D01*
X153253928Y-75624710D01*
X153323823Y-75617455D01*
X153367202Y-75616926D01*
X153453417Y-75620201D01*
G37*
G36*
X156309036Y-75612432D02*
G01*
X156400118Y-75625627D01*
X156452155Y-75644307D01*
X156476013Y-75677694D01*
X156482557Y-75735012D01*
X156482768Y-75759917D01*
X156481319Y-75823424D01*
X156472595Y-75844931D01*
X156450036Y-75832479D01*
X156434661Y-75818881D01*
X156370816Y-75781787D01*
X156291788Y-75762283D01*
X156216559Y-75762486D01*
X156164113Y-75784514D01*
X156160599Y-75788301D01*
X156135086Y-75843733D01*
X156154897Y-75897181D01*
X156221761Y-75951432D01*
X156282160Y-75984059D01*
X156412590Y-76061789D01*
X156494896Y-76146082D01*
X156530897Y-76240227D01*
X156522411Y-76347510D01*
X156507952Y-76392271D01*
X156459511Y-76454148D01*
X156374743Y-76499152D01*
X156265368Y-76524432D01*
X156143104Y-76527133D01*
X156032325Y-76508065D01*
X155990475Y-76487733D01*
X155969804Y-76446665D01*
X155962167Y-76387450D01*
X155954570Y-76284107D01*
X156048788Y-76332142D01*
X156148757Y-76369131D01*
X156237479Y-76376983D01*
X156306254Y-76358094D01*
X156346380Y-76314858D01*
X156349158Y-76249673D01*
X156349104Y-76249456D01*
X156325112Y-76204544D01*
X156271413Y-76165086D01*
X156194576Y-76129765D01*
X156068050Y-76061581D01*
X155988655Y-75979433D01*
X155956934Y-75884396D01*
X155973429Y-75777546D01*
X155993608Y-75731819D01*
X156059249Y-75656952D01*
X156159159Y-75616005D01*
X156289521Y-75610422D01*
X156309036Y-75612432D01*
G37*
G36*
X152581109Y-75633204D02*
G01*
X152690372Y-75638442D01*
X152761983Y-75646253D01*
X152808336Y-75660036D01*
X152841822Y-75683192D01*
X152868892Y-75712164D01*
X152921525Y-75806538D01*
X152926609Y-75905401D01*
X152884472Y-75999302D01*
X152857840Y-76030038D01*
X152813646Y-76080880D01*
X152804857Y-76114686D01*
X152816680Y-76134468D01*
X152841615Y-76172641D01*
X152878898Y-76242221D01*
X152920825Y-76328759D01*
X152924333Y-76336384D01*
X153001715Y-76505300D01*
X152906331Y-76505300D01*
X152846950Y-76501619D01*
X152811540Y-76482154D01*
X152784434Y-76434270D01*
X152768492Y-76394134D01*
X152715230Y-76280461D01*
X152656750Y-76199668D01*
X152598583Y-76158668D01*
X152577109Y-76154955D01*
X152551710Y-76160162D01*
X152537155Y-76182868D01*
X152530521Y-76233697D01*
X152528880Y-76323275D01*
X152528876Y-76330128D01*
X152528876Y-76505300D01*
X152441290Y-76505300D01*
X152353704Y-76505300D01*
X152353704Y-76064879D01*
X152353704Y-75892197D01*
X152528876Y-75892197D01*
X152530860Y-75961399D01*
X152543467Y-75994170D01*
X152576679Y-76004124D01*
X152611458Y-76004807D01*
X152677769Y-75996207D01*
X152723378Y-75975449D01*
X152724069Y-75974778D01*
X152749140Y-75925991D01*
X152754098Y-75892197D01*
X152734454Y-75824131D01*
X152675527Y-75787073D01*
X152611458Y-75779586D01*
X152560709Y-75782291D01*
X152536677Y-75799481D01*
X152529378Y-75844772D01*
X152528876Y-75892197D01*
X152353704Y-75892197D01*
X152353704Y-75624458D01*
X152581109Y-75633204D01*
G37*
G36*
X154382883Y-69852515D02*
G01*
X154492145Y-69857753D01*
X154563757Y-69865563D01*
X154610110Y-69879347D01*
X154643596Y-69902502D01*
X154670666Y-69931474D01*
X154723299Y-70025848D01*
X154728382Y-70124711D01*
X154686246Y-70218612D01*
X154659614Y-70249349D01*
X154615420Y-70300190D01*
X154606630Y-70333996D01*
X154618454Y-70353778D01*
X154643389Y-70391951D01*
X154680671Y-70461532D01*
X154722598Y-70548069D01*
X154726106Y-70555694D01*
X154803488Y-70724610D01*
X154708104Y-70724610D01*
X154648723Y-70720930D01*
X154613313Y-70701465D01*
X154586207Y-70653580D01*
X154570266Y-70613445D01*
X154517003Y-70499771D01*
X154458524Y-70418979D01*
X154400357Y-70377978D01*
X154378883Y-70374266D01*
X154353483Y-70379473D01*
X154338929Y-70402178D01*
X154332294Y-70453007D01*
X154330653Y-70542585D01*
X154330650Y-70549438D01*
X154330650Y-70724610D01*
X154243064Y-70724610D01*
X154155477Y-70724610D01*
X154155477Y-70284190D01*
X154155477Y-70111507D01*
X154330650Y-70111507D01*
X154332633Y-70180709D01*
X154345240Y-70213481D01*
X154378453Y-70223434D01*
X154413231Y-70224118D01*
X154479543Y-70215517D01*
X154525151Y-70194759D01*
X154525842Y-70194088D01*
X154550914Y-70145301D01*
X154555872Y-70111507D01*
X154536227Y-70043441D01*
X154477300Y-70006383D01*
X154413231Y-69998896D01*
X154362483Y-70001601D01*
X154338450Y-70018792D01*
X154331151Y-70064082D01*
X154330650Y-70111507D01*
X154155477Y-70111507D01*
X154155477Y-69843769D01*
X154382883Y-69852515D01*
G37*
G36*
X150762670Y-69852589D02*
G01*
X150876736Y-69858152D01*
X150953127Y-69866668D01*
X151004220Y-69880992D01*
X151042389Y-69903983D01*
X151062966Y-69921928D01*
X151115189Y-69997768D01*
X151128240Y-70080791D01*
X151101822Y-70156506D01*
X151068497Y-70191211D01*
X151009496Y-70235716D01*
X151081009Y-70302518D01*
X151138917Y-70387782D01*
X151154987Y-70487321D01*
X151128725Y-70587210D01*
X151092993Y-70640879D01*
X151062857Y-70672489D01*
X151030228Y-70693245D01*
X150983711Y-70706040D01*
X150911912Y-70713765D01*
X150803438Y-70719311D01*
X150780185Y-70720259D01*
X150526906Y-70730432D01*
X150526906Y-70324216D01*
X150702078Y-70324216D01*
X150702078Y-70449340D01*
X150702078Y-70574463D01*
X150809684Y-70574463D01*
X150883425Y-70567858D01*
X150937517Y-70551342D01*
X150947320Y-70544433D01*
X150969886Y-70498205D01*
X150977349Y-70445215D01*
X150957862Y-70378092D01*
X150898321Y-70338118D01*
X150797114Y-70324244D01*
X150791310Y-70324216D01*
X150702078Y-70324216D01*
X150526906Y-70324216D01*
X150526906Y-70287174D01*
X150526906Y-70086482D01*
X150702078Y-70086482D01*
X150705996Y-70145200D01*
X150727730Y-70169282D01*
X150782256Y-70174061D01*
X150787618Y-70174069D01*
X150858462Y-70169750D01*
X150911564Y-70159317D01*
X150912741Y-70158879D01*
X150946563Y-70123814D01*
X150947376Y-70070894D01*
X150922295Y-70028926D01*
X150878873Y-70009159D01*
X150810658Y-69999186D01*
X150797172Y-69998896D01*
X150735200Y-70001969D01*
X150708467Y-70020265D01*
X150702186Y-70067404D01*
X150702078Y-70086482D01*
X150526906Y-70086482D01*
X150526906Y-69843917D01*
X150762670Y-69852589D01*
G37*
G36*
X152707347Y-72235905D02*
G01*
X152778010Y-72263045D01*
X152877261Y-72304039D01*
X152996630Y-72355421D01*
X153082780Y-72393544D01*
X153244249Y-72466745D01*
X153359962Y-72524787D01*
X153429958Y-72572700D01*
X153454278Y-72615515D01*
X153432962Y-72658261D01*
X153366050Y-72705968D01*
X153253581Y-72763668D01*
X153095597Y-72836389D01*
X153086345Y-72840582D01*
X152961881Y-72896046D01*
X152852182Y-72943186D01*
X152765876Y-72978429D01*
X152711589Y-72998202D01*
X152698463Y-73001190D01*
X152665801Y-72991047D01*
X152596131Y-72963443D01*
X152497878Y-72921910D01*
X152379467Y-72869980D01*
X152296308Y-72832607D01*
X152158133Y-72769362D01*
X152059463Y-72722143D01*
X151993940Y-72686937D01*
X151955207Y-72659730D01*
X151936907Y-72636508D01*
X151932699Y-72613349D01*
X152173246Y-72613349D01*
X152194679Y-72632761D01*
X152251427Y-72665901D01*
X152332446Y-72707642D01*
X152426691Y-72752856D01*
X152523117Y-72796417D01*
X152610676Y-72833196D01*
X152678326Y-72858068D01*
X152715019Y-72865904D01*
X152716561Y-72865553D01*
X152748689Y-72852390D01*
X152815899Y-72823662D01*
X152907468Y-72783980D01*
X152985576Y-72749851D01*
X153085257Y-72704857D01*
X153165154Y-72666331D01*
X153215825Y-72638984D01*
X153228984Y-72628426D01*
X153207272Y-72613273D01*
X153148543Y-72582605D01*
X153061686Y-72540842D01*
X152955593Y-72492402D01*
X152952596Y-72491066D01*
X152676790Y-72368162D01*
X152424914Y-72478554D01*
X152323314Y-72525177D01*
X152241371Y-72566767D01*
X152188442Y-72598311D01*
X152173246Y-72613349D01*
X151932699Y-72613349D01*
X151932683Y-72613259D01*
X151933451Y-72603540D01*
X151942017Y-72577155D01*
X151965509Y-72550603D01*
X152010591Y-72519783D01*
X152083926Y-72480597D01*
X152192180Y-72428946D01*
X152289954Y-72384241D01*
X152413493Y-72329267D01*
X152522507Y-72282597D01*
X152608184Y-72247864D01*
X152661714Y-72228699D01*
X152673742Y-72226088D01*
X152707347Y-72235905D01*
G37*
G36*
X152715444Y-71560663D02*
G01*
X152793654Y-71589814D01*
X152906114Y-71635530D01*
X153047292Y-71695460D01*
X153211659Y-71767255D01*
X153393686Y-71848567D01*
X153587841Y-71937047D01*
X153595761Y-71940692D01*
X153789064Y-72029411D01*
X153969192Y-72111513D01*
X154130823Y-72184618D01*
X154268638Y-72246343D01*
X154377314Y-72294306D01*
X154451533Y-72326125D01*
X154485974Y-72339417D01*
X154486642Y-72339570D01*
X154526144Y-72353351D01*
X154599492Y-72383993D01*
X154695433Y-72426653D01*
X154781094Y-72466276D01*
X154916889Y-72533698D01*
X155012529Y-72593411D01*
X155074903Y-72654779D01*
X155110903Y-72727165D01*
X155127420Y-72819935D01*
X155131344Y-72942244D01*
X155128124Y-73055894D01*
X155116561Y-73135904D01*
X155093610Y-73198399D01*
X155077554Y-73227074D01*
X155054577Y-73269522D01*
X155039563Y-73314810D01*
X155031148Y-73373989D01*
X155027967Y-73458113D01*
X155028656Y-73578236D01*
X155029320Y-73617814D01*
X155031095Y-73746380D01*
X155029909Y-73835317D01*
X155024202Y-73895023D01*
X155012416Y-73935899D01*
X154992994Y-73968345D01*
X154973156Y-73992615D01*
X154917046Y-74042910D01*
X154850921Y-74062480D01*
X154808774Y-74064261D01*
X154734894Y-74071683D01*
X154706288Y-74093388D01*
X154706019Y-74096478D01*
X154684336Y-74135367D01*
X154630589Y-74175255D01*
X154561731Y-74207032D01*
X154494715Y-74221586D01*
X154474541Y-74220887D01*
X154424855Y-74219205D01*
X154405724Y-74227674D01*
X154390381Y-74255533D01*
X154354700Y-74298414D01*
X154292587Y-74340161D01*
X154203236Y-74353173D01*
X154200118Y-74353182D01*
X154123459Y-74360896D01*
X154068213Y-74392286D01*
X154028951Y-74434168D01*
X153974961Y-74488157D01*
X153919345Y-74510060D01*
X153858212Y-74512449D01*
X153783526Y-74517701D01*
X153755382Y-74538810D01*
X153755083Y-74542258D01*
X153733585Y-74586476D01*
X153680339Y-74631372D01*
X153612220Y-74665759D01*
X153549587Y-74678502D01*
X153465636Y-74654251D01*
X153402814Y-74605353D01*
X153361785Y-74558628D01*
X153339643Y-74511217D01*
X153330656Y-74445127D01*
X153329108Y-74373875D01*
X153321891Y-74259216D01*
X153299888Y-74183297D01*
X153285315Y-74160066D01*
X153242078Y-74104586D01*
X152996268Y-74216372D01*
X152885999Y-74263039D01*
X152783751Y-74300151D01*
X152703203Y-74323060D01*
X152667183Y-74328157D01*
X152608022Y-74317766D01*
X152519071Y-74289919D01*
X152415273Y-74249608D01*
X152362729Y-74226455D01*
X152141550Y-74124753D01*
X152097479Y-74179178D01*
X152067454Y-74240987D01*
X152054396Y-74336440D01*
X152053408Y-74382904D01*
X152050315Y-74472092D01*
X152036848Y-74530493D01*
X152006730Y-74577199D01*
X151980260Y-74605353D01*
X151893405Y-74666403D01*
X151805298Y-74677446D01*
X151716451Y-74638494D01*
X151669858Y-74598212D01*
X151588083Y-74535585D01*
X151504950Y-74514509D01*
X151424653Y-74494715D01*
X151352520Y-74436149D01*
X151348899Y-74432139D01*
X151282100Y-74374241D01*
X151211436Y-74353698D01*
X151195130Y-74353182D01*
X151128086Y-74339473D01*
X151062317Y-74305669D01*
X151015140Y-74262751D01*
X151002374Y-74230940D01*
X150979995Y-74219464D01*
X150923259Y-74213405D01*
X150887609Y-74213147D01*
X150808527Y-74209199D01*
X150755669Y-74187124D01*
X150710673Y-74143282D01*
X150635119Y-74083288D01*
X150560728Y-74065689D01*
X150460788Y-74035443D01*
X150406089Y-73993543D01*
X150375096Y-73958934D01*
X150354911Y-73921787D01*
X150342669Y-73870157D01*
X150335509Y-73792098D01*
X150330678Y-73678862D01*
X150330313Y-73647961D01*
X150476857Y-73647961D01*
X150479147Y-73764144D01*
X150488283Y-73839042D01*
X150507661Y-73881304D01*
X150540679Y-73899576D01*
X150576955Y-73902739D01*
X150635723Y-73889355D01*
X150661864Y-73863155D01*
X150669832Y-73820175D01*
X150802177Y-73820175D01*
X150807008Y-73943797D01*
X150822825Y-74024034D01*
X150851617Y-74066736D01*
X150889763Y-74077911D01*
X150930154Y-74061862D01*
X150947320Y-74047881D01*
X150949379Y-74042873D01*
X151116231Y-74042873D01*
X151119068Y-74127984D01*
X151128571Y-74179670D01*
X151129959Y-74182610D01*
X151173506Y-74221430D01*
X151228325Y-74221914D01*
X151274010Y-74184472D01*
X151276764Y-74179655D01*
X151289252Y-74135917D01*
X151427793Y-74135917D01*
X151429800Y-74233928D01*
X151435142Y-74312011D01*
X151442802Y-74357216D01*
X151445625Y-74362672D01*
X151481662Y-74373633D01*
X151526955Y-74373099D01*
X151560477Y-74365723D01*
X151580859Y-74345759D01*
X151592873Y-74301873D01*
X151593200Y-74298803D01*
X151753113Y-74298803D01*
X151754371Y-74408034D01*
X151759342Y-74476972D01*
X151769819Y-74515338D01*
X151787596Y-74532850D01*
X151796906Y-74536129D01*
X151836151Y-74547203D01*
X151845168Y-74550476D01*
X151863786Y-74537654D01*
X151888961Y-74514054D01*
X151916832Y-74456746D01*
X151927998Y-74355657D01*
X151928285Y-74331269D01*
X151934840Y-74229071D01*
X151960045Y-74146858D01*
X152003359Y-74069429D01*
X152057221Y-73972157D01*
X152076277Y-73901373D01*
X152062041Y-73849129D01*
X152048404Y-73832670D01*
X151993175Y-73801727D01*
X151934870Y-73818036D01*
X151871725Y-73882469D01*
X151834443Y-73938490D01*
X151795139Y-74007217D01*
X151771043Y-74065152D01*
X151758471Y-74128621D01*
X151753737Y-74213949D01*
X151753113Y-74298803D01*
X151593200Y-74298803D01*
X151601291Y-74222731D01*
X151603820Y-74190522D01*
X151617500Y-74077641D01*
X151643254Y-73990265D01*
X151688773Y-73904042D01*
X151699866Y-73886442D01*
X151745566Y-73810082D01*
X151764908Y-73759770D01*
X151761998Y-73721844D01*
X151754436Y-73705014D01*
X151709419Y-73656148D01*
X151653559Y-73655213D01*
X151588408Y-73701650D01*
X151518922Y-73789743D01*
X151473764Y-73860946D01*
X151446665Y-73918347D01*
X151433037Y-73979376D01*
X151428290Y-74061465D01*
X151427793Y-74135917D01*
X151289252Y-74135917D01*
X151291707Y-74127318D01*
X151301120Y-74047441D01*
X151302777Y-73998226D01*
X151310846Y-73897547D01*
X151340991Y-73813741D01*
X151377743Y-73752591D01*
X151434936Y-73647554D01*
X151449538Y-73568374D01*
X151421588Y-73514684D01*
X151404413Y-73503225D01*
X151356699Y-73482963D01*
X151319192Y-73486695D01*
X151281094Y-73520620D01*
X151231606Y-73590934D01*
X151219907Y-73609103D01*
X151173776Y-73688696D01*
X151145506Y-73762490D01*
X151128991Y-73850771D01*
X151120621Y-73939024D01*
X151116231Y-74042873D01*
X150949379Y-74042873D01*
X150963877Y-74007613D01*
X150974783Y-73935626D01*
X150977349Y-73875741D01*
X150982542Y-73784255D01*
X151002792Y-73707303D01*
X151045106Y-73621871D01*
X151064877Y-73588277D01*
X151110838Y-73508528D01*
X151132545Y-73457475D01*
X151133507Y-73422175D01*
X151118314Y-73391304D01*
X151071193Y-73340659D01*
X151022433Y-73333738D01*
X150968213Y-73371943D01*
X150904714Y-73456676D01*
X150894048Y-73473657D01*
X150846998Y-73553891D01*
X150819497Y-73617918D01*
X150806352Y-73685326D01*
X150802369Y-73775706D01*
X150802177Y-73820175D01*
X150669832Y-73820175D01*
X150670508Y-73816528D01*
X150676010Y-73740533D01*
X150677054Y-73688852D01*
X150685014Y-73587190D01*
X150714734Y-73501019D01*
X150752128Y-73435753D01*
X150804713Y-73342693D01*
X150824648Y-73276534D01*
X150813777Y-73227909D01*
X150797172Y-73207054D01*
X150742524Y-73174877D01*
X150685067Y-73187655D01*
X150622006Y-73246821D01*
X150568000Y-73324688D01*
X150518132Y-73410989D01*
X150490656Y-73480380D01*
X150479071Y-73555924D01*
X150476857Y-73647961D01*
X150330313Y-73647961D01*
X150329372Y-73568321D01*
X150332832Y-73473485D01*
X150340348Y-73407592D01*
X150346373Y-73387690D01*
X150353616Y-73351103D01*
X150329927Y-73307313D01*
X150289799Y-73263570D01*
X150218829Y-73159285D01*
X150181077Y-73029202D01*
X150178275Y-72897182D01*
X150324679Y-72897182D01*
X150329497Y-72999521D01*
X150353317Y-73091350D01*
X150378575Y-73136113D01*
X150428831Y-73188361D01*
X150470453Y-73195536D01*
X150516297Y-73157762D01*
X150532847Y-73137618D01*
X150615413Y-73068056D01*
X150712142Y-73041040D01*
X150811022Y-73056456D01*
X150900039Y-73114191D01*
X150924254Y-73141299D01*
X150992935Y-73192754D01*
X151048898Y-73202049D01*
X151136216Y-73225355D01*
X151211260Y-73277123D01*
X151275301Y-73323239D01*
X151334376Y-73349716D01*
X151351009Y-73352197D01*
X151420856Y-73365860D01*
X151493291Y-73399519D01*
X151547580Y-73442177D01*
X151561610Y-73463882D01*
X151595171Y-73492949D01*
X151640959Y-73502344D01*
X151725082Y-73518297D01*
X151808173Y-73558568D01*
X151868400Y-73611778D01*
X151877167Y-73625469D01*
X151918459Y-73660966D01*
X151950059Y-73660593D01*
X152014741Y-73664976D01*
X152091546Y-73698908D01*
X152161850Y-73752452D01*
X152193655Y-73790601D01*
X152223011Y-73874529D01*
X152222760Y-73931050D01*
X152219379Y-73969277D01*
X152228050Y-73998151D01*
X152256998Y-74025234D01*
X152314447Y-74058091D01*
X152408620Y-74104285D01*
X152413854Y-74106799D01*
X152522972Y-74156326D01*
X152608822Y-74184059D01*
X152685713Y-74189555D01*
X152767954Y-74172371D01*
X152869855Y-74132062D01*
X152960551Y-74089846D01*
X153055436Y-74042950D01*
X153113287Y-74008346D01*
X153143034Y-73978516D01*
X153153606Y-73945945D01*
X153154492Y-73926614D01*
X153161798Y-73886411D01*
X153307389Y-73886411D01*
X153323833Y-73964574D01*
X153377183Y-74061717D01*
X153378108Y-74063065D01*
X153427452Y-74146593D01*
X153450022Y-74225425D01*
X153454788Y-74311851D01*
X153457453Y-74396264D01*
X153464284Y-74463869D01*
X153469977Y-74488771D01*
X153502730Y-74516991D01*
X153557391Y-74527873D01*
X153610590Y-74520259D01*
X153637741Y-74497074D01*
X153641878Y-74458561D01*
X153642119Y-74384530D01*
X153638504Y-74289353D01*
X153637107Y-74265596D01*
X153627507Y-74155521D01*
X153611408Y-74075889D01*
X153583001Y-74007100D01*
X153538377Y-73932480D01*
X153486939Y-73858349D01*
X153447983Y-73819340D01*
X153410420Y-73806425D01*
X153384693Y-73807357D01*
X153327719Y-73832310D01*
X153307389Y-73886411D01*
X153161798Y-73886411D01*
X153175437Y-73811357D01*
X153218038Y-73746624D01*
X153609288Y-73746624D01*
X153628597Y-73804891D01*
X153678872Y-73889164D01*
X153692522Y-73909648D01*
X153743530Y-73992509D01*
X153769907Y-74061959D01*
X153779341Y-74142805D01*
X153780108Y-74192273D01*
X153782610Y-74289247D01*
X153793562Y-74345710D01*
X153818137Y-74371093D01*
X153861507Y-74374827D01*
X153879270Y-74373099D01*
X153909819Y-74367256D01*
X153928996Y-74351674D01*
X153939978Y-74316231D01*
X153945942Y-74250803D01*
X153949983Y-74147788D01*
X153952566Y-74041444D01*
X153949245Y-73968899D01*
X153936199Y-73913945D01*
X153909603Y-73860374D01*
X153866284Y-73792955D01*
X153804421Y-73705482D01*
X153757536Y-73657119D01*
X153717122Y-73642779D01*
X153674675Y-73657375D01*
X153657858Y-73668311D01*
X153619518Y-73704414D01*
X153609288Y-73746624D01*
X153218038Y-73746624D01*
X153233805Y-73722665D01*
X153322896Y-73667601D01*
X153414589Y-73652492D01*
X153475860Y-73634990D01*
X153509674Y-73606414D01*
X153556955Y-73564349D01*
X153932747Y-73564349D01*
X153945753Y-73642268D01*
X153999891Y-73744320D01*
X154005330Y-73752591D01*
X154055228Y-73841847D01*
X154076940Y-73927956D01*
X154080296Y-73998226D01*
X154085120Y-74083753D01*
X154097307Y-74154530D01*
X154106309Y-74179655D01*
X154150801Y-74220614D01*
X154206039Y-74222212D01*
X154252003Y-74184411D01*
X154254540Y-74179945D01*
X154266562Y-74126196D01*
X154269193Y-74034286D01*
X154263856Y-73935955D01*
X154251310Y-73824553D01*
X154231685Y-73742768D01*
X154198520Y-73670169D01*
X154160370Y-73608699D01*
X154094226Y-73522779D01*
X154038175Y-73482701D01*
X153988024Y-73486342D01*
X153960285Y-73507349D01*
X153932747Y-73564349D01*
X153556955Y-73564349D01*
X153585375Y-73539064D01*
X153684111Y-73504611D01*
X153716254Y-73502344D01*
X153785290Y-73480049D01*
X153846404Y-73428510D01*
X154239141Y-73428510D01*
X154245063Y-73469179D01*
X154273337Y-73525114D01*
X154314314Y-73589122D01*
X154366579Y-73674557D01*
X154394256Y-73744182D01*
X154404683Y-73820731D01*
X154405724Y-73872324D01*
X154414850Y-73985631D01*
X154442629Y-74053663D01*
X154489658Y-74077825D01*
X154493310Y-74077911D01*
X154533701Y-74061862D01*
X154550867Y-74047881D01*
X154567150Y-74005750D01*
X154577569Y-73923293D01*
X154580896Y-73820175D01*
X154579022Y-73715848D01*
X154569963Y-73641984D01*
X154548559Y-73579040D01*
X154509652Y-73507471D01*
X154489753Y-73474836D01*
X154419088Y-73378263D01*
X154356213Y-73329227D01*
X154302209Y-73328115D01*
X154258158Y-73375316D01*
X154251215Y-73389310D01*
X154239141Y-73428510D01*
X153846404Y-73428510D01*
X153849278Y-73426086D01*
X153921476Y-73366751D01*
X154007255Y-73344310D01*
X154013857Y-73343843D01*
X154092842Y-73327207D01*
X154133968Y-73294977D01*
X154170951Y-73256923D01*
X154558343Y-73256923D01*
X154575199Y-73336160D01*
X154631677Y-73441420D01*
X154641921Y-73456922D01*
X154693096Y-73539459D01*
X154719940Y-73607770D01*
X154729969Y-73686238D01*
X154731044Y-73746001D01*
X154731974Y-73831376D01*
X154738320Y-73878249D01*
X154755414Y-73898164D01*
X154788589Y-73902667D01*
X154803440Y-73902739D01*
X154864392Y-73889602D01*
X154891027Y-73863155D01*
X154898642Y-73819248D01*
X154904092Y-73741909D01*
X154906216Y-73647746D01*
X154906216Y-73646191D01*
X154903655Y-73546400D01*
X154891675Y-73474321D01*
X154863829Y-73407705D01*
X154813672Y-73324303D01*
X154812374Y-73322274D01*
X154759968Y-73244304D01*
X154721428Y-73200989D01*
X154685979Y-73183422D01*
X154643458Y-73182638D01*
X154581098Y-73205239D01*
X154558343Y-73256923D01*
X154170951Y-73256923D01*
X154184531Y-73242950D01*
X154259956Y-73202753D01*
X154337251Y-73184886D01*
X154369180Y-73187550D01*
X154418716Y-73187756D01*
X154443332Y-73151775D01*
X154482353Y-73098957D01*
X154553010Y-73054823D01*
X154636908Y-73029485D01*
X154670541Y-73026876D01*
X154744864Y-73050905D01*
X154819129Y-73113273D01*
X154869518Y-73164063D01*
X154900096Y-73182122D01*
X154924355Y-73172083D01*
X154940951Y-73155096D01*
X154966571Y-73099942D01*
X154980802Y-73015003D01*
X154983779Y-72917110D01*
X154975635Y-72823095D01*
X154956505Y-72749791D01*
X154937497Y-72720547D01*
X154904426Y-72700742D01*
X154831660Y-72663228D01*
X154724628Y-72610507D01*
X154588760Y-72545082D01*
X154429486Y-72469454D01*
X154252237Y-72386126D01*
X154062441Y-72297600D01*
X153865529Y-72206378D01*
X153666931Y-72114963D01*
X153472076Y-72025857D01*
X153286395Y-71941562D01*
X153115317Y-71864580D01*
X152964273Y-71797414D01*
X152838691Y-71742566D01*
X152744003Y-71702538D01*
X152685637Y-71679832D01*
X152669848Y-71675546D01*
X152635209Y-71685915D01*
X152560841Y-71715350D01*
X152452179Y-71761340D01*
X152314654Y-71821378D01*
X152153700Y-71892953D01*
X151974748Y-71973558D01*
X151783232Y-72060683D01*
X151584585Y-72151818D01*
X151384239Y-72244456D01*
X151187627Y-72336086D01*
X151000182Y-72424200D01*
X150827336Y-72506289D01*
X150674522Y-72579843D01*
X150547173Y-72642354D01*
X150450721Y-72691312D01*
X150390600Y-72724209D01*
X150373086Y-72736288D01*
X150339123Y-72803161D01*
X150324679Y-72897182D01*
X150178275Y-72897182D01*
X150178043Y-72886237D01*
X150211230Y-72743308D01*
X150225359Y-72709103D01*
X150251089Y-72659607D01*
X150283031Y-72620316D01*
X150331121Y-72583631D01*
X150405296Y-72541952D01*
X150513888Y-72488451D01*
X150617708Y-72439777D01*
X150708186Y-72399471D01*
X150773746Y-72372571D01*
X150799150Y-72364307D01*
X150831207Y-72352273D01*
X150903509Y-72321643D01*
X151010834Y-72274740D01*
X151147958Y-72213883D01*
X151309659Y-72141393D01*
X151490712Y-72059590D01*
X151685894Y-71970797D01*
X151724672Y-71953087D01*
X151923115Y-71863220D01*
X152109614Y-71780334D01*
X152278753Y-71706720D01*
X152425120Y-71644664D01*
X152543300Y-71596458D01*
X152627881Y-71564388D01*
X152673447Y-71550746D01*
X152677012Y-71550423D01*
X152715444Y-71560663D01*
G37*
D12*
%TO.C,J103*%
X144907000Y-107442000D02*
X144907000Y-106680000D01*
X145312000Y-100509000D02*
X145312000Y-107009000D01*
X145312000Y-107009000D02*
X153392000Y-107009000D01*
X145669000Y-107442000D02*
X144907000Y-107442000D01*
X153392000Y-100509000D02*
X145312000Y-100509000D01*
X153392000Y-107009000D02*
X153392000Y-100509000D01*
D11*
%TO.C,U401*%
X114001400Y-93021000D02*
X114001400Y-92296000D01*
X114726400Y-87801000D02*
X114001400Y-87801000D01*
X114726400Y-93021000D02*
X114001400Y-93021000D01*
X118496400Y-87801000D02*
X119221400Y-87801000D01*
X118496400Y-93021000D02*
X119221400Y-93021000D01*
X119221400Y-87801000D02*
X119221400Y-88526000D01*
X119221400Y-93021000D02*
X119221400Y-92296000D01*
%TO.C,R202*%
X101459420Y-83818000D02*
X101740580Y-83818000D01*
X101459420Y-84838000D02*
X101740580Y-84838000D01*
%TO.C,C104*%
X119139580Y-82171000D02*
X118858420Y-82171000D01*
X119139580Y-81151000D02*
X118858420Y-81151000D01*
%TO.C,U104*%
X147320000Y-87721000D02*
X145520000Y-87721000D01*
X147320000Y-87721000D02*
X148120000Y-87721000D01*
X147320000Y-90841000D02*
X146520000Y-90841000D01*
X147320000Y-90841000D02*
X148120000Y-90841000D01*
%TO.C,LED103*%
X109992500Y-70639000D02*
X109992500Y-72109000D01*
X109992500Y-72109000D02*
X112277500Y-72109000D01*
X112277500Y-70639000D02*
X109992500Y-70639000D01*
%TO.C,R102*%
X150734500Y-82152258D02*
X150734500Y-81677742D01*
X151779500Y-82152258D02*
X151779500Y-81677742D01*
%TO.C,C302*%
X110732180Y-77573600D02*
X110451020Y-77573600D01*
X110732180Y-76553600D02*
X110451020Y-76553600D01*
%TO.C,SW103*%
X107698000Y-103475000D02*
X107698000Y-106075000D01*
X107768000Y-102095000D02*
X114228000Y-102095000D01*
X107768000Y-102125000D02*
X107768000Y-102095000D01*
X107768000Y-107475000D02*
X107768000Y-107445000D01*
X107768000Y-107475000D02*
X114228000Y-107475000D01*
X114228000Y-102095000D02*
X114228000Y-102125000D01*
X114228000Y-107475000D02*
X114228000Y-107445000D01*
X114298000Y-103475000D02*
X114298000Y-106075000D01*
%TO.C,R401*%
X121549900Y-85808462D02*
X121549900Y-85333946D01*
X122594900Y-85808462D02*
X122594900Y-85333946D01*
%TO.C,U103*%
X124028500Y-69123000D02*
X124028500Y-75538000D01*
X124028500Y-69123000D02*
X142268500Y-69123000D01*
X124028500Y-75538000D02*
X123648500Y-75538000D01*
X124028500Y-94083000D02*
X124028500Y-94863000D01*
X124028500Y-94863000D02*
X125028500Y-94863000D01*
X142268500Y-69123000D02*
X142268500Y-75538000D01*
X142268500Y-94083000D02*
X142268500Y-94863000D01*
X142268500Y-94863000D02*
X141268500Y-94863000D01*
%TO.C,R104*%
X114855258Y-75325500D02*
X114380742Y-75325500D01*
X114855258Y-74280500D02*
X114380742Y-74280500D01*
%TD*%
%LPC*%
D13*
%TO.C,J105*%
X100711000Y-77978000D03*
X101981000Y-77978000D03*
X100711000Y-79248000D03*
X101981000Y-79248000D03*
X100711000Y-80518000D03*
X101981000Y-80518000D03*
D14*
X100331000Y-76708000D03*
X102361000Y-76708000D03*
X101346000Y-81788000D03*
%TD*%
D15*
%TO.C,J201*%
X103856000Y-87783000D03*
D16*
X103856000Y-93563000D03*
D17*
X105006000Y-87323000D03*
X105006000Y-88123000D03*
X105006000Y-89423000D03*
X105006000Y-90423000D03*
X105006000Y-90923000D03*
X105006000Y-91923000D03*
X105006000Y-93223000D03*
X105006000Y-94023000D03*
X105006000Y-93723000D03*
X105006000Y-92923000D03*
X105006000Y-92423000D03*
X105006000Y-91423000D03*
X105006000Y-89923000D03*
X105006000Y-88923000D03*
X105006000Y-88423000D03*
X105006000Y-87623000D03*
D18*
X104431000Y-86348000D03*
D19*
X100156000Y-86348000D03*
D18*
X104431000Y-94998000D03*
D19*
X100156000Y-94998000D03*
%TD*%
D20*
%TO.C,R101*%
X118174000Y-80137000D03*
X119824000Y-80137000D03*
%TD*%
D21*
%TO.C,C403*%
X114935000Y-94729000D03*
X114935000Y-96279000D03*
%TD*%
D22*
%TO.C,D201*%
X110097000Y-89678000D03*
D23*
X108397000Y-89678000D03*
X108397000Y-91678000D03*
X110297000Y-91678000D03*
%TD*%
D21*
%TO.C,C301*%
X105664000Y-77304600D03*
X105664000Y-78854600D03*
%TD*%
D24*
%TO.C,LED102*%
X110715000Y-73025000D03*
X112290000Y-73025000D03*
%TD*%
D21*
%TO.C,C107*%
X115697000Y-102984000D03*
X115697000Y-104534000D03*
%TD*%
D25*
%TO.C,SW101*%
X110495000Y-97536000D03*
D26*
X107955000Y-97536000D03*
%TD*%
D27*
%TO.C,C102*%
X119761000Y-78626000D03*
X119761000Y-77076000D03*
%TD*%
D21*
%TO.C,C402*%
X113411000Y-94729000D03*
X113411000Y-96279000D03*
%TD*%
D24*
%TO.C,LED101*%
X112290000Y-74803000D03*
X110715000Y-74803000D03*
%TD*%
D28*
%TO.C,R107*%
X115452000Y-71374000D03*
X113802000Y-71374000D03*
%TD*%
D29*
%TO.C,J104*%
X136271000Y-103759000D03*
D30*
X138811000Y-103759000D03*
X141351000Y-103759000D03*
%TD*%
D31*
%TO.C,U106*%
X126238000Y-104013000D03*
D32*
X128778000Y-104013000D03*
X131318000Y-104013000D03*
%TD*%
D29*
%TO.C,J102*%
X158623000Y-95377000D03*
D30*
X158623000Y-92837000D03*
X158623000Y-90297000D03*
%TD*%
D33*
%TO.C,H104*%
X101600000Y-104267000D03*
%TD*%
D28*
%TO.C,R105*%
X113793000Y-73025000D03*
X115443000Y-73025000D03*
%TD*%
D29*
%TO.C,J101*%
X158623000Y-84836000D03*
D30*
X158623000Y-82296000D03*
X158623000Y-79756000D03*
%TD*%
D34*
%TO.C,R108*%
X151384000Y-92139000D03*
X151384000Y-93789000D03*
%TD*%
D35*
%TO.C,R103*%
X151257000Y-86423000D03*
X151257000Y-84773000D03*
%TD*%
D27*
%TO.C,C101*%
X118237000Y-78626000D03*
X118237000Y-77076000D03*
%TD*%
D35*
%TO.C,R106*%
X151384000Y-90106000D03*
X151384000Y-88456000D03*
%TD*%
D27*
%TO.C,C202*%
X107188000Y-78854600D03*
X107188000Y-77304600D03*
%TD*%
D36*
%TO.C,U101*%
X146182500Y-80965000D03*
X146182500Y-81915000D03*
X146182500Y-82865000D03*
X148457500Y-82865000D03*
X148457500Y-80965000D03*
%TD*%
%TO.C,U102*%
X146182500Y-84648000D03*
X146182500Y-85598000D03*
X146182500Y-86548000D03*
X148457500Y-86548000D03*
X148457500Y-84648000D03*
%TD*%
D21*
%TO.C,C401*%
X111861600Y-92468400D03*
X111861600Y-94018400D03*
%TD*%
D33*
%TO.C,H103*%
X159000000Y-104267000D03*
%TD*%
D37*
%TO.C,Q401*%
X119187200Y-86485204D03*
X119837200Y-86485204D03*
X120487200Y-86485204D03*
X120487200Y-84585204D03*
X119837200Y-84585204D03*
X119187200Y-84585204D03*
%TD*%
D33*
%TO.C,H101*%
X101600000Y-72136000D03*
%TD*%
D38*
%TO.C,C201*%
X106868000Y-84074000D03*
X104968000Y-84074000D03*
%TD*%
D39*
%TO.C,SW105*%
X117396000Y-102900000D03*
X123396000Y-102900000D03*
X117396000Y-106650000D03*
X123396000Y-106650000D03*
%TD*%
D40*
%TO.C,F201*%
X110413900Y-82245200D03*
X108838900Y-82245200D03*
%TD*%
D21*
%TO.C,C106*%
X106299000Y-102984000D03*
X106299000Y-104534000D03*
%TD*%
D36*
%TO.C,U105*%
X146182500Y-92014000D03*
X146182500Y-92964000D03*
X146182500Y-93914000D03*
X148457500Y-93914000D03*
X148457500Y-92014000D03*
%TD*%
D41*
%TO.C,FB201*%
X106781600Y-82192500D03*
X106781600Y-80367500D03*
%TD*%
D42*
%TO.C,R201*%
X103899000Y-97028000D03*
X102349000Y-97028000D03*
%TD*%
D34*
%TO.C,R402*%
X117602000Y-84761004D03*
X117602000Y-86411004D03*
%TD*%
D36*
%TO.C,U301*%
X109352500Y-78745000D03*
X109352500Y-79695000D03*
X109352500Y-80645000D03*
X111627500Y-80645000D03*
X111627500Y-78745000D03*
%TD*%
D29*
%TO.C,J103*%
X146812000Y-103759000D03*
D30*
X149352000Y-103759000D03*
X151892000Y-103759000D03*
%TD*%
D43*
%TO.C,U401*%
X114161400Y-88911000D03*
X114161400Y-89411000D03*
X114161400Y-89911000D03*
X114161400Y-90411000D03*
X114161400Y-90911000D03*
X114161400Y-91411000D03*
X114161400Y-91911000D03*
D44*
X115111400Y-92861000D03*
X115611400Y-92861000D03*
X116111400Y-92861000D03*
X116611400Y-92861000D03*
X117111400Y-92861000D03*
X117611400Y-92861000D03*
X118111400Y-92861000D03*
D43*
X119061400Y-91911000D03*
X119061400Y-91411000D03*
X119061400Y-90911000D03*
X119061400Y-90411000D03*
X119061400Y-89911000D03*
X119061400Y-89411000D03*
X119061400Y-88911000D03*
D44*
X118111400Y-87961000D03*
X117611400Y-87961000D03*
X117111400Y-87961000D03*
X116611400Y-87961000D03*
X116111400Y-87961000D03*
X115611400Y-87961000D03*
X115111400Y-87961000D03*
D45*
X116611400Y-90411000D03*
%TD*%
D46*
%TO.C,R202*%
X100825000Y-84328000D03*
X102375000Y-84328000D03*
%TD*%
D42*
%TO.C,C104*%
X119774000Y-81661000D03*
X118224000Y-81661000D03*
%TD*%
D36*
%TO.C,U104*%
X146182500Y-88331000D03*
X146182500Y-89281000D03*
X146182500Y-90231000D03*
X148457500Y-90231000D03*
X148457500Y-88331000D03*
%TD*%
D24*
%TO.C,LED103*%
X110690000Y-71374000D03*
X112265000Y-71374000D03*
%TD*%
D35*
%TO.C,R102*%
X151257000Y-82740000D03*
X151257000Y-81090000D03*
%TD*%
D42*
%TO.C,C302*%
X111366600Y-77063600D03*
X109816600Y-77063600D03*
%TD*%
D39*
%TO.C,SW103*%
X107998000Y-102900000D03*
X113998000Y-102900000D03*
X107998000Y-106650000D03*
X113998000Y-106650000D03*
%TD*%
D33*
%TO.C,H102*%
X159000000Y-72136000D03*
%TD*%
D35*
%TO.C,R401*%
X122072400Y-86396204D03*
X122072400Y-84746204D03*
%TD*%
D47*
%TO.C,U103*%
X124398500Y-76733000D03*
X124398500Y-78003000D03*
X124398500Y-79273000D03*
X124398500Y-80543000D03*
X124398500Y-81813000D03*
X124398500Y-83083000D03*
X124398500Y-84353000D03*
X124398500Y-85623000D03*
X124398500Y-86893000D03*
X124398500Y-88163000D03*
X124398500Y-89433000D03*
X124398500Y-90703000D03*
X124398500Y-91973000D03*
X124398500Y-93243000D03*
D48*
X127438500Y-94493000D03*
X128708500Y-94493000D03*
X129978500Y-94493000D03*
X131248500Y-94493000D03*
X132518500Y-94493000D03*
X133788500Y-94493000D03*
X135058500Y-94493000D03*
X136328500Y-94493000D03*
X137598500Y-94493000D03*
X138868500Y-94493000D03*
D47*
X141898500Y-93243000D03*
X141898500Y-91973000D03*
X141898500Y-90703000D03*
X141898500Y-89433000D03*
X141898500Y-88163000D03*
X141898500Y-86893000D03*
X141898500Y-85623000D03*
X141898500Y-84353000D03*
X141898500Y-83083000D03*
X141898500Y-81813000D03*
X141898500Y-80543000D03*
X141898500Y-79273000D03*
X141898500Y-78003000D03*
X141898500Y-76733000D03*
D49*
X130943500Y-83310500D03*
X130943500Y-84835500D03*
X131706000Y-82548000D03*
X131706000Y-84073000D03*
X131706000Y-85598000D03*
X132468500Y-83310500D03*
D50*
X132468500Y-84073000D03*
D49*
X132468500Y-84835500D03*
X133231000Y-82548000D03*
X133231000Y-84073000D03*
X133231000Y-85598000D03*
X133993500Y-83310500D03*
X133993500Y-84835500D03*
%TD*%
D28*
%TO.C,R104*%
X115443000Y-74803000D03*
X113793000Y-74803000D03*
%TD*%
%LPD*%
M02*
