%TF.GenerationSoftware,KiCad,Pcbnew,7.0.9*%
%TF.CreationDate,2024-01-15T18:06:47-05:00*%
%TF.ProjectId,wled-esp32-control-board,776c6564-2d65-4737-9033-322d636f6e74,C*%
%TF.SameCoordinates,Original*%
%TF.FileFunction,Other,Comment*%
%FSLAX46Y46*%
G04 Gerber Fmt 4.6, Leading zero omitted, Abs format (unit mm)*
G04 Created by KiCad (PCBNEW 7.0.9) date 2024-01-15 18:06:47*
%MOMM*%
%LPD*%
G01*
G04 APERTURE LIST*
%ADD10C,0.150000*%
%ADD11C,0.050000*%
%ADD12C,0.080000*%
%ADD13C,0.100000*%
G04 APERTURE END LIST*
D10*
X70066819Y15018335D02*
X70066819Y15637382D01*
X70066819Y15637382D02*
X70447771Y15304049D01*
X70447771Y15304049D02*
X70447771Y15446906D01*
X70447771Y15446906D02*
X70495390Y15542144D01*
X70495390Y15542144D02*
X70543009Y15589763D01*
X70543009Y15589763D02*
X70638247Y15637382D01*
X70638247Y15637382D02*
X70876342Y15637382D01*
X70876342Y15637382D02*
X70971580Y15589763D01*
X70971580Y15589763D02*
X71019200Y15542144D01*
X71019200Y15542144D02*
X71066819Y15446906D01*
X71066819Y15446906D02*
X71066819Y15161192D01*
X71066819Y15161192D02*
X71019200Y15065954D01*
X71019200Y15065954D02*
X70971580Y15018335D01*
X71066819Y16113573D02*
X71066819Y16304049D01*
X71066819Y16304049D02*
X71019200Y16399287D01*
X71019200Y16399287D02*
X70971580Y16446906D01*
X70971580Y16446906D02*
X70828723Y16542144D01*
X70828723Y16542144D02*
X70638247Y16589763D01*
X70638247Y16589763D02*
X70257295Y16589763D01*
X70257295Y16589763D02*
X70162057Y16542144D01*
X70162057Y16542144D02*
X70114438Y16494525D01*
X70114438Y16494525D02*
X70066819Y16399287D01*
X70066819Y16399287D02*
X70066819Y16208811D01*
X70066819Y16208811D02*
X70114438Y16113573D01*
X70114438Y16113573D02*
X70162057Y16065954D01*
X70162057Y16065954D02*
X70257295Y16018335D01*
X70257295Y16018335D02*
X70495390Y16018335D01*
X70495390Y16018335D02*
X70590628Y16065954D01*
X70590628Y16065954D02*
X70638247Y16113573D01*
X70638247Y16113573D02*
X70685866Y16208811D01*
X70685866Y16208811D02*
X70685866Y16399287D01*
X70685866Y16399287D02*
X70638247Y16494525D01*
X70638247Y16494525D02*
X70590628Y16542144D01*
X70590628Y16542144D02*
X70495390Y16589763D01*
X70971580Y17018335D02*
X71019200Y17065954D01*
X71019200Y17065954D02*
X71066819Y17018335D01*
X71066819Y17018335D02*
X71019200Y16970716D01*
X71019200Y16970716D02*
X70971580Y17018335D01*
X70971580Y17018335D02*
X71066819Y17018335D01*
X70400152Y17923096D02*
X71066819Y17923096D01*
X70019200Y17685001D02*
X70733485Y17446906D01*
X70733485Y17446906D02*
X70733485Y18065953D01*
X71066819Y18494525D02*
X71066819Y18685001D01*
X71066819Y18685001D02*
X71019200Y18780239D01*
X71019200Y18780239D02*
X70971580Y18827858D01*
X70971580Y18827858D02*
X70828723Y18923096D01*
X70828723Y18923096D02*
X70638247Y18970715D01*
X70638247Y18970715D02*
X70257295Y18970715D01*
X70257295Y18970715D02*
X70162057Y18923096D01*
X70162057Y18923096D02*
X70114438Y18875477D01*
X70114438Y18875477D02*
X70066819Y18780239D01*
X70066819Y18780239D02*
X70066819Y18589763D01*
X70066819Y18589763D02*
X70114438Y18494525D01*
X70114438Y18494525D02*
X70162057Y18446906D01*
X70162057Y18446906D02*
X70257295Y18399287D01*
X70257295Y18399287D02*
X70495390Y18399287D01*
X70495390Y18399287D02*
X70590628Y18446906D01*
X70590628Y18446906D02*
X70638247Y18494525D01*
X70638247Y18494525D02*
X70685866Y18589763D01*
X70685866Y18589763D02*
X70685866Y18780239D01*
X70685866Y18780239D02*
X70638247Y18875477D01*
X70638247Y18875477D02*
X70590628Y18923096D01*
X70590628Y18923096D02*
X70495390Y18970715D01*
X70066819Y19304049D02*
X70066819Y19970715D01*
X70066819Y19970715D02*
X71066819Y19542144D01*
X70066819Y20542144D02*
X70066819Y20637382D01*
X70066819Y20637382D02*
X70114438Y20732620D01*
X70114438Y20732620D02*
X70162057Y20780239D01*
X70162057Y20780239D02*
X70257295Y20827858D01*
X70257295Y20827858D02*
X70447771Y20875477D01*
X70447771Y20875477D02*
X70685866Y20875477D01*
X70685866Y20875477D02*
X70876342Y20827858D01*
X70876342Y20827858D02*
X70971580Y20780239D01*
X70971580Y20780239D02*
X71019200Y20732620D01*
X71019200Y20732620D02*
X71066819Y20637382D01*
X71066819Y20637382D02*
X71066819Y20542144D01*
X71066819Y20542144D02*
X71019200Y20446906D01*
X71019200Y20446906D02*
X70971580Y20399287D01*
X70971580Y20399287D02*
X70876342Y20351668D01*
X70876342Y20351668D02*
X70685866Y20304049D01*
X70685866Y20304049D02*
X70447771Y20304049D01*
X70447771Y20304049D02*
X70257295Y20351668D01*
X70257295Y20351668D02*
X70162057Y20399287D01*
X70162057Y20399287D02*
X70114438Y20446906D01*
X70114438Y20446906D02*
X70066819Y20542144D01*
X71066819Y22065954D02*
X70400152Y22065954D01*
X70495390Y22065954D02*
X70447771Y22113573D01*
X70447771Y22113573D02*
X70400152Y22208811D01*
X70400152Y22208811D02*
X70400152Y22351668D01*
X70400152Y22351668D02*
X70447771Y22446906D01*
X70447771Y22446906D02*
X70543009Y22494525D01*
X70543009Y22494525D02*
X71066819Y22494525D01*
X70543009Y22494525D02*
X70447771Y22542144D01*
X70447771Y22542144D02*
X70400152Y22637382D01*
X70400152Y22637382D02*
X70400152Y22780239D01*
X70400152Y22780239D02*
X70447771Y22875478D01*
X70447771Y22875478D02*
X70543009Y22923097D01*
X70543009Y22923097D02*
X71066819Y22923097D01*
X71066819Y23399287D02*
X70400152Y23399287D01*
X70495390Y23399287D02*
X70447771Y23446906D01*
X70447771Y23446906D02*
X70400152Y23542144D01*
X70400152Y23542144D02*
X70400152Y23685001D01*
X70400152Y23685001D02*
X70447771Y23780239D01*
X70447771Y23780239D02*
X70543009Y23827858D01*
X70543009Y23827858D02*
X71066819Y23827858D01*
X70543009Y23827858D02*
X70447771Y23875477D01*
X70447771Y23875477D02*
X70400152Y23970715D01*
X70400152Y23970715D02*
X70400152Y24113572D01*
X70400152Y24113572D02*
X70447771Y24208811D01*
X70447771Y24208811D02*
X70543009Y24256430D01*
X70543009Y24256430D02*
X71066819Y24256430D01*
X62857000Y0D02*
X69674420Y0D01*
X62857000Y39497000D02*
X69674420Y39497000D01*
X69088000Y0D02*
X69088000Y39497000D01*
X69088000Y0D02*
X69088000Y39497000D01*
X69088000Y0D02*
X68501579Y1126504D01*
X69088000Y0D02*
X69674421Y1126504D01*
X69088000Y39497000D02*
X69674421Y38370496D01*
X69088000Y39497000D02*
X68501579Y38370496D01*
X28305643Y-5677819D02*
X28115167Y-5677819D01*
X28115167Y-5677819D02*
X28019929Y-5725438D01*
X28019929Y-5725438D02*
X27972310Y-5773057D01*
X27972310Y-5773057D02*
X27877072Y-5915914D01*
X27877072Y-5915914D02*
X27829453Y-6106390D01*
X27829453Y-6106390D02*
X27829453Y-6487342D01*
X27829453Y-6487342D02*
X27877072Y-6582580D01*
X27877072Y-6582580D02*
X27924691Y-6630200D01*
X27924691Y-6630200D02*
X28019929Y-6677819D01*
X28019929Y-6677819D02*
X28210405Y-6677819D01*
X28210405Y-6677819D02*
X28305643Y-6630200D01*
X28305643Y-6630200D02*
X28353262Y-6582580D01*
X28353262Y-6582580D02*
X28400881Y-6487342D01*
X28400881Y-6487342D02*
X28400881Y-6249247D01*
X28400881Y-6249247D02*
X28353262Y-6154009D01*
X28353262Y-6154009D02*
X28305643Y-6106390D01*
X28305643Y-6106390D02*
X28210405Y-6058771D01*
X28210405Y-6058771D02*
X28019929Y-6058771D01*
X28019929Y-6058771D02*
X27924691Y-6106390D01*
X27924691Y-6106390D02*
X27877072Y-6154009D01*
X27877072Y-6154009D02*
X27829453Y-6249247D01*
X29258024Y-6011152D02*
X29258024Y-6677819D01*
X29019929Y-5630200D02*
X28781834Y-6344485D01*
X28781834Y-6344485D02*
X29400881Y-6344485D01*
X29781834Y-6582580D02*
X29829453Y-6630200D01*
X29829453Y-6630200D02*
X29781834Y-6677819D01*
X29781834Y-6677819D02*
X29734215Y-6630200D01*
X29734215Y-6630200D02*
X29781834Y-6582580D01*
X29781834Y-6582580D02*
X29781834Y-6677819D01*
X30400881Y-6106390D02*
X30305643Y-6058771D01*
X30305643Y-6058771D02*
X30258024Y-6011152D01*
X30258024Y-6011152D02*
X30210405Y-5915914D01*
X30210405Y-5915914D02*
X30210405Y-5868295D01*
X30210405Y-5868295D02*
X30258024Y-5773057D01*
X30258024Y-5773057D02*
X30305643Y-5725438D01*
X30305643Y-5725438D02*
X30400881Y-5677819D01*
X30400881Y-5677819D02*
X30591357Y-5677819D01*
X30591357Y-5677819D02*
X30686595Y-5725438D01*
X30686595Y-5725438D02*
X30734214Y-5773057D01*
X30734214Y-5773057D02*
X30781833Y-5868295D01*
X30781833Y-5868295D02*
X30781833Y-5915914D01*
X30781833Y-5915914D02*
X30734214Y-6011152D01*
X30734214Y-6011152D02*
X30686595Y-6058771D01*
X30686595Y-6058771D02*
X30591357Y-6106390D01*
X30591357Y-6106390D02*
X30400881Y-6106390D01*
X30400881Y-6106390D02*
X30305643Y-6154009D01*
X30305643Y-6154009D02*
X30258024Y-6201628D01*
X30258024Y-6201628D02*
X30210405Y-6296866D01*
X30210405Y-6296866D02*
X30210405Y-6487342D01*
X30210405Y-6487342D02*
X30258024Y-6582580D01*
X30258024Y-6582580D02*
X30305643Y-6630200D01*
X30305643Y-6630200D02*
X30400881Y-6677819D01*
X30400881Y-6677819D02*
X30591357Y-6677819D01*
X30591357Y-6677819D02*
X30686595Y-6630200D01*
X30686595Y-6630200D02*
X30734214Y-6582580D01*
X30734214Y-6582580D02*
X30781833Y-6487342D01*
X30781833Y-6487342D02*
X30781833Y-6296866D01*
X30781833Y-6296866D02*
X30734214Y-6201628D01*
X30734214Y-6201628D02*
X30686595Y-6154009D01*
X30686595Y-6154009D02*
X30591357Y-6106390D01*
X31258024Y-6677819D02*
X31448500Y-6677819D01*
X31448500Y-6677819D02*
X31543738Y-6630200D01*
X31543738Y-6630200D02*
X31591357Y-6582580D01*
X31591357Y-6582580D02*
X31686595Y-6439723D01*
X31686595Y-6439723D02*
X31734214Y-6249247D01*
X31734214Y-6249247D02*
X31734214Y-5868295D01*
X31734214Y-5868295D02*
X31686595Y-5773057D01*
X31686595Y-5773057D02*
X31638976Y-5725438D01*
X31638976Y-5725438D02*
X31543738Y-5677819D01*
X31543738Y-5677819D02*
X31353262Y-5677819D01*
X31353262Y-5677819D02*
X31258024Y-5725438D01*
X31258024Y-5725438D02*
X31210405Y-5773057D01*
X31210405Y-5773057D02*
X31162786Y-5868295D01*
X31162786Y-5868295D02*
X31162786Y-6106390D01*
X31162786Y-6106390D02*
X31210405Y-6201628D01*
X31210405Y-6201628D02*
X31258024Y-6249247D01*
X31258024Y-6249247D02*
X31353262Y-6296866D01*
X31353262Y-6296866D02*
X31543738Y-6296866D01*
X31543738Y-6296866D02*
X31638976Y-6249247D01*
X31638976Y-6249247D02*
X31686595Y-6201628D01*
X31686595Y-6201628D02*
X31734214Y-6106390D01*
X32067548Y-5677819D02*
X32734214Y-5677819D01*
X32734214Y-5677819D02*
X32305643Y-6677819D01*
X33305643Y-5677819D02*
X33400881Y-5677819D01*
X33400881Y-5677819D02*
X33496119Y-5725438D01*
X33496119Y-5725438D02*
X33543738Y-5773057D01*
X33543738Y-5773057D02*
X33591357Y-5868295D01*
X33591357Y-5868295D02*
X33638976Y-6058771D01*
X33638976Y-6058771D02*
X33638976Y-6296866D01*
X33638976Y-6296866D02*
X33591357Y-6487342D01*
X33591357Y-6487342D02*
X33543738Y-6582580D01*
X33543738Y-6582580D02*
X33496119Y-6630200D01*
X33496119Y-6630200D02*
X33400881Y-6677819D01*
X33400881Y-6677819D02*
X33305643Y-6677819D01*
X33305643Y-6677819D02*
X33210405Y-6630200D01*
X33210405Y-6630200D02*
X33162786Y-6582580D01*
X33162786Y-6582580D02*
X33115167Y-6487342D01*
X33115167Y-6487342D02*
X33067548Y-6296866D01*
X33067548Y-6296866D02*
X33067548Y-6058771D01*
X33067548Y-6058771D02*
X33115167Y-5868295D01*
X33115167Y-5868295D02*
X33162786Y-5773057D01*
X33162786Y-5773057D02*
X33210405Y-5725438D01*
X33210405Y-5725438D02*
X33305643Y-5677819D01*
X34829453Y-6677819D02*
X34829453Y-6011152D01*
X34829453Y-6106390D02*
X34877072Y-6058771D01*
X34877072Y-6058771D02*
X34972310Y-6011152D01*
X34972310Y-6011152D02*
X35115167Y-6011152D01*
X35115167Y-6011152D02*
X35210405Y-6058771D01*
X35210405Y-6058771D02*
X35258024Y-6154009D01*
X35258024Y-6154009D02*
X35258024Y-6677819D01*
X35258024Y-6154009D02*
X35305643Y-6058771D01*
X35305643Y-6058771D02*
X35400881Y-6011152D01*
X35400881Y-6011152D02*
X35543738Y-6011152D01*
X35543738Y-6011152D02*
X35638977Y-6058771D01*
X35638977Y-6058771D02*
X35686596Y-6154009D01*
X35686596Y-6154009D02*
X35686596Y-6677819D01*
X36162786Y-6677819D02*
X36162786Y-6011152D01*
X36162786Y-6106390D02*
X36210405Y-6058771D01*
X36210405Y-6058771D02*
X36305643Y-6011152D01*
X36305643Y-6011152D02*
X36448500Y-6011152D01*
X36448500Y-6011152D02*
X36543738Y-6058771D01*
X36543738Y-6058771D02*
X36591357Y-6154009D01*
X36591357Y-6154009D02*
X36591357Y-6677819D01*
X36591357Y-6154009D02*
X36638976Y-6058771D01*
X36638976Y-6058771D02*
X36734214Y-6011152D01*
X36734214Y-6011152D02*
X36877071Y-6011152D01*
X36877071Y-6011152D02*
X36972310Y-6058771D01*
X36972310Y-6058771D02*
X37019929Y-6154009D01*
X37019929Y-6154009D02*
X37019929Y-6677819D01*
X64897000Y2040000D02*
X64897000Y-5412420D01*
X0Y2040000D02*
X0Y-5412420D01*
X64897000Y-4826000D02*
X0Y-4826000D01*
X64897000Y-4826000D02*
X0Y-4826000D01*
X64897000Y-4826000D02*
X63770496Y-5412421D01*
X64897000Y-4826000D02*
X63770496Y-4239579D01*
X0Y-4826000D02*
X1126504Y-4239579D01*
X0Y-4826000D02*
X1126504Y-5412421D01*
D11*
X3565185Y32495572D02*
X3265185Y32495572D01*
X3265185Y32495572D02*
X3565185Y32667001D01*
X3565185Y32667001D02*
X3265185Y32667001D01*
X3565185Y32852715D02*
X3550900Y32824144D01*
X3550900Y32824144D02*
X3536614Y32809858D01*
X3536614Y32809858D02*
X3508042Y32795572D01*
X3508042Y32795572D02*
X3422328Y32795572D01*
X3422328Y32795572D02*
X3393757Y32809858D01*
X3393757Y32809858D02*
X3379471Y32824144D01*
X3379471Y32824144D02*
X3365185Y32852715D01*
X3365185Y32852715D02*
X3365185Y32895572D01*
X3365185Y32895572D02*
X3379471Y32924144D01*
X3379471Y32924144D02*
X3393757Y32938429D01*
X3393757Y32938429D02*
X3422328Y32952715D01*
X3422328Y32952715D02*
X3508042Y32952715D01*
X3508042Y32952715D02*
X3536614Y32938429D01*
X3536614Y32938429D02*
X3550900Y32924144D01*
X3550900Y32924144D02*
X3565185Y32895572D01*
X3565185Y32895572D02*
X3565185Y32852715D01*
X3365185Y33267001D02*
X3365185Y33381287D01*
X3265185Y33309858D02*
X3522328Y33309858D01*
X3522328Y33309858D02*
X3550900Y33324144D01*
X3550900Y33324144D02*
X3565185Y33352715D01*
X3565185Y33352715D02*
X3565185Y33381287D01*
X3565185Y33481287D02*
X3365185Y33481287D01*
X3422328Y33481287D02*
X3393757Y33495573D01*
X3393757Y33495573D02*
X3379471Y33509858D01*
X3379471Y33509858D02*
X3365185Y33538430D01*
X3365185Y33538430D02*
X3365185Y33567001D01*
X3565185Y33795572D02*
X3408042Y33795572D01*
X3408042Y33795572D02*
X3379471Y33781287D01*
X3379471Y33781287D02*
X3365185Y33752715D01*
X3365185Y33752715D02*
X3365185Y33695572D01*
X3365185Y33695572D02*
X3379471Y33667001D01*
X3550900Y33795572D02*
X3565185Y33767001D01*
X3565185Y33767001D02*
X3565185Y33695572D01*
X3565185Y33695572D02*
X3550900Y33667001D01*
X3550900Y33667001D02*
X3522328Y33652715D01*
X3522328Y33652715D02*
X3493757Y33652715D01*
X3493757Y33652715D02*
X3465185Y33667001D01*
X3465185Y33667001D02*
X3450900Y33695572D01*
X3450900Y33695572D02*
X3450900Y33767001D01*
X3450900Y33767001D02*
X3436614Y33795572D01*
X3550900Y34067001D02*
X3565185Y34038430D01*
X3565185Y34038430D02*
X3565185Y33981287D01*
X3565185Y33981287D02*
X3550900Y33952716D01*
X3550900Y33952716D02*
X3536614Y33938430D01*
X3536614Y33938430D02*
X3508042Y33924144D01*
X3508042Y33924144D02*
X3422328Y33924144D01*
X3422328Y33924144D02*
X3393757Y33938430D01*
X3393757Y33938430D02*
X3379471Y33952716D01*
X3379471Y33952716D02*
X3365185Y33981287D01*
X3365185Y33981287D02*
X3365185Y34038430D01*
X3365185Y34038430D02*
X3379471Y34067001D01*
X3565185Y34195573D02*
X3265185Y34195573D01*
X3450900Y34224144D02*
X3565185Y34309859D01*
X3365185Y34309859D02*
X3479471Y34195573D01*
X3550900Y34424144D02*
X3565185Y34452716D01*
X3565185Y34452716D02*
X3565185Y34509859D01*
X3565185Y34509859D02*
X3550900Y34538430D01*
X3550900Y34538430D02*
X3522328Y34552716D01*
X3522328Y34552716D02*
X3508042Y34552716D01*
X3508042Y34552716D02*
X3479471Y34538430D01*
X3479471Y34538430D02*
X3465185Y34509859D01*
X3465185Y34509859D02*
X3465185Y34467001D01*
X3465185Y34467001D02*
X3450900Y34438430D01*
X3450900Y34438430D02*
X3422328Y34424144D01*
X3422328Y34424144D02*
X3408042Y34424144D01*
X3408042Y34424144D02*
X3379471Y34438430D01*
X3379471Y34438430D02*
X3365185Y34467001D01*
X3365185Y34467001D02*
X3365185Y34509859D01*
X3365185Y34509859D02*
X3379471Y34538430D01*
X3565185Y34952715D02*
X3550900Y34924144D01*
X3550900Y34924144D02*
X3536614Y34909858D01*
X3536614Y34909858D02*
X3508042Y34895572D01*
X3508042Y34895572D02*
X3422328Y34895572D01*
X3422328Y34895572D02*
X3393757Y34909858D01*
X3393757Y34909858D02*
X3379471Y34924144D01*
X3379471Y34924144D02*
X3365185Y34952715D01*
X3365185Y34952715D02*
X3365185Y34995572D01*
X3365185Y34995572D02*
X3379471Y35024144D01*
X3379471Y35024144D02*
X3393757Y35038429D01*
X3393757Y35038429D02*
X3422328Y35052715D01*
X3422328Y35052715D02*
X3508042Y35052715D01*
X3508042Y35052715D02*
X3536614Y35038429D01*
X3536614Y35038429D02*
X3550900Y35024144D01*
X3550900Y35024144D02*
X3565185Y34995572D01*
X3565185Y34995572D02*
X3565185Y34952715D01*
X3565185Y35181287D02*
X3365185Y35181287D01*
X3422328Y35181287D02*
X3393757Y35195573D01*
X3393757Y35195573D02*
X3379471Y35209858D01*
X3379471Y35209858D02*
X3365185Y35238430D01*
X3365185Y35238430D02*
X3365185Y35267001D01*
X3365185Y35567001D02*
X3565185Y35638429D01*
X3565185Y35638429D02*
X3365185Y35709858D01*
X3565185Y35824143D02*
X3365185Y35824143D01*
X3265185Y35824143D02*
X3279471Y35809857D01*
X3279471Y35809857D02*
X3293757Y35824143D01*
X3293757Y35824143D02*
X3279471Y35838429D01*
X3279471Y35838429D02*
X3265185Y35824143D01*
X3265185Y35824143D02*
X3293757Y35824143D01*
X3565185Y36095571D02*
X3408042Y36095571D01*
X3408042Y36095571D02*
X3379471Y36081286D01*
X3379471Y36081286D02*
X3365185Y36052714D01*
X3365185Y36052714D02*
X3365185Y35995571D01*
X3365185Y35995571D02*
X3379471Y35967000D01*
X3550900Y36095571D02*
X3565185Y36067000D01*
X3565185Y36067000D02*
X3565185Y35995571D01*
X3565185Y35995571D02*
X3550900Y35967000D01*
X3550900Y35967000D02*
X3522328Y35952714D01*
X3522328Y35952714D02*
X3493757Y35952714D01*
X3493757Y35952714D02*
X3465185Y35967000D01*
X3465185Y35967000D02*
X3450900Y35995571D01*
X3450900Y35995571D02*
X3450900Y36067000D01*
X3450900Y36067000D02*
X3436614Y36095571D01*
X3550900Y36224143D02*
X3565185Y36252715D01*
X3565185Y36252715D02*
X3565185Y36309858D01*
X3565185Y36309858D02*
X3550900Y36338429D01*
X3550900Y36338429D02*
X3522328Y36352715D01*
X3522328Y36352715D02*
X3508042Y36352715D01*
X3508042Y36352715D02*
X3479471Y36338429D01*
X3479471Y36338429D02*
X3465185Y36309858D01*
X3465185Y36309858D02*
X3465185Y36267000D01*
X3465185Y36267000D02*
X3450900Y36238429D01*
X3450900Y36238429D02*
X3422328Y36224143D01*
X3422328Y36224143D02*
X3408042Y36224143D01*
X3408042Y36224143D02*
X3379471Y36238429D01*
X3379471Y36238429D02*
X3365185Y36267000D01*
X3365185Y36267000D02*
X3365185Y36309858D01*
X3365185Y36309858D02*
X3379471Y36338429D01*
X4200185Y32688428D02*
X4000185Y32688428D01*
X3900185Y32688428D02*
X3914471Y32674142D01*
X3914471Y32674142D02*
X3928757Y32688428D01*
X3928757Y32688428D02*
X3914471Y32702714D01*
X3914471Y32702714D02*
X3900185Y32688428D01*
X3900185Y32688428D02*
X3928757Y32688428D01*
X4000185Y32831285D02*
X4200185Y32831285D01*
X4028757Y32831285D02*
X4014471Y32845571D01*
X4014471Y32845571D02*
X4000185Y32874142D01*
X4000185Y32874142D02*
X4000185Y32916999D01*
X4000185Y32916999D02*
X4014471Y32945571D01*
X4014471Y32945571D02*
X4043042Y32959856D01*
X4043042Y32959856D02*
X4200185Y32959856D01*
X4200185Y33331285D02*
X3900185Y33331285D01*
X4085900Y33359856D02*
X4200185Y33445571D01*
X4000185Y33445571D02*
X4114471Y33331285D01*
X4185900Y33688428D02*
X4200185Y33659856D01*
X4200185Y33659856D02*
X4200185Y33602713D01*
X4200185Y33602713D02*
X4185900Y33574142D01*
X4185900Y33574142D02*
X4157328Y33559856D01*
X4157328Y33559856D02*
X4043042Y33559856D01*
X4043042Y33559856D02*
X4014471Y33574142D01*
X4014471Y33574142D02*
X4000185Y33602713D01*
X4000185Y33602713D02*
X4000185Y33659856D01*
X4000185Y33659856D02*
X4014471Y33688428D01*
X4014471Y33688428D02*
X4043042Y33702713D01*
X4043042Y33702713D02*
X4071614Y33702713D01*
X4071614Y33702713D02*
X4100185Y33559856D01*
X4185900Y33945571D02*
X4200185Y33916999D01*
X4200185Y33916999D02*
X4200185Y33859856D01*
X4200185Y33859856D02*
X4185900Y33831285D01*
X4185900Y33831285D02*
X4157328Y33816999D01*
X4157328Y33816999D02*
X4043042Y33816999D01*
X4043042Y33816999D02*
X4014471Y33831285D01*
X4014471Y33831285D02*
X4000185Y33859856D01*
X4000185Y33859856D02*
X4000185Y33916999D01*
X4000185Y33916999D02*
X4014471Y33945571D01*
X4014471Y33945571D02*
X4043042Y33959856D01*
X4043042Y33959856D02*
X4071614Y33959856D01*
X4071614Y33959856D02*
X4100185Y33816999D01*
X4000185Y34088428D02*
X4300185Y34088428D01*
X4014471Y34088428D02*
X4000185Y34116999D01*
X4000185Y34116999D02*
X4000185Y34174142D01*
X4000185Y34174142D02*
X4014471Y34202714D01*
X4014471Y34202714D02*
X4028757Y34216999D01*
X4028757Y34216999D02*
X4057328Y34231285D01*
X4057328Y34231285D02*
X4143042Y34231285D01*
X4143042Y34231285D02*
X4171614Y34216999D01*
X4171614Y34216999D02*
X4185900Y34202714D01*
X4185900Y34202714D02*
X4200185Y34174142D01*
X4200185Y34174142D02*
X4200185Y34116999D01*
X4200185Y34116999D02*
X4185900Y34088428D01*
X4200185Y34402714D02*
X4185900Y34374143D01*
X4185900Y34374143D02*
X4171614Y34359857D01*
X4171614Y34359857D02*
X4143042Y34345571D01*
X4143042Y34345571D02*
X4057328Y34345571D01*
X4057328Y34345571D02*
X4028757Y34359857D01*
X4028757Y34359857D02*
X4014471Y34374143D01*
X4014471Y34374143D02*
X4000185Y34402714D01*
X4000185Y34402714D02*
X4000185Y34445571D01*
X4000185Y34445571D02*
X4014471Y34474143D01*
X4014471Y34474143D02*
X4028757Y34488428D01*
X4028757Y34488428D02*
X4057328Y34502714D01*
X4057328Y34502714D02*
X4143042Y34502714D01*
X4143042Y34502714D02*
X4171614Y34488428D01*
X4171614Y34488428D02*
X4185900Y34474143D01*
X4185900Y34474143D02*
X4200185Y34445571D01*
X4200185Y34445571D02*
X4200185Y34402714D01*
X4000185Y34759857D02*
X4200185Y34759857D01*
X4000185Y34631286D02*
X4157328Y34631286D01*
X4157328Y34631286D02*
X4185900Y34645572D01*
X4185900Y34645572D02*
X4200185Y34674143D01*
X4200185Y34674143D02*
X4200185Y34717000D01*
X4200185Y34717000D02*
X4185900Y34745572D01*
X4185900Y34745572D02*
X4171614Y34759857D01*
X4000185Y34859858D02*
X4000185Y34974144D01*
X3900185Y34902715D02*
X4157328Y34902715D01*
X4157328Y34902715D02*
X4185900Y34917001D01*
X4185900Y34917001D02*
X4200185Y34945572D01*
X4200185Y34945572D02*
X4200185Y34974144D01*
X4200185Y35431286D02*
X4043042Y35431286D01*
X4043042Y35431286D02*
X4014471Y35417001D01*
X4014471Y35417001D02*
X4000185Y35388429D01*
X4000185Y35388429D02*
X4000185Y35331286D01*
X4000185Y35331286D02*
X4014471Y35302715D01*
X4185900Y35431286D02*
X4200185Y35402715D01*
X4200185Y35402715D02*
X4200185Y35331286D01*
X4200185Y35331286D02*
X4185900Y35302715D01*
X4185900Y35302715D02*
X4157328Y35288429D01*
X4157328Y35288429D02*
X4128757Y35288429D01*
X4128757Y35288429D02*
X4100185Y35302715D01*
X4100185Y35302715D02*
X4085900Y35331286D01*
X4085900Y35331286D02*
X4085900Y35402715D01*
X4085900Y35402715D02*
X4071614Y35431286D01*
X4200185Y35574144D02*
X4000185Y35574144D01*
X4057328Y35574144D02*
X4028757Y35588430D01*
X4028757Y35588430D02*
X4014471Y35602715D01*
X4014471Y35602715D02*
X4000185Y35631287D01*
X4000185Y35631287D02*
X4000185Y35659858D01*
X4185900Y35874144D02*
X4200185Y35845572D01*
X4200185Y35845572D02*
X4200185Y35788429D01*
X4200185Y35788429D02*
X4185900Y35759858D01*
X4185900Y35759858D02*
X4157328Y35745572D01*
X4157328Y35745572D02*
X4043042Y35745572D01*
X4043042Y35745572D02*
X4014471Y35759858D01*
X4014471Y35759858D02*
X4000185Y35788429D01*
X4000185Y35788429D02*
X4000185Y35845572D01*
X4000185Y35845572D02*
X4014471Y35874144D01*
X4014471Y35874144D02*
X4043042Y35888429D01*
X4043042Y35888429D02*
X4071614Y35888429D01*
X4071614Y35888429D02*
X4100185Y35745572D01*
X4200185Y36145572D02*
X4043042Y36145572D01*
X4043042Y36145572D02*
X4014471Y36131287D01*
X4014471Y36131287D02*
X4000185Y36102715D01*
X4000185Y36102715D02*
X4000185Y36045572D01*
X4000185Y36045572D02*
X4014471Y36017001D01*
X4185900Y36145572D02*
X4200185Y36117001D01*
X4200185Y36117001D02*
X4200185Y36045572D01*
X4200185Y36045572D02*
X4185900Y36017001D01*
X4185900Y36017001D02*
X4157328Y36002715D01*
X4157328Y36002715D02*
X4128757Y36002715D01*
X4128757Y36002715D02*
X4100185Y36017001D01*
X4100185Y36017001D02*
X4085900Y36045572D01*
X4085900Y36045572D02*
X4085900Y36117001D01*
X4085900Y36117001D02*
X4071614Y36145572D01*
D12*
X3656149Y27154381D02*
X3156149Y27154381D01*
X3656149Y27440095D02*
X3370435Y27225810D01*
X3156149Y27440095D02*
X3441863Y27154381D01*
X3394244Y27654381D02*
X3394244Y27821048D01*
X3656149Y27892476D02*
X3656149Y27654381D01*
X3656149Y27654381D02*
X3156149Y27654381D01*
X3156149Y27654381D02*
X3156149Y27892476D01*
X3394244Y28106762D02*
X3394244Y28273429D01*
X3656149Y28344857D02*
X3656149Y28106762D01*
X3656149Y28106762D02*
X3156149Y28106762D01*
X3156149Y28106762D02*
X3156149Y28344857D01*
X3656149Y28559143D02*
X3156149Y28559143D01*
X3156149Y28559143D02*
X3156149Y28749619D01*
X3156149Y28749619D02*
X3179959Y28797238D01*
X3179959Y28797238D02*
X3203768Y28821048D01*
X3203768Y28821048D02*
X3251387Y28844857D01*
X3251387Y28844857D02*
X3322816Y28844857D01*
X3322816Y28844857D02*
X3370435Y28821048D01*
X3370435Y28821048D02*
X3394244Y28797238D01*
X3394244Y28797238D02*
X3418054Y28749619D01*
X3418054Y28749619D02*
X3418054Y28559143D01*
X3156149Y29154381D02*
X3156149Y29249619D01*
X3156149Y29249619D02*
X3179959Y29297238D01*
X3179959Y29297238D02*
X3227578Y29344857D01*
X3227578Y29344857D02*
X3322816Y29368667D01*
X3322816Y29368667D02*
X3489482Y29368667D01*
X3489482Y29368667D02*
X3584720Y29344857D01*
X3584720Y29344857D02*
X3632340Y29297238D01*
X3632340Y29297238D02*
X3656149Y29249619D01*
X3656149Y29249619D02*
X3656149Y29154381D01*
X3656149Y29154381D02*
X3632340Y29106762D01*
X3632340Y29106762D02*
X3584720Y29059143D01*
X3584720Y29059143D02*
X3489482Y29035334D01*
X3489482Y29035334D02*
X3322816Y29035334D01*
X3322816Y29035334D02*
X3227578Y29059143D01*
X3227578Y29059143D02*
X3179959Y29106762D01*
X3179959Y29106762D02*
X3156149Y29154381D01*
X3156149Y29582953D02*
X3560911Y29582953D01*
X3560911Y29582953D02*
X3608530Y29606763D01*
X3608530Y29606763D02*
X3632340Y29630572D01*
X3632340Y29630572D02*
X3656149Y29678191D01*
X3656149Y29678191D02*
X3656149Y29773429D01*
X3656149Y29773429D02*
X3632340Y29821048D01*
X3632340Y29821048D02*
X3608530Y29844858D01*
X3608530Y29844858D02*
X3560911Y29868667D01*
X3560911Y29868667D02*
X3156149Y29868667D01*
X3156149Y30035335D02*
X3156149Y30321049D01*
X3656149Y30178192D02*
X3156149Y30178192D01*
D13*
X42757609Y41303905D02*
X42757609Y41065810D01*
X42757609Y41065810D02*
X42995704Y41042001D01*
X42995704Y41042001D02*
X42971895Y41065810D01*
X42971895Y41065810D02*
X42948085Y41113429D01*
X42948085Y41113429D02*
X42948085Y41232477D01*
X42948085Y41232477D02*
X42971895Y41280096D01*
X42971895Y41280096D02*
X42995704Y41303905D01*
X42995704Y41303905D02*
X43043323Y41327715D01*
X43043323Y41327715D02*
X43162371Y41327715D01*
X43162371Y41327715D02*
X43209990Y41303905D01*
X43209990Y41303905D02*
X43233800Y41280096D01*
X43233800Y41280096D02*
X43257609Y41232477D01*
X43257609Y41232477D02*
X43257609Y41113429D01*
X43257609Y41113429D02*
X43233800Y41065810D01*
X43233800Y41065810D02*
X43209990Y41042001D01*
X43257609Y41922952D02*
X42924276Y41922952D01*
X42971895Y41922952D02*
X42948085Y41946762D01*
X42948085Y41946762D02*
X42924276Y41994381D01*
X42924276Y41994381D02*
X42924276Y42065809D01*
X42924276Y42065809D02*
X42948085Y42113428D01*
X42948085Y42113428D02*
X42995704Y42137238D01*
X42995704Y42137238D02*
X43257609Y42137238D01*
X42995704Y42137238D02*
X42948085Y42161047D01*
X42948085Y42161047D02*
X42924276Y42208666D01*
X42924276Y42208666D02*
X42924276Y42280095D01*
X42924276Y42280095D02*
X42948085Y42327714D01*
X42948085Y42327714D02*
X42995704Y42351524D01*
X42995704Y42351524D02*
X43257609Y42351524D01*
X43257609Y42589619D02*
X42924276Y42589619D01*
X42971895Y42589619D02*
X42948085Y42613429D01*
X42948085Y42613429D02*
X42924276Y42661048D01*
X42924276Y42661048D02*
X42924276Y42732476D01*
X42924276Y42732476D02*
X42948085Y42780095D01*
X42948085Y42780095D02*
X42995704Y42803905D01*
X42995704Y42803905D02*
X43257609Y42803905D01*
X42995704Y42803905D02*
X42948085Y42827714D01*
X42948085Y42827714D02*
X42924276Y42875333D01*
X42924276Y42875333D02*
X42924276Y42946762D01*
X42924276Y42946762D02*
X42948085Y42994381D01*
X42948085Y42994381D02*
X42995704Y43018191D01*
X42995704Y43018191D02*
X43257609Y43018191D01*
X23293404Y37615891D02*
X23055309Y37615891D01*
X23055309Y37615891D02*
X23031500Y37377796D01*
X23031500Y37377796D02*
X23055309Y37401605D01*
X23055309Y37401605D02*
X23102928Y37425415D01*
X23102928Y37425415D02*
X23221976Y37425415D01*
X23221976Y37425415D02*
X23269595Y37401605D01*
X23269595Y37401605D02*
X23293404Y37377796D01*
X23293404Y37377796D02*
X23317214Y37330177D01*
X23317214Y37330177D02*
X23317214Y37211129D01*
X23317214Y37211129D02*
X23293404Y37163510D01*
X23293404Y37163510D02*
X23269595Y37139700D01*
X23269595Y37139700D02*
X23221976Y37115891D01*
X23221976Y37115891D02*
X23102928Y37115891D01*
X23102928Y37115891D02*
X23055309Y37139700D01*
X23055309Y37139700D02*
X23031500Y37163510D01*
X23912451Y37115891D02*
X23912451Y37449224D01*
X23912451Y37401605D02*
X23936261Y37425415D01*
X23936261Y37425415D02*
X23983880Y37449224D01*
X23983880Y37449224D02*
X24055308Y37449224D01*
X24055308Y37449224D02*
X24102927Y37425415D01*
X24102927Y37425415D02*
X24126737Y37377796D01*
X24126737Y37377796D02*
X24126737Y37115891D01*
X24126737Y37377796D02*
X24150546Y37425415D01*
X24150546Y37425415D02*
X24198165Y37449224D01*
X24198165Y37449224D02*
X24269594Y37449224D01*
X24269594Y37449224D02*
X24317213Y37425415D01*
X24317213Y37425415D02*
X24341023Y37377796D01*
X24341023Y37377796D02*
X24341023Y37115891D01*
X24579118Y37115891D02*
X24579118Y37449224D01*
X24579118Y37401605D02*
X24602928Y37425415D01*
X24602928Y37425415D02*
X24650547Y37449224D01*
X24650547Y37449224D02*
X24721975Y37449224D01*
X24721975Y37449224D02*
X24769594Y37425415D01*
X24769594Y37425415D02*
X24793404Y37377796D01*
X24793404Y37377796D02*
X24793404Y37115891D01*
X24793404Y37377796D02*
X24817213Y37425415D01*
X24817213Y37425415D02*
X24864832Y37449224D01*
X24864832Y37449224D02*
X24936261Y37449224D01*
X24936261Y37449224D02*
X24983880Y37425415D01*
X24983880Y37425415D02*
X25007690Y37377796D01*
X25007690Y37377796D02*
X25007690Y37115891D01*
X46293404Y37615891D02*
X46055309Y37615891D01*
X46055309Y37615891D02*
X46031500Y37377796D01*
X46031500Y37377796D02*
X46055309Y37401605D01*
X46055309Y37401605D02*
X46102928Y37425415D01*
X46102928Y37425415D02*
X46221976Y37425415D01*
X46221976Y37425415D02*
X46269595Y37401605D01*
X46269595Y37401605D02*
X46293404Y37377796D01*
X46293404Y37377796D02*
X46317214Y37330177D01*
X46317214Y37330177D02*
X46317214Y37211129D01*
X46317214Y37211129D02*
X46293404Y37163510D01*
X46293404Y37163510D02*
X46269595Y37139700D01*
X46269595Y37139700D02*
X46221976Y37115891D01*
X46221976Y37115891D02*
X46102928Y37115891D01*
X46102928Y37115891D02*
X46055309Y37139700D01*
X46055309Y37139700D02*
X46031500Y37163510D01*
X46912451Y37115891D02*
X46912451Y37449224D01*
X46912451Y37401605D02*
X46936261Y37425415D01*
X46936261Y37425415D02*
X46983880Y37449224D01*
X46983880Y37449224D02*
X47055308Y37449224D01*
X47055308Y37449224D02*
X47102927Y37425415D01*
X47102927Y37425415D02*
X47126737Y37377796D01*
X47126737Y37377796D02*
X47126737Y37115891D01*
X47126737Y37377796D02*
X47150546Y37425415D01*
X47150546Y37425415D02*
X47198165Y37449224D01*
X47198165Y37449224D02*
X47269594Y37449224D01*
X47269594Y37449224D02*
X47317213Y37425415D01*
X47317213Y37425415D02*
X47341023Y37377796D01*
X47341023Y37377796D02*
X47341023Y37115891D01*
X47579118Y37115891D02*
X47579118Y37449224D01*
X47579118Y37401605D02*
X47602928Y37425415D01*
X47602928Y37425415D02*
X47650547Y37449224D01*
X47650547Y37449224D02*
X47721975Y37449224D01*
X47721975Y37449224D02*
X47769594Y37425415D01*
X47769594Y37425415D02*
X47793404Y37377796D01*
X47793404Y37377796D02*
X47793404Y37115891D01*
X47793404Y37377796D02*
X47817213Y37425415D01*
X47817213Y37425415D02*
X47864832Y37449224D01*
X47864832Y37449224D02*
X47936261Y37449224D01*
X47936261Y37449224D02*
X47983880Y37425415D01*
X47983880Y37425415D02*
X48007690Y37377796D01*
X48007690Y37377796D02*
X48007690Y37115891D01*
D10*
X32469595Y35797896D02*
X32945785Y35797896D01*
X32374357Y35512181D02*
X32707690Y36512181D01*
X32707690Y36512181D02*
X33041023Y35512181D01*
X33374357Y36178848D02*
X33374357Y35512181D01*
X33374357Y36083610D02*
X33421976Y36131229D01*
X33421976Y36131229D02*
X33517214Y36178848D01*
X33517214Y36178848D02*
X33660071Y36178848D01*
X33660071Y36178848D02*
X33755309Y36131229D01*
X33755309Y36131229D02*
X33802928Y36035991D01*
X33802928Y36035991D02*
X33802928Y35512181D01*
X34136262Y36178848D02*
X34517214Y36178848D01*
X34279119Y36512181D02*
X34279119Y35655039D01*
X34279119Y35655039D02*
X34326738Y35559800D01*
X34326738Y35559800D02*
X34421976Y35512181D01*
X34421976Y35512181D02*
X34517214Y35512181D01*
X35231500Y35559800D02*
X35136262Y35512181D01*
X35136262Y35512181D02*
X34945786Y35512181D01*
X34945786Y35512181D02*
X34850548Y35559800D01*
X34850548Y35559800D02*
X34802929Y35655039D01*
X34802929Y35655039D02*
X34802929Y36035991D01*
X34802929Y36035991D02*
X34850548Y36131229D01*
X34850548Y36131229D02*
X34945786Y36178848D01*
X34945786Y36178848D02*
X35136262Y36178848D01*
X35136262Y36178848D02*
X35231500Y36131229D01*
X35231500Y36131229D02*
X35279119Y36035991D01*
X35279119Y36035991D02*
X35279119Y35940753D01*
X35279119Y35940753D02*
X34802929Y35845515D01*
X35707691Y36178848D02*
X35707691Y35512181D01*
X35707691Y36083610D02*
X35755310Y36131229D01*
X35755310Y36131229D02*
X35850548Y36178848D01*
X35850548Y36178848D02*
X35993405Y36178848D01*
X35993405Y36178848D02*
X36088643Y36131229D01*
X36088643Y36131229D02*
X36136262Y36035991D01*
X36136262Y36035991D02*
X36136262Y35512181D01*
X36612453Y36178848D02*
X36612453Y35512181D01*
X36612453Y36083610D02*
X36660072Y36131229D01*
X36660072Y36131229D02*
X36755310Y36178848D01*
X36755310Y36178848D02*
X36898167Y36178848D01*
X36898167Y36178848D02*
X36993405Y36131229D01*
X36993405Y36131229D02*
X37041024Y36035991D01*
X37041024Y36035991D02*
X37041024Y35512181D01*
X37945786Y35512181D02*
X37945786Y36035991D01*
X37945786Y36035991D02*
X37898167Y36131229D01*
X37898167Y36131229D02*
X37802929Y36178848D01*
X37802929Y36178848D02*
X37612453Y36178848D01*
X37612453Y36178848D02*
X37517215Y36131229D01*
X37945786Y35559800D02*
X37850548Y35512181D01*
X37850548Y35512181D02*
X37612453Y35512181D01*
X37612453Y35512181D02*
X37517215Y35559800D01*
X37517215Y35559800D02*
X37469596Y35655039D01*
X37469596Y35655039D02*
X37469596Y35750277D01*
X37469596Y35750277D02*
X37517215Y35845515D01*
X37517215Y35845515D02*
X37612453Y35893134D01*
X37612453Y35893134D02*
X37850548Y35893134D01*
X37850548Y35893134D02*
X37945786Y35940753D01*
X29160071Y41512181D02*
X29160071Y42512181D01*
X29731499Y41512181D02*
X29302928Y42083610D01*
X29731499Y42512181D02*
X29160071Y41940753D01*
X30160071Y42035991D02*
X30493404Y42035991D01*
X30636261Y41512181D02*
X30160071Y41512181D01*
X30160071Y41512181D02*
X30160071Y42512181D01*
X30160071Y42512181D02*
X30636261Y42512181D01*
X31064833Y42035991D02*
X31398166Y42035991D01*
X31541023Y41512181D02*
X31064833Y41512181D01*
X31064833Y41512181D02*
X31064833Y42512181D01*
X31064833Y42512181D02*
X31541023Y42512181D01*
X31969595Y41512181D02*
X31969595Y42512181D01*
X31969595Y42512181D02*
X32350547Y42512181D01*
X32350547Y42512181D02*
X32445785Y42464562D01*
X32445785Y42464562D02*
X32493404Y42416943D01*
X32493404Y42416943D02*
X32541023Y42321705D01*
X32541023Y42321705D02*
X32541023Y42178848D01*
X32541023Y42178848D02*
X32493404Y42083610D01*
X32493404Y42083610D02*
X32445785Y42035991D01*
X32445785Y42035991D02*
X32350547Y41988372D01*
X32350547Y41988372D02*
X31969595Y41988372D01*
X32969595Y41893134D02*
X33731500Y41893134D01*
X34398166Y42512181D02*
X34588642Y42512181D01*
X34588642Y42512181D02*
X34683880Y42464562D01*
X34683880Y42464562D02*
X34779118Y42369324D01*
X34779118Y42369324D02*
X34826737Y42178848D01*
X34826737Y42178848D02*
X34826737Y41845515D01*
X34826737Y41845515D02*
X34779118Y41655039D01*
X34779118Y41655039D02*
X34683880Y41559800D01*
X34683880Y41559800D02*
X34588642Y41512181D01*
X34588642Y41512181D02*
X34398166Y41512181D01*
X34398166Y41512181D02*
X34302928Y41559800D01*
X34302928Y41559800D02*
X34207690Y41655039D01*
X34207690Y41655039D02*
X34160071Y41845515D01*
X34160071Y41845515D02*
X34160071Y42178848D01*
X34160071Y42178848D02*
X34207690Y42369324D01*
X34207690Y42369324D02*
X34302928Y42464562D01*
X34302928Y42464562D02*
X34398166Y42512181D01*
X35255309Y42512181D02*
X35255309Y41702658D01*
X35255309Y41702658D02*
X35302928Y41607420D01*
X35302928Y41607420D02*
X35350547Y41559800D01*
X35350547Y41559800D02*
X35445785Y41512181D01*
X35445785Y41512181D02*
X35636261Y41512181D01*
X35636261Y41512181D02*
X35731499Y41559800D01*
X35731499Y41559800D02*
X35779118Y41607420D01*
X35779118Y41607420D02*
X35826737Y41702658D01*
X35826737Y41702658D02*
X35826737Y42512181D01*
X36160071Y42512181D02*
X36731499Y42512181D01*
X36445785Y41512181D02*
X36445785Y42512181D01*
X37731500Y42512181D02*
X38398166Y42512181D01*
X38398166Y42512181D02*
X37731500Y41512181D01*
X37731500Y41512181D02*
X38398166Y41512181D01*
X38969595Y42512181D02*
X39160071Y42512181D01*
X39160071Y42512181D02*
X39255309Y42464562D01*
X39255309Y42464562D02*
X39350547Y42369324D01*
X39350547Y42369324D02*
X39398166Y42178848D01*
X39398166Y42178848D02*
X39398166Y41845515D01*
X39398166Y41845515D02*
X39350547Y41655039D01*
X39350547Y41655039D02*
X39255309Y41559800D01*
X39255309Y41559800D02*
X39160071Y41512181D01*
X39160071Y41512181D02*
X38969595Y41512181D01*
X38969595Y41512181D02*
X38874357Y41559800D01*
X38874357Y41559800D02*
X38779119Y41655039D01*
X38779119Y41655039D02*
X38731500Y41845515D01*
X38731500Y41845515D02*
X38731500Y42178848D01*
X38731500Y42178848D02*
X38779119Y42369324D01*
X38779119Y42369324D02*
X38874357Y42464562D01*
X38874357Y42464562D02*
X38969595Y42512181D01*
X39826738Y41512181D02*
X39826738Y42512181D01*
X39826738Y42512181D02*
X40398166Y41512181D01*
X40398166Y41512181D02*
X40398166Y42512181D01*
X40874357Y42035991D02*
X41207690Y42035991D01*
X41350547Y41512181D02*
X40874357Y41512181D01*
X40874357Y41512181D02*
X40874357Y42512181D01*
X40874357Y42512181D02*
X41350547Y42512181D01*
%TO.C,H104*%
X6883000Y3683000D02*
G75*
G03*
X6883000Y3683000I-3200000J0D01*
G01*
%TO.C,H103*%
X64283000Y3683000D02*
G75*
G03*
X64283000Y3683000I-3200000J0D01*
G01*
%TO.C,H101*%
X6883000Y35814000D02*
G75*
G03*
X6883000Y35814000I-3200000J0D01*
G01*
%TO.C,H102*%
X64283000Y35814000D02*
G75*
G03*
X64283000Y35814000I-3200000J0D01*
G01*
D13*
%TO.C,U103*%
X21431500Y36842000D02*
X21631500Y37042000D01*
X21431500Y36842000D02*
X21631500Y36642000D01*
X21431500Y36842000D02*
X26031500Y36842000D01*
X26031500Y36842000D02*
X25831500Y37042000D01*
X26031500Y36842000D02*
X25831500Y36642000D01*
X43631500Y43567000D02*
X43431500Y43367000D01*
X43631500Y43567000D02*
X43831500Y43367000D01*
X43631500Y38967000D02*
X43431500Y39167000D01*
X43631500Y38967000D02*
X43631500Y43567000D01*
X43631500Y38967000D02*
X43831500Y39167000D01*
X44431500Y36842000D02*
X44631500Y37042000D01*
X44431500Y36842000D02*
X44631500Y36642000D01*
X44431500Y36842000D02*
X49031500Y36842000D01*
X49031500Y36842000D02*
X48831500Y37042000D01*
X49031500Y36842000D02*
X48831500Y36642000D01*
%TD*%
M02*
