%TF.GenerationSoftware,KiCad,Pcbnew,7.0.9*%
%TF.CreationDate,2024-01-15T18:06:47-05:00*%
%TF.ProjectId,wled-esp32-control-board,776c6564-2d65-4737-9033-322d636f6e74,C*%
%TF.SameCoordinates,Original*%
%TF.FileFunction,Soldermask,Top*%
%TF.FilePolarity,Negative*%
%FSLAX46Y46*%
G04 Gerber Fmt 4.6, Leading zero omitted, Abs format (unit mm)*
G04 Created by KiCad (PCBNEW 7.0.9) date 2024-01-15 18:06:47*
%MOMM*%
%LPD*%
G01*
G04 APERTURE LIST*
G04 Aperture macros list*
%AMRoundRect*
0 Rectangle with rounded corners*
0 $1 Rounding radius*
0 $2 $3 $4 $5 $6 $7 $8 $9 X,Y pos of 4 corners*
0 Add a 4 corners polygon primitive as box body*
4,1,4,$2,$3,$4,$5,$6,$7,$8,$9,$2,$3,0*
0 Add four circle primitives for the rounded corners*
1,1,$1+$1,$2,$3*
1,1,$1+$1,$4,$5*
1,1,$1+$1,$6,$7*
1,1,$1+$1,$8,$9*
0 Add four rect primitives between the rounded corners*
20,1,$1+$1,$2,$3,$4,$5,0*
20,1,$1+$1,$4,$5,$6,$7,0*
20,1,$1+$1,$6,$7,$8,$9,0*
20,1,$1+$1,$8,$9,$2,$3,0*%
G04 Aperture macros list end*
%ADD10C,0.600000*%
%ADD11O,0.600000X0.950000*%
%ADD12R,1.400000X0.300000*%
%ADD13O,2.300000X1.200000*%
%ADD14O,2.000000X1.200000*%
%ADD15RoundRect,0.200000X-0.200000X-0.275000X0.200000X-0.275000X0.200000X0.275000X-0.200000X0.275000X0*%
%ADD16RoundRect,0.225000X-0.250000X0.225000X-0.250000X-0.225000X0.250000X-0.225000X0.250000X0.225000X0*%
%ADD17R,1.000000X0.700000*%
%ADD18R,0.600000X0.700000*%
%ADD19RoundRect,0.218750X-0.218750X-0.256250X0.218750X-0.256250X0.218750X0.256250X-0.218750X0.256250X0*%
%ADD20R,1.700000X1.700000*%
%ADD21O,1.700000X1.700000*%
%ADD22RoundRect,0.225000X0.250000X-0.225000X0.250000X0.225000X-0.250000X0.225000X-0.250000X-0.225000X0*%
%ADD23C,0.991000*%
%ADD24C,0.787000*%
%ADD25RoundRect,0.200000X0.200000X0.275000X-0.200000X0.275000X-0.200000X-0.275000X0.200000X-0.275000X0*%
%ADD26R,1.650000X1.650000*%
%ADD27C,1.650000*%
%ADD28RoundRect,0.250200X-0.649800X-0.649800X0.649800X-0.649800X0.649800X0.649800X-0.649800X0.649800X0*%
%ADD29C,1.800000*%
%ADD30C,3.200000*%
%ADD31RoundRect,0.200000X-0.275000X0.200000X-0.275000X-0.200000X0.275000X-0.200000X0.275000X0.200000X0*%
%ADD32RoundRect,0.200000X0.275000X-0.200000X0.275000X0.200000X-0.275000X0.200000X-0.275000X-0.200000X0*%
%ADD33RoundRect,0.150000X-0.512500X-0.150000X0.512500X-0.150000X0.512500X0.150000X-0.512500X0.150000X0*%
%ADD34R,0.400000X0.650000*%
%ADD35RoundRect,0.250000X0.250000X0.475000X-0.250000X0.475000X-0.250000X-0.475000X0.250000X-0.475000X0*%
%ADD36R,1.000000X0.750000*%
%ADD37RoundRect,0.218750X0.218750X0.256250X-0.218750X0.256250X-0.218750X-0.256250X0.218750X-0.256250X0*%
%ADD38RoundRect,0.250000X0.450000X-0.262500X0.450000X0.262500X-0.450000X0.262500X-0.450000X-0.262500X0*%
%ADD39RoundRect,0.225000X0.225000X0.250000X-0.225000X0.250000X-0.225000X-0.250000X0.225000X-0.250000X0*%
%ADD40RoundRect,0.062500X-0.337500X-0.062500X0.337500X-0.062500X0.337500X0.062500X-0.337500X0.062500X0*%
%ADD41RoundRect,0.062500X-0.062500X-0.337500X0.062500X-0.337500X0.062500X0.337500X-0.062500X0.337500X0*%
%ADD42R,3.350000X3.350000*%
%ADD43RoundRect,0.225000X-0.225000X-0.250000X0.225000X-0.250000X0.225000X0.250000X-0.225000X0.250000X0*%
%ADD44R,1.500000X0.900000*%
%ADD45R,0.900000X1.500000*%
%ADD46C,0.475000*%
%ADD47R,4.200000X4.200000*%
G04 APERTURE END LIST*
D10*
%TO.C,J201*%
X5939000Y20167000D03*
D11*
X5939000Y14387000D03*
D12*
X7089000Y20627000D03*
X7089000Y19827000D03*
X7089000Y18527000D03*
X7089000Y17527000D03*
X7089000Y17027000D03*
X7089000Y16027000D03*
X7089000Y14727000D03*
X7089000Y13927000D03*
X7089000Y14227000D03*
X7089000Y15027000D03*
X7089000Y15527000D03*
X7089000Y16527000D03*
X7089000Y18027000D03*
X7089000Y19027000D03*
X7089000Y19527000D03*
X7089000Y20327000D03*
D13*
X6514000Y21602000D03*
D14*
X2239000Y21602000D03*
D13*
X6514000Y12952000D03*
D14*
X2239000Y12952000D03*
%TD*%
D15*
%TO.C,R101*%
X20257000Y27813000D03*
X21907000Y27813000D03*
%TD*%
D16*
%TO.C,C403*%
X17018000Y13221000D03*
X17018000Y11671000D03*
%TD*%
D17*
%TO.C,D201*%
X12180000Y18272000D03*
D18*
X10480000Y18272000D03*
X10480000Y16272000D03*
X12380000Y16272000D03*
%TD*%
D16*
%TO.C,C301*%
X7747000Y30645400D03*
X7747000Y29095400D03*
%TD*%
D19*
%TO.C,LED102*%
X12798000Y34925000D03*
X14373000Y34925000D03*
%TD*%
D20*
%TO.C,SW101*%
X12578000Y10414000D03*
D21*
X10038000Y10414000D03*
%TD*%
D22*
%TO.C,C102*%
X21844000Y29324000D03*
X21844000Y30874000D03*
%TD*%
D16*
%TO.C,C402*%
X15494000Y13221000D03*
X15494000Y11671000D03*
%TD*%
D23*
%TO.C,J105*%
X3429000Y26162000D03*
X2414000Y31242000D03*
X4444000Y31242000D03*
D24*
X4064000Y27432000D03*
X2794000Y27432000D03*
X4064000Y28702000D03*
X2794000Y28702000D03*
X4064000Y29972000D03*
X2794000Y29972000D03*
%TD*%
D19*
%TO.C,LED101*%
X12798000Y33147000D03*
X14373000Y33147000D03*
%TD*%
D25*
%TO.C,R107*%
X17535000Y36703000D03*
X15885000Y36703000D03*
%TD*%
D26*
%TO.C,J104*%
X38354000Y4191000D03*
D27*
X40894000Y4191000D03*
X43434000Y4191000D03*
%TD*%
D28*
%TO.C,U106*%
X28321000Y3937000D03*
D29*
X30861000Y3937000D03*
X33401000Y3937000D03*
%TD*%
D26*
%TO.C,J102*%
X60706000Y12573000D03*
D27*
X60706000Y15113000D03*
X60706000Y17653000D03*
%TD*%
D30*
%TO.C,H104*%
X3683000Y3683000D03*
%TD*%
D25*
%TO.C,R105*%
X17526000Y34925000D03*
X15876000Y34925000D03*
%TD*%
D26*
%TO.C,J101*%
X60706000Y23114000D03*
D27*
X60706000Y25654000D03*
X60706000Y28194000D03*
%TD*%
D31*
%TO.C,R108*%
X53340000Y15811000D03*
X53340000Y14161000D03*
%TD*%
D32*
%TO.C,R103*%
X53340000Y21527000D03*
X53340000Y23177000D03*
%TD*%
D22*
%TO.C,C101*%
X20320000Y29324000D03*
X20320000Y30874000D03*
%TD*%
D32*
%TO.C,R106*%
X53340000Y17844000D03*
X53340000Y19494000D03*
%TD*%
D22*
%TO.C,C202*%
X9271000Y29095400D03*
X9271000Y30645400D03*
%TD*%
D33*
%TO.C,U101*%
X48265500Y26985000D03*
X48265500Y26035000D03*
X48265500Y25085000D03*
X50540500Y25085000D03*
X50540500Y26985000D03*
%TD*%
%TO.C,U102*%
X48265500Y23302000D03*
X48265500Y22352000D03*
X48265500Y21402000D03*
X50540500Y21402000D03*
X50540500Y23302000D03*
%TD*%
D16*
%TO.C,C401*%
X13944600Y15481600D03*
X13944600Y13931600D03*
%TD*%
D30*
%TO.C,H103*%
X61083000Y3683000D03*
%TD*%
D34*
%TO.C,Q401*%
X21270200Y21464796D03*
X21920200Y21464796D03*
X22570200Y21464796D03*
X22570200Y23364796D03*
X21920200Y23364796D03*
X21270200Y23364796D03*
%TD*%
D30*
%TO.C,H101*%
X3683000Y35814000D03*
%TD*%
D35*
%TO.C,C201*%
X8951000Y23876000D03*
X7051000Y23876000D03*
%TD*%
D36*
%TO.C,SW105*%
X19479000Y5050000D03*
X25479000Y5050000D03*
X19479000Y1300000D03*
X25479000Y1300000D03*
%TD*%
D37*
%TO.C,F201*%
X12496900Y25704800D03*
X10921900Y25704800D03*
%TD*%
D33*
%TO.C,U105*%
X48265500Y15936000D03*
X48265500Y14986000D03*
X48265500Y14036000D03*
X50540500Y14036000D03*
X50540500Y15936000D03*
%TD*%
D38*
%TO.C,FB201*%
X8864600Y25757500D03*
X8864600Y27582500D03*
%TD*%
D39*
%TO.C,R201*%
X5982000Y10922000D03*
X4432000Y10922000D03*
%TD*%
D31*
%TO.C,R402*%
X19685000Y23188996D03*
X19685000Y21538996D03*
%TD*%
D33*
%TO.C,U301*%
X11435500Y29205000D03*
X11435500Y28255000D03*
X11435500Y27305000D03*
X13710500Y27305000D03*
X13710500Y29205000D03*
%TD*%
D26*
%TO.C,J103*%
X48895000Y4191000D03*
D27*
X51435000Y4191000D03*
X53975000Y4191000D03*
%TD*%
D40*
%TO.C,U401*%
X16244400Y19039000D03*
X16244400Y18539000D03*
X16244400Y18039000D03*
X16244400Y17539000D03*
X16244400Y17039000D03*
X16244400Y16539000D03*
X16244400Y16039000D03*
D41*
X17194400Y15089000D03*
X17694400Y15089000D03*
X18194400Y15089000D03*
X18694400Y15089000D03*
X19194400Y15089000D03*
X19694400Y15089000D03*
X20194400Y15089000D03*
D40*
X21144400Y16039000D03*
X21144400Y16539000D03*
X21144400Y17039000D03*
X21144400Y17539000D03*
X21144400Y18039000D03*
X21144400Y18539000D03*
X21144400Y19039000D03*
D41*
X20194400Y19989000D03*
X19694400Y19989000D03*
X19194400Y19989000D03*
X18694400Y19989000D03*
X18194400Y19989000D03*
X17694400Y19989000D03*
X17194400Y19989000D03*
D42*
X18694400Y17539000D03*
%TD*%
D43*
%TO.C,R202*%
X2908000Y23622000D03*
X4458000Y23622000D03*
%TD*%
D16*
%TO.C,C104*%
X23368000Y27826000D03*
X23368000Y26276000D03*
%TD*%
D33*
%TO.C,U104*%
X48265500Y19619000D03*
X48265500Y18669000D03*
X48265500Y17719000D03*
X50540500Y17719000D03*
X50540500Y19619000D03*
%TD*%
D19*
%TO.C,LED103*%
X12773000Y36703000D03*
X14348000Y36703000D03*
%TD*%
D32*
%TO.C,R102*%
X53340000Y25210000D03*
X53340000Y26860000D03*
%TD*%
D39*
%TO.C,C302*%
X13449600Y30886400D03*
X11899600Y30886400D03*
%TD*%
D36*
%TO.C,SW103*%
X10081000Y5050000D03*
X16081000Y5050000D03*
X10081000Y1300000D03*
X16081000Y1300000D03*
%TD*%
D30*
%TO.C,H102*%
X61083000Y35814000D03*
%TD*%
D32*
%TO.C,R401*%
X24155400Y21553796D03*
X24155400Y23203796D03*
%TD*%
D44*
%TO.C,U103*%
X26481500Y31217000D03*
X26481500Y29947000D03*
X26481500Y28677000D03*
X26481500Y27407000D03*
X26481500Y26137000D03*
X26481500Y24867000D03*
X26481500Y23597000D03*
X26481500Y22327000D03*
X26481500Y21057000D03*
X26481500Y19787000D03*
X26481500Y18517000D03*
X26481500Y17247000D03*
X26481500Y15977000D03*
X26481500Y14707000D03*
D45*
X29521500Y13457000D03*
X30791500Y13457000D03*
X32061500Y13457000D03*
X33331500Y13457000D03*
X34601500Y13457000D03*
X35871500Y13457000D03*
X37141500Y13457000D03*
X38411500Y13457000D03*
X39681500Y13457000D03*
X40951500Y13457000D03*
D44*
X43981500Y14707000D03*
X43981500Y15977000D03*
X43981500Y17247000D03*
X43981500Y18517000D03*
X43981500Y19787000D03*
X43981500Y21057000D03*
X43981500Y22327000D03*
X43981500Y23597000D03*
X43981500Y24867000D03*
X43981500Y26137000D03*
X43981500Y27407000D03*
X43981500Y28677000D03*
X43981500Y29947000D03*
X43981500Y31217000D03*
D46*
X33026500Y24639500D03*
X33026500Y23114500D03*
X33789000Y25402000D03*
X33789000Y23877000D03*
X33789000Y22352000D03*
X34551500Y24639500D03*
D47*
X34551500Y23877000D03*
D46*
X34551500Y23114500D03*
X35314000Y25402000D03*
X35314000Y23877000D03*
X35314000Y22352000D03*
X36076500Y24639500D03*
X36076500Y23114500D03*
%TD*%
D25*
%TO.C,R104*%
X17526000Y33147000D03*
X15876000Y33147000D03*
%TD*%
M02*
